<?xml version="1.0" encoding="UTF-8" standalone="no"?>
<!DOCTYPE svg PUBLIC "-//W3C//DTD SVG 1.1//EN"
 "http://www.w3.org/Graphics/SVG/1.1/DTD/svg11.dtd">
<!-- Generated by graphviz version 2.38.0 (20140413.2041)
 -->
<!-- Title: G Pages: 1 -->
<svg width="386pt" height="89pt"
 viewBox="0.00 0.00 385.56 88.70" xmlns="http://www.w3.org/2000/svg" xmlns:xlink="http://www.w3.org/1999/xlink">
<g id="graph0" class="graph" transform="scale(1 1) rotate(0) translate(4 84.7)">
<title>G</title>
<polygon fill="white" stroke="none" points="-4,4 -4,-84.7 381.555,-84.7 381.555,4 -4,4"/>
<!-- im1 -->
<g id="node1" class="node"><title>im1</title>
<polygon fill="none" stroke="black" points="208.681,-36 0.106195,-36 0.106195,-0 214.681,-0 214.681,-30 208.681,-36"/>
<polyline fill="none" stroke="black" points="208.681,-36 208.681,-30 "/>
<polyline fill="none" stroke="black" points="214.681,-30 208.681,-30 "/>
<text text-anchor="middle" x="107.394" y="-13.8" font-family="Times,serif" font-size="14.00">Incoming Message from &#39;Jim&#39; = 40</text>
</g>
<!-- q1 -->
<g id="node2" class="node"><title>q1</title>
<polygon fill="none" stroke="black" points="250.787,-5.8 250.787,-80.2 377.555,-80.2 377.555,-5.8 250.787,-5.8"/>
<text text-anchor="middle" x="314.171" y="-63.6" font-family="Times,serif" font-size="14.00">Leaderboard Queue</text>
<polyline fill="none" stroke="black" points="250.787,-55.4 377.555,-55.4 "/>
<text text-anchor="middle" x="314.171" y="-38.8" font-family="Times,serif" font-size="14.00">Tom,30</text>
<polyline fill="none" stroke="black" points="250.787,-30.6 377.555,-30.6 "/>
<text text-anchor="middle" x="314.171" y="-14" font-family="Times,serif" font-size="14.00">Jim,40</text>
</g>
<!-- im1&#45;&gt;q1 -->
<g id="edge1" class="edge"><title>im1&#45;&gt;q1:m</title>
<path fill="none" stroke="black" d="M214.918,-18C223.519,-18 232.147,-18 240.592,-18"/>
<polygon fill="black" stroke="black" points="240.787,-21.5001 250.787,-18 240.787,-14.5001 240.787,-21.5001"/>
</g>
</g>
</svg>