<?xml version="1.0" encoding="UTF-8" standalone="no"?>
<!DOCTYPE svg PUBLIC "-//W3C//DTD SVG 1.1//EN"
 "http://www.w3.org/Graphics/SVG/1.1/DTD/svg11.dtd">
<!-- Generated by graphviz version 2.38.0 (20140413.2041)
 -->
<!-- Title: G Pages: 1 -->
<svg width="392pt" height="83pt"
 viewBox="0.00 0.00 391.77 83.40" xmlns="http://www.w3.org/2000/svg" xmlns:xlink="http://www.w3.org/1999/xlink">
<g id="graph0" class="graph" transform="scale(1 1) rotate(0) translate(4 79.4)">
<title>G</title>
<polygon fill="white" stroke="none" points="-4,4 -4,-79.4 387.773,-79.4 387.773,4 -4,4"/>
<!-- im1 -->
<g id="node1" class="node"><title>im1</title>
<polygon fill="none" stroke="black" points="215.007,-55.7 -0.00240005,-55.7 -0.00240005,-19.7 221.007,-19.7 221.007,-49.7 215.007,-55.7"/>
<polyline fill="none" stroke="black" points="215.007,-55.7 215.007,-49.7 "/>
<polyline fill="none" stroke="black" points="221.007,-49.7 215.007,-49.7 "/>
<text text-anchor="middle" x="110.502" y="-33.5" font-family="Times,serif" font-size="14.00">Incoming Message from &#39;Tom&#39; = 30</text>
</g>
<!-- q1 -->
<g id="node2" class="node"><title>q1</title>
<polygon fill="none" stroke="black" points="257.005,-0.5 257.005,-74.9 383.773,-74.9 383.773,-0.5 257.005,-0.5"/>
<text text-anchor="middle" x="320.389" y="-58.3" font-family="Times,serif" font-size="14.00">Leaderboard Queue</text>
<polyline fill="none" stroke="black" points="257.005,-50.1 383.773,-50.1 "/>
<text text-anchor="middle" x="320.389" y="-33.5" font-family="Times,serif" font-size="14.00">Tom,30</text>
<polyline fill="none" stroke="black" points="257.005,-25.3 383.773,-25.3 "/>
<text text-anchor="middle" x="320.389" y="-8.7" font-family="Times,serif" font-size="14.00">Jim,20</text>
</g>
<!-- im1&#45;&gt;q1 -->
<g id="edge1" class="edge"><title>im1&#45;&gt;q1:m</title>
<path fill="none" stroke="black" d="M221.142,-37.7C229.745,-37.7 238.369,-37.7 246.811,-37.7"/>
<polygon fill="black" stroke="black" points="247.005,-41.2001 257.005,-37.7 247.005,-34.2001 247.005,-41.2001"/>
</g>
</g>
</svg>