<?xml version="1.0" encoding="UTF-8" standalone="no"?>
<!DOCTYPE svg PUBLIC "-//W3C//DTD SVG 1.1//EN"
 "http://www.w3.org/Graphics/SVG/1.1/DTD/svg11.dtd">
<!-- Generated by graphviz version 2.38.0 (20140413.2041)
 -->
<!-- Title: G Pages: 1 -->
<svg width="370pt" height="63pt"
 viewBox="0.00 0.00 370.02 63.30" xmlns="http://www.w3.org/2000/svg" xmlns:xlink="http://www.w3.org/1999/xlink">
<g id="graph0" class="graph" transform="scale(1 1) rotate(0) translate(4 59.3)">
<title>G</title>
<polygon fill="white" stroke="none" points="-4,4 -4,-59.3 366.018,-59.3 366.018,4 -4,4"/>
<!-- im1 -->
<g id="node1" class="node"><title>im1</title>
<polygon fill="none" stroke="black" points="215.007,-36 -0.00240005,-36 -0.00240005,-0 221.007,-0 221.007,-30 215.007,-36"/>
<polyline fill="none" stroke="black" points="215.007,-36 215.007,-30 "/>
<polyline fill="none" stroke="black" points="221.007,-30 215.007,-30 "/>
<text text-anchor="middle" x="110.502" y="-13.8" font-family="Times,serif" font-size="14.00">Incoming Message from &#39;Tom&#39; = 10</text>
</g>
<!-- q1 -->
<g id="node2" class="node"><title>q1</title>
<polygon fill="none" stroke="black" points="257.005,-5.2 257.005,-54.8 362.018,-54.8 362.018,-5.2 257.005,-5.2"/>
<text text-anchor="middle" x="309.512" y="-38.2" font-family="Times,serif" font-size="14.00">Message Queue</text>
<polyline fill="none" stroke="black" points="257.005,-30 362.018,-30 "/>
<text text-anchor="middle" x="309.512" y="-13.4" font-family="Times,serif" font-size="14.00">Tom,10</text>
</g>
<!-- im1&#45;&gt;q1 -->
<g id="edge1" class="edge"><title>im1&#45;&gt;q1:m</title>
<path fill="none" stroke="black" d="M221.142,-18C229.745,-18 238.369,-18 246.811,-18"/>
<polygon fill="black" stroke="black" points="247.005,-21.5001 257.005,-18 247.005,-14.5001 247.005,-21.5001"/>
</g>
</g>
</svg>