<?xml version="1.0" encoding="UTF-8" standalone="no"?>
<!DOCTYPE svg PUBLIC "-//W3C//DTD SVG 1.1//EN"
 "http://www.w3.org/Graphics/SVG/1.1/DTD/svg11.dtd">
<!-- Generated by graphviz version 2.38.0 (20140413.2041)
 -->
<!-- Title: G Pages: 1 -->
<svg width="668pt" height="274pt"
 viewBox="0.00 0.00 668.42 274.00" xmlns="http://www.w3.org/2000/svg" xmlns:xlink="http://www.w3.org/1999/xlink">
<g id="graph0" class="graph" transform="scale(1 1) rotate(0) translate(4 270)">
<title>G</title>
<polygon fill="white" stroke="none" points="-4,4 -4,-270 664.424,-270 664.424,4 -4,4"/>
<g id="clust1" class="cluster"><title>clusterA</title>
<polygon fill="none" stroke="black" points="456.424,-180 456.424,-258 652.424,-258 652.424,-180 456.424,-180"/>
<text text-anchor="middle" x="554.424" y="-241.4" font-family="Times,serif" font-size="14.00">Alpha Anywhere Instance 1</text>
</g>
<g id="clust2" class="cluster"><title>clusterB</title>
<polygon fill="none" stroke="black" points="456.424,-94 456.424,-172 652.424,-172 652.424,-94 456.424,-94"/>
<text text-anchor="middle" x="554.424" y="-155.4" font-family="Times,serif" font-size="14.00">Alpha Anywhere Instance 2</text>
</g>
<g id="clust3" class="cluster"><title>clusterC</title>
<polygon fill="none" stroke="black" points="456.424,-8 456.424,-86 652.424,-86 652.424,-8 456.424,-8"/>
<text text-anchor="middle" x="554.424" y="-69.4" font-family="Times,serif" font-size="14.00">Alpha Anywhere Instance 3</text>
</g>
<g id="clust4" class="cluster"><title>clusterD</title>
<polygon fill="none" stroke="black" points="4,-94 4,-172 208,-172 208,-94 4,-94"/>
<text text-anchor="middle" x="106" y="-155.4" font-family="Times,serif" font-size="14.00">Alpha Anywhere Master Instance</text>
</g>
<g id="clust5" class="cluster"><title>clusterE</title>
<polygon fill="none" stroke="black" points="229,-76 229,-190 389,-190 389,-76 229,-76"/>
<text text-anchor="middle" x="309" y="-173.4" font-family="Times,serif" font-size="14.00">Redis Server</text>
</g>
<!-- im1 -->
<g id="node1" class="node"><title>im1</title>
<polygon fill="none" stroke="black" points="464.424,-189 464.424,-225 644.424,-225 644.424,-189 464.424,-189"/>
<text text-anchor="middle" x="554.424" y="-202.9" font-family="Times,serif" font-size="14.00">Redis Listener (subscribe)</text>
</g>
<!-- im2 -->
<g id="node2" class="node"><title>im2</title>
<polygon fill="none" stroke="black" points="464.424,-103 464.424,-139 644.424,-139 644.424,-103 464.424,-103"/>
<text text-anchor="middle" x="554.424" y="-116.9" font-family="Times,serif" font-size="14.00">Redis Listener (subscribe)</text>
</g>
<!-- im3 -->
<g id="node3" class="node"><title>im3</title>
<polygon fill="none" stroke="black" points="464.424,-17 464.424,-53 644.424,-53 644.424,-17 464.424,-17"/>
<text text-anchor="middle" x="554.424" y="-30.9" font-family="Times,serif" font-size="14.00">Redis Listener (subscribe)</text>
</g>
<!-- im4 -->
<g id="node4" class="node"><title>im4</title>
<polygon fill="none" stroke="black" points="16,-103 16,-139 196,-139 196,-103 16,-103"/>
<text text-anchor="middle" x="106" y="-116.9" font-family="Times,serif" font-size="14.00">Redist Client (publish)</text>
</g>
<!-- q1 -->
<g id="node5" class="node"><title>q1</title>
<polygon fill="none" stroke="black" points="237,-85 237,-157 381,-157 381,-85 237,-85"/>
<text text-anchor="middle" x="309" y="-116.9" font-family="Times,serif" font-size="14.00">Channel</text>
</g>
<!-- im4&#45;&gt;q1 -->
<g id="edge1" class="edge"><title>im4:m&#45;&gt;q1:m</title>
<path fill="none" stroke="black" stroke-dasharray="5,2" d="M196.221,-121C206.281,-121 216.49,-121 226.447,-121"/>
<polygon fill="black" stroke="black" points="226.715,-124.5 236.715,-121 226.715,-117.5 226.715,-124.5"/>
</g>
<!-- q1&#45;&gt;im1 -->
<g id="edge2" class="edge"><title>q1:m&#45;&gt;im1:m</title>
<path fill="none" stroke="black" d="M381.267,-156.625C403.934,-166.871 429.518,-177.526 454.286,-185.893"/>
<polygon fill="black" stroke="black" points="453.505,-189.32 464.097,-189.097 455.678,-182.665 453.505,-189.32"/>
<text text-anchor="middle" x="422.712" y="-186.2" font-family="Times,serif" font-size="14.00">message</text>
</g>
<!-- q1&#45;&gt;im2 -->
<g id="edge3" class="edge"><title>q1:m&#45;&gt;im2:m</title>
<path fill="none" stroke="black" d="M381.308,-121C404.174,-121 429.866,-121 454.318,-121"/>
<polygon fill="black" stroke="black" points="454.344,-124.5 464.344,-121 454.343,-117.5 454.344,-124.5"/>
<text text-anchor="middle" x="422.712" y="-125.2" font-family="Times,serif" font-size="14.00">message</text>
</g>
<!-- q1&#45;&gt;im3 -->
<g id="edge4" class="edge"><title>q1:m&#45;&gt;im3:m</title>
<path fill="none" stroke="black" d="M381.287,-85.52C403.955,-75.3072 429.537,-64.6778 454.292,-56.3095"/>
<polygon fill="black" stroke="black" points="455.681,-59.5377 464.098,-53.1027 453.505,-52.8844 455.681,-59.5377"/>
<text text-anchor="middle" x="422.712" y="-82.2" font-family="Times,serif" font-size="14.00">message</text>
</g>
</g>
</svg>