<?xml version="1.0" encoding="UTF-8" standalone="no"?>
<!DOCTYPE svg PUBLIC "-//W3C//DTD SVG 1.1//EN"
 "http://www.w3.org/Graphics/SVG/1.1/DTD/svg11.dtd">
<!-- Generated by graphviz version 2.38.0 (20140413.2041)
 -->
<!-- Title: G Pages: 1 -->
<svg width="390pt" height="197pt"
 viewBox="0.00 0.00 390.00 196.60" xmlns="http://www.w3.org/2000/svg" xmlns:xlink="http://www.w3.org/1999/xlink">
<g id="graph0" class="graph" transform="scale(1 1) rotate(0) translate(4 192.6)">
<title>G</title>
<polygon fill="white" stroke="none" points="-4,4 -4,-192.6 386,-192.6 386,4 -4,4"/>
<!-- im1 -->
<g id="node1" class="node"><title>im1</title>
<polygon fill="lightyellow" stroke="black" points="0,-138.5 0,-188.1 202,-188.1 202,-138.5 0,-138.5"/>
<text text-anchor="middle" x="101" y="-171.5" font-family="Arial" font-size="14.00">Alpha Anywhere Instance 1</text>
<polyline fill="none" stroke="black" points="0,-163.3 202,-163.3 "/>
<text text-anchor="middle" x="101" y="-146.7" font-family="Arial" font-size="14.00">Redis Client</text>
</g>
<!-- q1 -->
<g id="node4" class="node"><title>q1</title>
<polygon fill="lightgreen" stroke="black" points="238,-55.3 238,-163.3 382,-163.3 382,-55.3 238,-55.3"/>
<text text-anchor="middle" x="310" y="-132.2" font-family="Arial" font-size="14.00">Redis Server</text>
<polyline fill="none" stroke="black" points="238,-109.5 382,-109.5 "/>
<text text-anchor="middle" x="310" y="-78.4" font-family="Arial" font-size="14.00">Shared Data</text>
</g>
<!-- im1&#45;&gt;q1 -->
<g id="edge1" class="edge"><title>im1:m&#45;&gt;q1:m</title>
<path fill="none" stroke="black" d="M202,-151.3C232.266,-151.3 210.646,-98.4719 227.941,-85.2648"/>
<polygon fill="black" stroke="black" points="229.397,-88.4844 238,-82.3 227.418,-81.77 229.397,-88.4844"/>
</g>
<!-- im2 -->
<g id="node2" class="node"><title>im2</title>
<polygon fill="lightyellow" stroke="black" points="0,-69.5 0,-119.1 202,-119.1 202,-69.5 0,-69.5"/>
<text text-anchor="middle" x="101" y="-102.5" font-family="Arial" font-size="14.00">Alpha Anywhere Instance 2</text>
<polyline fill="none" stroke="black" points="0,-94.3 202,-94.3 "/>
<text text-anchor="middle" x="101" y="-77.7" font-family="Arial" font-size="14.00">Redis Client</text>
</g>
<!-- im2&#45;&gt;q1 -->
<g id="edge2" class="edge"><title>im2:m&#45;&gt;q1:m</title>
<path fill="none" stroke="black" d="M202,-82.3C214,-82.3 219.25,-82.3 227.875,-82.3"/>
<polygon fill="black" stroke="black" points="228,-85.8001 238,-82.3 228,-78.8001 228,-85.8001"/>
</g>
<!-- im3 -->
<g id="node3" class="node"><title>im3</title>
<polygon fill="lightyellow" stroke="black" points="0,-0.5 0,-50.1 202,-50.1 202,-0.5 0,-0.5"/>
<text text-anchor="middle" x="101" y="-33.5" font-family="Arial" font-size="14.00">Node Instance 1</text>
<polyline fill="none" stroke="black" points="0,-25.3 202,-25.3 "/>
<text text-anchor="middle" x="101" y="-8.7" font-family="Arial" font-size="14.00">Redist Client</text>
</g>
<!-- im3&#45;&gt;q1 -->
<g id="edge3" class="edge"><title>im3:m&#45;&gt;q1:m</title>
<path fill="none" stroke="black" d="M202,-13.3C232.266,-13.3 210.646,-66.1281 227.941,-79.3352"/>
<polygon fill="black" stroke="black" points="227.418,-82.83 238,-82.3 229.397,-76.1156 227.418,-82.83"/>
</g>
</g>
</svg>