<?xml version="1.0" encoding="UTF-8" standalone="no"?>
<!DOCTYPE svg PUBLIC "-//W3C//DTD SVG 1.1//EN"
 "http://www.w3.org/Graphics/SVG/1.1/DTD/svg11.dtd">
<!-- Generated by graphviz version 2.38.0 (20140413.2041)
 -->
<!-- Title: G Pages: 1 -->
<svg width="711pt" height="274pt"
 viewBox="0.00 0.00 710.58 274.00" xmlns="http://www.w3.org/2000/svg" xmlns:xlink="http://www.w3.org/1999/xlink">
<g id="graph0" class="graph" transform="scale(1 1) rotate(0) translate(4 270)">
<title>G</title>
<polygon fill="white" stroke="none" points="-4,4 -4,-270 706.582,-270 706.582,4 -4,4"/>
<g id="clust1" class="cluster"><title>clusterA</title>
<polygon fill="lightyellow" stroke="black" points="498.582,-180 498.582,-258 694.582,-258 694.582,-180 498.582,-180"/>
<text text-anchor="middle" x="596.582" y="-241.4" font-family="Arial" font-size="14.00">Alpha Anywhere Instance 1</text>
</g>
<g id="clust2" class="cluster"><title>clusterB</title>
<polygon fill="lightyellow" stroke="black" points="498.582,-94 498.582,-172 694.582,-172 694.582,-94 498.582,-94"/>
<text text-anchor="middle" x="596.582" y="-155.4" font-family="Arial" font-size="14.00">Alpha Anywhere Instance 2</text>
</g>
<g id="clust3" class="cluster"><title>clusterC</title>
<polygon fill="lightyellow" stroke="black" points="498.582,-8 498.582,-86 694.582,-86 694.582,-8 498.582,-8"/>
<text text-anchor="middle" x="596.582" y="-69.4" font-family="Arial" font-size="14.00">Alpha Anywhere Instance 3</text>
</g>
<g id="clust4" class="cluster"><title>clusterD</title>
<polygon fill="lightyellow" stroke="black" points="0,-94 0,-172 221,-172 221,-94 0,-94"/>
<text text-anchor="middle" x="110.5" y="-155.4" font-family="Arial" font-size="14.00">Alpha Anywhere Master Instance</text>
</g>
<g id="clust5" class="cluster"><title>clusterE</title>
<polygon fill="lightgreen" stroke="black" points="297.791,-76 297.791,-190 421.791,-190 421.791,-76 297.791,-76"/>
<text text-anchor="middle" x="359.791" y="-173.4" font-family="Arial" font-size="14.00">Redis Server</text>
</g>
<!-- im1 -->
<g id="node1" class="node"><title>im1</title>
<polygon fill="white" stroke="black" points="506.582,-189 506.582,-225 686.582,-225 686.582,-189 506.582,-189"/>
<text text-anchor="middle" x="596.582" y="-202.9" font-family="Arial" font-size="14.00">Redis Listener (subscribe)</text>
</g>
<!-- im2 -->
<g id="node2" class="node"><title>im2</title>
<polygon fill="white" stroke="black" points="506.582,-103 506.582,-139 686.582,-139 686.582,-103 506.582,-103"/>
<text text-anchor="middle" x="596.582" y="-116.9" font-family="Arial" font-size="14.00">Redis Listener (subscribe)</text>
</g>
<!-- im3 -->
<g id="node3" class="node"><title>im3</title>
<polygon fill="white" stroke="black" points="506.582,-17 506.582,-53 686.582,-53 686.582,-17 506.582,-17"/>
<text text-anchor="middle" x="596.582" y="-30.9" font-family="Arial" font-size="14.00">Redis Listener (subscribe)</text>
</g>
<!-- im4 -->
<g id="node4" class="node"><title>im4</title>
<polygon fill="white" stroke="black" points="20,-103 20,-139 200,-139 200,-103 20,-103"/>
<text text-anchor="middle" x="110" y="-116.9" font-family="Arial" font-size="14.00">Redist Client (publish)</text>
</g>
<!-- q1 -->
<g id="node5" class="node"><title>q1</title>
<polygon fill="white" stroke="black" points="305.791,-85 305.791,-157 413.791,-157 413.791,-85 305.791,-85"/>
<text text-anchor="middle" x="359.791" y="-116.9" font-family="Arial" font-size="14.00">Channel</text>
</g>
<!-- im4&#45;&gt;q1 -->
<g id="edge1" class="edge"><title>im4:m&#45;&gt;q1:m</title>
<path fill="none" stroke="black" d="M200.18,-121C231.807,-121 266.66,-121 295.707,-121"/>
<polygon fill="black" stroke="black" points="295.725,-124.5 305.725,-121 295.725,-117.5 295.725,-124.5"/>
<text text-anchor="middle" x="259.395" y="-125.2" font-family="Arial" font-size="14.00">message</text>
</g>
<!-- q1&#45;&gt;im1 -->
<g id="edge2" class="edge"><title>q1:m&#45;&gt;im1:m</title>
<path fill="none" stroke="black" d="M413.942,-149.958C438.264,-162.078 467.892,-175.669 496.541,-185.787"/>
<polygon fill="black" stroke="black" points="495.616,-189.17 506.211,-189.079 497.872,-182.543 495.616,-189.17"/>
<text text-anchor="middle" x="460.187" y="-185.2" font-family="Arial" font-size="14.00">message</text>
</g>
<!-- q1&#45;&gt;im2 -->
<g id="edge3" class="edge"><title>q1:m&#45;&gt;im2:m</title>
<path fill="none" stroke="black" d="M413.819,-121C438.254,-121 467.945,-121 496.228,-121"/>
<polygon fill="black" stroke="black" points="496.573,-124.5 506.573,-121 496.573,-117.5 496.573,-124.5"/>
<text text-anchor="middle" x="460.187" y="-125.2" font-family="Arial" font-size="14.00">message</text>
</g>
<!-- q1&#45;&gt;im3 -->
<g id="edge4" class="edge"><title>q1:m&#45;&gt;im3:m</title>
<path fill="none" stroke="black" d="M413.961,-92.1624C438.287,-80.0853 467.914,-66.5331 496.548,-56.4142"/>
<polygon fill="black" stroke="black" points="497.875,-59.6598 506.211,-53.1213 495.617,-53.0339 497.875,-59.6598"/>
<text text-anchor="middle" x="460.187" y="-87.2" font-family="Arial" font-size="14.00">message</text>
</g>
</g>
</svg>