<?xml version="1.0" encoding="UTF-8" standalone="no"?>
<!DOCTYPE svg PUBLIC "-//W3C//DTD SVG 1.1//EN"
 "http://www.w3.org/Graphics/SVG/1.1/DTD/svg11.dtd">
<!-- Generated by graphviz version 2.38.0 (20140413.2041)
 -->
<!-- Title: G Pages: 1 -->
<svg width="506pt" height="300pt"
 viewBox="0.00 0.00 505.81 300.00" xmlns="http://www.w3.org/2000/svg" xmlns:xlink="http://www.w3.org/1999/xlink">
<g id="graph0" class="graph" transform="scale(1 1) rotate(0) translate(4 296)">
<title>G</title>
<polygon fill="white" stroke="none" points="-4,4 -4,-296 501.806,-296 501.806,4 -4,4"/>
<g id="clust1" class="cluster"><title>clusterA</title>
<polygon fill="lightyellow" stroke="black" points="8,-193 8,-284 204,-284 204,-193 8,-193"/>
<text text-anchor="middle" x="106" y="-267.4" font-family="Arial" font-size="14.00">Alpha Anywhere Instance 1</text>
</g>
<g id="clust2" class="cluster"><title>clusterB</title>
<polygon fill="lightyellow" stroke="black" points="8,-94 8,-185 204,-185 204,-94 8,-94"/>
<text text-anchor="middle" x="106" y="-168.4" font-family="Arial" font-size="14.00">Alpha Anywhere Instance 2</text>
</g>
<g id="clust3" class="cluster"><title>clusterC</title>
<polygon fill="lightyellow" stroke="black" points="8,-8 8,-86 204,-86 204,-8 8,-8"/>
<text text-anchor="middle" x="106" y="-69.4" font-family="Arial" font-size="14.00">Node Instance 1</text>
</g>
<g id="clust4" class="cluster"><title>clusterD</title>
<polygon fill="lightgreen" stroke="black" points="329.806,-90 329.806,-204 489.806,-204 489.806,-90 329.806,-90"/>
<text text-anchor="middle" x="409.806" y="-187.4" font-family="Arial" font-size="14.00">Redis Server</text>
</g>
<!-- im1 -->
<g id="node1" class="node"><title>im1</title>
<polygon fill="white" stroke="black" points="16,-201.2 16,-250.8 196,-250.8 196,-201.2 16,-201.2"/>
<text text-anchor="middle" x="106" y="-234.2" font-family="Arial" font-size="14.00">Redis Listener</text>
<polyline fill="none" stroke="black" points="16,-226 196,-226 "/>
<text text-anchor="middle" x="106" y="-209.4" font-family="Arial" font-size="14.00">Redis Client</text>
</g>
<!-- q1 -->
<g id="node4" class="node"><title>q1</title>
<polygon fill="white" stroke="black" points="337.806,-99 337.806,-171 481.806,-171 481.806,-99 337.806,-99"/>
<text text-anchor="middle" x="409.806" y="-148.9" font-family="Arial" font-size="14.00">Request List</text>
<polyline fill="none" stroke="black" points="337.806,-135.2 481.806,-135.2 "/>
<text text-anchor="middle" x="409.806" y="-113.1" font-family="Arial" font-size="14.00">Response List</text>
</g>
<!-- im1&#45;&gt;q1 -->
<g id="edge1" class="edge"><title>im1:r&#45;&gt;q1:r</title>
<path fill="none" stroke="black" d="M197,-214C207.315,-214 204.883,-203.026 214,-198.2 256.635,-175.632 284.606,-206.984 319.806,-174 335.631,-159.172 319.144,-130.315 327.3,-120.424"/>
<polygon fill="black" stroke="black" points="328.584,-123.681 336.806,-117 326.212,-117.095 328.584,-123.681"/>
<text text-anchor="middle" x="266.903" y="-203.2" font-family="Arial" font-size="14.00">Return Reponse</text>
</g>
<!-- im2 -->
<g id="node2" class="node"><title>im2</title>
<polygon fill="white" stroke="black" points="16,-102.2 16,-151.8 196,-151.8 196,-102.2 16,-102.2"/>
<text text-anchor="middle" x="106" y="-135.2" font-family="Arial" font-size="14.00">Redis Listener</text>
<polyline fill="none" stroke="black" points="16,-127 196,-127 "/>
<text text-anchor="middle" x="106" y="-110.4" font-family="Arial" font-size="14.00">Redis Client</text>
</g>
<!-- im2&#45;&gt;q1 -->
<g id="edge2" class="edge"><title>im2:r&#45;&gt;q1:r</title>
<path fill="none" stroke="black" d="M197,-115C251.583,-115 265.245,-114.65 319.806,-116.2 322.642,-116.281 324.678,-116.413 326.514,-116.548"/>
<polygon fill="black" stroke="black" points="326.662,-120.057 336.806,-117 326.97,-113.064 326.662,-120.057"/>
<text text-anchor="middle" x="266.903" y="-121.2" font-family="Arial" font-size="14.00">Return Reponse</text>
</g>
<!-- im4 -->
<g id="node3" class="node"><title>im4</title>
<polygon fill="white" stroke="black" points="16,-17 16,-53 196,-53 196,-17 16,-17"/>
<text text-anchor="middle" x="106" y="-30.9" font-family="Arial" font-size="14.00">Redist Client</text>
</g>
<!-- im4&#45;&gt;q1 -->
<g id="edge3" class="edge"><title>im4:m&#45;&gt;q1:m</title>
<path fill="none" stroke="black" stroke-dasharray="5,2" d="M196.069,-50.4301C246.325,-60.8191 302.259,-75.9403 319.806,-94.2 335.416,-110.444 318.175,-140.108 327.236,-149.826"/>
<polygon fill="black" stroke="black" points="326.213,-153.174 336.806,-153 328.417,-146.53 326.213,-153.174"/>
<text text-anchor="middle" x="266.903" y="-99.2" font-family="Arial" font-size="14.00">Request</text>
</g>
<!-- q1&#45;&gt;im1 -->
<g id="edge4" class="edge"><title>q1:m&#45;&gt;im1:m</title>
<path fill="none" stroke="black" d="M336.806,-153C308.234,-153 340.826,-195.646 319.806,-215 281.509,-250.262 255.889,-239.623 207.081,-238.155"/>
<polygon fill="black" stroke="black" points="207.053,-234.654 197,-238 206.945,-241.653 207.053,-234.654"/>
<text text-anchor="middle" x="266.903" y="-244.2" font-family="Arial" font-size="14.00">Request Listener</text>
</g>
<!-- q1&#45;&gt;im2 -->
<g id="edge5" class="edge"><title>q1:m&#45;&gt;im2:r</title>
<path fill="none" stroke="black" d="M336.806,-153C281.507,-153 262.852,-158.913 214,-133 208.532,-130.1 207.318,-124.767 205.344,-120.656"/>
<polygon fill="black" stroke="black" points="207.241,-117.713 197,-115 203.314,-123.508 207.241,-117.713"/>
<text text-anchor="middle" x="266.903" y="-158.2" font-family="Arial" font-size="14.00">Request Listener</text>
</g>
<!-- q1&#45;&gt;im4 -->
<g id="edge6" class="edge"><title>q1:r&#45;&gt;im4:m</title>
<path fill="none" stroke="black" stroke-dasharray="5,2" d="M336.806,-117C299.239,-117 348.92,-57.9432 319.806,-34.2 302.32,-19.9388 253.219,-19.4038 206.477,-22.774"/>
<polygon fill="black" stroke="black" points="205.935,-19.3056 196.239,-23.5751 206.481,-26.2843 205.935,-19.3056"/>
<text text-anchor="middle" x="266.903" y="-39.2" font-family="Arial" font-size="14.00">Response</text>
</g>
</g>
</svg>