<svg xmlns="http://www.w3.org/2000/svg" xmlns:xlink="http://www.w3.org/1999/xlink" width="404pt" height="197pt" viewBox="0.00 0.00 404.00 196.60">
<g id="graph0" class="graph" transform="scale(1 1) rotate(0) translate(4 192.6)">
<title>G</title>
<polygon fill="white" stroke="none" points="-4,4 -4,-192.6 400,-192.6 400,4 -4,4"></polygon>
<!-- im1 -->
<g id="node1" class="node"><title>im1</title>
<polygon fill="none" stroke="black" points="0,-138.5 0,-188.1 180,-188.1 180,-138.5 0,-138.5"></polygon>
<text text-anchor="middle" x="90" y="-171.5" font-family="Times,serif" font-size="14.00">Alpha Anywhere Instance 1</text>
<polyline fill="none" stroke="black" points="0,-163.3 180,-163.3 "></polyline>
<text text-anchor="middle" x="90" y="-146.7" font-family="Times,serif" font-size="14.00">Redis Client</text>
</g>
<!-- q1 -->
<g id="node4" class="node"><title>q1</title>
<polygon fill="none" stroke="black" points="216,-55.3 216,-163.3 396,-163.3 396,-55.3 216,-55.3"></polygon>
<text text-anchor="middle" x="306" y="-132.2" font-family="Times,serif" font-size="14.00">Redis Server</text>
<polyline fill="none" stroke="black" points="216,-109.5 396,-109.5 "></polyline>
<text text-anchor="middle" x="306" y="-78.4" font-family="Times,serif" font-size="14.00">Shared Data</text>
</g>
<!-- im1&#45;&gt;q1 -->
<g id="edge1" class="edge"><title>im1:m-&gt;q1:m</title>
<path fill="none" stroke="black" d="M180,-151.3C210.266,-151.3 188.646,-98.4719 205.941,-85.2648"></path>
<polygon fill="black" stroke="black" points="207.397,-88.4844 216,-82.3 205.418,-81.77 207.397,-88.4844"></polygon>
</g>
<!-- im2 -->
<g id="node2" class="node"><title>im2</title>
<polygon fill="none" stroke="black" points="0,-69.5 0,-119.1 180,-119.1 180,-69.5 0,-69.5"></polygon>
<text text-anchor="middle" x="90" y="-102.5" font-family="Times,serif" font-size="14.00">Alpha Anywhere Instance 2</text>
<polyline fill="none" stroke="black" points="0,-94.3 180,-94.3 "></polyline>
<text text-anchor="middle" x="90" y="-77.7" font-family="Times,serif" font-size="14.00">Redis Client</text>
</g>
<!-- im2&#45;&gt;q1 -->
<g id="edge2" class="edge"><title>im2:m-&gt;q1:m</title>
<path fill="none" stroke="black" d="M180,-82.3C192,-82.3 197.25,-82.3 205.875,-82.3"></path>
<polygon fill="black" stroke="black" points="206,-85.8001 216,-82.3 206,-78.8001 206,-85.8001"></polygon>
</g>
<!-- im3 -->
<g id="node3" class="node"><title>im3</title>
<polygon fill="none" stroke="black" points="0,-0.5 0,-50.1 180,-50.1 180,-0.5 0,-0.5"></polygon>
<text text-anchor="middle" x="90" y="-33.5" font-family="Times,serif" font-size="14.00">Node Instance 1</text>
<polyline fill="none" stroke="black" points="0,-25.3 180,-25.3 "></polyline>
<text text-anchor="middle" x="90" y="-8.7" font-family="Times,serif" font-size="14.00">Redist Client</text>
</g>
<!-- im3&#45;&gt;q1 -->
<g id="edge3" class="edge"><title>im3:m-&gt;q1:m</title>
<path fill="none" stroke="black" d="M180,-13.3C210.266,-13.3 188.646,-66.1281 205.941,-79.3352"></path>
<polygon fill="black" stroke="black" points="205.418,-82.83 216,-82.3 207.397,-76.1156 205.418,-82.83"></polygon>
</g>
</g>
</svg>