<svg xmlns="http://www.w3.org/2000/svg" xmlns:xlink="http://www.w3.org/1999/xlink" width="494pt" height="300pt" viewBox="0.00 0.00 494.47 300.00">
<g id="graph0" class="graph" transform="scale(1 1) rotate(0) translate(4 296)">
<title>G</title>
<polygon fill="white" stroke="none" points="-4,4 -4,-296 490.469,-296 490.469,4 -4,4"></polygon>
<g id="clust1" class="cluster"><title>clusterA</title>
<polygon fill="none" stroke="black" points="8,-193 8,-284 204,-284 204,-193 8,-193"></polygon>
<text text-anchor="middle" x="106" y="-267.4" font-family="Times,serif" font-size="14.00">Alpha Anywhere Instance 1</text>
</g>
<g id="clust2" class="cluster"><title>clusterB</title>
<polygon fill="none" stroke="black" points="8,-94 8,-185 204,-185 204,-94 8,-94"></polygon>
<text text-anchor="middle" x="106" y="-168.4" font-family="Times,serif" font-size="14.00">Alpha Anywhere Instance 2</text>
</g>
<g id="clust3" class="cluster"><title>clusterC</title>
<polygon fill="none" stroke="black" points="8,-8 8,-86 204,-86 204,-8 8,-8"></polygon>
<text text-anchor="middle" x="106" y="-69.4" font-family="Times,serif" font-size="14.00">Node Instance 1</text>
</g>
<g id="clust4" class="cluster"><title>clusterD</title>
<polygon fill="none" stroke="black" points="318.469,-76 318.469,-190 478.469,-190 478.469,-76 318.469,-76"></polygon>
<text text-anchor="middle" x="398.469" y="-173.4" font-family="Times,serif" font-size="14.00">Redis Server</text>
</g>
<!-- im1 -->
<g id="node1" class="node"><title>im1</title>
<polygon fill="none" stroke="black" points="16,-201.2 16,-250.8 196,-250.8 196,-201.2 16,-201.2"></polygon>
<text text-anchor="middle" x="106" y="-234.2" font-family="Times,serif" font-size="14.00">Redis Listener</text>
<polyline fill="none" stroke="black" points="16,-226 196,-226 "></polyline>
<text text-anchor="middle" x="106" y="-209.4" font-family="Times,serif" font-size="14.00">Redis Client</text>
</g>
<!-- q1 -->
<g id="node4" class="node"><title>q1</title>
<polygon fill="none" stroke="black" points="326.469,-85 326.469,-157 470.469,-157 470.469,-85 326.469,-85"></polygon>
<text text-anchor="middle" x="398.469" y="-134.9" font-family="Times,serif" font-size="14.00">Request List</text>
<polyline fill="none" stroke="black" points="326.469,-121.2 470.469,-121.2 "></polyline>
<text text-anchor="middle" x="398.469" y="-99.1" font-family="Times,serif" font-size="14.00">Response List</text>
</g>
<!-- im1&#45;&gt;q1 -->
<g id="edge1" class="edge"><title>im1:r-&gt;q1:r</title>
<path fill="none" stroke="black" d="M197,-214C207.939,-214 204.893,-202.26 214,-196.2 251.433,-171.29 277.908,-192.98 308.469,-160 323.209,-144.094 307.417,-115.928 315.858,-106.319"></path>
<polygon fill="black" stroke="black" points="317.159,-109.573 325.469,-103 314.874,-102.956 317.159,-109.573"></polygon>
<text text-anchor="middle" x="261.235" y="-201.2" font-family="Times,serif" font-size="14.00">Return Reponse</text>
</g>
<!-- im2 -->
<g id="node2" class="node"><title>im2</title>
<polygon fill="none" stroke="black" points="16,-102.2 16,-151.8 196,-151.8 196,-102.2 16,-102.2"></polygon>
<text text-anchor="middle" x="106" y="-135.2" font-family="Times,serif" font-size="14.00">Redis Listener</text>
<polyline fill="none" stroke="black" points="16,-127 196,-127 "></polyline>
<text text-anchor="middle" x="106" y="-110.4" font-family="Times,serif" font-size="14.00">Redis Client</text>
</g>
<!-- im2&#45;&gt;q1 -->
<g id="edge2" class="edge"><title>im2:r-&gt;q1:r</title>
<path fill="none" stroke="black" d="M197,-115C206.458,-115 205.03,-105.199 214,-102.2 253.819,-88.8853 266.494,-101.213 308.469,-102.2 311.305,-102.267 313.341,-102.396 315.177,-102.531"></path>
<polygon fill="black" stroke="black" points="315.32,-106.041 325.469,-103 315.639,-99.0486 315.32,-106.041"></polygon>
<text text-anchor="middle" x="261.235" y="-107.2" font-family="Times,serif" font-size="14.00">Return Reponse</text>
</g>
<!-- im4 -->
<g id="node3" class="node"><title>im4</title>
<polygon fill="none" stroke="black" points="16,-17 16,-53 196,-53 196,-17 16,-17"></polygon>
<text text-anchor="middle" x="106" y="-30.9" font-family="Times,serif" font-size="14.00">Redist Client</text>
</g>
<!-- im4&#45;&gt;q1 -->
<g id="edge3" class="edge"><title>im4:m-&gt;q1:m</title>
<path fill="none" stroke="black" stroke-dasharray="5,2" d="M196.11,-51.9716C242.189,-62.3381 291.983,-76.7153 308.469,-93 320.463,-104.847 311.035,-125.886 316.232,-134.811"></path>
<polygon fill="black" stroke="black" points="314.916,-138.057 325.469,-139 317.808,-131.682 314.916,-138.057"></polygon>
</g>
<!-- q1&#45;&gt;im1 -->
<g id="edge4" class="edge"><title>q1:m-&gt;im1:m</title>
<path fill="none" stroke="black" d="M325.469,-139C291.724,-139 332.393,-189.2 308.469,-213 274.935,-246.361 251.203,-239.26 207.059,-238.133"></path>
<polygon fill="black" stroke="black" points="207.045,-234.633 197,-238 206.953,-241.632 207.045,-234.633"></polygon>
<text text-anchor="middle" x="261.235" y="-243.2" font-family="Times,serif" font-size="14.00">Request Listener</text>
</g>
<!-- q1&#45;&gt;im2 -->
<g id="edge5" class="edge"><title>q1:m-&gt;im2:m</title>
<path fill="none" stroke="black" d="M325.469,-139C271.94,-139 256.049,-139 207.225,-139"></path>
<polygon fill="black" stroke="black" points="207,-135.5 197,-139 207,-142.5 207,-135.5"></polygon>
<text text-anchor="middle" x="261.235" y="-143.2" font-family="Times,serif" font-size="14.00">Request Listener</text>
</g>
<!-- q1&#45;&gt;im4 -->
<g id="edge6" class="edge"><title>q1:r-&gt;im4:m</title>
<path fill="none" stroke="black" stroke-dasharray="5,2" d="M325.469,-103C302.418,-103 326.606,-68.2278 308.469,-54 280.027,-31.6873 241.946,-24.1839 206.488,-23.2128"></path>
<polygon fill="black" stroke="black" points="206.11,-19.7089 196.076,-23.1082 206.04,-26.7086 206.11,-19.7089"></polygon>
</g>
</g>
</svg>