<?xml version="1.0" encoding="UTF-8"?>
<!DOCTYPE svg PUBLIC "-//W3C//DTD SVG 1.1//EN" "http://www.w3.org/Graphics/SVG/1.1/DTD/svg11.dtd">
<svg xmlns="http://www.w3.org/2000/svg" xml:space="preserve" width="1024px" height="1024px" shape-rendering="geometricPrecision" text-rendering="geometricPrecision" image-rendering="optimizeQuality" fill-rule="nonzero" clip-rule="evenodd" viewBox="0 0 10240 10240" xmlns:xlink="http://www.w3.org/1999/xlink">
	<title>airplane2 icon</title>
	<desc>airplane2 icon from the IconExperience.com O-Collection. Copyright by INCORS GmbH (www.incors.com).</desc>
	<path id="curve0" fill="#252525" d="M1867 6417c-707,0 -1547,-447 -1547,-977 0,-530 893,-960 1600,-960l4535 0c176,0 328,-63 452,-187l1639 -1639c63,-63 138,-94 227,-94l703 0c106,0 198,47 260,133 62,86 77,187 44,288l-484 1450c-11,34 -16,65 -16,101l0 135c0,89 31,164 94,227l132 132c63,63 94,138 94,227l0 374c0,89 -31,164 -94,227l-139 139c-52,52 -112,82 -185,91l-1863 239 -881 -735c-120,-99 -254,-148 -410,-148l-268 0 1581 1317c52,44 71,113 48,177 -24,65 -82,106 -151,106l-687 0c-104,0 -193,-21 -286,-68l-3065 -1532 0 160c0,124 66,231 177,286l1061 531 -2571 0z"/>
</svg>
