<?xml version="1.0" encoding="UTF-8"?>
<!DOCTYPE svg PUBLIC "-//W3C//DTD SVG 1.1//EN" "http://www.w3.org/Graphics/SVG/1.1/DTD/svg11.dtd">
<svg xmlns="http://www.w3.org/2000/svg" xml:space="preserve" width="1024px" height="1024px" shape-rendering="geometricPrecision" text-rendering="geometricPrecision" image-rendering="optimizeQuality" fill-rule="nonzero" clip-rule="evenodd" viewBox="0 0 10240 10240" xmlns:xlink="http://www.w3.org/1999/xlink">
	<title>airplane2_starting icon</title>
	<desc>airplane2_starting icon from the IconExperience.com O-Collection. Copyright by INCORS GmbH (www.incors.com).</desc>
	<path id="curve0" fill="#252525" d="M5380 5374l1057 1705c36,57 32,127 -10,179 -41,53 -108,73 -172,52l-635 -212c-97,-32 -173,-79 -244,-150l-2365 -2362 -49 148c-39,115 -10,234 75,319l819 818 -2379 -791c-655,-218 -1294,-890 -1131,-1381 163,-490 1122,-613 1776,-396l4197 1397c163,54 322,42 476,-35l2021 -1012c77,-38 157,-44 239,-17l651 217c98,32 168,104 199,203 31,98 14,197 -48,280l-894 1193c-21,28 -35,55 -46,88l-42 126c-27,81 -21,161 17,238l82 163c39,77 45,157 17,239l-115 347c-27,81 -80,142 -156,180l-172 86c-64,32 -129,41 -200,27l-1797 -352 -589 -951c-80,-129 -190,-215 -334,-263l-248 -83z"/>
</svg>
