<?xml version="1.0" encoding="UTF-8"?>
<!DOCTYPE svg PUBLIC "-//W3C//DTD SVG 1.1//EN" "http://www.w3.org/Graphics/SVG/1.1/DTD/svg11.dtd">
<svg xmlns="http://www.w3.org/2000/svg" xml:space="preserve" width="1024px" height="1024px" shape-rendering="geometricPrecision" text-rendering="geometricPrecision" image-rendering="optimizeQuality" fill-rule="nonzero" clip-rule="evenodd" viewBox="0 0 10240 10240" xmlns:xlink="http://www.w3.org/1999/xlink">
	<title>alarm icon</title>
	<desc>alarm icon from the IconExperience.com O-Collection. Copyright by INCORS GmbH (www.incors.com).</desc>
	<path id="curve2" fill="#252525" d="M6707 6799c198,109 333,320 333,561l0 1600c0,353 -287,640 -640,640l-3200 0c-353,0 -640,-287 -640,-640l0 -1600c0,-241 135,-452 333,-561 549,355 1204,561 1907,561 703,0 1358,-206 1907,-561z"/>
	<path id="curve1" fill="#252525" d="M8320 960c353,0 640,287 640,640 0,117 -32,228 -87,322 389,783 504,1574 413,2346 -120,1022 -604,2003 -1286,2880l0 1172c0,177 -143,320 -320,320 -177,0 -320,-143 -320,-320l0 -1280 0 -110 71 -89c649,-811 1110,-1715 1220,-2646 75,-641 -18,-1300 -335,-1955 -351,-2 -636,-288 -636,-640 0,-353 287,-640 640,-640z"/>
	<path id="curve0" fill="#DE8D00" d="M4800 640c1767,0 3200,1433 3200,3200 0,1767 -1433,3200 -3200,3200 -1767,0 -3200,-1433 -3200,-3200 0,-1767 1433,-3200 3200,-3200zm0 2560c-353,0 -640,287 -640,640 0,353 287,640 640,640 353,0 640,-287 640,-640 0,-353 -287,-640 -640,-640zm-2104 1341c152,-50 243,-202 214,-360 -20,-111 -30,-225 -30,-341 0,-1060 860,-1920 1920,-1920 116,0 230,10 341,30 158,29 310,-62 360,-214 62,-186 -54,-381 -247,-416 -147,-26 -299,-40 -454,-40 -1414,0 -2560,1146 -2560,2560 0,155 14,307 40,454 35,193 230,309 416,247z"/>
</svg>
