<?xml version="1.0" encoding="UTF-8"?>
<!DOCTYPE svg PUBLIC "-//W3C//DTD SVG 1.1//EN" "http://www.w3.org/Graphics/SVG/1.1/DTD/svg11.dtd">
<svg xmlns="http://www.w3.org/2000/svg" xml:space="preserve" width="1024px" height="1024px" shape-rendering="geometricPrecision" text-rendering="geometricPrecision" image-rendering="optimizeQuality" fill-rule="nonzero" clip-rule="evenodd" viewBox="0 0 10240 10240" xmlns:xlink="http://www.w3.org/1999/xlink">
	<title>atm icon</title>
	<desc>atm icon from the IconExperience.com O-Collection. Copyright by INCORS GmbH (www.incors.com).</desc>
	<path id="curve1" fill="#DE8D00" d="M2560 1600c-176,0 -320,144 -320,320l0 1920c0,176 144,320 320,320l2560 0c176,0 320,-144 320,-320l0 -1920c0,-176 -144,-320 -320,-320l-2560 0z"/>
	<path id="curve0" fill="#252525" d="M1920 640l6400 0c353,0 640,288 640,640l0 7680c0,352 -288,640 -640,640l-6400 0c-352,0 -640,-287 -640,-640l0 -7680c0,-353 288,-640 640,-640zm320 7680c-176,0 -320,144 -320,320 0,176 144,320 320,320l5760 0c176,0 320,-144 320,-320 0,-176 -144,-320 -320,-320l-5760 0zm320 -7040c-352,0 -640,287 -640,640l0 1920c0,353 288,640 640,640l2560 0c352,0 640,-288 640,-640l0 -1920c0,-352 -287,-640 -640,-640l-2560 0zm3840 320l0 640 960 0 0 -640 -960 0zm0 960l0 640 960 0 0 -640 -960 0zm0 960l0 640 960 0 0 -640 -960 0zm0 1600c-176,0 -320,144 -320,320l0 320 2240 0 0 -320c0,-176 -144,-320 -320,-320l-1600 0zm1920 960l-2240 0 0 320c0,176 144,320 320,320l1600 0c176,0 320,-144 320,-320l0 -320zm-5760 -960l0 640 640 0 0 -640 -640 0zm0 960l0 640 640 0 0 -640 -640 0zm0 960l0 640 640 0 0 -640 -640 0zm960 -1920l0 640 640 0 0 -640 -640 0zm0 960l0 640 640 0 0 -640 -640 0zm0 960l0 640 640 0 0 -640 -640 0zm960 -1920l0 640 640 0 0 -640 -640 0zm0 960l0 640 640 0 0 -640 -640 0zm0 960l0 640 640 0 0 -640 -640 0z"/>
</svg>
