<?xml version="1.0" encoding="UTF-8"?>
<!DOCTYPE svg PUBLIC "-//W3C//DTD SVG 1.1//EN" "http://www.w3.org/Graphics/SVG/1.1/DTD/svg11.dtd">
<svg xmlns="http://www.w3.org/2000/svg" xml:space="preserve" width="1024px" height="1024px" shape-rendering="geometricPrecision" text-rendering="geometricPrecision" image-rendering="optimizeQuality" fill-rule="nonzero" clip-rule="evenodd" viewBox="0 0 10240 10240" xmlns:xlink="http://www.w3.org/1999/xlink">
	<title>balloon icon</title>
	<desc>balloon icon from the IconExperience.com O-Collection. Copyright by INCORS GmbH (www.incors.com).</desc>
	<path id="curve1" fill="#DE8D00" d="M5120 640c1414,0 2560,1289 2560,2880 0,1432 -929,2620 -2146,2842l156 467c17,51 9,101 -22,145 -31,43 -77,66 -130,66l-836 0c-53,0 -99,-23 -130,-66 -31,-44 -39,-94 -22,-145l156 -467c-1217,-222 -2146,-1410 -2146,-2842 0,-1591 1146,-2880 2560,-2880zm0 640c-1060,0 -1920,1003 -1920,2240 0,310 54,605 151,873 37,100 112,170 215,199 106,30 205,7 290,-61 109,-88 148,-229 100,-361 -73,-198 -116,-417 -116,-650 0,-884 573,-1600 1280,-1600 38,0 75,2 112,6 158,19 310,-84 347,-241 23,-92 7,-181 -48,-260 -55,-78 -132,-124 -227,-135 -61,-7 -122,-10 -184,-10z"/>
	<path id="curve0" fill="#252525" d="M4800 6560c-88,0 -160,-72 -160,-160 0,-88 72,-160 160,-160l640 0c33,0 63,10 88,26 317,173 434,473 434,818 0,425 -188,924 -379,1307 -94,187 -104,365 -63,528 53,214 194,408 353,568 63,62 63,164 0,226 -62,63 -164,63 -226,0 -195,-195 -367,-438 -437,-716 -58,-233 -44,-485 88,-748 174,-348 344,-796 344,-1165 0,-223 -66,-415 -243,-524l-599 0z"/>
</svg>
