<?xml version="1.0" encoding="UTF-8"?>
<!DOCTYPE svg PUBLIC "-//W3C//DTD SVG 1.1//EN" "http://www.w3.org/Graphics/SVG/1.1/DTD/svg11.dtd">
<svg xmlns="http://www.w3.org/2000/svg" xml:space="preserve" width="1024px" height="1024px" shape-rendering="geometricPrecision" text-rendering="geometricPrecision" image-rendering="optimizeQuality" fill-rule="nonzero" clip-rule="evenodd" viewBox="0 0 10240 10240" xmlns:xlink="http://www.w3.org/1999/xlink">
	<title>ballpen icon</title>
	<desc>ballpen icon from the IconExperience.com O-Collection. Copyright by INCORS GmbH (www.incors.com).</desc>
	<path id="curve2" fill="#DE8D00" d="M6930 5120l-1584 1584c-645,646 -1206,1118 -1709,1458l-1539 -1538c257,-394 586,-820 1005,-1278 282,411 870,469 1225,113 181,-181 261,-434 226,-679l1019 -1018 1357 1358z"/>
	<path id="curve1" fill="#252525" d="M1726 8967l-226 226c-125,125 -328,125 -453,0 -125,-125 -125,-328 0,-453l226 -226 453 453z"/>
	<path id="curve0" fill="#252525" d="M4196 4687c85,178 54,398 -94,546 -188,188 -492,188 -679,0 -188,-188 -187,-492 0,-679l2188 -2188c125,-125 277,-188 453,-188l226 0c460,-401 1050,-854 1562,-1042 240,-88 493,-32 673,149l430 429c181,181 236,435 148,675 -327,885 -1448,2007 -1720,2278l0 0 -227 227 -1357 -1358 679 -679 -453 0 -1829 1830zm-2815 3482c97,-373 268,-795 544,-1266l1436 1436c-463,280 -879,447 -1272,538l-708 -708z"/>
</svg>
