<?xml version="1.0" encoding="UTF-8"?>
<!DOCTYPE svg PUBLIC "-//W3C//DTD SVG 1.1//EN" "http://www.w3.org/Graphics/SVG/1.1/DTD/svg11.dtd">
<svg xmlns="http://www.w3.org/2000/svg" xml:space="preserve" width="1024px" height="1024px" shape-rendering="geometricPrecision" text-rendering="geometricPrecision" image-rendering="optimizeQuality" fill-rule="nonzero" clip-rule="evenodd" viewBox="0 0 10240 10240" xmlns:xlink="http://www.w3.org/1999/xlink">
	<title>baseball icon</title>
	<desc>baseball icon from the IconExperience.com O-Collection. Copyright by INCORS GmbH (www.incors.com).</desc>
	<path id="curve1" fill="#252525" d="M9105 3072c316,613 495,1310 495,2048 0,738 -179,1435 -495,2048 -49,95 -133,155 -239,171 -105,15 -203,-19 -277,-96 -54,-56 -109,-111 -165,-165l0 0c340,-573 536,-1243 536,-1958 0,-715 -196,-1384 -536,-1958l0 0c56,-54 111,-109 165,-165 74,-77 172,-111 277,-96 106,16 190,76 239,171zm-1511 4984c73,73 143,148 210,226 59,71 84,154 73,246 -11,91 -55,166 -129,221 -739,535 -1646,851 -2628,851 -982,0 -1889,-316 -2628,-851 -74,-55 -118,-130 -129,-221 -11,-92 14,-175 73,-246 67,-78 137,-153 210,-226 668,564 1531,904 2474,904 943,0 1806,-340 2474,-904zm-5778 -978l0 0c-56,54 -111,109 -165,165 -74,77 -172,111 -277,96 -106,-16 -190,-76 -239,-171 -316,-613 -495,-1310 -495,-2048 0,-738 179,-1435 495,-2048 49,-95 133,-155 239,-171 105,-15 203,19 277,96 54,56 109,111 165,165l0 0c-340,574 -536,1243 -536,1958 0,715 196,1385 536,1958zm830 -4895l0 1c-73,-73 -143,-148 -210,-226 -59,-71 -84,-154 -73,-246 11,-91 55,-166 129,-221 739,-535 1646,-851 2628,-851 982,0 1889,316 2628,851 74,55 118,130 129,221 11,92 -14,175 -73,246 -67,78 -137,153 -210,226l0 -1c-668,-563 -1531,-903 -2474,-903 -943,0 -1806,340 -2474,903z"/>
	<path id="curve0" fill="#DE8D00" d="M5440 4160c0,177 -143,320 -320,320 -177,0 -320,-143 -320,-320l0 -11c-179,-13 -355,-36 -528,-69l-3 10c-45,170 -220,272 -391,226 -171,-45 -272,-221 -226,-391l2 -10c-169,-59 -333,-127 -492,-205l-6 10c-88,152 -283,204 -436,116 -153,-88 -205,-284 -116,-436l5 -9c-236,-160 -456,-342 -657,-543 -30,-31 -61,-62 -90,-93 -55,-59 -59,-147 -10,-209 69,-88 142,-173 218,-255 31,-34 71,-51 117,-51 46,0 86,17 118,51 32,36 66,70 100,104 161,162 337,309 525,440 91,-144 281,-192 430,-106 149,86 202,274 122,425 111,52 223,99 339,141 50,-164 221,-259 388,-215 166,45 267,213 229,380 119,21 240,37 362,47 7,-171 148,-307 320,-307 172,0 313,136 320,307 122,-10 243,-26 362,-47 -38,-167 63,-335 229,-380 167,-44 338,51 388,215 116,-42 229,-89 339,-141 -80,-151 -27,-339 122,-425 149,-86 339,-38 430,106 188,-131 364,-278 525,-440 34,-34 68,-68 100,-104 32,-34 72,-51 118,-51 46,0 86,17 117,51 76,82 149,167 218,255 49,62 45,150 -10,209 -29,31 -60,62 -90,93 -201,201 -421,383 -657,543l5 9c89,152 37,348 -116,436 -153,88 -348,36 -436,-116l-6 -10c-159,78 -323,146 -492,205l2 10c46,170 -55,346 -226,391 -171,46 -346,-56 -391,-226l-3 -10c-173,33 -349,56 -528,69l0 11zm2730 3789c76,-82 148,-167 218,-255 49,-62 45,-150 -10,-209 -29,-31 -60,-62 -90,-93 -201,-201 -421,-383 -657,-543l5 -9c88,-152 36,-348 -116,-436 -153,-88 -348,-36 -436,116l-6 10c-159,-78 -324,-146 -493,-205l3 -10c46,-170 -56,-346 -226,-391 -171,-46 -346,56 -391,226l-3 10c-173,-33 -349,-56 -528,-69l0 -11c0,-177 -143,-320 -320,-320 -177,0 -320,143 -320,320l0 11c-179,13 -356,36 -528,69l-3 -10c-45,-170 -221,-272 -391,-226 -171,45 -272,221 -226,391l2 10c-169,59 -333,127 -492,205l-6 -10c-88,-152 -284,-204 -436,-116 -153,88 -205,284 -116,436l5 9c-236,160 -456,342 -657,543 -31,31 -61,62 -91,93 -54,59 -58,147 -9,209 69,88 142,173 218,255 31,34 71,51 117,51 46,0 86,-17 117,-51 33,-36 67,-70 101,-104 161,-162 337,-309 525,-440 91,144 281,192 430,106 149,-86 202,-274 122,-425 110,-52 223,-99 339,-141 50,164 221,259 387,215 167,-45 267,-213 230,-380 119,-21 240,-37 362,-47 7,171 148,307 320,307 172,0 313,-136 320,-307 122,10 243,26 362,47 -38,167 63,335 229,380 167,44 338,-51 388,-215 115,42 228,89 338,141 -79,151 -26,339 123,425 149,86 338,38 430,-106 188,131 364,278 525,440 34,34 68,68 100,104 32,34 71,51 118,51 46,0 86,-17 117,-51z"/>
</svg>
