<?xml version="1.0" encoding="UTF-8"?>
<!DOCTYPE svg PUBLIC "-//W3C//DTD SVG 1.1//EN" "http://www.w3.org/Graphics/SVG/1.1/DTD/svg11.dtd">
<svg xmlns="http://www.w3.org/2000/svg" xml:space="preserve" width="1024px" height="1024px" shape-rendering="geometricPrecision" text-rendering="geometricPrecision" image-rendering="optimizeQuality" fill-rule="nonzero" clip-rule="evenodd" viewBox="0 0 10240 10240" xmlns:xlink="http://www.w3.org/1999/xlink">
	<title>battery_plus_minus icon</title>
	<desc>battery_plus_minus icon from the IconExperience.com O-Collection. Copyright by INCORS GmbH (www.incors.com).</desc>
	<path id="curve3" fill="#DE8D00" d="M4160 7360c1049,0 871,0 1920,0l0 640c-1049,0 -871,0 -1920,0l0 -640z"/>
	<path id="curve2" fill="#DE8D00" d="M4160,2880 4800,2880 4800,2240 5440,2240 5440,2880 6080,2880 6080,3520 5440,3520 5440,4160 4800,4160 4800,3520 4160,3520z"/>
	<path id="curve1" fill="#252525" d="M2880 1280l4480 0c177,0 320,143 320,320l0 7680c0,177 -143,320 -320,320l-4480 0c-177,0 -320,-143 -320,-320l0 -7680c0,-177 143,-320 320,-320zm2240 5120c-707,0 -1280,573 -1280,1280 0,707 573,1280 1280,1280 707,0 1280,-573 1280,-1280 0,-707 -573,-1280 -1280,-1280zm0 -4480c-707,0 -1280,573 -1280,1280 0,707 573,1280 1280,1280 707,0 1280,-573 1280,-1280 0,-707 -573,-1280 -1280,-1280z"/>
	<path id="curve0" fill="#252525" d="M6399 1290l-2560 0 0 -10 0 -320c0,-177 143,-320 320,-320l1921 0c177,0 320,143 320,320l0 320 -1 10z"/>
</svg>
