<?xml version="1.0" encoding="UTF-8"?>
<!DOCTYPE svg PUBLIC "-//W3C//DTD SVG 1.1//EN" "http://www.w3.org/Graphics/SVG/1.1/DTD/svg11.dtd">
<svg xmlns="http://www.w3.org/2000/svg" xml:space="preserve" width="1024px" height="1024px" shape-rendering="geometricPrecision" text-rendering="geometricPrecision" image-rendering="optimizeQuality" fill-rule="nonzero" clip-rule="evenodd" viewBox="0 0 10240 10240" xmlns:xlink="http://www.w3.org/1999/xlink">
	<title>beaker2 icon</title>
	<desc>beaker2 icon from the IconExperience.com O-Collection. Copyright by INCORS GmbH (www.incors.com).</desc>
	<path id="curve1" fill="#DE8D00" d="M4113 5440l-1368 2737c-55,110 -51,207 14,311 65,105 148,152 272,152l4178 0c124,0 207,-47 272,-152 65,-104 69,-201 14,-311l-1368 -2737 -2014 0zm1300 320c442,0 800,358 800,800 0,442 -358,800 -800,800 -442,0 -800,-358 -800,-800 0,-442 358,-800 800,-800zm-1093 1697c265,0 480,215 480,480 0,265 -215,480 -480,480 -265,0 -480,-215 -480,-480 0,-265 215,-480 480,-480z"/>
	<path id="curve0" fill="#252525" d="M3520 640l640 0c176,0 320,144 320,320l0 2729c0,208 -42,386 -135,572l-1886 3773c-105,209 -95,424 28,622 123,200 309,304 544,304l4178 0c235,0 421,-104 544,-304 123,-198 133,-413 28,-622l-1886 -3773c-93,-186 -135,-364 -135,-572l0 -2729c0,-176 144,-320 320,-320l640 0c176,0 320,144 320,320l0 0c0,176 -144,320 -320,320l-320 0 0 2409c0,104 21,193 68,286l1886 3773c204,408 184,857 -56,1245 -240,388 -633,607 -1089,607l-4178 0c-456,0 -849,-219 -1089,-607 -240,-388 -260,-837 -56,-1245l1886 -3773c47,-93 68,-182 68,-286l0 -2409 -320 0c-176,0 -320,-144 -320,-320l0 0c0,-176 144,-320 320,-320z"/>
</svg>
