<?xml version="1.0" encoding="UTF-8"?>
<!DOCTYPE svg PUBLIC "-//W3C//DTD SVG 1.1//EN" "http://www.w3.org/Graphics/SVG/1.1/DTD/svg11.dtd">
<svg xmlns="http://www.w3.org/2000/svg" xml:space="preserve" width="1024px" height="1024px" shape-rendering="geometricPrecision" text-rendering="geometricPrecision" image-rendering="optimizeQuality" fill-rule="nonzero" clip-rule="evenodd" viewBox="0 0 10240 10240" xmlns:xlink="http://www.w3.org/1999/xlink">
	<title>blackboard icon</title>
	<desc>blackboard icon from the IconExperience.com O-Collection. Copyright by INCORS GmbH (www.incors.com).</desc>
	<path id="curve1" fill="#252525" d="M1600 2880l7040 0 0 5120 -7040 0 0 -5120zm686 1872c-18,64 -33,124 -43,178 -17,86 40,170 127,186 86,17 170,-40 187,-126 12,-65 31,-139 56,-219l478 -67c37,123 79,237 127,329 41,78 137,109 215,68 78,-41 109,-137 68,-215 -135,-259 -222,-760 -279,-1089 -4,-29 -9,-53 -24,-136 -3,-24 -11,-48 -25,-70 -49,-73 -148,-93 -221,-45 -142,94 -288,310 -411,557 -61,121 -117,252 -165,379 -86,13 -146,93 -134,179 5,36 21,67 44,91zm454 -321c27,-63 55,-125 86,-186 37,-74 76,-145 114,-207 20,112 44,233 71,355l-271 38zm3387 96c-99,99 -194,166 -281,209 -99,50 -182,67 -239,64 -56,-2 -94,-21 -120,-46 -33,-33 -47,-78 -48,-116 -2,-156 69,-399 248,-578 125,-125 305,-217 555,-221 88,-1 159,-74 157,-162 -1,-88 -74,-158 -162,-157 -346,6 -599,136 -777,314 -245,246 -342,586 -340,807 2,112 44,243 141,339 77,77 186,132 332,139 104,5 243,-22 395,-98 116,-57 241,-144 365,-269 62,-62 62,-163 -1,-226 -62,-62 -163,-61 -225,1zm-1967 271l0 -317c99,7 185,25 247,56 44,23 72,53 73,92 0,3 0,5 0,7 -1,76 -38,114 -93,132 -59,20 -139,27 -227,30zm328 273c183,-62 306,-184 311,-428 0,-9 0,-17 0,-24 -4,-126 -56,-224 -142,-297 87,-75 136,-173 142,-293 0,-9 0,-20 0,-33 -3,-161 -110,-284 -272,-365 -143,-72 -336,-111 -527,-111 -89,0 -160,71 -160,160l0 1280c0,88 71,160 160,160 172,0 343,0 488,-49zm-328 -910l0 -310c85,12 163,34 225,65 57,29 95,59 95,87 0,2 0,6 0,11 -2,35 -23,65 -62,87 -58,34 -145,54 -258,60z"/>
	<path id="curve0" fill="#DE8D00" d="M960 1920l8320 0c176,0 320,144 320,320l0 6400c0,176 -144,320 -320,320l-8320 0c-176,0 -320,-144 -320,-320l0 -6400c0,-176 144,-320 320,-320zm320 640l0 5760 7680 0 0 -5760 -7680 0z"/>
</svg>
