<?xml version="1.0" encoding="UTF-8"?>
<!DOCTYPE svg PUBLIC "-//W3C//DTD SVG 1.1//EN" "http://www.w3.org/Graphics/SVG/1.1/DTD/svg11.dtd">
<svg xmlns="http://www.w3.org/2000/svg" xml:space="preserve" width="1024px" height="1024px" shape-rendering="geometricPrecision" text-rendering="geometricPrecision" image-rendering="optimizeQuality" fill-rule="nonzero" clip-rule="evenodd" viewBox="0 0 10240 10240" xmlns:xlink="http://www.w3.org/1999/xlink">
	<title>bookkeeper icon</title>
	<desc>bookkeeper icon from the IconExperience.com O-Collection. Copyright by INCORS GmbH (www.incors.com).</desc>
	<path id="curve4" fill="#DE8D00" d="M4480 8960l394 -2166 -207 -207c-124,-124 -187,-276 -187,-452l0 -126c206,46 420,71 640,71 220,0 434,-25 640,-71l0 126c0,176 -63,328 -187,452l-207 207 394 2166 -640 640 -640 -640z"/>
	<path id="curve3" fill="#252525" d="M8320 8470c0,716 -1502,1049 -2734,1117l400 -401c77,-76 108,-177 89,-283l-364 -2001 88 -88c184,-185 281,-418 281,-679l0 -52c0,-1 0,-3 0,-4l0 -70c0,-31 -4,-61 -12,-89 209,-73 406,-168 589,-284 1082,807 1663,1074 1663,2834zm-640 -44c-6,-1152 -252,-1424 -937,-1932l221 880c53,214 76,401 76,621l0 724c69,-20 136,-41 203,-65 93,-33 353,-139 437,-228zm-4184 -1932c-683,508 -930,782 -936,1933 85,89 344,194 438,227 66,24 133,45 202,65l0 -724c0,-220 23,-407 76,-621l220 -880zm1158 3093c-1232,-68 -2734,-401 -2734,-1116 0,-1760 582,-2029 1663,-2835 183,116 381,212 589,284 -8,28 -12,58 -12,89l0 126c0,261 97,494 281,679l88 88 -364 2001c-19,106 12,207 89,283l400 401z"/>
	<path id="curve2" fill="#DE8D00" d="M7360 2403c-3,617 -1005,1117 -2240,1117 -1235,0 -2237,-500 -2240,-1117 130,26 263,45 390,61 606,76 1240,96 1850,96 610,0 1244,-20 1850,-96 127,-16 260,-35 390,-61z"/>
	<path id="curve1" fill="#DE8D00" d="M7406 2062c-419,106 -1288,178 -2293,178 -995,0 -1857,-71 -2281,-175 105,-207 238,-399 394,-569 467,64 1140,104 1887,104 754,0 1431,-41 1900,-106 155,170 288,361 393,568z"/>
	<path id="curve0" fill="#252525" d="M5120 661c599,0 1150,205 1586,549l-8 0c-521,53 -1054,70 -1578,70 -524,0 -1057,-17 -1578,-70l-8 0c436,-344 987,-549 1586,-549zm2507 2032c35,167 53,340 53,518 0,1408 -1146,2549 -2560,2549 -1414,0 -2560,-1141 -2560,-2549 0,-178 18,-351 53,-518 240,655 1271,1147 2507,1147 1236,0 2267,-492 2507,-1147l0 0z"/>
</svg>
