<?xml version="1.0" encoding="UTF-8"?>
<!DOCTYPE svg PUBLIC "-//W3C//DTD SVG 1.1//EN" "http://www.w3.org/Graphics/SVG/1.1/DTD/svg11.dtd">
<svg xmlns="http://www.w3.org/2000/svg" xml:space="preserve" width="1024px" height="1024px" shape-rendering="geometricPrecision" text-rendering="geometricPrecision" image-rendering="optimizeQuality" fill-rule="nonzero" clip-rule="evenodd" viewBox="0 0 10240 10240" xmlns:xlink="http://www.w3.org/1999/xlink">
	<title>bowling_pin icon</title>
	<desc>bowling_pin icon from the IconExperience.com O-Collection. Copyright by INCORS GmbH (www.incors.com).</desc>
	<path id="curve1" fill="#252525" d="M5120 640c707,0 1280,573 1280,1280 0,465 -199,845 -291,1280l-1978 0c-92,-435 -291,-815 -291,-1280 0,-707 573,-1280 1280,-1280zm1104 3840c292,900 816,1233 816,2560 0,1047 -302,1976 -768,2560l-2304 0c-466,-584 -768,-1513 -768,-2560 0,-1327 524,-1660 816,-2560l2208 0z"/>
	<path id="curve0" fill="#DE8D00" d="M6066 3520c-5,102 -1,208 14,320 16,114 35,220 57,320l-2034 0c22,-100 41,-206 57,-320 15,-112 19,-218 14,-320l1892 0z"/>
</svg>
