<?xml version="1.0" encoding="UTF-8"?>
<!DOCTYPE svg PUBLIC "-//W3C//DTD SVG 1.1//EN" "http://www.w3.org/Graphics/SVG/1.1/DTD/svg11.dtd">
<svg xmlns="http://www.w3.org/2000/svg" xml:space="preserve" width="1024px" height="1024px" shape-rendering="geometricPrecision" text-rendering="geometricPrecision" image-rendering="optimizeQuality" fill-rule="nonzero" clip-rule="evenodd" viewBox="0 0 10240 10240" xmlns:xlink="http://www.w3.org/1999/xlink">
	<title>brain icon</title>
	<desc>brain icon from the IconExperience.com O-Collection. Copyright by INCORS GmbH (www.incors.com).</desc>
	<path id="curve0" fill="#252525" d="M5104 9735c-376,326 -1213,250 -1400,-201 -24,-60 -47,-116 -66,-174 -293,61 -633,-43 -868,-209 -188,-133 -389,-318 -558,-475 -129,-119 -259,-243 -375,-374 -49,-55 -99,-115 -137,-177 -68,-111 -97,-238 -50,-357 -55,-33 -110,-71 -166,-117 -315,-262 -453,-765 -242,-1106 -79,-52 -148,-118 -196,-192 -156,-243 -111,-591 -111,-868 0,-181 84,-333 209,-441 -142,-301 -135,-721 -49,-991 32,-100 62,-200 93,-300 126,-411 327,-1167 693,-1419 60,-41 126,-73 194,-90 -10,-327 274,-679 477,-887 204,-211 552,-504 860,-512 70,-2 138,3 203,16 23,-346 423,-476 715,-477 298,-1 575,111 768,323 262,-372 796,-533 1201,-260 48,33 89,75 125,123 141,-47 289,3 419,83 191,118 354,263 440,451 262,56 509,272 589,518 42,11 83,26 122,44 163,77 284,209 382,356 78,116 134,248 209,358 105,155 197,385 262,561 77,210 207,564 118,806 46,28 88,61 125,101 282,298 182,759 166,1126 -2,42 -12,83 -29,122 79,94 108,224 108,354 0,292 -12,585 -85,869 -10,38 -19,75 -31,112 -31,104 -77,209 -149,285 147,366 -68,749 -355,1007 -20,18 -40,33 -60,46 -10,242 -181,494 -339,649 -113,110 -250,202 -399,250 -85,202 -256,380 -427,490 -178,116 -399,185 -611,188 -20,1 -41,1 -61,0 -36,186 -213,296 -368,380 -365,197 -1006,320 -1346,9zm3688 -3309c122,-192 143,-755 143,-976 0,-14 -1,-50 -6,-74 -89,49 -203,198 -308,152 -158,-70 -225,-609 -36,-786 52,-48 135,-12 135,59 0,35 4,201 37,230 135,-10 120,-334 125,-426 9,-154 27,-463 -155,-530 -217,-80 -342,63 -456,220 -61,83 -182,166 -219,14 -27,-111 6,-154 -124,-213 -83,-38 -46,-165 45,-152 423,63 307,-321 487,-395 48,-19 95,-7 137,17 -7,-240 -217,-775 -343,-961 -123,-181 -254,-558 -504,-600 -58,162 -178,123 -288,40 -57,-43 -128,-108 -99,-188 23,-61 81,-72 133,-97 -34,-137 -293,-349 -420,-244 -54,46 -137,3 -131,-68 21,-216 -196,-427 -385,-492 -14,91 7,226 4,326 -14,363 -228,499 -587,464 -174,-16 -121,-174 -21,-268 175,-165 355,-540 118,-700 -241,-163 -707,-19 -714,284 -5,192 -21,381 -17,574 5,278 38,716 405,709 371,-7 584,-13 843,-301 63,-70 176,11 129,93 -152,268 250,720 50,946 -41,47 -118,31 -136,-29 -148,-473 -582,-474 -980,-348 -511,163 -416,429 -190,845 18,32 12,71 -15,96 -168,160 -26,778 269,827 62,11 88,84 47,132 -135,155 -470,103 -383,476 64,279 60,506 22,791 -24,178 279,164 422,235 36,19 240,128 277,115 38,-33 17,-291 12,-340 -16,-177 1,-336 55,-505 68,-208 113,-203 -135,-265 -84,-20 -80,-141 4,-156 118,-21 294,21 340,9 46,-11 108,-194 120,-231 30,-89 163,-62 156,31 -3,38 -10,151 30,177 123,79 874,113 910,-236 10,-92 143,-97 159,-6 17,100 92,205 150,286 128,175 349,422 161,636 -109,123 -155,-118 -174,-141 -79,-95 -284,-106 -397,-106 -98,-1 -682,25 -738,47 -132,50 -181,231 -208,354 -37,171 -105,507 42,649 83,79 233,105 342,121 78,11 94,116 25,151 -275,138 -463,156 -751,54 -131,-46 -260,-104 -387,-158 -666,-282 -516,547 -385,689 89,31 61,111 -14,157 -63,39 -83,167 -88,234 -11,139 -10,265 102,358 127,104 386,150 546,190 76,20 81,127 7,153 -113,41 -555,60 -586,134 -95,230 -84,604 -52,848 20,150 235,173 354,170 184,-3 383,-61 545,-147 196,-103 193,-94 21,-185 -231,-123 -337,-281 -72,-453 145,-95 349,-167 513,-223 82,-27 144,78 80,136 -39,35 -166,159 -135,224 113,236 973,-120 914,-487 -8,-53 37,-100 91,-92 139,20 282,-76 376,-168 64,-62 264,-320 214,-414 -37,-68 -163,66 -249,107 -205,98 -431,99 -650,59 -293,-54 -691,-147 -973,-21 -73,32 -187,85 -257,21 -41,-39 -42,-95 -38,-147 4,-51 11,-101 13,-153 6,-157 -27,-297 -106,-434 -21,-38 -9,-85 28,-108 37,-23 84,-12 108,23 195,291 613,630 821,163 33,-76 145,-57 153,25 12,143 109,226 239,267 58,19 334,64 336,-43 0,0 -203,-388 -224,-578 -16,-136 36,-412 19,-479 -13,-49 -78,-87 -119,-110 -256,-141 -121,-313 138,-323 228,-8 509,73 662,251 116,135 -133,123 -167,139 -96,46 -138,198 -148,295 -15,141 22,278 82,405 70,149 372,490 530,348 161,-144 366,-405 216,-624 -125,-182 -163,-412 -154,-629 4,-88 127,-106 156,-23 15,44 79,224 126,277zm-6714 1541c117,148 267,288 405,415 158,146 344,319 518,443 175,124 546,242 710,61 96,-107 228,-238 386,-215 108,15 303,140 142,200 -109,41 -230,109 -238,239 -6,92 39,188 73,271 45,110 286,152 388,158 108,6 375,-10 411,-138 103,-368 125,-821 15,-1188 -31,-104 -88,-192 -183,-248 -175,-104 -421,-72 -605,-11 -177,58 -467,213 -532,401 -31,89 -163,61 -156,-32 9,-97 58,-207 95,-296 28,-66 80,-186 75,-257 -20,-320 65,-527 219,-795 29,-51 166,-298 121,-359 -37,-49 -233,-17 -281,-8 -184,34 -203,88 -302,226 -52,72 -108,135 -175,194 -69,60 -169,-25 -121,-103 136,-219 61,-323 -196,-303 -75,6 -147,42 -208,84 -68,46 -159,155 -241,142 -157,-27 -153,-373 -149,-489 4,-127 24,-441 185,-474 120,-25 203,121 248,209 19,40 47,73 83,99 133,98 375,86 532,78 216,-10 552,-6 732,-107 165,-92 105,-234 55,-378 -29,-84 82,-145 138,-76 153,189 247,399 216,646 -22,175 -99,315 -152,479 -66,203 -169,390 -252,586 -79,185 412,57 479,34 140,-50 268,-124 342,-257 75,-137 82,-318 81,-471 -2,-233 -20,-464 -16,-698 2,-117 78,-521 -11,-575 -205,-126 -568,-153 -805,-155 -143,0 -859,41 -941,163 -32,76 -90,181 -190,169 -160,-19 -189,-339 -194,-460 -5,-134 2,-416 158,-470 127,-43 223,89 301,168 198,202 181,66 312,-25 70,-48 164,-28 240,-6 84,24 166,56 251,78 136,36 321,26 467,30 68,2 144,1 209,-22 240,-82 247,-465 243,-673 -2,-111 -3,-653 -169,-643 -73,4 -113,-84 -61,-136 126,-128 247,-476 122,-627 -94,-114 -497,-103 -663,-116 -315,-24 -563,201 -775,405 -85,81 -186,-9 -134,-96 116,-192 141,-322 113,-546 -12,-100 -98,-340 -8,-394 74,-44 147,39 193,87 200,208 706,225 979,160 73,-17 190,-55 239,-116 211,-265 202,-857 53,-1147 -107,-208 -306,-315 -536,-308 -53,1 -296,43 -299,113 29,186 131,337 248,478 73,89 237,241 206,363 -27,105 -157,135 -248,151 -359,63 -451,-68 -505,-385 -33,-187 -85,-254 -293,-249 -78,2 -191,69 -253,111 -230,152 -499,426 -629,669 -30,55 -90,186 -55,249 179,317 283,229 287,713 0,104 -7,208 -5,312 4,203 53,318 263,374 144,38 314,45 461,28 178,-21 355,-82 490,-205 102,-93 162,10 118,155 -15,51 -25,103 -25,156 2,175 126,275 278,336 223,90 -10,229 -191,246 -90,9 -258,14 -292,-95 -34,-109 -93,-199 -199,-247 -192,-87 -480,-15 -683,3 -158,14 -373,41 -518,111 -32,15 -107,56 -105,100 9,251 -407,48 -515,-50 -196,-179 1,-281 205,-274 187,-80 311,-258 328,-456 18,-209 8,-498 -59,-695 -41,-118 -90,-208 -215,-122 -125,85 -226,310 -281,445 -111,269 -360,975 -390,1257 -16,145 8,588 191,635 166,43 256,-311 429,-252 141,47 115,337 103,450 -12,106 -45,424 -189,422 -86,-1 -114,-96 -129,-164 -76,-347 -507,-161 -507,28 0,132 -8,265 -5,397 3,76 10,189 52,255 39,60 140,117 211,123 92,9 196,44 217,147 18,90 -55,216 -131,259 -61,35 -106,84 -127,152 -107,342 258,645 574,702 112,20 215,17 328,16 318,-4 269,-242 450,-280 157,-34 185,267 190,366 6,113 2,326 -125,376 -81,32 -158,-19 -213,-74 -36,-36 -203,2 -247,10 -145,28 -287,52 -431,33zm5024 -3640c-24,-145 -92,-407 -262,-447 -255,-60 -373,289 -565,269 -182,-18 -265,-289 -283,-439 -11,-94 -8,-195 22,-285 29,-89 163,-62 156,31 -13,164 90,194 235,186 309,-15 712,-161 871,-443 73,-127 106,-282 68,-426 -7,-25 -16,-50 -27,-74 -37,-80 65,-153 129,-91 72,70 131,150 191,231 101,136 194,257 374,282 97,13 88,159 -11,159 -96,0 -184,26 -264,79 -221,146 -341,467 -409,713 -22,81 -42,200 -72,273 -31,74 -139,61 -153,-18z"/>
</svg>
