<?xml version="1.0" encoding="UTF-8"?>
<!DOCTYPE svg PUBLIC "-//W3C//DTD SVG 1.1//EN" "http://www.w3.org/Graphics/SVG/1.1/DTD/svg11.dtd">
<svg xmlns="http://www.w3.org/2000/svg" xml:space="preserve" width="1024px" height="1024px" shape-rendering="geometricPrecision" text-rendering="geometricPrecision" image-rendering="optimizeQuality" fill-rule="nonzero" clip-rule="evenodd" viewBox="0 0 10240 10240" xmlns:xlink="http://www.w3.org/1999/xlink">
	<title>briefcase icon</title>
	<desc>briefcase icon from the IconExperience.com O-Collection. Copyright by INCORS GmbH (www.incors.com).</desc>
	<path id="curve4" fill="#252525" d="M9600 6155l0 2805c0,352 -288,640 -640,640 -2560,0 -5120,0 -7680,0 -353,0 -640,-287 -640,-640l0 -2805c170,152 394,245 640,245l640 0 0 640c0,176 144,320 320,320l960 0c176,0 320,-144 320,-320l0 -640 3200 0 0 640c0,176 144,320 320,320l960 0c176,0 320,-144 320,-320l0 -640 640 0c246,0 470,-93 640,-245z"/>
	<path id="curve3" fill="#252525" d="M1280 2560c2560,0 5120,0 7680,0 352,0 639,287 640,639l0 2241c0,352 -288,640 -640,640l-640 0 0 -320c0,-176 -144,-320 -320,-320l-960 0c-176,0 -320,144 -320,320l0 320 -3200 0 0 -320c0,-176 -144,-320 -320,-320l-960 0c-176,0 -320,144 -320,320l0 320 -640 0c-352,0 -639,-287 -640,-639l0 -2241c0,-353 287,-640 640,-640z"/>
	<path id="curve2" fill="#DE8D00" d="M7040,5760 8000,5760 8000,7040 7040,7040z"/>
	<path id="curve1" fill="#DE8D00" d="M2240,5760 3200,5760 3200,7040 2240,7040z"/>
	<path id="curve0" fill="#252525" d="M3840 1280l2560 0c353,0 640,288 640,640l0 320 -640 0 0 -320 -2560 0 0 320 -640 0 0 -320c0,-353 287,-640 640,-640z"/>
</svg>
