<?xml version="1.0" encoding="UTF-8"?>
<!DOCTYPE svg PUBLIC "-//W3C//DTD SVG 1.1//EN" "http://www.w3.org/Graphics/SVG/1.1/DTD/svg11.dtd">
<svg xmlns="http://www.w3.org/2000/svg" xml:space="preserve" width="1024px" height="1024px" shape-rendering="geometricPrecision" text-rendering="geometricPrecision" image-rendering="optimizeQuality" fill-rule="nonzero" clip-rule="evenodd" viewBox="0 0 10240 10240" xmlns:xlink="http://www.w3.org/1999/xlink">
	<title>cake2 icon</title>
	<desc>cake2 icon from the IconExperience.com O-Collection. Copyright by INCORS GmbH (www.incors.com).</desc>
	<path id="curve0" fill="#252525" d="M7010 2410c-404,341 -970,620 -970,855 0,235 430,425 960,425 22,0 44,0 65,-1 10,-8 20,-16 30,-24 170,-134 354,-252 528,-381 65,-47 129,-96 191,-148 26,-22 54,-40 84,-52 -121,-179 -418,-378 -888,-674zm1542 3764c146,-58 283,-120 408,-186l0 -737c-111,79 -248,156 -408,229l-3432 -1001 -778 1576c-887,-56 -1676,-209 -2282,-425 -325,-116 -591,-244 -780,-379l0 737c880,462 2087,649 3062,708l0 959c-889,-57 -2311,-269 -3062,-804l0 737c880,462 2087,649 3062,708l0 640 539 -1091c139,-282 455,-420 757,-330l2914 874 0 -615c146,-58 283,-120 408,-186l0 -737c-111,79 -248,156 -408,229l0 -906zm-4412 -3934c-404,341 -970,620 -970,855 0,235 430,425 960,425 530,0 960,-190 960,-425 0,-235 -319,-458 -950,-855zm-1870 770c-404,341 -970,620 -970,855 0,235 430,425 960,425 27,0 54,-1 81,-2l4 -3c169,-134 354,-252 528,-381 65,-47 129,-96 191,-148 31,-27 66,-46 102,-59 -115,-183 -415,-384 -896,-687zm5750 370c-403,341 -970,620 -970,855 0,235 430,425 960,425 530,0 960,-190 960,-425 0,-235 -319,-458 -950,-855zm-4750 620c-404,341 -970,620 -970,855 0,235 430,425 960,425 530,0 960,-190 960,-425 0,-235 -319,-458 -950,-855zm2184 4128l-538 1091c-124,252 -388,390 -661,351 -2060,-144 -3615,-792 -3615,-1570l0 -2476 0 -1364c0,-390 386,-682 692,-854 174,-140 361,-260 541,-392 65,-47 129,-96 191,-148 108,-92 257,-102 377,-27 51,32 103,65 156,99 123,-30 250,-58 381,-84 67,-87 153,-162 237,-229 169,-134 354,-252 528,-381 65,-47 129,-96 191,-148 108,-92 257,-102 377,-27 248,157 524,325 748,515 29,25 57,50 84,76 364,1 719,17 1058,47 200,-147 412,-281 603,-441 108,-92 257,-102 377,-27 248,157 524,325 748,515 117,100 227,215 291,351 851,291 1380,701 1380,1155l0 0 0 320 0 0 0 1044 0 0 0 556 0 0 0 1044 0 876c0,345 -399,704 -666,902 -167,125 -365,160 -565,100l-2915 -874z"/>
</svg>
