<?xml version="1.0" encoding="UTF-8"?>
<!DOCTYPE svg PUBLIC "-//W3C//DTD SVG 1.1//EN" "http://www.w3.org/Graphics/SVG/1.1/DTD/svg11.dtd">
<svg xmlns="http://www.w3.org/2000/svg" xml:space="preserve" width="1024px" height="1024px" shape-rendering="geometricPrecision" text-rendering="geometricPrecision" image-rendering="optimizeQuality" fill-rule="nonzero" clip-rule="evenodd" viewBox="0 0 10240 10240" xmlns:xlink="http://www.w3.org/1999/xlink">
	<title>calendar_7 icon</title>
	<desc>calendar_7 icon from the IconExperience.com O-Collection. Copyright by INCORS GmbH (www.incors.com).</desc>
	<path id="curve3" fill="#252525" d="M4480 8320l0 -640c0,-256 100,-476 269,-665l905 -1015c63,-71 106,-143 106,-240l-1920 0 0 -640 2560 0 0 640c0,256 -100,476 -269,665l-905 1015c-63,71 -106,143 -106,240l0 640 -640 0z"/>
	<path id="curve2" fill="#252525" d="M8960 4800l0 4160c0,352 -287,640 -640,640l-6400 0c-352,0 -640,-287 -640,-640l0 -4160 640 0 0 4160 6400 0 0 -4160 640 0z"/>
	<path id="curve1" fill="#DE8D00" d="M8960 2240l0 2240 -7680 0 0 -2240c0,-353 287,-640 640,-640l0 0 0 640c0,353 287,640 640,640l320 0c353,0 640,-287 640,-640l0 0c0,353 287,640 640,640l320 0c353,0 640,-287 640,-640l0 0c0,353 287,640 640,640l320 0c353,0 640,-287 640,-640l0 0c0,353 287,640 640,640l320 0c353,0 640,-287 640,-640l0 -640 0 0c353,0 640,287 640,640z"/>
	<path id="curve0" fill="#252525" d="M7360 640l320 0c176,0 320,144 320,320l0 1280c0,176 -144,320 -320,320l-320 0c-176,0 -320,-144 -320,-320l0 -1280c0,-176 144,-320 320,-320zm-4800 0l320 0c176,0 320,144 320,320l0 1280c0,176 -144,320 -320,320l-320 0c-176,0 -320,-144 -320,-320l0 -1280c0,-176 144,-320 320,-320zm1600 0l320 0c176,0 320,144 320,320l0 1280c0,176 -144,320 -320,320l-320 0c-176,0 -320,-144 -320,-320l0 -1280c0,-176 144,-320 320,-320zm1600 0l320 0c176,0 320,144 320,320l0 1280c0,176 -144,320 -320,320l-320 0c-176,0 -320,-144 -320,-320l0 -1280c0,-176 144,-320 320,-320z"/>
</svg>
