<?xml version="1.0" encoding="UTF-8"?>
<!DOCTYPE svg PUBLIC "-//W3C//DTD SVG 1.1//EN" "http://www.w3.org/Graphics/SVG/1.1/DTD/svg11.dtd">
<svg xmlns="http://www.w3.org/2000/svg" xml:space="preserve" width="1024px" height="1024px" shape-rendering="geometricPrecision" text-rendering="geometricPrecision" image-rendering="optimizeQuality" fill-rule="nonzero" clip-rule="evenodd" viewBox="0 0 10240 10240" xmlns:xlink="http://www.w3.org/1999/xlink">
	<title>cannon icon</title>
	<desc>cannon icon from the IconExperience.com O-Collection. Copyright by INCORS GmbH (www.incors.com).</desc>
	<path id="curve2" fill="#252525" d="M1059 8320l1501 0 546 -546c128,283 307,539 524,756l-243 243c-124,124 -276,187 -452,187l-2036 0c-120,0 -197,-125 -143,-232l160 -320c28,-55 81,-88 143,-88z"/>
	<path id="curve1" fill="#DE8D00" d="M5440 4480c1237,0 2240,1003 2240,2240 0,1237 -1003,2240 -2240,2240 -1237,0 -2240,-1003 -2240,-2240 0,-1237 1003,-2240 2240,-2240zm150 1618c160,38 297,137 385,270l929 -294c-233,-527 -732,-890 -1307,-946l-7 970zm488 573c12,162 -37,322 -138,449l567 792c430,-385 619,-972 496,-1534l-925 293zm-394 641c-149,61 -320,64 -470,7l-579 784c495,289 1119,288 1614,-2l-565 -789zm-731 -177c-106,-124 -160,-283 -152,-446l-925 -307c-121,563 68,1149 501,1534l576 -781zm-58 -750c84,-137 218,-239 377,-283l6 -974c-575,58 -1073,423 -1304,951l921 306z"/>
	<path id="curve0" fill="#252525" d="M2489 3615l6449 -1103c169,-29 331,81 367,249l288 1357c36,169 -69,336 -237,377l-2029 495c-468,-510 -1140,-830 -1887,-830 -1183,0 -2178,802 -2472,1892 -291,65 -568,17 -822,-144 -150,-94 -268,-213 -354,-354 -87,97 -205,169 -343,198 -345,73 -685,-147 -759,-493 -73,-346 148,-686 493,-759 140,-30 279,-11 399,44 23,-163 83,-318 183,-464 174,-256 418,-413 724,-465z"/>
</svg>
