<?xml version="1.0" encoding="UTF-8"?>
<!DOCTYPE svg PUBLIC "-//W3C//DTD SVG 1.1//EN" "http://www.w3.org/Graphics/SVG/1.1/DTD/svg11.dtd">
<svg xmlns="http://www.w3.org/2000/svg" xml:space="preserve" width="1024px" height="1024px" shape-rendering="geometricPrecision" text-rendering="geometricPrecision" image-rendering="optimizeQuality" fill-rule="nonzero" clip-rule="evenodd" viewBox="0 0 10240 10240" xmlns:xlink="http://www.w3.org/1999/xlink">
	<title>car_compact2 icon</title>
	<desc>car_compact2 icon from the IconExperience.com O-Collection. Copyright by INCORS GmbH (www.incors.com).</desc>
	<path id="curve1" fill="#252525" d="M7360 6720c-530,0 -960,430 -960,960 0,530 430,960 960,960 530,0 960,-430 960,-960 0,-530 -430,-960 -960,-960zm-4800 0c530,0 960,430 960,960 0,530 -430,960 -960,960 -530,0 -960,-430 -960,-960 0,-530 430,-960 960,-960zm0 640c-177,0 -320,143 -320,320 0,177 143,320 320,320 177,0 320,-143 320,-320 0,-177 -143,-320 -320,-320zm4800 0c177,0 320,143 320,320 0,177 -143,320 -320,320 -177,0 -320,-143 -320,-320 0,-177 143,-320 320,-320z"/>
	<path id="curve0" fill="#DE8D00" d="M5995 4440c456,327 725,680 1045,1000 910,80 1892,420 2070,740 205,369 124,1283 50,1500l-550 276c20,-89 30,-181 30,-276 0,-707 -573,-1280 -1280,-1280 -707,0 -1280,573 -1280,1280 0,100 11,196 33,289l-2306 0c22,-93 33,-189 33,-289 0,-707 -573,-1280 -1280,-1280 -707,0 -1280,573 -1280,1280 0,114 15,224 43,329 -14,-2 -28,-5 -43,-9l-490 -350c-281,-260 -124,-2021 -14,-2206 120,-203 435,-615 705,-863 39,-36 56,-86 51,-135 -9,-87 54,-166 141,-176 446,-51 1308,-99 2167,-110 901,-12 1826,44 2155,280zm-3435 1320l1120 0c122,0 165,-97 158,-206 -22,-316 -102,-681 -231,-971 -27,-60 -85,-96 -151,-94 -262,7 -575,17 -838,31 -285,10 -1018,1240 -58,1240zm2079 0l1441 0c282,0 426,-338 231,-542 -179,-185 -289,-365 -503,-518 -208,-149 -849,-200 -1365,-215 -115,-3 -187,107 -154,217 83,281 164,599 190,901 7,87 73,157 160,157z"/>
</svg>
