<?xml version="1.0" encoding="UTF-8"?>
<!DOCTYPE svg PUBLIC "-//W3C//DTD SVG 1.1//EN" "http://www.w3.org/Graphics/SVG/1.1/DTD/svg11.dtd">
<svg xmlns="http://www.w3.org/2000/svg" xml:space="preserve" width="1024px" height="1024px" shape-rendering="geometricPrecision" text-rendering="geometricPrecision" image-rendering="optimizeQuality" fill-rule="nonzero" clip-rule="evenodd" viewBox="0 0 10240 10240" xmlns:xlink="http://www.w3.org/1999/xlink">
	<title>cash_register icon</title>
	<desc>cash_register icon from the IconExperience.com O-Collection. Copyright by INCORS GmbH (www.incors.com).</desc>
	<path id="curve3" fill="#252525" d="M960 8000l8320 0c176,0 320,144 320,320l0 960c0,176 -144,320 -320,320l-8320 0c-176,0 -320,-144 -320,-320l0 -960c0,-176 144,-320 320,-320zm4167 368c-242,0 -439,197 -439,439 0,242 197,439 439,439 242,0 439,-197 439,-439 0,-242 -197,-439 -439,-439z"/>
	<path id="curve2" fill="#252525" d="M2240 2880l2240 0 0 3200 -2240 0 0 -3200zm320 320l0 2560 1600 0 0 -2560 -1600 0z"/>
	<path id="curve1" fill="#DE8D00" d="M5760,1920 8320,1920 8320,2560 5760,2560z"/>
	<path id="curve0" fill="#252525" d="M5760 1280l2560 0c353,0 640,287 640,640l0 640c0,353 -287,640 -640,640l-640 0 0 640 960 0c353,0 640,288 640,640l0 3200c-1827,0 -5279,0 -7680,0l-640 0 0 -3200c0,-353 287,-640 640,-640l640 0 0 1600c-176,0 -320,144 -320,320l0 320c0,176 144,320 320,320l2240 0c176,0 320,-144 320,-320l0 -320c0,-176 -144,-320 -320,-320l0 -1600 1920 0 0 -640 -640 0c-353,0 -640,-287 -640,-640l0 -640c0,-353 287,-640 640,-640zm320 4480c-177,0 -320,143 -320,320 0,177 143,320 320,320 177,0 320,-143 320,-320 0,-177 -143,-320 -320,-320zm1907 937c-177,0 -320,143 -320,320 0,177 143,320 320,320 177,0 320,-143 320,-320 0,-177 -143,-320 -320,-320zm-960 10c-177,0 -320,143 -320,320 0,177 143,320 320,320 177,0 320,-143 320,-320 0,-177 -143,-320 -320,-320zm-940 10c-177,0 -320,143 -320,320 0,177 143,320 320,320 177,0 320,-143 320,-320 0,-177 -143,-320 -320,-320zm1920 -950c-177,0 -320,143 -320,320 0,177 143,320 320,320 177,0 320,-143 320,-320 0,-177 -143,-320 -320,-320zm-967 -7c-177,0 -320,143 -320,320 0,177 143,320 320,320 177,0 320,-143 320,-320 0,-177 -143,-320 -320,-320zm-960 -960c-176,0 -320,144 -320,320l0 0c0,176 144,320 320,320l1920 0c176,0 320,-144 320,-320l0 0c0,-176 -144,-320 -320,-320l-1920 0zm-320 -3200c-176,0 -320,144 -320,320l0 640c0,176 144,320 320,320l2560 0c176,0 320,-144 320,-320l0 -640c0,-176 -144,-320 -320,-320l-2560 0z"/>
</svg>
