<?xml version="1.0" encoding="UTF-8"?>
<!DOCTYPE svg PUBLIC "-//W3C//DTD SVG 1.1//EN" "http://www.w3.org/Graphics/SVG/1.1/DTD/svg11.dtd">
<svg xmlns="http://www.w3.org/2000/svg" xml:space="preserve" width="1024px" height="1024px" shape-rendering="geometricPrecision" text-rendering="geometricPrecision" image-rendering="optimizeQuality" fill-rule="nonzero" clip-rule="evenodd" viewBox="0 0 10240 10240" xmlns:xlink="http://www.w3.org/1999/xlink">
	<title>cashier icon</title>
	<desc>cashier icon from the IconExperience.com O-Collection. Copyright by INCORS GmbH (www.incors.com).</desc>
	<path id="curve4" fill="#DE8D00" d="M9280 7680c176,0 320,144 320,320l0 1280c0,176 -144,320 -320,320l-7680 0c-176,0 -320,-144 -320,-320l0 -1280c0,-176 144,-320 320,-320l7680 0z"/>
	<path id="curve3" fill="#252525" d="M8670 4649l390 877c36,81 0,176 -81,211l-292 131c-81,35 -176,-1 -211,-82l-391 -877c-36,-80 1,-175 81,-211l293 -130c80,-36 175,1 211,81z"/>
	<path id="curve2" fill="#252525" d="M7335 3152l714 642c65,59 70,161 11,226l-214 238c-59,65 -160,71 -226,12l-713 -643c-66,-59 -71,-160 -12,-226l214 -237c59,-66 161,-71 226,-12z"/>
	<path id="curve1" fill="#252525" d="M5507 2327l913 296c84,27 130,118 103,202l-99 304c-28,84 -118,130 -202,103l-913 -297c-84,-27 -130,-118 -103,-201l99 -305c27,-84 118,-130 202,-102z"/>
	<path id="curve0" fill="#252525" d="M1600 1280l2880 0 0 640 -640 0 0 1280 640 0c2121,0 3840,1719 3840,3840l0 320 -6720 0c-176,0 -320,-144 -320,-320l0 -5440c0,-176 144,-320 320,-320z"/>
</svg>
