<?xml version="1.0" encoding="UTF-8"?>
<!DOCTYPE svg PUBLIC "-//W3C//DTD SVG 1.1//EN" "http://www.w3.org/Graphics/SVG/1.1/DTD/svg11.dtd">
<svg xmlns="http://www.w3.org/2000/svg" xml:space="preserve" width="1024px" height="1024px" shape-rendering="geometricPrecision" text-rendering="geometricPrecision" image-rendering="optimizeQuality" fill-rule="nonzero" clip-rule="evenodd" viewBox="0 0 10240 10240" xmlns:xlink="http://www.w3.org/1999/xlink">
	<title>checkbox_selected icon</title>
	<desc>checkbox_selected icon from the IconExperience.com O-Collection. Copyright by INCORS GmbH (www.incors.com).</desc>
	<path id="curve2" fill="#252525" d="M4480,3840 9600,3840 9600,5760 4480,5760z"/>
	<path id="curve1" fill="#252525" d="M1280 3200l1335 0 -560 640 -322 0 -279 -278c-173,-173 -421,-226 -640,-159 116,-125 282,-203 466,-203zm2560 1025l0 1535c0,353 -287,640 -640,640l-1920 0c-353,0 -640,-287 -640,-640l0 -750 640 640 0 110 110 0c309,295 796,295 1104,0l706 0 0 -804 640 -731z"/>
	<path id="curve0" fill="#DE8D00" d="M1228 3788l692 692 1692 -1933c116,-133 318,-146 451,-30l238 208c133,116 147,319 31,452l-2004 2289c-14,19 -29,37 -46,54 -188,188 -492,188 -679,0l-1054 -1053c-124,-125 -124,-328 0,-453l226 -226c125,-125 328,-125 453,0z"/>
</svg>
