<?xml version="1.0" encoding="UTF-8"?>
<!DOCTYPE svg PUBLIC "-//W3C//DTD SVG 1.1//EN" "http://www.w3.org/Graphics/SVG/1.1/DTD/svg11.dtd">
<svg xmlns="http://www.w3.org/2000/svg" xml:space="preserve" width="1024px" height="1024px" shape-rendering="geometricPrecision" text-rendering="geometricPrecision" image-rendering="optimizeQuality" fill-rule="nonzero" clip-rule="evenodd" viewBox="0 0 10240 10240" xmlns:xlink="http://www.w3.org/1999/xlink">
	<title>chess_piece_pawn icon</title>
	<desc>chess_piece_pawn icon from the IconExperience.com O-Collection. Copyright by INCORS GmbH (www.incors.com).</desc>
	<path id="curve2" fill="#252525" d="M2880 8320l4480 0c176,0 320,144 320,320l0 640c0,176 -144,320 -320,320l-4480 0c-176,0 -320,-144 -320,-320l0 -640c0,-176 144,-320 320,-320z"/>
	<path id="curve1" fill="#252525" d="M4160 5440l1920 0c0,112 4,218 13,320l-1946 0c9,-102 13,-208 13,-320zm1977 640c114,598 400,1033 824,1515 53,61 79,130 79,211l0 194 -3840 0 0 -194c0,-81 26,-150 79,-211 424,-482 710,-917 824,-1515l2034 0z"/>
	<path id="curve0" fill="#252525" d="M5120 2560c884,0 1600,716 1600,1600 0,360 -119,693 -320,960l320 0 0 640 -1600 0 -1600 0 0 -640 320 0c-201,-267 -320,-600 -320,-960 0,-884 716,-1600 1600,-1600z"/>
</svg>
