<?xml version="1.0" encoding="UTF-8"?>
<!DOCTYPE svg PUBLIC "-//W3C//DTD SVG 1.1//EN" "http://www.w3.org/Graphics/SVG/1.1/DTD/svg11.dtd">
<svg xmlns="http://www.w3.org/2000/svg" xml:space="preserve" width="1024px" height="1024px" shape-rendering="geometricPrecision" text-rendering="geometricPrecision" image-rendering="optimizeQuality" fill-rule="nonzero" clip-rule="evenodd" viewBox="0 0 10240 10240" xmlns:xlink="http://www.w3.org/1999/xlink">
	<title>cigarette_pack icon</title>
	<desc>cigarette_pack icon from the IconExperience.com O-Collection. Copyright by INCORS GmbH (www.incors.com).</desc>
	<path id="curve2" fill="#DE8D00" d="M2560 2880l640 0 0 562c-184,-134 -404,-216 -640,-237l0 -325zm1920 0l640 0 0 1600 -640 0 0 -1600zm960 0l640 0 0 1600 -640 0 0 -1600zm960 0l640 0 0 562c-162,118 -296,276 -387,470l-253 536 0 -1568zm960 0l640 0 0 320 -198 0c-154,0 -303,25 -442,74l0 -394zm-3840 -1600l640 0 0 1920 -640 0 0 -1920z"/>
	<path id="curve1" fill="#252525" d="M1920 3520l518 0c380,0 705,200 860,528l256 544c154,328 480,528 860,528l1412 0c380,0 706,-200 860,-528l256 -544c155,-328 480,-528 860,-528l518 0 0 5760c0,176 -144,320 -320,320l-5760 0c-176,0 -320,-144 -320,-320l0 -5760zm1280 2240l0 2560 3840 0 0 -2560 -3840 0z"/>
	<path id="curve0" fill="#252525" d="M2240 640l5760 0c176,0 320,144 320,320l0 1920c0,-176 -144,-320 -320,-320l-320 0 0 -1280 -3200 0 0 0c0,-176 -144,-320 -320,-320l-640 0c-176,0 -320,144 -320,320l0 0 -640 0 0 1280 0 0c-176,0 -320,144 -320,320l0 2560 -320 0 0 -4480c0,-176 144,-320 320,-320z"/>
</svg>
