<?xml version="1.0" encoding="UTF-8"?>
<!DOCTYPE svg PUBLIC "-//W3C//DTD SVG 1.1//EN" "http://www.w3.org/Graphics/SVG/1.1/DTD/svg11.dtd">
<svg xmlns="http://www.w3.org/2000/svg" xml:space="preserve" width="1024px" height="1024px" shape-rendering="geometricPrecision" text-rendering="geometricPrecision" image-rendering="optimizeQuality" fill-rule="nonzero" clip-rule="evenodd" viewBox="0 0 10240 10240" xmlns:xlink="http://www.w3.org/1999/xlink">
	<title>client_network icon</title>
	<desc>client_network icon from the IconExperience.com O-Collection. Copyright by INCORS GmbH (www.incors.com).</desc>
	<path id="curve2" fill="#252525" d="M5920 9280l160 0c176,0 320,-144 320,-320l0 0 -1280 0c-352,0 -640,-287 -640,-640l0 -2560c0,-352 288,-640 640,-640l3840 0c353,0 640,288 640,640l0 2560c0,352 -288,640 -640,640l-1280 0 0 0c0,176 144,320 320,320l160 0c88,0 160,72 160,160l0 160 -2560 0 0 -160c0,-88 72,-160 160,-160zm-800 -3520l0 2560 3840 0 0 -2560 -3840 0z"/>
	<path id="curve1" fill="#252525" d="M2080 4800l160 0c176,0 320,-144 320,-320l0 0 -1280 0c-352,0 -640,-287 -640,-640l0 -2560c0,-352 288,-640 640,-640l3840 0c353,0 640,288 640,640l0 2560c0,352 -288,640 -640,640l-1280 0 0 0c0,176 144,320 320,320l160 0c88,0 160,72 160,160l0 160 -2560 0 0 -160c0,-88 72,-160 160,-160zm-800 -3520l0 2560 3840 0 0 -2560 -3840 0z"/>
	<path id="curve0" fill="#DE8D00" d="M2559 5440l1 2560c0,176 144,320 320,320l1280 0 0 0c0,246 93,470 245,640l-1525 0c-529,0 -960,-431 -960,-960l1 -2560 638 0z"/>
</svg>
