<?xml version="1.0" encoding="UTF-8"?>
<!DOCTYPE svg PUBLIC "-//W3C//DTD SVG 1.1//EN" "http://www.w3.org/Graphics/SVG/1.1/DTD/svg11.dtd">
<svg xmlns="http://www.w3.org/2000/svg" xml:space="preserve" width="1024px" height="1024px" shape-rendering="geometricPrecision" text-rendering="geometricPrecision" image-rendering="optimizeQuality" fill-rule="nonzero" clip-rule="evenodd" viewBox="0 0 10240 10240" xmlns:xlink="http://www.w3.org/1999/xlink">
	<title>cloud_dark icon</title>
	<desc>cloud_dark icon from the IconExperience.com O-Collection. Copyright by INCORS GmbH (www.incors.com).</desc>
	<path id="curve0" fill="#252525" d="M1920 4319c0,-1325 1075,-2399 2400,-2399 777,0 1492,375 1937,982 100,-15 201,-22 303,-22 1149,0 2080,931 2080,2080 0,11 0,21 0,32 572,292 960,888 960,1568 0,972 -788,1760 -1760,1760 -1707,0 -3413,0 -5120,0 -1149,0 -2080,-931 -2080,-2080 0,-861 525,-1606 1280,-1921z"/>
</svg>
