<?xml version="1.0" encoding="UTF-8"?>
<!DOCTYPE svg PUBLIC "-//W3C//DTD SVG 1.1//EN" "http://www.w3.org/Graphics/SVG/1.1/DTD/svg11.dtd">
<svg xmlns="http://www.w3.org/2000/svg" xml:space="preserve" width="1024px" height="1024px" shape-rendering="geometricPrecision" text-rendering="geometricPrecision" image-rendering="optimizeQuality" fill-rule="nonzero" clip-rule="evenodd" viewBox="0 0 10240 10240" xmlns:xlink="http://www.w3.org/1999/xlink">
	<title>coathanger icon</title>
	<desc>coathanger icon from the IconExperience.com O-Collection. Copyright by INCORS GmbH (www.incors.com).</desc>
	<path id="curve0" fill="#252525" d="M5626 4393l3240 1489c434,205 734,646 734,1158 0,707 -573,1280 -1280,1280 -2133,0 -4267,0 -6400,0 -707,0 -1280,-573 -1280,-1280 0,-512 300,-953 734,-1158l3240 -1489c116,-54 186,-163 186,-291l0 -75c0,-130 -73,-241 -192,-293 -452,-198 -768,-649 -768,-1174 0,-707 573,-1280 1280,-1280 557,0 1031,356 1207,853 74,210 -80,427 -302,427 -138,0 -255,-83 -301,-213 -88,-249 -325,-427 -604,-427 -353,0 -640,287 -640,640 0,353 287,640 640,640 176,0 320,144 320,320 0,194 0,388 0,582 0,128 70,237 186,291zm-1039 720l-2942 1349c-223,106 -365,330 -365,578 0,354 286,640 640,640 2133,0 4267,0 6400,0 354,0 640,-286 640,-640 0,-248 -142,-472 -365,-578l-2941 -1349c-351,-161 -717,-161 -1067,0z"/>
</svg>
