<?xml version="1.0" encoding="UTF-8"?>
<!DOCTYPE svg PUBLIC "-//W3C//DTD SVG 1.1//EN" "http://www.w3.org/Graphics/SVG/1.1/DTD/svg11.dtd">
<svg xmlns="http://www.w3.org/2000/svg" xml:space="preserve" width="1024px" height="1024px" shape-rendering="geometricPrecision" text-rendering="geometricPrecision" image-rendering="optimizeQuality" fill-rule="nonzero" clip-rule="evenodd" viewBox="0 0 10240 10240" xmlns:xlink="http://www.w3.org/1999/xlink">
	<title>coffee_bean icon</title>
	<desc>coffee_bean icon from the IconExperience.com O-Collection. Copyright by INCORS GmbH (www.incors.com).</desc>
	<path id="curve0" fill="#252525" d="M3494 1918c2144,-1059 4052,-688 5118,299 91,85 125,203 92,322 -32,119 -123,205 -245,233 -526,119 -1024,295 -1494,527 -775,382 -1472,918 -2091,1606 -562,623 -1193,1107 -1895,1454 -561,277 -1167,466 -1818,566 -162,24 -315,-68 -365,-222 -529,-1613 271,-3587 2698,-4785zm5950 1619c529,1613 -271,3587 -2698,4785 -2144,1059 -4052,688 -5118,-299 -91,-85 -125,-203 -92,-322 32,-119 123,-205 245,-233 526,-119 1025,-295 1494,-527 775,-382 1472,-918 2091,-1606 562,-623 1193,-1107 1895,-1454 561,-277 1167,-466 1818,-566 162,-24 315,68 365,222z"/>
</svg>
