<?xml version="1.0" encoding="UTF-8"?>
<!DOCTYPE svg PUBLIC "-//W3C//DTD SVG 1.1//EN" "http://www.w3.org/Graphics/SVG/1.1/DTD/svg11.dtd">
<svg xmlns="http://www.w3.org/2000/svg" xml:space="preserve" width="1024px" height="1024px" shape-rendering="geometricPrecision" text-rendering="geometricPrecision" image-rendering="optimizeQuality" fill-rule="nonzero" clip-rule="evenodd" viewBox="0 0 10240 10240" xmlns:xlink="http://www.w3.org/1999/xlink">
	<title>cpu_flash icon</title>
	<desc>cpu_flash icon from the IconExperience.com O-Collection. Copyright by INCORS GmbH (www.incors.com).</desc>
	<path id="curve3" fill="#252525" d="M5120 7680c530,0 960,430 960,960l0 640 -1920 0 0 -640c0,-530 430,-960 960,-960z"/>
	<path id="curve2" fill="#DE8D00" d="M4619 2560l1178 0c60,0 110,30 140,81 29,52 28,111 -2,161l-815 1358 701 0c57,0 106,27 136,76 30,48 33,104 7,156l-524 1048 228 0c67,0 125,39 149,102 24,63 9,131 -41,176l-926 847c-40,36 -91,50 -144,38 -52,-12 -92,-46 -113,-96l-344 -847c-20,-51 -15,-104 16,-149 31,-46 78,-71 133,-71l402 0 320 -640 -776 0c-48,0 -89,-19 -120,-55 -32,-36 -45,-80 -38,-128l274 -1920c12,-79 79,-137 159,-137z"/>
	<path id="curve1" fill="#252525" d="M3200 640l3840 0c176,0 320,144 320,320l0 8000c0,176 -144,320 -320,320l-640 0 0 -640c0,-707 -573,-1280 -1280,-1280 -707,0 -1280,573 -1280,1280l0 640 -640 0c-176,0 -320,-144 -320,-320l0 -8000c0,-176 144,-320 320,-320zm2485 3200l524 -873c192,-320 -39,-727 -412,-727l-1178 0c-240,0 -442,175 -475,412l-275 1920c-41,290 183,548 475,548l54 0c-341,0 -573,345 -445,661l344 846c126,310 522,400 769,174l926 -847c236,-215 198,-595 -70,-762l328 -657c160,-319 -73,-695 -429,-695l-136 0z"/>
	<path id="curve0" fill="#252525" d="M2560 8640l-320 0c-88,0 -168,36 -226,94 -58,58 -94,138 -94,226l0 0 0 1 0 -1 -640 0 0 -320c0,-265 108,-505 282,-678 173,-174 413,-282 678,-282l320 0 0 960zm-958 640l-2 0 -2 0 4 0zm958 -2240l-320 0c-88,0 -168,36 -226,94 -58,58 -94,138 -94,226l0 0 0 1 0 -1 -640 0 0 -320c0,-265 108,-505 282,-678 173,-174 413,-282 678,-282l320 0 0 960zm-958 640l-2 0 -2 0 4 0zm958 -2240l-320 0c-88,0 -168,36 -226,94 -58,58 -94,138 -94,226l0 0 0 1 0 -1 -640 0 0 -320c0,-265 108,-505 282,-678 173,-174 413,-282 678,-282l320 0 0 960zm-958 640l-2 0 -2 0 4 0zm958 -2240l-320 0c-88,0 -168,36 -226,94 -58,58 -94,138 -94,226l0 0 0 1 0 -1 -640 0 0 -320c0,-265 108,-505 282,-678 173,-174 413,-282 678,-282l320 0 0 960zm-958 640l-2 0 -2 0 4 0zm958 -2240l-320 0c-88,0 -168,36 -226,94 -58,58 -94,138 -94,226l0 0 0 1 0 -1 -640 0 0 -320c0,-265 108,-505 282,-678 173,-174 413,-282 678,-282l320 0 0 960zm-958 640l-2 0 -2 0 4 0zm6078 -640l320 0c88,0 168,36 226,94 58,58 94,138 94,226l0 0 0 1 0 -1 640 0 0 -320c0,-265 -108,-505 -282,-678 -173,-174 -413,-282 -678,-282l-320 0 0 960zm958 640l2 0 2 0 -4 0zm-958 960l320 0c88,0 168,36 226,94 58,58 94,138 94,226l0 0 0 1 0 -1 640 0 0 -320c0,-265 -108,-505 -282,-678 -173,-174 -413,-282 -678,-282l-320 0 0 960zm958 640l2 0 2 0 -4 0zm-958 960l320 0c88,0 168,36 226,94 58,58 94,138 94,226l0 0 0 1 0 -1 640 0 0 -320c0,-265 -108,-505 -282,-678 -173,-174 -413,-282 -678,-282l-320 0 0 960zm958 640l2 0 2 0 -4 0zm-958 960l320 0c88,0 168,36 226,94 58,58 94,138 94,226l0 0 0 1 0 -1 640 0 0 -320c0,-265 -108,-505 -282,-678 -173,-174 -413,-282 -678,-282l-320 0 0 960zm958 640l2 0 2 0 -4 0zm-958 960l320 0c88,0 168,36 226,94 58,58 94,138 94,226l0 0 0 1 0 -1 640 0 0 -320c0,-265 -108,-505 -282,-678 -173,-174 -413,-282 -678,-282l-320 0 0 960zm958 640l2 0 2 0 -4 0z"/>
</svg>
