<?xml version="1.0" encoding="UTF-8"?>
<!DOCTYPE svg PUBLIC "-//W3C//DTD SVG 1.1//EN" "http://www.w3.org/Graphics/SVG/1.1/DTD/svg11.dtd">
<svg xmlns="http://www.w3.org/2000/svg" xml:space="preserve" width="1024px" height="1024px" shape-rendering="geometricPrecision" text-rendering="geometricPrecision" image-rendering="optimizeQuality" fill-rule="nonzero" clip-rule="evenodd" viewBox="0 0 10240 10240" xmlns:xlink="http://www.w3.org/1999/xlink">
	<title>credit_cards icon</title>
	<desc>credit_cards icon from the IconExperience.com O-Collection. Copyright by INCORS GmbH (www.incors.com).</desc>
	<path id="curve5" fill="#DE8D00" d="M6400,8000 8960,8000 8960,8640 6400,8640z"/>
	<path id="curve4" fill="#252525" d="M6400,6720 8960,6720 8960,7360 6400,7360z"/>
	<path id="curve3" fill="#252525" d="M9280 4800l-1280 0 0 320c0,353 -287,640 -640,640l-4800 0 0 3200c0,177 143,320 320,320l6400 0c177,0 320,-143 320,-320l0 -3840c0,-177 -143,-320 -320,-320zm-2880 1600l2560 0c176,0 320,144 320,320l0 1920c0,176 -144,320 -320,320l-2560 0c-176,0 -320,-144 -320,-320l0 -1920c0,-176 144,-320 320,-320z"/>
	<path id="curve2" fill="#DE8D00" d="M6080 2880c-530,0 -960,430 -960,960 0,530 430,960 960,960 530,0 960,-430 960,-960 0,-530 -430,-960 -960,-960z"/>
	<path id="curve1" fill="#252525" d="M4800 2880c127,0 249,25 360,70 -223,230 -360,544 -360,890 0,346 137,660 360,890 -111,45 -233,70 -360,70 -530,0 -960,-430 -960,-960 0,-530 430,-960 960,-960z"/>
	<path id="curve0" fill="#DE8D00" d="M960 960l6400 0c176,0 320,144 320,320l0 3840c0,177 -143,320 -320,320l-6400 0c-177,0 -320,-143 -320,-320l0 -3840c0,-177 143,-320 320,-320zm3200 1600c-353,0 -640,287 -640,640l0 1280c0,353 287,640 640,640l2560 0c353,0 640,-287 640,-640l0 -1280c0,-353 -287,-640 -640,-640l-2560 0z"/>
</svg>
