<?xml version="1.0" encoding="UTF-8"?>
<!DOCTYPE svg PUBLIC "-//W3C//DTD SVG 1.1//EN" "http://www.w3.org/Graphics/SVG/1.1/DTD/svg11.dtd">
<svg xmlns="http://www.w3.org/2000/svg" xml:space="preserve" width="1024px" height="1024px" shape-rendering="geometricPrecision" text-rendering="geometricPrecision" image-rendering="optimizeQuality" fill-rule="nonzero" clip-rule="evenodd" viewBox="0 0 10240 10240" xmlns:xlink="http://www.w3.org/1999/xlink">
	<title>delivery_man icon</title>
	<desc>delivery_man icon from the IconExperience.com O-Collection. Copyright by INCORS GmbH (www.incors.com).</desc>
	<path id="curve3" fill="#252525" d="M845 6101l1893 -946c93,-47 199,-43 286,1l1919 959c111,56 176,168 176,285l1 2240c0,136 -85,252 -205,299l-1892 946c-94,47 -200,43 -287,-1l-1918 -959c-112,-56 -177,-168 -177,-285l-1 -2240c0,-136 85,-252 205,-299zm3042 199l-1431 716c-111,55 -177,162 -177,286 0,86 8,201 -2,284l-638 -319 1 -359c0,-117 65,-230 176,-285l1359 -679 -295 -148 -1600 800 0 1848 1440 720 1 -1804c0,-58 32,-115 88,-143l1457 -728 -379 -189z"/>
	<path id="curve2" fill="#252525" d="M9600 7956c0,720 -1728,1004 -2880,1004 -401,0 -871,-34 -1314,-109 22,-66 34,-137 34,-211l0 -2240c0,-248 -132,-461 -354,-572l-251 -126c145,-115 306,-232 481,-361 403,265 885,419 1404,419 519,0 1001,-154 1404,-419 961,706 1476,1064 1476,2615z"/>
	<path id="curve1" fill="#252525" d="M8920 3624c-198,1034 -1108,1816 -2200,1816 -1083,0 -1987,-769 -2195,-1790 131,97 286,158 453,158 276,0 487,-200 712,-331 319,-185 650,-245 1016,-245 249,0 510,27 736,141 160,82 294,203 450,292 171,98 345,143 542,143 181,0 349,-72 486,-184z"/>
	<path id="curve0" fill="#DE8D00" d="M4421 2133c110,-1348 717,-1813 2011,-1813 288,0 274,0 562,0 1309,0 1895,467 1999,1822 -607,-372 -1876,-403 -2294,-403 -414,0 -1665,30 -2278,394zm2278 -74c1257,0 2278,251 2303,564l8 1c0,576 -319,864 -576,864 -607,0 -576,-576 -1728,-576 -1152,0 -1409,576 -1728,576 -257,0 -576,-288 -576,-864l-7 0c23,-313 1046,-565 2304,-565z"/>
</svg>
