<?xml version="1.0" encoding="UTF-8"?>
<!DOCTYPE svg PUBLIC "-//W3C//DTD SVG 1.1//EN" "http://www.w3.org/Graphics/SVG/1.1/DTD/svg11.dtd">
<svg xmlns="http://www.w3.org/2000/svg" xml:space="preserve" width="1024px" height="1024px" shape-rendering="geometricPrecision" text-rendering="geometricPrecision" image-rendering="optimizeQuality" fill-rule="nonzero" clip-rule="evenodd" viewBox="0 0 10240 10240" xmlns:xlink="http://www.w3.org/1999/xlink">
	<title>document_cup icon</title>
	<desc>document_cup icon from the IconExperience.com O-Collection. Copyright by INCORS GmbH (www.incors.com).</desc>
	<path id="curve2" fill="#252525" d="M1280 640l5230 0c352,0 656,126 905,375l1170 1170c249,249 375,553 375,905l0 6510 -7680 0 0 -8960zm5760 960l0 960 960 0 -960 -960zm-5120 -320l0 7680 6400 0 0 -5440c0,-176 -144,-320 -320,-320l-1600 0 0 -1600c0,-176 -144,-320 -320,-320l-4160 0z"/>
	<path id="curve1" fill="#DE8D00" d="M3040 7360l1760 0c-881,0 -1600,-719 -1600,-1600l0 -960c0,-176 144,-320 320,-320l2880 0c176,0 320,144 320,320l480 0c441,0 800,359 800,800l0 0c0,441 -359,800 -800,800l-243 0c-216,0 -401,97 -525,273 -289,415 -770,687 -1312,687l2080 0c88,0 160,72 160,160l0 34c0,353 -960,27 -960,446l-2560 0c0,-419 -960,-93 -960,-446l0 -34c0,-88 72,-160 160,-160zm4160 -2080c-177,0 -320,143 -320,320 0,177 143,320 320,320 177,0 320,-143 320,-320 0,-177 -143,-320 -320,-320z"/>
	<path id="curve0" fill="#DE8D00" d="M5834 2809c-505,-155 -788,0 -788,127 0,254 591,318 591,635 0,507 -985,380 -591,761 -882,-360 0,-508 0,-678 0,-254 -788,-270 -788,-651 0,-391 848,-665 1576,-194z"/>
</svg>
