<?xml version="1.0" encoding="UTF-8"?>
<!DOCTYPE svg PUBLIC "-//W3C//DTD SVG 1.1//EN" "http://www.w3.org/Graphics/SVG/1.1/DTD/svg11.dtd">
<svg xmlns="http://www.w3.org/2000/svg" xml:space="preserve" width="1024px" height="1024px" shape-rendering="geometricPrecision" text-rendering="geometricPrecision" image-rendering="optimizeQuality" fill-rule="nonzero" clip-rule="evenodd" viewBox="0 0 10240 10240" xmlns:xlink="http://www.w3.org/1999/xlink">
	<title>document_size icon</title>
	<desc>document_size icon from the IconExperience.com O-Collection. Copyright by INCORS GmbH (www.incors.com).</desc>
	<path id="curve4" fill="#252525" d="M1280 640l5230 0c352,0 656,126 905,375l1170 1170c249,249 375,553 375,905l0 6510 -7680 0 0 -8960zm640 640l0 3467 -165 99c-99,59 -155,158 -155,274 0,116 56,215 155,274l165 99 0 3467 2827 0 99 165c59,99 158,155 274,155 116,0 215,-56 274,-155l99 -165 2827 0 0 -3467 165 -99c99,-59 155,-158 155,-274 0,-116 -56,-215 -155,-274l-165 -99 0 -1227c0,-176 -144,-320 -320,-320l-1600 0c0,-533 0,-1067 0,-1600 0,-176 -144,-320 -320,-320l-587 0 -99 -165c-59,-99 -158,-155 -274,-155 -116,0 -215,56 -274,155l-99 165 -2827 0zm5120 320l0 960 960 0 -960 -960z"/>
	<path id="curve3" fill="#DE8D00" d="M5120,8960 6080,7360 4160,7360z"/>
	<path id="curve2" fill="#DE8D00" d="M8320,5120 6720,4160 6720,6080z"/>
	<path id="curve1" fill="#DE8D00" d="M1920,5120 3520,4160 3520,6080z"/>
	<path id="curve0" fill="#DE8D00" d="M5120,1280 6080,2880 4160,2880z"/>
</svg>
