<?xml version="1.0" encoding="UTF-8"?>
<!DOCTYPE svg PUBLIC "-//W3C//DTD SVG 1.1//EN" "http://www.w3.org/Graphics/SVG/1.1/DTD/svg11.dtd">
<svg xmlns="http://www.w3.org/2000/svg" xml:space="preserve" width="1024px" height="1024px" shape-rendering="geometricPrecision" text-rendering="geometricPrecision" image-rendering="optimizeQuality" fill-rule="nonzero" clip-rule="evenodd" viewBox="0 0 10240 10240" xmlns:xlink="http://www.w3.org/1999/xlink">
	<title>dome_camera icon</title>
	<desc>dome_camera icon from the IconExperience.com O-Collection. Copyright by INCORS GmbH (www.incors.com).</desc>
	<path id="curve2" fill="#DE8D00" d="M5120 6080c530,0 960,430 960,960 0,530 -430,960 -960,960 -530,0 -960,-430 -960,-960 0,-530 430,-960 960,-960zm0 320c-353,0 -640,287 -640,640 0,260 155,483 377,583 -37,-80 -57,-169 -57,-263 0,-353 287,-640 640,-640 94,0 183,20 263,57 -100,-223 -323,-377 -583,-377z"/>
	<path id="curve1" fill="#252525" d="M8960 4160l0 960c0,2121 -1719,3840 -3840,3840 -2121,0 -3840,-1719 -3840,-3840l0 -960 655 0 -15 960c0,766 267,1471 714,2023 85,105 220,145 348,103 129,-43 214,-155 220,-290 0,-3 0,-5 0,-7 4,-82 -19,-153 -71,-217 -357,-440 -571,-1001 -571,-1612l30 -960 6370 0zm-3840 1600c-707,0 -1280,573 -1280,1280 0,707 573,1280 1280,1280 707,0 1280,-573 1280,-1280 0,-707 -573,-1280 -1280,-1280z"/>
	<path id="curve0" fill="#252525" d="M960 1280l8320 0c176,0 320,144 320,320l0 1920c0,176 -144,320 -320,320l-8320 0c-176,0 -320,-144 -320,-320l0 -1920c0,-176 144,-320 320,-320z"/>
</svg>
