<?xml version="1.0" encoding="UTF-8"?>
<!DOCTYPE svg PUBLIC "-//W3C//DTD SVG 1.1//EN" "http://www.w3.org/Graphics/SVG/1.1/DTD/svg11.dtd">
<svg xmlns="http://www.w3.org/2000/svg" xml:space="preserve" width="1024px" height="1024px" shape-rendering="geometricPrecision" text-rendering="geometricPrecision" image-rendering="optimizeQuality" fill-rule="nonzero" clip-rule="evenodd" viewBox="0 0 10240 10240" xmlns:xlink="http://www.w3.org/1999/xlink">
	<title>earth icon</title>
	<desc>earth icon from the IconExperience.com O-Collection. Copyright by INCORS GmbH (www.incors.com).</desc>
	<path id="curve1" fill="#252525" d="M5834 697c504,80 980,245 1413,479 -34,-15 -67,-30 -97,-48 -102,-59 -218,-78 -332,-45 -79,24 -142,68 -200,125 -13,13 -27,29 -40,42 -42,18 -101,33 -143,48 -135,48 -259,116 -343,237 -13,20 -25,40 -36,61 -64,129 -62,261 -18,391 -3,3 -6,6 -9,9 -11,10 -23,23 -35,35 -47,5 -107,1 -146,1 -197,1 -357,47 -513,172 -91,73 -162,168 -210,275 -111,245 -109,597 79,801 -21,33 -42,67 -61,100 -59,61 -144,122 -207,183 -54,52 -106,108 -149,170 -114,161 -197,346 -211,544 -7,101 17,152 27,235 -7,28 -21,59 -30,84 -35,89 -58,173 -51,270 1,20 4,40 8,60 90,451 477,862 898,1031 276,110 573,-36 836,-131 2,5 5,10 8,15 39,67 86,118 140,172 5,4 10,9 15,14 2,50 -2,95 8,152 23,126 91,250 146,365 17,34 55,112 62,151 -2,66 -13,101 -38,162 -45,107 -76,196 -92,312 -3,26 -5,51 -4,77 2,126 46,228 102,338 19,37 51,95 58,136 40,227 69,465 219,653 48,60 109,106 179,136 371,153 764,-241 983,-495 91,-105 177,-216 254,-332 71,-107 83,-214 89,-337 0,-13 0,-28 2,-41 4,-11 10,-23 15,-34 202,-67 287,-202 358,-414 74,-222 -50,-324 -11,-505 59,-271 259,-449 421,-656 130,-167 176,-360 117,-564 -12,-42 -28,-82 -45,-121 63,-37 118,-83 167,-156l183 274c-5,2471 -2009,4472 -4480,4472 -568,0 -1111,-106 -1611,-299l-242 -403c-74,-122 -213,-306 -298,-465 75,-25 141,-64 198,-140 61,-79 87,-177 79,-276 -11,-125 80,-161 187,-206 69,-29 130,-74 176,-133 123,-156 110,-334 92,-517 -2,-27 -9,-78 -5,-105 12,-44 40,-91 61,-130 51,-92 95,-176 114,-280 26,-135 3,-266 -61,-387 -135,-259 -694,-372 -952,-521 -9,-20 -17,-55 -22,-71 -24,-84 -49,-160 -97,-234 -15,-24 -32,-46 -51,-67 -59,-66 -130,-114 -214,-143 -55,-19 -106,-26 -163,-35 -12,-3 -27,-5 -38,-11 -36,-19 -123,-114 -155,-145 -129,-123 -262,-216 -434,-269 -106,-32 -211,-29 -317,-1 -12,4 -25,8 -37,12 -87,-131 -173,-359 -131,-500 28,-23 66,-48 92,-66 74,-51 149,-100 223,-151 20,-14 41,-28 61,-42 121,-86 200,-214 263,-345 29,-61 62,-152 95,-213 132,-110 317,-297 476,-319 35,-5 70,-15 103,-31 112,-53 162,-131 191,-222 193,59 367,-30 498,-170 173,-184 121,-424 44,-636 -12,-32 -31,-76 -45,-116 12,-7 25,-13 32,-17 52,-27 99,-55 138,-90 17,63 51,122 108,174 96,87 223,112 346,83 234,-54 416,-267 636,-361 78,-34 166,-40 249,-47 144,-13 273,-27 410,-77 148,-55 281,-133 396,-242 51,-48 91,-104 137,-150 119,-75 202,-189 215,-333 7,-74 -6,-143 -33,-206zm-4155 7292c-628,-753 -1014,-1715 -1038,-2767 79,112 154,230 189,308 -15,229 14,465 50,691 58,355 345,739 583,1010 32,64 63,238 77,306 26,125 55,256 104,375 10,24 22,50 35,77z"/>
	<path id="curve0" fill="#DE8D00" d="M5408 3561c136,-240 278,-405 456,-300 117,69 221,-23 378,-79 124,-44 307,-52 374,-29 333,115 317,454 661,512 39,6 217,-102 258,-95 210,37 410,233 595,141 110,-55 167,-261 69,-335 -95,-71 -241,-19 -345,-91 -153,-108 -281,42 -408,-102 -58,-66 -160,-270 -236,-378 -81,-115 -324,-68 -285,-15 126,166 310,192 333,284 26,100 -236,233 -166,52 37,-96 -151,-156 -369,-269 -114,-59 -225,-211 -398,-129 -85,40 -246,240 -310,334 -109,162 -358,118 -526,37 -164,-79 -168,-473 46,-645 206,-165 374,-65 574,-120 82,-23 123,-110 245,-192 145,-96 -89,-248 -12,-403 64,-127 276,-153 388,-207 106,-51 143,-195 258,-128 159,93 412,160 569,256 228,140 396,219 620,185 729,681 1230,1603 1378,2638 -76,-114 -169,-233 -233,-213 -75,23 -80,257 -161,391 -67,110 -214,122 -238,154 -160,214 234,386 2,683 -99,127 -400,414 -481,786 -56,261 56,363 20,471 -129,388 -209,44 -370,439 -38,94 -2,229 -56,310 -246,369 -731,881 -900,669 -98,-123 -122,-332 -154,-509 -31,-177 -172,-312 -154,-452 30,-219 129,-266 133,-517 4,-165 -186,-428 -213,-574 -13,-69 9,-159 -22,-223 -39,-82 -133,-137 -178,-216 -96,-168 -110,-255 -338,-178 -204,70 -503,220 -665,155 -323,-129 -635,-454 -704,-795 -18,-91 56,-185 79,-311 15,-80 -33,-170 -27,-253 10,-141 76,-274 153,-383 107,-151 324,-292 360,-356zm-3819 1508c266,82 376,307 534,391 137,72 241,24 326,119 104,116 62,324 236,428 210,126 791,302 842,400 113,218 -83,344 -141,571 -46,175 85,470 -77,538 -260,110 -404,262 -382,528 16,185 -416,15 -329,329 61,221 321,569 394,690 -34,-18 -67,-37 -101,-56 -247,-248 -824,-908 -951,-1217 -93,-225 -118,-636 -228,-761 -229,-259 -473,-595 -516,-859 -39,-242 -63,-468 -43,-670 9,-86 -294,-564 -496,-769 197,-2292 2120,-4091 4463,-4091 83,0 166,2 249,7 151,106 260,232 105,323 -95,56 -153,243 -466,357 -231,85 -442,31 -674,131 -240,102 -444,312 -582,343 -217,51 103,-497 40,-582 -94,-125 -786,46 -882,146 -93,96 257,212 258,222 7,82 -250,74 -301,325 -24,115 211,467 100,585 -234,249 -247,-133 -448,-25 -123,66 -75,338 -154,349 -276,39 -455,248 -662,411 -79,62 -156,411 -312,521 -203,143 -434,282 -467,347 -189,383 146,891 233,967 148,132 267,-49 432,2z"/>
</svg>
