<?xml version="1.0" encoding="UTF-8"?>
<!DOCTYPE svg PUBLIC "-//W3C//DTD SVG 1.1//EN" "http://www.w3.org/Graphics/SVG/1.1/DTD/svg11.dtd">
<svg xmlns="http://www.w3.org/2000/svg" xml:space="preserve" width="1024px" height="1024px" shape-rendering="geometricPrecision" text-rendering="geometricPrecision" image-rendering="optimizeQuality" fill-rule="nonzero" clip-rule="evenodd" viewBox="0 0 10240 10240" xmlns:xlink="http://www.w3.org/1999/xlink">
	<title>erase icon</title>
	<desc>erase icon from the IconExperience.com O-Collection. Copyright by INCORS GmbH (www.incors.com).</desc>
	<path id="curve1" fill="#252525" d="M640 5760l5123 0c-728,751 -1612,2152 -2196,3602 -31,78 -45,159 -45,238l-2882 0 0 -3840zm8960 145l0 3695 -2038 0c55,-62 111,-129 168,-199 594,-745 1358,-2083 1870,-3496zm-3809 3695l-940 0c511,-1196 1212,-2305 1790,-2912 -70,183 -178,420 -291,668 -331,727 -693,1522 -577,2161 5,29 11,56 18,83z"/>
	<path id="curve0" fill="#DE8D00" d="M3653 1787l1014 -1014c250,-250 656,-250 906,0l1561 1561 -1920 1920 -1561 -1561c-250,-250 -250,-656 0,-906zm3933 999l1561 1561c250,250 250,656 0,906l-1014 1014c-250,250 -656,250 -906,0l-1561 -1561 1920 -1920z"/>
</svg>
