<?xml version="1.0" encoding="UTF-8"?>
<!DOCTYPE svg PUBLIC "-//W3C//DTD SVG 1.1//EN" "http://www.w3.org/Graphics/SVG/1.1/DTD/svg11.dtd">
<svg xmlns="http://www.w3.org/2000/svg" xml:space="preserve" width="1024px" height="1024px" shape-rendering="geometricPrecision" text-rendering="geometricPrecision" image-rendering="optimizeQuality" fill-rule="nonzero" clip-rule="evenodd" viewBox="0 0 10240 10240" xmlns:xlink="http://www.w3.org/1999/xlink">
	<title>firewall icon</title>
	<desc>firewall icon from the IconExperience.com O-Collection. Copyright by INCORS GmbH (www.incors.com).</desc>
	<path id="curve1" fill="#DE8D00" d="M4160 5120l2560 0c176,0 320,144 320,320l0 640c0,176 -144,320 -320,320l-2560 0c-176,0 -320,-144 -320,-320l0 -640c0,-176 144,-320 320,-320zm-320 1600l640 0c176,0 320,144 320,320l0 640c0,176 -144,320 -320,320l-640 0 0 -1280zm1600 0l2560 0c176,0 320,144 320,320l0 640c0,176 -144,320 -320,320l-2560 0c-176,0 -320,-144 -320,-320l0 -640c0,-176 144,-320 320,-320zm1280 1600l2560 0c176,0 320,144 320,320l0 640c0,176 -144,320 -320,320l-2560 0c-176,0 -320,-144 -320,-320l0 -640c0,-176 144,-320 320,-320zm-2880 0l1920 0c176,0 320,144 320,320l0 640c0,176 -144,320 -320,320l-1920 0 0 -1280zm5120 -1600l640 0 0 1280 -640 0c-176,0 -320,-144 -320,-320l0 -640c0,-176 144,-320 320,-320zm-1280 -1600l1920 0 0 1280 -1920 0c-176,0 -320,-144 -320,-320l0 -640c0,-176 144,-320 320,-320z"/>
	<path id="curve0" fill="#252525" d="M4480 640c2121,0 3840,1719 3840,3840 0,108 -5,214 -13,320l-627 0c-5,0 -11,0 -16,0 11,-105 16,-212 16,-320 0,-195 -17,-385 -51,-571 -10,-4 -20,-5 -30,-2 -55,17 -59,193 -119,293 -49,82 -159,92 -176,116 -118,160 276,289 105,511 -13,16 -30,36 -50,59 -60,35 -113,80 -159,131 -117,-133 -289,-217 -480,-217l-2272 0c-83,-133 -133,-300 -162,-448 0,-1 36,-401 38,-423 7,-105 57,-205 113,-286 430,-616 329,-352 883,-550 92,-33 227,-39 277,-22 246,86 235,340 489,383 29,5 161,-76 191,-71 156,28 304,174 440,105 82,-41 124,-195 51,-250 -70,-54 -178,-14 -255,-69 -113,-81 -207,32 -302,-76 -43,-49 -118,-202 -174,-283 -60,-86 -240,-51 -211,-11 93,124 229,144 246,213 20,75 -175,174 -123,38 28,-71 -111,-117 -273,-201 -84,-44 -166,-158 -294,-97 -63,30 -182,180 -229,251 -81,121 -266,88 -389,28 -122,-60 -125,-355 34,-484 152,-123 276,-48 424,-90 61,-17 91,-82 181,-143 107,-72 -66,-186 -8,-302 47,-95 204,-115 287,-155 78,-39 165,-104 251,-53 117,70 244,77 360,149 117,72 214,123 317,139 -494,-441 -1127,-731 -1824,-797 95,102 185,243 146,329 -53,119 -130,268 -361,353 -171,64 -396,66 -568,141 -177,77 -354,71 -456,95 -160,37 8,-527 -39,-591 -69,-93 -496,-13 -533,84 -86,226 115,417 106,461 -18,86 -16,427 -97,515 -124,133 -439,254 -481,260 -203,29 -250,237 -403,359 -64,51 -388,391 -439,496 -141,287 -4,470 60,527 110,99 155,109 277,147 49,15 511,253 636,382 128,132 192,269 321,346 155,95 439,201 477,274 170,331 112,795 -375,1124 -127,85 -385,225 -321,460 12,43 17,83 23,121 235,150 490,270 761,355l0 467c0,58 16,113 43,160 -8,14 -15,29 -21,44 -1667,-418 -2902,-1927 -2902,-3724 0,-2121 1719,-3840 3840,-3840zm-2158 6203c-84,-115 -153,-222 -185,-300 -68,-168 -87,-476 -168,-569 -169,-195 -324,-352 -356,-550 -29,-181 -133,-444 -152,-587 -20,-158 -81,-328 -179,-470 -1,37 -2,75 -2,113 0,936 402,1778 1042,2363z"/>
</svg>
