<?xml version="1.0" encoding="UTF-8"?>
<!DOCTYPE svg PUBLIC "-//W3C//DTD SVG 1.1//EN" "http://www.w3.org/Graphics/SVG/1.1/DTD/svg11.dtd">
<svg xmlns="http://www.w3.org/2000/svg" xml:space="preserve" width="1024px" height="1024px" shape-rendering="geometricPrecision" text-rendering="geometricPrecision" image-rendering="optimizeQuality" fill-rule="nonzero" clip-rule="evenodd" viewBox="0 0 10240 10240" xmlns:xlink="http://www.w3.org/1999/xlink">
	<title>fish_bowl icon</title>
	<desc>fish_bowl icon from the IconExperience.com O-Collection. Copyright by INCORS GmbH (www.incors.com).</desc>
	<path id="curve3" fill="#DE8D00" d="M6080 5440c253,0 -16,629 320,640 510,17 0,-320 640,-320 1280,0 345,536 320,960 -18,307 960,960 0,960 -960,0 -640,-640 -960,-640 -640,0 -320,960 -640,960 -94,0 -320,0 -640,0 -166,0 -161,-286 -320,-320 -604,-131 -1280,-540 -1280,-960 0,-394 634,-812 1280,-960 126,-29 520,-329 640,-320 0,0 551,0 640,0zm-1694 654c55,25 94,81 94,146 0,88 -72,160 -160,160 -65,0 -121,-39 -146,-94 -9,30 -14,61 -14,94 0,177 143,320 320,320 177,0 320,-143 320,-320 0,-177 -143,-320 -320,-320 -33,0 -64,5 -94,14z"/>
	<path id="curve2" fill="#252525" d="M3360 6077c88,0 160,71 160,160 0,88 -72,160 -160,160 -88,0 -160,-72 -160,-160 0,-89 72,-160 160,-160zm322 -2234c264,0 478,214 478,478 0,265 -214,479 -478,479 -265,0 -479,-214 -479,-479 0,-264 214,-478 479,-478zm-482 1277c177,0 320,143 320,320 0,177 -143,320 -320,320 -177,0 -320,-143 -320,-320 0,-177 143,-320 320,-320z"/>
	<path id="curve1" fill="#252525" d="M2216 3200l5808 0c68,103 131,210 188,320l-6184 0c57,-110 120,-217 188,-320z"/>
	<path id="curve0" fill="#252525" d="M7391 1280c1322,807 2209,2296 2209,4000 0,1964 -1178,3643 -2842,4320l-3276 0c-1664,-677 -2842,-2356 -2842,-4320 0,-1704 887,-3193 2209,-4000l4542 0zm-187 640l-4168 0c-1110,748 -1756,2019 -1756,3360 0,1571 891,3040 2332,3680l3016 0c1441,-640 2332,-2109 2332,-3680 0,-1341 -646,-2612 -1756,-3360z"/>
</svg>
