<?xml version="1.0" encoding="UTF-8"?>
<!DOCTYPE svg PUBLIC "-//W3C//DTD SVG 1.1//EN" "http://www.w3.org/Graphics/SVG/1.1/DTD/svg11.dtd">
<svg xmlns="http://www.w3.org/2000/svg" xml:space="preserve" width="1024px" height="1024px" shape-rendering="geometricPrecision" text-rendering="geometricPrecision" image-rendering="optimizeQuality" fill-rule="nonzero" clip-rule="evenodd" viewBox="0 0 10240 10240" xmlns:xlink="http://www.w3.org/1999/xlink">
	<title>folder2 icon</title>
	<desc>folder2 icon from the IconExperience.com O-Collection. Copyright by INCORS GmbH (www.incors.com).</desc>
	<path id="curve1" fill="#DE8D00" d="M4160,1600 6080,1600 6080,2560 4160,2560z"/>
	<path id="curve0" fill="#252525" d="M3520 640l3200 0c176,0 320,144 320,320l0 8320c0,176 -144,320 -320,320l-3200 0c-176,0 -320,-144 -320,-320l0 -8320c0,-176 144,-320 320,-320zm1600 6080c-530,0 -960,430 -960,960 0,530 430,960 960,960 530,0 960,-430 960,-960 0,-530 -430,-960 -960,-960zm-1280 -5440l0 3840 2560 0 0 -3840 -2560 0z"/>
</svg>
