<?xml version="1.0" encoding="UTF-8"?>
<!DOCTYPE svg PUBLIC "-//W3C//DTD SVG 1.1//EN" "http://www.w3.org/Graphics/SVG/1.1/DTD/svg11.dtd">
<svg xmlns="http://www.w3.org/2000/svg" xml:space="preserve" width="1024px" height="1024px" shape-rendering="geometricPrecision" text-rendering="geometricPrecision" image-rendering="optimizeQuality" fill-rule="nonzero" clip-rule="evenodd" viewBox="0 0 10240 10240" xmlns:xlink="http://www.w3.org/1999/xlink">
	<title>selection_refresh icon</title>
	<desc>selection_refresh icon from the IconExperience.com O-Collection. Copyright by INCORS GmbH (www.incors.com).</desc>
	<path id="curve2" fill="#DE8D00" d="M5560 5741l735 0c68,0 126,40 150,104 24,63 7,131 -44,176l-408 360 727 0c176,0 320,-144 320,-320l0 -1920c0,-176 -144,-322 -320,-320l-699 10c140,-124 217,-293 217,-480 0,-187 -76,-356 -216,-480l698 -10c705,-10 1280,575 1280,1280l0 1920c0,705 -575,1280 -1280,1280l-748 0 429 379c51,45 68,113 44,177 -24,63 -82,103 -150,103l-735 0c-82,0 -151,-26 -212,-80l-918 -809c-71,-63 -108,-145 -108,-240 0,-95 37,-177 108,-240l918 -810c61,-53 130,-80 212,-80z"/>
	<path id="curve1" fill="#DE8D00" d="M4680 4480l-735 0c-68,0 -126,-40 -150,-103 -24,-64 -7,-132 44,-177l408 -360 -727 0c-176,0 -320,144 -320,320l0 1920c0,176 144,320 320,320l688 0c-133,123 -206,288 -206,471 0,187 77,356 217,480l10 9 -709 0c-705,0 -1280,-575 -1280,-1280l0 -1920c0,-705 575,-1280 1280,-1280l748 0 -429 -379c-51,-45 -68,-113 -44,-176 24,-64 82,-104 150,-104l735 0c82,0 151,27 212,80l913 806 5 4 0 0c3,3 6,6 9,9l1 0 2 3 1 0 3 3 0 0c22,23 41,47 55,74l0 0c5,9 9,17 13,26l0 0c2,7 5,13 7,20l1 3 0 1c1,2 2,5 3,8l1 3 0 1 1 4 1 4 0 0c1,2 1,5 2,8l1 4 0 0 1 4 0 0 1 4 0 0 0 4 0 0 1 5 0 0 1 4 0 0 0 4 0 0 1 4 0 0 0 5 0 0 0 4 0 0 1 4 0 0 0 5 0 0 0 4 0 0 1 4 0 0 0 5 0 0 0 4 0 0 0 5 0 4 0 0 0 4 0 1 0 4 0 0 -1 4 0 0 0 5 0 0 0 4 0 0 -1 4 0 0 0 5 0 0 0 4 0 0 -1 4 0 0 0 4 0 0 -1 5 0 0 -1 4 0 0 0 4 0 0 -1 4 0 0 -1 4 0 0 -1 4 0 1 -1 4 0 0 -2 8 0 0 -1 4 0 0 -1 4 0 0 -1 4 0 0 -2 4 0 0 -1 4 0 0 -1 4 0 0 -2 3 0 1 -1 3 0 0 -2 4 0 0 -1 4 0 0 -2 4 0 0 -2 4 0 0c-15,34 -37,65 -64,92l0 0c-3,3 -6,6 -9,9l-1 1 0 0 -3 3 0 0 -3 3 0 0 -4 3 -647 570 0 0 -267 236c-61,54 -130,80 -212,80z"/>
	<path id="curve0" fill="#252525" d="M1280 1280l640 0 0 640 -640 0 0 -640zm7040 0l640 0 0 640 -640 0 0 -640zm0 7040l640 0 0 640 -640 0 0 -640zm-1920 640l1280 0 0 -640 -1280 0 0 640zm-1920 0l1280 0 0 -640 -1280 0 0 640zm-1920 0l1280 0 0 -640 -1280 0 0 640zm-1280 -640l640 0 0 640 -640 0 0 -640zm5120 -6400l1280 0 0 -640 -1280 0 0 640zm-1920 0l1280 0 0 -640 -1280 0 0 640zm3840 2560l640 0 0 1280 -640 0 0 -1280zm0 -1920l640 0 0 1280 -640 0 0 -1280zm0 3840l640 0 0 1280 -640 0 0 -1280zm-7040 -1920l640 0 0 1280 -640 0 0 -1280zm1280 -2560l1280 0 0 -640 -1280 0 0 640zm-1280 640l640 0 0 1280 -640 0 0 -1280zm0 3840l640 0 0 1280 -640 0 0 -1280z"/>
</svg>
