<?xml version="1.0" encoding="UTF-8"?>
<!DOCTYPE svg PUBLIC "-//W3C//DTD SVG 1.1//EN" "http://www.w3.org/Graphics/SVG/1.1/DTD/svg11.dtd">
<svg xmlns="http://www.w3.org/2000/svg" xml:space="preserve" width="1024px" height="1024px" shape-rendering="geometricPrecision" text-rendering="geometricPrecision" image-rendering="optimizeQuality" fill-rule="nonzero" clip-rule="evenodd" viewBox="0 0 10240 10240" xmlns:xlink="http://www.w3.org/1999/xlink">
	<title>selection_delete icon</title>
	<desc>selection_delete icon from the IconExperience.com O-Collection. Copyright by INCORS GmbH (www.incors.com).</desc>
	<path id="curve1" fill="#DE8D00" d="M3106 3614l508 -508c124,-124 328,-124 452,0l1054 1054 1054 -1054c124,-124 328,-124 452,0l508 508c124,124 124,328 0,452l-1054 1054 1054 1054c124,124 124,328 0,452l-508 508c-124,124 -328,124 -452,0l-1054 -1054 -1054 1054c-124,124 -328,124 -452,0l-508 -508c-124,-124 -124,-328 0,-452l1054 -1054 -1054 -1054c-124,-124 -124,-328 0,-452z"/>
	<path id="curve0" fill="#252525" d="M1280 1280l640 0 0 640 -640 0 0 -640zm7040 0l640 0 0 640 -640 0 0 -640zm0 7040l640 0 0 640 -640 0 0 -640zm-1920 640l1280 0 0 -640 -1280 0 0 640zm-1920 0l1280 0 0 -640 -1280 0 0 640zm-1920 0l1280 0 0 -640 -1280 0 0 640zm-1280 -640l640 0 0 640 -640 0 0 -640zm5120 -6400l1280 0 0 -640 -1280 0 0 640zm-1920 0l1280 0 0 -640 -1280 0 0 640zm3840 2560l640 0 0 1280 -640 0 0 -1280zm0 -1920l640 0 0 1280 -640 0 0 -1280zm0 3840l640 0 0 1280 -640 0 0 -1280zm-7040 -1920l640 0 0 1280 -640 0 0 -1280zm1280 -2560l1280 0 0 -640 -1280 0 0 640zm-1280 640l640 0 0 1280 -640 0 0 -1280zm0 3840l640 0 0 1280 -640 0 0 -1280z"/>
</svg>
