<?xml version="1.0" encoding="UTF-8"?>
<!DOCTYPE svg PUBLIC "-//W3C//DTD SVG 1.1//EN" "http://www.w3.org/Graphics/SVG/1.1/DTD/svg11.dtd">
<svg xmlns="http://www.w3.org/2000/svg" xml:space="preserve" width="1024px" height="1024px" shape-rendering="geometricPrecision" text-rendering="geometricPrecision" image-rendering="optimizeQuality" fill-rule="nonzero" clip-rule="evenodd" viewBox="0 0 10240 10240" xmlns:xlink="http://www.w3.org/1999/xlink">
	<title>senior_citizen2 icon</title>
	<desc>senior_citizen2 icon from the IconExperience.com O-Collection. Copyright by INCORS GmbH (www.incors.com).</desc>
	<path id="curve2" fill="#252525" d="M8000 8559c0,746 -1728,1041 -2880,1041 -1152,0 -2880,-295 -2880,-1040 0,-1145 484,-2156 1224,-2768 0,0 200,154 219,167 -2,40 -3,80 -3,121 0,520 155,993 406,1338 261,359 626,581 1034,581 408,0 773,-222 1034,-581 251,-345 406,-818 406,-1338 0,-41 -1,-81 -3,-121 76,-52 149,-107 219,-167 740,612 1224,1623 1224,2767zm-3433 -2219l249 749c45,133 164,219 304,219 140,0 259,-86 304,-219l249 -749c197,-44 385,-109 566,-197 -12,426 -141,808 -343,1087 -202,278 -477,449 -776,449 -299,0 -574,-171 -776,-449 -202,-279 -331,-661 -343,-1087 182,88 369,153 566,197z"/>
	<path id="curve1" fill="#252525" d="M6695 5432c-404,401 -961,648 -1575,648 -610,0 -1162,-244 -1566,-639l-19 -105c-30,-165 -42,-384 -33,-551 10,-171 38,-314 79,-437 59,80 153,132 259,132l640 0c176,0 320,-144 320,-320l0 0c0,-176 144,-320 320,-320l0 0c176,0 320,144 320,320l0 0c0,176 144,320 320,320l640 0c176,0 320,-144 320,-320l0 -95c117,347 176,781 63,1112l-88 255zm-1019 -2562c326,129 587,367 779,655 -18,-3 -36,-5 -55,-5l-1840 0c99,-44 202,-90 309,-142 312,-150 594,-304 807,-508z"/>
	<path id="curve0" fill="#DE8D00" d="M5120 320c729,0 1344,488 1537,1155 -257,-121 -547,-190 -867,-195 -264,-220 -663,-320 -990,-320 -420,0 -804,111 -1139,302 251,-555 810,-942 1459,-942zm2560 3520c0,416 -114,807 -316,1150 -23,40 -124,180 -278,291 264,-771 -152,-2186 -1199,-2668 122,-197 193,-435 192,-740 0,-92 -15,-176 -43,-254 1096,158 1644,1249 1644,2221zm-1921 -1967c1,687 -455,940 -1029,1217 -697,336 -1479,512 -1547,1677 -6,98 -5,394 37,626 -515,-241 -660,-1055 -660,-1553 0,-1323 960,-2560 2240,-2560 443,0 959,208 959,593z"/>
</svg>
