<?xml version="1.0" encoding="UTF-8"?>
<!DOCTYPE svg PUBLIC "-//W3C//DTD SVG 1.1//EN" "http://www.w3.org/Graphics/SVG/1.1/DTD/svg11.dtd">
<svg xmlns="http://www.w3.org/2000/svg" xml:space="preserve" width="1024px" height="1024px" shape-rendering="geometricPrecision" text-rendering="geometricPrecision" image-rendering="optimizeQuality" fill-rule="nonzero" clip-rule="evenodd" viewBox="0 0 10240 10240" xmlns:xlink="http://www.w3.org/1999/xlink">
	<title>shelf_empty icon</title>
	<desc>shelf_empty icon from the IconExperience.com O-Collection. Copyright by INCORS GmbH (www.incors.com).</desc>
	<path id="curve1" fill="#252525" d="M8960 960l0 8640 -640 0 0 -8320 -6400 0 0 8320 -640 0 0 -8640c0,-176 144,-320 320,-320 2347,0 4693,0 7040,0 176,0 320,144 320,320z"/>
	<path id="curve0" fill="#252525" d="M2240 8320l5760 0 0 640 -5760 0 0 -640zm0 -5120l5760 0 0 640 -5760 0 0 -640zm0 2560l5760 0 0 640 -5760 0 0 -640z"/>
</svg>
