<?xml version="1.0" encoding="UTF-8"?>
<!DOCTYPE svg PUBLIC "-//W3C//DTD SVG 1.1//EN" "http://www.w3.org/Graphics/SVG/1.1/DTD/svg11.dtd">
<svg xmlns="http://www.w3.org/2000/svg" xml:space="preserve" width="1024px" height="1024px" shape-rendering="geometricPrecision" text-rendering="geometricPrecision" image-rendering="optimizeQuality" fill-rule="nonzero" clip-rule="evenodd" viewBox="0 0 10240 10240" xmlns:xlink="http://www.w3.org/1999/xlink">
	<title>ships_wheel icon</title>
	<desc>ships_wheel icon from the IconExperience.com O-Collection. Copyright by INCORS GmbH (www.incors.com).</desc>
	<path id="curve0" fill="#252525" d="M5440 2258c555,61 1063,280 1477,612l78 -77 77 -9c67,-8 117,-36 152,-88 128,-186 75,-369 312,-607 246,-245 582,-307 752,-137 170,170 108,506 -137,752 -236,235 -406,198 -598,314 -57,35 -90,87 -98,158l-8 69 -77 78c331,414 551,922 612,1477l109 0 61 48c53,42 108,57 170,46 222,-41 314,-208 649,-208 348,0 629,194 629,434 0,240 -281,434 -629,434 -332,0 -426,-147 -645,-200 -64,-16 -124,-2 -180,43l-55 43 -109 0c-61,555 -281,1063 -612,1477l77 78 9 77c8,67 36,117 88,152 186,128 369,75 607,312 245,246 307,582 137,752 -170,170 -506,108 -752,-137 -235,-236 -198,-406 -314,-598 -35,-57 -87,-90 -158,-98l-69 -8 -78 -77c-414,331 -922,551 -1477,612l0 109 -48 61c-42,53 -57,108 -46,170 41,222 208,314 208,649 0,348 -194,629 -434,629 -240,0 -434,-281 -434,-629 0,-332 147,-426 200,-645 16,-64 2,-124 -43,-180l-43 -55 0 -109c-555,-61 -1063,-281 -1477,-612l-78 77 -77 9c-67,8 -117,36 -152,88 -128,186 -75,369 -312,607 -246,245 -582,307 -752,137 -170,-170 -108,-506 137,-752 236,-235 406,-198 598,-314 57,-35 90,-87 98,-158l8 -69 77 -78c-331,-414 -551,-922 -612,-1477l-109 0 -61 -48c-53,-42 -108,-57 -170,-46 -222,41 -314,208 -649,208 -348,0 -629,-194 -629,-434 0,-240 281,-434 629,-434 332,0 426,147 645,200 64,16 124,2 180,-43l55 -43 109 0c61,-555 281,-1063 612,-1477l-77 -78 -9 -77c-8,-67 -36,-117 -88,-152 -186,-128 -369,-75 -607,-312 -245,-246 -307,-582 -137,-752 170,-170 506,-108 752,137 235,236 198,406 314,598 35,57 87,90 158,98l69 8 78 77c414,-331 922,-551 1477,-612l0 -109 48 -61c42,-53 57,-108 46,-170 -41,-222 -208,-314 -208,-649 0,-348 194,-629 434,-629 240,0 434,281 434,629 0,332 -147,426 -200,645 -16,64 -2,124 43,180l43 55 0 109zm-320 2222c-353,0 -640,287 -640,640 0,353 287,640 640,640 353,0 640,-287 640,-640 0,-353 -287,-640 -640,-640zm320 -600c117,31 228,77 330,137l691 -691c-293,-220 -642,-369 -1021,-423l0 977zm783 590c60,102 106,213 137,330l977 0c-54,-379 -204,-728 -423,-1021l-691 691zm137 970c-31,117 -77,228 -137,330l691 691c220,-293 369,-642 423,-1021l-977 0zm-590 783c-102,60 -213,106 -330,137l0 977c379,-54 728,-204 1021,-423l-691 -691zm-970 137c-117,-31 -228,-77 -330,-137l-691 691c293,220 642,369 1021,423l0 -977zm-783 -590c-60,-102 -106,-213 -137,-330l-977 0c54,379 204,728 423,1021l691 -691zm-137 -970c31,-117 77,-228 137,-330l-691 -691c-219,293 -369,642 -423,1021l977 0zm590 -783c102,-60 213,-106 330,-137l0 -977c-379,54 -728,204 -1021,423l691 691z"/>
</svg>
