<?xml version="1.0" encoding="UTF-8"?>
<!DOCTYPE svg PUBLIC "-//W3C//DTD SVG 1.1//EN" "http://www.w3.org/Graphics/SVG/1.1/DTD/svg11.dtd">
<svg xmlns="http://www.w3.org/2000/svg" xml:space="preserve" width="1024px" height="1024px" shape-rendering="geometricPrecision" text-rendering="geometricPrecision" image-rendering="optimizeQuality" fill-rule="nonzero" clip-rule="evenodd" viewBox="0 0 10240 10240" xmlns:xlink="http://www.w3.org/1999/xlink">
	<title>shower_gel icon</title>
	<desc>shower_gel icon from the IconExperience.com O-Collection. Copyright by INCORS GmbH (www.incors.com).</desc>
	<path id="curve2" fill="#252525" d="M6080 5120l320 0 0 1280 960 0 0 320 -1280 0 0 -1600zm-2880 0l640 0c176,0 320,144 320,320l0 80 -320 0 0 -80 -640 0 0 960 640 0 0 -320 -320 0 0 -320 560 0c44,0 80,36 80,80l0 560c0,176 -144,320 -320,320l-640 0c-176,0 -320,-144 -320,-320l0 -960c0,-176 144,-320 320,-320zm2560 0l0 320 -960 0 0 320 640 0 0 320 -640 0 0 320 960 0 0 320c-400,0 -800,0 -1200,0 -44,0 -80,-36 -80,-80l0 -1440c0,-44 36,-80 80,-80 400,0 800,0 1200,0z"/>
	<path id="curve1" fill="#252525" d="M1920 5120c0,-351 15,-724 47,-1105 151,116 361,220 618,307 -17,274 -25,542 -25,798 0,1138 153,2484 565,3560 154,77 473,144 602,168 453,82 933,112 1393,112 364,0 1623,-77 1991,-269 415,-1078 569,-2430 569,-3571 0,-256 -8,-524 -25,-798 257,-88 467,-191 618,-308 32,382 47,755 47,1106 0,1253 -181,2741 -653,3905 -200,494 -2112,575 -2547,575 -1326,0 -2416,-252 -2547,-575 -472,-1164 -653,-2652 -653,-3905z"/>
	<path id="curve0" fill="#DE8D00" d="M2015 3551c79,-658 210,-1321 405,-1916 156,145 409,269 732,364 506,149 1203,241 1968,241 765,0 1462,-92 1968,-241 323,-95 576,-219 732,-364 195,594 326,1255 405,1911 -1,6 -1,11 -1,17 0,178 -321,359 -840,508 -577,166 -1378,268 -2264,268 -887,0 -1688,-102 -2265,-268 -519,-149 -840,-330 -840,-508 0,-4 0,-8 0,-12zm558 -2336c131,-323 1221,-575 2547,-575 435,0 2347,81 2547,575 14,36 13,42 13,65 0,141 -261,289 -682,413 -477,140 -1141,227 -1878,227 -737,0 -1401,-87 -1878,-227 -421,-124 -682,-272 -682,-413 0,-24 -1,-29 13,-65z"/>
</svg>
