<?xml version="1.0" encoding="UTF-8"?>
<!DOCTYPE svg PUBLIC "-//W3C//DTD SVG 1.1//EN" "http://www.w3.org/Graphics/SVG/1.1/DTD/svg11.dtd">
<svg xmlns="http://www.w3.org/2000/svg" xml:space="preserve" width="1024px" height="1024px" shape-rendering="geometricPrecision" text-rendering="geometricPrecision" image-rendering="optimizeQuality" fill-rule="nonzero" clip-rule="evenodd" viewBox="0 0 10240 10240" xmlns:xlink="http://www.w3.org/1999/xlink">
	<title>shredder icon</title>
	<desc>shredder icon from the IconExperience.com O-Collection. Copyright by INCORS GmbH (www.incors.com).</desc>
	<path id="curve3" fill="#252525" d="M8320,6720 8320,8960 7040,8960 7040,8320 6080,8320 6080,9280 5120,9280 5120,8640 4160,8640 4160,9280 3200,9280 3200,9600 1920,9600 1920,6720 2560,6720 2560,8960 2880,8960 2880,6720 3520,6720 3520,8640 3840,8640 3840,6720 4480,6720 4480,8000 4800,8000 4800,6720 5440,6720 5440,8640 5760,8640 5760,6720 6400,6720 6400,7680 6720,7680 6720,6720 7360,6720 7360,8320 7680,8320 7680,6720z"/>
	<path id="curve2" fill="#DE8D00" d="M8000 5120c177,0 320,143 320,320 0,177 -143,320 -320,320 -177,0 -320,-143 -320,-320 0,-177 143,-320 320,-320z"/>
	<path id="curve1" fill="#252525" d="M1280 3200l320 0 0 1280 7040 0 0 -1280 320 0c353,0 640,287 640,640l0 2240c0,176 -144,320 -320,320l-8320 0c-176,0 -320,-144 -320,-320l0 -2240c0,-353 287,-640 640,-640zm6720 1600c-353,0 -640,287 -640,640 0,353 287,640 640,640 353,0 640,-287 640,-640 0,-353 -287,-640 -640,-640z"/>
	<path id="curve0" fill="#252525" d="M6400 1600l0 960 960 0 -960 -960zm-4480 -960l3950 0c352,0 656,126 905,375l1170 1170c249,249 375,553 375,905l0 1070 -640 0 0 -640c0,-176 -144,-320 -320,-320l-1600 0 0 -1600c0,-176 -144,-320 -320,-320l-2880 0 0 2880 -640 0 0 -3520z"/>
</svg>
