<?xml version="1.0" encoding="UTF-8"?>
<!DOCTYPE svg PUBLIC "-//W3C//DTD SVG 1.1//EN" "http://www.w3.org/Graphics/SVG/1.1/DTD/svg11.dtd">
<svg xmlns="http://www.w3.org/2000/svg" xml:space="preserve" width="1024px" height="1024px" shape-rendering="geometricPrecision" text-rendering="geometricPrecision" image-rendering="optimizeQuality" fill-rule="nonzero" clip-rule="evenodd" viewBox="0 0 10240 10240" xmlns:xlink="http://www.w3.org/1999/xlink">
	<title>shutter icon</title>
	<desc>shutter icon from the IconExperience.com O-Collection. Copyright by INCORS GmbH (www.incors.com).</desc>
	<path id="curve5" fill="#DE8D00" d="M5120 640c2474,0 4480,2006 4480,4480 0,2474 -2006,4480 -4480,4480 -2474,0 -4480,-2006 -4480,-4480 0,-2474 2006,-4480 4480,-4480zm0 640c-2121,0 -3840,1719 -3840,3840 0,2121 1719,3840 3840,3840 2121,0 3840,-1719 3840,-3840 0,-2121 -1719,-3840 -3840,-3840z"/>
	<path id="curve4" fill="#252525" d="M4848 1610c1178,-90 2374,415 3120,1441 78,107 148,218 213,330 -972,-270 -2060,-269 -2947,20 -568,184 -1072,468 -1389,881l0 0c33,-616 213,-1244 474,-1796 140,-296 318,-596 529,-876z"/>
	<path id="curve3" fill="#252525" d="M8374 3777c450,1093 339,2386 -406,3412 -78,107 -161,209 -248,304 -44,-1007 -381,-2041 -929,-2796 -351,-483 -777,-875 -1268,-1048l0 0c596,-160 1249,-182 1854,-104 325,41 666,118 997,232z"/>
	<path id="curve2" fill="#252525" d="M7403 7800c-900,765 -2165,1060 -3371,668 -126,-41 -248,-89 -366,-142 945,-353 1824,-993 2372,-1748 351,-483 593,-1009 606,-1529l0 -1c336,518 559,1132 672,1732 60,322 93,670 87,1020z"/>
	<path id="curve1" fill="#252525" d="M3277 8119c-1006,-619 -1677,-1731 -1677,-2999 0,-133 8,-263 22,-392 627,789 1508,1428 2395,1716 568,184 1143,252 1642,103l0 0c-389,480 -904,882 -1439,1174 -288,157 -608,296 -943,398z"/>
	<path id="curve0" fill="#252525" d="M1698 4294c278,-1148 1128,-2130 2334,-2522 126,-41 253,-74 380,-100 -557,840 -892,1875 -892,2808 0,597 114,1164 409,1593l0 0c-576,-221 -1117,-586 -1561,-1005 -238,-225 -469,-487 -670,-774z"/>
</svg>
