<?xml version="1.0" encoding="UTF-8"?>
<!DOCTYPE svg PUBLIC "-//W3C//DTD SVG 1.1//EN" "http://www.w3.org/Graphics/SVG/1.1/DTD/svg11.dtd">
<svg xmlns="http://www.w3.org/2000/svg" xml:space="preserve" width="1024px" height="1024px" shape-rendering="geometricPrecision" text-rendering="geometricPrecision" image-rendering="optimizeQuality" fill-rule="nonzero" clip-rule="evenodd" viewBox="0 0 10240 10240" xmlns:xlink="http://www.w3.org/1999/xlink">
	<title>signpost3 icon</title>
	<desc>signpost3 icon from the IconExperience.com O-Collection. Copyright by INCORS GmbH (www.incors.com).</desc>
	<path id="curve1" fill="#252525" d="M6080 640l640 0c176,0 320,144 320,320 0,2987 0,5653 0,8640l-1280 0c0,-2987 0,-5653 0,-8640 0,-176 144,-320 320,-320z"/>
	<path id="curve0" fill="#DE8D00" d="M2036 1293l3387 0 17 2547 -3387 0c-89,0 -164,-31 -227,-94l-960 -960c-125,-125 -125,-328 0,-452l943 -947c63,-62 139,-94 227,-94z"/>
</svg>
