<?xml version="1.0" encoding="UTF-8"?>
<!DOCTYPE svg PUBLIC "-//W3C//DTD SVG 1.1//EN" "http://www.w3.org/Graphics/SVG/1.1/DTD/svg11.dtd">
<svg xmlns="http://www.w3.org/2000/svg" xml:space="preserve" width="1024px" height="1024px" shape-rendering="geometricPrecision" text-rendering="geometricPrecision" image-rendering="optimizeQuality" fill-rule="nonzero" clip-rule="evenodd" viewBox="0 0 10240 10240" xmlns:xlink="http://www.w3.org/1999/xlink">
	<title>signpost2 icon</title>
	<desc>signpost2 icon from the IconExperience.com O-Collection. Copyright by INCORS GmbH (www.incors.com).</desc>
	<path id="curve3" fill="#252525" d="M4800 640l640 0c176,0 320,144 320,320 0,2987 0,5653 0,8640l-1280 0c0,-2987 0,-5653 0,-8640 0,-176 144,-320 320,-320z"/>
	<path id="curve2" fill="#DE8D00" d="M6080 2560l2427 0c89,0 164,31 227,94l640 640c124,124 124,328 0,452l-640 640c-63,63 -138,94 -227,94l-2427 0 0 -1920z"/>
	<path id="curve1" fill="#DE8D00" d="M1733 3840l2427 0 0 1920 -2427 0c-89,0 -164,-31 -227,-94l-640 -640c-124,-124 -124,-328 0,-452l640 -640c63,-63 138,-94 227,-94z"/>
	<path id="curve0" fill="#DE8D00" d="M1733 1280l2427 0 0 1920 -2427 0c-89,0 -164,-31 -227,-94l-640 -640c-124,-124 -124,-328 0,-452l640 -640c63,-63 138,-94 227,-94z"/>
</svg>
