<?xml version="1.0" encoding="UTF-8"?>
<!DOCTYPE svg PUBLIC "-//W3C//DTD SVG 1.1//EN" "http://www.w3.org/Graphics/SVG/1.1/DTD/svg11.dtd">
<svg xmlns="http://www.w3.org/2000/svg" xml:space="preserve" width="1024px" height="1024px" shape-rendering="geometricPrecision" text-rendering="geometricPrecision" image-rendering="optimizeQuality" fill-rule="nonzero" clip-rule="evenodd" viewBox="0 0 10240 10240" xmlns:xlink="http://www.w3.org/1999/xlink">
	<title>sim_card icon</title>
	<desc>sim_card icon from the IconExperience.com O-Collection. Copyright by INCORS GmbH (www.incors.com).</desc>
	<path id="curve1" fill="#DE8D00" d="M3200 4480l3520 0c176,0 320,144 320,320l0 3520c0,176 -144,320 -320,320l-3520 0c-176,0 -320,-144 -320,-320l0 -3520c0,-176 144,-320 320,-320zm0 2880l0 960 960 0 0 -960 -960 0zm0 -2560l0 2240 3520 0 0 -960 -2560 0 0 -1280 -960 0zm2560 0l0 960 960 0 0 -960 -960 0zm-1280 0l0 960 960 0 0 -960 -960 0zm1280 2560l0 960 960 0 0 -960 -960 0zm-1280 0l0 960 960 0 0 -960 -960 0z"/>
	<path id="curve0" fill="#252525" d="M7813 1733l-906 -906c-124,-124 -276,-187 -452,-187l-3895 0c-352,0 -640,288 -640,640l0 7680c0,352 288,640 640,640l4800 0c352,0 640,-287 640,-640l0 -6775c0,-176 -63,-328 -187,-452zm-4613 2427l3520 0c353,0 640,288 640,640l0 3520c0,352 -288,640 -640,640l-3520 0c-352,0 -640,-288 -640,-640l0 -3520c0,-353 287,-640 640,-640z"/>
</svg>
