<?xml version="1.0" encoding="UTF-8"?>
<!DOCTYPE svg PUBLIC "-//W3C//DTD SVG 1.1//EN" "http://www.w3.org/Graphics/SVG/1.1/DTD/svg11.dtd">
<svg xmlns="http://www.w3.org/2000/svg" xml:space="preserve" width="1024px" height="1024px" shape-rendering="geometricPrecision" text-rendering="geometricPrecision" image-rendering="optimizeQuality" fill-rule="nonzero" clip-rule="evenodd" viewBox="0 0 10240 10240" xmlns:xlink="http://www.w3.org/1999/xlink">
	<title>smartcard icon</title>
	<desc>smartcard icon from the IconExperience.com O-Collection. Copyright by INCORS GmbH (www.incors.com).</desc>
	<path id="curve1" fill="#252525" d="M1280 1920l7680 0c353,0 640,287 640,640l0 5120c0,353 -287,640 -640,640l-7680 0c-353,0 -640,-287 -640,-640l0 -5120c0,-353 287,-640 640,-640zm-320 1280l0 3840 8320 0 0 -3840 -8320 0z"/>
	<path id="curve0" fill="#DE8D00" d="M1280,3840 3840,3840 3840,4480 2880,4480 2880,4800 3840,4800 3840,5440 2880,5440 2880,5760 3840,5760 3840,6400 1280,6400 1280,5760 2240,5760 2240,5440 1280,5440 1280,4800 2240,4800 2240,4480 1280,4486z"/>
</svg>
