<?xml version="1.0" encoding="UTF-8"?>
<!DOCTYPE svg PUBLIC "-//W3C//DTD SVG 1.1//EN" "http://www.w3.org/Graphics/SVG/1.1/DTD/svg11.dtd">
<svg xmlns="http://www.w3.org/2000/svg" xml:space="preserve" width="1024px" height="1024px" shape-rendering="geometricPrecision" text-rendering="geometricPrecision" image-rendering="optimizeQuality" fill-rule="nonzero" clip-rule="evenodd" viewBox="0 0 10240 10240" xmlns:xlink="http://www.w3.org/1999/xlink">
	<title>soap_dispenser icon</title>
	<desc>soap_dispenser icon from the IconExperience.com O-Collection. Copyright by INCORS GmbH (www.incors.com).</desc>
	<path id="curve2" fill="#DE8D00" d="M2880 5760l0 2560c0,175 145,320 320,320l3840 0c175,0 320,-145 320,-320l0 -2560 -4480 0z"/>
	<path id="curve1" fill="#252525" d="M3840 3200l640 0 0 640 -640 0c-704,0 -1280,576 -1280,1280l0 3200c0,352 288,640 640,640l3840 0c352,0 640,-288 640,-640l0 -3200c0,-704 -576,-1280 -1280,-1280l-640 0 0 -640 640 0c1058,0 1920,862 1920,1920l0 3200c0,705 -575,1280 -1280,1280l-3840 0c-705,0 -1280,-575 -1280,-1280l0 -3200c0,-1058 863,-1920 1920,-1920z"/>
	<path id="curve0" fill="#252525" d="M5440 2880l0 2560 -640 0 0 -2560 -960 0 0 -1600c0,-352 288,-640 640,-640l1280 0c353,0 640,288 640,640l640 0c176,0 336,72 452,188 116,115 188,276 188,452l0 320 -640 0 0 -320c0,0 0,0 0,0l0 0 0 0c0,0 0,0 0,0l-640 0 0 960 -960 0zm1600 -960l0 0 0 0c0,0 0,0 0,0 0,0 0,0 0,0z"/>
</svg>
