<?xml version="1.0" encoding="UTF-8"?>
<!DOCTYPE svg PUBLIC "-//W3C//DTD SVG 1.1//EN" "http://www.w3.org/Graphics/SVG/1.1/DTD/svg11.dtd">
<svg xmlns="http://www.w3.org/2000/svg" xml:space="preserve" width="1024px" height="1024px" shape-rendering="geometricPrecision" text-rendering="geometricPrecision" image-rendering="optimizeQuality" fill-rule="nonzero" clip-rule="evenodd" viewBox="0 0 10240 10240" xmlns:xlink="http://www.w3.org/1999/xlink">
	<title>spade icon</title>
	<desc>spade icon from the IconExperience.com O-Collection. Copyright by INCORS GmbH (www.incors.com).</desc>
	<path id="curve1" fill="#252525" d="M4311 8524c-755,756 -1847,928 -2793,593 -191,-68 -327,-204 -395,-395 -335,-946 -163,-2038 593,-2793l901 -901c126,-127 333,-127 459,0l2136 2136c127,126 127,333 0,459l-901 901z"/>
	<path id="curve0" fill="#DE8D00" d="M7906 734l1600 1600c125,125 125,327 0,452l-772 773c-183,182 -421,281 -679,281l-1202 0 -2256 2256 -453 -453 2256 -2256 0 -1202c0,-258 99,-496 281,-679l773 -772c125,-125 327,-125 452,0zm922 1826l-1148 -1148 -546 547c-67,67 -94,131 -94,226l0 1015 1015 0c95,0 159,-27 226,-94l547 -546z"/>
</svg>
