<?xml version="1.0" encoding="UTF-8"?>
<!DOCTYPE svg PUBLIC "-//W3C//DTD SVG 1.1//EN" "http://www.w3.org/Graphics/SVG/1.1/DTD/svg11.dtd">
<svg xmlns="http://www.w3.org/2000/svg" xml:space="preserve" width="1024px" height="1024px" shape-rendering="geometricPrecision" text-rendering="geometricPrecision" image-rendering="optimizeQuality" fill-rule="nonzero" clip-rule="evenodd" viewBox="0 0 10240 10240" xmlns:xlink="http://www.w3.org/1999/xlink">
	<title>sticky_note_text icon</title>
	<desc>sticky_note_text icon from the IconExperience.com O-Collection. Copyright by INCORS GmbH (www.incors.com).</desc>
	<path id="curve1" fill="#252525" d="M2560 1280c214,0 441,46 638,126l5393 2174c231,108 369,326 369,580l0 4160c0,352 -287,640 -640,640l-6400 0c-352,0 -640,-288 -640,-640l0 -6400c0,-353 288,-640 640,-640l640 0zm5086 2608l-2721 -1096c401,459 752,938 1027,1304l556 741 1138 -949zm-5726 -1968l0 6399 6399 1 1 -3818c0,-136 -158,-210 -262,-123l-1140 950c-283,235 -701,187 -922,-108l-556 -741c-557,-743 -1853,-2560 -2880,-2560l-640 0z"/>
	<path id="curve0" fill="#DE8D00" d="M6817 5747c-132,46 -275,61 -421,44 -53,-7 -105,-17 -155,-31l-1 0 -320 0c-88,0 -160,-72 -160,-160 0,-88 -72,-160 -160,-160 -88,0 -160,72 -160,160 0,88 -72,160 -160,160l-160 0 -160 0c-88,0 -160,72 -160,160l0 320c0,88 72,160 160,160 88,0 160,-72 160,-160 0,-88 72,-160 160,-160l960 0c88,0 160,72 160,160 0,88 72,160 160,160 88,0 160,-72 160,-160 0,-88 72,-160 160,-160 88,0 160,-72 160,-160 0,-88 -72,-160 -160,-160 -22,0 -43,-5 -63,-13zm-1537 -947l-96 -128 -58 -77c-4,14 -6,29 -6,45 0,88 72,160 160,160l0 0zm-812 -1060c-129,-158 -261,-314 -400,-466 -21,-23 -44,-48 -69,-74 -88,0 -159,-72 -159,-160l0 -5c-50,-51 -104,-103 -160,-155l0 0c-88,0 -160,72 -160,160 0,88 -72,160 -160,160l-320 0c-88,0 -160,-72 -160,-160 0,-88 -72,-160 -160,-160 -88,0 -160,72 -160,160l0 640c0,88 72,160 160,160 88,0 160,-72 160,-160 0,-88 72,-160 160,-160 88,0 160,72 160,160 0,88 72,160 160,160 88,0 160,-72 160,-160 0,-88 72,-160 160,-160l320 0c88,0 160,72 160,160 0,88 72,160 160,160 67,0 124,-41 148,-100zm1772 2980c88,0 160,72 160,160 0,88 72,160 160,160l960 0c88,0 160,72 160,160 0,88 -72,160 -160,160 -88,0 -160,72 -160,160 0,88 -72,160 -160,160 -88,0 -160,-72 -160,-160 0,-88 -72,-160 -160,-160 -88,0 -160,72 -160,160 0,88 -72,160 -160,160 -88,0 -160,-72 -160,-160 0,-88 -72,-160 -160,-160 -88,0 -160,-72 -160,-160l0 -320c0,-88 72,-160 160,-160zm-3520 -960l320 0c88,0 160,-72 160,-160 0,-88 72,-160 160,-160 88,0 160,72 160,160l0 320c0,88 72,160 160,160 88,0 160,72 160,160 0,88 -72,160 -160,160l-320 0c-88,0 -160,-72 -160,-160 0,-88 -72,-160 -160,-160l-320 0c-88,0 -160,-72 -160,-160 0,-88 72,-160 160,-160zm3040 1760c0,88 -72,160 -160,160 -88,0 -160,-72 -160,-160 0,-88 -72,-160 -160,-160 -88,0 -160,72 -160,160 0,88 -72,160 -160,160 -88,0 -160,-72 -160,-160 0,-88 -72,-160 -160,-160 -213,0 -427,0 -640,0 -88,0 -160,72 -160,160 0,88 -72,160 -160,160 -88,0 -160,-72 -160,-160l0 -640c0,-88 72,-160 160,-160 88,0 160,72 160,160 0,88 72,160 160,160 88,0 160,-72 160,-160 0,-88 72,-160 160,-160 88,0 160,72 160,160 0,88 72,160 160,160 320,0 640,0 960,0 88,0 160,72 160,160l0 320zm-2560 -320c0,88 -72,160 -160,160 -88,0 -160,72 -160,160 0,88 -72,160 -160,160 -88,0 -160,-72 -160,-160l0 -320c0,-88 72,-160 160,-160l320 0c88,0 160,72 160,160zm4320 -1440l320 0c88,0 160,72 160,160 0,88 -72,160 -160,160l-320 0c-88,0 -160,-72 -160,-160 0,-88 72,-160 160,-160zm-3200 0c88,0 160,72 160,160 0,88 -72,160 -160,160 -88,0 -160,-72 -160,-160 0,-88 72,-160 160,-160zm-1600 -1600c88,0 160,72 160,160 0,88 72,160 160,160l320 0c88,0 160,-72 160,-160 0,-88 72,-160 160,-160 88,0 160,72 160,160 0,88 72,160 160,160l640 0c88,0 160,72 160,160 0,88 -72,160 -160,160l-960 0c-88,0 -160,72 -160,160 0,88 -72,160 -160,160 -88,0 -160,-72 -160,-160 0,-88 -72,-160 -160,-160 -88,0 -160,72 -160,160 0,88 -72,160 -160,160 -88,0 -160,-72 -160,-160 0,-213 0,-427 0,-640 0,-88 72,-160 160,-160z"/>
</svg>
