<?xml version="1.0" encoding="UTF-8"?>
<!DOCTYPE svg PUBLIC "-//W3C//DTD SVG 1.1//EN" "http://www.w3.org/Graphics/SVG/1.1/DTD/svg11.dtd">
<svg xmlns="http://www.w3.org/2000/svg" xml:space="preserve" width="1024px" height="1024px" shape-rendering="geometricPrecision" text-rendering="geometricPrecision" image-rendering="optimizeQuality" fill-rule="nonzero" clip-rule="evenodd" viewBox="0 0 10240 10240" xmlns:xlink="http://www.w3.org/1999/xlink">
	<title>store icon</title>
	<desc>store icon from the IconExperience.com O-Collection. Copyright by INCORS GmbH (www.incors.com).</desc>
	<path id="curve2" fill="#252525" d="M6080 7360c0,177 143,320 320,320 177,0 320,-143 320,-320 0,-177 -143,-320 -320,-320 -177,0 -320,143 -320,320zm0 -1280l1280 0 0 2880 -1280 0 0 -2880z"/>
	<path id="curve1" fill="#DE8D00" d="M8909 2560l942 1193c47,59 69,123 69,198l0 209c0,530 -430,960 -960,960 -530,0 -960,-430 -960,-960l0 -248c0,-50 -10,-92 -31,-137l-575 -1215 1515 0zm-6063 0l-575 1215c-21,45 -31,87 -31,137l0 248c0,530 -430,960 -960,960 -530,0 -960,-430 -960,-960l0 -209c0,-75 22,-139 69,-198l942 -1193 1515 0zm3032 0l198 1255c3,18 4,33 4,50l0 295c0,530 -430,960 -960,960 -530,0 -960,-430 -960,-960l0 -295c0,-17 1,-32 4,-50l198 -1255 1516 0z"/>
	<path id="curve0" fill="#252525" d="M1600 1280l7040 0c176,0 320,150 320,334l0 626 -7680 4 0 -630c0,-184 144,-334 320,-334zm7360 4160c-382,0 -725,-168 -960,-433 -235,265 -578,433 -960,433 -382,0 -725,-168 -960,-433 -235,265 -578,433 -960,433 -382,0 -725,-168 -960,-433 -235,265 -578,433 -960,433 -382,0 -725,-168 -960,-433 -235,265 -578,433 -960,433l0 3520 4480 0 0 -3200 1920 0 0 3200 1280 0 0 -3520zm-6720 640l2560 0 0 1600 -2560 0 0 -1600z"/>
</svg>
