<?xml version="1.0" encoding="UTF-8"?>
<!DOCTYPE svg PUBLIC "-//W3C//DTD SVG 1.1//EN" "http://www.w3.org/Graphics/SVG/1.1/DTD/svg11.dtd">
<svg xmlns="http://www.w3.org/2000/svg" xml:space="preserve" width="1024px" height="1024px" shape-rendering="geometricPrecision" text-rendering="geometricPrecision" image-rendering="optimizeQuality" fill-rule="nonzero" clip-rule="evenodd" viewBox="0 0 10240 10240" xmlns:xlink="http://www.w3.org/1999/xlink">
	<title>submarine icon</title>
	<desc>submarine icon from the IconExperience.com O-Collection. Copyright by INCORS GmbH (www.incors.com).</desc>
	<path id="curve1" fill="#DE8D00" d="M3200 5120l320 -1280 640 0 0 -2240c0,-88 -36,-168 -94,-226 -58,-58 -138,-94 -226,-94l-640 0 0 -640 640 0c265,0 505,108 678,282 174,173 282,413 282,678l0 2240 640 0 320 1280 960 0c774,0 1420,550 1568,1280l75 0c-27,-94 -43,-203 -43,-320 0,-353 143,-640 320,-640 177,0 320,287 320,640 0,117 -16,226 -43,320l43 0c176,0 320,144 320,320 0,176 -144,320 -320,320l-43 0c27,94 43,203 43,320 0,353 -143,640 -320,640 -177,0 -320,-287 -320,-640 0,-117 16,-226 43,-320l-75 0c-148,730 -794,1280 -1568,1280l-3840 0c-884,0 -1600,-716 -1600,-1600 0,-884 716,-1600 1600,-1600l320 0zm2560 640c-353,0 -640,287 -640,640 0,353 287,640 640,640 353,0 640,-287 640,-640 0,-353 -287,-640 -640,-640zm-1920 0c-353,0 -640,287 -640,640 0,353 287,640 640,640 353,0 640,-287 640,-640 0,-353 -287,-640 -640,-640z"/>
	<path id="curve0" fill="#252525" d="M1760 1893c218,394 638,660 1120,660 382,0 725,-168 960,-433l0 816c-287,165 -616,257 -960,257 -410,0 -799,-130 -1120,-360 -321,230 -710,360 -1120,360l0 -640c482,0 902,-266 1120,-660zm3360 667c483,-1 904,-270 1120,-666 219,393 638,659 1120,659 482,0 902,-266 1120,-660 218,394 638,660 1120,660l0 640c-410,0 -799,-130 -1120,-360 -321,230 -710,360 -1120,360 -408,0 -797,-129 -1117,-358 -321,233 -712,364 -1123,365l0 -640z"/>
</svg>
