<?xml version="1.0" encoding="UTF-8"?>
<!DOCTYPE svg PUBLIC "-//W3C//DTD SVG 1.1//EN" "http://www.w3.org/Graphics/SVG/1.1/DTD/svg11.dtd">
<svg xmlns="http://www.w3.org/2000/svg" xml:space="preserve" width="1024px" height="1024px" shape-rendering="geometricPrecision" text-rendering="geometricPrecision" image-rendering="optimizeQuality" fill-rule="nonzero" clip-rule="evenodd" viewBox="0 0 10240 10240" xmlns:xlink="http://www.w3.org/1999/xlink">
	<title>sum icon</title>
	<desc>sum icon from the IconExperience.com O-Collection. Copyright by INCORS GmbH (www.incors.com).</desc>
	<path id="curve0" fill="#252525" d="M3728 8000l3632 0 0 -960 1280 0 0 1920c0,353 -287,640 -640,640l-5760 -1c-130,0 -262,-39 -375,-121 -286,-208 -350,-607 -143,-893l2288 -3145 -2286 -3146c-76,-105 -122,-234 -122,-374 0,-352 286,-637 638,-637l5120 -3c353,0 640,287 640,640l0 1280 -1280 0 0 -643 -3226 1 1823 2507c170,234 158,543 -8,761l-1581 2174z"/>
</svg>
