<?xml version="1.0" encoding="UTF-8"?>
<!DOCTYPE svg PUBLIC "-//W3C//DTD SVG 1.1//EN" "http://www.w3.org/Graphics/SVG/1.1/DTD/svg11.dtd">
<svg xmlns="http://www.w3.org/2000/svg" xml:space="preserve" width="1024px" height="1024px" shape-rendering="geometricPrecision" text-rendering="geometricPrecision" image-rendering="optimizeQuality" fill-rule="nonzero" clip-rule="evenodd" viewBox="0 0 10240 10240" xmlns:xlink="http://www.w3.org/1999/xlink">
	<title>symbol_hash icon</title>
	<desc>symbol_hash icon from the IconExperience.com O-Collection. Copyright by INCORS GmbH (www.incors.com).</desc>
	<path id="curve0" fill="#252525" d="M8179 1280l-400 1600 1101 0 -320 1280 -1101 0 -480 1920 1101 0 -320 1280 -1101 0 -400 1600 -1318 0 400 -1600 -1562 0 -400 1600 -1318 0 400 -1600 -1101 0 320 -1280 1101 0 480 -1920 -1101 0 320 -1280 1101 0 400 -1600 1318 0 -400 1600 1562 0 400 -1600 1318 0zm-2518 4800l480 -1920 -1562 0 -480 1920 1562 0z"/>
</svg>
