<?xml version="1.0" encoding="UTF-8"?>
<!DOCTYPE svg PUBLIC "-//W3C//DTD SVG 1.1//EN" "http://www.w3.org/Graphics/SVG/1.1/DTD/svg11.dtd">
<svg xmlns="http://www.w3.org/2000/svg" xml:space="preserve" width="1024px" height="1024px" shape-rendering="geometricPrecision" text-rendering="geometricPrecision" image-rendering="optimizeQuality" fill-rule="nonzero" clip-rule="evenodd" viewBox="0 0 10240 10240" xmlns:xlink="http://www.w3.org/1999/xlink">
	<title>teddy_bear icon</title>
	<desc>teddy_bear icon from the IconExperience.com O-Collection. Copyright by INCORS GmbH (www.incors.com).</desc>
	<path id="curve3" fill="#252525" d="M6154 7485l-444 1008c-137,316 -88,673 220,931 308,259 843,240 1127,-98l720 -858c341,-406 288,-1012 -118,-1353 -500,-419 -1261,-224 -1505,370zm-2049 0l444 1008c137,316 88,673 -220,931 -308,259 -843,240 -1127,-98l-720 -858c-341,-406 -288,-1012 119,-1353 499,-419 1260,-224 1504,370z"/>
	<path id="curve2" fill="#252525" d="M7543 4212l886 322c414,151 629,611 478,1025l0 0c-151,414 -611,629 -1025,479l-954 -348c151,266 246,569 267,892 -543,-63 -1106,225 -1335,777l-443 1005c-62,141 -94,285 -99,427 -65,6 -131,9 -198,9 -60,0 -120,-3 -179,-8 -4,-142 -37,-286 -99,-428l-442 -1005c-233,-559 -807,-847 -1356,-775 21,-324 116,-627 268,-894l-954 348c-414,150 -874,-65 -1025,-479l0 0c-151,-414 64,-874 478,-1025l886 -322c244,-89 503,-28 683,160 437,461 1055,748 1740,748 685,0 1303,-287 1740,-748 180,-188 439,-249 683,-160z"/>
	<path id="curve1" fill="#DE8D00" d="M5506 3827c80,36 116,131 80,211 -37,81 -131,116 -212,80l-254 -115 -254 115c-81,36 -175,1 -212,-80 -36,-80 0,-175 80,-211l226 -102 0 -290 -194 -104c-75,-40 -126,-99 -126,-211 0,-112 107,-240 240,-240 80,0 160,0 240,0 80,0 160,0 240,0 133,0 240,128 240,240 0,112 -51,171 -126,211l-194 104 0 290 226 102z"/>
	<path id="curve0" fill="#252525" d="M5120 640c349,0 678,86 967,238 169,-148 391,-238 633,-238 530,0 960,430 960,960 0,363 -201,679 -499,842 13,91 19,184 19,278 0,1149 -931,2080 -2080,2080 -1149,0 -2080,-931 -2080,-2080 0,-94 6,-187 19,-278 -298,-163 -499,-479 -499,-842 0,-530 430,-960 960,-960 242,0 464,90 633,238 289,-152 618,-238 967,-238zm0 1920c-530,0 -960,430 -960,960 0,530 430,960 960,960 530,0 960,-430 960,-960 0,-530 -430,-960 -960,-960z"/>
</svg>
