<?xml version="1.0" encoding="UTF-8"?>
<!DOCTYPE svg PUBLIC "-//W3C//DTD SVG 1.1//EN" "http://www.w3.org/Graphics/SVG/1.1/DTD/svg11.dtd">
<svg xmlns="http://www.w3.org/2000/svg" xml:space="preserve" width="1024px" height="1024px" shape-rendering="geometricPrecision" text-rendering="geometricPrecision" image-rendering="optimizeQuality" fill-rule="nonzero" clip-rule="evenodd" viewBox="0 0 10240 10240" xmlns:xlink="http://www.w3.org/1999/xlink">
	<title>telephone icon</title>
	<desc>telephone icon from the IconExperience.com O-Collection. Copyright by INCORS GmbH (www.incors.com).</desc>
	<path id="curve1" fill="#252525" d="M3731 1280l4909 0c529,0 960,431 960,960l0 5760c0,529 -431,960 -960,960l-4909 0c269,-232 429,-584 429,-959l0 -813c0,-302 -104,-595 -300,-825 -87,-103 -127,-211 -127,-345l0 -1796c0,-134 40,-242 127,-345 196,-230 300,-523 300,-825l0 -813c0,-375 -160,-727 -429,-959zm1389 1280c-176,0 -320,144 -320,320l0 640c0,176 144,320 320,320l3520 0c176,0 320,-144 320,-320l0 -640c0,-176 -144,-320 -320,-320l-3520 0zm320 1920c-176,0 -320,144 -320,320l0 320c0,176 144,320 320,320l320 0c176,0 320,-144 320,-320l0 -320c0,-176 -144,-320 -320,-320l-320 0zm2560 2560c-176,0 -320,144 -320,320l0 320c0,176 144,320 320,320l320 0c176,0 320,-144 320,-320l0 -320c0,-176 -144,-320 -320,-320l-320 0zm-1280 0c-176,0 -320,144 -320,320l0 320c0,176 144,320 320,320l320 0c176,0 320,-144 320,-320l0 -320c0,-176 -144,-320 -320,-320l-320 0zm-1280 0c-176,0 -320,144 -320,320l0 320c0,176 144,320 320,320l320 0c176,0 320,-144 320,-320l0 -320c0,-176 -144,-320 -320,-320l-320 0zm2560 -1280c-176,0 -320,144 -320,320l0 320c0,176 144,320 320,320l320 0c176,0 320,-144 320,-320l0 -320c0,-176 -144,-320 -320,-320l-320 0zm-1280 0c-176,0 -320,144 -320,320l0 320c0,176 144,320 320,320l320 0c176,0 320,-144 320,-320l0 -320c0,-176 -144,-320 -320,-320l-320 0zm-1280 0c-176,0 -320,144 -320,320l0 320c0,176 144,320 320,320l320 0c176,0 320,-144 320,-320l0 -320c0,-176 -144,-320 -320,-320l-320 0zm2560 -1280c-176,0 -320,144 -320,320l0 320c0,176 144,320 320,320l320 0c176,0 320,-144 320,-320l0 -320c0,-176 -144,-320 -320,-320l-320 0zm-1280 0c-176,0 -320,144 -320,320l0 320c0,176 144,320 320,320l320 0c176,0 320,-144 320,-320l0 -320c0,-176 -144,-320 -320,-320l-320 0z"/>
	<path id="curve0" fill="#DE8D00" d="M3617 3670c138,-163 223,-380 223,-618l0 -813c0,-447 -291,-821 -700,-902 -195,-38 -388,-57 -582,-57 -192,0 -385,19 -578,57 -409,81 -700,455 -700,902l0 813c0,238 85,455 223,618 137,160 204,342 204,552l0 1796c0,210 -67,392 -204,552 -138,163 -223,380 -223,618l0 813c0,447 291,821 700,902 388,76 772,76 1160,0 409,-81 700,-455 700,-902l0 -813c0,-238 -85,-455 -223,-618 -137,-160 -204,-342 -204,-552l0 -1796c0,-210 67,-392 204,-552z"/>
</svg>
