<?xml version="1.0" encoding="UTF-8"?>
<!DOCTYPE svg PUBLIC "-//W3C//DTD SVG 1.1//EN" "http://www.w3.org/Graphics/SVG/1.1/DTD/svg11.dtd">
<svg xmlns="http://www.w3.org/2000/svg" xml:space="preserve" width="1024px" height="1024px" shape-rendering="geometricPrecision" text-rendering="geometricPrecision" image-rendering="optimizeQuality" fill-rule="nonzero" clip-rule="evenodd" viewBox="0 0 10240 10240" xmlns:xlink="http://www.w3.org/1999/xlink">
	<title>text_binary icon</title>
	<desc>text_binary icon from the IconExperience.com O-Collection. Copyright by INCORS GmbH (www.incors.com).</desc>
	<path id="curve1" fill="#252525" d="M7040 2240l640 0 0 640 -640 0 0 -640zm-4480 5120l960 0 0 640 -960 0 0 -640zm1280 0l320 0 0 640 -320 0 0 -640zm960 0l640 0 0 640 -640 0 0 -640zm960 0l320 0 0 640 -320 0 0 -640zm960 0l960 0 0 640 -960 0 0 -640zm-4160 -1280l640 0 0 640 -640 0 0 -640zm960 0l960 0 0 640 -960 0 0 -640zm1600 0l640 0 0 640 -640 0 0 -640zm1280 0l320 0 0 640 -320 0 0 -640zm640 0l640 0 0 640 -640 0 0 -640zm-4480 -1280l320 0 0 640 -320 0 0 -640zm1280 0l640 0 0 640 -640 0 0 -640zm960 0l960 0 0 640 -960 0 0 -640zm1280 0l640 0 0 640 -640 0 0 -640zm960 0l640 0 0 640 -640 0 0 -640zm-4480 -1280l960 0 0 640 -960 0 0 -640zm1280 0l320 0 0 640 -320 0 0 -640zm960 0l640 0 0 640 -640 0 0 -640zm1280 0l320 0 0 640 -320 0 0 -640zm640 0l960 0 0 640 -960 0 0 -640zm-4160 -1280l640 0 0 640 -640 0 0 -640zm1280 0l640 0 0 640 -640 0 0 -640zm960 0l960 0 0 640 -960 0 0 -640zm1280 0l320 0 0 640 -320 0 0 -640z"/>
	<path id="curve0" fill="#252525" d="M1280 640l7680 0 0 8960 -7680 0 0 -8960zm640 640l0 7680 6400 0 0 -7680 -6400 0z"/>
</svg>
