<?xml version="1.0" encoding="UTF-8"?>
<!DOCTYPE svg PUBLIC "-//W3C//DTD SVG 1.1//EN" "http://www.w3.org/Graphics/SVG/1.1/DTD/svg11.dtd">
<svg xmlns="http://www.w3.org/2000/svg" xml:space="preserve" width="1024px" height="1024px" shape-rendering="geometricPrecision" text-rendering="geometricPrecision" image-rendering="optimizeQuality" fill-rule="nonzero" clip-rule="evenodd" viewBox="0 0 10240 10240" xmlns:xlink="http://www.w3.org/1999/xlink">
	<title>ticket icon</title>
	<desc>ticket icon from the IconExperience.com O-Collection. Copyright by INCORS GmbH (www.incors.com).</desc>
	<path id="curve2" fill="#252525" d="M1280 1920c2453,0 5227,0 7680,0 0,530 430,960 960,960l0 640c-177,0 -320,143 -320,320 0,177 143,320 320,320l0 640c-177,0 -320,143 -320,320 0,177 143,320 320,320l0 640c-177,0 -320,143 -320,320 0,177 143,320 320,320l0 640c-530,0 -960,430 -960,960 -2453,0 -5227,0 -7680,0 0,-530 -430,-960 -960,-960l0 -640c177,0 320,-143 320,-320 0,-177 -143,-320 -320,-320l0 -640c177,0 320,-143 320,-320 0,-177 -143,-320 -320,-320l0 -640c177,0 320,-143 320,-320 0,-177 -143,-320 -320,-320l0 -640c530,0 960,-430 960,-960zm507 640c-138,315 -374,576 -669,747 242,361 208,848 -83,1173 325,362 325,918 0,1280 291,325 325,812 83,1173 295,171 531,432 669,747 2222,0 4444,0 6666,0 138,-315 374,-576 669,-747 -242,-361 -208,-848 83,-1173 -325,-362 -325,-918 0,-1280 -291,-325 -325,-812 -83,-1173 -295,-171 -531,-432 -669,-747 -2222,0 -4444,0 -6666,0z"/>
	<path id="curve1" fill="#DE8D00" d="M2560,6400 7680,6400 7680,7040 2560,7040z"/>
	<path id="curve0" fill="#DE8D00" d="M2560,3200 7680,3200 7680,3840 2560,3840z"/>
</svg>
