<?xml version="1.0" encoding="UTF-8"?>
<!DOCTYPE svg PUBLIC "-//W3C//DTD SVG 1.1//EN" "http://www.w3.org/Graphics/SVG/1.1/DTD/svg11.dtd">
<svg xmlns="http://www.w3.org/2000/svg" xml:space="preserve" width="1024px" height="1024px" shape-rendering="geometricPrecision" text-rendering="geometricPrecision" image-rendering="optimizeQuality" fill-rule="nonzero" clip-rule="evenodd" viewBox="0 0 10240 10240" xmlns:xlink="http://www.w3.org/1999/xlink">
	<title>trojan_horse icon</title>
	<desc>trojan_horse icon from the IconExperience.com O-Collection. Copyright by INCORS GmbH (www.incors.com).</desc>
	<path id="curve1" fill="#252525" d="M8952 8366c353,0 640,287 640,640 0,354 -287,640 -640,640 -354,0 -640,-286 -640,-640 0,-353 286,-640 640,-640zm-5760 0c353,0 640,287 640,640 0,354 -287,640 -640,640 -354,0 -640,-286 -640,-640 0,-353 286,-640 640,-640zm1920 0c353,0 640,287 640,640 0,354 -287,640 -640,640 -354,0 -640,-286 -640,-640 0,-353 286,-640 640,-640zm1920 0c353,0 640,287 640,640 0,354 -287,640 -640,640 -354,0 -640,-286 -640,-640 0,-353 286,-640 640,-640z"/>
	<path id="curve0" fill="#DE8D00" d="M1280 4800l-320 -2560 640 -640 -320 -640 1600 -320 1280 320 960 960 320 960 640 320 1280 0 1280 320 640 960 320 1280 0 1920 320 0 0 640 -245 0c-175,-196 -431,-320 -715,-320 -284,0 -540,124 -715,320l-490 0c-175,-196 -431,-320 -715,-320 -284,0 -540,124 -715,320l-490 0c-175,-196 -431,-320 -715,-320 -284,0 -540,124 -715,320l-490 0c-175,-196 -431,-320 -715,-320 -284,0 -540,124 -715,320l-245 0 0 -640 640 0 320 -640 0 -1600 -320 -1600 -320 320 -320 960 -640 0 -320 -320zm6080 2880l320 -640 0 -640 -640 -640 -1920 640 0 1280 2240 0z"/>
</svg>
