<?xml version="1.0" encoding="UTF-8"?>
<!DOCTYPE svg PUBLIC "-//W3C//DTD SVG 1.1//EN" "http://www.w3.org/Graphics/SVG/1.1/DTD/svg11.dtd">
<svg xmlns="http://www.w3.org/2000/svg" xml:space="preserve" width="1024px" height="1024px" shape-rendering="geometricPrecision" text-rendering="geometricPrecision" image-rendering="optimizeQuality" fill-rule="nonzero" clip-rule="evenodd" viewBox="0 0 10240 10240" xmlns:xlink="http://www.w3.org/1999/xlink">
	<title>truck icon</title>
	<desc>truck icon from the IconExperience.com O-Collection. Copyright by INCORS GmbH (www.incors.com).</desc>
	<path id="curve3" fill="#252525" d="M6400 8875l0 405c0,176 144,320 320,320l960 0c176,0 320,-144 320,-320l0 -726c-94,55 -204,86 -320,86l-1015 0 -132 133c-41,40 -85,74 -133,102zm-2560 0l0 405c0,176 -144,320 -320,320l-960 0c-176,0 -320,-144 -320,-320l0 -726c94,55 204,86 320,86l1015 0 132 133c41,40 85,74 133,102z"/>
	<path id="curve2" fill="#252525" d="M8000 7040l0 960c0,176 -144,320 -320,320l-1015 0c-88,0 -164,31 -226,94l-133 132c-62,63 -138,94 -226,94l-1920 0c-88,0 -164,-31 -226,-94l-133 -132c-62,-63 -138,-94 -226,-94l-1015 0c-176,0 -320,-144 -320,-320l0 -960 5760 0zm-1214 320c-88,0 -164,31 -226,94l-273 273c-47,47 -60,113 -35,174 25,61 82,99 148,99l960 0c176,0 320,-144 320,-320l0 0c0,-176 -144,-320 -320,-320l-574 0zm-3906 0c-176,0 -320,144 -320,320l0 0c0,176 144,320 320,320l960 0c66,0 123,-38 148,-99 25,-61 12,-127 -35,-174l-273 -273c-62,-63 -138,-94 -226,-94l-574 0z"/>
	<path id="curve1" fill="#252525" d="M2880 2560l4480 0c353,0 640,288 640,640l0 3520 -5760 0 0 -3520c0,-353 288,-640 640,-640zm320 640c-353,0 -640,287 -640,640l0 960c0,176 144,320 320,320l4480 0c176,0 320,-144 320,-320l0 -960c0,-352 -287,-640 -640,-640l-3840 0z"/>
	<path id="curve0" fill="#DE8D00" d="M1600 640l7040 0c176,0 320,144 320,320l0 5760c0,176 -144,320 -320,320l-320 0 0 -3840c0,-529 -431,-960 -960,-960l-4480 0c-529,0 -960,431 -960,960l0 3840 -320 0c-176,0 -320,-144 -320,-320l0 -5760c0,-176 144,-320 320,-320z"/>
</svg>
