<?xml version="1.0" encoding="UTF-8"?>
<!DOCTYPE svg PUBLIC "-//W3C//DTD SVG 1.1//EN" "http://www.w3.org/Graphics/SVG/1.1/DTD/svg11.dtd">
<svg xmlns="http://www.w3.org/2000/svg" xml:space="preserve" width="1024px" height="1024px" shape-rendering="geometricPrecision" text-rendering="geometricPrecision" image-rendering="optimizeQuality" fill-rule="nonzero" clip-rule="evenodd" viewBox="0 0 10240 10240" xmlns:xlink="http://www.w3.org/1999/xlink">
	<title>umbrella_closed icon</title>
	<desc>umbrella_closed icon from the IconExperience.com O-Collection. Copyright by INCORS GmbH (www.incors.com).</desc>
	<path id="curve2" fill="#252525" d="M6080 8640c0,-177 143,-320 320,-320 177,0 320,143 320,320 0,530 -430,960 -960,960 -530,0 -960,-430 -960,-960l0 -640 640 0 0 640c0,177 143,320 320,320 177,0 320,-143 320,-320z"/>
	<path id="curve1" fill="#DE8D00" d="M5440 1600c615,307 934,3863 391,5845 -38,141 -162,235 -308,235l-806 0c-146,0 -270,-94 -308,-235 -543,-1982 -224,-5538 391,-5845l0 -10 640 0 0 10z"/>
	<path id="curve0" fill="#252525" d="M4800 1280c0,-177 143,-320 320,-320 177,0 320,143 320,320l0 320 -640 0 0 -320z"/>
</svg>
