<?xml version="1.0" encoding="UTF-8"?>
<!DOCTYPE svg PUBLIC "-//W3C//DTD SVG 1.1//EN" "http://www.w3.org/Graphics/SVG/1.1/DTD/svg11.dtd">
<svg xmlns="http://www.w3.org/2000/svg" xml:space="preserve" width="1024px" height="1024px" shape-rendering="geometricPrecision" text-rendering="geometricPrecision" image-rendering="optimizeQuality" fill-rule="nonzero" clip-rule="evenodd" viewBox="0 0 10240 10240" xmlns:xlink="http://www.w3.org/1999/xlink">
	<title>uninstall icon</title>
	<desc>uninstall icon from the IconExperience.com O-Collection. Copyright by INCORS GmbH (www.incors.com).</desc>
	<path id="curve2" fill="#252525" d="M2560 1280l5120 0c353,0 640,288 640,640l0 3840c0,352 -288,640 -640,640l-1600 0 0 320c0,176 144,320 320,320l160 0c88,0 160,72 160,160l0 160 -3200 0 0 -160c0,-88 72,-160 160,-160l160 0c176,0 320,-144 320,-320l0 -320 -1600 0c-352,0 -640,-287 -640,-640l0 -106c137,72 290,107 452,106l838 1c8,0 16,-1 24,-1l4446 0 0 -3840 -5120 0 0 0 -188 0c-163,0 -316,41 -452,116l0 -116c0,-352 288,-640 640,-640z"/>
	<path id="curve1" fill="#252525" d="M2505 7680l5230 0c176,0 328,63 452,187l999 999c63,63 94,138 94,227l0 187c0,176 -144,320 -320,320l-7680 0c-176,0 -320,-144 -320,-320l0 -187c0,-89 31,-164 94,-227l999 -999c124,-124 276,-187 452,-187zm695 320l-640 0c-88,0 -160,72 -160,160 0,88 72,160 160,160l640 0c88,0 160,-72 160,-160 0,-88 -72,-160 -160,-160zm4480 0l-960 0c-88,0 -160,72 -160,160 0,88 72,160 160,160l960 0c88,0 160,-72 160,-160 0,-88 -72,-160 -160,-160zm-1600 0l-320 0c-88,0 -160,72 -160,160 0,88 72,160 160,160l320 0c88,0 160,-72 160,-160 0,-88 -72,-160 -160,-160zm-960 0l-320 0c-88,0 -160,72 -160,160 0,88 72,160 160,160l320 0c88,0 160,-72 160,-160 0,-88 -72,-160 -160,-160zm3200 640l-640 0c-88,0 -160,72 -160,160 0,88 72,160 160,160l640 0c88,0 160,-72 160,-160 0,-88 -72,-160 -160,-160zm-1280 0c-1280,0 -2560,0 -3840,0 -88,0 -160,72 -160,160 0,88 72,160 160,160l3840 0c88,0 160,-72 160,-160 0,-88 -72,-160 -160,-160zm-4480 0l-640 0c-88,0 -160,72 -160,160 0,88 72,160 160,160l640 0c88,0 160,-72 160,-160 0,-88 -72,-160 -160,-160zm1600 -640l-320 0c-88,0 -160,72 -160,160 0,88 72,160 160,160l320 0c88,0 160,-72 160,-160 0,-88 -72,-160 -160,-160z"/>
	<path id="curve0" fill="#DE8D00" d="M1919 5260l-1186 -1186c-124,-125 -124,-328 0,-453l1186 -1186c125,-124 277,-195 453,-195l839 1c65,0 122,37 147,98 26,61 12,128 -34,175l-687 685 1683 5c88,1 160,73 160,160l0 956c0,88 -72,160 -160,160l-1683 -1 687 688c46,47 60,114 34,175 -25,61 -81,98 -147,99l-839 -1c-176,1 -328,-55 -453,-180z"/>
</svg>
