<?xml version="1.0" encoding="UTF-8"?>
<!DOCTYPE svg PUBLIC "-//W3C//DTD SVG 1.1//EN" "http://www.w3.org/Graphics/SVG/1.1/DTD/svg11.dtd">
<svg xmlns="http://www.w3.org/2000/svg" xml:space="preserve" width="1024px" height="1024px" shape-rendering="geometricPrecision" text-rendering="geometricPrecision" image-rendering="optimizeQuality" fill-rule="nonzero" clip-rule="evenodd" viewBox="0 0 10240 10240" xmlns:xlink="http://www.w3.org/1999/xlink">
	<title>user_telephone icon</title>
	<desc>user_telephone icon from the IconExperience.com O-Collection. Copyright by INCORS GmbH (www.incors.com).</desc>
	<path id="curve2" fill="#DE8D00" d="M3444 7821l170 -160c203,-190 518,-223 701,-74l997 813c184,149 168,425 -35,615l-184 172c-508,476 -1278,545 -1751,184 -1318,-1003 -2260,-2402 -2670,-3962 -147,-560 238,-1200 902,-1444l241 -88c265,-97 535,4 601,225l361 1203c66,221 -96,480 -361,577l-223 82c-121,44 -200,154 -188,261 78,686 491,1298 1112,1651 97,54 235,31 327,-55z"/>
	<path id="curve1" fill="#252525" d="M8960 7956c0,720 -1728,1004 -2880,1004 -121,0 -247,-3 -378,-10 112,-273 68,-590 -187,-798l-998 -813c-329,-268 -824,-190 -1121,88l-158 149c-9,-5 -17,-10 -25,-15 85,-1223 591,-1579 1463,-2220 403,265 885,419 1404,419 519,0 1001,-154 1404,-419 961,706 1476,1064 1476,2615z"/>
	<path id="curve0" fill="#252525" d="M6080 960c1237,0 2240,1003 2240,2240 0,1237 -1003,2240 -2240,2240 -1237,0 -2240,-1003 -2240,-2240 0,-1237 1003,-2240 2240,-2240z"/>
</svg>
