<?xml version="1.0" encoding="UTF-8"?>
<!DOCTYPE svg PUBLIC "-//W3C//DTD SVG 1.1//EN" "http://www.w3.org/Graphics/SVG/1.1/DTD/svg11.dtd">
<svg xmlns="http://www.w3.org/2000/svg" xml:space="preserve" width="1024px" height="1024px" shape-rendering="geometricPrecision" text-rendering="geometricPrecision" image-rendering="optimizeQuality" fill-rule="nonzero" clip-rule="evenodd" viewBox="0 0 10240 10240" xmlns:xlink="http://www.w3.org/1999/xlink">
	<title>vector_triangle icon</title>
	<desc>vector_triangle icon from the IconExperience.com O-Collection. Copyright by INCORS GmbH (www.incors.com).</desc>
	<path id="curve5" fill="#252525" d="M8012,7360 5324,2880 6068,2880 8756,7360z"/>
	<path id="curve4" fill="#252525" d="M8000,8642 2240,8642 2240,8002 8000,8002z"/>
	<path id="curve3" fill="#252525" d="M1484,7360 4172,2880 4916,2880 2228,7360z"/>
	<path id="curve2" fill="#DE8D00" d="M8320 7680l1280 0 0 1280 -1280 0 0 -1280zm320 320l0 640 640 0 0 -640 -640 0z"/>
	<path id="curve1" fill="#DE8D00" d="M640 7680l1280 0 0 1280 -1280 0 0 -1280zm320 320l0 640 640 0 0 -640 -640 0z"/>
	<path id="curve0" fill="#DE8D00" d="M4480 1280l1280 0 0 1280 -1280 0 0 -1280zm320 320l0 640 640 0 0 -640 -640 0z"/>
</svg>
