<?xml version="1.0" encoding="UTF-8"?>
<!DOCTYPE svg PUBLIC "-//W3C//DTD SVG 1.1//EN" "http://www.w3.org/Graphics/SVG/1.1/DTD/svg11.dtd">
<svg xmlns="http://www.w3.org/2000/svg" xml:space="preserve" width="1024px" height="1024px" shape-rendering="geometricPrecision" text-rendering="geometricPrecision" image-rendering="optimizeQuality" fill-rule="nonzero" clip-rule="evenodd" viewBox="0 0 10240 10240" xmlns:xlink="http://www.w3.org/1999/xlink">
	<title>windmill icon</title>
	<desc>windmill icon from the IconExperience.com O-Collection. Copyright by INCORS GmbH (www.incors.com).</desc>
	<path id="curve2" fill="#252525" d="M1280 8320c0,-237 32,-486 83,-744l877 877 2560 -2560 2880 2880 1197 -1197c51,258 83,507 83,744l0 1280 -7680 0 0 -1280zm499 -2232c234,-750 461,-1521 461,-2248 0,-342 76,-656 209,-939l1258 1259 -1928 1928zm2138 -4543c395,-173 814,-265 1203,-265 539,0 1135,156 1645,463l-1325 1324 -1523 -1522zm4040 1831c28,147 43,302 43,464 0,1028 455,2144 738,3166l-2205 -2206 1424 -1424z"/>
	<path id="curve1" fill="#DE8D00" d="M5120 4160c177,0 320,143 320,320 0,177 -143,320 -320,320 -177,0 -320,-143 -320,-320 0,-177 143,-320 320,-320z"/>
	<path id="curve0" fill="#DE8D00" d="M3840 4480l527 527 202 -202c111,189 316,315 551,315l-2880 2880 -960 -960 2560 -2560zm-2240 -2880l960 -960 2560 2560 -527 527 202 201c-188,112 -315,317 -315,552l-2880 -2880zm6400 -640l960 960 -2560 2560 -527 -527 -202 202c-111,-188 -316,-315 -551,-315l2880 -2880zm640 6400l-960 960 -2560 -2560 527 -527 -202 -202c188,-111 315,-316 315,-551l2880 2880z"/>
</svg>
