<?xml version="1.0" encoding="UTF-8"?>
<!DOCTYPE svg PUBLIC "-//W3C//DTD SVG 1.1//EN" "http://www.w3.org/Graphics/SVG/1.1/DTD/svg11.dtd">
<svg xmlns="http://www.w3.org/2000/svg" xml:space="preserve" width="1024px" height="1024px" shape-rendering="geometricPrecision" text-rendering="geometricPrecision" image-rendering="optimizeQuality" fill-rule="nonzero" clip-rule="evenodd" viewBox="0 0 10240 10240" xmlns:xlink="http://www.w3.org/1999/xlink">
	<title>window_environment icon</title>
	<desc>window_environment icon from the IconExperience.com O-Collection. Copyright by INCORS GmbH (www.incors.com).</desc>
	<path id="curve1" fill="#252525" d="M5120 3520c1237,0 2240,1003 2240,2240 0,1237 -1003,2240 -2240,2240 -1237,0 -2240,-1003 -2240,-2240 0,-1237 1003,-2240 2240,-2240zm527 729c36,75 66,152 92,231l341 0c-130,-98 -276,-177 -433,-231zm178 551c51,238 84,510 93,800l794 0c-30,-298 -141,-573 -312,-800l-575 0zm93 1120c-9,290 -42,562 -93,800l575 0c171,-227 282,-502 312,-800l-794 0zm-179 1120c-26,79 -56,156 -92,231 157,-54 303,-133 433,-231l-341 0zm-1146 231c-36,-75 -66,-152 -92,-231l-341 0c130,98 276,177 433,231zm-178 -551c-51,-238 -84,-510 -93,-800l-794 0c30,298 141,573 312,800l575 0zm-93 -1120c9,-290 42,-562 93,-800l-575 0c-171,227 -282,502 -312,800l794 0zm179 -1120c26,-79 56,-156 92,-231 -157,54 -303,133 -433,231l341 0zm899 0c-59,-150 -122,-261 -186,-317 -31,-2 -62,-3 -94,-3 -32,0 -63,1 -94,3 -64,56 -127,167 -186,317l560 0zm-658 320c-54,232 -90,505 -99,800l954 0c-9,-295 -45,-568 -99,-800l-756 0zm-99 1120c9,295 45,568 99,800l756 0c54,-232 90,-505 99,-800l-954 0zm197 1120c59,150 122,261 186,317 31,2 62,3 94,3 32,0 63,-1 94,-3 64,-56 127,-167 186,-317l-560 0z"/>
	<path id="curve0" fill="#252525" d="M1280 1280l7680 0c353,0 640,288 640,640l0 6720c0,176 -144,320 -320,320l-8320 0c-176,0 -320,-144 -320,-320l0 -6720c0,-353 288,-640 640,-640zm0 1920l0 5120 7680 0 0 -5120 -7680 0z"/>
</svg>
