<?xml version="1.0" encoding="UTF-8"?>
<!DOCTYPE svg PUBLIC "-//W3C//DTD SVG 1.1//EN" "http://www.w3.org/Graphics/SVG/1.1/DTD/svg11.dtd">
<svg xmlns="http://www.w3.org/2000/svg" xml:space="preserve" width="1024px" height="1024px" shape-rendering="geometricPrecision" text-rendering="geometricPrecision" image-rendering="optimizeQuality" fill-rule="nonzero" clip-rule="evenodd" viewBox="0 0 10240 10240" xmlns:xlink="http://www.w3.org/1999/xlink">
	<title>wlan_router icon</title>
	<desc>wlan_router icon from the IconExperience.com O-Collection. Copyright by INCORS GmbH (www.incors.com).</desc>
	<path id="curve2" fill="#DE8D00" d="M7680,6400 8960,6400 8960,7040 7680,7040z"/>
	<path id="curve1" fill="#252525" d="M3200 5120l640 0 0 1280 320 0 0 -1280 320 0 0 1280 320 0 0 -1280 320 0 0 1280 320 0 0 -1280 3520 0c353,0 640,288 640,640l0 2560c0,353 -287,640 -640,640l-5760 0c-353,0 -640,-287 -640,-640l0 -2560c0,-353 287,-640 640,-640zm4480 960c-176,0 -320,144 -320,320l0 640c0,176 144,320 320,320l1280 0c176,0 320,-144 320,-320l0 -640c0,-176 -144,-320 -320,-320l-1280 0z"/>
	<path id="curve0" fill="#252525" d="M1600 1600l0 3520 320 1280 0 1280 320 0 0 640 -640 0 -640 0c-176,0 -320,-144 -320,-320l0 -1600 320 -1280 0 -3520c0,-177 143,-320 320,-320 177,0 320,143 320,320z"/>
</svg>
