<?xml version="1.0" encoding="UTF-8"?>
<!DOCTYPE svg PUBLIC "-//W3C//DTD SVG 1.1//EN" "http://www.w3.org/Graphics/SVG/1.1/DTD/svg11.dtd">
<svg xmlns="http://www.w3.org/2000/svg" xml:space="preserve" width="1024px" height="1024px" shape-rendering="geometricPrecision" text-rendering="geometricPrecision" image-rendering="optimizeQuality" fill-rule="nonzero" clip-rule="evenodd" viewBox="0 0 10240 10240" xmlns:xlink="http://www.w3.org/1999/xlink">
	<title>wooden_pallet icon</title>
	<desc>wooden_pallet icon from the IconExperience.com O-Collection. Copyright by INCORS GmbH (www.incors.com).</desc>
	<path id="curve1" fill="#252525" d="M9600,7360 9600,7360 9600,8960 8320,8960 8320,7680 5760,7680 5760,8960 4480,8960 4480,7680 1920,7680 1920,8960 640,8960 640,7360 640,7360 640,7040 9600,7040z"/>
	<path id="curve0" fill="#252525" d="M6892 5120l1108 1600 1600 0 -1723 -1600 -985 0zm-3544 0l-1108 1600 -1600 0 1723 -1600 985 0zm1181 0l-369 1600 -1600 0 985 -1600 984 0zm985 0l246 1600 -1280 0 246 -1600 788 0zm1181 0l985 1600 -1600 0 -369 -1600 984 0z"/>
</svg>
