<?xml version="1.0" encoding="UTF-8"?>
<!DOCTYPE svg PUBLIC "-//W3C//DTD SVG 1.1//EN" "http://www.w3.org/Graphics/SVG/1.1/DTD/svg11.dtd">
<svg xmlns="http://www.w3.org/2000/svg" xml:space="preserve" width="1024px" height="1024px" shape-rendering="geometricPrecision" text-rendering="geometricPrecision" image-rendering="optimizeQuality" fill-rule="nonzero" clip-rule="evenodd" viewBox="0 0 10240 10240" xmlns:xlink="http://www.w3.org/1999/xlink">
	<title>worker icon</title>
	<desc>worker icon from the IconExperience.com O-Collection. Copyright by INCORS GmbH (www.incors.com).</desc>
	<path id="curve3" fill="#252525" d="M8320 8790c0,302 -267,536 -668,710 155,-923 154,-1857 -14,-2777 448,434 682,950 682,2067zm-5732 711c-401,-175 -668,-409 -668,-710 0,-1116 234,-1633 682,-2067 -168,919 -169,1853 -14,2777zm1276 -3389c380,185 806,288 1256,288 450,0 876,-103 1256,-288 146,369 83,1173 -5,1589 -86,80 -275,151 -364,178 -280,88 -596,121 -889,121 -279,0 -575,-30 -844,-107 -114,-33 -306,-101 -404,-189 -88,-414 -153,-1222 -6,-1592z"/>
	<path id="curve2" fill="#DE8D00" d="M2933 9627c7,2 14,4 21,6 654,200 1497,287 2166,287 675,0 1528,-89 2184,-292l0 0c187,-975 214,-2076 -63,-3240 -192,-147 -390,-288 -584,-432 205,456 123,1424 9,1889 -182,273 -807,475 -1548,475 -696,0 -1286,-177 -1508,-424 -14,-18 -26,-35 -36,-51 -114,-465 -196,-1433 9,-1889 -194,144 -392,285 -584,432 -271,1138 -251,2217 -75,3176 1,6 8,63 9,63z"/>
	<path id="curve1" fill="#252525" d="M5120 6080c1376,0 2498,-1085 2557,-2446l-966 457c-158,75 -285,69 -452,69l-2278 0c-167,0 -294,6 -452,-69l-966 -457c59,1361 1181,2446 2557,2446z"/>
	<path id="curve0" fill="#DE8D00" d="M6200 749l-374 1283c-36,124 -161,208 -310,208l-780 0c-149,0 -275,-84 -311,-208l-374 -1283c-42,-145 58,-292 226,-331 271,-64 556,-98 849,-98 293,0 577,34 849,98 167,39 267,186 225,331zm340 5c593,396 1012,1034 1115,1773l314 344c52,57 35,147 -21,202l-103 102c-87,85 -191,115 -302,168l-969 459c-101,47 -203,38 -315,38l-2278 0c-112,0 -214,9 -315,-38l-969 -459c-111,-53 -215,-83 -302,-168l-103 -102c-56,-55 -73,-145 -21,-202l314 -344c105,-752 536,-1399 1147,-1794 -1,55 5,110 19,165l374 1497c71,287 325,485 621,485l780 0c295,0 549,-198 621,-485l374 -1497c12,-48 18,-96 19,-144z"/>
</svg>
