<?xml version="1.0" encoding="UTF-8"?>
<!DOCTYPE svg PUBLIC "-//W3C//DTD SVG 1.1//EN" "http://www.w3.org/Graphics/SVG/1.1/DTD/svg11.dtd">
<svg xmlns="http://www.w3.org/2000/svg" xml:space="preserve" width="1024px" height="1024px" shape-rendering="geometricPrecision" text-rendering="geometricPrecision" image-rendering="optimizeQuality" fill-rule="nonzero" clip-rule="evenodd" viewBox="0 0 10240 10240" xmlns:xlink="http://www.w3.org/1999/xlink">
	<title>ambulance icon</title>
	<desc>ambulance icon from the IconExperience.com O-Collection. Copyright by INCORS GmbH (www.incors.com).</desc>
	<path id="curve3" fill="#808080" d="M2880 7040c530,0 960,430 960,960 0,530 -430,960 -960,960 -530,0 -960,-430 -960,-960 0,-530 430,-960 960,-960zm4480 640c177,0 320,143 320,320 0,177 -143,320 -320,320 -177,0 -320,-143 -320,-320 0,-177 143,-320 320,-320zm-4480 0c-177,0 -320,143 -320,320 0,177 143,320 320,320 177,0 320,-143 320,-320 0,-177 -143,-320 -320,-320zm4480 -640c-530,0 -960,430 -960,960 0,530 430,960 960,960 530,0 960,-430 960,-960 0,-530 -430,-960 -960,-960z"/>
	<path id="curve2" fill="#808080" d="M1280 3200l5929 0c497,0 923,263 1145,708l606 1212 265 265c249,249 375,553 375,905l0 110 -320 0c-176,0 -320,144 -320,320l0 0c0,176 144,320 320,320l320 0 0 320c0,352 -288,640 -640,640l-320 0 0 0c0,-707 -573,-1280 -1280,-1280 -707,0 -1280,573 -1280,1280 0,110 14,218 40,320l-2000 0c26,-102 40,-210 40,-320 0,-707 -573,-1280 -1280,-1280 -707,0 -1280,573 -1280,1280l0 0 -320 0c-352,0 -640,-288 -640,-640l0 -3520c0,-351 289,-640 640,-640zm1920 640l0 640 -640 0 0 640 640 0 0 640 640 0 0 -640 640 0 0 -640 -640 0 0 -640 -640 0zm2880 1280l1647 0c114,0 212,-55 272,-152 60,-97 65,-209 14,-311l-232 -463c-113,-228 -318,-354 -572,-354l-1129 0 0 1280z"/>
	<path id="curve1" fill="#E68497" d="M7680 2880c-177,0 -320,-143 -320,-320 0,-177 143,-320 320,-320l320 0c177,0 320,143 320,320 0,177 -143,320 -320,320l-320 0zm-149 -999c-125,125 -327,125 -452,0 -125,-125 -125,-327 0,-452l226 -227c125,-125 328,-125 453,0 125,125 125,328 0,453l-227 226zm-2411 359c177,0 320,143 320,320 0,177 -143,320 -320,320l-320 0c-177,0 -320,-143 -320,-320 0,-177 143,-320 320,-320l320 0zm601 -811c125,125 125,327 0,452 -125,125 -327,125 -452,0l-227 -226c-125,-125 -125,-328 0,-453 125,-125 328,-125 453,0l226 227zm999 -149c0,177 -143,320 -320,320 -177,0 -320,-143 -320,-320l0 -320c0,-177 143,-320 320,-320 177,0 320,143 320,320l0 320z"/>
	<path id="curve0" fill="#E68497" d="M6080 1920l640 0c176,0 320,144 320,320l0 640 -1280 0 0 -640c0,-176 144,-320 320,-320z"/>
</svg>
