<?xml version="1.0" encoding="UTF-8"?>
<!DOCTYPE svg PUBLIC "-//W3C//DTD SVG 1.1//EN" "http://www.w3.org/Graphics/SVG/1.1/DTD/svg11.dtd">
<svg xmlns="http://www.w3.org/2000/svg" xml:space="preserve" width="1024px" height="1024px" shape-rendering="geometricPrecision" text-rendering="geometricPrecision" image-rendering="optimizeQuality" fill-rule="nonzero" clip-rule="evenodd" viewBox="0 0 10240 10240" xmlns:xlink="http://www.w3.org/1999/xlink">
	<title>apple icon</title>
	<desc>apple icon from the IconExperience.com O-Collection. Copyright by INCORS GmbH (www.incors.com).</desc>
	<path id="curve1" fill="#808080" d="M6798 1513l109 329c32,95 20,189 -33,273 -54,84 -134,135 -233,146 -691,81 -1145,398 -1196,1119 -111,34 -232,65 -325,65 -106,0 -215,-25 -318,-57 47,-1360 815,-1984 1652,-2091 153,-20 295,70 344,216z"/>
	<path id="curve0" fill="#76A797" d="M5120 3765c379,0 640,-245 1280,-245 1600,0 2560,885 2560,2560 0,2165 -1280,3520 -3200,3520 -320,0 -320,-150 -640,-150 -320,0 -320,150 -640,150 -1920,0 -3200,-1355 -3200,-3520 0,-1675 960,-2560 2560,-2560 640,0 823,245 1280,245zm-909 444c-110,-30 -222,-49 -371,-49 -1281,0 -1920,636 -1920,1920 0,356 36,698 113,1011 26,105 95,183 196,222 100,38 204,27 293,-33l7 -4c114,-78 165,-213 131,-346 -68,-261 -100,-547 -100,-850 0,-926 355,-1280 1280,-1280 72,0 141,11 207,28 164,42 332,-51 384,-212l0 0c28,-86 20,-171 -23,-250 -44,-80 -110,-133 -197,-157z"/>
</svg>
