<?xml version="1.0" encoding="UTF-8"?>
<!DOCTYPE svg PUBLIC "-//W3C//DTD SVG 1.1//EN" "http://www.w3.org/Graphics/SVG/1.1/DTD/svg11.dtd">
<svg xmlns="http://www.w3.org/2000/svg" xml:space="preserve" width="1024px" height="1024px" shape-rendering="geometricPrecision" text-rendering="geometricPrecision" image-rendering="optimizeQuality" fill-rule="nonzero" clip-rule="evenodd" viewBox="0 0 10240 10240" xmlns:xlink="http://www.w3.org/1999/xlink">
	<title>arrow_down_left icon</title>
	<desc>arrow_down_left icon from the IconExperience.com O-Collection. Copyright by INCORS GmbH (www.incors.com).</desc>
	<path id="curve0" fill="#4D82B8" d="M3840 2713l0 2330 3620 -3621c125,-124 328,-124 453,0l905 905c124,125 124,328 0,453l-3621 3620 2329 0c67,0 123,38 148,99 26,61 12,128 -34,174l-1460 1460c-124,124 -276,187 -452,187l-3488 0c-176,0 -320,-144 -320,-320l0 -3488c0,-176 63,-328 187,-452l1460 -1460c46,-46 113,-60 174,-34 61,25 99,81 99,147z"/>
</svg>
