<?xml version="1.0" encoding="UTF-8"?>
<!DOCTYPE svg PUBLIC "-//W3C//DTD SVG 1.1//EN" "http://www.w3.org/Graphics/SVG/1.1/DTD/svg11.dtd">
<svg xmlns="http://www.w3.org/2000/svg" xml:space="preserve" width="1024px" height="1024px" shape-rendering="geometricPrecision" text-rendering="geometricPrecision" image-rendering="optimizeQuality" fill-rule="nonzero" clip-rule="evenodd" viewBox="0 0 10240 10240" xmlns:xlink="http://www.w3.org/1999/xlink">
	<title>arrow_up_left icon</title>
	<desc>arrow_up_left icon from the IconExperience.com O-Collection. Copyright by INCORS GmbH (www.incors.com).</desc>
	<path id="curve0" fill="#4D82B8" d="M7527 3840l-2330 0 3621 3620c124,125 124,328 0,453l-905 905c-125,124 -328,124 -453,0l-3620 -3621 0 2329c0,67 -38,123 -99,148 -61,26 -128,12 -174,-34l-1460 -1460c-124,-124 -187,-276 -187,-452l0 -3488c0,-176 144,-320 320,-320l3488 0c176,0 328,63 452,187l1460 1460c46,46 60,113 34,174 -25,61 -81,99 -147,99z"/>
</svg>
