<?xml version="1.0" encoding="UTF-8"?>
<!DOCTYPE svg PUBLIC "-//W3C//DTD SVG 1.1//EN" "http://www.w3.org/Graphics/SVG/1.1/DTD/svg11.dtd">
<svg xmlns="http://www.w3.org/2000/svg" xml:space="preserve" width="1024px" height="1024px" shape-rendering="geometricPrecision" text-rendering="geometricPrecision" image-rendering="optimizeQuality" fill-rule="nonzero" clip-rule="evenodd" viewBox="0 0 10240 10240" xmlns:xlink="http://www.w3.org/1999/xlink">
	<title>arrow_curve_left icon</title>
	<desc>arrow_curve_left icon from the IconExperience.com O-Collection. Copyright by INCORS GmbH (www.incors.com).</desc>
	<path id="curve0" fill="#4D82B8" d="M2482 2101l-1186 1186c-124,124 -124,328 0,452l1186 1187c125,124 277,186 453,187l839 7c65,1 122,-38 147,-99 26,-61 12,-127 -34,-174l-687 -687 640 0c705,0 1345,288 1808,752 464,463 752,1103 752,1808l0 2240 1280 0 0 -2240c0,-1058 -431,-2018 -1127,-2713 -695,-696 -1655,-1127 -2713,-1127l-640 0 687 -687c46,-47 60,-113 34,-174 -25,-61 -81,-98 -147,-99l-839 -7c-176,-1 -328,63 -453,188z"/>
</svg>
