<?xml version="1.0" encoding="UTF-8"?>
<!DOCTYPE svg PUBLIC "-//W3C//DTD SVG 1.1//EN" "http://www.w3.org/Graphics/SVG/1.1/DTD/svg11.dtd">
<svg xmlns="http://www.w3.org/2000/svg" xml:space="preserve" width="1024px" height="1024px" shape-rendering="geometricPrecision" text-rendering="geometricPrecision" image-rendering="optimizeQuality" fill-rule="nonzero" clip-rule="evenodd" viewBox="0 0 10240 10240" xmlns:xlink="http://www.w3.org/1999/xlink">
	<title>ashtray_cigarette icon</title>
	<desc>ashtray_cigarette icon from the IconExperience.com O-Collection. Copyright by INCORS GmbH (www.incors.com).</desc>
	<path id="curve3" fill="#808080" d="M2263 5760l440 0 286 495c-461,117 -749,282 -749,465 0,353 1075,640 2400,640 1325,0 2400,-287 2400,-640 0,-292 -733,-538 -1734,-615l597 -345 1061 0c249,0 462,132 573,354l715 1431c47,93 68,182 68,286l0 1449c0,176 -144,320 -320,320l-7040 0c-176,0 -320,-144 -320,-320l0 -1406c0,-132 34,-245 107,-355l983 -1474c122,-184 312,-285 533,-285z"/>
	<path id="curve2" fill="#ED9A56" d="M3098 5163l831 -480 800 1385 -831 480c-153,88 -349,36 -438,-117l-480 -831c-88,-153 -35,-349 118,-437z"/>
	<path id="curve1" fill="#808080" d="M4206 4523l4434 -2560c153,-88 349,-36 437,117l480 831c88,153 36,349 -117,437l-4434 2560 -160 -277 2494 -1440 -480 -831 -2494 1440 -160 -277z"/>
	<path id="curve0" fill="#808080" d="M4480 960c-820,-390 -1280,0 -1280,320 0,640 960,802 960,1600 0,1258 -1546,971 -991,1872l-23 13c-1343,-882 54,-1251 54,-1675 0,-640 -1280,-680 -1280,-1640 0,-986 1377,-1678 2560,-490z"/>
</svg>
