<?xml version="1.0" encoding="UTF-8"?>
<!DOCTYPE svg PUBLIC "-//W3C//DTD SVG 1.1//EN" "http://www.w3.org/Graphics/SVG/1.1/DTD/svg11.dtd">
<svg xmlns="http://www.w3.org/2000/svg" xml:space="preserve" width="1024px" height="1024px" shape-rendering="geometricPrecision" text-rendering="geometricPrecision" image-rendering="optimizeQuality" fill-rule="nonzero" clip-rule="evenodd" viewBox="0 0 10240 10240" xmlns:xlink="http://www.w3.org/1999/xlink">
	<title>back icon</title>
	<desc>back icon from the IconExperience.com O-Collection. Copyright by INCORS GmbH (www.incors.com).</desc>
	<path id="curve2" fill="#EDC87E" d="M2560 2240l2880 0 0 1920c0,353 287,640 640,640l1920 0 0 2880c0,176 -144,320 -320,320l-2880 0 0 -1920c0,-353 -287,-640 -640,-640l-1920 0 0 -2880c0,-176 144,-320 320,-320z"/>
	<path id="curve1" fill="#808080" d="M8960 960l-2880 0c-176,0 -320,144 -320,320l0 2880c0,176 144,320 320,320l2880 0c176,0 320,-144 320,-320l0 -2880c0,-176 -144,-320 -320,-320z"/>
	<path id="curve0" fill="#808080" d="M4160 5760l-2880 0c-176,0 -320,144 -320,320l0 2880c0,176 144,320 320,320l2880 0c176,0 320,-144 320,-320l0 -2880c0,-176 -144,-320 -320,-320z"/>
</svg>
