<?xml version="1.0" encoding="UTF-8"?>
<!DOCTYPE svg PUBLIC "-//W3C//DTD SVG 1.1//EN" "http://www.w3.org/Graphics/SVG/1.1/DTD/svg11.dtd">
<svg xmlns="http://www.w3.org/2000/svg" xml:space="preserve" width="1024px" height="1024px" shape-rendering="geometricPrecision" text-rendering="geometricPrecision" image-rendering="optimizeQuality" fill-rule="nonzero" clip-rule="evenodd" viewBox="0 0 10240 10240" xmlns:xlink="http://www.w3.org/1999/xlink">
	<title>bacteria icon</title>
	<desc>bacteria icon from the IconExperience.com O-Collection. Copyright by INCORS GmbH (www.incors.com).</desc>
	<path id="curve3" fill="#76A797" d="M3489 7495l1588 -795 1908 1907 -2350 1177c-632,317 -1401,61 -1718,-571 -316,-632 -61,-1401 572,-1718z"/>
	<path id="curve2" fill="#76A797" d="M9225 6775l-2600 -2600c-382,-382 -944,-472 -1411,-272 -206,516 -451,997 -743,1460 52,228 166,444 344,622l2600 2600c500,500 1310,500 1810,0 500,-500 500,-1310 0,-1810z"/>
	<path id="curve1" fill="#76A797" d="M7838 1920l-2086 0c0,116 -12,234 -39,351 -99,441 -217,856 -355,1250 520,-120 1088,22 1493,427l532 532 455 0c706,0 1280,-573 1280,-1280 0,-707 -574,-1280 -1280,-1280z"/>
	<path id="curve0" fill="#76A797" d="M2841 6898c-491,509 -1301,523 -1810,32 -509,-491 -523,-1301 -32,-1810 1018,-1055 1582,-2046 1904,-3481 156,-690 841,-1123 1530,-968 690,155 1123,840 968,1530 -431,1914 -1202,3290 -2560,4697z"/>
</svg>
