<?xml version="1.0" encoding="UTF-8"?>
<!DOCTYPE svg PUBLIC "-//W3C//DTD SVG 1.1//EN" "http://www.w3.org/Graphics/SVG/1.1/DTD/svg11.dtd">
<svg xmlns="http://www.w3.org/2000/svg" xml:space="preserve" width="1024px" height="1024px" shape-rendering="geometricPrecision" text-rendering="geometricPrecision" image-rendering="optimizeQuality" fill-rule="nonzero" clip-rule="evenodd" viewBox="0 0 10240 10240" xmlns:xlink="http://www.w3.org/1999/xlink">
	<title>bag icon</title>
	<desc>bag icon from the IconExperience.com O-Collection. Copyright by INCORS GmbH (www.incors.com).</desc>
	<path id="curve0" fill="#B89A7C" d="M5120 9600c-299,0 -1905,-92 -2880,0 -223,21 -398,-185 -339,-402 390,-1444 19,-2798 19,-4078 0,-1280 357,-2688 -19,-4078 -59,-217 116,-423 339,-402 976,92 2581,0 2880,0 965,0 1907,94 2880,1 223,-21 398,186 339,402 -376,1391 -19,2798 -19,4079 0,1279 -371,2634 19,4077 59,217 -116,424 -339,402 -972,-92 -1915,-1 -2880,-1zm2429 -2608c15,-214 35,-428 55,-642 -827,50 -1656,51 -2484,51 -828,1 -1657,0 -2484,-50 20,214 40,429 55,642 808,46 1620,46 2429,46 810,-1 1620,-2 2429,-47zm78 -2885c-18,-212 -38,-424 -55,-636 -816,49 -1635,50 -2452,50 -817,1 -1636,0 -2452,-49 -17,212 -37,424 -55,637 834,50 1671,50 2507,50 836,-1 1672,-2 2507,-52z"/>
</svg>
