<?xml version="1.0" encoding="UTF-8"?>
<!DOCTYPE svg PUBLIC "-//W3C//DTD SVG 1.1//EN" "http://www.w3.org/Graphics/SVG/1.1/DTD/svg11.dtd">
<svg xmlns="http://www.w3.org/2000/svg" xml:space="preserve" width="1024px" height="1024px" shape-rendering="geometricPrecision" text-rendering="geometricPrecision" image-rendering="optimizeQuality" fill-rule="nonzero" clip-rule="evenodd" viewBox="0 0 10240 10240" xmlns:xlink="http://www.w3.org/1999/xlink">
	<title>banana icon</title>
	<desc>banana icon from the IconExperience.com O-Collection. Copyright by INCORS GmbH (www.incors.com).</desc>
	<path id="curve0" fill="#EDC87E" d="M859 6395c350,-192 744,-295 1193,-309 1049,-35 1935,-192 2748,-595 1487,-737 1473,-1739 2238,-2549 17,-311 83,-708 92,-1160 4,-228 -75,-521 26,-634 122,-137 315,-501 518,-508 54,-1 108,6 163,19 6,-2 12,-4 18,-6 376,-90 903,314 986,272 39,-19 -70,268 -97,622 -9,112 -194,241 -199,361 -18,502 182,1000 222,1025 623,396 897,1377 821,2081 -281,2585 -2473,4629 -5001,4585 -799,-13 -1972,-285 -2027,-1127 0,-173 40,-281 120,-413 295,-186 779,-523 1103,-570 1084,-157 1751,-481 2431,-1059 1243,-1055 955,-2540 1544,-3252 -14,-89 -26,-186 -38,-289 -22,90 -53,159 -97,196 -285,427 -573,1026 -701,1508 -169,636 -402,1158 -915,1593 -704,598 -1350,853 -2269,986 -402,58 -883,398 -1229,616l-65 40 -39 66c-64,107 -108,205 -135,311 -784,-201 -1735,-726 -1621,-1453 109,-107 101,-250 210,-357zm3745 2244c2086,36 3809,-1698 4029,-3729 86,-789 -16,-1144 -210,-1437 -16,-11 -33,-23 -48,-35l-124 148c-193,235 -320,949 -401,1253 -220,831 -554,1512 -1222,2079 -842,715 -1655,1046 -2753,1204 -134,22 -391,101 -302,313 57,164 827,201 1031,204z"/>
</svg>
