<?xml version="1.0" encoding="UTF-8"?>
<!DOCTYPE svg PUBLIC "-//W3C//DTD SVG 1.1//EN" "http://www.w3.org/Graphics/SVG/1.1/DTD/svg11.dtd">
<svg xmlns="http://www.w3.org/2000/svg" xml:space="preserve" width="1024px" height="1024px" shape-rendering="geometricPrecision" text-rendering="geometricPrecision" image-rendering="optimizeQuality" fill-rule="nonzero" clip-rule="evenodd" viewBox="0 0 10240 10240" xmlns:xlink="http://www.w3.org/1999/xlink">
	<title>bank_building icon</title>
	<desc>bank_building icon from the IconExperience.com O-Collection. Copyright by INCORS GmbH (www.incors.com).</desc>
	<path id="curve4" fill="#EDC87E" d="M640,8960 960,8960 960,8320 9280,8320 9280,8960 9600,8960 9600,9600 640,9600z"/>
	<path id="curve3" fill="#808080" d="M3200 4160l3840 0 0 3840 -3840 0 0 -3840zm2240 3360l80 0c485,0 880,-395 880,-880 0,-485 -395,-880 -880,-880l-240 0 0 -480 240 0c102,0 192,65 226,160l650 0c-41,-452 -422,-800 -876,-800l-80 0 -160 0 0 -160 -320 0 0 160 -160 0 -80 0c-485,0 -880,395 -880,880 0,485 395,880 880,880l240 0 0 480 -240 0c-101,0 -192,-65 -226,-160l-650 0c41,452 422,800 876,800l80 0 160 0 0 160 160 0 160 0 0 -160 160 0zm-160 -640l240 0c132,0 240,-108 240,-240 0,-132 -108,-240 -240,-240l-240 0 0 480zm-320 -1600l-240 0c-132,0 -240,108 -240,240 0,132 108,240 240,240l240 0 0 -480z"/>
	<path id="curve2" fill="#EDC87E" d="M8960 4160l0 320c0,177 -143,320 -320,320 320,1600 320,2560 320,3200l-1600 0c0,-640 0,-1600 320,-3200 -177,0 -320,-143 -320,-320l0 -320 1600 0z"/>
	<path id="curve1" fill="#EDC87E" d="M2880 4160l0 320c0,177 -143,320 -320,320 320,1600 320,2560 320,3200l-1600 0c0,-640 0,-1600 320,-3200 -177,0 -320,-143 -320,-320l0 -320 1600 0z"/>
	<path id="curve0" fill="#EDC87E" d="M5120 320l4800 2560 -320 320 0 0 -320 0 -8320 0 -320 0 -320 -320 4800 -2560zm4160 3200l0 320 -8320 0 0 -320 8320 0z"/>
</svg>
