<?xml version="1.0" encoding="UTF-8"?>
<!DOCTYPE svg PUBLIC "-//W3C//DTD SVG 1.1//EN" "http://www.w3.org/Graphics/SVG/1.1/DTD/svg11.dtd">
<svg xmlns="http://www.w3.org/2000/svg" xml:space="preserve" width="1024px" height="1024px" shape-rendering="geometricPrecision" text-rendering="geometricPrecision" image-rendering="optimizeQuality" fill-rule="nonzero" clip-rule="evenodd" viewBox="0 0 10240 10240" xmlns:xlink="http://www.w3.org/1999/xlink">
	<title>barrels icon</title>
	<desc>barrels icon from the IconExperience.com O-Collection. Copyright by INCORS GmbH (www.incors.com).</desc>
	<path id="curve2" fill="#808080" d="M6400 6720l0 0 -640 0 0 -960c-177,0 -320,-143 -320,-320 0,-177 143,-320 320,-320l3200 0c177,0 320,143 320,320 0,177 -143,320 -320,320 0,1764 0,-484 0,1280 177,0 320,143 320,320 0,177 -143,320 -320,320l0 1280c177,0 320,143 320,320 0,177 -143,320 -320,320l-3200 0c-177,0 -320,-143 -320,-320 0,-176 143,-319 319,-320l641 0 0 0 1760 0c88,0 160,-72 160,-160 0,-88 -72,-160 -160,-160l-160 0 0 -960 -1600 0 0 960 0 0 0 0 -640 0 0 -960c-177,0 -320,-143 -320,-320 0,-177 143,-320 320,-320l640 0 0 0 1760 0c88,0 160,-72 160,-160 0,-88 -72,-160 -160,-160l-160 0 0 -960 -1600 0 0 960 0 0z"/>
	<path id="curve1" fill="#808080" d="M1920 6720l-640 0 0 -960c-177,0 -320,-143 -320,-320 0,-177 143,-320 320,-320l3200 0c177,0 320,143 320,320 0,177 -143,320 -320,320 0,1764 0,-484 0,1280 177,0 320,143 320,320 0,177 -143,320 -320,320l0 1280c177,0 320,143 320,320 0,177 -143,320 -320,320l-3200 0c-177,0 -320,-143 -320,-320 0,-176 143,-319 319,-320l641 0 1760 0c88,0 160,-72 160,-160 0,-88 -72,-160 -160,-160l-160 0 0 -960 -1600 0 0 960 0 0 -640 0 0 -960c-177,0 -320,-143 -320,-320 0,-177 143,-320 320,-320l640 0 1760 0c88,0 160,-72 160,-160 0,-88 -72,-160 -160,-160l-160 0 0 -960 -1600 0 0 960 0 0z"/>
	<path id="curve0" fill="#808080" d="M4160 4160l-640 0 0 -960c-177,0 -320,-143 -320,-320 0,-177 143,-320 320,-320l640 0 1760 0c88,0 160,-72 160,-160 0,-88 -72,-160 -160,-160l-160 0 0 -960 -1600 0 0 960 0 0 -640 0 0 -960c-177,0 -320,-143 -320,-320 0,-177 143,-320 320,-320l3200 0c177,0 320,143 320,320 0,177 -143,320 -320,320 0,1764 0,-484 0,1280 177,0 320,143 320,320 0,177 -143,320 -320,320l0 1280c177,0 320,143 320,320 0,177 -143,320 -320,320l-3200 0c-177,0 -320,-143 -320,-320 0,-176 143,-319 319,-320l641 0 1760 0c88,0 160,-72 160,-160 0,-88 -72,-160 -160,-160l-160 0 0 -960 -1600 0 0 960 0 0z"/>
</svg>
