<?xml version="1.0" encoding="UTF-8"?>
<!DOCTYPE svg PUBLIC "-//W3C//DTD SVG 1.1//EN" "http://www.w3.org/Graphics/SVG/1.1/DTD/svg11.dtd">
<svg xmlns="http://www.w3.org/2000/svg" xml:space="preserve" width="1024px" height="1024px" shape-rendering="geometricPrecision" text-rendering="geometricPrecision" image-rendering="optimizeQuality" fill-rule="nonzero" clip-rule="evenodd" viewBox="0 0 10240 10240" xmlns:xlink="http://www.w3.org/1999/xlink">
	<title>beer_mug icon</title>
	<desc>beer_mug icon from the IconExperience.com O-Collection. Copyright by INCORS GmbH (www.incors.com).</desc>
	<path id="curve2" fill="#EDC87E" d="M2880,4480 6720,4480 6720,8640 2880,8640z"/>
	<path id="curve1" fill="#808080" d="M7680 2560l0 1451c188,-109 407,-171 640,-171 707,0 1280,573 1280,1280l0 1920c0,707 -573,1280 -1280,1280l-640 0 0 640c0,352 -288,640 -640,640l-4480 0c-352,0 -640,-288 -640,-640l0 -6400c0,-176 144,-320 320,-320l5120 0c176,0 320,144 320,320zm-5120 320l0 6080 4480 0 0 -6080 -4480 0zm5120 2240l0 2560 640 0c354,0 640,-286 640,-640l0 -1920c0,-354 -286,-640 -640,-640 -354,0 -640,286 -640,640z"/>
	<path id="curve0" fill="#808080" d="M2240 1920c0,-705 575,-1280 1280,-1280 1067,0 1493,0 2560,0 705,0 1280,575 1280,1280l-640 0c0,-353 -287,-640 -640,-640l-2560 0c-353,0 -640,287 -640,640l-640 0z"/>
</svg>
