<?xml version="1.0" encoding="UTF-8"?>
<!DOCTYPE svg PUBLIC "-//W3C//DTD SVG 1.1//EN" "http://www.w3.org/Graphics/SVG/1.1/DTD/svg11.dtd">
<svg xmlns="http://www.w3.org/2000/svg" xml:space="preserve" width="1024px" height="1024px" shape-rendering="geometricPrecision" text-rendering="geometricPrecision" image-rendering="optimizeQuality" fill-rule="nonzero" clip-rule="evenodd" viewBox="0 0 10240 10240" xmlns:xlink="http://www.w3.org/1999/xlink">
	<title>beverage_can_empty icon</title>
	<desc>beverage_can_empty icon from the IconExperience.com O-Collection. Copyright by INCORS GmbH (www.incors.com).</desc>
	<path id="curve1" fill="#333333" d="M5212 2579l1095 -157c47,-7 81,-44 84,-90 4,-47 -25,-89 -70,-102 -241,-70 -548,-121 -892,-145 -35,-3 -65,11 -86,39l-224 298c-24,33 -26,74 -6,109 21,35 59,53 99,48z"/>
	<path id="curve0" fill="#808080" d="M8310 8961c-112,327 -1211,584 -2550,584 -1339,0 -2438,-257 -2550,-584 -17,-49 -41,-87 -77,-123l-66 -65c-124,-125 -187,-277 -187,-453l0 -640 320 -320 0 -960 640 -640 -320 -320 -640 -320 -320 -320 -320 -640 0 -640c0,-176 63,-328 187,-453l39 -38c63,-63 94,-139 94,-227l0 -187c0,-530 1146,-960 2560,-960 1414,0 2560,430 2560,960l0 0 0 187c0,88 31,164 94,227l39 38c124,125 187,277 187,453l0 640 -320 640 320 640 -320 320 640 640 0 320 320 960 0 640c0,176 -63,328 -187,453l-66 65c-36,36 -60,74 -77,123zm-3190 -7041c-1060,0 -1920,287 -1920,640 0,353 860,640 1920,640 1060,0 1920,-287 1920,-640 0,-353 -860,-640 -1920,-640zm92 659c-40,5 -78,-13 -99,-48 -20,-35 -18,-76 6,-109l224 -298c21,-28 51,-42 86,-39 344,24 651,75 892,145 45,13 74,55 70,102 -3,46 -37,83 -84,90l-1095 157zm-732 2541l265 640 -905 905 0 960 -320 320 0 55c0,176 144,320 320,320l187 0c89,0 164,-31 227,-94l226 -226 0 -1070 640 -1170 -640 -640z"/>
</svg>
