<?xml version="1.0" encoding="UTF-8"?>
<!DOCTYPE svg PUBLIC "-//W3C//DTD SVG 1.1//EN" "http://www.w3.org/Graphics/SVG/1.1/DTD/svg11.dtd">
<svg xmlns="http://www.w3.org/2000/svg" xml:space="preserve" width="1024px" height="1024px" shape-rendering="geometricPrecision" text-rendering="geometricPrecision" image-rendering="optimizeQuality" fill-rule="nonzero" clip-rule="evenodd" viewBox="0 0 10240 10240" xmlns:xlink="http://www.w3.org/1999/xlink">
	<title>bicycle icon</title>
	<desc>bicycle icon from the IconExperience.com O-Collection. Copyright by INCORS GmbH (www.incors.com).</desc>
	<path id="curve5" fill="#808080" d="M5122 7027c353,0 640,286 640,640 0,353 -287,640 -640,640 -354,0 -640,-287 -640,-640 0,-354 286,-640 640,-640z"/>
	<path id="curve4" fill="#808080" d="M8320 8960c-1060,0 -1920,-860 -1920,-1920 0,-99 8,-197 22,-292l386 -645c80,189 186,352 308,501 -49,136 -76,283 -76,436 0,707 573,1280 1280,1280 707,0 1280,-573 1280,-1280 0,-707 -573,-1280 -1280,-1280 -88,0 -175,9 -258,26 -38,-76 -71,-152 -96,-227l-125 -379c153,-39 313,-60 479,-60 1060,0 1920,860 1920,1920 0,1060 -860,1920 -1920,1920z"/>
	<path id="curve3" fill="#808080" d="M1920 5120c235,0 459,42 667,119l-410 547c-83,-17 -169,-26 -257,-26 -707,0 -1280,573 -1280,1280 0,707 573,1280 1280,1280 414,0 783,-197 1017,-503l660 158c-328,588 -956,985 -1677,985 -1060,0 -1920,-860 -1920,-1920 0,-1060 860,-1920 1920,-1920zm1521 749c212,274 351,608 389,971l-664 -93c-28,-119 -72,-232 -131,-335l406 -543z"/>
	<path id="curve2" fill="#4D82B8" d="M8002 7007c-426,-366 -782,-660 -944,-1147l-171 -513 -1026 1716c-137,-164 -329,-282 -547,-325l973 -1618 -2003 0 745 1605c-224,23 -426,124 -576,276l-865 -1863 -1347 1803 2045 286c-71,133 -111,285 -111,446 0,38 2,75 6,112l-2065 -492c-54,42 -122,67 -196,67 -177,0 -320,-143 -320,-320 0,-161 119,-294 274,-317l1513 -2017 -114 -246c223,-30 424,-95 618,-186l96 206 2611 0 -180 -540c-35,-105 -12,-216 52,-297l125 -123 576 0 -164 163 656 1977c120,361 390,738 656,1060l1 0c177,0 320,143 320,320 0,177 -143,320 -320,320 -177,0 -320,-143 -320,-320 0,-11 1,-22 2,-33z"/>
	<path id="curve1" fill="#808080" d="M4157 3200l-1716 0c-105,0 -239,122 -191,240 110,272 458,726 764,720 474,-9 832,-186 1247,-483 372,-267 225,-477 -104,-477z"/>
	<path id="curve0" fill="#808080" d="M6400 2560l960 0c177,0 320,143 320,320 0,177 -143,320 -320,320l0 0 -960 0 0 0c-177,0 -320,-143 -320,-320 0,-177 143,-320 320,-320z"/>
</svg>
