<?xml version="1.0" encoding="UTF-8"?>
<!DOCTYPE svg PUBLIC "-//W3C//DTD SVG 1.1//EN" "http://www.w3.org/Graphics/SVG/1.1/DTD/svg11.dtd">
<svg xmlns="http://www.w3.org/2000/svg" xml:space="preserve" width="1024px" height="1024px" shape-rendering="geometricPrecision" text-rendering="geometricPrecision" image-rendering="optimizeQuality" fill-rule="nonzero" clip-rule="evenodd" viewBox="0 0 10240 10240" xmlns:xlink="http://www.w3.org/1999/xlink">
	<title>blot icon</title>
	<desc>blot icon from the IconExperience.com O-Collection. Copyright by INCORS GmbH (www.incors.com).</desc>
	<path id="curve0" fill="#4D82B8" d="M7680 4160c-78,310 0,640 640,640 530,0 960,430 960,960 0,530 -430,960 -960,960 -320,0 -640,-320 -960,-320 -716,0 -837,940 -320,1280 372,244 640,497 640,960 0,530 -430,960 -960,960 -530,0 -960,-430 -960,-960 0,-1280 -1600,-1920 -1920,-1280 -163,327 0,350 0,640 0,530 -430,960 -960,960 -530,0 -960,-430 -960,-960 0,-1280 2536,-1908 1579,-2560 -939,-640 -619,-960 21,-1600 506,-506 -190,-1036 -640,-1036 -530,0 -960,-354 -960,-884 0,-530 430,-960 960,-960 530,0 960,430 960,960 0,1280 1600,960 1493,157 -23,-174 -213,-287 -213,-477 0,-353 287,-640 640,-640 353,0 640,287 640,640 0,459 -773,1600 -320,1600 960,0 1920,-320 1600,960zm800 -2560c442,0 800,358 800,800 0,442 -358,800 -800,800 -442,0 -800,-358 -800,-800 0,-442 358,-800 800,-800zm-6880 2240c530,0 960,430 960,960 0,530 -430,960 -960,960 -530,0 -960,-430 -960,-960 0,-530 430,-960 960,-960z"/>
</svg>
