<?xml version="1.0" encoding="UTF-8"?>
<!DOCTYPE svg PUBLIC "-//W3C//DTD SVG 1.1//EN" "http://www.w3.org/Graphics/SVG/1.1/DTD/svg11.dtd">
<svg xmlns="http://www.w3.org/2000/svg" xml:space="preserve" width="1024px" height="1024px" shape-rendering="geometricPrecision" text-rendering="geometricPrecision" image-rendering="optimizeQuality" fill-rule="nonzero" clip-rule="evenodd" viewBox="0 0 10240 10240" xmlns:xlink="http://www.w3.org/1999/xlink">
	<title>body_scale icon</title>
	<desc>body_scale icon from the IconExperience.com O-Collection. Copyright by INCORS GmbH (www.incors.com).</desc>
	<path id="curve1" fill="#E68497" d="M4632 3276l488 -1356 489 1356c-158,-50 -322,-76 -489,-76 -167,0 -331,26 -488,76z"/>
	<path id="curve0" fill="#808080" d="M2560 1280l5120 0c705,0 1280,575 1280,1280l0 5120c0,705 -575,1280 -1280,1280l-5120 0c-705,0 -1280,-575 -1280,-1280l0 -5120c0,-705 575,-1280 1280,-1280zm4462 1381c62,-71 89,-156 78,-249 -10,-94 -56,-170 -133,-225 -521,-370 -1159,-587 -1847,-587 -688,0 -1326,217 -1847,587 -77,55 -123,131 -133,225 -11,93 16,178 78,249l860 967c103,115 267,142 400,64 189,-109 408,-172 642,-172 234,0 453,63 642,172 133,78 297,51 400,-64l860 -967zm-4462 1499c-353,0 -640,287 -640,640l0 2880c0,353 288,640 640,640l5120 0c352,0 640,-288 640,-640l0 -2880c0,-352 -287,-640 -640,-640l-5120 0z"/>
</svg>
