<?xml version="1.0" encoding="UTF-8"?>
<!DOCTYPE svg PUBLIC "-//W3C//DTD SVG 1.1//EN" "http://www.w3.org/Graphics/SVG/1.1/DTD/svg11.dtd">
<svg xmlns="http://www.w3.org/2000/svg" xml:space="preserve" width="1024px" height="1024px" shape-rendering="geometricPrecision" text-rendering="geometricPrecision" image-rendering="optimizeQuality" fill-rule="nonzero" clip-rule="evenodd" viewBox="0 0 10240 10240" xmlns:xlink="http://www.w3.org/1999/xlink">
	<title>bolt icon</title>
	<desc>bolt icon from the IconExperience.com O-Collection. Copyright by INCORS GmbH (www.incors.com).</desc>
	<path id="curve1" fill="#808080" d="M6400 2880l0 135 -2560 1478 0 -1613 2560 0zm0 873l0 1182 -2560 1478 0 -1182 2560 -1478zm0 1920l0 1182 -2560 1478 0 -1182 2560 -1478zm0 1920l0 1047 -1280 1280 -1007 -1007 2287 -1320z"/>
	<path id="curve0" fill="#808080" d="M2880 640l1920 0 0 960 640 0 0 -960 1920 0c353,0 640,288 640,640l0 1280 -5760 0 0 -1280c0,-353 288,-640 640,-640z"/>
</svg>
