<?xml version="1.0" encoding="UTF-8"?>
<!DOCTYPE svg PUBLIC "-//W3C//DTD SVG 1.1//EN" "http://www.w3.org/Graphics/SVG/1.1/DTD/svg11.dtd">
<svg xmlns="http://www.w3.org/2000/svg" xml:space="preserve" width="1024px" height="1024px" shape-rendering="geometricPrecision" text-rendering="geometricPrecision" image-rendering="optimizeQuality" fill-rule="nonzero" clip-rule="evenodd" viewBox="0 0 10240 10240" xmlns:xlink="http://www.w3.org/1999/xlink">
	<title>books icon</title>
	<desc>books icon from the IconExperience.com O-Collection. Copyright by INCORS GmbH (www.incors.com).</desc>
	<path id="curve1" fill="#808080" d="M7680 7680c353,0 640,-287 640,-640 0,-1920 0,-1920 0,-3840 0,-353 -287,-640 -640,-640l-561 0c150,169 241,393 241,640l0 1920 0 2560 320 0zm-3754 -5440c-55,-94 -86,-203 -86,-320 0,-353 287,-640 640,-640l2880 0c177,0 320,143 320,320l0 640c237,0 463,87 640,245l0 -1205c0,-362 -287,-645 -640,-640 -1920,0 -1280,0 -3200,0 -707,0 -1280,573 -1280,1280l0 320c242,0 484,0 726,0z"/>
	<path id="curve0" fill="#4D82B8" d="M6400 9600c353,0 640,-287 640,-640 0,-1920 0,-1920 0,-3840 0,-353 -287,-640 -640,-640l-3200 0c-354,0 -640,-287 -640,-640 0,-353 286,-640 640,-640l2880 0c177,0 320,143 320,320l0 640c237,0 463,86 640,245l0 -1205c0,-362 -287,-645 -640,-640 -1920,0 -1280,0 -3200,0 -707,0 -1280,573 -1280,1280l0 4480c0,707 573,1280 1280,1280l3200 0z"/>
</svg>
