<?xml version="1.0" encoding="UTF-8"?>
<!DOCTYPE svg PUBLIC "-//W3C//DTD SVG 1.1//EN" "http://www.w3.org/Graphics/SVG/1.1/DTD/svg11.dtd">
<svg xmlns="http://www.w3.org/2000/svg" xml:space="preserve" width="1024px" height="1024px" shape-rendering="geometricPrecision" text-rendering="geometricPrecision" image-rendering="optimizeQuality" fill-rule="nonzero" clip-rule="evenodd" viewBox="0 0 10240 10240" xmlns:xlink="http://www.w3.org/1999/xlink">
	<title>bottle_of_pills icon</title>
	<desc>bottle_of_pills icon from the IconExperience.com O-Collection. Copyright by INCORS GmbH (www.incors.com).</desc>
	<path id="curve4" fill="#4D82B8" d="M423 8751c-237,-474 -48,-1049 425,-1288l1717 -863c463,-232 1028,-55 1274,402 59,94 99,249 111,358l-430 0c-353,0 -673,144 -905,375 -306,307 -435,743 -349,1163l-555 279c-473,238 -1050,48 -1288,-426z"/>
	<path id="curve3" fill="#E68497" d="M3520 7680l1920 0c529,0 960,431 960,960 0,529 -431,960 -960,960l-1920 0c-529,0 -960,-431 -960,-960 0,-529 431,-960 960,-960z"/>
	<path id="curve2" fill="#808080" d="M4480,4480 8320,4480 8320,7040 4480,7040z"/>
	<path id="curve1" fill="#808080" d="M4480 2272l0 -32 640 0c0,458 -320,881 -768,973 -296,60 -512,324 -512,627l0 2657c-182,-160 -405,-264 -640,-302l0 -435 0 -1920c0,-617 441,-1135 1024,-1254 151,-31 256,-160 256,-314zm2200 6688l1640 -1c358,0 640,-292 640,-640l0 -4480c-1,-302 -217,-566 -512,-626 -475,-97 -768,-497 -768,-973l320 0 320 0 0 32c0,154 105,283 256,314 583,119 1024,637 1024,1254l0 1920 0 2560c0,412 -196,780 -500,1014l0 0 -1 0c-216,167 -486,266 -779,266l-2034 0c189,-167 329,-389 394,-640zm-2840 -2463l0 -1164 0 1164 0 0z"/>
	<path id="curve0" fill="#808080" d="M4160 640l4480 0c176,0 320,144 320,320l0 640c0,176 -144,320 -320,320l-4480 0c-176,0 -320,-144 -320,-320l0 -640c0,-176 144,-320 320,-320z"/>
</svg>
