<?xml version="1.0" encoding="UTF-8"?>
<!DOCTYPE svg PUBLIC "-//W3C//DTD SVG 1.1//EN" "http://www.w3.org/Graphics/SVG/1.1/DTD/svg11.dtd">
<svg xmlns="http://www.w3.org/2000/svg" xml:space="preserve" width="1024px" height="1024px" shape-rendering="geometricPrecision" text-rendering="geometricPrecision" image-rendering="optimizeQuality" fill-rule="nonzero" clip-rule="evenodd" viewBox="0 0 10240 10240" xmlns:xlink="http://www.w3.org/1999/xlink">
	<title>bow_tie icon</title>
	<desc>bow_tie icon from the IconExperience.com O-Collection. Copyright by INCORS GmbH (www.incors.com).</desc>
	<path id="curve2" fill="#808080" d="M4809 5550l599 0c330,0 599,270 599,600l0 599c0,330 -269,599 -599,599l-599 0c-330,0 -599,-269 -599,-599l0 -599c0,-330 269,-600 599,-600z"/>
	<path id="curve1" fill="#808080" d="M2438 4993c613,0 1054,343 1587,645 -73,120 -115,261 -115,412l0 799c0,185 64,356 171,492 -490,318 -870,712 -1643,712 -219,0 -437,-219 -437,-437 0,-437 -111,-723 -111,-1078 0,-437 111,-722 111,-1108 0,-219 177,-437 437,-437zm5357 0c-617,0 -1060,348 -1599,652 70,118 111,257 111,405l0 799c0,182 -62,351 -165,485 495,319 874,719 1653,719 219,0 437,-219 437,-437 0,-437 90,-830 90,-1185 0,-437 -90,-615 -90,-1001 0,-219 -177,-437 -437,-437z"/>
	<path id="curve0" fill="#808080" d="M5120 1920c1200,0 2293,281 3090,734 859,489 1390,1190 1390,1986 0,58 -3,116 -9,174 6,50 9,102 9,153 0,595 -378,1129 -1012,1541 1,-26 1,-51 1,-77 0,-214 -24,-402 -56,-612l-1 -11 0 -1 -1 -2 0 -3 0 -1 -1 -2 0 -3 0 -1 -1 -2 0 -3 0 -1 0 -2 -1 -3 0 -1 0 -3 -1 -3 0 -1 0 -2 -1 -3 0 -1 0 -2 -1 -3 0 -1 0 -2 0 -3 -1 -1 0 -2 0 -3 0 -1 -1 -2 0 -3 0 -1 0 -2 -1 -3 0 -1 0 -2 -1 -3 0 -1 0 -3 0 -3 -1 0 0 -3 0 -3 0 0 -1 -3 0 -3 0 0 0 -3 -1 -3 0 0 0 -3 -1 -3 0 0 0 -3 0 -3 0 0 -1 -3 0 -3 0 0 0 -3 -1 -3 0 0 0 -3 0 -3 0 0 -1 -3 0 -3 0 0 0 -3 -1 -3 0 0 0 -3 0 -3 0 0 -1 -3 0 -3 0 -1 0 -3 -1 -3 0 0 0 -3 0 -3 0 0 -1 -3 0 -3 0 0 0 -3 -1 -3 0 0 0 -3 0 -3 0 0 0 -3 -1 -3 0 0 0 -3 0 -3 0 0c261,-244 430,-516 479,-799 -79,-401 -463,-776 -1043,-1068 -717,-361 -1714,-584 -2824,-584 -1110,0 -2107,223 -2824,584 -580,292 -964,667 -1043,1068 49,280 215,550 472,792l0 3 0 2 -1 1 0 3 0 2 0 1 0 4 0 0 -1 3 0 3 0 0 0 3 -1 3 0 0 0 3 0 3 0 0 -1 3 0 3 0 0 0 3 0 2 -1 1 0 3 0 2 0 1 -1 3 0 2 0 1 0 3 0 2 -1 1 0 3 0 2 0 1 -1 3 0 1 0 3 0 3 -1 0 0 3 -1 6 0 3 0 0 0 3 -1 2 0 1 0 3 0 2 -1 1 0 3 0 2 0 1 -1 3 0 3 -1 3 0 2 0 1 0 3 -1 1 0 2 0 3 0 1 -1 2 0 4 0 0 0 3 -1 3 0 0 0 3 -1 3 0 0 0 3 -1 2 0 1 0 3 0 2 -1 1 0 3 0 2 0 1 -1 3 0 2 0 1 -1 3 0 2 0 1 -1 3 0 1 0 2 -1 3 0 1 0 3 -1 3 0 0c-35,235 -72,450 -77,687 -616,-410 -983,-936 -983,-1522 0,-51 3,-103 9,-153 -6,-58 -9,-116 -9,-174 0,-796 531,-1497 1390,-1986 797,-453 1890,-734 3090,-734z"/>
</svg>
