<?xml version="1.0" encoding="UTF-8"?>
<!DOCTYPE svg PUBLIC "-//W3C//DTD SVG 1.1//EN" "http://www.w3.org/Graphics/SVG/1.1/DTD/svg11.dtd">
<svg xmlns="http://www.w3.org/2000/svg" xml:space="preserve" width="1024px" height="1024px" shape-rendering="geometricPrecision" text-rendering="geometricPrecision" image-rendering="optimizeQuality" fill-rule="nonzero" clip-rule="evenodd" viewBox="0 0 10240 10240" xmlns:xlink="http://www.w3.org/1999/xlink">
	<title>box_tall icon</title>
	<desc>box_tall icon from the IconExperience.com O-Collection. Copyright by INCORS GmbH (www.incors.com).</desc>
	<path id="curve0" fill="#4D82B8" d="M3840 3200l3200 0 1280 -1280 -5120 0 640 1280zm-1280 640l0 5120 3840 0 0 -5120 -3840 0zm5760 -1920l894 0c142,0 214,172 113,273l-913 913c-29,29 -60,51 -94,66l0 4883c0,176 -63,328 -187,452l-906 906c-124,124 -276,187 -452,187l-4535 0c-176,0 -320,-144 -320,-320l0 -6080 -894 0c-142,0 -214,-172 -113,-273l913 -913c63,-63 138,-94 227,-94l1147 0 552 -1103c55,-111 162,-177 286,-177l4663 0c57,0 106,27 136,76 30,48 33,104 7,156l-524 1048z"/>
</svg>
