<?xml version="1.0" encoding="UTF-8"?>
<!DOCTYPE svg PUBLIC "-//W3C//DTD SVG 1.1//EN" "http://www.w3.org/Graphics/SVG/1.1/DTD/svg11.dtd">
<svg xmlns="http://www.w3.org/2000/svg" xml:space="preserve" width="1024px" height="1024px" shape-rendering="geometricPrecision" text-rendering="geometricPrecision" image-rendering="optimizeQuality" fill-rule="nonzero" clip-rule="evenodd" viewBox="0 0 10240 10240" xmlns:xlink="http://www.w3.org/1999/xlink">
	<title>bucket icon</title>
	<desc>bucket icon from the IconExperience.com O-Collection. Copyright by INCORS GmbH (www.incors.com).</desc>
	<path id="curve2" fill="#333333" d="M7680 8960l0 320c0,176 -144,320 -320,320l-4480 0c-176,0 -320,-144 -320,-320l0 -320 5120 0z"/>
	<path id="curve1" fill="#808080" d="M5120 2560c353,0 640,287 640,640 0,57 -8,113 -22,166l3128 3128c125,125 125,327 0,452 -125,125 -327,125 -452,0l-3128 -3128c-53,14 -109,22 -166,22 -353,0 -640,-287 -640,-640 0,-353 287,-640 640,-640z"/>
	<path id="curve0" fill="#808080" d="M7680 8960l0 320c0,176 -144,320 -320,320l-4480 0c-176,0 -320,-144 -320,-320l0 -320 5120 0zm-5120 -320l-1274 -6360c-19,-92 6,-178 70,-250 64,-72 150,-110 250,-110l7028 0c100,0 186,38 250,110 64,72 89,158 70,250l-642 3207 -2234 -2234c31,-550 -406,-1013 -958,-1013 -530,0 -960,430 -960,960 0,552 463,989 1013,958l2837 2837 -330 1645 -5120 0z"/>
</svg>
