<?xml version="1.0" encoding="UTF-8"?>
<!DOCTYPE svg PUBLIC "-//W3C//DTD SVG 1.1//EN" "http://www.w3.org/Graphics/SVG/1.1/DTD/svg11.dtd">
<svg xmlns="http://www.w3.org/2000/svg" xml:space="preserve" width="1024px" height="1024px" shape-rendering="geometricPrecision" text-rendering="geometricPrecision" image-rendering="optimizeQuality" fill-rule="nonzero" clip-rule="evenodd" viewBox="0 0 10240 10240" xmlns:xlink="http://www.w3.org/1999/xlink">
	<title>bull icon</title>
	<desc>bull icon from the IconExperience.com O-Collection. Copyright by INCORS GmbH (www.incors.com).</desc>
	<path id="curve0" fill="#B89A7C" d="M2296 4989l0 0 -6 0 -1 0 -1 0 -5 0 -3 0 -5 1 -2 0c-145,0 -291,0 -437,0 -160,0 -303,-48 -414,-165 -113,-120 -166,-283 -213,-438 -32,-108 -54,-222 -74,-333 -20,-112 -37,-225 -57,-337 -10,-57 -26,-154 -51,-206 -86,-180 -94,-402 -77,-599 7,-84 9,-171 13,-256 3,-68 7,-135 12,-202 -489,-185 -655,-584 -655,-1104l0 -242 171 171c327,327 484,493 954,501 102,-72 263,-54 378,-36 78,11 180,37 256,37 50,0 114,-15 162,-24 86,-16 171,-32 258,-42 201,-24 412,-20 599,66 264,-2 539,-24 768,-170 138,-88 262,-216 377,-332l178 -178 -7 251c-9,288 -79,587 -263,814 -153,188 -374,313 -667,350 -87,11 -149,91 -138,178 11,88 91,149 178,138 380,-48 671,-214 874,-464 90,-111 161,-236 215,-375 43,7 86,14 128,23 543,105 943,296 1520,296 333,0 669,15 1001,40 347,25 1091,77 1421,226 329,149 584,375 754,695 305,575 265,1321 265,1957 0,605 -143,1365 -256,1942 -39,198 -64,395 -64,598l0 1020c0,88 -72,160 -160,160l-411 0c-93,0 -202,-8 -268,-83 -86,-98 -41,-241 6,-347 12,-44 15,-117 18,-164 8,-103 12,-326 13,-429 1,-98 3,-354 -31,-441 -21,-52 -68,-112 -97,-163 -53,-98 -80,-196 -84,-306 -63,-140 -225,-239 -345,-327 -145,-107 -271,-219 -353,-383 -66,-131 -141,-258 -266,-340 -208,-138 -455,-73 -662,30 -371,186 -711,325 -1129,349 -22,117 -63,220 -124,331 -64,115 -132,218 -179,342 -69,181 -88,376 -88,568l0 1360 -558 13c-96,2 -207,-8 -275,-85 -89,-100 -48,-245 0,-355 12,-44 15,-117 18,-164 8,-103 12,-326 13,-429 1,-98 3,-354 -31,-441 -21,-52 -68,-112 -97,-163 -55,-101 -81,-202 -85,-316 -10,-47 -21,-90 -34,-131 -320,161 -672,219 -1011,82 -353,-144 -601,-461 -757,-798 -99,-213 -169,-533 -211,-850l79 0c259,0 492,-149 663,-334 59,-64 55,-165 -9,-225 -65,-60 -165,-56 -225,9 -103,111 -250,219 -406,229zm4589 1295c89,-45 248,-113 342,-51 70,46 121,145 157,217 106,212 261,359 450,498 37,27 168,115 221,172 16,125 54,243 117,357 22,40 56,83 77,123 16,81 12,244 11,322 -1,97 -5,314 -12,411 -2,28 -3,63 -7,93 -69,173 -96,358 -22,524l-458 10c-95,2 -206,-8 -274,-85 -89,-100 -48,-245 0,-355 12,-44 15,-117 18,-164 8,-103 12,-326 13,-429 1,-98 3,-354 -31,-441 -9,-22 -23,-45 -36,-65 -21,-33 -42,-65 -61,-98 -55,-101 -81,-202 -85,-316 -45,-217 -123,-346 -261,-516 -57,-70 -111,-136 -159,-207zm-3575 2236c4,-15 6,-36 8,-51 4,-37 7,-75 10,-113 8,-103 12,-326 13,-429 1,-98 3,-354 -31,-441 -9,-22 -24,-45 -37,-65 -23,-37 -47,-73 -67,-112 244,65 491,58 731,-3 19,58 44,115 75,171 24,43 51,85 78,127 15,82 11,241 10,318 -1,97 -5,314 -12,411 -2,33 -6,66 -9,100 -67,170 -90,354 -18,516l-477 11c-95,2 -206,-8 -274,-85 -89,-100 -48,-245 0,-355z"/>
</svg>
