<?xml version="1.0" encoding="UTF-8"?>
<!DOCTYPE svg PUBLIC "-//W3C//DTD SVG 1.1//EN" "http://www.w3.org/Graphics/SVG/1.1/DTD/svg11.dtd">
<svg xmlns="http://www.w3.org/2000/svg" xml:space="preserve" width="1024px" height="1024px" shape-rendering="geometricPrecision" text-rendering="geometricPrecision" image-rendering="optimizeQuality" fill-rule="nonzero" clip-rule="evenodd" viewBox="0 0 10240 10240" xmlns:xlink="http://www.w3.org/1999/xlink">
	<title>bulldozer icon</title>
	<desc>bulldozer icon from the IconExperience.com O-Collection. Copyright by INCORS GmbH (www.incors.com).</desc>
	<path id="curve3" fill="#808080" d="M6400 7040c115,0 226,15 332,43l-597 597 -4535 0c-354,0 -640,286 -640,640 0,348 279,644 632,640l6 0 4805 0c13,0 25,0 37,-1l1069 0c-221,383 -635,641 -1109,641l-2 0 -4796 0 -2 0c-707,9 -1280,-573 -1280,-1280 0,-707 573,-1280 1280,-1280l4800 0z"/>
	<path id="curve2" fill="#808080" d="M8871 5120l138 0c158,0 290,112 316,267l595 3573 147 295c64,127 -58,268 -193,223l-594 -198 -960 -641c-1707,0 -3413,0 -5120,0 -176,0 -319,-143 -319,-319 0,-176 143,-319 319,-319l3066 0 2120 -2120 181 -542c44,-133 164,-219 304,-219zm-551 2881l0 -1148 -1149 1148 1149 0z"/>
	<path id="curve1" fill="#EDC87E" d="M960 5120l1280 0c176,0 320,144 320,320l0 640c0,176 144,320 320,320l1600 0c176,0 320,-144 320,-320l0 -1280c0,-176 144,-320 320,-320l1280 0c705,0 1280,575 1280,1280l0 375 -695 695c-181,-71 -379,-110 -585,-110l-4800 0c-360,0 -693,119 -960,320l0 -1600c0,-176 144,-320 320,-320z"/>
	<path id="curve0" fill="#808080" d="M5120 2560l0 1600c-353,0 -640,287 -640,640 0,2117 0,1280 0,1280l-1600 0c0,0 0,-640 0,-640 0,-353 -287,-640 -640,-640l-960 0 0 -2240c-176,0 -320,-144 -320,-320 0,-176 144,-320 320,-320l3840 0c176,0 320,144 320,320 0,176 -144,320 -320,320zm-3200 0l0 1600 0 0 2560 0 0 -1600 -2560 0z"/>
</svg>
