<?xml version="1.0" encoding="UTF-8"?>
<!DOCTYPE svg PUBLIC "-//W3C//DTD SVG 1.1//EN" "http://www.w3.org/Graphics/SVG/1.1/DTD/svg11.dtd">
<svg xmlns="http://www.w3.org/2000/svg" xml:space="preserve" width="1024px" height="1024px" shape-rendering="geometricPrecision" text-rendering="geometricPrecision" image-rendering="optimizeQuality" fill-rule="nonzero" clip-rule="evenodd" viewBox="0 0 10240 10240" xmlns:xlink="http://www.w3.org/1999/xlink">
	<title>calibration_mark icon</title>
	<desc>calibration_mark icon from the IconExperience.com O-Collection. Copyright by INCORS GmbH (www.incors.com).</desc>
	<path id="curve0" fill="#808080" d="M5440 1293c1865,154 3353,1642 3507,3507l653 0 0 640 -653 0c-154,1865 -1642,3353 -3507,3507l0 653 -640 0 0 -653c-1865,-154 -3353,-1642 -3507,-3507l-653 0 0 -640 653 0c154,-1865 1642,-3353 3507,-3507l0 -653 640 0 0 653zm2220 3507l644 0c-150,-1512 -1352,-2714 -2864,-2864l0 644c1158,144 2076,1062 2220,2220zm-2220 2860l0 -2220 2220 0c13,-105 20,-212 20,-320 0,-108 -7,-215 -20,-320l-2220 0 0 -2220c-105,-13 -212,-20 -320,-20 -108,0 -215,7 -320,20l0 2220 -2220 0c-13,105 -20,212 -20,320 0,108 7,215 20,320l2220 0 0 2220c105,13 212,20 320,20 108,0 215,-7 320,-20zm-640 0c-1158,-144 -2076,-1062 -2220,-2220l-644 0c150,1512 1352,2714 2864,2864l0 -644zm640 0l0 644c1512,-150 2714,-1352 2864,-2864l-644 0c-144,1158 -1062,2076 -2220,2220zm-2860 -2860c144,-1158 1062,-2076 2220,-2220l0 -644c-1512,150 -2714,1352 -2864,2864l644 0z"/>
</svg>
