<?xml version="1.0" encoding="UTF-8"?>
<!DOCTYPE svg PUBLIC "-//W3C//DTD SVG 1.1//EN" "http://www.w3.org/Graphics/SVG/1.1/DTD/svg11.dtd">
<svg xmlns="http://www.w3.org/2000/svg" xml:space="preserve" width="1024px" height="1024px" shape-rendering="geometricPrecision" text-rendering="geometricPrecision" image-rendering="optimizeQuality" fill-rule="nonzero" clip-rule="evenodd" viewBox="0 0 10240 10240" xmlns:xlink="http://www.w3.org/1999/xlink">
	<title>car_sports icon</title>
	<desc>car_sports icon from the IconExperience.com O-Collection. Copyright by INCORS GmbH (www.incors.com).</desc>
	<path id="curve1" fill="#808080" d="M2560 9021l0 259c0,176 -144,320 -320,320l-1280 0c-176,0 -320,-144 -320,-320l0 -1226c183,341 550,906 960,906l914 0c16,18 33,43 46,61zm5120 0l0 259c0,176 144,320 320,320l1280 0c176,0 320,-144 320,-320l0 -1226c-183,341 -550,906 -960,906l-914 0c-16,18 -33,43 -46,61z"/>
	<path id="curve0" fill="#4D82B8" d="M1600 5760c320,-640 640,-1280 1280,-1600 960,-320 1920,-320 2240,-320 320,0 1280,0 2240,320 640,320 960,960 1280,1600 704,268 960,377 960,1280 0,534 -640,1600 -960,1600l-960 0c-298,0 -320,640 -960,640l-3200 0c-640,0 -662,-640 -960,-640l-960 0c-320,0 -960,-1066 -960,-1600 0,-902 257,-1012 960,-1280zm2198 1920c-121,0 -225,62 -282,169 -57,107 -52,228 16,328l213 321c61,91 156,142 266,142l2218 0c110,0 205,-51 266,-143l213 -320c68,-100 73,-221 16,-328 -57,-107 -161,-169 -282,-169l-2644 0zm-1238 -368c-312,-311 -1600,-960 -1600,-320 0,177 86,435 205,566 258,284 2035,394 1395,-246zm5120 0c-640,640 1137,530 1395,246 119,-131 205,-389 205,-566 0,-640 -1288,9 -1600,320zm320 -1872c-212,-377 -422,-721 -813,-919 -667,-212 -1368,-280 -2067,-280 -699,0 -1400,68 -2067,280 -391,198 -601,542 -813,919 -29,52 -26,112 10,161 36,48 93,71 154,61 1205,-204 4227,-204 5432,0 61,10 118,-13 154,-61 36,-49 39,-109 10,-161z"/>
</svg>
