<?xml version="1.0" encoding="UTF-8"?>
<!DOCTYPE svg PUBLIC "-//W3C//DTD SVG 1.1//EN" "http://www.w3.org/Graphics/SVG/1.1/DTD/svg11.dtd">
<svg xmlns="http://www.w3.org/2000/svg" xml:space="preserve" width="1024px" height="1024px" shape-rendering="geometricPrecision" text-rendering="geometricPrecision" image-rendering="optimizeQuality" fill-rule="nonzero" clip-rule="evenodd" viewBox="0 0 10240 10240" xmlns:xlink="http://www.w3.org/1999/xlink">
	<title>chart_step icon</title>
	<desc>chart_step icon from the IconExperience.com O-Collection. Copyright by INCORS GmbH (www.incors.com).</desc>
	<path id="curve2" fill="#4D82B8" d="M1600,7680 2560,7680 2560,5760 4480,5760 4480,7040 5120,7040 5120,5120 7040,5120 7040,7040 7680,7040 7680,6400 9280,6400 9280,7040 8320,7040 8320,7680 6400,7680 6400,5760 5760,5760 5760,7680 3840,7680 3840,6400 3200,6400 3200,8320 1600,8320z"/>
	<path id="curve1" fill="#EDC87E" d="M1600,2560 3200,2560 3200,3840 3840,3840 3840,1920 5120,1920 5120,1280 7040,1280 7040,3200 8320,3200 8320,4480 9280,4480 9280,5120 7680,5120 7680,3840 6400,3840 6400,1920 5760,1920 5760,2560 4480,2560 4480,4480 2560,4480 2560,3200 1600,3200z"/>
	<path id="curve0" fill="#808080" d="M640,1280 1280,1280 1280,8960 9600,8960 9600,9600 1280,9600 640,9600 640,8960z"/>
</svg>
