<?xml version="1.0" encoding="UTF-8"?>
<!DOCTYPE svg PUBLIC "-//W3C//DTD SVG 1.1//EN" "http://www.w3.org/Graphics/SVG/1.1/DTD/svg11.dtd">
<svg xmlns="http://www.w3.org/2000/svg" xml:space="preserve" width="1024px" height="1024px" shape-rendering="geometricPrecision" text-rendering="geometricPrecision" image-rendering="optimizeQuality" fill-rule="nonzero" clip-rule="evenodd" viewBox="0 0 10240 10240" xmlns:xlink="http://www.w3.org/1999/xlink">
	<title>chart_renko icon</title>
	<desc>chart_renko icon from the IconExperience.com O-Collection. Copyright by INCORS GmbH (www.incors.com).</desc>
	<path id="curve2" fill="#4D82B8" d="M5440 5120l960 0 0 1280 -960 0 0 -1280zm1280 -1280l960 0 0 1280 -960 0 0 -1280z"/>
	<path id="curve1" fill="#EDC87E" d="M8000 5120l960 0 0 1280 -960 0 0 -1280zm-6400 -1280l960 0 0 1280 -960 0 0 -1280zm1280 1280l960 0 0 1280 -960 0 0 -1280zm1280 1280l960 0 0 1280 -960 0 0 -1280z"/>
	<path id="curve0" fill="#808080" d="M640,1280 1280,1280 1280,8960 9600,8960 9600,9600 1280,9600 640,9600 640,8960z"/>
</svg>
