<?xml version="1.0" encoding="UTF-8"?>
<!DOCTYPE svg PUBLIC "-//W3C//DTD SVG 1.1//EN" "http://www.w3.org/Graphics/SVG/1.1/DTD/svg11.dtd">
<svg xmlns="http://www.w3.org/2000/svg" xml:space="preserve" width="1024px" height="1024px" shape-rendering="geometricPrecision" text-rendering="geometricPrecision" image-rendering="optimizeQuality" fill-rule="nonzero" clip-rule="evenodd" viewBox="0 0 10240 10240" xmlns:xlink="http://www.w3.org/1999/xlink">
	<title>chest_out icon</title>
	<desc>chest_out icon from the IconExperience.com O-Collection. Copyright by INCORS GmbH (www.incors.com).</desc>
	<path id="curve3" fill="#B89A7C" d="M8960 4978l0 2626c0,249 -132,462 -354,573l-2687 1343 10 -3015 3031 -1527zm-3359 4542l-3967 -1983c-222,-111 -354,-324 -354,-573l0 -2486c292,390 758,642 1280,642l284 0 36 18 0 424c0,124 66,231 177,286l640 320c213,107 463,-47 463,-286l0 -104 1441 720 0 3022z"/>
	<path id="curve2" fill="#808080" d="M3196 3264l511 256 -629 0c64,-71 105,-159 118,-256zm948 475l1977 991c15,9 43,14 56,15l2206 165 -2623 1312 -1600 -800 0 -104c0,-107 -48,-200 -132,-259 80,-59 132,-153 132,-259l0 -960c0,-35 -6,-69 -16,-101z"/>
	<path id="curve1" fill="#B89A7C" d="M2343 1235c493,-588 1158,-970 1711,-928 127,10 240,42 338,91l3996 1998c-921,115 -1792,956 -2175,1764l-99 210 -2914 -1457 0 -449c0,-158 -55,-302 -158,-421l-699 -808zm6917 1853c138,345 93,830 -140,1351l-92 206 -2595 -202 69 -147c350,-739 1273,-1653 2154,-1590 266,20 485,139 604,382z"/>
	<path id="curve0" fill="#4D82B8" d="M2880 2464l0 736c0,68 -40,126 -103,150 -64,24 -133,8 -177,-44l-360 -426 0 640c0,176 144,320 320,320l1280 0 0 960 -1280 0c-705,0 -1280,-575 -1280,-1280l0 -320 0 -320 -360 426c-44,51 -113,68 -177,44 -63,-24 -103,-82 -103,-150l0 -736c0,-81 28,-150 80,-212l787 -930c129,-154 355,-153 487,-1l806 931c53,62 80,131 80,212z"/>
</svg>
