<?xml version="1.0" encoding="UTF-8"?>
<!DOCTYPE svg PUBLIC "-//W3C//DTD SVG 1.1//EN" "http://www.w3.org/Graphics/SVG/1.1/DTD/svg11.dtd">
<svg xmlns="http://www.w3.org/2000/svg" xml:space="preserve" width="1024px" height="1024px" shape-rendering="geometricPrecision" text-rendering="geometricPrecision" image-rendering="optimizeQuality" fill-rule="nonzero" clip-rule="evenodd" viewBox="0 0 10240 10240" xmlns:xlink="http://www.w3.org/1999/xlink">
	<title>chest icon</title>
	<desc>chest icon from the IconExperience.com O-Collection. Copyright by INCORS GmbH (www.incors.com).</desc>
	<path id="curve1" fill="#B89A7C" d="M8960 4978l0 2626c0,249 -132,462 -354,573l-2686 1343 0 -3022 3040 -1520zm-3360 4542l-3966 -1983c-222,-111 -354,-324 -354,-573l0 -2626 1600 800 0 424c0,124 66,231 177,286l640 320c102,52 214,46 311,-14 97,-60 152,-158 152,-272l0 -104 1440 720 0 3022z"/>
	<path id="curve0" fill="#B89A7C" d="M1280 3546c0,-884 697,-1977 1580,-2404 456,-220 873,-235 1169,-76l3961 1959c-199,24 -413,85 -634,186 -908,418 -1756,1528 -1756,2549l0 382 -1440 -720 0 -104c0,-124 -66,-231 -177,-286l-640 -320c-102,-51 -214,-46 -311,14 -38,23 -69,52 -93,85l-1659 -829 0 -436zm7680 614l0 462 -3040 1520 0 -382c0,-896 773,-1893 1568,-2259 333,-152 788,-255 1125,-59 272,158 347,424 347,718z"/>
</svg>
