<?xml version="1.0" encoding="UTF-8"?>
<!DOCTYPE svg PUBLIC "-//W3C//DTD SVG 1.1//EN" "http://www.w3.org/Graphics/SVG/1.1/DTD/svg11.dtd">
<svg xmlns="http://www.w3.org/2000/svg" xml:space="preserve" width="1024px" height="1024px" shape-rendering="geometricPrecision" text-rendering="geometricPrecision" image-rendering="optimizeQuality" fill-rule="nonzero" clip-rule="evenodd" viewBox="0 0 10240 10240" xmlns:xlink="http://www.w3.org/1999/xlink">
	<title>chess_piece_bishop icon</title>
	<desc>chess_piece_bishop icon from the IconExperience.com O-Collection. Copyright by INCORS GmbH (www.incors.com).</desc>
	<path id="curve2" fill="#808080" d="M2880 8320l4480 0c176,0 320,144 320,320l0 640c0,176 -144,320 -320,320l-4480 0c-176,0 -320,-144 -320,-320l0 -640c0,-176 144,-320 320,-320z"/>
	<path id="curve1" fill="#808080" d="M4160 5440l1920 0c0,1225 320,1516 881,2155 53,61 79,130 79,211l0 194 -3840 0 0 -194c0,-81 26,-150 79,-211 561,-639 881,-930 881,-2155z"/>
	<path id="curve0" fill="#808080" d="M5760 1920l0 0 0 139c561,248 952,810 952,1463 0,360 -119,693 -320,960l320 0 0 640 -1600 0 -1600 0 0 -640 320 0c-201,-267 -320,-600 -320,-960 0,-527 255,-995 648,-1286l0 966 320 320 0 -1470 0 -132 0 0c0,-353 287,-640 640,-640 353,0 640,287 640,640z"/>
</svg>
