<?xml version="1.0" encoding="UTF-8"?>
<!DOCTYPE svg PUBLIC "-//W3C//DTD SVG 1.1//EN" "http://www.w3.org/Graphics/SVG/1.1/DTD/svg11.dtd">
<svg xmlns="http://www.w3.org/2000/svg" xml:space="preserve" width="1024px" height="1024px" shape-rendering="geometricPrecision" text-rendering="geometricPrecision" image-rendering="optimizeQuality" fill-rule="nonzero" clip-rule="evenodd" viewBox="0 0 10240 10240" xmlns:xlink="http://www.w3.org/1999/xlink">
	<title>christmas_ball icon</title>
	<desc>christmas_ball icon from the IconExperience.com O-Collection. Copyright by INCORS GmbH (www.incors.com).</desc>
	<path id="curve0" fill="#4D82B8" d="M6400 2139c1491,527 2560,1949 2560,3621 0,2121 -1719,3840 -3840,3840 -2121,0 -3840,-1719 -3840,-3840 0,-1672 1069,-3094 2560,-3621l0 -539c0,-176 144,-320 320,-320l640 0 0 -960 640 0 0 960 640 0c176,0 320,144 320,320l0 539zm-1600 -539l0 0 -640 0c0,0 0,0 0,0l0 765 -213 75c-737,261 -1366,762 -1787,1414 165,135 339,254 528,358 1108,610 2312,84 3203,-652 420,-346 877,-537 1370,-594 -292,-224 -618,-402 -968,-525l-213 -76 0 -765c0,0 0,0 0,0l-640 0 0 0 -640 0zm454 3300c-18,-60 -71,-100 -134,-100 -63,0 -116,40 -134,100l-304 1022 -1022 -2c-60,0 -112,36 -132,94 -20,57 -2,118 46,155l837 656 -316 1044c-18,60 4,121 56,156 51,35 116,33 165,-6l804 -635 804 635c49,39 114,41 165,6 52,-35 73,-96 56,-156l-316 -1044 837 -656c48,-37 66,-98 46,-155 -20,-58 -72,-94 -132,-94l-1022 2 -304 -1022z"/>
</svg>
