<?xml version="1.0" encoding="UTF-8"?>
<!DOCTYPE svg PUBLIC "-//W3C//DTD SVG 1.1//EN" "http://www.w3.org/Graphics/SVG/1.1/DTD/svg11.dtd">
<svg xmlns="http://www.w3.org/2000/svg" xml:space="preserve" width="1024px" height="1024px" shape-rendering="geometricPrecision" text-rendering="geometricPrecision" image-rendering="optimizeQuality" fill-rule="nonzero" clip-rule="evenodd" viewBox="0 0 10240 10240" xmlns:xlink="http://www.w3.org/1999/xlink">
	<title>church icon</title>
	<desc>church icon from the IconExperience.com O-Collection. Copyright by INCORS GmbH (www.incors.com).</desc>
	<path id="curve0" fill="#808080" d="M2560 640l1920 3840 3840 0 1280 1280 0 3840 -8960 0 0 -5120 1920 -3840zm-960 7360l0 1280 1920 0 0 -1280c0,-960 -320,-1280 -960,-1615 -640,335 -960,655 -960,1615zm5760 -960l0 1280 960 0 0 -1280c0,-488 -240,-731 -480,-975 -240,244 -480,487 -480,975zm-1920 0l0 1280 960 0 0 -1280c0,-488 -240,-731 -480,-975 -240,244 -480,487 -480,975zm-3840 -3200l0 640 640 0 0 1280 640 0 0 -1280 640 0 0 -640 -640 0 0 -640 -640 0 0 640 -640 0z"/>
</svg>
