<?xml version="1.0" encoding="UTF-8"?>
<!DOCTYPE svg PUBLIC "-//W3C//DTD SVG 1.1//EN" "http://www.w3.org/Graphics/SVG/1.1/DTD/svg11.dtd">
<svg xmlns="http://www.w3.org/2000/svg" xml:space="preserve" width="1024px" height="1024px" shape-rendering="geometricPrecision" text-rendering="geometricPrecision" image-rendering="optimizeQuality" fill-rule="nonzero" clip-rule="evenodd" viewBox="0 0 10240 10240" xmlns:xlink="http://www.w3.org/1999/xlink">
	<title>clapperboard_closed icon</title>
	<desc>clapperboard_closed icon from the IconExperience.com O-Collection. Copyright by INCORS GmbH (www.incors.com).</desc>
	<path id="curve1" fill="#808080" d="M1280 5110l7680 0 0 10 0 3840c0,353 -287,640 -640,640l-6400 0c-353,0 -640,-287 -640,-640l0 -3840 0 -10zm640 2890l0 320 6400 0 0 -320 -6400 0zm0 -1600l0 320 6400 0 0 -320 -6400 0z"/>
	<path id="curve0" fill="#808080" d="M1280 2560l7680 0c176,0 320,144 320,320l0 960 0 960c0,176 -144,320 -320,320l-7680 0c-176,0 -320,-144 -320,-320l0 -960 0 -960c0,-176 144,-320 320,-320zm320 1600c-177,0 -320,143 -320,320 0,177 143,320 320,320 177,0 320,-143 320,-320 0,-177 -143,-320 -320,-320zm0 -1280c-177,0 -320,143 -320,320 0,177 143,320 320,320 177,0 320,-143 320,-320 0,-177 -143,-320 -320,-320zm1946 0l-1315 0 935 960 -935 960 1315 0 934 -960 -934 -960zm5414 302l-295 -302 -1314 0 935 960 -935 960 1314 0 295 -303c0,-438 0,-876 0,-1315zm-1920 658l-935 -960 -1314 0 935 960 -935 960 1314 0 935 -960z"/>
</svg>
