<?xml version="1.0" encoding="UTF-8"?>
<!DOCTYPE svg PUBLIC "-//W3C//DTD SVG 1.1//EN" "http://www.w3.org/Graphics/SVG/1.1/DTD/svg11.dtd">
<svg xmlns="http://www.w3.org/2000/svg" xml:space="preserve" width="1024px" height="1024px" shape-rendering="geometricPrecision" text-rendering="geometricPrecision" image-rendering="optimizeQuality" fill-rule="nonzero" clip-rule="evenodd" viewBox="0 0 10240 10240" xmlns:xlink="http://www.w3.org/1999/xlink">
	<title>clef icon</title>
	<desc>clef icon from the IconExperience.com O-Collection. Copyright by INCORS GmbH (www.incors.com).</desc>
	<path id="curve0" fill="#808080" d="M5556 5916c65,-54 150,-83 241,-73 175,19 301,177 282,352 -28,252 -165,458 -380,589l109 658c23,-10 47,-20 70,-31 501,-236 926,-817 832,-1391 -95,-571 -731,-881 -1263,-765l109 661zm-1030 2504c303,0 549,246 549,550 0,115 -35,222 -95,310 330,12 452,-198 400,-514l-96 -582c-964,29 -1884,-489 -2253,-1405 -252,-627 -176,-1450 143,-2041 320,-589 829,-940 1338,-1245l-21 -125c-17,-100 -42,-232 -68,-364 -206,-1047 -419,-2136 1228,-2663 150,-57 321,6 396,151 1077,2076 223,2701 -836,3328l133 805c888,-170 1842,369 1994,1293 156,944 -547,1878 -1425,2164l96 582c90,546 -115,902 -427,1097 -385,239 -941,203 -1296,-77 -506,-400 -408,-1264 240,-1264zm551 -1495c-408,-32 -745,-272 -875,-671 -181,-557 72,-1067 538,-1377l-116 -704c-356,230 -686,497 -888,870 -230,424 -295,1047 -113,1499 255,636 890,995 1556,1004l-102 -621zm-112 -680l-101 -614c-121,186 -118,502 101,614zm133 -3104c628,-405 1051,-891 507,-2099 -840,390 -696,1128 -556,1840 16,83 33,166 49,259z"/>
</svg>
