<?xml version="1.0" encoding="UTF-8"?>
<!DOCTYPE svg PUBLIC "-//W3C//DTD SVG 1.1//EN" "http://www.w3.org/Graphics/SVG/1.1/DTD/svg11.dtd">
<svg xmlns="http://www.w3.org/2000/svg" xml:space="preserve" width="1024px" height="1024px" shape-rendering="geometricPrecision" text-rendering="geometricPrecision" image-rendering="optimizeQuality" fill-rule="nonzero" clip-rule="evenodd" viewBox="0 0 10240 10240" xmlns:xlink="http://www.w3.org/1999/xlink">
	<title>clipboard_checks icon</title>
	<desc>clipboard_checks icon from the IconExperience.com O-Collection. Copyright by INCORS GmbH (www.incors.com).</desc>
	<path id="curve3" fill="#EDC87E" d="M2560 1920l0 7040 5120 0 0 -7040c353,0 640,288 640,640l0 6400c0,352 -288,640 -640,640l-5120 0c-352,0 -640,-287 -640,-640l0 -6400c0,-353 288,-640 640,-640zm1280 0l2560 0 0 320 -2560 0 0 -320z"/>
	<path id="curve2" fill="#808080" d="M3840 1600c-175,0 -320,145 -320,320l0 320c0,175 145,320 320,320l2560 0c175,0 320,-145 320,-320l0 -320c0,-176 -145,-320 -320,-320l-2560 0zm2560 -640c529,0 960,431 960,960l0 320c0,529 -431,640 -960,640l-2560 0c-529,0 -960,-111 -960,-640l0 -320c0,-529 431,-960 960,-960 0,-177 573,-640 1280,-640 707,0 1280,463 1280,640zm-1280 -320c-177,0 -320,143 -320,320 0,177 143,320 320,320 177,0 320,-143 320,-320 0,-177 -143,-320 -320,-320z"/>
	<path id="curve1" fill="#4D82B8" d="M3633 7247l414 -414c62,-62 164,-62 226,0l527 527 1487 -1487c62,-62 164,-62 226,0l414 414c62,62 62,164 0,226l-2014 2014c-62,62 -164,62 -226,0l-1054 -1054c-62,-62 -62,-164 0,-226z"/>
	<path id="curve0" fill="#4D82B8" d="M3633 4687l414 -414c62,-62 164,-62 226,0l527 527 1487 -1487c62,-62 164,-62 226,0l414 414c62,62 62,164 0,226l-2014 2014c-62,62 -164,62 -226,0l-1054 -1054c-62,-62 -62,-164 0,-226z"/>
</svg>
