<?xml version="1.0" encoding="UTF-8"?>
<!DOCTYPE svg PUBLIC "-//W3C//DTD SVG 1.1//EN" "http://www.w3.org/Graphics/SVG/1.1/DTD/svg11.dtd">
<svg xmlns="http://www.w3.org/2000/svg" xml:space="preserve" width="1024px" height="1024px" shape-rendering="geometricPrecision" text-rendering="geometricPrecision" image-rendering="optimizeQuality" fill-rule="nonzero" clip-rule="evenodd" viewBox="0 0 10240 10240" xmlns:xlink="http://www.w3.org/1999/xlink">
	<title>cloud_updown icon</title>
	<desc>cloud_updown icon from the IconExperience.com O-Collection. Copyright by INCORS GmbH (www.incors.com).</desc>
	<path id="curve2" fill="#4D82B8" d="M9733 6907l-1827 -1826c-124,-124 -328,-124 -452,0l-1827 1826c-124,125 -187,277 -187,453l0 1159c0,142 172,214 273,113l1327 -1327 0 2135c0,88 72,160 160,160l960 0c88,0 160,-72 160,-160l0 -2135 1327 1327c101,101 273,29 273,-113l0 -1159c0,-176 -63,-328 -187,-453z"/>
	<path id="curve1" fill="#4D82B8" d="M4613 7813l-1827 1826c-124,124 -328,124 -452,0l-1827 -1826c-124,-125 -187,-277 -187,-453l0 -1159c0,-142 172,-214 273,-113l1327 1327 0 -2135c0,-88 72,-160 160,-160l960 0c88,0 160,72 160,160l0 2135 1327 -1327c101,-101 273,-29 273,113l0 1159c0,176 -63,328 -187,453z"/>
	<path id="curve0" fill="#808080" d="M1920 3039c0,-1325 1075,-2399 2400,-2399 777,0 1492,375 1937,982 100,-15 201,-22 303,-22 1149,0 2080,931 2080,2080 0,11 0,21 0,32 572,292 960,888 960,1568 0,301 -76,585 -209,833l-486 -486c36,-109 55,-226 55,-347 0,-593 -460,-1078 -1043,-1117 54,-151 83,-314 83,-483 0,-795 -645,-1440 -1440,-1440 -218,0 -425,49 -610,135 -262,-642 -893,-1095 -1630,-1095 -972,0 -1760,788 -1760,1760 0,168 23,330 67,483 -752,48 -1347,673 -1347,1437 0,343 120,658 320,905l0 777 -729 -728c-147,-286 -231,-610 -231,-954 0,-861 525,-1606 1280,-1921zm1600 3361l243 0 -243 242 0 -242zm1600 0l562 0 -281 281c-105,105 -181,226 -228,359l-53 0 0 -640z"/>
</svg>
