<?xml version="1.0" encoding="UTF-8"?>
<!DOCTYPE svg PUBLIC "-//W3C//DTD SVG 1.1//EN" "http://www.w3.org/Graphics/SVG/1.1/DTD/svg11.dtd">
<svg xmlns="http://www.w3.org/2000/svg" xml:space="preserve" width="1024px" height="1024px" shape-rendering="geometricPrecision" text-rendering="geometricPrecision" image-rendering="optimizeQuality" fill-rule="nonzero" clip-rule="evenodd" viewBox="0 0 10240 10240" xmlns:xlink="http://www.w3.org/1999/xlink">
	<title>coffee_beans icon</title>
	<desc>coffee_beans icon from the IconExperience.com O-Collection. Copyright by INCORS GmbH (www.incors.com).</desc>
	<path id="curve2" fill="#B89A7C" d="M6091 6091c759,-758 1570,-957 2272,-664 56,23 92,72 98,132 6,60 -20,115 -71,148 -169,113 -324,240 -466,382 -335,335 -590,749 -764,1241 -141,399 -346,733 -614,1001 -195,195 -425,357 -690,484 -69,34 -151,14 -198,-48 -581,-782 -476,-1767 433,-2676zm3140 29c591,784 488,1774 -425,2686 -761,762 -1577,959 -2281,661 -56,-24 -91,-73 -97,-133 -5,-61 22,-115 73,-148 181,-118 347,-252 498,-403 335,-335 590,-749 764,-1241 141,-399 346,-733 614,-1001 187,-186 405,-342 655,-467 70,-35 152,-16 199,46z"/>
	<path id="curve1" fill="#B89A7C" d="M2919 4160c1072,0 1786,433 2076,1136 23,56 14,115 -25,162 -38,47 -95,67 -155,55 -672,-135 -1344,-42 -2016,278 -383,183 -764,274 -1142,274 -276,0 -553,-48 -831,-145 -73,-25 -117,-98 -105,-174 141,-964 912,-1586 2198,-1586zm2199 2242c-136,971 -909,1598 -2199,1598 -1077,0 -1793,-437 -2080,-1146 -23,-56 -14,-116 25,-162 39,-47 97,-67 156,-54 212,45 424,67 637,67 474,0 947,-112 1417,-336 646,-308 1291,-355 1936,-141 74,24 119,97 108,174z"/>
	<path id="curve0" fill="#B89A7C" d="M7270 993c-971,-487 -1815,-418 -2396,89 -46,40 -65,98 -52,158 14,60 57,104 116,120 198,54 388,127 569,217 432,217 809,532 1132,947 265,341 568,596 909,767 250,125 523,207 819,245 77,10 150,-35 174,-110 310,-937 -106,-1850 -1271,-2433zm-3007 1031c-317,941 97,1860 1266,2446 976,488 1823,417 2404,-96 47,-40 65,-99 51,-159 -14,-60 -57,-104 -117,-119 -212,-55 -415,-131 -607,-228 -432,-216 -809,-531 -1132,-946 -265,-341 -568,-597 -909,-767 -239,-120 -499,-200 -780,-240 -78,-11 -151,34 -176,109z"/>
</svg>
