<?xml version="1.0" encoding="UTF-8"?>
<!DOCTYPE svg PUBLIC "-//W3C//DTD SVG 1.1//EN" "http://www.w3.org/Graphics/SVG/1.1/DTD/svg11.dtd">
<svg xmlns="http://www.w3.org/2000/svg" xml:space="preserve" width="1024px" height="1024px" shape-rendering="geometricPrecision" text-rendering="geometricPrecision" image-rendering="optimizeQuality" fill-rule="nonzero" clip-rule="evenodd" viewBox="0 0 10240 10240" xmlns:xlink="http://www.w3.org/1999/xlink">
	<title>cook icon</title>
	<desc>cook icon from the IconExperience.com O-Collection. Copyright by INCORS GmbH (www.incors.com).</desc>
	<path id="curve3" fill="#808080" d="M8000 8605c0,759 -1728,1058 -2880,1058 -1152,0 -2880,-299 -2880,-1057 0,-1630 514,-1893 1468,-2631 198,132 416,236 647,309l-256 198c-930,719 -1212,834 -1219,2074 202,214 1059,371 1312,405 95,12 191,23 288,32l0 -2674c104,27 211,48 320,61l0 2636c107,5 214,7 320,7 309,0 622,-22 929,-62 252,-34 1110,-191 1311,-405 -8,-1241 -288,-1355 -1219,-2074l-256 -198c231,-73 449,-177 647,-309 956,739 1468,1000 1468,2630z"/>
	<path id="curve2" fill="#808080" d="M5440 7680c177,0 320,143 320,320 0,177 -143,320 -320,320 -177,0 -320,-143 -320,-320 0,-177 143,-320 320,-320zm0 -960c177,0 320,143 320,320 0,177 -143,320 -320,320 -177,0 -320,-143 -320,-320 0,-177 143,-320 320,-320z"/>
	<path id="curve1" fill="#EFC1B4" d="M7358 3920c-42,1200 -1028,2160 -2238,2160 -1210,0 -2196,-960 -2238,-2160 199,87 448,120 609,143 531,76 1093,97 1629,97 536,0 1098,-21 1629,-97 161,-23 410,-56 609,-143z"/>
	<path id="curve0" fill="#808080" d="M2880 3085c-386,-320 -640,-787 -640,-1301 0,-1049 971,-1600 1920,-1600 573,0 1068,93 1548,324 274,-219 607,-324 1012,-324 709,0 1280,571 1280,1280 0,451 -264,867 -640,1096l0 960c0,87 -244,166 -640,224l0 -1640c320,0 640,-306 640,-640 0,-355 -283,-640 -640,-640 -320,0 -620,70 -878,503 -722,-503 -1362,-503 -1682,-503 -640,0 -1280,320 -1280,960 0,320 190,730 640,960l0 1000 0 0c-396,-58 -640,-137 -640,-224l0 -435z"/>
</svg>
