<?xml version="1.0" encoding="UTF-8"?>
<!DOCTYPE svg PUBLIC "-//W3C//DTD SVG 1.1//EN" "http://www.w3.org/Graphics/SVG/1.1/DTD/svg11.dtd">
<svg xmlns="http://www.w3.org/2000/svg" xml:space="preserve" width="1024px" height="1024px" shape-rendering="geometricPrecision" text-rendering="geometricPrecision" image-rendering="optimizeQuality" fill-rule="nonzero" clip-rule="evenodd" viewBox="0 0 10240 10240" xmlns:xlink="http://www.w3.org/1999/xlink">
	<title>cow icon</title>
	<desc>cow icon from the IconExperience.com O-Collection. Copyright by INCORS GmbH (www.incors.com).</desc>
	<path id="curve0" fill="#B89A7C" d="M3226 7234c-21,-179 -33,-300 -58,-409 197,-5 397,-42 591,-94 68,162 78,281 106,526 6,165 47,317 128,462 23,44 61,91 83,133 14,61 12,185 12,244 -1,80 -5,161 -12,241 -2,23 -3,49 -7,73 -84,206 -88,395 -22,544 -13,4 -27,6 -41,6l-311 0c-313,0 -406,-167 -279,-451 12,-34 17,-107 20,-144 8,-88 12,-177 13,-266 1,-92 0,-278 -33,-362 -22,-55 -72,-117 -102,-172 -58,-105 -85,-211 -88,-331zm-2402 -5047c-281,-106 -473,-447 -498,-711l-6 -61 56 -33c187,-108 372,-156 589,-111 157,33 299,104 454,142 21,-16 41,-31 62,-47 200,-143 438,-220 689,-171 193,37 451,240 600,411 83,-54 167,-108 261,-145 260,-102 511,-24 747,95l62 32 -6 65c-11,115 -68,223 -138,316 -48,64 -100,120 -154,171 714,12 1259,315 1853,315 567,0 1113,-70 1673,-147 476,-66 962,-133 1443,-95 452,36 848,204 1100,594 349,539 307,1326 307,1955 0,269 -6,548 -44,815 -46,332 -170,636 -217,970 -48,343 -55,707 -55,1053l0 1202c0,87 -71,158 -158,158l-310 0c-314,0 -406,-167 -279,-451 11,-34 16,-107 20,-144 8,-88 12,-177 13,-266 1,-92 0,-278 -34,-362 -21,-55 -71,-117 -101,-172 -58,-105 -85,-211 -88,-331l-82 -698c-18,-154 -106,-377 -182,-510 -197,-344 -435,-404 -746,-129 -385,340 -868,505 -1376,536 -333,20 -734,-19 -1055,-131 -19,80 -35,161 -47,245 -48,343 -55,707 -55,1053l0 1202c0,87 -71,158 -158,158l-310 0c-314,0 -406,-167 -279,-451 11,-34 16,-107 20,-144 8,-88 12,-177 13,-266 1,-92 0,-278 -34,-362 -21,-55 -71,-117 -101,-172 -58,-105 -85,-211 -88,-331 -49,-413 -53,-518 -263,-886 -266,89 -577,169 -853,156 -204,-9 -392,-70 -532,-223 -135,-145 -195,-343 -229,-534 -38,-210 -48,-427 -65,-639 -14,-169 -32,-364 -80,-544 137,-25 269,-64 393,-117 163,-68 311,-160 437,-276 65,-60 70,-160 10,-225 -59,-65 -160,-70 -225,-10 -98,90 -216,163 -345,217 -122,52 -256,88 -396,108l0 0c-37,5 -75,10 -113,13 -116,141 -387,319 -539,362 -233,67 -460,46 -663,-84 -143,-93 -249,-223 -339,-362 -37,-58 -58,-120 -58,-189 1,-180 168,-368 266,-517 174,-266 242,-608 223,-917 -9,-133 -16,-254 10,-380zm7484 4751c-142,65 -301,102 -468,102 -348,0 -659,-159 -865,-408 326,-101 629,-263 892,-495 25,-22 106,-87 144,-93 36,18 95,111 112,141 57,99 129,275 142,389l43 364zm38 331c7,160 48,308 127,450 23,44 61,91 83,133 14,61 12,185 12,244 -1,80 -5,161 -12,241 -2,23 -3,49 -7,73 -91,221 -88,424 -5,578 -18,7 -38,10 -58,10l-311 0c-313,0 -406,-167 -279,-451 12,-34 17,-107 20,-143 8,-89 12,-178 13,-267 1,-91 0,-278 -33,-362 -22,-55 -72,-117 -102,-171 -44,-81 -70,-162 -82,-250 42,4 85,6 128,6 178,0 348,-32 506,-91z"/>
</svg>
