<?xml version="1.0" encoding="UTF-8"?>
<!DOCTYPE svg PUBLIC "-//W3C//DTD SVG 1.1//EN" "http://www.w3.org/Graphics/SVG/1.1/DTD/svg11.dtd">
<svg xmlns="http://www.w3.org/2000/svg" xml:space="preserve" width="1024px" height="1024px" shape-rendering="geometricPrecision" text-rendering="geometricPrecision" image-rendering="optimizeQuality" fill-rule="nonzero" clip-rule="evenodd" viewBox="0 0 10240 10240" xmlns:xlink="http://www.w3.org/1999/xlink">
	<title>currency_won icon</title>
	<desc>currency_won icon from the IconExperience.com O-Collection. Copyright by INCORS GmbH (www.incors.com).</desc>
	<path id="curve0" fill="#EDC87E" d="M5120 640c2474,0 4480,2006 4480,4480 0,2474 -2006,4480 -4480,4480 -2474,0 -4480,-2006 -4480,-4480 0,-2474 2006,-4480 4480,-4480zm-3200 5120l0 640 911 0 316 1419c66,296 321,501 624,501l226 0c248,0 461,-132 572,-354l551 -1101 551 1101c111,222 324,354 572,354l226 0c303,0 559,-205 624,-501l316 -1419 911 0 0 -640 -769 0c43,-202 75,-390 95,-576 2,-21 5,-43 7,-64l667 0 0 -640 -640 0 0 -2240 -1280 0 0 2240 -2560 0 0 -2240 -1280 0 0 2240 -640 0 0 640 667 0c2,21 5,43 7,64 20,186 52,374 95,576l-769 0zm2075 0l-51 -229c-30,-139 -54,-274 -72,-411l893 0c-124,0 -230,66 -286,177l-231 463 -253 0zm1998 0l-232 -463c-56,-111 -162,-177 -286,-177l893 0c-18,137 -41,272 -72,411l-51 229 -252 0z"/>
</svg>
