<?xml version="1.0" encoding="UTF-8"?>
<!DOCTYPE svg PUBLIC "-//W3C//DTD SVG 1.1//EN" "http://www.w3.org/Graphics/SVG/1.1/DTD/svg11.dtd">
<svg xmlns="http://www.w3.org/2000/svg" xml:space="preserve" width="1024px" height="1024px" shape-rendering="geometricPrecision" text-rendering="geometricPrecision" image-rendering="optimizeQuality" fill-rule="nonzero" clip-rule="evenodd" viewBox="0 0 10240 10240" xmlns:xlink="http://www.w3.org/1999/xlink">
	<title>currency_yuan icon</title>
	<desc>currency_yuan icon from the IconExperience.com O-Collection. Copyright by INCORS GmbH (www.incors.com).</desc>
	<path id="curve0" fill="#EDC87E" d="M5120 640c2474,0 4480,2006 4480,4480 0,2474 -2006,4480 -4480,4480 -2474,0 -4480,-2006 -4480,-4480 0,-2474 2006,-4480 4480,-4480zm-2880 3200l0 1280 960 0 0 1280c0,350 -290,642 -640,642l-320 -2 0 1280 320 -3c1060,0 1920,-857 1920,-1917l0 -1280 640 0 0 1920c0,706 574,1280 1280,1280l640 0c706,0 1280,-574 1280,-1280l0 -640 -1280 0 0 640c0,0 0,0 0,0l0 0 0 0c0,0 0,0 0,0l-640 0c0,0 0,0 0,0l0 0 0 0c0,0 0,0 0,0l0 -1920 1600 0 0 -1280 -5760 0zm4160 3200l0 0 0 0 0 0 0 0zm0 0c0,0 0,0 0,0 0,0 0,0 0,0zm640 0l0 0 0 0 0 0 0 0zm0 0c0,0 0,0 0,0 0,0 0,0 0,0zm-4160 -5120l0 1280 4480 0 0 -1280 -4480 0z"/>
</svg>
