<?xml version="1.0" encoding="UTF-8"?>
<!DOCTYPE svg PUBLIC "-//W3C//DTD SVG 1.1//EN" "http://www.w3.org/Graphics/SVG/1.1/DTD/svg11.dtd">
<svg xmlns="http://www.w3.org/2000/svg" xml:space="preserve" width="1024px" height="1024px" shape-rendering="geometricPrecision" text-rendering="geometricPrecision" image-rendering="optimizeQuality" fill-rule="nonzero" clip-rule="evenodd" viewBox="0 0 10240 10240" xmlns:xlink="http://www.w3.org/1999/xlink">
	<title>currency_yen icon</title>
	<desc>currency_yen icon from the IconExperience.com O-Collection. Copyright by INCORS GmbH (www.incors.com).</desc>
	<path id="curve0" fill="#EDC87E" d="M5120 640c2474,0 4480,2006 4480,4480 0,2474 -2006,4480 -4480,4480 -2474,0 -4480,-2006 -4480,-4480 0,-2474 2006,-4480 4480,-4480zm640 4456l1457 -1214c294,-245 463,-598 463,-982l0 -980 -1280 0c0,83 -1,983 1,983l-1240 1033 -1001 -1001 0 -1015 -1280 0 0 1015c0,339 135,665 375,905l1225 1225 0 375 -1302 0 0 640 1302 0 0 653 -1280 0 0 640 1280 0 0 947 1280 0 0 -947 1271 0 0 -640 -1271 0 0 -653 1249 0 0 -640 -1249 0 0 -344z"/>
</svg>
