<?xml version="1.0" encoding="UTF-8"?>
<!DOCTYPE svg PUBLIC "-//W3C//DTD SVG 1.1//EN" "http://www.w3.org/Graphics/SVG/1.1/DTD/svg11.dtd">
<svg xmlns="http://www.w3.org/2000/svg" xml:space="preserve" width="1024px" height="1024px" shape-rendering="geometricPrecision" text-rendering="geometricPrecision" image-rendering="optimizeQuality" fill-rule="nonzero" clip-rule="evenodd" viewBox="0 0 10240 10240" xmlns:xlink="http://www.w3.org/1999/xlink">
	<title>data_floppy_disk icon</title>
	<desc>data_floppy_disk icon from the IconExperience.com O-Collection. Copyright by INCORS GmbH (www.incors.com).</desc>
	<path id="curve2" fill="#EDC87E" d="M1280 640c-352,0 -640,287 -640,640l0 960c0,352 288,640 640,640l0 0c-353,0 -640,287 -640,640l0 960c0,352 288,640 640,640l0 0c-353,0 -640,287 -640,640l0 960c0,352 288,640 640,640l2880 0 0 -2240c0,-529 431,-960 960,-960l1280 0 0 -640c0,-352 -287,-640 -640,-640l0 0c352,0 640,-288 640,-640l0 -960c0,-352 -287,-640 -640,-640l-4480 0zm128 5120l2112 0 0 960 -2112 0c-70,0 -128,-72 -128,-160l0 -640c0,-88 57,-160 128,-160zm0 -4480l2112 0 0 960 -2112 0c-70,0 -128,-72 -128,-160l0 -640c0,-88 57,-160 128,-160zm0 2240l2112 0 0 960 -2112 0c-70,0 -128,-72 -128,-160l0 -640c0,-88 57,-160 128,-160z"/>
	<path id="curve1" fill="#4D82B8" d="M5120 4480l320 0 0 1920c0,176 144,320 320,320l2560 0c176,0 320,-144 320,-320l0 -1920 320 0c353,0 640,287 640,640l0 3840c0,353 -287,640 -640,640l-320 0 0 -1600c0,-176 -144,-320 -320,-320l-1920 0c-176,0 -320,144 -320,320l0 1600 -960 0c-353,0 -640,-287 -640,-640l0 -3840c0,-353 287,-640 640,-640zm2240 3520l960 0 0 1280 -960 0 0 -1280z"/>
	<path id="curve0" fill="#808080" d="M5760,4480 8320,4480 8320,5120 5760,5120z"/>
</svg>
