<?xml version="1.0" encoding="UTF-8"?>
<!DOCTYPE svg PUBLIC "-//W3C//DTD SVG 1.1//EN" "http://www.w3.org/Graphics/SVG/1.1/DTD/svg11.dtd">
<svg xmlns="http://www.w3.org/2000/svg" xml:space="preserve" width="1024px" height="1024px" shape-rendering="geometricPrecision" text-rendering="geometricPrecision" image-rendering="optimizeQuality" fill-rule="nonzero" clip-rule="evenodd" viewBox="0 0 10240 10240" xmlns:xlink="http://www.w3.org/1999/xlink">
	<title>diamond icon</title>
	<desc>diamond icon from the IconExperience.com O-Collection. Copyright by INCORS GmbH (www.incors.com).</desc>
	<path id="curve0" fill="#808080" d="M787 3644l1677 -2236c62,-83 152,-128 256,-128l4800 0c104,0 194,45 256,128l1677 2236c88,118 87,273 -3,389l-4077 5242c-63,81 -151,124 -253,124 -102,0 -190,-43 -253,-124l-4077 -5242c-90,-116 -91,-271 -3,-389zm913 516l2650 3408 -1065 -3408 -1585 0zm4190 3408l2650 -3408 -1585 0 -1065 3408zm2670 -4048l-1200 -1600 -1116 0 686 1600 1630 0zm-3010 -1600l-860 0 -686 1600 2232 0 -686 -1600zm-1554 0l-1116 0 -1200 1600 1630 0 686 -1600zm2289 2240l-2330 0 1165 3729 1165 -3729z"/>
</svg>
