<?xml version="1.0" encoding="UTF-8"?>
<!DOCTYPE svg PUBLIC "-//W3C//DTD SVG 1.1//EN" "http://www.w3.org/Graphics/SVG/1.1/DTD/svg11.dtd">
<svg xmlns="http://www.w3.org/2000/svg" xml:space="preserve" width="1024px" height="1024px" shape-rendering="geometricPrecision" text-rendering="geometricPrecision" image-rendering="optimizeQuality" fill-rule="nonzero" clip-rule="evenodd" viewBox="0 0 10240 10240" xmlns:xlink="http://www.w3.org/1999/xlink">
	<title>diving_mask icon</title>
	<desc>diving_mask icon from the IconExperience.com O-Collection. Copyright by INCORS GmbH (www.incors.com).</desc>
	<path id="curve1" fill="#4D82B8" d="M3434 1920l4652 0c445,0 832,190 1121,526 291,339 422,759 387,1204l-99 1280c-62,798 -688,1470 -1509,1470l-993 0c-335,0 -628,-184 -790,-474l-210 -375c-52,-93 -124,-147 -233,-147 -109,0 -181,54 -233,147l-210 375c-162,290 -455,474 -790,474l-993 0c-821,0 -1447,-672 -1509,-1470l-99 -1280c-35,-445 96,-865 387,-1204 289,-336 676,-526 1121,-526zm4652 640l-4652 0c-262,0 -466,103 -636,301 -185,216 -257,459 -235,742l100 1280c36,465 385,877 871,877l993 0c109,0 181,-54 233,-147l209 -375c163,-290 456,-474 791,-474 335,0 628,184 791,474l209 375c52,93 124,147 233,147l993 0c486,0 835,-412 871,-877l100 -1280c22,-282 -50,-527 -235,-742 -170,-198 -374,-301 -636,-301z"/>
	<path id="curve0" fill="#808080" d="M7040 6720l0 0c0,353 -287,640 -640,640l-197 0c-98,567 -384,1074 -794,1462 -507,480 -1204,778 -1969,778l0 0c-765,0 -1462,-298 -1969,-778 -513,-486 -831,-1157 -831,-1899l0 -6283 960 0 0 6283c0,468 203,895 531,1205 333,316 796,512 1309,512l0 0c513,0 976,-196 1309,-512 222,-210 387,-474 470,-768l-99 0c-353,0 -640,-287 -640,-640l0 0 39 0 8 0c453,0 849,-244 1070,-638l163 -292 163 292c221,394 617,638 1070,638l8 0 39 0z"/>
</svg>
