<?xml version="1.0" encoding="UTF-8"?>
<!DOCTYPE svg PUBLIC "-//W3C//DTD SVG 1.1//EN" "http://www.w3.org/Graphics/SVG/1.1/DTD/svg11.dtd">
<svg xmlns="http://www.w3.org/2000/svg" xml:space="preserve" width="1024px" height="1024px" shape-rendering="geometricPrecision" text-rendering="geometricPrecision" image-rendering="optimizeQuality" fill-rule="nonzero" clip-rule="evenodd" viewBox="0 0 10240 10240" xmlns:xlink="http://www.w3.org/1999/xlink">
	<title>doctor icon</title>
	<desc>doctor icon from the IconExperience.com O-Collection. Copyright by INCORS GmbH (www.incors.com).</desc>
	<path id="curve3" fill="#E68497" d="M5760,6720 6400,6720 6400,7360 7040,7360 7040,8000 6400,8000 6400,8640 5760,8640 5760,8000 5120,8000 5120,7360 5760,7360z"/>
	<path id="curve2" fill="#808080" d="M8320 8470c0,810 -1920,1130 -3200,1130 -1280,0 -3200,-320 -3200,-1129 0,-1760 582,-2029 1663,-2835 202,128 421,231 653,306l1 4 -271 203c-1044,778 -1399,895 -1406,2278 85,89 344,194 438,227 342,122 725,193 1084,239 343,44 693,67 1038,67 345,0 695,-23 1038,-67 359,-46 743,-117 1085,-239 93,-33 353,-139 437,-228 -8,-1384 -361,-1498 -1406,-2277l-278 -205 0 0c235,-75 457,-179 661,-308 1082,807 1663,1074 1663,2834z"/>
	<path id="curve1" fill="#EFC1B4" d="M6718 1198c586,467 962,1185 962,1991 0,1408 -1146,2550 -2560,2550 -1414,0 -2560,-1142 -2560,-2550 0,-806 376,-1524 962,-1991 -1,27 -2,54 -2,82 0,884 716,1600 1600,1600 884,0 1600,-716 1600,-1600 0,-28 -1,-55 -2,-82z"/>
	<path id="curve0" fill="#808080" d="M5120 0c707,0 1280,573 1280,1280 0,707 -573,1280 -1280,1280 -707,0 -1280,-573 -1280,-1280 0,-707 573,-1280 1280,-1280zm0 960c-177,0 -320,143 -320,320 0,177 143,320 320,320 177,0 320,-143 320,-320 0,-177 -143,-320 -320,-320z"/>
</svg>
