<?xml version="1.0" encoding="UTF-8"?>
<!DOCTYPE svg PUBLIC "-//W3C//DTD SVG 1.1//EN" "http://www.w3.org/Graphics/SVG/1.1/DTD/svg11.dtd">
<svg xmlns="http://www.w3.org/2000/svg" xml:space="preserve" width="1024px" height="1024px" shape-rendering="geometricPrecision" text-rendering="geometricPrecision" image-rendering="optimizeQuality" fill-rule="nonzero" clip-rule="evenodd" viewBox="0 0 10240 10240" xmlns:xlink="http://www.w3.org/1999/xlink">
	<title>drink icon</title>
	<desc>drink icon from the IconExperience.com O-Collection. Copyright by INCORS GmbH (www.incors.com).</desc>
	<path id="curve2" fill="#808080" d="M7645 4160l-535 4879c-35,323 -310,561 -635,561l-2710 0c-325,0 -600,-238 -635,-561l-535 -4879 5050 0z"/>
	<path id="curve1" fill="#808080" d="M2560 3200l5120 0c176,0 320,144 320,320l0 320 -5760 0 0 -320c0,-176 144,-320 320,-320z"/>
	<path id="curve0" fill="#4D82B8" d="M4800 2880l0 -1007c0,-225 55,-437 160,-624 103,-186 255,-344 448,-464 193,-119 402,-183 615,-193 212,-10 426,36 629,138l1811 905 -285 570 -1811 -905c-103,-52 -211,-75 -317,-70 -104,4 -209,37 -307,98 -99,61 -175,140 -226,231 -50,91 -77,197 -77,314l0 1007 -640 0z"/>
</svg>
