<?xml version="1.0" encoding="UTF-8"?>
<!DOCTYPE svg PUBLIC "-//W3C//DTD SVG 1.1//EN" "http://www.w3.org/Graphics/SVG/1.1/DTD/svg11.dtd">
<svg xmlns="http://www.w3.org/2000/svg" xml:space="preserve" width="1024px" height="1024px" shape-rendering="geometricPrecision" text-rendering="geometricPrecision" image-rendering="optimizeQuality" fill-rule="nonzero" clip-rule="evenodd" viewBox="0 0 10240 10240" xmlns:xlink="http://www.w3.org/1999/xlink">
	<title>drop icon</title>
	<desc>drop icon from the IconExperience.com O-Collection. Copyright by INCORS GmbH (www.incors.com).</desc>
	<path id="curve0" fill="#4D82B8" d="M5393 1115c1119,1833 2927,3666 2927,5498 0,1650 -1433,2987 -3200,2987 -1767,0 -3200,-1337 -3200,-2987 0,-1832 1808,-3665 2927,-5498 60,-98 158,-153 273,-153 115,0 213,55 273,153zm-1056 1888c-678,950 -1777,2398 -1777,3610 0,133 11,261 33,386 16,90 64,162 141,212 78,51 163,65 252,42l0 0c164,-40 267,-200 238,-366 -16,-88 -24,-179 -24,-274 0,-1010 1087,-2438 1658,-3238 68,-95 135,-189 203,-284 40,-57 59,-116 59,-186l0 -4c0,-142 -89,-263 -224,-305 -136,-43 -278,6 -359,123 -66,95 -133,190 -200,284z"/>
</svg>
