<?xml version="1.0" encoding="UTF-8"?>
<!DOCTYPE svg PUBLIC "-//W3C//DTD SVG 1.1//EN" "http://www.w3.org/Graphics/SVG/1.1/DTD/svg11.dtd">
<svg xmlns="http://www.w3.org/2000/svg" xml:space="preserve" width="1024px" height="1024px" shape-rendering="geometricPrecision" text-rendering="geometricPrecision" image-rendering="optimizeQuality" fill-rule="nonzero" clip-rule="evenodd" viewBox="0 0 10240 10240" xmlns:xlink="http://www.w3.org/1999/xlink">
	<title>dude2 icon</title>
	<desc>dude2 icon from the IconExperience.com O-Collection. Copyright by INCORS GmbH (www.incors.com).</desc>
	<path id="curve3" fill="#808080" d="M8320 8470c0,810 -1920,1130 -3200,1130 -1280,0 -3200,-320 -3200,-1129 0,-1760 582,-2029 1663,-2835 445,281 972,444 1537,444 565,0 1092,-163 1537,-444 1082,807 1663,1074 1663,2834z"/>
	<path id="curve2" fill="#EFC1B4" d="M4480,4800 5760,4800 5760,5120 4480,5120z"/>
	<path id="curve1" fill="#EFC1B4" d="M7680 3200c-5,1075 -677,1992 -1625,2363 16,-38 25,-79 25,-123l0 -640c0,-176 -144,-320 -320,-320l-1280 0c-176,0 -320,144 -320,320l0 640c0,44 9,85 25,123l0 0c-948,-370 -1620,-1288 -1625,-2363l5120 0z"/>
	<path id="curve0" fill="#E68497" d="M576 4487c414,-614 1015,-949 1683,-966 50,426 194,828 414,1182 -542,400 -1226,502 -1933,267 -99,-33 -169,-103 -202,-201 -34,-98 -20,-196 38,-282zm4544 -4167c1414,0 2560,1141 2560,2549l0 11 -5120 0 0 -11c0,-1408 1146,-2549 2560,-2549zm-4440 2052c567,-182 1117,-148 1590,81 -20,136 -30,275 -30,417l0 331c-388,12 -756,116 -1087,308 -245,-162 -463,-382 -643,-656 -57,-86 -69,-185 -35,-283 35,-97 106,-166 205,-198z"/>
</svg>
