<?xml version="1.0" encoding="UTF-8"?>
<!DOCTYPE svg PUBLIC "-//W3C//DTD SVG 1.1//EN" "http://www.w3.org/Graphics/SVG/1.1/DTD/svg11.dtd">
<svg xmlns="http://www.w3.org/2000/svg" xml:space="preserve" width="1024px" height="1024px" shape-rendering="geometricPrecision" text-rendering="geometricPrecision" image-rendering="optimizeQuality" fill-rule="nonzero" clip-rule="evenodd" viewBox="0 0 10240 10240" xmlns:xlink="http://www.w3.org/1999/xlink">
	<title>dude3 icon</title>
	<desc>dude3 icon from the IconExperience.com O-Collection. Copyright by INCORS GmbH (www.incors.com).</desc>
	<path id="curve5" fill="#76A797" d="M5950 7371l-510 2549 -640 0 -510 -2551c60,20 123,31 189,33 226,5 435,-101 554,-295l90 -146 90 146c119,194 328,300 554,295 63,-2 125,-12 183,-31z"/>
	<path id="curve4" fill="#76A797" d="M3649 5975c427,253 925,400 1457,402l-346 562c-59,96 -160,145 -273,143 -113,-3 -209,-59 -267,-156l-571 -951zm2947 0c-426,253 -925,400 -1457,402l346 562c59,96 161,145 274,143 113,-3 209,-59 267,-156l570 -951z"/>
	<path id="curve3" fill="#808080" d="M8320 8790c0,681 -1356,1015 -2549,1105l577 -2884 693 -1156c777,670 1279,1735 1279,2935zm-3851 1105c-1193,-90 -2549,-424 -2549,-1104 0,-1202 504,-2269 1282,-2939l687 1145 580 2898z"/>
	<path id="curve2" fill="#EFC1B4" d="M4480,5120 5760,5120 5760,5440 4480,5440z"/>
	<path id="curve1" fill="#EFC1B4" d="M7498 2564c117,292 182,611 182,945 0,1080 -674,2002 -1625,2374l0 0c16,-38 25,-79 25,-123l0 -640c0,-176 -144,-320 -320,-320l-1280 0c-176,0 -320,144 -320,320l0 640c0,44 9,85 25,123l0 0c-951,-372 -1625,-1294 -1625,-2374 0,-334 65,-653 182,-945l4756 0zm-446 1276l0 -640c0,-176 -144,-320 -320,-320l-3200 0c-176,0 -320,144 -320,320l0 640c0,176 144,320 320,320l960 0c176,0 320,-144 320,-320l0 -320c0,-176 144,-320 320,-320l0 0c176,0 320,144 320,320l0 320c0,176 144,320 320,320l960 0c176,0 320,-144 320,-320z"/>
	<path id="curve0" fill="#808080" d="M1920 1924l960 0 231 -1385c52,-311 316,-535 631,-535l2756 0c315,0 579,224 631,535l231 1385 960 0 0 320 -6400 0 0 -320z"/>
</svg>
