<?xml version="1.0" encoding="UTF-8"?>
<!DOCTYPE svg PUBLIC "-//W3C//DTD SVG 1.1//EN" "http://www.w3.org/Graphics/SVG/1.1/DTD/svg11.dtd">
<svg xmlns="http://www.w3.org/2000/svg" xml:space="preserve" width="1024px" height="1024px" shape-rendering="geometricPrecision" text-rendering="geometricPrecision" image-rendering="optimizeQuality" fill-rule="nonzero" clip-rule="evenodd" viewBox="0 0 10240 10240" xmlns:xlink="http://www.w3.org/1999/xlink">
	<title>earth_location icon</title>
	<desc>earth_location icon from the IconExperience.com O-Collection. Copyright by INCORS GmbH (www.incors.com).</desc>
	<path id="curve1" fill="#4D82B8" d="M4000 2560c775,0 1493,240 2086,648l-438 477c-377,-244 -812,-406 -1279,-463 63,85 106,179 78,243 -52,115 -127,259 -351,342 -166,62 -384,64 -550,136 -172,75 -344,69 -443,92 -156,37 7,-511 -38,-572 -29,-39 -120,-47 -218,-36 -106,43 -209,92 -309,147 -55,206 121,376 113,417 -17,83 -15,414 -94,499 -120,130 -426,247 -466,253 -198,28 -244,230 -392,348 -62,49 -376,379 -426,481 -136,278 -3,456 59,512 106,95 150,105 269,142 46,15 495,245 617,371 124,127 186,260 310,335 151,92 427,195 463,266 166,321 110,771 -364,1090 -122,83 -373,218 -311,447 4,14 8,29 11,43 480,317 1055,502 1673,502 1679,0 3040,-1361 3040,-3040 0,-175 -15,-346 -43,-512 -24,62 -38,166 -79,235 -47,80 -154,89 -170,112 -115,156 267,281 101,496 -71,93 -287,301 -345,571 -123,573 -42,227 -226,686 -28,68 -77,333 -116,392 -177,268 -674,573 -795,419 -71,-89 -113,-224 -136,-353 -22,-128 -157,-293 -143,-395 21,-159 34,-210 37,-392 0,-8 -109,-449 -127,-487 -82,-174 -215,-252 -404,-187 -146,51 -269,-23 -386,-70 -232,-94 -339,-397 -388,-645 0,-1 35,-389 37,-409 7,-103 55,-200 110,-278 416,-598 319,-341 856,-534 89,-32 220,-38 269,-21 239,83 227,329 474,371 28,5 156,-74 185,-68 151,27 295,169 427,102 79,-40 121,-190 50,-243 -68,-52 -173,-14 -248,-67 -110,-78 -201,31 -293,-74 -41,-48 -114,-196 -169,-274 -58,-84 -233,-50 -204,-12 90,121 222,141 239,207 18,73 -170,170 -119,38 26,-70 -109,-114 -265,-195 -82,-43 -162,-154 -286,-94 -61,29 -176,174 -222,242 -79,118 -258,86 -378,28 -118,-58 -121,-345 33,-470 148,-119 269,-46 412,-87 59,-16 88,-80 176,-139 104,-70 -64,-180 -8,-293 45,-92 198,-111 278,-150 75,-38 161,-100 243,-51 65,38 133,57 200,79 -239,250 -236,648 10,895 248,248 650,249 900,5l505 -464c408,593 648,1311 648,2086 0,2032 -1648,3680 -3680,3680 -2032,0 -3680,-1648 -3680,-3680 0,-2032 1648,-3680 3680,-3680zm-2231 5745c-14,-25 -25,-48 -33,-69 -67,-164 -85,-462 -164,-552 -164,-189 -314,-341 -345,-534 -28,-175 -129,-430 -147,-569 -16,-121 -56,-250 -120,-367 0,8 0,17 0,26 0,797 307,1522 809,2065z"/>
	<path id="curve0" fill="#E68497" d="M8320 320c884,0 1600,716 1600,1600 0,884 -716,1600 -1600,1600 -884,0 -1600,-716 -1600,-1600 0,-884 716,-1600 1600,-1600zm0 320c-707,0 -1280,573 -1280,1280 0,53 3,106 10,158 13,106 71,192 166,243 94,50 198,52 294,4l0 0c124,-62 192,-189 175,-326 -3,-26 -5,-52 -5,-79 0,-353 287,-640 640,-640 27,0 53,2 79,5 137,17 264,-51 326,-175l0 0c48,-96 46,-200 -4,-294 -51,-95 -137,-153 -243,-166 -52,-7 -105,-10 -158,-10zm-1067 2876l-947 870c-125,125 -327,125 -452,0 -125,-125 -125,-327 0,-452l870 -947c140,209 320,389 529,529z"/>
</svg>
