<?xml version="1.0" encoding="UTF-8"?>
<!DOCTYPE svg PUBLIC "-//W3C//DTD SVG 1.1//EN" "http://www.w3.org/Graphics/SVG/1.1/DTD/svg11.dtd">
<svg xmlns="http://www.w3.org/2000/svg" xml:space="preserve" width="1024px" height="1024px" shape-rendering="geometricPrecision" text-rendering="geometricPrecision" image-rendering="optimizeQuality" fill-rule="nonzero" clip-rule="evenodd" viewBox="0 0 10240 10240" xmlns:xlink="http://www.w3.org/1999/xlink">
	<title>environment_network icon</title>
	<desc>environment_network icon from the IconExperience.com O-Collection. Copyright by INCORS GmbH (www.incors.com).</desc>
	<path id="curve1" fill="#4D82B8" d="M5440 8640c176,0 320,144 320,320l1280 0 0 640 -1280 0c0,176 -144,320 -320,320l-640 0c-176,0 -320,-144 -320,-320l-1280 0 0 -640 1280 0c0,-176 144,-320 320,-320l0 -332c106,8 212,12 320,12 108,0 214,-4 320,-12l0 332z"/>
	<path id="curve0" fill="#808080" d="M8960 4160c0,2121 -1719,3840 -3840,3840 -2121,0 -3840,-1719 -3840,-3840 0,-2121 1719,-3840 3840,-3840 2121,0 3840,1719 3840,3840zm-2296 -2804c110,180 204,369 284,564l457 0c-218,-223 -468,-413 -741,-564zm1228 1204l-731 0c104,395 170,826 191,1280l952 0c-46,-463 -190,-897 -412,-1280zm412 1920l-952 0c-21,454 -87,885 -191,1280l731 0c222,-383 366,-817 412,-1280zm-899 1920l-457 0c-80,195 -174,384 -284,564 273,-151 523,-341 741,-564zm-3829 564c-110,-180 -204,-369 -284,-564l-457 0c218,223 468,413 741,564zm-1228 -1204l731 0c-104,-395 -170,-826 -191,-1280l-952 0c46,463 190,897 412,1280zm-412 -1920l952 0c21,-454 87,-885 191,-1280l-731 0c-222,383 -366,817 -412,1280zm899 -1920l457 0c58,-142 122,-276 190,-402 31,-55 62,-109 94,-162 -273,151 -523,341 -741,564zm693 1920l1272 0 0 -1280 -1059 0c-115,384 -189,817 -213,1280zm1912 0l1272 0c-24,-463 -98,-896 -213,-1280l-1059 0 0 1280zm1272 640l-1272 0 0 1280 1059 0c115,-384 189,-817 213,-1280zm-1912 0l-1272 0c24,463 98,896 213,1280l1059 0 0 -1280zm-808 -2560l808 0 0 -891c-363,158 -635,547 -808,891zm1448 0l808 0c-16,-33 -33,-65 -50,-97 -213,-390 -475,-671 -758,-794l0 891zm808 4480l-808 0 0 891c363,-158 635,-547 808,-891zm-1448 0l-808 0c173,344 445,733 808,891l0 -891z"/>
</svg>
