<?xml version="1.0" encoding="UTF-8"?>
<!DOCTYPE svg PUBLIC "-//W3C//DTD SVG 1.1//EN" "http://www.w3.org/Graphics/SVG/1.1/DTD/svg11.dtd">
<svg xmlns="http://www.w3.org/2000/svg" xml:space="preserve" width="1024px" height="1024px" shape-rendering="geometricPrecision" text-rendering="geometricPrecision" image-rendering="optimizeQuality" fill-rule="nonzero" clip-rule="evenodd" viewBox="0 0 10240 10240" xmlns:xlink="http://www.w3.org/1999/xlink">
	<title>fingerprint icon</title>
	<desc>fingerprint icon from the IconExperience.com O-Collection. Copyright by INCORS GmbH (www.incors.com).</desc>
	<path id="curve0" fill="#4D82B8" d="M4585 653c778,49 1520,230 2204,522 376,160 667,372 934,682 118,137 229,283 333,438 43,65 34,151 -24,205 -57,54 -143,59 -206,11 -1020,-772 -2290,-1231 -3666,-1231 -217,0 -431,12 -643,34 -76,8 -145,-37 -169,-110 -23,-72 6,-150 72,-188 227,-130 466,-235 715,-310 153,-46 291,-63 450,-53zm-1132 8607c48,-97 91,-195 130,-294 183,-478 257,-1002 257,-1606 0,-177 143,-320 320,-320 177,0 320,143 320,320 0,676 -86,1272 -302,1834 -45,116 -96,231 -152,344 -37,76 -127,109 -204,77 -103,-43 -203,-90 -301,-143 -77,-40 -107,-135 -68,-212zm-1018 -894c90,-291 125,-617 125,-1006 0,-441 179,-841 469,-1131 290,-290 690,-469 1131,-469 441,0 841,179 1131,469 290,290 469,690 469,1131 0,846 -121,1601 -391,2301 -48,126 -163,205 -298,205 -1,0 -2,0 -2,0 -82,0 -163,-3 -243,-9 -54,-4 -98,-32 -125,-78 -28,-46 -31,-97 -9,-146 23,-53 45,-106 66,-159 250,-631 362,-1324 362,-2114 0,-265 -108,-505 -282,-678 -173,-174 -413,-282 -678,-282 -265,0 -504,108 -678,282 -174,173 -282,413 -282,678 0,524 -58,960 -213,1366 -12,30 -24,60 -36,90 -21,50 -62,83 -115,94 -53,11 -104,-3 -143,-41 -64,-61 -127,-125 -188,-191 -79,-87 -105,-200 -70,-312zm1725 -3886c794,0 1514,323 2036,844 521,522 844,1242 844,2036 0,604 -55,1174 -168,1716 -42,198 -160,350 -341,441 -61,30 -122,58 -184,85 -58,25 -122,15 -169,-27 -48,-42 -65,-104 -48,-165 184,-632 270,-1311 270,-2050 0,-618 -251,-1178 -657,-1583 -405,-406 -965,-657 -1583,-657 -618,0 -1178,251 -1583,657 -372,372 -614,873 -652,1430 -5,75 -60,135 -134,147 -75,12 -146,-28 -174,-98 -65,-161 -122,-327 -172,-498 -40,-137 -35,-267 15,-401 146,-392 374,-743 664,-1033 522,-521 1242,-844 2036,-844zm-2672 -307c723,-607 1655,-973 2672,-973 1148,0 2188,466 2941,1219 753,753 1219,1793 1219,2941 0,61 -1,121 -2,182 -1,112 -28,208 -83,305 -93,164 -194,319 -302,467 -44,58 -118,80 -186,54 -68,-25 -109,-91 -102,-163 23,-275 35,-557 35,-845 0,-971 -395,-1851 -1032,-2488 -637,-637 -1517,-1032 -2488,-1032 -971,0 -1851,395 -2488,1032 -54,53 -106,109 -156,166 -46,52 -116,68 -180,42 -64,-26 -103,-87 -100,-156 6,-112 15,-222 27,-331 19,-170 94,-310 225,-420zm1057 -2008c510,-159 1053,-245 1615,-245 1501,0 2861,610 3846,1594 255,255 485,536 685,837 138,206 205,416 214,664 3,67 4,134 4,202 0,85 -2,169 -6,253 -3,76 -57,137 -132,150 -75,13 -146,-26 -176,-96 -243,-587 -599,-1115 -1042,-1557 -869,-869 -2069,-1407 -3393,-1407 -790,0 -1536,191 -2194,530 -62,32 -134,21 -184,-28 -51,-48 -63,-121 -33,-184 10,-21 20,-42 31,-62 161,-324 419,-544 765,-651z"/>
</svg>
