<?xml version="1.0" encoding="UTF-8"?>
<!DOCTYPE svg PUBLIC "-//W3C//DTD SVG 1.1//EN" "http://www.w3.org/Graphics/SVG/1.1/DTD/svg11.dtd">
<svg xmlns="http://www.w3.org/2000/svg" xml:space="preserve" width="1024px" height="1024px" shape-rendering="geometricPrecision" text-rendering="geometricPrecision" image-rendering="optimizeQuality" fill-rule="nonzero" clip-rule="evenodd" viewBox="0 0 10240 10240" xmlns:xlink="http://www.w3.org/1999/xlink">
	<title>fire_hydrant icon</title>
	<desc>fire_hydrant icon from the IconExperience.com O-Collection. Copyright by INCORS GmbH (www.incors.com).</desc>
	<path id="curve1" fill="#E68497" d="M7680 8960l0 640 -5120 0 0 -640c0,-353 287,-640 640,-640l320 0 0 -1920 -640 0c-176,0 -320,-144 -320,-320l0 -320 -320 0 0 -640 320 0 0 -320c0,-176 144,-320 320,-320l640 0 0 -640 3200 0 0 640 640 0c176,0 320,144 320,320l0 320 320 0 0 640 -320 0 0 320c0,176 -144,320 -320,320l-640 0 0 1920 320 0c353,0 640,287 640,640z"/>
	<path id="curve0" fill="#E68497" d="M2880 2880l27 0c159,0 292,-114 316,-271 109,-705 601,-1283 1257,-1515l0 -134c0,-176 144,-320 320,-320l640 0c176,0 320,144 320,320l0 134c656,232 1148,810 1257,1515 25,157 157,271 316,271l27 0c176,0 320,144 320,320l0 0c0,176 -144,320 -320,320l-4480 0c-176,0 -320,-144 -320,-320l0 0c0,-176 144,-320 320,-320z"/>
</svg>
