<?xml version="1.0" encoding="UTF-8"?>
<!DOCTYPE svg PUBLIC "-//W3C//DTD SVG 1.1//EN" "http://www.w3.org/Graphics/SVG/1.1/DTD/svg11.dtd">
<svg xmlns="http://www.w3.org/2000/svg" xml:space="preserve" width="1024px" height="1024px" shape-rendering="geometricPrecision" text-rendering="geometricPrecision" image-rendering="optimizeQuality" fill-rule="nonzero" clip-rule="evenodd" viewBox="0 0 10240 10240" xmlns:xlink="http://www.w3.org/1999/xlink">
	<title>flash icon</title>
	<desc>flash icon from the IconExperience.com O-Collection. Copyright by INCORS GmbH (www.incors.com).</desc>
	<path id="curve0" fill="#ED9A56" d="M6749 1125l-1629 2715 1355 0c118,0 220,59 278,162 59,103 57,221 -4,323l-1629 2715 750 0c135,0 251,80 299,207 48,128 14,264 -89,354l-2201 1929c-83,73 -187,97 -293,69 -107,-29 -185,-102 -221,-206l-660 -1929c-35,-101 -20,-203 42,-290 62,-87 154,-134 261,-134l832 0 640 -1920 -1551 0c-96,0 -179,-38 -242,-110 -63,-73 -88,-160 -75,-255l549 -3840c22,-159 156,-275 317,-275l2997 0c118,0 220,59 278,162 59,103 57,221 -4,323z"/>
</svg>
