<?xml version="1.0" encoding="UTF-8"?>
<!DOCTYPE svg PUBLIC "-//W3C//DTD SVG 1.1//EN" "http://www.w3.org/Graphics/SVG/1.1/DTD/svg11.dtd">
<svg xmlns="http://www.w3.org/2000/svg" xml:space="preserve" width="1024px" height="1024px" shape-rendering="geometricPrecision" text-rendering="geometricPrecision" image-rendering="optimizeQuality" fill-rule="nonzero" clip-rule="evenodd" viewBox="0 0 10240 10240" xmlns:xlink="http://www.w3.org/1999/xlink">
	<title>folding_rule icon</title>
	<desc>folding_rule icon from the IconExperience.com O-Collection. Copyright by INCORS GmbH (www.incors.com).</desc>
	<path id="curve0" fill="#EDC87E" d="M8794 1318l969 243c43,11 76,35 99,73 23,39 28,79 17,122l-1512 5797 -682 -2614 915 -3506c22,-84 109,-136 194,-115zm-6400 0l969 243c43,11 76,35 99,73 23,39 28,79 17,122l-1839 7051c-22,84 -109,136 -194,115l-969 -243c-43,-11 -76,-35 -99,-73 -23,-39 -28,-79 -17,-122l1839 -7051c22,-84 109,-136 194,-115zm326 442c-177,0 -320,143 -320,320 0,177 143,320 320,320 177,0 320,-143 320,-320 0,-177 -143,-320 -320,-320zm2874 -442l969 243c43,11 76,35 99,73 23,39 28,79 17,122l-1512 5797 -682 -2614 915 -3506c22,-84 109,-136 194,-115zm326 442c-177,0 -320,143 -320,320 0,177 143,320 320,320 177,0 320,-143 320,-320 0,-177 -143,-320 -320,-320zm-3035 3541l915 3506c22,84 109,136 194,115l969 -243c43,-11 76,-35 99,-73 23,-39 28,-79 17,-122l-1512 -5797 -682 2614zm1435 2539c177,0 320,143 320,320 0,177 -143,320 -320,320 -177,0 -320,-143 -320,-320 0,-177 143,-320 320,-320zm1765 -2539l915 3506c22,84 109,136 194,115l969 -243c43,-11 76,-35 99,-73 23,-39 28,-79 17,-122l-1512 -5797 -682 2614zm1435 2539c177,0 320,143 320,320 0,177 -143,320 -320,320 -177,0 -320,-143 -320,-320 0,-177 143,-320 320,-320z"/>
</svg>
