<?xml version="1.0" encoding="UTF-8"?>
<!DOCTYPE svg PUBLIC "-//W3C//DTD SVG 1.1//EN" "http://www.w3.org/Graphics/SVG/1.1/DTD/svg11.dtd">
<svg xmlns="http://www.w3.org/2000/svg" xml:space="preserve" width="1024px" height="1024px" shape-rendering="geometricPrecision" text-rendering="geometricPrecision" image-rendering="optimizeQuality" fill-rule="nonzero" clip-rule="evenodd" viewBox="0 0 10240 10240" xmlns:xlink="http://www.w3.org/1999/xlink">
	<title>font_style_strikethrough icon</title>
	<desc>font_style_strikethrough icon from the IconExperience.com O-Collection. Copyright by INCORS GmbH (www.incors.com).</desc>
	<path id="curve0" fill="#808080" d="M1280 5760l1473 0c-128,-248 -193,-521 -193,-800 0,-970 790,-1760 1760,-1760l1600 0c908,0 1671,697 1753,1600l-1301 0c-68,-190 -249,-320 -452,-320l-1600 0c-264,0 -480,216 -480,480 0,132 54,252 141,339 87,87 207,141 339,141l1600 0c376,0 724,119 1011,320l2029 0 0 640 -1473 0c128,248 193,521 193,800 0,970 -790,1760 -1760,1760l-1600 0c-908,0 -1671,-697 -1753,-1600l1301 0c68,190 249,320 452,320l1600 0c264,0 480,-216 480,-480 0,-264 -216,-480 -480,-480l-1600 0c-376,0 -724,-119 -1011,-320l-2029 0 0 -640z"/>
</svg>
