<?xml version="1.0" encoding="UTF-8"?>
<!DOCTYPE svg PUBLIC "-//W3C//DTD SVG 1.1//EN" "http://www.w3.org/Graphics/SVG/1.1/DTD/svg11.dtd">
<svg xmlns="http://www.w3.org/2000/svg" xml:space="preserve" width="1024px" height="1024px" shape-rendering="geometricPrecision" text-rendering="geometricPrecision" image-rendering="optimizeQuality" fill-rule="nonzero" clip-rule="evenodd" viewBox="0 0 10240 10240" xmlns:xlink="http://www.w3.org/1999/xlink">
	<title>fortress_tower icon</title>
	<desc>fortress_tower icon from the IconExperience.com O-Collection. Copyright by INCORS GmbH (www.incors.com).</desc>
	<path id="curve1" fill="#EDC87E" d="M4160 9600l1920 0 0 -1280c0,-775 -145,-1051 -960,-1269 -815,218 -960,494 -960,1269l0 1280z"/>
	<path id="curve0" fill="#808080" d="M7680 4613l0 4987 -1280 0 0 -1280c0,-640 0,-1280 -1280,-1600 -1280,320 -1280,960 -1280,1600l0 1280 -1280 0c0,-1868 0,-3398 0,-4987 0,-89 -31,-164 -94,-227l-452 -452c-63,-63 -94,-138 -94,-227l0 -2427 638 0 2 640 320 0 0 -640 960 0 0 640 640 0 0 -640 1280 0 0 640 640 0 0 -640 960 0 0 640 320 0 0 -640 640 0 0 2427c0,89 -31,164 -94,227l-452 452c-63,63 -94,138 -94,227zm-3200 -133l0 1280 1280 0 0 -1280 -1280 0z"/>
</svg>
