<?xml version="1.0" encoding="UTF-8"?>
<!DOCTYPE svg PUBLIC "-//W3C//DTD SVG 1.1//EN" "http://www.w3.org/Graphics/SVG/1.1/DTD/svg11.dtd">
<svg xmlns="http://www.w3.org/2000/svg" xml:space="preserve" width="1024px" height="1024px" shape-rendering="geometricPrecision" text-rendering="geometricPrecision" image-rendering="optimizeQuality" fill-rule="nonzero" clip-rule="evenodd" viewBox="0 0 10240 10240" xmlns:xlink="http://www.w3.org/1999/xlink">
	<title>fountain_pen icon</title>
	<desc>fountain_pen icon from the IconExperience.com O-Collection. Copyright by INCORS GmbH (www.incors.com).</desc>
	<path id="curve2" fill="#EDC87E" d="M3177 8249c39,-291 201,-610 345,-766 -55,-38 -106,-81 -153,-131 -163,-170 -328,-336 -499,-498 -42,-41 -80,-84 -114,-130 -158,143 -474,302 -763,342 -119,16 -213,90 -256,202l-447 1162c-44,114 -109,202 -206,277 -75,58 -124,150 -124,253 0,44 9,87 25,125l960 -960c-50,-117 -27,-257 68,-352 125,-125 328,-125 453,0 125,124 125,327 0,452 -95,95 -234,118 -350,69l-961 961c38,16 81,25 125,25 102,0 194,-48 252,-123 75,-96 162,-160 275,-203l1167 -449c112,-43 187,-137 203,-256z"/>
	<path id="curve1" fill="#808080" d="M8401 3548c-441,543 -910,1064 -1405,1559 -806,806 -1632,1469 -2570,2112 -261,178 -607,142 -825,-87 -179,-188 -322,-331 -510,-510 -229,-218 -266,-564 -87,-825 643,-938 1306,-1764 2112,-2570 495,-495 1016,-964 1559,-1405l1726 1726zm-2213 -891c-289,256 -572,523 -845,796 -422,422 -823,864 -1196,1330 -219,274 -430,557 -633,843 -102,144 -68,343 75,445 144,102 343,69 445,-75 197,-277 399,-548 611,-813 358,-448 745,-872 1150,-1277 266,-266 537,-522 818,-772 131,-117 143,-319 26,-451 -118,-132 -320,-144 -451,-26z"/>
	<path id="curve0" fill="#808080" d="M9478 2099c-274,406 -566,805 -875,1198l-1677 -1677c393,-309 792,-601 1198,-875 125,-96 306,-87 421,28l905 905c115,115 124,296 28,421z"/>
</svg>
