<?xml version="1.0" encoding="UTF-8"?>
<!DOCTYPE svg PUBLIC "-//W3C//DTD SVG 1.1//EN" "http://www.w3.org/Graphics/SVG/1.1/DTD/svg11.dtd">
<svg xmlns="http://www.w3.org/2000/svg" xml:space="preserve" width="1024px" height="1024px" shape-rendering="geometricPrecision" text-rendering="geometricPrecision" image-rendering="optimizeQuality" fill-rule="nonzero" clip-rule="evenodd" viewBox="0 0 10240 10240" xmlns:xlink="http://www.w3.org/1999/xlink">
	<title>fried_egg icon</title>
	<desc>fried_egg icon from the IconExperience.com O-Collection. Copyright by INCORS GmbH (www.incors.com).</desc>
	<path id="curve1" fill="#EDC87E" d="M4160 3200c1237,0 2240,1003 2240,2240 0,1237 -1003,2240 -2240,2240 -1237,0 -2240,-1003 -2240,-2240 0,-1237 1003,-2240 2240,-2240zm292 1087c45,-102 35,-211 -26,-304 -62,-93 -158,-144 -270,-143 -874,7 -1582,715 -1587,1590 -1,103 42,192 123,255 81,63 178,83 277,57 143,-37 239,-160 240,-308 3,-525 428,-950 953,-954 130,-1 240,-77 290,-193z"/>
	<path id="curve0" fill="#808080" d="M5120 640c2350,0 4480,1600 4480,3840 0,960 -426,1974 -1280,2560 -1320,905 -1920,2560 -3840,2560 -1920,0 -3840,-2006 -3840,-4480 0,-2560 1600,-4480 4480,-4480zm0 640c-2374,0 -3840,1479 -3840,3840 0,1005 371,1991 1039,2743 541,610 1324,1097 2161,1097 507,0 916,-141 1323,-440 352,-260 659,-601 958,-920 373,-396 746,-778 1197,-1088 655,-449 1002,-1251 1002,-2032 0,-2002 -2012,-3200 -3840,-3200z"/>
</svg>
