<?xml version="1.0" encoding="UTF-8"?>
<!DOCTYPE svg PUBLIC "-//W3C//DTD SVG 1.1//EN" "http://www.w3.org/Graphics/SVG/1.1/DTD/svg11.dtd">
<svg xmlns="http://www.w3.org/2000/svg" xml:space="preserve" width="1024px" height="1024px" shape-rendering="geometricPrecision" text-rendering="geometricPrecision" image-rendering="optimizeQuality" fill-rule="nonzero" clip-rule="evenodd" viewBox="0 0 10240 10240" xmlns:xlink="http://www.w3.org/1999/xlink">
	<title>fried_egg_bacon icon</title>
	<desc>fried_egg_bacon icon from the IconExperience.com O-Collection. Copyright by INCORS GmbH (www.incors.com).</desc>
	<path id="curve2" fill="#EDC87E" d="M5760 5440c884,0 1600,716 1600,1600 0,884 -716,1600 -1600,1600 -884,0 -1600,-716 -1600,-1600 0,-884 716,-1600 1600,-1600zm0 320c-707,0 -1280,573 -1280,1280 0,53 3,106 10,158 13,106 71,192 166,243 94,50 198,52 294,4l0 0c124,-62 192,-189 175,-326 -3,-26 -5,-52 -5,-79 0,-353 287,-640 640,-640 27,0 53,2 79,5 137,17 264,-51 326,-175l0 0c48,-96 46,-200 -4,-294 -51,-95 -137,-153 -243,-166 -52,-7 -105,-10 -158,-10z"/>
	<path id="curve1" fill="#808080" d="M7915 2913c1128,495 2005,1485 2005,2820 0,831 -378,1661 -1071,2137 -314,215 -584,495 -843,772 -268,285 -528,570 -846,804 -431,319 -889,474 -1427,474 -850,0 -1637,-461 -2189,-1084 -620,-697 -969,-1606 -983,-2537 69,-18 140,-44 215,-82 170,-85 309,-205 439,-337 -10,117 -15,237 -15,360 0,795 294,1576 822,2171 429,483 1048,869 1711,869 402,0 726,-111 1047,-349 279,-205 523,-475 759,-727 295,-314 591,-617 948,-862 519,-356 793,-990 793,-1609 0,-1066 -721,-1844 -1633,-2239 37,-110 43,-225 18,-337 105,-57 191,-142 250,-244z"/>
	<path id="curve0" fill="#E68497" d="M7537 2860c88,-57 143,-155 143,-267 0,-848 0,-1057 0,-1906 0,-101 -42,-187 -120,-250 -79,-63 -172,-85 -270,-63 -406,92 -895,266 -1210,266 -427,0 -853,-320 -1280,-320 -427,0 -533,320 -960,320 -427,0 -533,-320 -960,-320 -349,0 -911,214 -1338,292 -153,28 -262,159 -262,315 0,848 0,1057 0,1906 0,101 42,187 120,250 60,48 129,72 202,71 54,-54 105,-110 151,-159 177,-192 355,-380 592,-498 139,-70 301,-121 451,-165 179,-52 361,-99 542,-146l75 -19c-100,-42 -173,-98 -246,-153 -61,-47 -123,-94 -287,-94 -121,0 -422,75 -724,150 -194,48 -389,97 -556,130l0 -653c122,-27 263,-62 404,-97 341,-85 683,-170 876,-170 375,0 524,113 672,226 62,47 124,94 288,94 89,0 213,-63 336,-125 191,-97 383,-193 618,-195 39,-26 80,-50 126,-73 237,-119 494,-148 753,-175 122,-13 249,-26 369,-54 290,-70 587,69 721,336 6,11 12,23 17,35l47 93c176,-52 352,-103 533,-134l0 652c-80,17 -161,39 -242,63l113 226 306 611zm-6546 854c154,12 307,22 496,-72 381,-191 620,-668 1001,-859 382,-191 1479,-383 1860,-574 382,-191 334,-525 715,-716 308,-154 709,-122 1053,-204 146,-35 293,33 361,168 378,755 470,939 848,1694 47,95 47,198 -2,292 -49,94 -133,153 -238,168 -299,44 -619,43 -876,171 -381,191 -333,525 -715,716 -381,191 -1478,383 -1860,574 -381,191 -619,668 -1001,859 -305,153 -519,31 -787,74 -140,22 -273,-46 -336,-173 -372,-743 -457,-913 -829,-1655 -53,-106 -46,-224 20,-322 66,-98 172,-150 290,-141zm237 840l331 623c217,0 433,0 643,-105 245,-123 419,-310 592,-498 136,-146 272,-293 410,-362 250,-125 553,-193 856,-260 341,-76 682,-152 1004,-313 210,-106 340,-279 470,-452 85,-113 169,-227 245,-264 138,-69 336,-90 534,-111 151,-16 302,-32 450,-68l-297 -593c-71,10 -144,18 -218,26 -255,27 -511,54 -754,176 -211,105 -341,278 -470,451 -85,114 -170,227 -245,265 -251,125 -554,193 -857,260 -341,76 -682,152 -1003,313 -245,123 -418,310 -592,497 -136,147 -272,294 -410,363 -75,37 -217,38 -358,38 -111,0 -221,0 -331,14z"/>
</svg>
