<?xml version="1.0" encoding="UTF-8"?>
<!DOCTYPE svg PUBLIC "-//W3C//DTD SVG 1.1//EN" "http://www.w3.org/Graphics/SVG/1.1/DTD/svg11.dtd">
<svg xmlns="http://www.w3.org/2000/svg" xml:space="preserve" width="1024px" height="1024px" shape-rendering="geometricPrecision" text-rendering="geometricPrecision" image-rendering="optimizeQuality" fill-rule="nonzero" clip-rule="evenodd" viewBox="0 0 10240 10240" xmlns:xlink="http://www.w3.org/1999/xlink">
	<title>fuel_dispenser icon</title>
	<desc>fuel_dispenser icon from the IconExperience.com O-Collection. Copyright by INCORS GmbH (www.incors.com).</desc>
	<path id="curve3" fill="#808080" d="M1920,8960 7680,8960 7680,9600 1920,9600z"/>
	<path id="curve2" fill="#808080" d="M3520,2560 6080,2560 6080,3200 3520,3200z"/>
	<path id="curve1" fill="#EDC87E" d="M3840 640l1920 0c705,0 1280,575 1280,1280l0 6720 -4480 0 0 -6720c0,-705 575,-1280 1280,-1280zm-320 1280c-176,0 -320,144 -320,320l0 1920c0,176 144,320 320,320l2560 0c176,0 320,-144 320,-320l0 -1920c0,-176 -144,-320 -320,-320l-2560 0z"/>
	<path id="curve0" fill="#808080" d="M8639 3516c3,221 63,381 165,484 43,42 96,77 156,102l0 -372c0,-135 -23,-259 -69,-370 -79,-135 -251,-160 -252,156zm-1279 1924c265,0 505,108 678,282 174,173 282,413 282,678l0 1280c0,88 36,168 94,226 58,58 138,94 226,94l0 0c88,0 168,-36 226,-94 58,-58 94,-138 94,-226l0 -2560 0 -320 0 -31c-238,-48 -445,-154 -608,-317 -217,-217 -345,-527 -351,-928 -4,-294 -2,-589 -1,-883 1,-178 -62,-330 -187,-456l-246 -246c-62,-62 -62,-164 0,-226l226 -226c62,-62 164,-62 226,0l1112 1112c154,153 270,326 350,519 79,191 119,395 119,612l0 750 0 320 0 320 0 2560c0,265 -108,505 -282,678 -173,174 -413,282 -678,282l0 0c-265,0 -505,-108 -678,-282 -174,-173 -282,-413 -282,-678l0 -1280c0,-88 -36,-168 -94,-226 -58,-58 -138,-94 -226,-94l0 -640z"/>
</svg>
