<?xml version="1.0" encoding="UTF-8"?>
<!DOCTYPE svg PUBLIC "-//W3C//DTD SVG 1.1//EN" "http://www.w3.org/Graphics/SVG/1.1/DTD/svg11.dtd">
<svg xmlns="http://www.w3.org/2000/svg" xml:space="preserve" width="1024px" height="1024px" shape-rendering="geometricPrecision" text-rendering="geometricPrecision" image-rendering="optimizeQuality" fill-rule="nonzero" clip-rule="evenodd" viewBox="0 0 10240 10240" xmlns:xlink="http://www.w3.org/1999/xlink">
	<title>gallows icon</title>
	<desc>gallows icon from the IconExperience.com O-Collection. Copyright by INCORS GmbH (www.incors.com).</desc>
	<path id="curve1" fill="#EDC87E" d="M1921 5120c-1,-569 312,-1023 625,-1476 121,-175 242,-349 334,-519l0 -885 640 0 0 885c92,170 213,344 334,519 313,453 626,907 626,1476 0,390 -149,680 -355,885 -280,280 -675,394 -925,394 -213,1 -531,-82 -792,-280 -271,-205 -487,-527 -487,-999zm1279 641c124,0 324,-60 473,-208 97,-97 167,-238 167,-433 0,-373 -256,-743 -511,-1114 -44,-62 -87,-124 -129,-187 -42,63 -85,125 -129,187 -215,312 -511,721 -512,1114 0,235 104,393 233,491 139,105 301,149 408,150z"/>
	<path id="curve0" fill="#B89A7C" d="M2560 1920l0 -1280c1813,0 3307,0 5120,0 0,2347 0,4693 0,7040l1280 1280 0 640 -3840 0 0 -640 1280 -1280 0 -3708 -2053 -2052 -1787 0zm3840 1147l0 -1147 -1148 0 1148 1147z"/>
</svg>
