<?xml version="1.0" encoding="UTF-8"?>
<!DOCTYPE svg PUBLIC "-//W3C//DTD SVG 1.1//EN" "http://www.w3.org/Graphics/SVG/1.1/DTD/svg11.dtd">
<svg xmlns="http://www.w3.org/2000/svg" xml:space="preserve" width="1024px" height="1024px" shape-rendering="geometricPrecision" text-rendering="geometricPrecision" image-rendering="optimizeQuality" fill-rule="nonzero" clip-rule="evenodd" viewBox="0 0 10240 10240" xmlns:xlink="http://www.w3.org/1999/xlink">
	<title>gambling_chip icon</title>
	<desc>gambling_chip icon from the IconExperience.com O-Collection. Copyright by INCORS GmbH (www.incors.com).</desc>
	<path id="curve1" fill="#E68497" d="M5120 2880c1237,0 2240,1003 2240,2240 0,1237 -1003,2240 -2240,2240 -1237,0 -2240,-1003 -2240,-2240 0,-1237 1003,-2240 2240,-2240zm1280 1280c-353,0 -640,287 -640,640l0 640c0,353 287,640 640,640 353,0 640,-287 640,-640l0 -640c0,-353 -287,-640 -640,-640zm-2560 0l-480 0c-88,0 -160,72 -160,160l0 160 320 0 0 1600 320 0 0 -1920zm960 0c-352,0 -640,287 -640,640l0 640c0,353 288,640 640,640 353,0 640,-287 640,-640l0 -640c0,-353 -287,-640 -640,-640zm0 320c-176,0 -320,144 -320,320l0 640c0,176 144,320 320,320 176,0 320,-144 320,-320l0 -640c0,-176 -144,-320 -320,-320zm1600 0c-176,0 -320,144 -320,320l0 640c0,176 144,320 320,320 176,0 320,-144 320,-320l0 -640c0,-176 -144,-320 -320,-320z"/>
	<path id="curve0" fill="#E68497" d="M5120 640c2474,0 4480,2006 4480,4480 0,2474 -2006,4480 -4480,4480 -2474,0 -4480,-2006 -4480,-4480 0,-2474 2006,-4480 4480,-4480zm1187 827l-396 1218c-249,-81 -515,-125 -791,-125 -276,0 -542,44 -791,125l-396 -1218c-779,253 -1448,748 -1920,1396l1036 752c-308,423 -489,943 -489,1505l0 0 0 0 -1280 0c0,844 272,1623 733,2257l1036 -752 0 0c314,432 761,762 1280,930l-396 1218c374,121 773,187 1187,187 414,0 813,-66 1187,-187l-396 -1218c519,-168 966,-498 1280,-930l0 0 1036 752c461,-633 733,-1413 733,-2257l-1280 0c0,-562 -181,-1082 -489,-1505l1036 -752c-472,-648 -1142,-1143 -1920,-1396z"/>
</svg>
