<?xml version="1.0" encoding="UTF-8"?>
<!DOCTYPE svg PUBLIC "-//W3C//DTD SVG 1.1//EN" "http://www.w3.org/Graphics/SVG/1.1/DTD/svg11.dtd">
<svg xmlns="http://www.w3.org/2000/svg" xml:space="preserve" width="1024px" height="1024px" shape-rendering="geometricPrecision" text-rendering="geometricPrecision" image-rendering="optimizeQuality" fill-rule="nonzero" clip-rule="evenodd" viewBox="0 0 10240 10240" xmlns:xlink="http://www.w3.org/1999/xlink">
	<title>gambling_chips2 icon</title>
	<desc>gambling_chips2 icon from the IconExperience.com O-Collection. Copyright by INCORS GmbH (www.incors.com).</desc>
	<path id="curve2" fill="#76A797" d="M7040 960c1414,0 2560,716 2560,1600l0 640c0,884 -1146,1600 -2560,1600 -529,0 -1020,-100 -1427,-272 -204,-611 -608,-1131 -1133,-1483l0 -485c0,-884 1146,-1600 2560,-1600zm2560 3200c0,884 -1146,1600 -2560,1600 -173,0 -343,-11 -506,-31 -218,-316 -496,-586 -818,-793 -3,-17 -6,-33 -9,-50 388,148 844,234 1333,234 1414,0 2560,-716 2560,-1600l0 640zm0 2880c0,884 -1146,1600 -2560,1600 -100,0 -198,-4 -294,-10 97,-199 173,-410 223,-631 23,1 47,1 71,1 1414,0 2560,-716 2560,-1600l0 640zm10 -950c0,884 -1146,1600 -2560,1600 -10,0 -19,0 -29,0 24,-213 25,-427 2,-640l27 0c1414,0 2560,-716 2560,-1600l0 640zm-10 -970c0,884 -1146,1600 -2560,1600 -24,0 -48,0 -72,-1 -52,-228 -131,-446 -233,-650 100,7 202,11 305,11 1414,0 2560,-716 2560,-1600l0 640zm-2855 -3339c689,-101 1378,165 1540,595 163,430 -264,861 -952,962 -688,102 -1377,-165 -1539,-595 -163,-430 263,-861 951,-962zm-1772 238l591 154c-127,188 -163,402 -82,616l-623 92c113,299 372,553 719,740l418 -304c253,137 572,222 912,239l-53 399c450,23 925,-38 1348,-199l-333 -342c292,-110 516,-276 645,-468l591 154c176,-263 227,-562 114,-862l-623 92c-81,-214 -266,-395 -514,-528l418 -303c-355,-191 -801,-310 -1277,-335l-53 399c-321,-17 -661,27 -962,142l-333 -342c-408,155 -722,386 -903,656z"/>
	<path id="curve1" fill="#E68497" d="M3500 2957c-1371,-343 -2761,491 -3104,1863 -251,1003 128,2015 885,2621 -1,-27 -1,-54 -1,-81 0,-392 79,-767 221,-1108 -40,-68 -76,-139 -105,-213l-594 239c-171,-423 -215,-903 -96,-1381l621 156c85,-341 274,-629 525,-839l-411 -490c358,-300 807,-486 1284,-518l44 638c336,-23 674,61 959,240l340 -543c401,251 708,621 884,1049 133,38 263,86 388,142 -245,-848 -922,-1546 -1840,-1775zm-310 1242c220,55 412,164 567,309 -884,124 -1639,649 -2075,1384 -89,-235 -110,-499 -44,-762 171,-686 866,-1103 1552,-931z"/>
	<path id="curve0" fill="#E68497" d="M3573 4868c-1376,325 -2229,1703 -1904,3079 325,1376 1703,2229 3079,1904 1376,-325 2229,-1703 1904,-3079 -325,-1376 -1703,-2229 -3079,-1904zm294 1246c-688,162 -1115,851 -952,1539 162,688 851,1115 1539,952 689,-162 1115,-851 952,-1539 -162,-689 -851,-1115 -1539,-952zm-1773 380c181,-431 495,-802 903,-1049l333 547c287,-175 628,-255 962,-227l53 -638c476,39 922,230 1277,535l-418 485c248,213 433,503 514,845l623 -147c113,479 63,958 -114,1380l-591 -247c-129,307 -353,572 -645,749l333 547c-402,244 -880,357 -1348,318l53 -638c-340,-28 -659,-164 -912,-382l-418 485c-347,-298 -606,-704 -719,-1183l623 -147c-80,-342 -45,-685 82,-986l-591 -247z"/>
</svg>
