<?xml version="1.0" encoding="UTF-8"?>
<!DOCTYPE svg PUBLIC "-//W3C//DTD SVG 1.1//EN" "http://www.w3.org/Graphics/SVG/1.1/DTD/svg11.dtd">
<svg xmlns="http://www.w3.org/2000/svg" xml:space="preserve" width="1024px" height="1024px" shape-rendering="geometricPrecision" text-rendering="geometricPrecision" image-rendering="optimizeQuality" fill-rule="nonzero" clip-rule="evenodd" viewBox="0 0 10240 10240" xmlns:xlink="http://www.w3.org/1999/xlink">
	<title>gambling_chips icon</title>
	<desc>gambling_chips icon from the IconExperience.com O-Collection. Copyright by INCORS GmbH (www.incors.com).</desc>
	<path id="curve5" fill="#76A797" d="M7079 5761c689,20 1241,585 1241,1279 0,707 -573,1280 -1280,1280 -694,0 -1259,-552 -1279,-1241 133,-259 229,-540 279,-838 59,-74 127,-142 201,-201 298,-50 579,-146 838,-279z"/>
	<path id="curve4" fill="#76A797" d="M8187 4751c838,421 1413,1288 1413,2289 0,1414 -1146,2560 -2560,2560 -1001,0 -1868,-575 -2289,-1413 91,-58 179,-122 263,-190 136,289 330,539 565,741l417 -485c253,217 572,354 912,382l-53 638c229,19 464,3 699,-53 236,-55 453,-146 649,-265l-332 -547c291,-177 516,-442 645,-750l590 247c177,-421 227,-900 114,-1379l-623 147c-80,-342 -266,-633 -513,-846l417 -485c-153,-131 -323,-241 -505,-327 69,-85 132,-173 191,-264z"/>
	<path id="curve3" fill="#E68497" d="M5760 1920c707,0 1280,573 1280,1280 0,700 -562,1269 -1260,1280 -279,-563 -737,-1021 -1300,-1300 11,-698 580,-1260 1280,-1260z"/>
	<path id="curve2" fill="#E68497" d="M5760 640c1414,0 2560,1146 2560,2560 0,1306 -977,2383 -2240,2540 -1,-108 -8,-215 -20,-320 71,-10 143,-23 214,-40 236,-55 453,-146 649,-265l-332 -547c291,-177 516,-442 645,-750l590 247c177,-421 227,-900 114,-1379l-623 147c-80,-343 -266,-633 -513,-846l417 -485c-354,-304 -801,-496 -1276,-535l-53 638c-163,-13 -331,-2 -499,38 -168,39 -324,104 -464,189l-332 -547c-408,248 -722,619 -903,1050l590 247c-61,147 -101,303 -117,465 -296,-106 -615,-165 -947,-167 157,-1263 1234,-2240 2540,-2240z"/>
	<path id="curve1" fill="#E68497" d="M3200 4480c707,0 1280,573 1280,1280 0,707 -573,1280 -1280,1280 -707,0 -1280,-573 -1280,-1280 0,-707 573,-1280 1280,-1280z"/>
	<path id="curve0" fill="#E68497" d="M3200 3200c1414,0 2560,1146 2560,2560 0,1414 -1146,2560 -2560,2560 -1414,0 -2560,-1146 -2560,-2560 0,-1414 1146,-2560 2560,-2560zm-2066 1695l590 247c-126,301 -162,643 -81,985l-623 147c113,479 372,886 719,1184l417 -485c253,217 572,354 912,382l-53 638c229,19 464,3 699,-53 236,-55 453,-146 649,-265l-332 -547c291,-177 516,-442 645,-750l590 247c177,-421 227,-900 114,-1379l-623 147c-80,-343 -266,-633 -513,-846l417 -485c-354,-304 -801,-496 -1276,-535l-53 638c-163,-13 -331,-2 -499,38 -168,39 -324,104 -464,189l-332 -547c-408,248 -722,619 -903,1050z"/>
</svg>
