<?xml version="1.0" encoding="UTF-8"?>
<!DOCTYPE svg PUBLIC "-//W3C//DTD SVG 1.1//EN" "http://www.w3.org/Graphics/SVG/1.1/DTD/svg11.dtd">
<svg xmlns="http://www.w3.org/2000/svg" xml:space="preserve" width="1024px" height="1024px" shape-rendering="geometricPrecision" text-rendering="geometricPrecision" image-rendering="optimizeQuality" fill-rule="nonzero" clip-rule="evenodd" viewBox="0 0 10240 10240" xmlns:xlink="http://www.w3.org/1999/xlink">
	<title>gamepad icon</title>
	<desc>gamepad icon from the IconExperience.com O-Collection. Copyright by INCORS GmbH (www.incors.com).</desc>
	<path id="curve1" fill="#808080" d="M7360 1920c1280,0 2240,960 2240,2240 0,2880 0,4800 -960,4800 -1280,0 -1433,-1920 -2240,-1920 -320,0 -703,320 -1280,320 -511,0 -960,-320 -1280,-320 -869,0 -960,1920 -2240,1920 -960,0 -960,-1920 -960,-4800 0,-1280 960,-2240 2240,-2240 1280,0 1280,640 2240,640 960,0 960,-640 2240,-640zm960 1920c-353,0 -640,287 -640,640 0,353 287,640 640,640 353,0 640,-287 640,-640 0,-353 -287,-640 -640,-640zm-960 1280c-353,0 -640,287 -640,640 0,353 287,640 640,640 353,0 640,-287 640,-640 0,-353 -287,-640 -640,-640zm-960 -1280c-353,0 -640,287 -640,640 0,353 287,640 640,640 353,0 640,-287 640,-640 0,-353 -287,-640 -640,-640zm960 -1280c-353,0 -640,287 -640,640 0,353 287,640 640,640 353,0 640,-287 640,-640 0,-353 -287,-640 -640,-640zm-4480 0c-884,0 -1600,716 -1600,1600 0,884 716,1600 1600,1600 884,0 1600,-716 1600,-1600 0,-884 -716,-1600 -1600,-1600z"/>
	<path id="curve0" fill="#4D82B8" d="M2880 2880c707,0 1280,573 1280,1280 0,707 -573,1280 -1280,1280 -707,0 -1280,-573 -1280,-1280 0,-707 573,-1280 1280,-1280z"/>
</svg>
