<?xml version="1.0" encoding="UTF-8"?>
<!DOCTYPE svg PUBLIC "-//W3C//DTD SVG 1.1//EN" "http://www.w3.org/Graphics/SVG/1.1/DTD/svg11.dtd">
<svg xmlns="http://www.w3.org/2000/svg" xml:space="preserve" width="1024px" height="1024px" shape-rendering="geometricPrecision" text-rendering="geometricPrecision" image-rendering="optimizeQuality" fill-rule="nonzero" clip-rule="evenodd" viewBox="0 0 10240 10240" xmlns:xlink="http://www.w3.org/1999/xlink">
	<title>garbage2 icon</title>
	<desc>garbage2 icon from the IconExperience.com O-Collection. Copyright by INCORS GmbH (www.incors.com).</desc>
	<path id="curve1" fill="#808080" d="M2887,4480 3407,8640 6833,8640 7353,4480z"/>
	<path id="curve0" fill="#808080" d="M8320 1280c353,0 640,287 640,640 0,266 -163,494 -394,591l-816 6528c-40,322 -310,561 -635,561l-3990 0c-325,0 -595,-239 -635,-561l-816 -6528c-231,-97 -394,-325 -394,-591 0,-353 287,-640 640,-640l6400 0zm-405 1280l-5590 0 800 6400 3990 0 800 -6400z"/>
</svg>
