<?xml version="1.0" encoding="UTF-8"?>
<!DOCTYPE svg PUBLIC "-//W3C//DTD SVG 1.1//EN" "http://www.w3.org/Graphics/SVG/1.1/DTD/svg11.dtd">
<svg xmlns="http://www.w3.org/2000/svg" xml:space="preserve" width="1024px" height="1024px" shape-rendering="geometricPrecision" text-rendering="geometricPrecision" image-rendering="optimizeQuality" fill-rule="nonzero" clip-rule="evenodd" viewBox="0 0 10240 10240" xmlns:xlink="http://www.w3.org/1999/xlink">
	<title>garbage_make_empty icon</title>
	<desc>garbage_make_empty icon from the IconExperience.com O-Collection. Copyright by INCORS GmbH (www.incors.com).</desc>
	<path id="curve2" fill="#808080" d="M4063 8643l-187 0c-44,0 -82,-16 -113,-47l-160 -160c-62,-62 -164,-62 -226,0l-450 449c-47,48 -60,117 -33,178l185 418c26,58 79,93 142,95l807 24c63,2 119,-31 147,-88l223 -446c32,-63 20,-135 -30,-185l-191 -191c-32,-31 -69,-47 -114,-47zm-2916 -422l573 416c57,42 80,112 58,179l-67 206 321 -161c18,-9 36,-13 56,-13l347 0c69,0 125,56 125,125l0 502c0,69 -56,125 -125,125l-550 0c-48,0 -90,-26 -112,-69l-138 -276 -76 234c-22,67 -81,111 -152,111l-708 0c-70,0 -130,-44 -152,-111l-219 -673c-22,-67 1,-137 58,-179l573 -416c57,-41 131,-41 188,0z"/>
	<path id="curve1" fill="#76A797" d="M4473 4652c-17,-88 -26,-177 -26,-267 0,-356 136,-713 408,-984 46,-46 94,-88 144,-126 7,15 14,29 22,44l258 446c-10,10 -21,19 -31,29 -163,163 -244,377 -244,591 0,38 2,76 8,113l108 -187c14,-25 41,-38 69,-34 29,3 51,23 58,51l138 514c15,56 8,109 -21,159l-281 486c-38,66 -123,89 -190,51l-486 -281c-50,-29 -83,-71 -97,-127l-138 -514c-8,-28 2,-56 25,-74 22,-17 52,-19 77,-5l199 115zm2016 -1699l-199 115c195,67 378,177 533,333 228,228 360,515 397,812 -16,-2 -32,-3 -49,-3l-515 0c-33,-152 -108,-297 -227,-416 -81,-81 -175,-142 -275,-183l109 188c14,25 12,54 -5,77 -18,23 -46,33 -74,25l-514 -138c-56,-15 -98,-47 -127,-97l-281 -486c-38,-67 -15,-152 51,-191l487 -280c49,-29 103,-36 158,-21l515 138c27,7 47,29 51,58 3,28 -10,55 -35,69zm265 2711l0 -230c-262,228 -588,343 -915,343 -185,0 -369,-37 -542,-110 10,-13 19,-26 27,-41l258 -446c84,27 170,40 257,40 181,0 362,-58 512,-175l-217 0c-28,0 -53,-17 -64,-43 -11,-27 -5,-56 15,-76l377 -377c41,-40 90,-61 147,-61l562 0c77,0 139,63 139,139l0 562c0,58 -20,107 -61,148l-377 376c-20,21 -49,26 -75,15 -27,-11 -43,-35 -43,-64z"/>
	<path id="curve0" fill="#808080" d="M1123 5180c-217,-217 -217,-570 0,-787 164,-164 404,-204 606,-121l4517 -3514c223,-173 536,-154 736,46l2454 2454c200,200 219,513 46,736l-3514 4517c83,202 43,442 -121,606 -217,217 -570,217 -787,0l-3937 -3937zm4644 3069l3462 -4452c74,-95 66,-228 -19,-313l-2454 -2454c-85,-85 -218,-93 -313,-19l-4452 3462 2460 2461 -103 -318c-22,-67 1,-137 58,-179l573 -416c57,-41 131,-41 188,0l207 150c32,-52 64,-105 95,-157 121,27 245,41 370,41 252,0 498,-56 721,-163 35,40 79,72 130,94 54,22 110,30 165,25l-1455 1871 367 367zm-154 -3631l546 -397c47,-34 105,-40 156,-18 4,-15 9,-30 14,-45 5,-2 10,-4 16,-6 16,36 29,74 38,113 -43,23 -82,52 -118,87l-377 377c-58,58 -92,133 -100,210 -40,-3 -79,-11 -117,-23 2,-48 -4,-97 -17,-146l-41 -152zm583 -2155l94 -141c24,-37 32,-77 23,-121l-37 -183c-9,-44 -13,-96 24,-121l204 -140c58,-40 27,-140 61,-189l2107 2107 -1083 1393 0 -441c0,-81 -24,-158 -65,-222l-28 -227c-46,-369 -213,-711 -476,-974 -73,-73 -152,-139 -237,-197 18,-50 24,-105 17,-160 -19,-139 -119,-254 -255,-290l-349 -94z"/>
</svg>
