<?xml version="1.0" encoding="UTF-8"?>
<!DOCTYPE svg PUBLIC "-//W3C//DTD SVG 1.1//EN" "http://www.w3.org/Graphics/SVG/1.1/DTD/svg11.dtd">
<svg xmlns="http://www.w3.org/2000/svg" xml:space="preserve" width="1024px" height="1024px" shape-rendering="geometricPrecision" text-rendering="geometricPrecision" image-rendering="optimizeQuality" fill-rule="nonzero" clip-rule="evenodd" viewBox="0 0 10240 10240" xmlns:xlink="http://www.w3.org/1999/xlink">
	<title>garbage_full icon</title>
	<desc>garbage_full icon from the IconExperience.com O-Collection. Copyright by INCORS GmbH (www.incors.com).</desc>
	<path id="curve2" fill="#76A797" d="M6026 4432c86,58 166,124 239,197 289,289 468,689 468,1131 0,75 -5,148 -15,220 -17,-7 -35,-13 -53,-18l-573 -153c1,-17 1,-33 1,-49 0,-265 -107,-505 -281,-679 -31,-31 -64,-59 -98,-86l64 241c9,32 -2,64 -28,84 -27,20 -61,22 -89,6l-531 -307c-57,-33 -94,-82 -111,-145l-168 -624c-22,-85 28,-173 114,-196l623 -167c64,-17 125,-9 182,24l531 306c28,17 43,47 39,80 -4,33 -27,58 -58,67l-256 68zm-258 3021l69 -256c-213,104 -451,163 -704,163 -370,0 -711,-126 -983,-337 15,-12 29,-24 43,-38l419 -419c150,97 329,154 521,154 132,0 258,-27 372,-75l-240 -64c-32,-9 -54,-34 -59,-67 -4,-33 11,-63 40,-80l530 -306c57,-33 118,-41 182,-24l624 167c85,23 136,111 113,196l-167 624c-17,64 -55,112 -112,145l-530 307c-29,16 -63,14 -89,-6 -26,-20 -37,-52 -29,-84zm-2418 -1989l187 187c27,-399 199,-757 465,-1022 150,-150 329,-271 529,-352 3,19 6,37 11,56l154 572c-90,46 -171,106 -242,176 -147,147 -246,342 -273,559l176 -176c23,-24 56,-30 87,-18 30,13 49,41 49,74l0 613c0,66 -23,123 -70,169l-457 457c-62,62 -164,62 -226,0l-457 -457c-46,-46 -70,-103 -70,-169l0 -613c0,-33 19,-61 50,-74 30,-12 63,-6 87,18z"/>
	<path id="curve1" fill="#808080" d="M7553 2880l-4866 0 298 2384c41,-49 94,-88 155,-113 59,-25 121,-34 182,-30 95,-268 249,-514 454,-719 181,-181 397,-325 634,-421l246 -100c59,-64 136,-112 226,-136l623 -167c146,-39 295,-20 425,56l531 306c140,81 218,238 196,399 -8,63 -31,122 -65,172 297,347 461,788 461,1249 0,88 -6,176 -18,263l-36 263c26,83 29,174 5,264l-167 624c-39,145 -130,264 -261,340l-530 306c-140,81 -316,69 -444,-29 -51,-39 -90,-88 -117,-143 -115,21 -233,32 -352,32 -428,0 -841,-142 -1179,-405l-207 -161c-86,-19 -167,-62 -233,-129l-358 -358 251 2013 3426 0 720 -5760zm-2765 3419c39,25 81,46 124,62 32,-84 92,-157 174,-204l530 -306c50,-29 102,-50 157,-62 0,-10 0,-19 0,-29 0,-37 -3,-73 -9,-109 -89,14 -182,-1 -263,-48l-531 -307c-50,-28 -94,-64 -132,-104 -40,21 -79,47 -114,76 57,70 89,158 89,252l0 613c0,57 -8,113 -25,166z"/>
	<path id="curve0" fill="#808080" d="M8320 1280c353,0 640,287 640,640 0,266 -163,494 -394,591l-816 6528c-40,322 -310,561 -635,561l-3990 0c-325,0 -595,-239 -635,-561l-816 -6528c-231,-97 -394,-325 -394,-591 0,-353 287,-640 640,-640l6400 0zm-405 1280l-5590 0 800 6400 3990 0 800 -6400z"/>
</svg>
