<?xml version="1.0" encoding="UTF-8"?>
<!DOCTYPE svg PUBLIC "-//W3C//DTD SVG 1.1//EN" "http://www.w3.org/Graphics/SVG/1.1/DTD/svg11.dtd">
<svg xmlns="http://www.w3.org/2000/svg" xml:space="preserve" width="1024px" height="1024px" shape-rendering="geometricPrecision" text-rendering="geometricPrecision" image-rendering="optimizeQuality" fill-rule="nonzero" clip-rule="evenodd" viewBox="0 0 10240 10240" xmlns:xlink="http://www.w3.org/1999/xlink">
	<title>garbage_container icon</title>
	<desc>garbage_container icon from the IconExperience.com O-Collection. Copyright by INCORS GmbH (www.incors.com).</desc>
	<path id="curve2" fill="#808080" d="M7040 7040c707,0 1280,573 1280,1280 0,707 -573,1280 -1280,1280 -707,0 -1280,-573 -1280,-1280 0,-707 573,-1280 1280,-1280zm0 640c-353,0 -640,287 -640,640 0,353 287,640 640,640 353,0 640,-287 640,-640 0,-353 -287,-640 -640,-640z"/>
	<path id="curve1" fill="#808080" d="M7680 2880l0 3973c-196,-85 -412,-133 -640,-133 -884,0 -1600,716 -1600,1600 0,523 251,988 640,1280l-2240 0c-352,0 -640,-288 -640,-640l0 -2898c0,-208 -42,-386 -135,-572l-370 -740c-93,-186 -135,-364 -135,-572l0 -1618 4405 0c175,196 431,320 715,320z"/>
	<path id="curve0" fill="#808080" d="M7680 1280c353,0 640,287 640,640 0,353 -287,640 -640,640 -237,0 -444,-129 -554,-320l-4246 0 -480 0c-88,0 -160,-72 -160,-160l0 -160c0,-353 287,-640 640,-640l320 0 0 0c0,-176 144,-320 320,-320l3200 0c176,0 320,144 320,320l0 0 639 0 1 0z"/>
</svg>
