<?xml version="1.0" encoding="UTF-8"?>
<!DOCTYPE svg PUBLIC "-//W3C//DTD SVG 1.1//EN" "http://www.w3.org/Graphics/SVG/1.1/DTD/svg11.dtd">
<svg xmlns="http://www.w3.org/2000/svg" xml:space="preserve" width="1024px" height="1024px" shape-rendering="geometricPrecision" text-rendering="geometricPrecision" image-rendering="optimizeQuality" fill-rule="nonzero" clip-rule="evenodd" viewBox="0 0 10240 10240" xmlns:xlink="http://www.w3.org/1999/xlink">
	<title>gas_cylinder icon</title>
	<desc>gas_cylinder icon from the IconExperience.com O-Collection. Copyright by INCORS GmbH (www.incors.com).</desc>
	<path id="curve1" fill="#808080" d="M7680 5787c186,66 320,244 320,453 0,209 -134,387 -320,453l0 1073c0,117 -58,218 -160,277 -96,55 -160,159 -160,277 0,118 64,222 160,277 102,59 160,160 160,277l0 726 -5120 0 0 -726c0,-117 58,-218 160,-277 96,-55 160,-159 160,-277 0,-118 -64,-222 -160,-277 -102,-59 -160,-160 -160,-277l0 -1073c-186,-66 -320,-244 -320,-453 0,-209 134,-387 320,-453l0 -667c0,-962 535,-1803 1323,-2240l2474 0c788,437 1323,1278 1323,2240l0 667zm-3745 -2178c-448,352 -735,898 -735,1511l0 320c0,176 144,320 320,320 176,0 320,-144 320,-320l0 -320c0,-409 192,-773 490,-1008 120,-94 157,-255 90,-392 -44,-90 -119,-149 -216,-171 -98,-22 -190,-1 -269,60z"/>
	<path id="curve0" fill="#E68497" d="M4800 640l640 0c353,0 640,287 640,640l0 1280 -1920 0 0 -1280c0,-353 287,-640 640,-640z"/>
</svg>
