<?xml version="1.0" encoding="UTF-8"?>
<!DOCTYPE svg PUBLIC "-//W3C//DTD SVG 1.1//EN" "http://www.w3.org/Graphics/SVG/1.1/DTD/svg11.dtd">
<svg xmlns="http://www.w3.org/2000/svg" xml:space="preserve" width="1024px" height="1024px" shape-rendering="geometricPrecision" text-rendering="geometricPrecision" image-rendering="optimizeQuality" fill-rule="nonzero" clip-rule="evenodd" viewBox="0 0 10240 10240" xmlns:xlink="http://www.w3.org/1999/xlink">
	<title>gauge icon</title>
	<desc>gauge icon from the IconExperience.com O-Collection. Copyright by INCORS GmbH (www.incors.com).</desc>
	<path id="curve3" fill="#808080" d="M3840,7040 6400,7040 6400,7680 3840,7680z"/>
	<path id="curve2" fill="#808080" d="M5120 1600c424,0 830,75 1207,212 -59,41 -111,93 -154,154l-269 382c-250,-70 -512,-108 -784,-108 -1591,0 -2880,1289 -2880,2880 0,795 322,1515 844,2036l-453 453c-637,-637 -1031,-1517 -1031,-2489 0,-1944 1576,-3520 3520,-3520zm2261 823c770,645 1259,1614 1259,2697 0,972 -394,1852 -1031,2489l-453 -453c522,-521 844,-1241 844,-2036 0,-809 -334,-1541 -871,-2064l196 -425c31,-67 50,-138 56,-208z"/>
	<path id="curve1" fill="#E68497" d="M6000 4736c117,269 110,590 -49,864 -265,459 -852,616 -1311,351 -459,-265 -616,-852 -351,-1311 158,-274 432,-441 724,-474l1421 -2016c96,-135 278,-175 422,-92l48 27c144,84 200,261 131,412l-1035 2239z"/>
	<path id="curve0" fill="#808080" d="M5120 640c2474,0 4480,2006 4480,4480 0,2474 -2006,4480 -4480,4480 -2474,0 -4480,-2006 -4480,-4480 0,-2474 2006,-4480 4480,-4480zm0 640c-2121,0 -3840,1719 -3840,3840 0,2121 1719,3840 3840,3840 2121,0 3840,-1719 3840,-3840 0,-2121 -1719,-3840 -3840,-3840z"/>
</svg>
