<?xml version="1.0" encoding="UTF-8"?>
<!DOCTYPE svg PUBLIC "-//W3C//DTD SVG 1.1//EN" "http://www.w3.org/Graphics/SVG/1.1/DTD/svg11.dtd">
<svg xmlns="http://www.w3.org/2000/svg" xml:space="preserve" width="1024px" height="1024px" shape-rendering="geometricPrecision" text-rendering="geometricPrecision" image-rendering="optimizeQuality" fill-rule="nonzero" clip-rule="evenodd" viewBox="0 0 10240 10240" xmlns:xlink="http://www.w3.org/1999/xlink">
	<title>gauntlet icon</title>
	<desc>gauntlet icon from the IconExperience.com O-Collection. Copyright by INCORS GmbH (www.incors.com).</desc>
	<path id="curve0" fill="#808080" d="M7680 1600c353,0 640,288 640,640l0 640 -640 -640 -640 640 0 453 640 -640 640 640 0 677 -640 -640 -640 640 0 453 640 -640 640 640 0 838 -600 -699 -648 324 -640 -640 -651 325 -661 -536 -661 536 -674 -337 -537 806 -217 -650c-10,-32 -30,-59 -55,-77l-1054 -791 -2 -514c0,-95 81,-169 175,-160 577,56 1105,400 1105,1272l0 -188 640 -640 640 640 0 -320 640 -640 640 641 0 319 640 -640 640 640 0 -452 -640 -640 -640 640 0 -320 -640 -640 -640 640 0 320 -640 -640 -640 640 0 -827 640 -641 640 641 0 -321 640 -639 640 640 0 320 640 -641 640 641 0 -453 0 0c0,-353 288,-640 640,-640zm556 4093l-556 1667 320 1600 -2560 960 -2560 -960 320 -1600 -322 -431c289,-124 482,-408 482,-734l0 -707 535 -802 606 303 619 -504 619 504 629 -315 640 640 632 -316 596 695zm-5558 968l-748 -1001 -7 -1698 822 616 295 886 0 731c0,225 -147,412 -362,466zm522 -4421l0 -960c0,-353 288,-640 640,-640 300,0 553,208 621,487l19 -167c0,-353 288,-640 640,-640 353,0 640,288 640,640l19 167c68,-279 321,-487 621,-487 353,0 640,288 640,640l0 960 -640 -640 -640 640 0 -320 -640 -640 -640 640 0 320 -640 -640 -640 640z"/>
</svg>
