<?xml version="1.0" encoding="UTF-8"?>
<!DOCTYPE svg PUBLIC "-//W3C//DTD SVG 1.1//EN" "http://www.w3.org/Graphics/SVG/1.1/DTD/svg11.dtd">
<svg xmlns="http://www.w3.org/2000/svg" xml:space="preserve" width="1024px" height="1024px" shape-rendering="geometricPrecision" text-rendering="geometricPrecision" image-rendering="optimizeQuality" fill-rule="nonzero" clip-rule="evenodd" viewBox="0 0 10240 10240" xmlns:xlink="http://www.w3.org/1999/xlink">
	<title>gauze_bandage icon</title>
	<desc>gauze_bandage icon from the IconExperience.com O-Collection. Copyright by INCORS GmbH (www.incors.com).</desc>
	<path id="curve0" fill="#808080" d="M1969 3840c34,-218 85,-432 152,-640l-1161 0c-176,0 -320,144 -320,320l0 4800c0,176 144,320 320,320l4160 0 0 0 320 0c1149,0 2189,-466 2942,-1218 752,-753 1218,-1793 1218,-2942 0,-972 -394,-1852 -1031,-2489 -637,-637 -1517,-1031 -2489,-1031 -972,0 -1852,394 -2489,1031 -494,494 -841,1134 -973,1849 -38,208 -58,421 -58,640 0,795 322,1515 844,2036 521,522 1241,844 2036,844 795,0 1515,-322 2036,-844 522,-521 844,-1241 844,-2036 0,-619 -251,-1179 -656,-1584 -405,-405 -965,-656 -1584,-656 -618,0 -1179,251 -1584,656 -405,405 -656,965 -656,1584 0,442 179,842 469,1131 289,290 689,469 1131,469 442,0 842,-179 1131,-469 290,-289 469,-689 469,-1131 0,-265 -107,-505 -281,-679 -174,-174 -414,-281 -679,-281 -265,0 -505,107 -679,281 -174,174 -281,414 -281,679l0 320 640 0 0 -320c0,-88 36,-168 94,-226 58,-58 138,-94 226,-94 88,0 168,36 226,94 58,58 94,138 94,226 0,265 -107,505 -281,679 -174,174 -414,281 -679,281 -265,0 -505,-107 -679,-281 -174,-174 -281,-414 -281,-679 0,-442 179,-842 469,-1131 289,-290 689,-469 1131,-469 442,0 842,179 1131,469 290,289 469,689 469,1131 0,619 -251,1179 -656,1584 -405,405 -965,656 -1584,656 -619,0 -1179,-251 -1584,-656 -405,-405 -656,-965 -656,-1584 0,-795 322,-1515 844,-2036 521,-522 1241,-844 2036,-844 795,0 1515,322 2037,844 521,521 843,1241 843,2036 0,972 -394,1852 -1031,2489 -637,637 -1517,1031 -2489,1031l-320 0 0 0 -3840 0 0 -4160 689 0z"/>
</svg>
