<?xml version="1.0" encoding="UTF-8"?>
<!DOCTYPE svg PUBLIC "-//W3C//DTD SVG 1.1//EN" "http://www.w3.org/Graphics/SVG/1.1/DTD/svg11.dtd">
<svg xmlns="http://www.w3.org/2000/svg" xml:space="preserve" width="1024px" height="1024px" shape-rendering="geometricPrecision" text-rendering="geometricPrecision" image-rendering="optimizeQuality" fill-rule="nonzero" clip-rule="evenodd" viewBox="0 0 10240 10240" xmlns:xlink="http://www.w3.org/1999/xlink">
	<title>geiger_counter icon</title>
	<desc>geiger_counter icon from the IconExperience.com O-Collection. Copyright by INCORS GmbH (www.incors.com).</desc>
	<path id="curve2" fill="#ED9A56" d="M4800 1920l4480 0c176,0 320,144 320,320l0 6400c0,176 -144,320 -320,320l-4480 0c-176,0 -320,-144 -320,-320l0 -6400c0,-176 144,-320 320,-320zm2240 4160c-177,0 -320,143 -320,320 0,177 143,320 320,320 177,0 320,-143 320,-320 0,-177 -143,-320 -320,-320zm887 2023c20,-10 33,-27 40,-48 6,-22 4,-43 -8,-63l-599 -1038c-94,55 -203,86 -320,86 -117,0 -226,-31 -320,-86l-599 1038c-11,20 -14,41 -8,62 7,22 20,38 40,49 573,299 1235,280 1774,0zm-1527 -1703c0,-237 129,-444 320,-554l-599 -1038c-23,-40 -74,-52 -112,-28 -546,347 -860,929 -887,1536 -2,46 34,84 80,84l1198 0zm960 -554c191,110 320,317 320,554l1198 0c46,0 82,-38 80,-83 -27,-646 -374,-1210 -886,-1537 -39,-24 -90,-12 -113,28l-599 1038zm-2240 -3286l0 1280 1600 0 163 -816c15,-75 80,-128 157,-128 77,0 142,53 157,128l163 816 1600 0 0 -1280 -3840 0z"/>
	<path id="curve1" fill="#808080" d="M1600 5385l0 2935c0,352 288,640 640,640 352,0 640,-288 640,-640l0 -3200c0,-705 575,-1280 1280,-1280l0 640c-352,0 -640,288 -640,640l0 3200c0,705 -575,1280 -1280,1280 -705,0 -1280,-575 -1280,-1280l0 -2935c100,36 208,55 320,55 112,0 220,-19 320,-55z"/>
	<path id="curve0" fill="#808080" d="M800 640l960 0c88,0 160,72 160,160l0 3680c0,353 -287,640 -640,640 -353,0 -640,-287 -640,-640l0 -3680c0,-88 72,-160 160,-160z"/>
</svg>
