<?xml version="1.0" encoding="UTF-8"?>
<!DOCTYPE svg PUBLIC "-//W3C//DTD SVG 1.1//EN" "http://www.w3.org/Graphics/SVG/1.1/DTD/svg11.dtd">
<svg xmlns="http://www.w3.org/2000/svg" xml:space="preserve" width="1024px" height="1024px" shape-rendering="geometricPrecision" text-rendering="geometricPrecision" image-rendering="optimizeQuality" fill-rule="nonzero" clip-rule="evenodd" viewBox="0 0 10240 10240" xmlns:xlink="http://www.w3.org/1999/xlink">
	<title>genius icon</title>
	<desc>genius icon from the IconExperience.com O-Collection. Copyright by INCORS GmbH (www.incors.com).</desc>
	<path id="curve3" fill="#808080" d="M5760 6569l0 1c0,142 -151,478 -369,580l369 1810 -640 640 -640 -640 380 -1805c-224,-100 -380,-441 -380,-585l0 -3c206,53 421,82 644,82 219,0 433,-28 636,-80z"/>
	<path id="curve2" fill="#808080" d="M8000 8559c0,650 -1313,958 -2412,1026l398 -399c79,-78 110,-181 88,-290l-330 -1614c192,-189 336,-477 336,-712 0,-34 0,-70 -2,-105 315,-127 599,-315 838,-549 660,620 1084,1573 1084,2643zm-3348 1026c-1099,-68 -2412,-376 -2412,-1025 0,-1073 425,-2028 1088,-2647 237,234 520,421 834,549 -2,36 -2,73 -2,108 0,238 148,530 345,720l-338 1604c-23,109 8,213 87,292l398 399z"/>
	<path id="curve1" fill="#EFC1B4" d="M5124 6329c1237,0 2240,-1003 2240,-2240 0,-20 -1,-39 -1,-58l0 0c-31,-1199 -1025,-1791 -2243,-1791 -1218,0 -2205,592 -2236,1791l0 0c0,19 0,38 0,58 0,1237 1002,2240 2240,2240zm-320 -1600l640 0c352,0 640,287 640,640l0 0c0,0 0,1 0,2 -1,62 -34,116 -90,143 -56,27 -119,21 -168,-17 -109,-84 -241,-128 -387,-128l-630 0c-147,0 -279,44 -388,128 -49,38 -112,44 -168,17 -56,-27 -89,-81 -89,-143 0,-1 0,-2 0,-2l0 0c0,-353 287,-640 640,-640z"/>
	<path id="curve0" fill="#808080" d="M2624 3550c-108,-9 -259,31 -474,149 -55,30 -118,27 -170,-10 -51,-36 -75,-95 -65,-157 121,-710 1047,-1314 139,-1859 -41,-24 -66,-61 -75,-108 -8,-48 3,-91 33,-129 395,-494 1503,-217 1284,-901 -16,-51 -7,-103 26,-146 33,-43 81,-65 136,-62 706,40 737,242 1026,242 282,0 561,-194 1061,-239 49,-5 93,11 127,45 35,34 51,78 47,126 -45,580 1097,-11 1759,80 51,7 93,35 118,81 25,45 28,95 7,142 -428,976 393,784 756,1191 33,37 47,83 39,132 -8,49 -35,88 -78,113 -893,516 4,809 35,1384 3,54 -19,101 -61,134 -42,34 -93,43 -144,28 -224,-66 -384,-95 -498,-95 -68,-406 -239,-738 -483,-1001l1 0c4,-172 59,-322 145,-455 -95,-66 -182,-142 -261,-241 -176,-221 -237,-465 -228,-714 -502,102 -1121,265 -1519,-152 -26,-27 -49,-56 -70,-85 -246,72 -482,166 -753,166 -130,0 -255,-21 -378,-63 -74,-25 -143,-59 -213,-88 -21,50 -48,99 -80,147 -211,318 -524,408 -853,491 70,132 115,279 126,443 20,285 -65,530 -182,766l0 0c-127,187 -223,402 -280,645z"/>
</svg>
