<?xml version="1.0" encoding="UTF-8"?>
<!DOCTYPE svg PUBLIC "-//W3C//DTD SVG 1.1//EN" "http://www.w3.org/Graphics/SVG/1.1/DTD/svg11.dtd">
<svg xmlns="http://www.w3.org/2000/svg" xml:space="preserve" width="1024px" height="1024px" shape-rendering="geometricPrecision" text-rendering="geometricPrecision" image-rendering="optimizeQuality" fill-rule="nonzero" clip-rule="evenodd" viewBox="0 0 10240 10240" xmlns:xlink="http://www.w3.org/1999/xlink">
	<title>ghost icon</title>
	<desc>ghost icon from the IconExperience.com O-Collection. Copyright by INCORS GmbH (www.incors.com).</desc>
	<path id="curve1" fill="#808080" d="M6004 2630c-256,-168 -564,-67 -564,673 0,647 318,1177 635,1177 318,0 336,-630 322,-1009 -15,-379 -137,-673 -393,-841zm-1768 0c256,-168 564,-67 564,673 0,647 -318,1177 -635,1177 -318,0 -336,-630 -322,-1009 15,-379 137,-673 393,-841z"/>
	<path id="curve0" fill="#808080" d="M5120 640c1414,0 2560,1146 2560,2560 0,3200 1280,2754 1280,4800 0,960 -1920,1600 -3840,1600 -1920,0 -3840,-640 -3840,-1600 0,-2045 1280,-1600 1280,-4800 0,-1414 1146,-2560 2560,-2560zm0 640c-1061,0 -1920,859 -1920,1920 0,779 -68,1596 -334,2334 -167,463 -385,794 -625,1209 -248,429 -321,758 -321,1257 0,212 638,504 792,564 729,283 1629,396 2408,396 779,0 1679,-113 2408,-396 154,-60 792,-351 792,-564 0,-500 -74,-829 -321,-1258 -241,-416 -458,-746 -625,-1209 -266,-737 -334,-1554 -334,-2333 0,-1061 -859,-1920 -1920,-1920z"/>
</svg>
