<?xml version="1.0" encoding="UTF-8"?>
<!DOCTYPE svg PUBLIC "-//W3C//DTD SVG 1.1//EN" "http://www.w3.org/Graphics/SVG/1.1/DTD/svg11.dtd">
<svg xmlns="http://www.w3.org/2000/svg" xml:space="preserve" width="1024px" height="1024px" shape-rendering="geometricPrecision" text-rendering="geometricPrecision" image-rendering="optimizeQuality" fill-rule="nonzero" clip-rule="evenodd" viewBox="0 0 10240 10240" xmlns:xlink="http://www.w3.org/1999/xlink">
	<title>gift icon</title>
	<desc>gift icon from the IconExperience.com O-Collection. Copyright by INCORS GmbH (www.incors.com).</desc>
	<path id="curve1" fill="#E68497" d="M6992 3840l-1232 0 0 0 0 5760 -1280 0 0 -5760 -1232 0c-3156,0 72,-3897 1872,-1408 1801,-2489 5029,1408 1872,1408zm-3418 -320l1226 0c-700,-2160 -2977,0 -1226,0zm3093 0c1751,0 -526,-2160 -1227,0l1227 0z"/>
	<path id="curve0" fill="#808080" d="M1600 3840l0 0 387 0c327,252 802,320 1213,320l-1280 0 0 4800 2240 0 0 640 -2560 0c-176,0 -320,-144 -320,-320l0 -5120c0,-176 144,-320 320,-320zm6654 0l386 0c176,0 320,144 320,320l0 5120c0,176 -144,320 -320,320l-2560 0 0 -640 2240 0 0 -3520 -2240 0 0 -320 2240 0 0 -960 -1280 0c411,0 887,-68 1214,-320zm-6334 1280l2240 0 0 320 -2240 0 0 -320z"/>
</svg>
