<?xml version="1.0" encoding="UTF-8"?>
<!DOCTYPE svg PUBLIC "-//W3C//DTD SVG 1.1//EN" "http://www.w3.org/Graphics/SVG/1.1/DTD/svg11.dtd">
<svg xmlns="http://www.w3.org/2000/svg" xml:space="preserve" width="1024px" height="1024px" shape-rendering="geometricPrecision" text-rendering="geometricPrecision" image-rendering="optimizeQuality" fill-rule="nonzero" clip-rule="evenodd" viewBox="0 0 10240 10240" xmlns:xlink="http://www.w3.org/1999/xlink">
	<title>girl icon</title>
	<desc>girl icon from the IconExperience.com O-Collection. Copyright by INCORS GmbH (www.incors.com).</desc>
	<path id="curve2" fill="#E68497" d="M7680 8645c0,685 -1536,955 -2560,955 -1024,0 -2560,-270 -2560,-954 0,-983 378,-1858 967,-2426 456,302 1004,479 1593,479 589,0 1137,-177 1593,-479 589,568 967,1443 967,2425z"/>
	<path id="curve1" fill="#EFC1B4" d="M5120 1280c720,0 1370,296 1835,772 -103,100 -130,261 -55,391l320 554c75,130 228,187 366,147 61,218 94,448 94,685 0,1408 -1146,2550 -2560,2550 -1414,0 -2560,-1142 -2560,-2550 0,-237 33,-467 94,-685 138,40 291,-17 366,-147l320 -554c75,-130 48,-291 -55,-391 465,-476 1115,-772 1835,-772z"/>
	<path id="curve0" fill="#E68497" d="M8846 2900c-324,-15 -737,-124 -1046,-124 -104,-263 -246,-506 -419,-724 155,-268 267,-680 416,-968 53,-102 163,-147 277,-144 114,3 210,61 268,160 127,220 141,506 268,726 127,220 367,374 494,594 57,99 59,211 4,312 -54,100 -148,173 -262,168zm-6403 -1816c149,288 261,700 416,968 -173,218 -315,461 -419,724 -309,0 -722,109 -1046,124 -114,5 -208,-68 -262,-168 -55,-101 -53,-213 4,-312 127,-220 367,-376 494,-596 127,-220 142,-504 268,-724 58,-99 154,-157 268,-160 114,-3 224,42 277,144z"/>
</svg>
