<?xml version="1.0" encoding="UTF-8"?>
<!DOCTYPE svg PUBLIC "-//W3C//DTD SVG 1.1//EN" "http://www.w3.org/Graphics/SVG/1.1/DTD/svg11.dtd">
<svg xmlns="http://www.w3.org/2000/svg" xml:space="preserve" width="1024px" height="1024px" shape-rendering="geometricPrecision" text-rendering="geometricPrecision" image-rendering="optimizeQuality" fill-rule="nonzero" clip-rule="evenodd" viewBox="0 0 10240 10240" xmlns:xlink="http://www.w3.org/1999/xlink">
	<title>glass_cracked icon</title>
	<desc>glass_cracked icon from the IconExperience.com O-Collection. Copyright by INCORS GmbH (www.incors.com).</desc>
	<path id="curve1" fill="#EDC87E" d="M3840 8960l320 0c353,0 640,-287 640,-640l0 -1619c106,13 213,19 320,19 107,0 214,-6 320,-19l0 1619c0,353 287,640 640,640l320 0c176,0 320,144 320,320l0 320 -3200 0 0 -320c0,-176 144,-320 320,-320z"/>
	<path id="curve0" fill="#EDC87E" d="M5120 6400l-6 0 6 0 -6 0c-248,-1 -493,-40 -730,-115 -655,-210 -1186,-682 -1548,-1258 -402,-638 -596,-1396 -596,-2147l0 -1280c0,-176 144,-320 320,-320l320 0 960 0 960 0 -640 1600 960 960 -640 1280 640 960 -320 -960 960 -1280 -640 -1280 960 -1280 320 0 960 0 320 0c176,0 320,144 320,320l0 1280c0,751 -194,1509 -596,2147 -362,576 -893,1047 -1548,1258 -237,75 -482,114 -730,115l-6 0 6 0 -6 0z"/>
</svg>
