<?xml version="1.0" encoding="UTF-8"?>
<!DOCTYPE svg PUBLIC "-//W3C//DTD SVG 1.1//EN" "http://www.w3.org/Graphics/SVG/1.1/DTD/svg11.dtd">
<svg xmlns="http://www.w3.org/2000/svg" xml:space="preserve" width="1024px" height="1024px" shape-rendering="geometricPrecision" text-rendering="geometricPrecision" image-rendering="optimizeQuality" fill-rule="nonzero" clip-rule="evenodd" viewBox="0 0 10240 10240" xmlns:xlink="http://www.w3.org/1999/xlink">
	<title>glass_fork icon</title>
	<desc>glass_fork icon from the IconExperience.com O-Collection. Copyright by INCORS GmbH (www.incors.com).</desc>
	<path id="curve2" fill="#808080" d="M8000 5120l0 522c0,88 31,164 94,226l132 133c63,62 94,138 94,226l0 2733c0,352 -287,640 -640,640 -352,0 -640,-287 -640,-640l0 -2748c0,-92 35,-172 102,-234l116 -109c68,-62 102,-142 102,-234l0 -515c0,-235 -116,-436 -319,-554 -383,-221 -641,-636 -641,-1108 0,-533 0,-1325 0,-1858 0,-176 144,-320 320,-320 176,0 320,144 320,320l0 1600c0,88 72,160 160,160 88,0 160,-72 160,-160l0 -1600c0,-176 144,-320 320,-320 176,0 320,144 320,320l0 1600c0,88 72,160 160,160 88,0 160,-72 160,-160l0 -1600c0,-176 144,-320 320,-320 176,0 320,144 320,320 0,533 0,1325 0,1858 0,472 -258,887 -641,1108 -203,118 -319,319 -319,554z"/>
	<path id="curve1" fill="#EDC87E" d="M2240 8960l320 0c353,0 640,-287 640,-640l0 -2240c213,29 427,29 640,0l0 2240c0,353 287,640 640,640l320 0c176,0 320,144 320,320l0 320 -3200 0 0 -320c0,-176 144,-320 320,-320z"/>
	<path id="curve0" fill="#EDC87E" d="M3520 5760c1280,0 2240,-1600 2240,-3200l0 -960c0,-176 -144,-320 -320,-320 -1578,0 -1217,0 -3840,0 -176,0 -320,144 -320,320l0 960c0,1600 960,3200 2240,3200zm-1600 -3520c0,-176 144,-320 320,-320 176,0 320,144 320,320l0 320c0,403 90,833 265,1204 94,199 -36,433 -259,454 -137,14 -262,-57 -320,-182 -215,-456 -326,-979 -326,-1476l0 -320z"/>
</svg>
