<?xml version="1.0" encoding="UTF-8"?>
<!DOCTYPE svg PUBLIC "-//W3C//DTD SVG 1.1//EN" "http://www.w3.org/Graphics/SVG/1.1/DTD/svg11.dtd">
<svg xmlns="http://www.w3.org/2000/svg" xml:space="preserve" width="1024px" height="1024px" shape-rendering="geometricPrecision" text-rendering="geometricPrecision" image-rendering="optimizeQuality" fill-rule="nonzero" clip-rule="evenodd" viewBox="0 0 10240 10240" xmlns:xlink="http://www.w3.org/1999/xlink">
	<title>globe icon</title>
	<desc>globe icon from the IconExperience.com O-Collection. Copyright by INCORS GmbH (www.incors.com).</desc>
	<path id="curve1" fill="#808080" d="M7065 651c2115,897 3102,3340 2204,5454 -583,1373 -1816,2271 -3189,2486l0 369 1280 0c176,0 320,144 320,320l0 320 -4480 0 0 -320c0,-176 144,-320 320,-320l1280 0 0 -369c-332,-52 -662,-145 -985,-282l-737 -312c-81,-35 -119,-129 -85,-210l125 -295c35,-81 129,-119 210,-84l737 312c1025,435 2240,376 3253,-263 1644,-1038 2136,-3211 1099,-4855 -398,-631 -963,-1092 -1602,-1362l-736 -313c-81,-34 -119,-128 -85,-210l125 -294c35,-81 129,-119 210,-85l736 313z"/>
	<path id="curve0" fill="#4D82B8" d="M5440 1280c1767,0 3200,1433 3200,3200 0,1767 -1433,3200 -3200,3200 -1767,0 -3200,-1433 -3200,-3200 0,-1767 1433,-3200 3200,-3200zm1096 2409c81,5 187,44 220,74 161,146 69,337 250,453 21,13 148,-6 170,8 110,72 176,232 303,224 76,-5 159,-110 121,-176 -37,-64 -132,-69 -173,-135 -61,-99 -170,-43 -207,-157 -17,-52 -25,-194 -42,-274 -18,-85 -168,-117 -158,-78 31,126 129,186 120,244 -10,64 -191,77 -107,-10 44,-46 -48,-126 -144,-243 -51,-62 -77,-176 -194,-171 -58,3 -198,79 -258,118 -102,66 -232,-19 -308,-106 -74,-85 20,-312 184,-359 157,-45 228,53 355,69 52,6 96,-34 186,-51 105,-21 10,-164 92,-235 66,-57 193,-21 270,-25 72,-4 161,-25 210,41 67,92 162,139 228,232 66,94 123,164 197,210 -235,-500 -626,-928 -1139,-1206 40,110 62,247 5,301 -80,74 -187,162 -393,153 -151,-7 -325,-78 -481,-77 -161,1 -294,-61 -380,-76 -136,-23 177,-402 162,-466 -23,-94 -376,-171 -436,-109 -139,145 -48,357 -69,388 -42,60 -151,322 -242,363 -139,63 -419,53 -453,44 -166,-45 -270,100 -427,144 -66,18 -425,173 -498,237 -201,174 -156,359 -126,424 52,112 84,134 165,203 32,28 309,360 364,500 55,143 59,269 133,370 88,123 271,297 276,365 24,310 -172,647 -653,740 -125,24 -369,48 -396,249 -5,37 -14,70 -22,101 278,405 671,738 1157,945 1356,575 2921,-57 3497,-1413 63,-149 112,-301 147,-454 -7,-7 -15,-11 -23,-12 -48,-5 -108,129 -187,186 -64,47 -151,19 -172,31 -143,85 117,312 -86,427 -88,49 -329,141 -465,335 -290,412 -109,166 -409,467 -45,45 -173,237 -223,271 -230,153 -726,227 -770,65 -25,-95 -14,-216 12,-325 25,-109 -26,-285 19,-361 70,-118 97,-154 161,-297 3,-6 64,-392 63,-428 -6,-165 -86,-271 -257,-283 -132,-10 -205,-109 -281,-185 -152,-152 -136,-428 -91,-640 0,-1 159,-296 167,-312 40,-79 110,-139 180,-183 530,-332 367,-162 856,-135zm-3521 1901c-27,-116 -45,-220 -44,-290 2,-152 88,-393 56,-492 -66,-204 -134,-375 -94,-537 37,-149 43,-384 75,-500 36,-128 45,-278 16,-419 -13,28 -26,57 -39,86 -304,718 -270,1495 30,2152z"/>
</svg>
