<?xml version="1.0" encoding="UTF-8"?>
<!DOCTYPE svg PUBLIC "-//W3C//DTD SVG 1.1//EN" "http://www.w3.org/Graphics/SVG/1.1/DTD/svg11.dtd">
<svg xmlns="http://www.w3.org/2000/svg" xml:space="preserve" width="1024px" height="1024px" shape-rendering="geometricPrecision" text-rendering="geometricPrecision" image-rendering="optimizeQuality" fill-rule="nonzero" clip-rule="evenodd" viewBox="0 0 10240 10240" xmlns:xlink="http://www.w3.org/1999/xlink">
	<title>goal icon</title>
	<desc>goal icon from the IconExperience.com O-Collection. Copyright by INCORS GmbH (www.incors.com).</desc>
	<path id="curve1" fill="#76A797" d="M3520 7360l0 -640 -640 0 0 640 640 0zm-1280 -622l-320 160 0 -356 320 -160 0 -622 -320 0 0 -320 320 0 0 -640 -320 -160 0 -356 320 160 0 -284c0,-190 -74,-264 -222,-410 1,0 -85,-85 -98,-98l0 -452 453 0c103,104 216,207 309,320l705 0 -320 -320 453 0 320 320 604 0 -160 -320 356 0 160 320 640 0 160 -320 356 0 -160 320 604 0 320 -320 453 0 -320 320 711 0c57,-68 125,-136 205,-214 30,-30 71,-71 105,-106l446 0 0 459c-34,35 -69,68 -104,102 -142,140 -218,215 -217,399l0 284 321 -160 0 356 -320 160 1 640 319 0 0 320 -318 0 1 642 317 158 0 356 -316 -158 1 474 315 316 0 452 -320 -320 -320 0 -312 0 -648 0 -320 0 -640 0 -320 0 -640 0 -320 0 -640 0 -320 0 -640 0 -320 0 -320 0 -320 320 0 -452 320 -320 0 -490zm640 -338l640 0 0 -640 -640 0 0 640zm0 -960l640 0 0 -640 -640 0 0 640zm0 -960l640 0 0 -640 -673 0c22,88 33,191 33,320l0 320zm4515 -640l-675 0 0 640 642 0 -1 -320c0,-129 11,-232 34,-320zm-32 960l-643 0 0 640 644 0 -1 -640zm1 960l-644 0 0 640 646 0 -2 -640zm2 960l-646 0 0 640 648 0 -2 -640zm-3526 -2880l0 640 640 0 0 -640 -640 0zm0 960l0 640 640 0 0 -640 -640 0zm0 960l0 640 640 0 0 -640 -640 0zm0 960l0 640 640 0 0 -640 -640 0zm2560 -2880l-640 0 0 640 640 0 0 -640zm-960 0l-640 0 0 640 640 0 0 -640zm-640 2560l640 0 0 -640 -640 0 0 640zm960 0l640 0 0 -640 -640 0 0 640zm640 320l-640 0 0 640 640 0 0 -640zm-960 0l-640 0 0 640 640 0 0 -640zm-640 -1280l640 0 0 -640 -640 0 0 640zm960 0l640 0 0 -640 -640 0 0 640z"/>
	<path id="curve0" fill="#808080" d="M1280 1920l7680 0c353,0 640,287 640,640l0 5760 -640 0 -320 0 0 -5440 -7040 0 0 5440 -320 0 -640 0 0 -5760c0,-353 287,-640 640,-640z"/>
</svg>
