<?xml version="1.0" encoding="UTF-8"?>
<!DOCTYPE svg PUBLIC "-//W3C//DTD SVG 1.1//EN" "http://www.w3.org/Graphics/SVG/1.1/DTD/svg11.dtd">
<svg xmlns="http://www.w3.org/2000/svg" xml:space="preserve" width="1024px" height="1024px" shape-rendering="geometricPrecision" text-rendering="geometricPrecision" image-rendering="optimizeQuality" fill-rule="nonzero" clip-rule="evenodd" viewBox="0 0 10240 10240" xmlns:xlink="http://www.w3.org/1999/xlink">
	<title>goblet icon</title>
	<desc>goblet icon from the IconExperience.com O-Collection. Copyright by INCORS GmbH (www.incors.com).</desc>
	<path id="curve1" fill="#EDC87E" d="M5440 8473c203,117 320,294 320,487l960 0c176,0 320,144 320,320l0 320 -3840 0 0 -320c0,-176 144,-320 320,-320l960 0c0,-186 131,-356 320,-473l0 -2428c106,14 213,21 320,21 107,0 214,-7 320,-21l0 2414z"/>
	<path id="curve0" fill="#EDC87E" d="M5120 5760c1414,0 2560,-1433 2560,-3200l0 -1600c0,-176 -144,-320 -320,-320 -1578,0 -1857,0 -4480,0 -176,0 -320,144 -320,320l0 1600c0,1767 1146,3200 2560,3200zm-1920 -4160c0,-176 144,-320 320,-320l0 0c176,0 320,144 320,320l0 960c0,550 210,1297 673,1681 94,78 134,195 108,314 -25,112 -100,197 -209,234 -109,37 -220,17 -308,-57 -610,-508 -904,-1411 -904,-2172l0 -960z"/>
</svg>
