<?xml version="1.0" encoding="UTF-8"?>
<!DOCTYPE svg PUBLIC "-//W3C//DTD SVG 1.1//EN" "http://www.w3.org/Graphics/SVG/1.1/DTD/svg11.dtd">
<svg xmlns="http://www.w3.org/2000/svg" xml:space="preserve" width="1024px" height="1024px" shape-rendering="geometricPrecision" text-rendering="geometricPrecision" image-rendering="optimizeQuality" fill-rule="nonzero" clip-rule="evenodd" viewBox="0 0 10240 10240" xmlns:xlink="http://www.w3.org/1999/xlink">
	<title>gold_bar icon</title>
	<desc>gold_bar icon from the IconExperience.com O-Collection. Copyright by INCORS GmbH (www.incors.com).</desc>
	<path id="curve0" fill="#EDC87E" d="M9609 3373l-779 -1168c-122,-184 -312,-285 -533,-285l-2754 0c-161,0 -300,52 -421,158l-3711 3248c-90,78 -148,166 -186,279l-624 1873c-67,201 -36,404 88,576 124,172 307,266 519,266l3352 0c161,0 300,-52 421,-158l4517 -3952c243,-213 290,-568 111,-837zm-1656 -813l-3721 3244 328 1876 -3352 0 624 -1873 3711 -3247 2410 0z"/>
</svg>
