<?xml version="1.0" encoding="UTF-8"?>
<!DOCTYPE svg PUBLIC "-//W3C//DTD SVG 1.1//EN" "http://www.w3.org/Graphics/SVG/1.1/DTD/svg11.dtd">
<svg xmlns="http://www.w3.org/2000/svg" xml:space="preserve" width="1024px" height="1024px" shape-rendering="geometricPrecision" text-rendering="geometricPrecision" image-rendering="optimizeQuality" fill-rule="nonzero" clip-rule="evenodd" viewBox="0 0 10240 10240" xmlns:xlink="http://www.w3.org/1999/xlink">
	<title>goldfish icon</title>
	<desc>goldfish icon from the IconExperience.com O-Collection. Copyright by INCORS GmbH (www.incors.com).</desc>
	<path id="curve1" fill="#808080" d="M2720 4800c265,0 480,215 480,480 0,265 -215,480 -480,480 -265,0 -480,-215 -480,-480 0,-74 17,-144 47,-207 29,29 69,47 113,47 88,0 160,-72 160,-160 0,-44 -18,-84 -47,-113 63,-30 133,-47 207,-47z"/>
	<path id="curve0" fill="#ED9A56" d="M5760 2560c1280,0 254,1920 960,1920 640,0 961,-1236 2240,-1280 1572,-54 -299,1510 -320,2240 -17,611 1249,2240 320,2240 -1280,0 -1600,-1280 -1920,-1280 -320,0 -320,320 -960,640 -572,286 320,1280 -960,1280 -197,0 -287,0 -960,0 -349,0 -625,-888 -960,-960 -1270,-274 -2560,-718 -2560,-1600 0,-829 882,-1930 2240,-2240 264,-60 960,-960 1600,-960 320,0 960,0 1280,0zm-3040 1920c-442,0 -800,358 -800,800 0,442 358,800 800,800 442,0 800,-358 800,-800 0,-442 -358,-800 -800,-800z"/>
</svg>
