<?xml version="1.0" encoding="UTF-8"?>
<!DOCTYPE svg PUBLIC "-//W3C//DTD SVG 1.1//EN" "http://www.w3.org/Graphics/SVG/1.1/DTD/svg11.dtd">
<svg xmlns="http://www.w3.org/2000/svg" xml:space="preserve" width="1024px" height="1024px" shape-rendering="geometricPrecision" text-rendering="geometricPrecision" image-rendering="optimizeQuality" fill-rule="nonzero" clip-rule="evenodd" viewBox="0 0 10240 10240" xmlns:xlink="http://www.w3.org/1999/xlink">
	<title>gold_bars icon</title>
	<desc>gold_bars icon from the IconExperience.com O-Collection. Copyright by INCORS GmbH (www.incors.com).</desc>
	<path id="curve0" fill="#EDC87E" d="M2575 5073l-1451 1270c-45,39 -74,83 -93,139l-472 1417c-70,208 84,421 303,421l2423 0c81,0 150,-26 211,-79l78 -69c3,5 7,10 10,15 62,86 154,133 260,133l2422 0c81,0 150,-26 211,-79l3112 -2723c121,-106 145,-284 55,-418l-602 -904c-62,-92 -156,-143 -267,-143l-628 0 32 -28c122,-107 145,-284 56,-419l-603 -904c-61,-91 -156,-142 -266,-142l-1933 0c-81,0 -150,26 -211,79l-2526 2210c-45,40 -74,84 -93,140l-28 84zm4597 -1873l-2360 1948c-85,70 -126,169 -115,278l72 732 -32 29 -1859 0 305 -913 2370 -2074 1619 0zm1410 1493l-2361 1949c-84,69 -125,168 -114,278l71 730 0 30 -1890 0 284 -853 285 0c81,0 150,-26 211,-80l2347 -2054 1167 0zm-6407 1581l-44 131c-70,209 84,422 303,422l682 0 81 825 -32 28 -1859 0 305 -913 564 -493z"/>
</svg>
