<?xml version="1.0" encoding="UTF-8"?>
<!DOCTYPE svg PUBLIC "-//W3C//DTD SVG 1.1//EN" "http://www.w3.org/Graphics/SVG/1.1/DTD/svg11.dtd">
<svg xmlns="http://www.w3.org/2000/svg" xml:space="preserve" width="1024px" height="1024px" shape-rendering="geometricPrecision" text-rendering="geometricPrecision" image-rendering="optimizeQuality" fill-rule="nonzero" clip-rule="evenodd" viewBox="0 0 10240 10240" xmlns:xlink="http://www.w3.org/1999/xlink">
	<title>golf_ball icon</title>
	<desc>golf_ball icon from the IconExperience.com O-Collection. Copyright by INCORS GmbH (www.incors.com).</desc>
	<path id="curve0" fill="#808080" d="M5120 640c2474,0 4480,2006 4480,4480 0,2474 -2006,4480 -4480,4480 -2474,0 -4480,-2006 -4480,-4480 0,-2474 2006,-4480 4480,-4480zm2475 1395c-171,-99 -313,-138 -349,-89 -48,65 151,293 353,442 202,149 338,218 401,172 132,-97 -328,-465 -405,-525zm-2859 2205c-530,232 -734,876 -441,1371 43,73 156,36 148,-48 -34,-399 185,-793 573,-963 231,-101 480,-103 701,-26 79,28 142,-72 83,-132 -272,-272 -692,-365 -1064,-202zm-299 -900c14,211 132,394 312,519 67,46 153,-27 118,-101 -35,-71 -56,-149 -61,-231 -27,-403 338,-758 822,-805 88,-8 98,-134 13,-157 -109,-29 -227,-41 -349,-33 -500,33 -883,395 -855,808zm-1722 2634c21,82 140,79 157,-4 46,-236 185,-434 395,-526 231,-101 496,-52 713,106 69,51 159,-29 117,-104 -221,-393 -649,-585 -1000,-432 -332,145 -484,552 -382,960zm1822 -4270c-23,201 386,412 913,471 119,14 233,18 340,15 94,-3 105,-140 13,-159 -160,-32 -798,-210 -686,-478 24,-56 -22,-117 -83,-110 -284,33 -482,128 -497,261zm-2961 4274c8,50 59,80 106,63 289,-106 655,592 738,795 34,84 163,53 153,-39 -17,-174 -74,-385 -168,-600 -212,-486 -535,-814 -721,-733 -117,51 -151,252 -108,514zm3544 -4698c-2121,0 -3840,1719 -3840,3840 0,531 110,1036 303,1497 172,411 944,1270 1015,530 63,-663 852,-409 1058,-216 130,121 315,-2 368,-157 328,-974 1428,-354 1626,-440 74,-33 123,-93 139,-172 61,-295 260,-566 524,-711 146,-80 169,-279 44,-390 -107,-95 -199,-220 -263,-366 -194,-442 -67,-928 281,-1112 153,-80 174,-287 42,-397 -372,-307 -547,-701 -393,-910 69,-94 182,-184 331,-218 488,-114 273,-488 -13,-579 -410,-131 -791,-199 -1222,-199zm-988 6608c121,-212 -140,-364 -308,-466 -336,-204 -708,-195 -800,-35 -92,160 -29,382 184,521 376,247 848,112 924,-20zm1555 -482c122,-129 125,-312 7,-415 -109,-96 -273,-154 -462,-151 -368,6 -694,243 -729,528 -21,182 74,355 270,370 327,25 686,-91 914,-332zm-2341 969c-212,-127 -422,-191 -469,-144 -47,48 87,190 299,317 212,127 422,192 469,144 47,-48 -87,-189 -299,-317zm1658 260c-253,17 -458,102 -457,190 0,88 206,146 460,129 253,-17 458,-102 457,-190 -1,-88 -207,-146 -460,-129zm1359 -933c-268,153 -433,370 -368,486 66,115 337,84 606,-69 269,-153 433,-370 368,-485 -66,-116 -337,-85 -606,68zm839 -1139c123,-195 256,-500 25,-670 -303,-221 -723,127 -882,379 -133,212 -253,571 26,721 315,168 678,-186 831,-430zm699 552c-144,209 -204,423 -135,477 70,54 243,-72 387,-282 143,-209 204,-423 134,-477 -69,-53 -242,73 -386,282zm15 -1670c-87,285 -38,545 109,582 147,37 337,-163 424,-448 87,-284 38,-545 -109,-582 -147,-36 -337,164 -424,448zm-534 -1290c-105,-169 -285,-267 -479,-181 -353,157 -419,637 -146,1072 96,154 270,263 453,192 454,-175 385,-743 172,-1083zm805 -309c33,251 149,450 260,443 111,-7 175,-217 142,-469 -33,-251 -149,-449 -260,-442 -111,6 -174,216 -142,468zm-904 -1281c-131,-129 -425,-126 -535,2 -172,201 -27,595 324,878 136,110 306,128 446,-35 176,-206 82,-534 -235,-845z"/>
</svg>
