<?xml version="1.0" encoding="UTF-8"?>
<!DOCTYPE svg PUBLIC "-//W3C//DTD SVG 1.1//EN" "http://www.w3.org/Graphics/SVG/1.1/DTD/svg11.dtd">
<svg xmlns="http://www.w3.org/2000/svg" xml:space="preserve" width="1024px" height="1024px" shape-rendering="geometricPrecision" text-rendering="geometricPrecision" image-rendering="optimizeQuality" fill-rule="nonzero" clip-rule="evenodd" viewBox="0 0 10240 10240" xmlns:xlink="http://www.w3.org/1999/xlink">
	<title>golf_club_putter icon</title>
	<desc>golf_club_putter icon from the IconExperience.com O-Collection. Copyright by INCORS GmbH (www.incors.com).</desc>
	<path id="curve2" fill="#808080" d="M4630 7811l265 -500 572 286 -347 723 0 455 228 118c63,33 103,111 102,201 -1,91 -43,164 -106,198l-516 283c-35,19 -70,25 -108,25l-2282 0c-52,0 -97,-14 -143,-45l-287 -191c-157,-105 -221,-362 -143,-572l89 -236c55,-148 162,-236 286,-236l1920 0c117,0 218,58 277,160 12,20 26,40 42,57 -5,-515 -47,-353 151,-726z"/>
	<path id="curve1" fill="#808080" d="M5039,7023 6681,3743 7254,4030 5611,7309z"/>
	<path id="curve0" fill="#B89A7C" d="M6825 3457l311 -934c69,-206 124,-386 222,-583l719 -1435c79,-157 248,-233 377,-169l466 234c129,64 169,245 90,403l-718 1435c-99,196 -210,348 -334,527l-561 808 -572 -286z"/>
</svg>
