<?xml version="1.0" encoding="UTF-8"?>
<!DOCTYPE svg PUBLIC "-//W3C//DTD SVG 1.1//EN" "http://www.w3.org/Graphics/SVG/1.1/DTD/svg11.dtd">
<svg xmlns="http://www.w3.org/2000/svg" xml:space="preserve" width="1024px" height="1024px" shape-rendering="geometricPrecision" text-rendering="geometricPrecision" image-rendering="optimizeQuality" fill-rule="nonzero" clip-rule="evenodd" viewBox="0 0 10240 10240" xmlns:xlink="http://www.w3.org/1999/xlink">
	<title>golf_flag icon</title>
	<desc>golf_flag icon from the IconExperience.com O-Collection. Copyright by INCORS GmbH (www.incors.com).</desc>
	<path id="curve2" fill="#808080" d="M4480 7680c1060,0 1920,430 1920,960 0,530 -860,960 -1920,960 -1060,0 -1920,-430 -1920,-960 0,-287 251,-544 650,-720l0 1034c288,162 613,259 940,297l10 11c104,12 211,18 320,18 480,0 923,-119 1280,-320 -357,-201 -800,-320 -1280,-320 -109,0 -216,6 -320,18l-10 -3 0 -961c107,-9 217,-14 330,-14z"/>
	<path id="curve1" fill="#808080" d="M4160 960l0 8302c-357,-40 -684,-147 -960,-302l0 -8000c0,-417 960,-415 960,0z"/>
	<path id="curve0" fill="#EDC87E" d="M4480 1280c1146,-573 2356,393 3448,142 99,-22 192,-1 271,62 79,62 121,149 121,250l0 2535c0,138 -84,256 -215,302 -1175,410 -2418,-695 -3625,-91l0 -3200z"/>
</svg>
