<?xml version="1.0" encoding="UTF-8"?>
<!DOCTYPE svg PUBLIC "-//W3C//DTD SVG 1.1//EN" "http://www.w3.org/Graphics/SVG/1.1/DTD/svg11.dtd">
<svg xmlns="http://www.w3.org/2000/svg" xml:space="preserve" width="1024px" height="1024px" shape-rendering="geometricPrecision" text-rendering="geometricPrecision" image-rendering="optimizeQuality" fill-rule="nonzero" clip-rule="evenodd" viewBox="0 0 10240 10240" xmlns:xlink="http://www.w3.org/1999/xlink">
	<title>golf_club_iron icon</title>
	<desc>golf_club_iron icon from the IconExperience.com O-Collection. Copyright by INCORS GmbH (www.incors.com).</desc>
	<path id="curve2" fill="#808080" d="M1350 8672l430 -858c145,-290 479,-425 785,-317l1634 578c153,54 320,-13 392,-158l161 -320 572 286 -683 1364c-111,222 -324,353 -572,353l-2147 -1c-228,0 -424,-110 -544,-304 -120,-194 -130,-419 -28,-623z"/>
	<path id="curve1" fill="#808080" d="M4895,7311 6681,3743 7254,4030 5467,7597z"/>
	<path id="curve0" fill="#B89A7C" d="M6825 3457l311 -934c69,-206 124,-386 222,-583l719 -1435c79,-157 248,-233 377,-169l466 234c129,64 169,245 90,403l-718 1435c-99,196 -210,348 -334,527l-561 808 -572 -286z"/>
</svg>
