<?xml version="1.0" encoding="UTF-8"?>
<!DOCTYPE svg PUBLIC "-//W3C//DTD SVG 1.1//EN" "http://www.w3.org/Graphics/SVG/1.1/DTD/svg11.dtd">
<svg xmlns="http://www.w3.org/2000/svg" xml:space="preserve" width="1024px" height="1024px" shape-rendering="geometricPrecision" text-rendering="geometricPrecision" image-rendering="optimizeQuality" fill-rule="nonzero" clip-rule="evenodd" viewBox="0 0 10240 10240" xmlns:xlink="http://www.w3.org/1999/xlink">
	<title>graduation_hat icon</title>
	<desc>graduation_hat icon from the IconExperience.com O-Collection. Copyright by INCORS GmbH (www.incors.com).</desc>
	<path id="curve1" fill="#ED9A56" d="M8640 4160l320 0 0 1627c186,66 320,244 320,453 0,183 -103,343 -254,424l204 817c13,50 3,97 -29,137 -31,41 -75,62 -126,62l-550 0c-51,0 -95,-21 -126,-62 -32,-40 -42,-87 -29,-137l204 -817c-151,-81 -254,-241 -254,-424 0,-209 134,-387 320,-453l0 -1627z"/>
	<path id="curve0" fill="#808080" d="M7360 3840l500 1501c94,280 -10,577 -256,738 -1307,855 -3661,855 -4968,0 -246,-161 -350,-458 -256,-738l500 -1501 -1600 0 0 -640 7680 0 0 640 -1600 0z"/>
</svg>
