<?xml version="1.0" encoding="UTF-8"?>
<!DOCTYPE svg PUBLIC "-//W3C//DTD SVG 1.1//EN" "http://www.w3.org/Graphics/SVG/1.1/DTD/svg11.dtd">
<svg xmlns="http://www.w3.org/2000/svg" xml:space="preserve" width="1024px" height="1024px" shape-rendering="geometricPrecision" text-rendering="geometricPrecision" image-rendering="optimizeQuality" fill-rule="nonzero" clip-rule="evenodd" viewBox="0 0 10240 10240" xmlns:xlink="http://www.w3.org/1999/xlink">
	<title>graduation_hat2 icon</title>
	<desc>graduation_hat2 icon from the IconExperience.com O-Collection. Copyright by INCORS GmbH (www.incors.com).</desc>
	<path id="curve4" fill="#808080" d="M7720 6051c-76,53 -146,112 -211,178 -290,289 -469,689 -469,1131 0,265 107,505 281,679 174,174 414,281 679,281l0 0c265,0 505,-107 679,-281 174,-174 281,-414 281,-679 0,-88 -36,-168 -94,-226 -58,-58 -138,-94 -226,-94 -88,0 -168,36 -226,94 -58,58 -94,138 -94,226l0 0c0,176 -144,320 -320,320l0 0c-176,0 -320,-144 -320,-320l0 0c0,-265 107,-505 281,-679 174,-174 414,-281 679,-281 265,0 505,107 679,281 174,174 281,414 281,679 0,442 -179,842 -469,1131 -289,290 -689,469 -1131,469l-2225 0c-98,-211 -215,-428 -348,-640l1293 0c-201,-267 -320,-600 -320,-960 0,-344 77,-669 216,-960l-1366 0c-120,-122 -287,-181 -453,-219 -91,-20 -207,-32 -294,-59 -209,-65 -337,-155 -576,-156 -103,0 -204,20 -299,64 -177,81 -308,215 -413,370l-1241 0c-276,0 -511,166 -603,427 -59,167 -91,346 -91,533 0,265 107,505 281,679 174,174 414,281 679,281l634 0c-121,208 -225,426 -307,640l-327 0c-442,0 -842,-179 -1131,-469 -290,-289 -469,-689 -469,-1131 0,-262 45,-513 127,-747 185,-520 655,-853 1207,-853l5654 0c71,0 131,44 152,112 22,67 -2,138 -60,179z"/>
	<path id="curve3" fill="#E68497" d="M5096 8398c234,359 417,729 523,1022l-597 -239c-109,-49 -222,-22 -286,65l-312 413c-92,-342 -141,-680 -187,-981 86,-20 165,-48 251,-70 241,-62 434,-96 608,-210zm-1072 313c-13,288 -21,616 -77,948l-359 -358c-76,-77 -187,-95 -293,-60l-543 179c82,-304 244,-693 469,-1055 99,133 231,236 425,302 123,42 251,53 378,44z"/>
	<path id="curve2" fill="#E68497" d="M3309 6895c85,-185 220,-467 453,-574 221,-102 455,47 646,107 163,50 520,59 639,226 98,138 68,428 110,592 83,325 31,591 -90,745 -157,201 -289,212 -659,307 -122,32 -407,151 -659,66 -265,-90 -349,-290 -440,-533 -52,-142 -227,-239 -219,-468 10,-291 144,-302 219,-468z"/>
	<path id="curve1" fill="#ED9A56" d="M8640 2240l320 0 0 1469c186,66 320,244 320,453 0,183 -103,343 -254,424l204 817c13,49 3,97 -29,137 -31,41 -75,62 -126,62l-550 0c-51,0 -95,-21 -126,-62 -32,-40 -42,-87 -29,-137l204 -817c-151,-81 -254,-241 -254,-424 0,-209 134,-387 320,-453l0 -1469z"/>
	<path id="curve0" fill="#808080" d="M7360 1920l500 1501c94,280 -10,577 -256,738 -1307,855 -3661,855 -4968,0 -246,-161 -350,-458 -256,-738l500 -1501 -1600 0 0 -640 7680 0 0 640 -1600 0z"/>
</svg>
