<?xml version="1.0" encoding="UTF-8"?>
<!DOCTYPE svg PUBLIC "-//W3C//DTD SVG 1.1//EN" "http://www.w3.org/Graphics/SVG/1.1/DTD/svg11.dtd">
<svg xmlns="http://www.w3.org/2000/svg" xml:space="preserve" width="1024px" height="1024px" shape-rendering="geometricPrecision" text-rendering="geometricPrecision" image-rendering="optimizeQuality" fill-rule="nonzero" clip-rule="evenodd" viewBox="0 0 10240 10240" xmlns:xlink="http://www.w3.org/1999/xlink">
	<title>grand_piano icon</title>
	<desc>grand_piano icon from the IconExperience.com O-Collection. Copyright by INCORS GmbH (www.incors.com).</desc>
	<path id="curve0" fill="#808080" d="M3520 640c1370,0 2560,980 2826,2324 69,353 207,666 408,928 201,265 466,482 787,642l466 233c996,498 1593,1461 1593,2575l0 1938c0,177 -143,320 -320,320l-8320 0c-177,0 -320,-143 -320,-320l0 -5760c0,-1587 1293,-2880 2880,-2880zm5120 7040l0 960 -320 0 0 -960 -320 0 0 960 -320 0 0 -960 -320 0 0 960 -320 0 0 -960 -640 0 0 960 -320 0 0 -960 -320 0 0 960 -320 0 0 -960 -640 0 0 960 -320 0 0 -960 -320 0 0 960 -320 0 0 -960 -320 0 0 960 -320 0 0 -960 -640 0 0 960 -320 0 0 -960 -320 0 0 960 -320 0 0 -960 -320 0 0 1280c2560,0 5120,0 7680,0l0 -1280 -320 0z"/>
</svg>
