<?xml version="1.0" encoding="UTF-8"?>
<!DOCTYPE svg PUBLIC "-//W3C//DTD SVG 1.1//EN" "http://www.w3.org/Graphics/SVG/1.1/DTD/svg11.dtd">
<svg xmlns="http://www.w3.org/2000/svg" xml:space="preserve" width="1024px" height="1024px" shape-rendering="geometricPrecision" text-rendering="geometricPrecision" image-rendering="optimizeQuality" fill-rule="nonzero" clip-rule="evenodd" viewBox="0 0 10240 10240" xmlns:xlink="http://www.w3.org/1999/xlink">
	<title>graph_fork icon</title>
	<desc>graph_fork icon from the IconExperience.com O-Collection. Copyright by INCORS GmbH (www.incors.com).</desc>
	<path id="curve1" fill="#808080" d="M6494 7520l753 753c62,63 164,63 226,0l753 -753c63,-62 94,-138 94,-226l0 -538c0,-49 -28,-92 -74,-111 -46,-19 -98,-11 -131,26l-436 506 0 -457c0,-618 -251,-1178 -656,-1583 -129,-129 -274,-242 -431,-337 157,-95 302,-208 431,-337 405,-405 656,-965 656,-1583l0 -457 436 506c33,37 85,45 131,26 46,-19 74,-62 74,-111l0 -538c0,-88 -31,-164 -94,-226l-753 -753c-62,-63 -164,-63 -226,0l-753 753c-63,62 -94,138 -94,226l0 538c0,49 28,92 74,111 46,19 98,11 131,-26l436 -506 0 457c0,440 -180,840 -471,1130 -290,290 -690,470 -1130,470l0 1 -1312 0c21,103 32,210 32,319 0,109 -11,216 -32,319l1312 0 0 1c440,0 840,180 1130,470 291,290 471,690 471,1130l0 457 -436 -506c-33,-37 -85,-45 -131,-26 -46,19 -74,62 -74,111l0 538c0,88 31,164 94,226z"/>
	<path id="curve0" fill="#4D82B8" d="M2560 3520c707,0 1280,573 1280,1280 0,707 -573,1280 -1280,1280 -707,0 -1280,-573 -1280,-1280 0,-707 573,-1280 1280,-1280zm0 640c-353,0 -640,287 -640,640 0,353 287,640 640,640 353,0 640,-287 640,-640 0,-353 -287,-640 -640,-640z"/>
</svg>
