<?xml version="1.0" encoding="UTF-8"?>
<!DOCTYPE svg PUBLIC "-//W3C//DTD SVG 1.1//EN" "http://www.w3.org/Graphics/SVG/1.1/DTD/svg11.dtd">
<svg xmlns="http://www.w3.org/2000/svg" xml:space="preserve" width="1024px" height="1024px" shape-rendering="geometricPrecision" text-rendering="geometricPrecision" image-rendering="optimizeQuality" fill-rule="nonzero" clip-rule="evenodd" viewBox="0 0 10240 10240" xmlns:xlink="http://www.w3.org/1999/xlink">
	<title>graph_from icon</title>
	<desc>graph_from icon from the IconExperience.com O-Collection. Copyright by INCORS GmbH (www.incors.com).</desc>
	<path id="curve1" fill="#808080" d="M7520 3934l753 753c63,62 63,164 0,226l-753 753c-62,63 -138,94 -226,94l-538 0c-49,0 -92,-28 -111,-74 -19,-46 -11,-98 26,-131l505 -435 -3048 0c21,-103 32,-210 32,-320 0,-110 -11,-217 -32,-320l3048 0 -505 -435c-37,-33 -45,-85 -26,-131 19,-46 62,-74 111,-74l538 0c88,0 164,31 226,94z"/>
	<path id="curve0" fill="#4D82B8" d="M2560 3520c707,0 1280,573 1280,1280 0,707 -573,1280 -1280,1280 -707,0 -1280,-573 -1280,-1280 0,-707 573,-1280 1280,-1280zm0 640c-353,0 -640,287 -640,640 0,353 287,640 640,640 353,0 640,-287 640,-640 0,-353 -287,-640 -640,-640z"/>
</svg>
