<?xml version="1.0" encoding="UTF-8"?>
<!DOCTYPE svg PUBLIC "-//W3C//DTD SVG 1.1//EN" "http://www.w3.org/Graphics/SVG/1.1/DTD/svg11.dtd">
<svg xmlns="http://www.w3.org/2000/svg" xml:space="preserve" width="1024px" height="1024px" shape-rendering="geometricPrecision" text-rendering="geometricPrecision" image-rendering="optimizeQuality" fill-rule="nonzero" clip-rule="evenodd" viewBox="0 0 10240 10240" xmlns:xlink="http://www.w3.org/1999/xlink">
	<title>graph icon</title>
	<desc>graph icon from the IconExperience.com O-Collection. Copyright by INCORS GmbH (www.incors.com).</desc>
	<path id="curve7" fill="#808080" d="M4644 7630l2078 -520c9,222 64,431 154,620l-2078 520c-9,-222 -64,-431 -154,-620z"/>
	<path id="curve6" fill="#808080" d="M7582 5620l-419 -1465c221,-16 429,-78 615,-175l419 1465c-221,16 -429,78 -615,175z"/>
	<path id="curve5" fill="#808080" d="M3803 6838l2101 -3151c151,152 331,273 532,355l-2100 3151c-151,-151 -331,-273 -533,-355z"/>
	<path id="curve4" fill="#808080" d="M3515 1797l2009 251c-55,161 -84,333 -84,512 0,41 2,82 5,123l-2009 -251c55,-161 84,-333 84,-512 0,-41 -2,-82 -5,-123z"/>
	<path id="curve3" fill="#4D82B8" d="M3200 7040c707,0 1280,573 1280,1280 0,707 -573,1280 -1280,1280 -707,0 -1280,-573 -1280,-1280 0,-707 573,-1280 1280,-1280zm0 640c-353,0 -640,287 -640,640 0,354 287,640 640,640 353,0 640,-286 640,-640 0,-353 -287,-640 -640,-640z"/>
	<path id="curve2" fill="#4D82B8" d="M8320 5760c707,0 1280,573 1280,1280 0,707 -573,1280 -1280,1280 -707,0 -1280,-573 -1280,-1280 0,-707 573,-1280 1280,-1280zm0 640c-353,0 -640,287 -640,640 0,353 287,640 640,640 353,0 640,-287 640,-640 0,-353 -287,-640 -640,-640z"/>
	<path id="curve1" fill="#4D82B8" d="M7040 1280c707,0 1280,573 1280,1280 0,707 -573,1280 -1280,1280 -707,0 -1280,-573 -1280,-1280 0,-707 573,-1280 1280,-1280zm0 640c-353,0 -640,287 -640,640 0,353 287,640 640,640 353,0 640,-287 640,-640 0,-353 -287,-640 -640,-640z"/>
	<path id="curve0" fill="#4D82B8" d="M1920 640c707,0 1280,573 1280,1280 0,707 -573,1280 -1280,1280 -707,0 -1280,-573 -1280,-1280 0,-707 573,-1280 1280,-1280zm0 640c-353,0 -640,287 -640,640 0,353 287,640 640,640 353,0 640,-287 640,-640 0,-353 -287,-640 -640,-640z"/>
</svg>
