<?xml version="1.0" encoding="UTF-8"?>
<!DOCTYPE svg PUBLIC "-//W3C//DTD SVG 1.1//EN" "http://www.w3.org/Graphics/SVG/1.1/DTD/svg11.dtd">
<svg xmlns="http://www.w3.org/2000/svg" xml:space="preserve" width="1024px" height="1024px" shape-rendering="geometricPrecision" text-rendering="geometricPrecision" image-rendering="optimizeQuality" fill-rule="nonzero" clip-rule="evenodd" viewBox="0 0 10240 10240" xmlns:xlink="http://www.w3.org/1999/xlink">
	<title>graphics_tablet icon</title>
	<desc>graphics_tablet icon from the IconExperience.com O-Collection. Copyright by INCORS GmbH (www.incors.com).</desc>
	<path id="curve1" fill="#4D82B8" d="M4715 4294c973,-974 2586,-2587 3560,-3561 125,-124 328,-124 452,0l828 828c125,124 124,328 0,452 -974,974 -2587,2587 -3560,3561 -37,36 -76,61 -126,77l-1393 464c-88,30 -179,8 -245,-58 -66,-65 -88,-157 -58,-245l464 -1393c17,-50 41,-89 78,-125z"/>
	<path id="curve0" fill="#808080" d="M1600 1280l5676 0 -1280 1280 -4396 0c-176,0 -320,144 -320,320l0 4480c0,176 144,320 320,320l7040 0c176,0 320,-144 320,-320l0 -4299 640 -640 0 5579c0,529 -431,960 -960,960l-7040 0c-529,0 -960,-431 -960,-960l0 -5760c0,-529 431,-960 960,-960z"/>
</svg>
