<?xml version="1.0" encoding="UTF-8"?>
<!DOCTYPE svg PUBLIC "-//W3C//DTD SVG 1.1//EN" "http://www.w3.org/Graphics/SVG/1.1/DTD/svg11.dtd">
<svg xmlns="http://www.w3.org/2000/svg" xml:space="preserve" width="1024px" height="1024px" shape-rendering="geometricPrecision" text-rendering="geometricPrecision" image-rendering="optimizeQuality" fill-rule="nonzero" clip-rule="evenodd" viewBox="0 0 10240 10240" xmlns:xlink="http://www.w3.org/1999/xlink">
	<title>graph_square icon</title>
	<desc>graph_square icon from the IconExperience.com O-Collection. Copyright by INCORS GmbH (www.incors.com).</desc>
	<path id="curve7" fill="#808080" d="M3808 7680l2624 0c-21,103 -32,210 -32,320 0,110 11,217 32,320l-2624 0c21,-103 32,-210 32,-320 0,-110 -11,-217 -32,-320z"/>
	<path id="curve6" fill="#808080" d="M8320 3808l0 2624c-103,-21 -210,-32 -320,-32 -110,0 -217,11 -320,32l0 -2624c103,21 210,32 320,32 110,0 217,-11 320,-32z"/>
	<path id="curve5" fill="#808080" d="M2560 3808l0 2624c-103,-21 -210,-32 -320,-32 -110,0 -217,11 -320,32l0 -2624c103,21 210,32 320,32 110,0 217,-11 320,-32z"/>
	<path id="curve4" fill="#808080" d="M3808 1920l2624 0c-21,103 -32,210 -32,320 0,110 11,217 32,320l-2624 0c21,-103 32,-210 32,-320 0,-110 -11,-217 -32,-320z"/>
	<path id="curve3" fill="#4D82B8" d="M8000 6720c707,0 1280,573 1280,1280 0,707 -573,1280 -1280,1280 -707,0 -1280,-573 -1280,-1280 0,-707 573,-1280 1280,-1280zm0 640c-353,0 -640,287 -640,640 0,353 287,640 640,640 353,0 640,-287 640,-640 0,-353 -287,-640 -640,-640z"/>
	<path id="curve2" fill="#4D82B8" d="M2240 6720c707,0 1280,573 1280,1280 0,707 -573,1280 -1280,1280 -707,0 -1280,-573 -1280,-1280 0,-707 573,-1280 1280,-1280zm0 640c-353,0 -640,287 -640,640 0,353 287,640 640,640 353,0 640,-287 640,-640 0,-353 -287,-640 -640,-640z"/>
	<path id="curve1" fill="#4D82B8" d="M8000 960c707,0 1280,573 1280,1280 0,707 -573,1280 -1280,1280 -707,0 -1280,-573 -1280,-1280 0,-707 573,-1280 1280,-1280zm0 640c-353,0 -640,287 -640,640 0,353 287,640 640,640 353,0 640,-287 640,-640 0,-353 -287,-640 -640,-640z"/>
	<path id="curve0" fill="#4D82B8" d="M2240 960c707,0 1280,573 1280,1280 0,707 -573,1280 -1280,1280 -707,0 -1280,-573 -1280,-1280 0,-707 573,-1280 1280,-1280zm0 640c-353,0 -640,287 -640,640 0,353 287,640 640,640 353,0 640,-287 640,-640 0,-353 -287,-640 -640,-640z"/>
</svg>
