<?xml version="1.0" encoding="UTF-8"?>
<!DOCTYPE svg PUBLIC "-//W3C//DTD SVG 1.1//EN" "http://www.w3.org/Graphics/SVG/1.1/DTD/svg11.dtd">
<svg xmlns="http://www.w3.org/2000/svg" xml:space="preserve" width="1024px" height="1024px" shape-rendering="geometricPrecision" text-rendering="geometricPrecision" image-rendering="optimizeQuality" fill-rule="nonzero" clip-rule="evenodd" viewBox="0 0 10240 10240" xmlns:xlink="http://www.w3.org/1999/xlink">
	<title>grenade icon</title>
	<desc>grenade icon from the IconExperience.com O-Collection. Copyright by INCORS GmbH (www.incors.com).</desc>
	<path id="curve1" fill="#76A797" d="M2376 3840c-92,207 -170,421 -233,640l-209 0c-75,0 -137,49 -155,121 -79,314 -133,645 -160,987 -7,93 66,172 160,172l150 0c-12,213 -12,427 0,640l-150 0c-94,0 -167,79 -160,172 27,342 81,672 160,987 18,72 80,121 155,121l209 0c63,219 141,433 233,640l-102 0c-118,0 -195,122 -145,228 138,293 300,561 482,800 125,164 303,252 509,252l3360 0c206,0 384,-88 509,-252 182,-239 344,-507 482,-800 50,-106 -27,-228 -145,-228l-102 0c92,-207 170,-421 233,-640l209 0c75,0 137,-49 155,-121 79,-315 133,-645 160,-987 7,-93 -66,-172 -160,-172l-150 0c12,-213 12,-427 0,-640l150 0c94,0 167,-79 160,-172 -14,-174 -96,-978 -214,-1073 -366,738 -1127,1245 -2007,1245 -1237,0 -2240,-1003 -2240,-2240 0,-344 77,-669 216,-960l-616 0c-206,0 -384,88 -509,252 -182,239 -344,507 -482,800 -50,106 27,228 145,228l102 0zm3384 -1280c530,0 960,430 960,960 0,530 -430,960 -960,960 -530,0 -960,-430 -960,-960 0,-530 430,-960 960,-960z"/>
	<path id="curve0" fill="#808080" d="M6400 1709c765,271 1280,996 1280,1811 0,1060 -860,1920 -1920,1920 -1060,0 -1920,-860 -1920,-1920 0,-492 185,-940 489,-1280l-1129 0 0 -960c0,-353 287,-640 640,-640l3183 0c623,0 1219,625 1636,1589 371,860 620,2011 620,3211 0,959 -79,2161 -460,3047 -70,163 -258,238 -420,168 -163,-70 -238,-258 -168,-420 339,-788 409,-1944 409,-2795 0,-978 -177,-2058 -566,-2959 -316,-729 -702,-1201 -1051,-1201l-623 0 0 429zm-640 531c-707,0 -1280,573 -1280,1280 0,707 573,1280 1280,1280 707,0 1280,-573 1280,-1280 0,-707 -573,-1280 -1280,-1280z"/>
</svg>
