<?xml version="1.0" encoding="UTF-8"?>
<!DOCTYPE svg PUBLIC "-//W3C//DTD SVG 1.1//EN" "http://www.w3.org/Graphics/SVG/1.1/DTD/svg11.dtd">
<svg xmlns="http://www.w3.org/2000/svg" xml:space="preserve" width="1024px" height="1024px" shape-rendering="geometricPrecision" text-rendering="geometricPrecision" image-rendering="optimizeQuality" fill-rule="nonzero" clip-rule="evenodd" viewBox="0 0 10240 10240" xmlns:xlink="http://www.w3.org/1999/xlink">
	<title>guillotine icon</title>
	<desc>guillotine icon from the IconExperience.com O-Collection. Copyright by INCORS GmbH (www.incors.com).</desc>
	<path id="curve1" fill="#808080" d="M3520,2240 4960,2240 4960,1920 5280,1920 5280,2240 6720,2240 6720,4480 3520,3200z"/>
	<path id="curve0" fill="#B89A7C" d="M3200 6400l3840 0 0 -4800 -3840 0 0 4800zm-640 -4800l-640 0 0 -960 6400 0 0 960 -640 0 0 8000 -640 0 0 -640 -3840 0 0 640 -640 0 0 -8000zm2560 5440c-353,0 -640,287 -640,640 0,353 287,640 640,640 353,0 640,-287 640,-640 0,-353 -287,-640 -640,-640z"/>
</svg>
