<?xml version="1.0" encoding="UTF-8"?>
<!DOCTYPE svg PUBLIC "-//W3C//DTD SVG 1.1//EN" "http://www.w3.org/Graphics/SVG/1.1/DTD/svg11.dtd">
<svg xmlns="http://www.w3.org/2000/svg" xml:space="preserve" width="1024px" height="1024px" shape-rendering="geometricPrecision" text-rendering="geometricPrecision" image-rendering="optimizeQuality" fill-rule="nonzero" clip-rule="evenodd" viewBox="0 0 10240 10240" xmlns:xlink="http://www.w3.org/1999/xlink">
	<title>guitar icon</title>
	<desc>guitar icon from the IconExperience.com O-Collection. Copyright by INCORS GmbH (www.incors.com).</desc>
	<path id="curve0" fill="#B89A7C" d="M9054 1054l132 132c63,63 94,138 94,227l0 374c0,89 -31,164 -94,227l-452 452c-63,63 -138,94 -227,94l-54 0c-89,0 -164,31 -227,94l-1995 1995c417,493 768,1100 171,1697 -349,349 -636,229 -928,521 -103,102 -169,228 -199,359 -159,703 -123,1280 -675,1831 -457,458 -1106,639 -1735,495 -511,-122 -997,-382 -1396,-781 -399,-399 -659,-885 -781,-1396 -144,-629 37,-1278 495,-1735 551,-552 1128,-516 1831,-675 131,-30 257,-96 359,-199 292,-292 172,-579 521,-928 597,-597 1204,-246 1697,171l1995 -1995c63,-63 94,-138 94,-227l0 -54c0,-89 31,-164 94,-227l452 -452c63,-63 138,-94 227,-94l374 0c89,0 164,31 227,94zm-4574 4066c-353,0 -640,287 -640,640 0,353 287,640 640,640 353,0 640,-287 640,-640 0,-353 -287,-640 -640,-640zm-2033 1713l960 960c62,63 164,63 226,0 63,-62 63,-164 0,-226l-960 -960c-62,-63 -164,-63 -226,0 -63,62 -63,164 0,226z"/>
</svg>
