<?xml version="1.0" encoding="UTF-8"?>
<!DOCTYPE svg PUBLIC "-//W3C//DTD SVG 1.1//EN" "http://www.w3.org/Graphics/SVG/1.1/DTD/svg11.dtd">
<svg xmlns="http://www.w3.org/2000/svg" xml:space="preserve" width="1024px" height="1024px" shape-rendering="geometricPrecision" text-rendering="geometricPrecision" image-rendering="optimizeQuality" fill-rule="nonzero" clip-rule="evenodd" viewBox="0 0 10240 10240" xmlns:xlink="http://www.w3.org/1999/xlink">
	<title>gun icon</title>
	<desc>gun icon from the IconExperience.com O-Collection. Copyright by INCORS GmbH (www.incors.com).</desc>
	<path id="curve1" fill="#B89A7C" d="M8754 7636l-309 -2233c-22,-161 -155,-277 -317,-277l-628 0c-197,0 -344,170 -317,364l309 2234c23,160 156,276 317,276l628 0c197,0 344,-169 317,-364z"/>
	<path id="curve0" fill="#808080" d="M5891 7040c-260,0 -514,0 -771,0 -673,0 -1604,-767 -1600,-1600 3,-529 -431,-960 -960,-960l-1600 0c-176,0 -320,-144 -320,-320l0 -640 -320 0 0 -960 320 0c0,-176 144,-320 320,-320l0 0c0,-176 144,-320 320,-320l640 0c176,0 320,144 320,320l5440 0c257,-257 383,-257 640,0l320 0c558,0 1003,794 1190,1809 44,243 90,431 -181,431 -196,0 -345,171 -317,365l536 3750c28,194 -121,365 -317,365l-2553 0c-161,0 -295,-116 -317,-275l-157 -1096c-45,-317 -313,-549 -633,-549zm3180 552l-309 -2233c-44,-319 -313,-553 -634,-553l-628 0c-391,0 -688,341 -634,728l309 2234c45,318 313,552 634,552l628 0c391,0 688,-341 634,-728zm-3947 -3103c-528,0 -955,428 -955,955 0,528 427,956 955,956 528,0 956,-428 956,-956 0,-527 -428,-955 -956,-955z"/>
</svg>
