<?xml version="1.0" encoding="UTF-8"?>
<!DOCTYPE svg PUBLIC "-//W3C//DTD SVG 1.1//EN" "http://www.w3.org/Graphics/SVG/1.1/DTD/svg11.dtd">
<svg xmlns="http://www.w3.org/2000/svg" xml:space="preserve" width="1024px" height="1024px" shape-rendering="geometricPrecision" text-rendering="geometricPrecision" image-rendering="optimizeQuality" fill-rule="nonzero" clip-rule="evenodd" viewBox="0 0 10240 10240" xmlns:xlink="http://www.w3.org/1999/xlink">
	<title>hair_dryer icon</title>
	<desc>hair_dryer icon from the IconExperience.com O-Collection. Copyright by INCORS GmbH (www.incors.com).</desc>
	<path id="curve1" fill="#808080" d="M3200 1920l4289 -429c559,-56 1062,110 1479,487 417,377 632,861 632,1424l0 236c0,563 -215,1047 -632,1424 -58,53 -118,101 -179,146 -426,307 -712,681 -897,1172l-816 2166c-96,254 -328,414 -599,414l-872 0c-217,0 -403,-98 -527,-276 -123,-178 -149,-387 -72,-590l721 -1912c72,-193 53,-389 -55,-563 -109,-175 -276,-279 -480,-300l-1992 -199 0 -3200z"/>
	<path id="curve0" fill="#4D82B8" d="M640 2472c19,-10 38,-21 56,-32 169,-100 339,-200 682,-200 449,0 795,320 1084,320 175,0 303,-63 437,-132l0 523c-18,10 -36,19 -54,29 -123,64 -237,123 -383,123 -95,0 -220,-56 -358,-119 -209,-95 -443,-201 -726,-201 -369,0 -558,102 -738,208l0 -519zm2259 2254c-112,44 -248,74 -437,74 -412,0 -725,-320 -1084,-320 -197,0 -299,60 -400,120 -101,59 -201,119 -338,157l0 -530c43,-20 87,-44 138,-73 150,-89 300,-177 600,-177 215,0 416,91 595,172 171,77 326,148 489,148 178,0 310,-51 437,-114l0 543zm-2259 -862l0 -511c43,-19 87,-43 138,-72 150,-89 300,-178 600,-178 215,0 416,91 595,172 171,78 326,148 489,148 178,0 310,-50 437,-113l0 515c-18,9 -36,19 -54,28 -123,64 -237,124 -383,124 -95,0 -220,-57 -358,-120 -209,-94 -443,-200 -726,-200 -369,0 -558,101 -738,207z"/>
</svg>
