<?xml version="1.0" encoding="UTF-8"?>
<!DOCTYPE svg PUBLIC "-//W3C//DTD SVG 1.1//EN" "http://www.w3.org/Graphics/SVG/1.1/DTD/svg11.dtd">
<svg xmlns="http://www.w3.org/2000/svg" xml:space="preserve" width="1024px" height="1024px" shape-rendering="geometricPrecision" text-rendering="geometricPrecision" image-rendering="optimizeQuality" fill-rule="nonzero" clip-rule="evenodd" viewBox="0 0 10240 10240" xmlns:xlink="http://www.w3.org/1999/xlink">
	<title>hamburger icon</title>
	<desc>hamburger icon from the IconExperience.com O-Collection. Copyright by INCORS GmbH (www.incors.com).</desc>
	<path id="curve2" fill="#E68497" d="M8173 5734c90,-25 175,-71 248,-135 11,-8 21,-17 30,-26l64 -65 289 72c48,12 96,19 144,19 169,146 332,379 332,641 0,442 -463,800 -640,800l-7040 0c-177,0 -640,-358 -640,-800 0,-262 163,-495 333,-641 46,-1 94,-7 141,-19l288 -72 64 65c207,206 526,246 776,99l317 -158 354 177c195,98 422,87 604,-18 197,114 444,118 645,-1l189 -94c207,202 523,240 771,94l71 -35 1881 940c157,79 350,14 429,-143l350 -700z"/>
	<path id="curve1" fill="#76A797" d="M1356 5270c-171,43 -344,-61 -387,-233 -43,-171 61,-344 232,-387l640 -160c113,-28 227,7 304,84l0 0 158 158 433 -217c94,-47 200,-43 287,1l432 216 158 -158c125,-125 327,-125 452,0l158 158 433 -217c126,-63 274,-35 368,60l1 -1 158 158 433 -217c94,-47 200,-43 287,1l432 216 158 -158c125,-125 327,-125 452,0l94 93 94 -93c107,-108 271,-123 395,-46l407 204 158 -158c86,-87 210,-113 320,-80l623 156c172,43 276,216 233,387 -43,172 -216,276 -388,233l-464 -116 -192 192 -1 -1c-94,95 -242,123 -368,60l-433 -217 -158 158c-125,125 -327,125 -452,0l-94 -93 -94 93 -1 -1c-94,95 -242,123 -368,60l-497 -249 -471 236c-124,77 -288,62 -395,-46l-158 -158 -407 204c-124,77 -288,62 -395,-46l-94 -93 -94 93 -1 -1c-94,95 -242,123 -368,60l-497 -249 -471 236c-124,77 -288,62 -395,-46l-193 -192 -464 116z"/>
	<path id="curve0" fill="#EDC87E" d="M1600 7360l640 0c177,0 320,143 320,320l0 640c0,177 143,320 320,320 177,0 320,-143 320,-320l0 -640c0,-177 143,-320 320,-320 177,0 320,143 320,320l0 0c0,177 143,320 320,320 177,0 320,-143 320,-320 0,-177 143,-320 320,-320l3840 0c176,0 320,144 320,320l0 640c0,353 -287,640 -640,640l-6400 0c-353,0 -640,-287 -640,-640l0 -640c0,-176 144,-320 320,-320zm3520 -5760c2560,0 3840,1176 3840,2276l0 0c0,156 -144,284 -320,284l-7040 0c-176,0 -320,-128 -320,-284l0 0c0,-1100 1280,-2276 3840,-2276z"/>
</svg>
