<?xml version="1.0" encoding="UTF-8"?>
<!DOCTYPE svg PUBLIC "-//W3C//DTD SVG 1.1//EN" "http://www.w3.org/Graphics/SVG/1.1/DTD/svg11.dtd">
<svg xmlns="http://www.w3.org/2000/svg" xml:space="preserve" width="1024px" height="1024px" shape-rendering="geometricPrecision" text-rendering="geometricPrecision" image-rendering="optimizeQuality" fill-rule="nonzero" clip-rule="evenodd" viewBox="0 0 10240 10240" xmlns:xlink="http://www.w3.org/1999/xlink">
	<title>hammer2 icon</title>
	<desc>hammer2 icon from the IconExperience.com O-Collection. Copyright by INCORS GmbH (www.incors.com).</desc>
	<path id="curve1" fill="#B89A7C" d="M5854 5666l-3481 3481c-250,250 -656,250 -906,0l-374 -374c-250,-250 -250,-656 0,-906l3481 -3481 1280 1280z"/>
	<path id="curve0" fill="#808080" d="M5986 866l1054 1054 94 -94c124,-124 328,-124 452,0l828 828c124,124 124,328 0,452l-94 94 1054 1054c124,124 124,328 0,452l-1788 1788c-124,124 -328,124 -452,0l-3388 -3388c-124,-124 -124,-328 0,-452l1788 -1788c124,-124 328,-124 452,0z"/>
</svg>
