<?xml version="1.0" encoding="UTF-8"?>
<!DOCTYPE svg PUBLIC "-//W3C//DTD SVG 1.1//EN" "http://www.w3.org/Graphics/SVG/1.1/DTD/svg11.dtd">
<svg xmlns="http://www.w3.org/2000/svg" xml:space="preserve" width="1024px" height="1024px" shape-rendering="geometricPrecision" text-rendering="geometricPrecision" image-rendering="optimizeQuality" fill-rule="nonzero" clip-rule="evenodd" viewBox="0 0 10240 10240" xmlns:xlink="http://www.w3.org/1999/xlink">
	<title>hand_card icon</title>
	<desc>hand_card icon from the IconExperience.com O-Collection. Copyright by INCORS GmbH (www.incors.com).</desc>
	<path id="curve2" fill="#808080" d="M8640 4800l1280 0 0 4480 -1280 0c-353,0 -640,-287 -640,-640l0 -3200c0,-353 287,-640 640,-640z"/>
	<path id="curve1" fill="#EFC1B4" d="M5440 3840l320 0c474,0 953,255 1255,615 148,176 293,397 460,554 10,9 18,17 27,27 60,64 89,84 178,84 18,0 36,1 54,2 -35,100 -54,207 -54,318l0 320 0 0 0 0c-302,0 -489,-121 -644,-285 -192,-181 -350,-416 -511,-609 -180,-214 -481,-386 -765,-386l-320 0 0 0 -1280 0c0,353 288,640 640,640l640 0 0 640 -640 0c-706,0 -1280,-574 -1280,-1280 0,-352 287,-640 640,-640l1280 0 0 0zm2240 4480l0 320c0,111 19,218 54,318 -18,1 -36,2 -54,2l-338 0c-206,0 -388,43 -572,135l-740 370c-184,92 -366,135 -572,135l-1298 0c-4,0 -8,0 -13,0 -574,-12 -1057,-389 -1208,-943 -1,-5 -2,-8 -3,-13l-481 -1924 659 0 443 1769c76,280 313,465 603,471l1298 0c108,0 190,-19 286,-68l740 -369c274,-137 552,-203 858,-203l338 0z"/>
	<path id="curve0" fill="#E68497" d="M1280 640l3200 0c353,0 640,288 640,640l0 2240 -960 0c-529,0 -960,431 -960,960 0,882 718,1600 1600,1600l234 0c-111,191 -318,320 -554,320l-3200 0c-352,0 -640,-288 -640,-640l0 -4480c0,-353 287,-640 640,-640z"/>
</svg>
