<?xml version="1.0" encoding="UTF-8"?>
<!DOCTYPE svg PUBLIC "-//W3C//DTD SVG 1.1//EN" "http://www.w3.org/Graphics/SVG/1.1/DTD/svg11.dtd">
<svg xmlns="http://www.w3.org/2000/svg" xml:space="preserve" width="1024px" height="1024px" shape-rendering="geometricPrecision" text-rendering="geometricPrecision" image-rendering="optimizeQuality" fill-rule="nonzero" clip-rule="evenodd" viewBox="0 0 10240 10240" xmlns:xlink="http://www.w3.org/1999/xlink">
	<title>handcuffs icon</title>
	<desc>handcuffs icon from the IconExperience.com O-Collection. Copyright by INCORS GmbH (www.incors.com).</desc>
	<path id="curve0" fill="#808080" d="M5120 3906c-25,837 -522,1626 -1340,1985 -1133,497 -2454,-19 -2951,-1152 -497,-1133 19,-2454 1152,-2951 818,-359 1735,-189 2368,359l491 -215c161,-71 350,3 421,165l35 78c64,-88 151,-160 258,-207 220,-96 465,-59 644,76l3 -3c174,-174 414,-281 679,-281 530,0 960,430 960,960 0,207 -66,399 -177,556 200,108 337,320 337,564 0,117 -31,226 -86,320l86 0c176,0 320,144 320,320l0 536c757,359 1280,1130 1280,2024 0,1237 -1003,2240 -2240,2240 -1237,0 -2240,-1003 -2240,-2240 0,-894 523,-1665 1280,-2024l0 -536c0,-176 144,-320 320,-320l86 0c-55,-94 -86,-203 -86,-320 0,-59 8,-116 23,-170 -309,-44 -576,-236 -718,-513 -93,34 -191,44 -284,34l34 78c71,161 -3,351 -164,422l-491 215zm1278 -1607c102,234 53,496 -105,677 102,233 332,384 587,384 20,0 40,-1 60,-3 98,-85 223,-141 360,-154 11,-10 22,-20 33,-30 115,-116 187,-276 187,-453 0,-354 -287,-640 -640,-640 -177,0 -337,72 -453,187 -10,11 -20,21 -29,32zm1008 1224c-93,61 -196,106 -307,132 -37,52 -59,116 -59,185 0,177 143,320 320,320 177,0 320,-143 320,-320 0,-161 -119,-294 -274,-317zm-1477 -671c-6,-43 -9,-87 -9,-132 0,-148 34,-288 93,-414 -90,-73 -217,-95 -330,-45 -162,71 -236,260 -165,422 70,158 252,232 411,169zm1431 2908c-707,0 -1280,573 -1280,1280 0,707 573,1280 1280,1280 707,0 1280,-573 1280,-1280 0,-707 -573,-1280 -1280,-1280zm-3307 -2435c-284,-647 -1039,-942 -1686,-658 -648,284 -943,1039 -659,1686 284,648 1039,943 1687,659 647,-284 942,-1039 658,-1687z"/>
</svg>
