<?xml version="1.0" encoding="UTF-8"?>
<!DOCTYPE svg PUBLIC "-//W3C//DTD SVG 1.1//EN" "http://www.w3.org/Graphics/SVG/1.1/DTD/svg11.dtd">
<svg xmlns="http://www.w3.org/2000/svg" xml:space="preserve" width="1024px" height="1024px" shape-rendering="geometricPrecision" text-rendering="geometricPrecision" image-rendering="optimizeQuality" fill-rule="nonzero" clip-rule="evenodd" viewBox="0 0 10240 10240" xmlns:xlink="http://www.w3.org/1999/xlink">
	<title>hand_truck_bag icon</title>
	<desc>hand_truck_bag icon from the IconExperience.com O-Collection. Copyright by INCORS GmbH (www.incors.com).</desc>
	<path id="curve2" fill="#808080" d="M8320 7040c707,0 1280,573 1280,1280 0,707 -573,1280 -1280,1280 -707,0 -1280,-573 -1280,-1280 0,-707 573,-1280 1280,-1280zm0 640c-353,0 -640,287 -640,640 0,353 287,640 640,640 353,0 640,-287 640,-640 0,-353 -287,-640 -640,-640z"/>
	<path id="curve1" fill="#808080" d="M7040 4347l1186 1187c63,62 94,144 94,226l0 960c-228,0 -444,48 -640,133l0 -961 -640 -640 0 2108c-201,267 -320,600 -320,960 0,349 112,671 301,934 -58,200 -242,346 -461,346l-2720 0c-88,0 -164,-31 -226,-94l-273 -273c-47,-47 -60,-113 -35,-174 25,-61 82,-99 148,-99l2626 0 0 -6240c0,-204 127,-378 307,-448l1239 -620c236,-118 523,-22 641,214 119,236 23,523 -213,641l-1014 507 0 1333z"/>
	<path id="curve0" fill="#B89A7C" d="M3554 8641c-211,0 -1341,-66 -2027,0 -158,15 -280,-133 -239,-287 275,-1032 13,-1999 13,-2913 0,-914 251,-1920 -13,-2913 -41,-155 81,-302 239,-287 686,66 1816,0 2027,0 679,0 1342,67 2027,1 157,-15 279,133 238,287 -264,993 -13,1999 -13,2913 0,914 -261,1882 13,2913 41,155 -81,302 -238,287 -685,-66 -1348,-1 -2027,-1zm1508 -1667c2,-53 5,-107 9,-160 10,-161 25,-323 40,-484 -543,49 -1097,71 -1591,71 -478,1 -1005,-19 -1523,-64 15,159 29,318 39,476 4,56 7,112 10,168 500,40 1008,58 1474,58 482,-1 1016,-20 1542,-65zm67 -2245c-18,-213 -38,-425 -52,-636 -532,47 -1073,68 -1557,68 -468,1 -983,-19 -1490,-62 -14,211 -35,424 -52,636 522,44 1055,64 1542,64 503,-1 1062,-22 1609,-70z"/>
</svg>
