<?xml version="1.0" encoding="UTF-8"?>
<!DOCTYPE svg PUBLIC "-//W3C//DTD SVG 1.1//EN" "http://www.w3.org/Graphics/SVG/1.1/DTD/svg11.dtd">
<svg xmlns="http://www.w3.org/2000/svg" xml:space="preserve" width="1024px" height="1024px" shape-rendering="geometricPrecision" text-rendering="geometricPrecision" image-rendering="optimizeQuality" fill-rule="nonzero" clip-rule="evenodd" viewBox="0 0 10240 10240" xmlns:xlink="http://www.w3.org/1999/xlink">
	<title>hand_fist2 icon</title>
	<desc>hand_fist2 icon from the IconExperience.com O-Collection. Copyright by INCORS GmbH (www.incors.com).</desc>
	<path id="curve1" fill="#808080" d="M7360 8640l0 1280 -4480 0 0 -1280c0,-353 287,-640 640,-640l3200 0c353,0 640,287 640,640z"/>
	<path id="curve0" fill="#EFC1B4" d="M7680 3534c0,-401 -177,-762 -492,-1009 -316,-246 -710,-330 -1099,-233 -857,215 -1734,417 -2586,647 -554,151 -931,634 -943,1208 -9,433 0,877 0,1311 0,206 43,388 135,572l370 740c92,184 135,366 135,572l0 338c0,18 1,36 2,54 100,-35 207,-54 318,-54l320 0 0 -338c0,-306 -66,-584 -203,-858l-369 -740c-49,-96 -68,-178 -68,-286l0 -1298c6,-290 191,-527 471,-603l2574 -644c197,-49 388,-9 549,117 160,125 246,300 246,504l0 319c221,0 438,45 640,133l0 -452zm-1280 4146l320 0c111,0 218,19 318,54 1,-18 2,-36 2,-54 0,-57 5,-90 41,-133 53,-64 138,-126 203,-176 127,-97 251,-190 365,-301 369,-332 671,-828 671,-1297l0 -320c0,-706 -574,-1280 -1280,-1280l-1600 0c-352,0 -640,287 -640,640 0,706 574,1280 1280,1280l320 0c176,0 320,-144 320,-320 0,-176 -144,-320 -320,-320l-320 0c-352,0 -640,-288 -640,-640l1600 0c353,0 640,287 640,640l0 320c0,320 -317,757 -640,960l-547 547c-58,109 -93,238 -93,400z"/>
</svg>
