<?xml version="1.0" encoding="UTF-8"?>
<!DOCTYPE svg PUBLIC "-//W3C//DTD SVG 1.1//EN" "http://www.w3.org/Graphics/SVG/1.1/DTD/svg11.dtd">
<svg xmlns="http://www.w3.org/2000/svg" xml:space="preserve" width="1024px" height="1024px" shape-rendering="geometricPrecision" text-rendering="geometricPrecision" image-rendering="optimizeQuality" fill-rule="nonzero" clip-rule="evenodd" viewBox="0 0 10240 10240" xmlns:xlink="http://www.w3.org/1999/xlink">
	<title>hand_point_left2 icon</title>
	<desc>hand_point_left2 icon from the IconExperience.com O-Collection. Copyright by INCORS GmbH (www.incors.com).</desc>
	<path id="curve1" fill="#808080" d="M8640 2880l1280 0 0 4480 -1280 0c-353,0 -640,-288 -640,-640l0 -3200c0,-353 287,-640 640,-640z"/>
	<path id="curve0" fill="#EFC1B4" d="M2787 4800l483 1930 2 7c150,554 634,931 1208,943l6 0 972 0c206,0 388,-43 572,-135l740 -370c184,-92 366,-135 572,-135l393 0c-36,-100 -55,-208 -55,-320l0 -320 -338 0c-306,0 -584,66 -858,203l-740 369c-96,49 -178,68 -286,68l-965 0c-291,-6 -527,-191 -603,-471l-482 -1924c-72,-289 -323,-485 -621,-485l-1347 0c-265,0 -480,-215 -480,-480 0,-265 215,-480 480,-480l2413 -11c1,-228 51,-444 138,-640l-2554 11c-617,3 -1117,502 -1117,1120 0,618 502,1120 1120,1120l1347 0c0,0 0,0 0,0zm4893 -960l0 -320c0,-112 19,-220 55,-320l-55 0c-57,0 -90,-6 -134,-42 -106,-88 -225,-271 -314,-382l-213 -241c-330,-343 -800,-615 -1246,-615l-320 0c-702,0 -1274,568 -1280,1268 0,4 0,8 0,12l0 1600c0,352 287,640 640,640 706,0 1280,-574 1280,-1280l0 -140 0 0 0 -180c0,-176 -144,-320 -320,-320l0 0c-176,0 -320,144 -320,320l0 320c0,352 -288,640 -640,640l0 -1600c0,-353 287,-640 640,-640l320 0c320,0 757,317 960,640l547 547c109,58 238,93 400,93z"/>
</svg>
