<?xml version="1.0" encoding="UTF-8"?>
<!DOCTYPE svg PUBLIC "-//W3C//DTD SVG 1.1//EN" "http://www.w3.org/Graphics/SVG/1.1/DTD/svg11.dtd">
<svg xmlns="http://www.w3.org/2000/svg" xml:space="preserve" width="1024px" height="1024px" shape-rendering="geometricPrecision" text-rendering="geometricPrecision" image-rendering="optimizeQuality" fill-rule="nonzero" clip-rule="evenodd" viewBox="0 0 10240 10240" xmlns:xlink="http://www.w3.org/1999/xlink">
	<title>hand_drill icon</title>
	<desc>hand_drill icon from the IconExperience.com O-Collection. Copyright by INCORS GmbH (www.incors.com).</desc>
	<path id="curve3" fill="#808080" d="M4800 8000c0,320 0,640 -320,960l0 640 -320 320 -320 -320 0 -640c-320,-320 -320,-640 -320,-960 0,-176 144,-320 320,-320l640 0c176,0 320,144 320,320z"/>
	<path id="curve2" fill="#808080" d="M7680 6080c0,529 -431,960 -960,960l-1920 0c-176,0 -320,144 -320,320l-640 0c0,-529 431,-960 960,-960l1920 0c176,0 320,-144 320,-320l640 0zm-640 -2880c0,-176 -144,-320 -320,-320l-1920 0c-529,0 -960,-431 -960,-960l640 0c0,176 144,320 320,320l1920 0c529,0 960,431 960,960l-640 0z"/>
	<path id="curve1" fill="#B89A7C" d="M6864 3520l992 0c104,0 193,45 255,128 209,277 209,555 209,832l0 320c0,277 0,555 -209,832 -62,83 -151,128 -255,128l-992 0c-104,0 -193,-45 -256,-128 -208,-277 -208,-555 -208,-832l0 -320c0,-277 0,-555 208,-832 63,-83 152,-128 256,-128z"/>
	<path id="curve0" fill="#B89A7C" d="M4160 320c629,0 1197,148 1604,386 216,127 316,328 316,574 0,176 -144,320 -320,320l-3200 0c-176,0 -320,-144 -320,-320 0,-246 100,-447 316,-574 407,-238 975,-386 1604,-386z"/>
</svg>
