<?xml version="1.0" encoding="UTF-8"?>
<!DOCTYPE svg PUBLIC "-//W3C//DTD SVG 1.1//EN" "http://www.w3.org/Graphics/SVG/1.1/DTD/svg11.dtd">
<svg xmlns="http://www.w3.org/2000/svg" xml:space="preserve" width="1024px" height="1024px" shape-rendering="geometricPrecision" text-rendering="geometricPrecision" image-rendering="optimizeQuality" fill-rule="nonzero" clip-rule="evenodd" viewBox="0 0 10240 10240" xmlns:xlink="http://www.w3.org/1999/xlink">
	<title>hand_paper icon</title>
	<desc>hand_paper icon from the IconExperience.com O-Collection. Copyright by INCORS GmbH (www.incors.com).</desc>
	<path id="curve2" fill="#808080" d="M640 3520l3736 0c-205,166 -364,387 -454,640l-2962 0 0 4160 5440 0 0 -2240 320 0c113,0 220,-8 320,-23l0 2583c0,176 -144,320 -320,320l-6080 0c-176,0 -320,-144 -320,-320l0 -4800c0,-176 144,-320 320,-320z"/>
	<path id="curve1" fill="#808080" d="M9600 5440l320 0 0 -4480 -320 0c-352,0 -640,288 -640,640l0 3200c0,352 287,640 640,640z"/>
	<path id="curve0" fill="#EFC1B4" d="M8640 4800c-169,0 -349,156 -547,329 -344,299 -726,631 -1373,631l-1440 0c-617,0 -1120,-503 -1120,-1120 0,-617 503,-1120 1120,-1120l1120 0c177,0 320,143 320,320 0,177 -143,320 -320,320l-1120 0c-264,0 -480,216 -480,480 0,264 216,480 480,480l1440 0c410,0 697,-250 955,-474 293,-255 559,-486 965,-486l0 640zm0 -2452l-2684 -971c-362,-131 -732,-48 -1005,225l-1598 1598 -890 0c14,-24 30,-46 51,-66l1984 -1985c446,-446 1083,-587 1676,-372l2466 892 0 679z"/>
</svg>
