<?xml version="1.0" encoding="UTF-8"?>
<!DOCTYPE svg PUBLIC "-//W3C//DTD SVG 1.1//EN" "http://www.w3.org/Graphics/SVG/1.1/DTD/svg11.dtd">
<svg xmlns="http://www.w3.org/2000/svg" xml:space="preserve" width="1024px" height="1024px" shape-rendering="geometricPrecision" text-rendering="geometricPrecision" image-rendering="optimizeQuality" fill-rule="nonzero" clip-rule="evenodd" viewBox="0 0 10240 10240" xmlns:xlink="http://www.w3.org/1999/xlink">
	<title>handsaw icon</title>
	<desc>handsaw icon from the IconExperience.com O-Collection. Copyright by INCORS GmbH (www.incors.com).</desc>
	<path id="curve1" fill="#B89A7C" d="M7680 3520l1173 0c316,0 580,224 632,535l426 2560c32,192 -17,370 -143,519 -126,148 -293,226 -488,226l-1204 0c-249,0 -462,-132 -573,-354l-395 -791c-47,-93 -68,-182 -68,-286l0 -1769c0,-353 288,-640 640,-640zm1227 2512l-197 -1280c-26,-174 -189,-294 -364,-268 -174,26 -295,189 -268,363l197 1281c26,174 189,294 363,268 175,-26 295,-189 269,-364z"/>
	<path id="curve0" fill="#808080" d="M6823 6362l-121 -81c-161,-107 -377,-50 -464,123l-158 316 -658 -439c-162,-107 -378,-50 -464,123l-158 316 -658 -439c-161,-107 -377,-50 -464,123l-158 316 -658 -439c-162,-107 -378,-50 -464,123l-158 316 -658 -439c-162,-107 -378,-50 -464,123l-158 316 -320 -320 0 -1600c0,-529 431,-960 960,-960l5175 0c-36,100 -55,208 -55,320l0 1769c0,156 34,294 103,433z"/>
</svg>
