<?xml version="1.0" encoding="UTF-8"?>
<!DOCTYPE svg PUBLIC "-//W3C//DTD SVG 1.1//EN" "http://www.w3.org/Graphics/SVG/1.1/DTD/svg11.dtd">
<svg xmlns="http://www.w3.org/2000/svg" xml:space="preserve" width="1024px" height="1024px" shape-rendering="geometricPrecision" text-rendering="geometricPrecision" image-rendering="optimizeQuality" fill-rule="nonzero" clip-rule="evenodd" viewBox="0 0 10240 10240" xmlns:xlink="http://www.w3.org/1999/xlink">
	<title>hand_touch icon</title>
	<desc>hand_touch icon from the IconExperience.com O-Collection. Copyright by INCORS GmbH (www.incors.com).</desc>
	<path id="curve1" fill="#EFC1B4" d="M3520 6400c-548,-183 -1254,-178 -1729,184 -216,164 -360,389 -431,648 -50,181 -24,356 77,514 101,158 249,256 434,287 417,70 787,229 1090,529 122,121 225,258 322,398 77,114 137,220 236,319 124,124 258,226 397,332 65,50 150,112 203,176 36,43 41,76 41,133l640 0c0,-603 -483,-748 -827,-1092 -52,-54 -119,-166 -162,-229 -121,-177 -247,-341 -400,-491 -403,-399 -894,-615 -1434,-706 33,-120 95,-227 202,-309 298,-228 802,-198 1139,-86 201,67 404,36 576,-88 172,-124 266,-307 266,-519l0 -2759c0,-266 215,-480 480,-480 265,0 480,214 480,480l0 1360c0,297 196,548 485,620l1910 478c293,73 485,320 485,621l0 978c0,108 -19,190 -68,286l-369 740c-137,274 -203,552 -203,858l0 338 640 0 0 -338c0,-206 43,-388 135,-572l370 -740c92,-184 135,-366 135,-572l0 -978c0,-595 -392,-1097 -970,-1242l-1910 -477 0 -1360c0,-619 -502,-1120 -1120,-1120 -619,0 -1120,501 -1120,1120l0 2759z"/>
	<path id="curve0" fill="#4D82B8" d="M4640 320c1679,0 3040,1361 3040,3040 0,615 -183,1188 -497,1666l-669 -167c329,-411 526,-932 526,-1499 0,-1325 -1075,-2400 -2400,-2400 -1325,0 -2400,1075 -2400,2400 0,785 377,1482 960,1920l0 714c-34,-6 -69,-10 -103,-14 -896,-529 -1497,-1504 -1497,-2620 0,-1679 1361,-3040 3040,-3040zm0 1280c972,0 1760,788 1760,1760 0,377 -118,726 -320,1012l0 -731c0,-796 -645,-1440 -1440,-1440 -795,0 -1440,644 -1440,1440l0 731c-202,-286 -320,-635 -320,-1012 0,-972 788,-1760 1760,-1760z"/>
</svg>
