<?xml version="1.0" encoding="UTF-8"?>
<!DOCTYPE svg PUBLIC "-//W3C//DTD SVG 1.1//EN" "http://www.w3.org/Graphics/SVG/1.1/DTD/svg11.dtd">
<svg xmlns="http://www.w3.org/2000/svg" xml:space="preserve" width="1024px" height="1024px" shape-rendering="geometricPrecision" text-rendering="geometricPrecision" image-rendering="optimizeQuality" fill-rule="nonzero" clip-rule="evenodd" viewBox="0 0 10240 10240" xmlns:xlink="http://www.w3.org/1999/xlink">
	<title>handshake icon</title>
	<desc>handshake icon from the IconExperience.com O-Collection. Copyright by INCORS GmbH (www.incors.com).</desc>
	<path id="curve3" fill="#EFC1B4" d="M3333 5573l1654 1654c250,250 250,656 0,906l-148 148c-374,374 -984,374 -1358,0l-1202 -1202c-374,-374 -374,-984 0,-1358l148 -148c250,-250 656,-250 906,0zm2092 -2930c67,12 165,-15 281,-66 4,214 78,427 224,600 -205,85 -418,132 -617,96 -113,-20 -202,8 -283,89l-1160 1163c240,120 540,80 739,-119l378 -379c250,-249 656,-249 906,0l320 320c244,245 644,249 893,12l453 452c-500,487 -1304,484 -1799,-11l-320 -320 -378 378c-498,498 -1308,499 -1807,3l-86 -85c-63,-62 -95,-138 -95,-226 0,-89 31,-165 94,-227l1409 -1413c229,-229 529,-324 848,-267zm-2544 3383c-1,0 -1,0 -2,0l-148 148c-124,124 -124,328 0,452l1203 1203c124,124 328,124 452,0l148 -148c0,-1 0,-1 0,-2l-1653 -1653z"/>
	<path id="curve2" fill="#808080" d="M7040 1280l-827 827c-250,250 -250,656 0,906l1974 1974c250,250 656,250 906,0l827 -827 -2880 -2880z"/>
	<path id="curve1" fill="#EFC1B4" d="M6821 5486l688 688c124,124 124,328 0,452l-1203 1203c-124,124 -328,124 -452,0l-390 -390c67,260 23,543 -131,774l68 68c374,374 984,374 1358,0l1202 -1202c374,-374 374,-984 0,-1358l-461 -461c-209,128 -442,203 -679,226z"/>
	<path id="curve0" fill="#808080" d="M3200 1280l827 827c250,250 250,656 0,906l-1974 1974c-250,250 -656,250 -906,0l-827 -827 2880 -2880z"/>
</svg>
