<?xml version="1.0" encoding="UTF-8"?>
<!DOCTYPE svg PUBLIC "-//W3C//DTD SVG 1.1//EN" "http://www.w3.org/Graphics/SVG/1.1/DTD/svg11.dtd">
<svg xmlns="http://www.w3.org/2000/svg" xml:space="preserve" width="1024px" height="1024px" shape-rendering="geometricPrecision" text-rendering="geometricPrecision" image-rendering="optimizeQuality" fill-rule="nonzero" clip-rule="evenodd" viewBox="0 0 10240 10240" xmlns:xlink="http://www.w3.org/1999/xlink">
	<title>hand_truck_suitcase icon</title>
	<desc>hand_truck_suitcase icon from the IconExperience.com O-Collection. Copyright by INCORS GmbH (www.incors.com).</desc>
	<path id="curve3" fill="#808080" d="M640 6400l0 -640c0,-353 287,-640 640,-640l320 0 0 640 -320 0 0 640 320 0 0 640 -320 0c-353,0 -640,-287 -640,-640z"/>
	<path id="curve2" fill="#B89A7C" d="M1920 8000l0 -320 3840 0 0 320c0,352 -287,640 -640,640l-2560 0c-352,0 -640,-287 -640,-640zm0 -640l0 -2560 3840 0 0 2560 -3840 0zm0 -2880l0 -320c0,-353 288,-640 640,-640l2560 0c353,0 640,288 640,640l0 320 -3840 0z"/>
	<path id="curve1" fill="#808080" d="M8320 7040c707,0 1280,573 1280,1280 0,707 -573,1280 -1280,1280 -707,0 -1280,-573 -1280,-1280 0,-707 573,-1280 1280,-1280zm0 640c-353,0 -640,287 -640,640 0,353 287,640 640,640 353,0 640,-287 640,-640 0,-353 -287,-640 -640,-640z"/>
	<path id="curve0" fill="#808080" d="M3454 8960l2626 0 0 -6240c0,-204 127,-378 307,-448l1239 -620c236,-118 523,-22 641,214 119,236 23,523 -213,641l-1014 507 0 1333 1186 1187c63,62 94,144 94,226l0 960 0 0c-228,0 -444,48 -640,133l0 -961 -640 -640 0 2108c-201,267 -320,600 -320,960 0,349 112,671 301,934 -58,200 -242,346 -461,346l-2720 0c-88,0 -164,-31 -226,-94l-273 -273c-47,-47 -60,-113 -35,-174 25,-61 82,-99 148,-99z"/>
</svg>
