<?xml version="1.0" encoding="UTF-8"?>
<!DOCTYPE svg PUBLIC "-//W3C//DTD SVG 1.1//EN" "http://www.w3.org/Graphics/SVG/1.1/DTD/svg11.dtd">
<svg xmlns="http://www.w3.org/2000/svg" xml:space="preserve" width="1024px" height="1024px" shape-rendering="geometricPrecision" text-rendering="geometricPrecision" image-rendering="optimizeQuality" fill-rule="nonzero" clip-rule="evenodd" viewBox="0 0 10240 10240" xmlns:xlink="http://www.w3.org/1999/xlink">
	<title>hand_pump icon</title>
	<desc>hand_pump icon from the IconExperience.com O-Collection. Copyright by INCORS GmbH (www.incors.com).</desc>
	<path id="curve2" fill="#808080" d="M3840 9600c-177,0 -320,-143 -320,-320 0,-177 143,-320 320,-320l0 -640c0,-176 144,-320 320,-320l1920 0c176,0 320,144 320,320l0 640c177,0 320,143 320,320 0,177 -143,320 -320,320l-2560 0z"/>
	<path id="curve1" fill="#808080" d="M3200 3840c88,0 160,72 160,160 0,88 -72,160 -160,160l-960 0c-88,0 -160,-72 -160,-160 0,-88 72,-160 160,-160l0 -320c0,-529 431,-960 960,-960l960 0c-177,0 -320,-143 -320,-320 0,-177 143,-320 320,-320l1920 0c177,0 320,143 320,320 0,177 -143,320 -320,320l0 1280c177,0 320,143 320,320 0,177 -143,320 -320,320l0 3200 -1920 0 0 -3200c-177,0 -320,-143 -320,-320 0,-177 143,-320 320,-320l0 -320 -640 0c-176,0 -320,144 -320,320z"/>
	<path id="curve0" fill="#76A797" d="M7345 1722l655 3718c0,88 71,159 159,159 87,0 158,-71 158,-159l640 0c0,441 -358,799 -798,799 -396,0 -732,-291 -790,-681l-656 -3730c-45,-314 -315,-548 -633,-548 -230,0 -440,122 -554,320l-686 0c145,-564 656,-960 1240,-960 631,0 1168,460 1265,1082z"/>
</svg>
