<?xml version="1.0" encoding="UTF-8"?>
<!DOCTYPE svg PUBLIC "-//W3C//DTD SVG 1.1//EN" "http://www.w3.org/Graphics/SVG/1.1/DTD/svg11.dtd">
<svg xmlns="http://www.w3.org/2000/svg" xml:space="preserve" width="1024px" height="1024px" shape-rendering="geometricPrecision" text-rendering="geometricPrecision" image-rendering="optimizeQuality" fill-rule="nonzero" clip-rule="evenodd" viewBox="0 0 10240 10240" xmlns:xlink="http://www.w3.org/1999/xlink">
	<title>hand_gun icon</title>
	<desc>hand_gun icon from the IconExperience.com O-Collection. Copyright by INCORS GmbH (www.incors.com).</desc>
	<path id="curve1" fill="#808080" d="M8640 3520l1280 0 0 4480 -1280 0c-353,0 -640,-287 -640,-640l0 -3200c0,-353 287,-640 640,-640z"/>
	<path id="curve0" fill="#EFC1B4" d="M4160 3200c-183,-548 -178,-1254 184,-1729 165,-216 389,-360 648,-431 181,-50 356,-24 514,77 158,101 256,249 287,434 70,417 229,787 529,1090 121,122 258,225 399,322 113,77 219,137 318,236 124,124 226,258 332,397 50,65 112,150 176,203 43,36 76,41 133,41 18,0 36,1 54,2 -35,100 -54,207 -54,318l0 320c-603,0 -748,-483 -1092,-827 -54,-52 -166,-119 -229,-162 -177,-121 -341,-247 -491,-400 -399,-403 -615,-894 -706,-1434 -120,33 -227,95 -309,202 -228,298 -198,802 -86,1139 67,201 36,404 -88,576 -124,172 -307,266 -519,266l-2240 0 -480 0c-265,0 -480,215 -480,480 0,265 215,480 480,480l-320 0c-265,0 -480,215 -480,480 0,265 215,480 480,480l1920 0c298,0 549,196 621,485l238 950c73,293 319,485 620,485l939 0c108,0 190,-19 286,-68l740 -369c274,-137 552,-203 858,-203l338 0 0 320c0,111 19,218 54,318 -18,1 -36,2 -54,2l-338 0c-206,0 -388,43 -572,135l-740 370c-184,92 -366,135 -572,135l-939 0c-595,0 -1097,-392 -1241,-970l-238 -950 -1920 0c-618,0 -1120,-502 -1120,-1120 0,-311 127,-593 332,-796 -8,-53 -12,-108 -12,-164 0,-619 501,-1120 1120,-1120l2720 0z"/>
</svg>
