<?xml version="1.0" encoding="UTF-8"?>
<!DOCTYPE svg PUBLIC "-//W3C//DTD SVG 1.1//EN" "http://www.w3.org/Graphics/SVG/1.1/DTD/svg11.dtd">
<svg xmlns="http://www.w3.org/2000/svg" xml:space="preserve" width="1024px" height="1024px" shape-rendering="geometricPrecision" text-rendering="geometricPrecision" image-rendering="optimizeQuality" fill-rule="nonzero" clip-rule="evenodd" viewBox="0 0 10240 10240" xmlns:xlink="http://www.w3.org/1999/xlink">
	<title>hand_four icon</title>
	<desc>hand_four icon from the IconExperience.com O-Collection. Copyright by INCORS GmbH (www.incors.com).</desc>
	<path id="curve1" fill="#808080" d="M3520 8640l0 1280 4480 0 0 -1280c0,-353 -287,-640 -640,-640l-3200 0c-353,0 -640,287 -640,640z"/>
	<path id="curve0" fill="#EFC1B4" d="M7681 7299l-1 9 0 2 0 15 0 2 0 15 0 0 0 0 0 341 0 52c-100,-36 -208,-55 -320,-55l-3200 0c-112,0 -220,19 -320,55l0 -55c0,-57 -5,-90 -41,-133 -53,-64 -138,-126 -203,-176 -312,-238 -413,-329 -633,-651 -97,-140 -200,-277 -322,-398 -303,-299 -672,-458 -1087,-529 -381,-64 -617,-442 -507,-812 240,-810 1120,-908 1849,-689l247 75 82 36 -943 -2085c-218,-482 -3,-1052 480,-1270 482,-217 1051,-1 1268,480l229 505 -94 -982c-50,-525 340,-996 865,-1046 524,-49 995,340 1045,864l94 989 81 -338c122,-512 642,-831 1154,-710 513,122 833,643 711,1156l-280 1202c11,8 22,17 32,25 26,-23 34,-25 5,5 273,230 440,570 448,949 0,5 0,9 0,13l0 1298c0,206 -43,388 -135,572l-370 740c-86,171 -129,340 -134,529zm-595 -3785l406 -1697c41,-169 -68,-344 -236,-384 -168,-40 -344,68 -384,236l-528 2207c-37,153 -177,256 -334,245 -157,-12 -281,-132 -296,-289l-276 -2902c-17,-172 -176,-304 -348,-288 -172,17 -304,176 -288,348l276 2897c15,157 -83,299 -236,339 -152,41 -309,-33 -374,-177l-1021 -2257c-72,-160 -262,-232 -422,-160 -160,72 -232,262 -160,422l729 1612 214 473c111,247 62,523 -129,715 -191,192 -466,244 -714,134l-253 -83c-333,-100 -923,-175 -1051,257 0,0 0,0 0,0 546,93 1033,313 1430,706 151,149 280,316 400,491 172,251 251,318 493,504 111,85 215,165 306,274 134,160 190,337 190,543l2560 0 0 -338 0 0 0 -20c3,-299 69,-570 203,-838l369 -740c49,-96 68,-178 68,-286l0 -1298c-6,-290 -191,-527 -471,-603l-123 -43z"/>
</svg>
