<?xml version="1.0" encoding="UTF-8"?>
<!DOCTYPE svg PUBLIC "-//W3C//DTD SVG 1.1//EN" "http://www.w3.org/Graphics/SVG/1.1/DTD/svg11.dtd">
<svg xmlns="http://www.w3.org/2000/svg" xml:space="preserve" width="1024px" height="1024px" shape-rendering="geometricPrecision" text-rendering="geometricPrecision" image-rendering="optimizeQuality" fill-rule="nonzero" clip-rule="evenodd" viewBox="0 0 10240 10240" xmlns:xlink="http://www.w3.org/1999/xlink">
	<title>hand_stop2 icon</title>
	<desc>hand_stop2 icon from the IconExperience.com O-Collection. Copyright by INCORS GmbH (www.incors.com).</desc>
	<path id="curve1" fill="#808080" d="M3520 8640l0 1280 4480 0 0 -1280c0,-353 -287,-640 -640,-640l-3200 0c-353,0 -640,287 -640,640z"/>
	<path id="curve0" fill="#EFC1B4" d="M3200 4160l0 -2720c0,-619 501,-1120 1120,-1120 56,0 111,4 164,12 203,-205 485,-332 796,-332 311,0 593,127 796,332 53,-8 108,-12 164,-12 567,0 1037,423 1110,970 547,73 970,543 970,1110l0 3058c0,206 -43,388 -135,572l-370 740c-92,184 -135,366 -135,572l0 338c0,18 -1,36 -2,54 -100,-35 -207,-54 -318,-54l-320 0 0 -338c0,-306 66,-584 203,-858l369 -740c49,-96 68,-178 68,-286l0 -3058c0,-265 -215,-480 -480,-480 -265,0 -480,215 -480,480l0 -160 0 -800c0,-265 -215,-480 -480,-480 -265,0 -480,215 -480,480l0 -320c0,-265 -215,-480 -480,-480 -265,0 -480,215 -480,480l0 320c0,-265 -215,-480 -480,-480 -265,0 -480,215 -480,480l0 2720c0,212 -94,395 -266,519 -172,124 -375,155 -576,88 -337,-112 -841,-142 -1139,86 -107,82 -169,189 -202,309 540,91 1031,307 1434,706 153,150 279,314 400,491 43,63 110,175 162,229 344,344 827,489 827,1092l-320 0c-111,0 -218,19 -318,54 -1,-18 -2,-36 -2,-54 0,-57 -5,-90 -41,-133 -53,-64 -138,-126 -203,-176 -139,-106 -273,-208 -397,-332 -99,-99 -159,-205 -236,-318 -97,-141 -200,-278 -322,-399 -303,-300 -673,-459 -1090,-529 -185,-31 -333,-129 -434,-287 -101,-158 -127,-333 -77,-514 71,-259 215,-483 431,-648 475,-362 1181,-367 1729,-184z"/>
</svg>
