<?xml version="1.0" encoding="UTF-8"?>
<!DOCTYPE svg PUBLIC "-//W3C//DTD SVG 1.1//EN" "http://www.w3.org/Graphics/SVG/1.1/DTD/svg11.dtd">
<svg xmlns="http://www.w3.org/2000/svg" xml:space="preserve" width="1024px" height="1024px" shape-rendering="geometricPrecision" text-rendering="geometricPrecision" image-rendering="optimizeQuality" fill-rule="nonzero" clip-rule="evenodd" viewBox="0 0 10240 10240" xmlns:xlink="http://www.w3.org/1999/xlink">
	<title>hand_point_left icon</title>
	<desc>hand_point_left icon from the IconExperience.com O-Collection. Copyright by INCORS GmbH (www.incors.com).</desc>
	<path id="curve1" fill="#808080" d="M8640 3520l1280 0 0 4480 -1280 0c-352,0 -640,-287 -640,-640l0 -3200c0,-353 288,-640 640,-640z"/>
	<path id="curve0" fill="#EFC1B4" d="M4160 3200l-2720 0c-619,0 -1120,501 -1120,1120 0,618 501,1120 1120,1120l1360 0 478 1910c144,578 646,970 1241,970l939 0c206,0 388,-43 572,-135l740 -370c184,-92 366,-135 572,-135l338 0c18,0 36,-1 54,-2 -35,-100 -54,-207 -54,-318l0 -320 -338 0c-306,0 -584,66 -858,203l-740 369c-96,49 -178,68 -286,68l-939 0c-301,0 -547,-192 -620,-485l-478 -1910c-72,-289 -323,-485 -621,-485l-1360 0c-265,0 -480,-215 -480,-480 0,-265 215,-480 480,-480l2720 0c212,0 395,-94 519,-266 124,-172 155,-375 88,-576 -112,-337 -142,-841 86,-1139 82,-107 189,-169 309,-202 91,540 307,1031 706,1434 150,153 314,279 491,400 63,43 175,110 229,162 344,344 489,827 1092,827l0 -320c0,-111 19,-218 54,-318 -18,-1 -36,-2 -54,-2 -57,0 -90,-5 -133,-41 -64,-53 -126,-138 -176,-203 -106,-139 -208,-273 -332,-397 -99,-99 -205,-159 -318,-236 -141,-97 -278,-200 -399,-322 -300,-303 -459,-673 -529,-1090 -31,-185 -129,-333 -287,-434 -158,-101 -333,-127 -514,-77 -259,71 -483,215 -648,431 -362,475 -367,1181 -184,1729z"/>
</svg>
