<?xml version="1.0" encoding="UTF-8"?>
<!DOCTYPE svg PUBLIC "-//W3C//DTD SVG 1.1//EN" "http://www.w3.org/Graphics/SVG/1.1/DTD/svg11.dtd">
<svg xmlns="http://www.w3.org/2000/svg" xml:space="preserve" width="1024px" height="1024px" shape-rendering="geometricPrecision" text-rendering="geometricPrecision" image-rendering="optimizeQuality" fill-rule="nonzero" clip-rule="evenodd" viewBox="0 0 10240 10240" xmlns:xlink="http://www.w3.org/1999/xlink">
	<title>hand_truck icon</title>
	<desc>hand_truck icon from the IconExperience.com O-Collection. Copyright by INCORS GmbH (www.incors.com).</desc>
	<path id="curve1" fill="#808080" d="M7040 6400c707,0 1280,573 1280,1280 0,707 -573,1280 -1280,1280 -707,0 -1280,-573 -1280,-1280 0,-707 573,-1280 1280,-1280zm0 640c-353,0 -640,287 -640,640 0,353 287,640 640,640 353,0 640,-287 640,-640 0,-353 -287,-640 -640,-640z"/>
	<path id="curve0" fill="#808080" d="M2427 8773l-499 -500c-47,-47 -60,-113 -35,-174 26,-61 82,-99 148,-99l2759 0 0 -5920c0,-204 127,-378 307,-448l1239 -620c236,-118 523,-22 642,214 118,236 22,523 -214,641l-1014 507 0 1333 1186 1187c63,62 94,144 94,226l0 0 0 960 0 0c-228,0 -444,48 -640,133l0 -961 -640 -639 0 2107c-201,267 -320,600 -320,960 0,349 112,671 301,934 -58,200 -242,346 -461,346l-2400 0c-176,0 -328,-63 -453,-187z"/>
</svg>
