<?xml version="1.0" encoding="UTF-8"?>
<!DOCTYPE svg PUBLIC "-//W3C//DTD SVG 1.1//EN" "http://www.w3.org/Graphics/SVG/1.1/DTD/svg11.dtd">
<svg xmlns="http://www.w3.org/2000/svg" xml:space="preserve" width="1024px" height="1024px" shape-rendering="geometricPrecision" text-rendering="geometricPrecision" image-rendering="optimizeQuality" fill-rule="nonzero" clip-rule="evenodd" viewBox="0 0 10240 10240" xmlns:xlink="http://www.w3.org/1999/xlink">
	<title>hand_count_three icon</title>
	<desc>hand_count_three icon from the IconExperience.com O-Collection. Copyright by INCORS GmbH (www.incors.com).</desc>
	<path id="curve1" fill="#808080" d="M3520 8640l0 1280 4480 0 0 -1280c0,-353 -287,-640 -640,-640l-3200 0c-353,0 -640,287 -640,640z"/>
	<path id="curve0" fill="#EFC1B4" d="M3200 4160c-548,-183 -1254,-178 -1729,184 -216,165 -360,389 -431,648 -50,181 -24,356 77,514 101,158 249,256 434,287 417,70 787,229 1090,529 122,121 225,258 322,399 77,113 137,219 236,318 124,124 258,226 397,332 65,50 150,112 203,176 36,43 41,76 41,133l640 0c0,-603 -483,-748 -827,-1092 -52,-54 -119,-166 -162,-229 -121,-177 -247,-341 -400,-491 -403,-399 -894,-615 -1434,-706 33,-120 95,-227 202,-309 298,-228 802,-198 1139,-86 201,67 404,36 576,-88 172,-124 266,-307 266,-519l0 -2720c0,-265 215,-480 480,-480 265,0 480,215 480,480l0 -320c0,-265 215,-480 480,-480 265,0 480,215 480,480l0 1920c0,298 196,549 485,621l950 238c293,73 485,319 485,620l0 939c0,108 -19,190 -68,286l-369 740c-137,274 -203,552 -203,858l0 338 640 0 0 -338c0,-206 43,-388 135,-572l370 -740c92,-184 135,-366 135,-572l0 -939c0,-595 -392,-1097 -970,-1241l-950 -238 0 -1920c0,-618 -502,-1120 -1120,-1120 -311,0 -593,127 -796,332 -53,-8 -108,-12 -164,-12 -619,0 -1120,501 -1120,1120l0 480 0 2240z"/>
</svg>
