<?xml version="1.0" encoding="UTF-8"?>
<!DOCTYPE svg PUBLIC "-//W3C//DTD SVG 1.1//EN" "http://www.w3.org/Graphics/SVG/1.1/DTD/svg11.dtd">
<svg xmlns="http://www.w3.org/2000/svg" xml:space="preserve" width="1024px" height="1024px" shape-rendering="geometricPrecision" text-rendering="geometricPrecision" image-rendering="optimizeQuality" fill-rule="nonzero" clip-rule="evenodd" viewBox="0 0 10240 10240" xmlns:xlink="http://www.w3.org/1999/xlink">
	<title>hand_point_right2 icon</title>
	<desc>hand_point_right2 icon from the IconExperience.com O-Collection. Copyright by INCORS GmbH (www.incors.com).</desc>
	<path id="curve1" fill="#808080" d="M1600 2880l-1280 0 0 4480 1280 0c353,0 640,-288 640,-640l0 -3200c0,-353 -287,-640 -640,-640z"/>
	<path id="curve0" fill="#EFC1B4" d="M7453 4800l-483 1930 -2 7c-150,554 -634,931 -1208,943l-6 0 -972 0c-206,0 -388,-43 -572,-135l-740 -370c-184,-92 -366,-135 -572,-135l-393 0c36,-100 55,-208 55,-320l0 -320 338 0c306,0 584,66 858,203l740 369c96,49 178,68 286,68l965 0c291,-6 527,-191 603,-471l482 -1924c72,-289 323,-485 621,-485l1347 0c265,0 480,-215 480,-480 0,-265 -215,-480 -480,-480l-2413 -11c-1,-228 -51,-444 -138,-640l2554 11c617,3 1117,502 1117,1120 0,618 -502,1120 -1120,1120l-1347 0c0,0 0,0 0,0zm-4893 -960l0 -320c0,-112 -19,-220 -55,-320l55 0c57,0 90,-6 134,-42 106,-88 225,-271 314,-382l193 -241 20 0c330,-343 800,-615 1246,-615l320 0c702,0 1274,568 1280,1268 0,4 0,8 0,12l0 1600c0,352 -287,640 -640,640 -706,0 -1280,-574 -1280,-1280l0 -140 0 0 0 -180c0,-176 144,-320 320,-320l0 0c176,0 320,144 320,320l0 320c0,352 288,640 640,640l0 -1600c0,-353 -287,-640 -640,-640l-320 0c-320,0 -757,317 -960,640l-547 547c-109,58 -238,93 -400,93z"/>
</svg>
