<?xml version="1.0" encoding="UTF-8"?>
<!DOCTYPE svg PUBLIC "-//W3C//DTD SVG 1.1//EN" "http://www.w3.org/Graphics/SVG/1.1/DTD/svg11.dtd">
<svg xmlns="http://www.w3.org/2000/svg" xml:space="preserve" width="1024px" height="1024px" shape-rendering="geometricPrecision" text-rendering="geometricPrecision" image-rendering="optimizeQuality" fill-rule="nonzero" clip-rule="evenodd" viewBox="0 0 10240 10240" xmlns:xlink="http://www.w3.org/1999/xlink">
	<title>handbag icon</title>
	<desc>handbag icon from the IconExperience.com O-Collection. Copyright by INCORS GmbH (www.incors.com).</desc>
	<path id="curve1" fill="#EDC87E" d="M3840 4480l2560 0 0 1205c-196,175 -320,431 -320,715 0,530 430,960 960,960 530,0 960,-430 960,-960 0,-284 -124,-540 -320,-715l0 -1193c512,72 933,443 1062,958l640 2560c97,388 14,782 -233,1098 -246,316 -608,492 -1009,492l-6040 0c-401,0 -763,-176 -1009,-492 -247,-316 -330,-710 -233,-1098l640 -2560c129,-515 550,-887 1062,-958l1 1192c-197,176 -321,431 -321,716 0,530 430,960 960,960 530,0 960,-430 960,-960 0,-285 -124,-540 -321,-716l1 -1204z"/>
	<path id="curve0" fill="#808080" d="M7360 5846c191,110 320,317 320,554 0,353 -286,640 -640,640 -353,0 -640,-287 -640,-640 0,-237 129,-444 320,-554l0 -2235c0,-469 -182,-894 -475,-1201 -289,-302 -687,-490 -1125,-490l0 0 0 0c-438,0 -836,188 -1125,490 -293,307 -475,732 -475,1201l-1 2234c192,111 321,318 321,555 0,353 -286,640 -640,640 -353,0 -640,-287 -640,-640 0,-237 129,-444 321,-555l-1 -2234c0,-638 250,-1219 652,-1641 407,-426 969,-690 1588,-690l0 0 0 0c619,0 1181,264 1588,690 402,422 652,1003 652,1641l0 2235z"/>
</svg>
