<?xml version="1.0" encoding="UTF-8"?>
<!DOCTYPE svg PUBLIC "-//W3C//DTD SVG 1.1//EN" "http://www.w3.org/Graphics/SVG/1.1/DTD/svg11.dtd">
<svg xmlns="http://www.w3.org/2000/svg" xml:space="preserve" width="1024px" height="1024px" shape-rendering="geometricPrecision" text-rendering="geometricPrecision" image-rendering="optimizeQuality" fill-rule="nonzero" clip-rule="evenodd" viewBox="0 0 10240 10240" xmlns:xlink="http://www.w3.org/1999/xlink">
	<title>hand_count_zero icon</title>
	<desc>hand_count_zero icon from the IconExperience.com O-Collection. Copyright by INCORS GmbH (www.incors.com).</desc>
	<path id="curve1" fill="#808080" d="M3520 8640l0 1280 4480 0 0 -1280c0,-353 -287,-640 -640,-640l-3200 0c-353,0 -640,287 -640,640z"/>
	<path id="curve0" fill="#EFC1B4" d="M3200 3520c4,-395 180,-751 492,-995 316,-246 710,-330 1099,-233l2579 645 7 2c554,151 931,634 943,1208l0 7 0 1304c0,206 -43,388 -135,572l-370 740c-92,184 -135,366 -135,572l0 338 -640 0 0 -338c0,-306 66,-584 203,-858l369 -740c49,-96 68,-178 68,-286l0 -1298c-6,-290 -191,-527 -471,-603l-2574 -644c-197,-49 -388,-9 -549,117 -160,125 -246,300 -246,504l0 626 0 320c0,176 -144,320 -320,320l0 0c-176,0 -320,-144 -320,-320l0 -320 0 0c-353,0 -640,287 -640,640 0,813 414,1335 1093,1788 404,270 827,489 827,1092l-640 0c0,-83 -12,-144 -66,-208 -106,-126 -338,-259 -476,-352 -844,-563 -1378,-1272 -1378,-2320 0,-706 574,-1280 1280,-1280l0 0z"/>
</svg>
