<?xml version="1.0" encoding="UTF-8"?>
<!DOCTYPE svg PUBLIC "-//W3C//DTD SVG 1.1//EN" "http://www.w3.org/Graphics/SVG/1.1/DTD/svg11.dtd">
<svg xmlns="http://www.w3.org/2000/svg" xml:space="preserve" width="1024px" height="1024px" shape-rendering="geometricPrecision" text-rendering="geometricPrecision" image-rendering="optimizeQuality" fill-rule="nonzero" clip-rule="evenodd" viewBox="0 0 10240 10240" xmlns:xlink="http://www.w3.org/1999/xlink">
	<title>handheld_device icon</title>
	<desc>handheld_device icon from the IconExperience.com O-Collection. Copyright by INCORS GmbH (www.incors.com).</desc>
	<path id="curve0" fill="#808080" d="M3200 640l3840 0c353,0 640,288 640,640l0 7680c0,352 -288,640 -640,640l-3840 0c-352,0 -640,-287 -640,-640l0 -7680c0,-353 287,-640 640,-640zm2933 5481c-586,-479 -1440,-479 -2026,0l688 688c199,-118 451,-118 650,0l688 -688zm-1564 1564c-118,-199 -118,-451 0,-650l-688 -688c-479,586 -479,1440 0,2026l688 -688zm1564 914l-688 -688c-199,118 -451,118 -650,0l-688 688c586,479 1440,479 2026,0zm226 -2252l-688 688c118,199 118,451 0,650l688 688c479,-586 479,-1440 0,-2026zm-3159 -5067l0 3840 3840 0 0 -3840 -3840 0z"/>
</svg>
