<?xml version="1.0" encoding="UTF-8"?>
<!DOCTYPE svg PUBLIC "-//W3C//DTD SVG 1.1//EN" "http://www.w3.org/Graphics/SVG/1.1/DTD/svg11.dtd">
<svg xmlns="http://www.w3.org/2000/svg" xml:space="preserve" width="1024px" height="1024px" shape-rendering="geometricPrecision" text-rendering="geometricPrecision" image-rendering="optimizeQuality" fill-rule="nonzero" clip-rule="evenodd" viewBox="0 0 10240 10240" xmlns:xlink="http://www.w3.org/1999/xlink">
	<title>hand_money icon</title>
	<desc>hand_money icon from the IconExperience.com O-Collection. Copyright by INCORS GmbH (www.incors.com).</desc>
	<path id="curve2" fill="#4D82B8" d="M640 3840l3736 0c-113,91 -212,199 -293,320l-2163 0c0,707 -573,1280 -1280,1280l0 1280c707,0 1280,573 1280,1280l3840 0c0,-707 573,-1280 1280,-1280l0 -343c113,-18 219,-44 320,-79l0 1702c0,176 -144,320 -320,320l-6400 0c-176,0 -320,-144 -320,-320l0 -3840c0,-176 144,-320 320,-320zm2245 2668c94,-105 204,-194 328,-264 172,134 390,214 627,214 237,0 455,-80 627,-214 124,70 234,159 328,264 -139,496 -514,852 -955,852 -441,0 -816,-356 -955,-852zm955 -1708c3,0 6,0 9,0 12,-110 37,-216 72,-317 -27,-2 -54,-3 -81,-3 -736,0 -1333,716 -1333,1600 0,884 597,1600 1333,1600 647,0 1186,-553 1308,-1286 -339,-31 -644,-180 -874,-405 -119,93 -270,149 -434,149 -381,0 -690,-300 -690,-669 0,-370 309,-669 690,-669z"/>
	<path id="curve1" fill="#808080" d="M9600 5760l320 0 0 -4480 -320 0c-352,0 -640,288 -640,640l0 3200c0,352 287,640 640,640z"/>
	<path id="curve0" fill="#EFC1B4" d="M8640 5120c-169,0 -349,156 -547,329 -344,299 -726,631 -1373,631l-1440 0c-617,0 -1120,-503 -1120,-1120 0,-617 503,-1120 1120,-1120l1120 0c177,0 320,143 320,320 0,177 -143,320 -320,320l-1120 0c-264,0 -480,216 -480,480 0,264 216,480 480,480l1440 0c410,0 697,-250 955,-474 293,-255 559,-486 965,-486l0 640zm0 -2452l-2684 -971c-362,-131 -732,-48 -1005,225l-1598 1598 -890 0c14,-24 30,-46 51,-66l1984 -1985c446,-446 1083,-587 1676,-372l2466 892 0 679z"/>
</svg>
