<?xml version="1.0" encoding="UTF-8"?>
<!DOCTYPE svg PUBLIC "-//W3C//DTD SVG 1.1//EN" "http://www.w3.org/Graphics/SVG/1.1/DTD/svg11.dtd">
<svg xmlns="http://www.w3.org/2000/svg" xml:space="preserve" width="1024px" height="1024px" shape-rendering="geometricPrecision" text-rendering="geometricPrecision" image-rendering="optimizeQuality" fill-rule="nonzero" clip-rule="evenodd" viewBox="0 0 10240 10240" xmlns:xlink="http://www.w3.org/1999/xlink">
	<title>hand_point_up2 icon</title>
	<desc>hand_point_up2 icon from the IconExperience.com O-Collection. Copyright by INCORS GmbH (www.incors.com).</desc>
	<path id="curve1" fill="#808080" d="M7360 8640l0 1280 -4480 0 0 -1280c0,-353 288,-640 640,-640l3200 0c353,0 640,287 640,640z"/>
	<path id="curve0" fill="#EFC1B4" d="M5440 2787l-1930 483 -7 2c-554,150 -931,634 -943,1208l0 6 0 972c0,206 43,388 135,572l370 740c92,184 135,366 135,572l0 393c100,-36 208,-55 320,-55l320 0 0 -338c0,-306 -66,-584 -203,-858l-369 -740c-49,-96 -68,-178 -68,-286l0 -965c6,-291 191,-527 471,-603l1924 -482c289,-72 485,-323 485,-621l0 -1347c0,-265 215,-480 480,-480 265,0 480,215 480,480l11 2413c228,1 444,51 640,138l-11 -2554c-3,-617 -502,-1117 -1120,-1117 -618,0 -1120,502 -1120,1120l0 1347c0,0 0,0 0,0zm960 4893l320 0c112,0 220,19 320,55l0 -55c0,-57 6,-90 42,-134 88,-106 271,-225 382,-314l241 -193 0 -20c343,-330 615,-800 615,-1246l0 -320c0,-702 -568,-1274 -1268,-1280 -4,0 -8,0 -12,0l-1600 0c-352,0 -640,287 -640,640 0,706 574,1280 1280,1280l140 0 0 0 180 0c176,0 320,-144 320,-320l0 0c0,-176 -144,-320 -320,-320l-320 0c-352,0 -640,-288 -640,-640l1600 0c353,0 640,287 640,640l0 320c0,320 -317,757 -640,960l-547 547c-58,109 -93,238 -93,400z"/>
</svg>
