<?xml version="1.0" encoding="UTF-8"?>
<!DOCTYPE svg PUBLIC "-//W3C//DTD SVG 1.1//EN" "http://www.w3.org/Graphics/SVG/1.1/DTD/svg11.dtd">
<svg xmlns="http://www.w3.org/2000/svg" xml:space="preserve" width="1024px" height="1024px" shape-rendering="geometricPrecision" text-rendering="geometricPrecision" image-rendering="optimizeQuality" fill-rule="nonzero" clip-rule="evenodd" viewBox="0 0 10240 10240" xmlns:xlink="http://www.w3.org/1999/xlink">
	<title>hard_drive_network icon</title>
	<desc>hard_drive_network icon from the IconExperience.com O-Collection. Copyright by INCORS GmbH (www.incors.com).</desc>
	<path id="curve4" fill="#4D82B8" d="M5440 8640c176,0 320,144 320,320l1280 0 0 640 -1280 0c0,176 -144,320 -320,320l-640 0c-176,0 -320,-144 -320,-320l-1280 0 0 -640 1280 0c0,-176 144,-320 320,-320l0 -320 640 0 0 320z"/>
	<path id="curve3" fill="#808080" d="M7177 6138c38,13 97,33 133,51 316,158 444,542 285,858 -158,316 -542,444 -858,286 -56,-28 -86,-59 -134,-92l-1756 -1214c-135,-93 -186,-267 -113,-412 73,-146 243,-209 397,-157l2046 680z"/>
	<path id="curve2" fill="#808080" d="M5120 3840c177,0 320,143 320,320 0,177 -143,320 -320,320 -177,0 -320,-143 -320,-320 0,-177 143,-320 320,-320z"/>
	<path id="curve1" fill="#4D82B8" d="M5120 1600c1414,0 2560,1146 2560,2560 0,613 -216,1176 -575,1617l-1873 -623c-304,-101 -640,29 -784,317 -145,289 -48,636 217,819l614 425c-52,3 -105,5 -159,5 -1414,0 -2560,-1146 -2560,-2560 0,-1414 1146,-2560 2560,-2560zm0 1600c-530,0 -960,430 -960,960 0,530 430,960 960,960 530,0 960,-430 960,-960 0,-530 -430,-960 -960,-960z"/>
	<path id="curve0" fill="#808080" d="M2560 640l5120 0c353,0 640,288 640,640l0 6080c0,352 -288,640 -640,640l-5120 0c-352,0 -640,-288 -640,-640l0 -6080c0,-353 287,-640 640,-640zm4800 640c-177,0 -320,143 -320,320 0,177 143,320 320,320 177,0 320,-143 320,-320 0,-177 -143,-320 -320,-320zm-4480 5475c-177,0 -320,144 -320,320 0,177 143,320 320,320 177,0 320,-143 320,-320 0,-176 -143,-320 -320,-320zm0 -5475c-177,0 -320,143 -320,320 0,177 143,320 320,320 177,0 320,-143 320,-320 0,-177 -143,-320 -320,-320zm4544 4609c362,-482 576,-1080 576,-1729 0,-1591 -1289,-2880 -2880,-2880 -1591,0 -2880,1289 -2880,2880 0,1591 1289,2880 2880,2880 189,0 374,-18 553,-53l748 517c61,42 102,80 172,115 474,238 1051,46 1288,-428 238,-474 46,-1051 -428,-1289 -10,-4 -19,-9 -29,-13z"/>
</svg>
