<?xml version="1.0" encoding="UTF-8"?>
<!DOCTYPE svg PUBLIC "-//W3C//DTD SVG 1.1//EN" "http://www.w3.org/Graphics/SVG/1.1/DTD/svg11.dtd">
<svg xmlns="http://www.w3.org/2000/svg" xml:space="preserve" width="1024px" height="1024px" shape-rendering="geometricPrecision" text-rendering="geometricPrecision" image-rendering="optimizeQuality" fill-rule="nonzero" clip-rule="evenodd" viewBox="0 0 10240 10240" xmlns:xlink="http://www.w3.org/1999/xlink">
	<title>hat icon</title>
	<desc>hat icon from the IconExperience.com O-Collection. Copyright by INCORS GmbH (www.incors.com).</desc>
	<path id="curve1" fill="#808080" d="M1118 3890c1334,632 6670,632 8004,0 667,-316 1001,948 667,1581 -667,1264 -2001,2529 -4669,2529 -2668,0 -4002,-1265 -4669,-2529 -334,-633 0,-1897 667,-1581zm6558 334c0,640 -1278,896 -2556,896 -1282,0 -2560,-256 -2560,-896l0 896c0,640 1278,960 2560,960 1278,0 2560,-320 2560,-960l-4 -896z"/>
	<path id="curve0" fill="#808080" d="M5120 2240c320,0 640,-320 1280,-320 640,0 1280,1664 1280,2304 0,640 -1282,896 -2560,896 -1282,0 -2556,-256 -2556,-896 0,-640 636,-2304 1276,-2304 640,0 960,320 1280,320z"/>
</svg>
