<?xml version="1.0" encoding="UTF-8"?>
<!DOCTYPE svg PUBLIC "-//W3C//DTD SVG 1.1//EN" "http://www.w3.org/Graphics/SVG/1.1/DTD/svg11.dtd">
<svg xmlns="http://www.w3.org/2000/svg" xml:space="preserve" width="1024px" height="1024px" shape-rendering="geometricPrecision" text-rendering="geometricPrecision" image-rendering="optimizeQuality" fill-rule="nonzero" clip-rule="evenodd" viewBox="0 0 10240 10240" xmlns:xlink="http://www.w3.org/1999/xlink">
	<title>hat2 icon</title>
	<desc>hat2 icon from the IconExperience.com O-Collection. Copyright by INCORS GmbH (www.incors.com).</desc>
	<path id="curve1" fill="#808080" d="M2570 4225l0 643c-638,-78 -1185,-188 -1562,-331 -65,189 -60,504 9,635 843,1599 2353,2188 4103,2188 1750,0 3260,-589 4103,-2188 69,-131 74,-446 9,-635 -377,143 -924,253 -1562,331l0 -643c630,-79 1146,-190 1452,-335 667,-316 1001,948 667,1581 -667,1264 -2001,2529 -4669,2529 -2668,0 -4002,-1265 -4669,-2529 -334,-633 0,-1897 667,-1581 306,145 822,256 1452,335z"/>
	<path id="curve0" fill="#808080" d="M7680 4160l0 960 0 320c0,640 -1282,960 -2560,960 -1282,0 -2560,-320 -2560,-960l0 -320 0 -960c0,-640 640,-2240 1280,-2240 640,0 960,320 1280,320 320,0 640,-320 1280,-320 640,0 1280,1600 1280,2240zm-3786 -1599c-156,114 -368,531 -435,682 -102,230 -259,664 -259,917l0 661c492,199 1205,299 1920,299l0 0c713,0 1428,-100 1920,-299l0 -661c0,-253 -157,-687 -259,-917 -67,-151 -279,-568 -435,-682 -447,23 -761,319 -1226,319 -465,0 -779,-296 -1226,-319z"/>
</svg>
