<?xml version="1.0" encoding="UTF-8"?>
<!DOCTYPE svg PUBLIC "-//W3C//DTD SVG 1.1//EN" "http://www.w3.org/Graphics/SVG/1.1/DTD/svg11.dtd">
<svg xmlns="http://www.w3.org/2000/svg" xml:space="preserve" width="1024px" height="1024px" shape-rendering="geometricPrecision" text-rendering="geometricPrecision" image-rendering="optimizeQuality" fill-rule="nonzero" clip-rule="evenodd" viewBox="0 0 10240 10240" xmlns:xlink="http://www.w3.org/1999/xlink">
	<title>headstone icon</title>
	<desc>headstone icon from the IconExperience.com O-Collection. Copyright by INCORS GmbH (www.incors.com).</desc>
	<path id="curve0" fill="#808080" d="M2107 6533l266 -266c124,-124 187,-276 187,-452l0 -4215c0,-176 144,-320 320,-320l505 0c308,-378 969,-640 1735,-640 766,0 1427,262 1735,640l505 0c176,0 320,144 320,320l0 4215c0,176 63,328 187,452l266 266c124,124 187,276 187,452l0 2615 -6400 0 0 -2615c0,-176 63,-328 187,-452zm3653 -3333l0 1600 320 0 0 -640 480 0c265,0 480,-215 480,-480 0,-265 -215,-480 -480,-480l-800 0zm800 640l-480 0 0 -320 480 0c88,0 160,72 160,160 0,88 -72,160 -160,160zm-3040 -640l0 1600 320 0 0 -640 320 0c176,0 320,144 320,320l0 320 320 0 0 -320c0,-167 -65,-319 -170,-434 104,-88 170,-219 170,-366 0,-265 -215,-480 -480,-480l-800 0zm800 640l-480 0 0 -320 480 0c88,0 160,72 160,160 0,88 -72,160 -160,160zm800 -640l0 1600 320 0 0 -1600 -320 0z"/>
</svg>
