<?xml version="1.0" encoding="UTF-8"?>
<!DOCTYPE svg PUBLIC "-//W3C//DTD SVG 1.1//EN" "http://www.w3.org/Graphics/SVG/1.1/DTD/svg11.dtd">
<svg xmlns="http://www.w3.org/2000/svg" xml:space="preserve" width="1024px" height="1024px" shape-rendering="geometricPrecision" text-rendering="geometricPrecision" image-rendering="optimizeQuality" fill-rule="nonzero" clip-rule="evenodd" viewBox="0 0 10240 10240" xmlns:xlink="http://www.w3.org/1999/xlink">
	<title>headphones icon</title>
	<desc>headphones icon from the IconExperience.com O-Collection. Copyright by INCORS GmbH (www.incors.com).</desc>
	<path id="curve2" fill="#808080" d="M8000 3840l320 0c705,0 1280,575 1280,1280l0 1280c0,705 -575,1280 -1280,1280l-320 0c-176,0 -320,-144 -320,-320l0 -3200c0,-176 144,-320 320,-320z"/>
	<path id="curve1" fill="#808080" d="M1920 3840l320 0c176,0 320,144 320,320l0 3200c0,176 -144,320 -320,320l-320 0c-705,0 -1280,-575 -1280,-1280l0 -1280c0,-705 575,-1280 1280,-1280z"/>
	<path id="curve0" fill="#808080" d="M5120 1280c1561,0 2905,932 3505,2269 -99,-19 -201,-29 -305,-29l-320 0c-35,0 -70,3 -103,8 -552,-961 -1589,-1608 -2777,-1608 -1188,0 -2225,647 -2777,1608 -33,-5 -68,-8 -103,-8l-320 0c-104,0 -206,10 -305,29 600,-1337 1944,-2269 3505,-2269z"/>
</svg>
