<?xml version="1.0" encoding="UTF-8"?>
<!DOCTYPE svg PUBLIC "-//W3C//DTD SVG 1.1//EN" "http://www.w3.org/Graphics/SVG/1.1/DTD/svg11.dtd">
<svg xmlns="http://www.w3.org/2000/svg" xml:space="preserve" width="1024px" height="1024px" shape-rendering="geometricPrecision" text-rendering="geometricPrecision" image-rendering="optimizeQuality" fill-rule="nonzero" clip-rule="evenodd" viewBox="0 0 10240 10240" xmlns:xlink="http://www.w3.org/1999/xlink">
	<title>heartbeat icon</title>
	<desc>heartbeat icon from the IconExperience.com O-Collection. Copyright by INCORS GmbH (www.incors.com).</desc>
	<path id="curve1" fill="#E68497" d="M640 5760c-177,0 -320,-143 -320,-320 0,-177 143,-320 320,-320l1788 0 546 -546c125,-125 327,-125 452,0 33,32 57,70 72,110l300 600 703 -1875c62,-165 245,-249 410,-188 111,41 185,138 204,247l479 2872 521 -1043c56,-111 168,-176 285,-176l3200 -1c177,0 320,143 320,320 0,177 -143,320 -320,320l-3004 0 -861 1723c-41,98 -130,173 -242,192 -174,29 -339,-89 -368,-263l-444 -2666 -542 1445c-28,73 -81,136 -156,174 -158,79 -349,15 -428,-142l-442 -884 -325 325c-58,59 -139,96 -228,96l-1920 0z"/>
	<path id="curve0" fill="#808080" d="M7040 1280c1414,0 2560,1146 2560,2560 0,344 -41,662 -117,960l-3083 1c-242,0 -463,137 -571,353l-82 163 -317 -1902c-37,-225 -192,-414 -407,-494 -330,-123 -698,46 -821,375l-446 1188c-28,-50 -63,-96 -103,-137 -250,-249 -656,-249 -906,0l-452 453 -1538 0c-76,-298 -117,-616 -117,-960 0,-1414 1146,-2560 2560,-2560 765,0 1451,335 1920,867 469,-532 1155,-867 1920,-867zm1830 4800c-785,1092 -2141,1993 -3750,3200 -1609,-1207 -2964,-2108 -3750,-3200l1190 0c171,0 334,-69 455,-189l11 -12 243 487c157,315 541,443 857,285 144,-72 255,-196 312,-347l123 -328 248 1489c58,348 388,584 736,526 213,-36 393,-176 480,-372l769 -1539 2076 0z"/>
</svg>
