<?xml version="1.0" encoding="UTF-8"?>
<!DOCTYPE svg PUBLIC "-//W3C//DTD SVG 1.1//EN" "http://www.w3.org/Graphics/SVG/1.1/DTD/svg11.dtd">
<svg xmlns="http://www.w3.org/2000/svg" xml:space="preserve" width="1024px" height="1024px" shape-rendering="geometricPrecision" text-rendering="geometricPrecision" image-rendering="optimizeQuality" fill-rule="nonzero" clip-rule="evenodd" viewBox="0 0 10240 10240" xmlns:xlink="http://www.w3.org/1999/xlink">
	<title>helicopter icon</title>
	<desc>helicopter icon from the IconExperience.com O-Collection. Copyright by INCORS GmbH (www.incors.com).</desc>
	<path id="curve3" fill="#808080" d="M7360 8000l640 0 0 320 640 0c88,0 168,-36 226,-94 58,-58 94,-138 94,-226 0,-177 143,-320 320,-320 177,0 320,143 320,320 0,265 -108,505 -282,678 -173,174 -413,282 -678,282l-4160 0c-177,0 -320,-143 -320,-320 0,-177 143,-320 320,-320l960 0 0 -320 640 0 0 320 1280 0 0 -320z"/>
	<path id="curve2" fill="#4D82B8" d="M4135 6070l-2634 -1306c-337,-168 -294,-604 99,-604l4160 0 0 -640 640 0 0 640 320 0c1237,0 2240,1003 2240,2240 0,319 -67,622 -187,896 -104,239 -326,384 -586,384l-2934 0c-260,0 -482,-145 -586,-384 -96,-219 -158,-457 -179,-706 -19,-230 -147,-418 -353,-520zm2969 -1552c-98,-19 -190,3 -267,66 -76,63 -117,149 -117,248l0 1248c0,176 144,320 320,320l1248 0c99,0 185,-41 248,-117 63,-77 85,-169 66,-267 -153,-752 -746,-1345 -1498,-1498z"/>
	<path id="curve1" fill="#808080" d="M1600 3200c474,0 887,257 1109,640l-1109 0c-741,0 -868,899 -241,1210l971 482c-207,144 -459,228 -730,228 -707,0 -1280,-573 -1280,-1280 0,-707 573,-1280 1280,-1280z"/>
	<path id="curve0" fill="#808080" d="M2880 3199c-176,0 -319,-143 -319,-319 0,-176 143,-319 319,-319l2880 -1c0,-177 143,-320 320,-320 177,0 320,143 320,320l2880 1c176,0 319,143 319,319 0,176 -143,319 -319,319l-6400 0z"/>
</svg>
