<?xml version="1.0" encoding="UTF-8"?>
<!DOCTYPE svg PUBLIC "-//W3C//DTD SVG 1.1//EN" "http://www.w3.org/Graphics/SVG/1.1/DTD/svg11.dtd">
<svg xmlns="http://www.w3.org/2000/svg" xml:space="preserve" width="1024px" height="1024px" shape-rendering="geometricPrecision" text-rendering="geometricPrecision" image-rendering="optimizeQuality" fill-rule="nonzero" clip-rule="evenodd" viewBox="0 0 10240 10240" xmlns:xlink="http://www.w3.org/1999/xlink">
	<title>helmet icon</title>
	<desc>helmet icon from the IconExperience.com O-Collection. Copyright by INCORS GmbH (www.incors.com).</desc>
	<path id="curve0" fill="#808080" d="M8640 4160l0 2880c0,875 532,1485 869,1828 60,62 91,137 91,224l0 508 -2880 0c-353,0 -640,-287 -640,-640l0 -2230c0,-401 231,-743 603,-891l796 -319c124,-49 201,-163 201,-297l0 -423c0,-176 -144,-320 -320,-320l-1058 0c-315,0 -579,224 -631,535l-186 1118c-26,155 -158,267 -316,267l-98 0c-158,0 -290,-112 -316,-267l-186 -1118c-52,-311 -316,-535 -631,-535l-1058 0c-176,0 -320,144 -320,320l0 423c0,134 77,248 201,297l796 319c372,148 603,490 603,891l0 2230c0,353 -287,640 -640,640l-2880 0 0 -508c0,-87 31,-162 91,-224 337,-343 869,-953 869,-1828l0 -2880c0,-1586 1294,-2880 2880,-2880 213,0 1067,0 1280,0 1586,0 2880,1294 2880,2880z"/>
</svg>
