<?xml version="1.0" encoding="UTF-8"?>
<!DOCTYPE svg PUBLIC "-//W3C//DTD SVG 1.1//EN" "http://www.w3.org/Graphics/SVG/1.1/DTD/svg11.dtd">
<svg xmlns="http://www.w3.org/2000/svg" xml:space="preserve" width="1024px" height="1024px" shape-rendering="geometricPrecision" text-rendering="geometricPrecision" image-rendering="optimizeQuality" fill-rule="nonzero" clip-rule="evenodd" viewBox="0 0 10240 10240" xmlns:xlink="http://www.w3.org/1999/xlink">
	<title>help_earth icon</title>
	<desc>help_earth icon from the IconExperience.com O-Collection. Copyright by INCORS GmbH (www.incors.com).</desc>
	<path id="curve2" fill="#4D82B8" d="M3200 7680l640 0 0 640 -640 0 0 -640zm-960 -1440l0 -160c0,-529 431,-960 960,-960l640 0c529,0 960,431 960,960 0,475 -353,882 -823,950 -82,11 -137,76 -137,159l0 331 -640 0 0 -331c0,-399 292,-735 687,-792 157,-23 273,-158 273,-317 0,-176 -144,-320 -320,-320l-640 0c-176,0 -320,144 -320,320l0 160 -640 0z"/>
	<path id="curve1" fill="#4D82B8" d="M3520 9600c1591,0 2880,-1289 2880,-2880 0,-1591 -1289,-2880 -2880,-2880 -1591,0 -2880,1289 -2880,2880 0,1591 1289,2880 2880,2880zm0 -640c-1237,0 -2240,-1003 -2240,-2240 0,-1237 1003,-2240 2240,-2240 1237,0 2240,1003 2240,2240 0,1237 -1003,2240 -2240,2240z"/>
	<path id="curve0" fill="#808080" d="M6071 311c2121,0 3840,1719 3840,3840 0,1988 -1510,3622 -3445,3820 91,-214 160,-440 202,-676 1482,-279 2603,-1581 2603,-3144 0,-195 -17,-385 -51,-570 -10,-5 -20,-6 -29,-3 -56,17 -60,193 -120,294 -49,82 -158,91 -176,115 -118,160 276,289 105,511 -73,95 -296,310 -356,588 -127,591 -43,235 -233,708 -29,70 -79,343 -119,404 -182,276 -695,591 -820,432 -73,-92 -117,-231 -140,-364 -23,-132 -162,-302 -148,-407 22,-164 35,-217 39,-404 0,-8 -113,-463 -132,-503 -83,-179 -221,-259 -415,-192 -152,52 -279,-24 -399,-72 -238,-97 -350,-409 -400,-665 0,-1 37,-401 38,-422 8,-106 57,-206 113,-287 430,-615 330,-351 884,-550 91,-33 227,-39 276,-22 247,86 235,340 489,383 29,5 161,-76 191,-71 156,28 304,175 440,105 82,-41 124,-195 52,-250 -71,-53 -179,-14 -256,-69 -113,-80 -207,33 -302,-76 -42,-49 -118,-202 -174,-283 -60,-86 -240,-51 -211,-11 93,124 229,144 247,213 19,75 -175,174 -123,38 27,-71 -112,-116 -273,-201 -85,-44 -167,-158 -295,-97 -62,31 -182,180 -229,251 -81,121 -265,88 -389,28 -122,-60 -125,-355 34,-484 152,-123 277,-48 425,-90 60,-17 90,-82 181,-143 107,-72 -66,-186 -9,-302 47,-95 204,-114 287,-155 78,-39 166,-103 251,-53 117,70 244,77 360,149 118,73 214,124 317,139 -494,-441 -1126,-731 -1824,-797 95,103 185,243 146,330 -53,118 -130,267 -361,353 -171,63 -396,66 -567,140 -178,77 -355,71 -457,95 -160,37 8,-527 -39,-590 -69,-94 -496,-14 -533,83 -85,226 115,417 106,461 -18,86 -16,427 -97,515 -124,134 -438,254 -480,260 -204,29 -251,238 -404,359 -64,51 -388,391 -439,497 -11,22 -20,44 -28,65 -344,31 -672,117 -975,249 185,-1948 1826,-3472 3822,-3472z"/>
</svg>
