<?xml version="1.0" encoding="UTF-8"?>
<!DOCTYPE svg PUBLIC "-//W3C//DTD SVG 1.1//EN" "http://www.w3.org/Graphics/SVG/1.1/DTD/svg11.dtd">
<svg xmlns="http://www.w3.org/2000/svg" xml:space="preserve" width="1024px" height="1024px" shape-rendering="geometricPrecision" text-rendering="geometricPrecision" image-rendering="optimizeQuality" fill-rule="nonzero" clip-rule="evenodd" viewBox="0 0 10240 10240" xmlns:xlink="http://www.w3.org/1999/xlink">
	<title>history icon</title>
	<desc>history icon from the IconExperience.com O-Collection. Copyright by INCORS GmbH (www.incors.com).</desc>
	<path id="curve2" fill="#EDC87E" d="M3840 7360l-640 0 0 -656c105,11 212,16 320,16 108,0 215,-5 320,-16l0 656 0 0zm2864 -4160l1936 0c530,0 960,430 960,960 0,530 -430,960 -960,960l0 -640c177,0 320,-143 320,-320 0,-177 -143,-320 -320,-320 -177,0 -320,143 -320,320l0 320 0 585 0 3575c0,530 -430,960 -960,960l-4480 0c-537,0 -971,-441 -960,-979 10,-522 437,-941 959,-941l961 0 3200 0c176,0 320,144 320,320l0 86c0,117 -58,218 -160,277 -96,55 -160,159 -160,277 0,177 143,320 320,320 177,0 320,-143 320,-320l0 -905 0 -3575c0,-112 19,-220 55,-320l-1031 0c11,-105 16,-212 16,-320 0,-108 -5,-215 -16,-320zm-2864 5760l2615 0c-36,-100 -55,-208 -55,-320 0,-112 19,-220 55,-320l-2615 0 -960 0c-176,0 -320,144 -320,320l0 0c0,177 143,320 320,320l960 0z"/>
	<path id="curve1" fill="#4D82B8" d="M2849 1721l671 1159c116,0 226,31 320,85l877 -507c141,160 252,348 321,554l-878 508c0,353 -287,640 -640,640 -353,0 -640,-287 -640,-640 0,-116 31,-226 85,-320l-670 -1159c164,-136 351,-245 554,-320z"/>
	<path id="curve0" fill="#808080" d="M3520 640c1591,0 2880,1289 2880,2880 0,1591 -1289,2880 -2880,2880 -1591,0 -2880,-1289 -2880,-2880 0,-1591 1289,-2880 2880,-2880zm0 640c-1237,0 -2240,1003 -2240,2240 0,1237 1003,2240 2240,2240 1237,0 2240,-1003 2240,-2240 0,-1237 -1003,-2240 -2240,-2240z"/>
</svg>
