<?xml version="1.0" encoding="UTF-8"?>
<!DOCTYPE svg PUBLIC "-//W3C//DTD SVG 1.1//EN" "http://www.w3.org/Graphics/SVG/1.1/DTD/svg11.dtd">
<svg xmlns="http://www.w3.org/2000/svg" xml:space="preserve" width="1024px" height="1024px" shape-rendering="geometricPrecision" text-rendering="geometricPrecision" image-rendering="optimizeQuality" fill-rule="nonzero" clip-rule="evenodd" viewBox="0 0 10240 10240" xmlns:xlink="http://www.w3.org/1999/xlink">
	<title>history2 icon</title>
	<desc>history2 icon from the IconExperience.com O-Collection. Copyright by INCORS GmbH (www.incors.com).</desc>
	<path id="curve4" fill="#4D82B8" d="M3200 7680l3200 0 0 640 -3200 0 0 -640zm0 -3843l336 0c21,221 65,435 130,640l-466 0 0 -640zm0 1283l748 0c135,234 299,449 487,640l-1235 0 0 -640zm0 1280l2124 0c331,161 693,266 1076,304l0 336 -3200 0 0 -640z"/>
	<path id="curve3" fill="#808080" d="M640 3520l0 0c0,-176 144,-320 320,-320l640 0c176,0 320,144 320,320 0,176 -144,320 -320,320l-640 0c-176,0 -320,-144 -320,-320zm1280 0l0 0zm-1280 1280l0 0c0,-176 144,-320 320,-320l640 0c176,0 320,144 320,320 0,176 -144,320 -320,320l-640 0c-176,0 -320,-144 -320,-320zm1280 0l0 0zm-1280 1280l0 0c0,-176 144,-320 320,-320l640 0c176,0 320,144 320,320 0,176 -144,320 -320,320l-640 0c-176,0 -320,-144 -320,-320zm1280 0l0 0zm-1280 1280l0 0c0,-176 144,-320 320,-320l640 0c176,0 320,144 320,320 0,176 -144,320 -320,320l-640 0c-176,0 -320,-144 -320,-320zm1280 0l0 0zm-1280 1280l0 0c0,-176 144,-320 320,-320l640 0c176,0 320,144 320,320l0 0c0,176 -144,320 -320,320l-640 0c-176,0 -320,-144 -320,-320z"/>
	<path id="curve2" fill="#808080" d="M1920 2560l1747 0c-65,205 -109,419 -131,640l-976 0 0 5760 4480 0 0 -2256c221,-22 435,-66 640,-131l0 2387c0,352 -288,640 -640,640l-5120 0c-236,0 -443,-129 -554,-320l234 0c353,0 640,-287 640,-640 0,-353 -287,-640 -640,-640l-320 0 0 0 320 0c353,0 640,-287 640,-640 0,-353 -287,-640 -640,-640l-320 0 0 0 320 0c353,0 640,-287 640,-640 0,-353 -287,-640 -640,-640l-320 0 0 0 320 0c353,0 640,-287 640,-640 0,-353 -287,-640 -640,-640l-320 0 0 0 320 0c353,0 640,-287 640,-640 0,-353 -287,-640 -640,-640l-234 0c111,-191 318,-320 554,-320z"/>
	<path id="curve1" fill="#4D82B8" d="M6049 1721l671 1159c116,0 226,31 320,85l877 -507c141,160 252,348 321,554l-878 508c0,353 -287,640 -640,640 -353,0 -640,-287 -640,-640 0,-116 31,-226 85,-320l-670 -1159c164,-136 351,-245 554,-320z"/>
	<path id="curve0" fill="#808080" d="M6720 640c1591,0 2880,1289 2880,2880 0,1591 -1289,2880 -2880,2880 -1591,0 -2880,-1289 -2880,-2880 0,-1591 1289,-2880 2880,-2880zm0 640c-1237,0 -2240,1003 -2240,2240 0,1237 1003,2240 2240,2240 1237,0 2240,-1003 2240,-2240 0,-1237 -1003,-2240 -2240,-2240z"/>
</svg>
