<?xml version="1.0" encoding="UTF-8"?>
<!DOCTYPE svg PUBLIC "-//W3C//DTD SVG 1.1//EN" "http://www.w3.org/Graphics/SVG/1.1/DTD/svg11.dtd">
<svg xmlns="http://www.w3.org/2000/svg" xml:space="preserve" width="1024px" height="1024px" shape-rendering="geometricPrecision" text-rendering="geometricPrecision" image-rendering="optimizeQuality" fill-rule="nonzero" clip-rule="evenodd" viewBox="0 0 10240 10240" xmlns:xlink="http://www.w3.org/1999/xlink">
	<title>hockey_stick icon</title>
	<desc>hockey_stick icon from the IconExperience.com O-Collection. Copyright by INCORS GmbH (www.incors.com).</desc>
	<path id="curve1" fill="#ED9A56" d="M2400,7680 1600,9280 3962,9280 4762,7680z"/>
	<path id="curve0" fill="#808080" d="M9564 1460l-3563 7113c-222,444 -647,707 -1144,707l-537 0 800 -1600 73 0c124,0 231,-66 286,-177l3230 -6471c79,-157 272,-221 430,-143l282 142c158,78 222,271 143,429zm-8322 7820l-282 0c-239,0 -393,-250 -286,-463l480 -960c55,-111 162,-177 286,-177l602 0 -800 1600z"/>
</svg>
