<?xml version="1.0" encoding="UTF-8"?>
<!DOCTYPE svg PUBLIC "-//W3C//DTD SVG 1.1//EN" "http://www.w3.org/Graphics/SVG/1.1/DTD/svg11.dtd">
<svg xmlns="http://www.w3.org/2000/svg" xml:space="preserve" width="1024px" height="1024px" shape-rendering="geometricPrecision" text-rendering="geometricPrecision" image-rendering="optimizeQuality" fill-rule="nonzero" clip-rule="evenodd" viewBox="0 0 10240 10240" xmlns:xlink="http://www.w3.org/1999/xlink">
	<title>hockey_puck icon</title>
	<desc>hockey_puck icon from the IconExperience.com O-Collection. Copyright by INCORS GmbH (www.incors.com).</desc>
	<path id="curve0" fill="#808080" d="M9222 4106c37,-85 58,-173 58,-266 0,-873 -1816,-1582 -4074,-1600 1904,17 3434,583 3434,1280 0,707 -1576,1280 -3520,1280 -1944,0 -3520,-573 -3520,-1280 0,-697 1530,-1263 3434,-1280 -2258,18 -4074,727 -4074,1600 0,93 21,181 58,266 329,757 2040,1334 4102,1334 2062,0 3773,-577 4102,-1334zm-4016 -1866c-58,0 -114,0 -172,0 -1727,16 -3114,511 -3114,1120 0,619 1433,1120 3200,1120 1767,0 3200,-501 3200,-1120 0,-609 -1387,-1104 -3114,-1120zm4394 1920c0,1060 -2006,1920 -4480,1920 -2474,0 -4480,-860 -4480,-1920l0 2560c0,1060 2006,1920 4480,1920 2474,0 4480,-860 4480,-1920l0 -2560z"/>
</svg>
