<?xml version="1.0" encoding="UTF-8"?>
<!DOCTYPE svg PUBLIC "-//W3C//DTD SVG 1.1//EN" "http://www.w3.org/Graphics/SVG/1.1/DTD/svg11.dtd">
<svg xmlns="http://www.w3.org/2000/svg" xml:space="preserve" width="1024px" height="1024px" shape-rendering="geometricPrecision" text-rendering="geometricPrecision" image-rendering="optimizeQuality" fill-rule="nonzero" clip-rule="evenodd" viewBox="0 0 10240 10240" xmlns:xlink="http://www.w3.org/1999/xlink">
	<title>hole_punch icon</title>
	<desc>hole_punch icon from the IconExperience.com O-Collection. Copyright by INCORS GmbH (www.incors.com).</desc>
	<path id="curve1" fill="#808080" d="M1478 7680l762 0 640 -1280c486,-973 1137,-1370 1786,-1526 463,511 870,1324 1643,1517l2555 639c-119,189 -331,330 -544,330l-2240 0 0 320 2682 0c124,0 231,66 286,177l320 640c51,102 46,214 -14,311 -60,97 -158,152 -272,152l-7924 0c-114,0 -212,-55 -272,-152 -60,-97 -65,-209 -14,-311l320 -640c55,-111 162,-177 286,-177z"/>
	<path id="curve0" fill="#4D82B8" d="M1600 3520c-890,-223 320,-1600 1600,-1280l5120 1280c979,245 1266,1008 1266,1648l0 913c0,541 -329,717 -640,640l-2560 -640c-931,-233 -1295,-1688 -2226,-1921l-2560 -640zm6400 1600c-177,0 -320,143 -320,320 0,177 143,320 320,320 177,0 320,-143 320,-320 0,-177 -143,-320 -320,-320zm-1280 -640c-177,0 -320,143 -320,320 0,177 143,320 320,320 177,0 320,-143 320,-320 0,-177 -143,-320 -320,-320z"/>
</svg>
