<?xml version="1.0" encoding="UTF-8"?>
<!DOCTYPE svg PUBLIC "-//W3C//DTD SVG 1.1//EN" "http://www.w3.org/Graphics/SVG/1.1/DTD/svg11.dtd">
<svg xmlns="http://www.w3.org/2000/svg" xml:space="preserve" width="1024px" height="1024px" shape-rendering="geometricPrecision" text-rendering="geometricPrecision" image-rendering="optimizeQuality" fill-rule="nonzero" clip-rule="evenodd" viewBox="0 0 10240 10240" xmlns:xlink="http://www.w3.org/1999/xlink">
	<title>holmes icon</title>
	<desc>holmes icon from the IconExperience.com O-Collection. Copyright by INCORS GmbH (www.incors.com).</desc>
	<path id="curve3" fill="#EDC87E" d="M2560 4480l1638 546c185,62 320,189 392,370l530 1324 530 -1324c72,-181 207,-308 392,-370l171 -57c216,200 377,576 500,827 155,316 325,632 591,871 222,199 476,313 757,354 166,445 259,934 259,1449 0,810 -1920,1130 -3200,1130 -1280,0 -3200,-320 -3200,-1129 0,-995 345,-1896 905,-2557l-265 -1434z"/>
	<path id="curve2" fill="#808080" d="M9600 5440c0,707 -640,1280 -1280,1280 -1559,0 -1179,-2240 -2560,-2240l0 -320c1600,0 1600,960 1920,960 241,0 320,-324 320,-640l0 0c0,-176 144,-320 320,-320l960 0c176,0 320,144 320,320l0 960z"/>
	<path id="curve1" fill="#EFC1B4" d="M7680 3195c-1,363 -78,707 -216,1020l-190 63c-429,-340 -978,-438 -1514,-438 -176,0 -320,144 -320,320l0 320c0,176 144,320 320,320l5 0c-187,106 -329,269 -412,477l-185 461c-16,0 -32,1 -48,1 -16,0 -32,-1 -48,-1l-185 -461c-107,-269 -313,-463 -587,-554l-1524 -508c-138,-313 -215,-657 -216,-1020 27,3 53,5 81,5l25 0c420,575 1962,640 2454,640 492,0 2034,-65 2454,-640l25 0c28,0 54,-2 81,-5z"/>
	<path id="curve0" fill="#EDC87E" d="M5120 0c353,0 640,143 640,320 0,23 -5,46 -15,68 1057,234 1976,1049 2245,2092 25,99 6,195 -57,276 -63,81 -151,124 -253,124l-320 0c0,353 -1003,640 -2240,640 -1237,0 -2240,-287 -2240,-640l-320 0c-102,0 -190,-43 -253,-124 -63,-81 -82,-177 -57,-276 269,-1043 1188,-1858 2245,-2092 -10,-22 -15,-45 -15,-68 0,-177 287,-320 640,-320z"/>
</svg>
