<?xml version="1.0" encoding="UTF-8"?>
<!DOCTYPE svg PUBLIC "-//W3C//DTD SVG 1.1//EN" "http://www.w3.org/Graphics/SVG/1.1/DTD/svg11.dtd">
<svg xmlns="http://www.w3.org/2000/svg" xml:space="preserve" width="1024px" height="1024px" shape-rendering="geometricPrecision" text-rendering="geometricPrecision" image-rendering="optimizeQuality" fill-rule="nonzero" clip-rule="evenodd" viewBox="0 0 10240 10240" xmlns:xlink="http://www.w3.org/1999/xlink">
	<title>home_water icon</title>
	<desc>home_water icon from the IconExperience.com O-Collection. Copyright by INCORS GmbH (www.incors.com).</desc>
	<path id="curve2" fill="#4D82B8" d="M1760 7680c218,394 639,660 1120,660 481,0 897,-264 1117,-654 218,394 640,654 1123,654 483,0 903,-262 1120,-659 219,393 638,659 1120,659 482,0 902,-266 1120,-660 218,394 638,660 1120,660l0 640c-410,0 -799,-130 -1120,-360 -321,230 -710,360 -1120,360 -408,0 -797,-129 -1117,-358 -321,233 -711,358 -1123,358 -411,0 -805,-124 -1126,-356 -320,228 -707,356 -1114,356 -410,0 -799,-130 -1120,-360 -321,230 -710,360 -1120,360l0 -640c482,0 902,-266 1120,-660z"/>
	<path id="curve1" fill="#808080" d="M8320 6099l0 1303c-49,28 -90,69 -120,123 -169,305 -490,495 -840,495 -111,0 -219,-19 -320,-55l0 -1565 -1920 0 0 1620c-289,0 -560,-124 -741,-340l101 0 0 -1280 -1920 0 0 1280 1053 0c-180,214 -446,340 -733,340 -350,0 -671,-190 -840,-495 -30,-54 -71,-95 -120,-123l0 -1303 3200 -3200 3200 3200z"/>
	<path id="curve0" fill="#808080" d="M866 5873l188 188c124,124 328,124 452,0l3614 -3614 3614 3614c124,124 328,124 452,0l188 -188c124,-124 124,-328 0,-452l-4028 -4028c-124,-124 -328,-124 -452,0l-4028 4028c-124,124 -124,328 0,452z"/>
</svg>
