<?xml version="1.0" encoding="UTF-8"?>
<!DOCTYPE svg PUBLIC "-//W3C//DTD SVG 1.1//EN" "http://www.w3.org/Graphics/SVG/1.1/DTD/svg11.dtd">
<svg xmlns="http://www.w3.org/2000/svg" xml:space="preserve" width="1024px" height="1024px" shape-rendering="geometricPrecision" text-rendering="geometricPrecision" image-rendering="optimizeQuality" fill-rule="nonzero" clip-rule="evenodd" viewBox="0 0 10240 10240" xmlns:xlink="http://www.w3.org/1999/xlink">
	<title>home_fire icon</title>
	<desc>home_fire icon from the IconExperience.com O-Collection. Copyright by INCORS GmbH (www.incors.com).</desc>
	<path id="curve2" fill="#ED9A56" d="M5120 3746c638,433 479,889 390,1364 -230,1234 1363,1558 1169,0 425,433 779,1450 779,2099 0,1076 -779,2381 -2338,2381 -1558,0 -2337,-1305 -2337,-2381 0,-649 212,-1082 637,-1515 -425,866 192,1537 638,1082 425,-432 -426,-865 212,-1731 396,-536 1063,-433 850,-1299zm-66 1660c-1040,903 502,1731 0,2328 -269,320 -996,392 -1215,-257 -419,858 269,1695 1281,1695 1013,0 1488,-628 1404,-1266 -81,711 -1336,847 -1691,495 849,337 1862,-651 1121,-1410 -446,-457 -1063,-826 -900,-1585z"/>
	<path id="curve1" fill="#808080" d="M8320 6080l0 3525 -1934 0c272,-146 519,-344 732,-595 417,-494 660,-1154 660,-1801 0,-709 -371,-1814 -871,-2323 -98,-100 -242,-125 -368,-64 -125,61 -195,189 -178,328 19,153 44,655 -197,689 -94,13 -189,-53 -245,-124 -119,-151 -128,-364 -95,-546 46,-243 104,-472 88,-722 -28,-427 -267,-731 -612,-965 -112,-76 -251,-75 -362,2 -111,77 -161,208 -128,339 26,108 63,282 -16,379 -62,78 -203,159 -287,213 -192,125 -356,253 -494,440 -165,224 -271,455 -301,707 -23,-50 -59,-95 -107,-129 -129,-91 -302,-76 -413,37 -497,506 -729,1023 -729,1739 0,647 242,1307 660,1801 212,251 459,449 732,595l-1935 0 0 -3525 3200 -3200 3200 3200zm-4611 -248c0,1 -1,2 -1,3 -87,177 -145,403 -88,597 15,49 64,160 123,170 28,5 70,-33 87,-50 13,-14 30,-32 32,-52 5,-44 -19,-121 -31,-162 -36,-121 -76,-235 -100,-359 -10,-50 -17,-99 -22,-147z"/>
	<path id="curve0" fill="#808080" d="M866 5853l188 188c124,125 328,125 452,0l3614 -3614 3614 3614c124,125 328,125 452,0l188 -188c124,-124 124,-327 0,-452l-4028 -4028c-124,-124 -328,-124 -452,0l-4028 4028c-124,125 -124,328 0,452z"/>
</svg>
