<?xml version="1.0" encoding="UTF-8"?>
<!DOCTYPE svg PUBLIC "-//W3C//DTD SVG 1.1//EN" "http://www.w3.org/Graphics/SVG/1.1/DTD/svg11.dtd">
<svg xmlns="http://www.w3.org/2000/svg" xml:space="preserve" width="1024px" height="1024px" shape-rendering="geometricPrecision" text-rendering="geometricPrecision" image-rendering="optimizeQuality" fill-rule="nonzero" clip-rule="evenodd" viewBox="0 0 10240 10240" xmlns:xlink="http://www.w3.org/1999/xlink">
	<title>home_lock icon</title>
	<desc>home_lock icon from the IconExperience.com O-Collection. Copyright by INCORS GmbH (www.incors.com).</desc>
	<path id="curve1" fill="#808080" d="M8320 6074l0 3526 -6400 0 0 -3526 3200 -3200 3200 3200zm-3200 -954c-707,0 -1280,573 -1280,1280l0 640 -320 0 0 1920 320 0 2560 0 320 0 0 -1920 -320 0 0 -640c0,-707 -573,-1280 -1280,-1280zm0 2240l0 0c176,0 320,144 320,320l0 640c0,176 -144,320 -320,320l0 0c-176,0 -320,-144 -320,-320l0 -640c0,-176 144,-320 320,-320zm640 -320l-1280 0 0 -640c0,-353 287,-640 640,-640 353,0 640,287 640,640l0 640z"/>
	<path id="curve0" fill="#808080" d="M866 5848l188 188c124,124 328,124 452,0l3614 -3614 3614 3614c124,124 328,124 452,0l188 -188c124,-124 124,-328 0,-452l-4028 -4028c-124,-124 -328,-124 -452,0l-4028 4028c-124,124 -124,328 0,452z"/>
</svg>
