<?xml version="1.0" encoding="UTF-8"?>
<!DOCTYPE svg PUBLIC "-//W3C//DTD SVG 1.1//EN" "http://www.w3.org/Graphics/SVG/1.1/DTD/svg11.dtd">
<svg xmlns="http://www.w3.org/2000/svg" xml:space="preserve" width="1024px" height="1024px" shape-rendering="geometricPrecision" text-rendering="geometricPrecision" image-rendering="optimizeQuality" fill-rule="nonzero" clip-rule="evenodd" viewBox="0 0 10240 10240" xmlns:xlink="http://www.w3.org/1999/xlink">
	<title>home icon</title>
	<desc>home icon from the IconExperience.com O-Collection. Copyright by INCORS GmbH (www.incors.com).</desc>
	<path id="curve1" fill="#808080" d="M8320 6099l0 3501 -1280 0 0 -3200 -1920 0 0 3200 -3200 0 0 -3501 3200 -3200 3200 3200zm-5760 301l0 1280 1920 0 0 -1280 -1920 0z"/>
	<path id="curve0" fill="#ED9A56" d="M866 5873l188 188c124,124 328,124 452,0l3614 -3614 3614 3614c124,124 328,124 452,0l188 -188c124,-124 124,-328 0,-452l-4028 -4028c-124,-124 -328,-124 -452,0l-4028 4028c-124,124 -124,328 0,452z"/>
</svg>
