<?xml version="1.0" encoding="UTF-8"?>
<!DOCTYPE svg PUBLIC "-//W3C//DTD SVG 1.1//EN" "http://www.w3.org/Graphics/SVG/1.1/DTD/svg11.dtd">
<svg xmlns="http://www.w3.org/2000/svg" xml:space="preserve" width="1024px" height="1024px" shape-rendering="geometricPrecision" text-rendering="geometricPrecision" image-rendering="optimizeQuality" fill-rule="nonzero" clip-rule="evenodd" viewBox="0 0 10240 10240" xmlns:xlink="http://www.w3.org/1999/xlink">
	<title>horse icon</title>
	<desc>horse icon from the IconExperience.com O-Collection. Copyright by INCORS GmbH (www.incors.com).</desc>
	<path id="curve0" fill="#B89A7C" d="M4994 7003c-40,196 -84,323 -139,399 -28,49 -37,256 -37,312 26,388 81,777 65,884l-49 321c7,14 9,28 9,44l-10 320c-2,54 -46,97 -100,97l-585 0c7,-28 11,-57 12,-87l10 -320c0,-19 0,-37 -2,-56l47 -232 61 -923c22,-56 69,-132 98,-182l11 -20c27,-68 48,-131 64,-203 21,-96 31,-195 45,-292 4,-28 9,-56 14,-83 168,14 329,22 486,21zm-2505 -3842c-173,75 -348,73 -532,43l-521 222c-88,61 -60,80 -89,166 -40,117 -157,155 -266,179 -240,53 -497,-159 -631,-338 -176,-235 -272,-574 -41,-808 181,-204 362,-406 557,-598 242,-235 441,-685 707,-956l-37 -521c-5,-71 64,-124 131,-102l654 217c55,18 88,28 147,33 779,148 1319,447 1850,1269 677,1032 1117,1018 1892,1018 396,0 941,-105 1370,-105 1280,0 2240,960 2240,2240 0,553 -120,773 -159,1043 -52,354 -28,708 -61,1147 -15,197 -179,417 -241,607 -50,153 -213,935 -179,1043l0 320c0,55 -45,100 -100,100l-750 0c-57,0 -102,-47 -100,-104l5 -145c1,-83 19,-163 52,-239 41,-96 101,-180 162,-264 115,-161 150,-202 176,-401l79 -841c-4,-70 -138,-610 -153,-651 -22,-62 -92,-147 -185,-244 -180,-186 -413,-407 -609,-583 -184,-165 -370,-332 -478,-537 -40,-78 -137,-108 -215,-68 -78,41 -108,137 -67,215 96,184 229,331 373,468 -908,342 -1506,787 -2896,680 30,-111 68,-218 105,-322 79,-223 152,-430 146,-639 -2,-88 -76,-158 -164,-155 -88,2 -157,75 -155,163 5,150 -59,330 -128,524 -62,176 -128,363 -161,569 -65,283 -48,433 -120,614 -29,49 -138,233 -137,289l-60 919c-19,93 -57,236 -60,325l0 330c-2,54 -46,97 -100,97l-760 0c-55,0 -100,-45 -100,-100l0 -167c0,-162 62,-287 158,-413 25,-33 117,-138 117,-179l102 -963 -177 -868c-5,-464 -220,-345 -220,-1110 0,-392 106,-791 66,-1184 -42,-421 -31,-824 -437,-1235zm5436 4277c23,-306 -19,-671 -191,-1073 -15,-36 -8,-78 18,-106 3,-3 5,-5 7,-7 163,149 324,303 476,461 31,32 92,95 117,136 47,160 103,380 130,543l-75 799c-18,131 -37,137 -118,250 -75,104 -145,206 -196,325 -49,114 -76,234 -78,358l-5 140c-1,40 3,79 12,115l-752 1c-55,0 -100,-45 -100,-100l0 -177c0,-346 179,-516 356,-683 267,-253 373,-622 399,-982z"/>
</svg>
