<?xml version="1.0" encoding="UTF-8"?>
<!DOCTYPE svg PUBLIC "-//W3C//DTD SVG 1.1//EN" "http://www.w3.org/Graphics/SVG/1.1/DTD/svg11.dtd">
<svg xmlns="http://www.w3.org/2000/svg" xml:space="preserve" width="1024px" height="1024px" shape-rendering="geometricPrecision" text-rendering="geometricPrecision" image-rendering="optimizeQuality" fill-rule="nonzero" clip-rule="evenodd" viewBox="0 0 10240 10240" xmlns:xlink="http://www.w3.org/1999/xlink">
	<title>hospital icon</title>
	<desc>hospital icon from the IconExperience.com O-Collection. Copyright by INCORS GmbH (www.incors.com).</desc>
	<path id="curve4" fill="#E68497" d="M4480,1280 5760,1280 5760,2560 7040,2560 7040,3840 5760,3840 5760,5120 4480,5120 4480,3840 3200,3840 3200,2560 4480,2560z"/>
	<path id="curve3" fill="#808080" d="M9600 8970l-1600 0 0 -6410 960 0c353,0 640,287 640,640l0 5770z"/>
	<path id="curve2" fill="#808080" d="M4480 8970l-1920 0 0 -8010c0,-176 144,-320 320,-320l4480 0c176,0 320,144 320,320l0 8010 -1920 0 0 -1930 -1280 0 0 1930zm1600 -6730l0 -960c0,-176 -144,-320 -320,-320l-1280 0c-176,0 -320,144 -320,320l0 960 -960 0c-176,0 -320,144 -320,320l0 1280c0,176 144,320 320,320l960 0 0 960c0,176 144,320 320,320l1280 0c176,0 320,-144 320,-320l0 -960 960 0c176,0 320,-144 320,-320l0 -1280c0,-176 -144,-320 -320,-320l-960 0z"/>
	<path id="curve1" fill="#808080" d="M2249 8965l-5 5 -1595 0 -9 -5770c-1,-353 287,-640 640,-640l960 0 9 6405z"/>
	<path id="curve0" fill="#808080" d="M0,8960 10240,8960 10240,9600 0,9600z"/>
</svg>
