<?xml version="1.0" encoding="UTF-8"?>
<!DOCTYPE svg PUBLIC "-//W3C//DTD SVG 1.1//EN" "http://www.w3.org/Graphics/SVG/1.1/DTD/svg11.dtd">
<svg xmlns="http://www.w3.org/2000/svg" xml:space="preserve" width="1024px" height="1024px" shape-rendering="geometricPrecision" text-rendering="geometricPrecision" image-rendering="optimizeQuality" fill-rule="nonzero" clip-rule="evenodd" viewBox="0 0 10240 10240" xmlns:xlink="http://www.w3.org/1999/xlink">
	<title>hot_air_balloon icon</title>
	<desc>hot_air_balloon icon from the IconExperience.com O-Collection. Copyright by INCORS GmbH (www.incors.com).</desc>
	<path id="curve1" fill="#808080" d="M4177 8320l1886 0 320 -960 337 0 -320 960 0 0 0 960c0,176 -144,320 -320,320l-1920 0c-176,0 -320,-144 -320,-320l0 -960 -320 -960 337 0 320 960z"/>
	<path id="curve0" fill="#4D82B8" d="M6252 430c1252,254 2388,973 2388,2450 0,1509 -853,2448 -1756,4160l-806 0c494,-1799 962,-2782 962,-4364 0,-1138 -337,-1846 -788,-2246zm-505 6610l-1254 0c-133,-489 -280,-971 -428,-1456 -303,-992 -545,-1856 -545,-2908 0,-1014 361,-2356 1600,-2356 1239,0 1600,1342 1600,2356 0,1052 -242,1916 -545,2908 -148,485 -295,967 -428,1456zm-1585 0l-806 0c-903,-1712 -1756,-2651 -1756,-4160 0,-1477 1136,-2196 2388,-2450 -451,400 -788,1108 -788,2246 0,1582 468,2565 962,4364z"/>
</svg>
