<?xml version="1.0" encoding="UTF-8"?>
<!DOCTYPE svg PUBLIC "-//W3C//DTD SVG 1.1//EN" "http://www.w3.org/Graphics/SVG/1.1/DTD/svg11.dtd">
<svg xmlns="http://www.w3.org/2000/svg" xml:space="preserve" width="1024px" height="1024px" shape-rendering="geometricPrecision" text-rendering="geometricPrecision" image-rendering="optimizeQuality" fill-rule="nonzero" clip-rule="evenodd" viewBox="0 0 10240 10240" xmlns:xlink="http://www.w3.org/1999/xlink">
	<title>hotel icon</title>
	<desc>hotel icon from the IconExperience.com O-Collection. Copyright by INCORS GmbH (www.incors.com).</desc>
	<path id="curve2" fill="#808080" d="M640,8960 9600,8960 9600,9600 640,9600z"/>
	<path id="curve1" fill="#EDC87E" d="M1600 2560l7040 0c353,0 640,288 640,640l0 5440 -2560 0 0 -2880 -1280 0 0 2880 -640 0 0 -2880 -1280 0 0 2880 -2560 0 0 -5440c0,-353 288,-640 640,-640zm0 3200l0 1920 1280 0 0 -1920 -1280 0zm0 -2560l0 1920 1280 0 0 -1920 -1280 0zm1920 0l0 1920 1280 0 0 -1920 -1280 0zm1920 0l0 1920 1280 0 0 -1920 -1280 0zm1920 0l0 1920 1280 0 0 -1920 -1280 0zm0 2560l0 1920 1280 0 0 -1920 -1280 0z"/>
	<path id="curve0" fill="#4D82B8" d="M2240 640l320 0 0 1600 -320 0 0 -640 -640 0 0 640 -320 0 0 -1600 320 0 0 640 640 0 0 -640zm1280 1600c353,0 640,-287 640,-640l0 -320c0,-353 -287,-640 -640,-640 -353,0 -640,287 -640,640l0 320c0,353 287,640 640,640zm320 -640c0,177 -143,320 -320,320 -177,0 -320,-143 -320,-320l0 -320c0,-177 143,-320 320,-320 177,0 320,143 320,320l0 320zm3840 -960l320 0 0 1280 960 0 0 320 -1280 0 0 -1600zm-2800 1600l0 -1280 -400 0 0 -320 1120 0 0 320 -400 0 0 1280 -320 0zm2480 -1600l0 320 -960 0 0 320 640 0 0 320 -640 0 0 320 960 0 0 320c-400,0 -800,0 -1200,0 -44,0 -80,-36 -80,-80l0 -1440c0,-44 36,-80 80,-80 400,0 800,0 1200,0z"/>
</svg>
