<?xml version="1.0" encoding="UTF-8"?>
<!DOCTYPE svg PUBLIC "-//W3C//DTD SVG 1.1//EN" "http://www.w3.org/Graphics/SVG/1.1/DTD/svg11.dtd">
<svg xmlns="http://www.w3.org/2000/svg" xml:space="preserve" width="1024px" height="1024px" shape-rendering="geometricPrecision" text-rendering="geometricPrecision" image-rendering="optimizeQuality" fill-rule="nonzero" clip-rule="evenodd" viewBox="0 0 10240 10240" xmlns:xlink="http://www.w3.org/1999/xlink">
	<title>hourglass icon</title>
	<desc>hourglass icon from the IconExperience.com O-Collection. Copyright by INCORS GmbH (www.incors.com).</desc>
	<path id="curve2" fill="#EDC87E" d="M5867 6684c689,242 1173,676 1173,1316l-3840 -2c0,-638 486,-1072 1173,-1314 260,-92 427,-328 427,-604l0 -1068c0,-464 -238,-877 -639,-1109 -298,-172 -538,-416 -704,-703l3326 0c-166,287 -406,531 -704,703 -401,232 -639,645 -639,1109l0 1068c0,276 167,512 427,604z"/>
	<path id="curve1" fill="#808080" d="M6400 5782c765,443 1280,1270 1280,2218l-320 0c0,-803 -427,-1540 -1121,-1941 -302,-174 -479,-481 -479,-831l0 -216c0,-350 177,-657 479,-831 694,-401 1121,-1138 1121,-1941l320 0c0,948 -515,1775 -1280,2218 -204,117 -320,319 -320,554l0 216c0,235 116,437 320,554zm-3840 2218c0,-948 515,-1775 1280,-2218 204,-117 320,-319 320,-554l0 -216c0,-235 -116,-437 -320,-554 -765,-443 -1280,-1270 -1280,-2218l320 0c0,803 428,1540 1121,1940 302,175 479,482 479,832l0 216c0,350 -177,657 -479,831 -693,401 -1121,1138 -1121,1941l-320 0z"/>
	<path id="curve0" fill="#808080" d="M2240 8320l5760 0c176,0 320,144 320,320l0 640c0,176 -144,320 -320,320l-5760 0c-176,0 -320,-144 -320,-320l0 -640c0,-176 144,-320 320,-320zm0 -7680l5760 0c176,0 320,144 320,320l0 640c0,176 -144,320 -320,320l-5760 0c-176,0 -320,-144 -320,-320l0 -640c0,-176 144,-320 320,-320z"/>
</svg>
