<?xml version="1.0" encoding="UTF-8"?>
<!DOCTYPE svg PUBLIC "-//W3C//DTD SVG 1.1//EN" "http://www.w3.org/Graphics/SVG/1.1/DTD/svg11.dtd">
<svg xmlns="http://www.w3.org/2000/svg" xml:space="preserve" width="1024px" height="1024px" shape-rendering="geometricPrecision" text-rendering="geometricPrecision" image-rendering="optimizeQuality" fill-rule="nonzero" clip-rule="evenodd" viewBox="0 0 10240 10240" xmlns:xlink="http://www.w3.org/1999/xlink">
	<title>houses icon</title>
	<desc>houses icon from the IconExperience.com O-Collection. Copyright by INCORS GmbH (www.incors.com).</desc>
	<path id="curve5" fill="#808080" d="M8000 7252c110,33 234,7 320,-79l453 -453c124,-125 124,-328 0,-453l-2268 -2267 535 -535 2240 2240 0 2615 -1280 0 0 -1068z"/>
	<path id="curve4" fill="#E68497" d="M5826 3321l988 -987c125,-125 327,-125 452,0l2880 2880 -452 452 -2654 -2654 -761 762 -453 -453zm-452 1358l-988 987 -253 -253 987 -988 254 254z"/>
	<path id="curve3" fill="#808080" d="M2240 7680l-1280 0 0 -2576 2279 -2279 835 836 -2607 2606c-124,125 -124,328 0,453l453 453c86,86 210,112 320,79l0 428z"/>
	<path id="curve2" fill="#E68497" d="M133 4574l2880 -2880c124,-125 327,-125 452,0l1296 1296c-33,22 -64,48 -94,77l-366 367 -1062 -1062 -2654 2654 -452 -452z"/>
	<path id="curve1" fill="#808080" d="M7676 6981l4 2619 -960 0 0 -2560 -1600 0 0 2560 -2551 0 -4 -2620 2555 -2555 2556 2556zm-4476 59l0 960 1280 0 0 -960 -1280 0z"/>
	<path id="curve0" fill="#E68497" d="M1694 6494l3200 -3200c125,-125 327,-125 452,0l3200 3200 -452 452 -2974 -2974 -2974 2974 -452 -452z"/>
</svg>
