<?xml version="1.0" encoding="UTF-8"?>
<!DOCTYPE svg PUBLIC "-//W3C//DTD SVG 1.1//EN" "http://www.w3.org/Graphics/SVG/1.1/DTD/svg11.dtd">
<svg xmlns="http://www.w3.org/2000/svg" xml:space="preserve" width="1024px" height="1024px" shape-rendering="geometricPrecision" text-rendering="geometricPrecision" image-rendering="optimizeQuality" fill-rule="nonzero" clip-rule="evenodd" viewBox="0 0 10240 10240" xmlns:xlink="http://www.w3.org/1999/xlink">
	<title>house_framework icon</title>
	<desc>house_framework icon from the IconExperience.com O-Collection. Copyright by INCORS GmbH (www.incors.com).</desc>
	<path id="curve0" fill="#B89A7C" d="M3655 3260l3186 -2549c122,-97 292,-91 406,7l2259 1936c63,62 94,144 94,226l0 3200c0,89 -36,169 -94,227l-2857 3174c-59,73 -148,119 -249,119l-5120 0c-177,0 -320,-143 -320,-320l0 -3520c0,-106 51,-199 130,-257l2540 -2223c8,-7 17,-14 25,-20zm2730 2063l507 -507 -1994 -1734 -562 449 2049 1792zm335 3124l320 -356 0 -2518 -320 319 0 2555zm-2880 -4503l-2240 1960 0 3056 960 0 0 -2240c0,-177 143,-320 320,-320l1920 0c177,0 320,143 320,320l0 2240 960 0 0 -3056 -2240 -1960zm-640 5016l1280 0 0 -1920 -1280 0 0 1920zm2204 -6284l1940 1687 507 -507 -1886 -1628 -561 448zm1068 -854l1831 1582 507 -507 -1778 -1523 -560 448zm2488 1831l-320 319 0 2341 320 -355 0 -2305zm-960 3372l0 -2412 -320 319 0 2448 320 -355z"/>
</svg>
