<?xml version="1.0" encoding="UTF-8"?>
<!DOCTYPE svg PUBLIC "-//W3C//DTD SVG 1.1//EN" "http://www.w3.org/Graphics/SVG/1.1/DTD/svg11.dtd">
<svg xmlns="http://www.w3.org/2000/svg" xml:space="preserve" width="1024px" height="1024px" shape-rendering="geometricPrecision" text-rendering="geometricPrecision" image-rendering="optimizeQuality" fill-rule="nonzero" clip-rule="evenodd" viewBox="0 0 10240 10240" xmlns:xlink="http://www.w3.org/1999/xlink">
	<title>html_tag icon</title>
	<desc>html_tag icon from the IconExperience.com O-Collection. Copyright by INCORS GmbH (www.incors.com).</desc>
	<path id="curve1" fill="#808080" d="M4574 4066l-1054 1054 1054 1054 -453 452 -1393 -1393c-62,-62 -62,-164 0,-226l1393 -1393 453 452zm1545 -452l1393 1393c62,62 62,164 0,226l-1393 1393 -453 -452 1054 -1054 -1054 -1054 453 -452z"/>
	<path id="curve0" fill="#808080" d="M1280 2560l7680 0c353,0 640,288 640,640l0 3840c0,352 -288,640 -640,640l-7680 0c-352,0 -640,-287 -640,-640l0 -3840c0,-353 287,-640 640,-640zm0 640l0 3840 7680 0 0 -3840 -7680 0z"/>
</svg>
