<?xml version="1.0" encoding="UTF-8"?>
<!DOCTYPE svg PUBLIC "-//W3C//DTD SVG 1.1//EN" "http://www.w3.org/Graphics/SVG/1.1/DTD/svg11.dtd">
<svg xmlns="http://www.w3.org/2000/svg" xml:space="preserve" width="1024px" height="1024px" shape-rendering="geometricPrecision" text-rendering="geometricPrecision" image-rendering="optimizeQuality" fill-rule="nonzero" clip-rule="evenodd" viewBox="0 0 10240 10240" xmlns:xlink="http://www.w3.org/1999/xlink">
	<title>i-beams icon</title>
	<desc>i-beams icon from the IconExperience.com O-Collection. Copyright by INCORS GmbH (www.incors.com).</desc>
	<path id="curve2" fill="#808080" d="M2240 5440l0 960 -960 0 960 -960zm2240 3200l0 -960 -1600 0 0 960 1600 0zm-3520 -1919l2560 0 0 638 -960 0 0 1602 960 0 0 638 -2560 0 0 -638 960 0 0 -1602 -960 0 0 -638z"/>
	<path id="curve1" fill="#808080" d="M3840 6721l2560 0 0 638 -960 0 0 1602 960 0 0 638 -2560 0 0 -638 960 0 0 -1602 -960 0 0 -638zm5440 -2241l0 -640 -1280 0 -2560 2560 1280 0 0 640 2560 -2560zm0 2240l0 -640 0 0 0 0 -960 0 0 -320 -1920 1920 -640 0 0 960 960 0 0 640 2560 -2560z"/>
	<path id="curve0" fill="#808080" d="M8000 3520l0 -640 -960 0 0 -320 -1920 1920 -640 0 0 960 960 0 0 640 2560 -2560zm-2560 -2880l2560 0 0 640 -2560 2560 0 -640 -2560 0 2560 -2560zm-2880 2881l2560 0 0 638 -960 0 0 1602 960 0 0 638 -2560 0 0 -638 960 0 0 -1602 -960 0 0 -638z"/>
</svg>
