<?xml version="1.0" encoding="UTF-8"?>
<!DOCTYPE svg PUBLIC "-//W3C//DTD SVG 1.1//EN" "http://www.w3.org/Graphics/SVG/1.1/DTD/svg11.dtd">
<svg xmlns="http://www.w3.org/2000/svg" xml:space="preserve" width="1024px" height="1024px" shape-rendering="geometricPrecision" text-rendering="geometricPrecision" image-rendering="optimizeQuality" fill-rule="nonzero" clip-rule="evenodd" viewBox="0 0 10240 10240" xmlns:xlink="http://www.w3.org/1999/xlink">
	<title>i-beam icon</title>
	<desc>i-beam icon from the IconExperience.com O-Collection. Copyright by INCORS GmbH (www.incors.com).</desc>
	<path id="curve0" fill="#808080" d="M2560 7360l0 1600 1280 0 0 640 -3200 0 0 -640 1280 0 0 -1600 -1280 0 0 -640 3200 0 0 640 -1280 0zm6720 -5440l0 -640 -3200 0 -5120 5120 3200 0 0 640 5120 -5120zm0 2240l0 -640 -1280 0 -4160 4160 -960 0 0 960 1280 0 0 640 5120 -5120z"/>
</svg>
