<?xml version="1.0" encoding="UTF-8"?>
<!DOCTYPE svg PUBLIC "-//W3C//DTD SVG 1.1//EN" "http://www.w3.org/Graphics/SVG/1.1/DTD/svg11.dtd">
<svg xmlns="http://www.w3.org/2000/svg" xml:space="preserve" width="1024px" height="1024px" shape-rendering="geometricPrecision" text-rendering="geometricPrecision" image-rendering="optimizeQuality" fill-rule="nonzero" clip-rule="evenodd" viewBox="0 0 10240 10240" xmlns:xlink="http://www.w3.org/1999/xlink">
	<title>ice_cream icon</title>
	<desc>ice_cream icon from the IconExperience.com O-Collection. Copyright by INCORS GmbH (www.incors.com).</desc>
	<path id="curve1" fill="#808080" d="M4480 8000l1280 0 0 1280c0,847 -1280,847 -1280,0l0 -1280z"/>
	<path id="curve0" fill="#EDC87E" d="M5120 640c1414,0 2560,1146 2560,2560l0 3200c0,705 -575,1280 -1280,1280l-2560 0c-705,0 -1280,-575 -1280,-1280l0 -3200c0,-1414 1146,-2560 2560,-2560zm-1920 2560l0 3200c0,1 0,2 0,4 1,175 144,318 320,318 176,0 320,-144 320,-320 0,-1067 0,-2135 0,-3202 0,-707 573,-1280 1280,-1280 19,0 37,0 56,1 153,7 287,-93 324,-242l0 0c24,-96 6,-189 -54,-269 -59,-80 -143,-124 -242,-128 -28,-1 -56,-2 -84,-2 -1060,0 -1920,860 -1920,1920z"/>
</svg>
