<?xml version="1.0" encoding="UTF-8"?>
<!DOCTYPE svg PUBLIC "-//W3C//DTD SVG 1.1//EN" "http://www.w3.org/Graphics/SVG/1.1/DTD/svg11.dtd">
<svg xmlns="http://www.w3.org/2000/svg" xml:space="preserve" width="1024px" height="1024px" shape-rendering="geometricPrecision" text-rendering="geometricPrecision" image-rendering="optimizeQuality" fill-rule="nonzero" clip-rule="evenodd" viewBox="0 0 10240 10240" xmlns:xlink="http://www.w3.org/1999/xlink">
	<title>ice_cream2 icon</title>
	<desc>ice_cream2 icon from the IconExperience.com O-Collection. Copyright by INCORS GmbH (www.incors.com).</desc>
	<path id="curve3" fill="#EDC87E" d="M5120 5271c340,304 788,489 1280,489 283,0 551,-61 793,-171l-1634 3722c-79,180 -245,289 -439,289 -194,0 -360,-109 -439,-289l-1634 -3722c242,110 510,171 793,171 492,0 940,-185 1280,-489z"/>
	<path id="curve2" fill="#E68497" d="M6400 2240c884,0 1600,716 1600,1600 0,884 -716,1600 -1600,1600 -884,0 -1600,-716 -1600,-1600 0,-884 716,-1600 1600,-1600zm0 320c-707,0 -1280,573 -1280,1280 0,53 3,106 10,158 13,106 71,192 166,243 94,50 198,52 294,4l0 0c124,-62 192,-189 175,-326 -3,-26 -5,-52 -5,-79 0,-353 287,-640 640,-640 27,0 53,2 79,5 137,17 264,-51 326,-175l0 0c48,-96 46,-200 -4,-294 -51,-95 -137,-153 -243,-166 -52,-7 -105,-10 -158,-10z"/>
	<path id="curve1" fill="#E68497" d="M4492 4055c41,370 187,707 408,983 -282,250 -653,402 -1060,402 -884,0 -1600,-716 -1600,-1600 0,-658 397,-1223 965,-1469 7,113 25,223 51,330 -413,212 -696,643 -696,1139 0,53 3,106 10,158 13,106 71,192 166,243 95,50 198,52 294,4l0 0c124,-62 192,-189 175,-326 -3,-26 -5,-52 -5,-79 0,-234 125,-438 312,-550 231,353 575,625 980,765z"/>
	<path id="curve0" fill="#E68497" d="M5120 640c782,0 1433,561 1572,1302 -95,-14 -193,-22 -292,-22 -1016,0 -1848,790 -1915,1789 -568,-246 -965,-811 -965,-1469 0,-884 716,-1600 1600,-1600zm0 320c-707,0 -1280,573 -1280,1280 0,53 3,106 10,158 13,106 71,192 166,243 94,50 198,52 294,4l0 0c124,-62 192,-189 175,-326 -3,-26 -5,-52 -5,-79 0,-353 287,-640 640,-640 27,0 53,2 79,5 137,17 264,-51 326,-175l0 0c48,-96 46,-200 -4,-294 -51,-95 -137,-153 -243,-166 -52,-7 -105,-10 -158,-10z"/>
</svg>
