<?xml version="1.0" encoding="UTF-8"?>
<!DOCTYPE svg PUBLIC "-//W3C//DTD SVG 1.1//EN" "http://www.w3.org/Graphics/SVG/1.1/DTD/svg11.dtd">
<svg xmlns="http://www.w3.org/2000/svg" xml:space="preserve" width="1024px" height="1024px" shape-rendering="geometricPrecision" text-rendering="geometricPrecision" image-rendering="optimizeQuality" fill-rule="nonzero" clip-rule="evenodd" viewBox="0 0 10240 10240" xmlns:xlink="http://www.w3.org/1999/xlink">
	<title>icecube icon</title>
	<desc>icecube icon from the IconExperience.com O-Collection. Copyright by INCORS GmbH (www.incors.com).</desc>
	<path id="curve1" fill="#4D82B8" d="M5120 3840c-177,0 -320,-143 -320,-320 0,-177 143,-320 320,-320l1148 0 546 -546c125,-125 327,-125 452,0 125,125 125,327 0,452l-546 546 0 1148c0,177 -143,320 -320,320 -177,0 -320,-143 -320,-320l0 -960 -960 0z"/>
	<path id="curve0" fill="#4D82B8" d="M8623 5574c477,12 1109,48 1109,378 0,275 -965,251 -937,841 15,304 57,293 -389,696 -225,204 513,402 854,486 590,144 833,424 528,700 -306,276 -1037,410 -1634,299 -361,-67 -579,-319 -884,-525 -568,-384 -1514,-192 -1184,220 603,752 -520,933 -1088,933 -757,0 -1704,-384 -1136,-769 919,-621 -189,-960 -1246,-559 -401,152 -1037,410 -1634,299 -598,-110 -834,-424 -528,-700 381,-345 1379,-456 2151,-580 -155,-158 -269,-356 -325,-576 -208,8 -421,0 -619,-29 -633,-92 -883,-351 -560,-580 227,-160 674,-262 1139,-278l0 -2232c0,-346 130,-661 375,-905l1038 -1038c244,-245 559,-375 905,-375l2802 0c705,0 1280,575 1280,1280l0 2802c0,72 -6,143 -17,212zm-1263 -3654l-2802 0c-183,0 -324,58 -453,187l-1038 1038c-129,129 -187,270 -187,453l0 2802c0,352 288,640 640,640l2802 0c183,0 324,-58 453,-187l1038 -1038c129,-129 187,-270 187,-453l0 -2802c0,-352 -288,-640 -640,-640z"/>
</svg>
