<?xml version="1.0" encoding="UTF-8"?>
<!DOCTYPE svg PUBLIC "-//W3C//DTD SVG 1.1//EN" "http://www.w3.org/Graphics/SVG/1.1/DTD/svg11.dtd">
<svg xmlns="http://www.w3.org/2000/svg" xml:space="preserve" width="1024px" height="1024px" shape-rendering="geometricPrecision" text-rendering="geometricPrecision" image-rendering="optimizeQuality" fill-rule="nonzero" clip-rule="evenodd" viewBox="0 0 10240 10240" xmlns:xlink="http://www.w3.org/1999/xlink">
	<title>id_cards icon</title>
	<desc>id_cards icon from the IconExperience.com O-Collection. Copyright by INCORS GmbH (www.incors.com).</desc>
	<path id="curve5" fill="#808080" d="M7360 5040c139,87 304,137 480,137 178,0 345,-51 485,-140 303,226 481,318 517,723l-1482 0 0 -720z"/>
	<path id="curve4" fill="#808080" d="M7840 3553c395,0 716,321 716,716 0,395 -321,715 -716,715 -185,0 -353,-70 -480,-185l0 -319c0,-196 -59,-378 -160,-530 117,-235 360,-397 640,-397z"/>
	<path id="curve3" fill="#4D82B8" d="M3840 1280l5120 0c353,0 640,288 640,640l0 3840c0,352 -288,640 -640,640l-1600 0 0 -640 1600 0 0 -2560 -2240 0 0 375c-100,-36 -208,-55 -320,-55l-320 0 0 -320 -2240 0 0 320 -640 0 0 -1600c0,-353 288,-640 640,-640zm0 640l0 640 5120 0 0 -640 -5120 0z"/>
	<path id="curve2" fill="#808080" d="M4278 8320c36,-405 215,-497 517,-723 140,89 307,140 485,140 178,0 345,-51 485,-140 303,226 481,318 517,723l-2004 0z"/>
	<path id="curve1" fill="#808080" d="M5280 6113c395,0 716,321 716,716 0,395 -321,715 -716,715 -395,0 -715,-320 -715,-715 0,-395 320,-716 715,-716z"/>
	<path id="curve0" fill="#4D82B8" d="M1280 3840l5120 0c353,0 640,288 640,640l0 3840c0,352 -288,640 -640,640l-5120 0c-352,0 -640,-288 -640,-640l0 -3840c0,-353 287,-640 640,-640zm0 2560l0 320 1280 0 0 -320 -1280 0zm0 -640l0 320 2240 0 0 -320 -2240 0zm0 -1280l0 640 5120 0 0 -640 -5120 0zm2880 1280l0 2560 2240 0 0 -2560 -2240 0z"/>
</svg>
