<?xml version="1.0" encoding="UTF-8"?>
<!DOCTYPE svg PUBLIC "-//W3C//DTD SVG 1.1//EN" "http://www.w3.org/Graphics/SVG/1.1/DTD/svg11.dtd">
<svg xmlns="http://www.w3.org/2000/svg" xml:space="preserve" width="1024px" height="1024px" shape-rendering="geometricPrecision" text-rendering="geometricPrecision" image-rendering="optimizeQuality" fill-rule="nonzero" clip-rule="evenodd" viewBox="0 0 10240 10240" xmlns:xlink="http://www.w3.org/1999/xlink">
	<title>id_card icon</title>
	<desc>id_card icon from the IconExperience.com O-Collection. Copyright by INCORS GmbH (www.incors.com).</desc>
	<path id="curve2" fill="#808080" d="M5998 8000c45,-498 248,-648 590,-899 215,163 482,259 772,259 290,0 557,-96 772,-259 342,251 545,401 590,899l-2724 0z"/>
	<path id="curve1" fill="#808080" d="M7360 5120c530,0 960,430 960,960 0,530 -430,960 -960,960 -530,0 -960,-430 -960,-960 0,-530 430,-960 960,-960z"/>
	<path id="curve0" fill="#4D82B8" d="M1280 1920l7680 0c353,0 640,288 640,640l0 5760c0,352 -288,640 -640,640l-7680 0c-352,0 -640,-288 -640,-640l0 -5760c0,-353 288,-640 640,-640zm4480 2560l0 3840 3200 0 0 -3840 -3200 0zm-4480 1280l0 640 1920 0 0 -640 -1920 0zm0 -1280l0 640 3200 0 0 -640 -3200 0zm0 -1920l0 1280 7680 0 0 -1280 -7680 0z"/>
</svg>
