<?xml version="1.0" encoding="UTF-8"?>
<!DOCTYPE svg PUBLIC "-//W3C//DTD SVG 1.1//EN" "http://www.w3.org/Graphics/SVG/1.1/DTD/svg11.dtd">
<svg xmlns="http://www.w3.org/2000/svg" xml:space="preserve" width="1024px" height="1024px" shape-rendering="geometricPrecision" text-rendering="geometricPrecision" image-rendering="optimizeQuality" fill-rule="nonzero" clip-rule="evenodd" viewBox="0 0 10240 10240" xmlns:xlink="http://www.w3.org/1999/xlink">
	<title>igloo icon</title>
	<desc>igloo icon from the IconExperience.com O-Collection. Copyright by INCORS GmbH (www.incors.com).</desc>
	<path id="curve1" fill="#808080" d="M3520 8960l3200 0 0 -1280c0,-884 -716,-1600 -1600,-1600 -884,0 -1600,716 -1600,1600l0 1280z"/>
	<path id="curve0" fill="#4D82B8" d="M5120 1920c952,0 1834,297 2560,803l0 477 -2560 0 0 -1280zm2880 1049c88,73 173,151 255,231l-255 0 0 -231zm551 551c151,179 288,370 409,571l0 709 -8025 0c179,-470 436,-902 754,-1280l1511 0 0 1280 320 0 0 -1280 2560 0 0 1280 320 0 0 -1280 2151 0zm863 1600c121,406 186,835 186,1280l-1600 0 0 -1280 1414 0zm186 1600l0 1280 -320 0 0 -1280 320 0zm0 1600l0 640 -1600 0 0 -640 1600 0zm-1920 640l-320 0 0 -640 320 0 0 640zm-4800 0l-640 0 0 -640 640 0 0 640zm-960 0l-1280 0 0 -640 1280 0 0 640zm-1280 -960l0 -1280 2456 0c-139,291 -216,616 -216,960l0 0 0 320 -2240 0zm0 -1600c0,-445 65,-874 186,-1280l1094 0 0 1280 -1280 0zm1690 -3505c688,-548 1540,-898 2470,-963l0 1268 -2470 0 0 -305zm5030 5105l1600 0 0 -1280 -1816 0c139,291 216,616 216,960l0 320zm-2240 -2560c761,0 1434,380 1838,960l722 0 0 -1280 -2560 0 0 320zm-1838 960c347,-497 890,-847 1518,-937l0 -343 -2560 0 0 1280 1042 0z"/>
</svg>
