<?xml version="1.0" encoding="UTF-8"?>
<!DOCTYPE svg PUBLIC "-//W3C//DTD SVG 1.1//EN" "http://www.w3.org/Graphics/SVG/1.1/DTD/svg11.dtd">
<svg xmlns="http://www.w3.org/2000/svg" xml:space="preserve" width="1024px" height="1024px" shape-rendering="geometricPrecision" text-rendering="geometricPrecision" image-rendering="optimizeQuality" fill-rule="nonzero" clip-rule="evenodd" viewBox="0 0 10240 10240" xmlns:xlink="http://www.w3.org/1999/xlink">
	<title>inbox icon</title>
	<desc>inbox icon from the IconExperience.com O-Collection. Copyright by INCORS GmbH (www.incors.com).</desc>
	<path id="curve1" fill="#EDC87E" d="M640 5760l640 0c248,0 461,132 572,354l607 1212c111,222 324,354 572,354l4178 0c248,0 461,-132 572,-354l607 -1212c111,-222 324,-354 572,-354l640 0 0 3520c0,176 -144,320 -320,320l-8320 0c-176,0 -320,-144 -320,-320l0 -3520z"/>
	<path id="curve0" fill="#808080" d="M7887 6400l-160 320 -5214 0 -160 -320 5534 0zm-320 640l-72 143c-57,114 -159,177 -286,177l-4178 0c-127,0 -229,-63 -286,-177l-72 -143 4894 0z"/>
</svg>
