<?xml version="1.0" encoding="UTF-8"?>
<!DOCTYPE svg PUBLIC "-//W3C//DTD SVG 1.1//EN" "http://www.w3.org/Graphics/SVG/1.1/DTD/svg11.dtd">
<svg xmlns="http://www.w3.org/2000/svg" xml:space="preserve" width="1024px" height="1024px" shape-rendering="geometricPrecision" text-rendering="geometricPrecision" image-rendering="optimizeQuality" fill-rule="nonzero" clip-rule="evenodd" viewBox="0 0 10240 10240" xmlns:xlink="http://www.w3.org/1999/xlink">
	<title>indent_decrease icon</title>
	<desc>indent_decrease icon from the IconExperience.com O-Collection. Copyright by INCORS GmbH (www.incors.com).</desc>
	<path id="curve2" fill="#808080" d="M5120 3200l3840 0 0 640 -3840 0 0 -640zm0 1280l3840 0 0 640 -3840 0 0 -640zm0 1281l2743 0 0 640 -2743 0 0 -640z"/>
	<path id="curve1" fill="#4D82B8" d="M1919 6220l-1186 -1186c-124,-125 -124,-328 0,-453l1186 -1186c125,-124 277,-195 453,-195l839 1c65,0 122,37 148,98 25,61 12,128 -35,175l-687 685 1684 5c87,1 159,73 159,160l0 956c0,88 -72,160 -160,160l-1683 -1 687 688c46,47 60,114 35,175 -26,61 -82,98 -148,99l-839 -1c-176,1 -328,-55 -453,-180z"/>
	<path id="curve0" fill="#808080" d="M1280 7040l7680 0 0 1280 -7680 0 0 -1280zm0 -5760l7680 0 0 1280 -7680 0 0 -1280z"/>
</svg>
