<?xml version="1.0" encoding="UTF-8"?>
<!DOCTYPE svg PUBLIC "-//W3C//DTD SVG 1.1//EN" "http://www.w3.org/Graphics/SVG/1.1/DTD/svg11.dtd">
<svg xmlns="http://www.w3.org/2000/svg" xml:space="preserve" width="1024px" height="1024px" shape-rendering="geometricPrecision" text-rendering="geometricPrecision" image-rendering="optimizeQuality" fill-rule="nonzero" clip-rule="evenodd" viewBox="0 0 10240 10240" xmlns:xlink="http://www.w3.org/1999/xlink">
	<title>index icon</title>
	<desc>index icon from the IconExperience.com O-Collection. Copyright by INCORS GmbH (www.incors.com).</desc>
	<path id="curve4" fill="#808080" d="M960 5760l8320 0c176,0 320,144 320,320l0 640c0,176 -144,320 -320,320l0 0 -519 2075c-72,289 -323,485 -621,485l-6040 0c-298,0 -549,-196 -621,-485l-519 -2075 0 0c-176,0 -320,-144 -320,-320l0 -640c0,-176 144,-320 320,-320z"/>
	<path id="curve3" fill="#EDC87E" d="M1920 3200l7040 0 0 2240 -640 0 0 -1600 -6400 0 0 1600 -640 0 0 -1600c0,-353 287,-640 640,-640z"/>
	<path id="curve2" fill="#EDC87E" d="M2560 2880c0,-353 287,-640 640,-640l1205 0c-152,170 -245,394 -245,640l0 0 -1600 0z"/>
	<path id="curve1" fill="#EDC87E" d="M4480 2880l0 0c0,-353 287,-640 640,-640l1205 0c-152,170 -245,394 -245,640l0 0 -1600 0z"/>
	<path id="curve0" fill="#EDC87E" d="M6400 3200l0 -320c0,-353 288,-640 640,-640l1280 0c353,0 640,287 640,640l0 330 -2552 0 -8 -10z"/>
</svg>
