<?xml version="1.0" encoding="UTF-8"?>
<!DOCTYPE svg PUBLIC "-//W3C//DTD SVG 1.1//EN" "http://www.w3.org/Graphics/SVG/1.1/DTD/svg11.dtd">
<svg xmlns="http://www.w3.org/2000/svg" xml:space="preserve" width="1024px" height="1024px" shape-rendering="geometricPrecision" text-rendering="geometricPrecision" image-rendering="optimizeQuality" fill-rule="nonzero" clip-rule="evenodd" viewBox="0 0 10240 10240" xmlns:xlink="http://www.w3.org/1999/xlink">
	<title>indent_increase icon</title>
	<desc>indent_increase icon from the IconExperience.com O-Collection. Copyright by INCORS GmbH (www.incors.com).</desc>
	<path id="curve2" fill="#808080" d="M5120 3200l3840 0 0 640 -3840 0 0 -640zm0 1280l3840 0 0 640 -3840 0 0 -640zm0 1281l2743 0 0 640 -2743 0 0 -640z"/>
	<path id="curve1" fill="#4D82B8" d="M3201 6220l1186 -1186c124,-125 124,-328 0,-453l-1186 -1186c-125,-124 -277,-195 -453,-195l-839 1c-65,0 -122,37 -148,98 -25,61 -12,128 35,175l687 685 -1684 5c-87,1 -159,73 -159,160l0 956c0,88 72,160 160,160l1683 -1 -687 688c-46,47 -60,114 -35,175 26,61 82,98 148,99l839 -1c176,1 328,-55 453,-180z"/>
	<path id="curve0" fill="#808080" d="M1280 7040l7680 0 0 1280 -7680 0 0 -1280zm0 -5760l7680 0 0 1280 -7680 0 0 -1280z"/>
</svg>
