<?xml version="1.0" encoding="UTF-8"?>
<!DOCTYPE svg PUBLIC "-//W3C//DTD SVG 1.1//EN" "http://www.w3.org/Graphics/SVG/1.1/DTD/svg11.dtd">
<svg xmlns="http://www.w3.org/2000/svg" xml:space="preserve" width="1024px" height="1024px" shape-rendering="geometricPrecision" text-rendering="geometricPrecision" image-rendering="optimizeQuality" fill-rule="nonzero" clip-rule="evenodd" viewBox="0 0 10240 10240" xmlns:xlink="http://www.w3.org/1999/xlink">
	<title>index2 icon</title>
	<desc>index2 icon from the IconExperience.com O-Collection. Copyright by INCORS GmbH (www.incors.com).</desc>
	<path id="curve1" fill="#EDC87E" d="M6741 797l278 160c76,44 102,143 58,219l-785 1359 1110 -1110c62,-62 164,-62 226,0l227 227c62,62 62,164 0,226l-1110 1110 1359 -785c76,-44 175,-18 219,58l160 278c44,76 17,174 -59,218l-1359 785 1516 -406c85,-23 173,28 196,113l83 309c22,85 -28,173 -113,196l-1516 406 1569 0c88,0 160,72 160,160l0 320c0,88 -72,160 -160,160l-1569 0 1516 406c85,23 135,111 113,196l-83 309c-23,85 -111,136 -196,113l-1516 -406 1359 785c76,44 103,142 59,218l-160 278c-44,76 -143,102 -219,58l-1359 -785 1110 1110c62,62 62,164 0,226l-227 227c-62,62 -164,62 -226,0l-1110 -1110 785 1359c44,76 18,175 -58,219l-278 160c-76,44 -174,17 -218,-59l-785 -1359 406 1516c6,20 7,40 5,59l-651 0 -378 -1409 0 1409 -640 0 0 -1409 -378 1409 -239 0c-138,0 -276,-28 -399,-92l398 -1483 -694 1202c-18,-31 -34,-63 -49,-96 -57,-134 -78,-279 -49,-422 30,-147 111,-276 218,-379l809 -783c217,86 455,133 703,133 1060,0 1920,-860 1920,-1920 0,-825 -520,-1528 -1250,-1800l1053 -1824c44,-76 142,-103 218,-59zm-5099 5876l-146 84c-76,44 -175,18 -219,-58l-160 -278c-44,-76 -17,-174 59,-218l1710 -988 -711 689c-228,221 -410,481 -533,769z"/>
	<path id="curve0" fill="#808080" d="M4800 2880c884,0 1600,716 1600,1600 0,884 -716,1600 -1600,1600 -278,0 -540,-71 -768,-196l-967 936c-164,158 -268,347 -308,544 -41,197 -19,408 68,613 88,205 230,371 406,485 177,115 394,178 632,178l4137 0c265,0 480,215 480,480 0,265 -215,480 -480,480l-4137 0c-423,0 -819,-119 -1153,-335 -334,-216 -601,-528 -766,-913 -165,-387 -204,-793 -125,-1179 79,-386 275,-745 579,-1039l970 -940c-107,-215 -168,-457 -168,-714 0,-884 716,-1600 1600,-1600z"/>
</svg>
