<?xml version="1.0" encoding="UTF-8"?>
<!DOCTYPE svg PUBLIC "-//W3C//DTD SVG 1.1//EN" "http://www.w3.org/Graphics/SVG/1.1/DTD/svg11.dtd">
<svg xmlns="http://www.w3.org/2000/svg" xml:space="preserve" width="1024px" height="1024px" shape-rendering="geometricPrecision" text-rendering="geometricPrecision" image-rendering="optimizeQuality" fill-rule="nonzero" clip-rule="evenodd" viewBox="0 0 10240 10240" xmlns:xlink="http://www.w3.org/1999/xlink">
	<title>industrial_machine icon</title>
	<desc>industrial_machine icon from the IconExperience.com O-Collection. Copyright by INCORS GmbH (www.incors.com).</desc>
	<path id="curve1" fill="#808080" d="M1920 8640l0 960 -320 0 0 -960 -574 0c-55,0 -153,-25 -153,-129l0 -304c-18,-57 -3,-117 40,-160l1967 -1967 0 -1920 320 0 0 960 320 0 0 -960 320 0 0 960 320 0 0 -960 320 0 0 960 320 0 0 -960 320 0 0 960 320 0 0 -960 320 0 0 2373 -1920 1920 0 1147 -320 0 0 -973c-43,8 -87,13 -133,13l-1467 0zm1413 -2560l-1920 1920 1974 0 1920 -1920 -1974 0z"/>
	<path id="curve0" fill="#4D82B8" d="M1787 3013l2186 -2186c124,-124 276,-187 452,-187l4535 0c176,0 320,144 320,320l0 4530c0,176 -63,328 -187,453l-2186 2190c-124,124 -276,187 -452,187l-2030 0 640 -640 1335 0 0 -4160 -4160 0 0 2747 -640 640 0 -3442c0,-176 63,-328 187,-452zm4933 -133l1600 -1600 -3895 0 -1561 1600 3856 0z"/>
</svg>
