<?xml version="1.0" encoding="UTF-8"?>
<!DOCTYPE svg PUBLIC "-//W3C//DTD SVG 1.1//EN" "http://www.w3.org/Graphics/SVG/1.1/DTD/svg11.dtd">
<svg xmlns="http://www.w3.org/2000/svg" xml:space="preserve" width="1024px" height="1024px" shape-rendering="geometricPrecision" text-rendering="geometricPrecision" image-rendering="optimizeQuality" fill-rule="nonzero" clip-rule="evenodd" viewBox="0 0 10240 10240" xmlns:xlink="http://www.w3.org/1999/xlink">
	<title>industrial_robot icon</title>
	<desc>industrial_robot icon from the IconExperience.com O-Collection. Copyright by INCORS GmbH (www.incors.com).</desc>
	<path id="curve4" fill="#808080" d="M9600,8960 9600,9600 4480,9600 4480,8960z"/>
	<path id="curve3" fill="#ED9A56" d="M7040 5120c881,0 1600,719 1600,1600l0 320 320 0c353,0 640,288 640,640l0 960 -5120 0 0 -960c0,-353 287,-640 640,-640l320 0 0 -320c0,-881 719,-1600 1600,-1600zm-15 1280c-176,0 -320,143 -320,320 0,177 144,320 320,320 177,0 320,-143 320,-320 0,-177 -143,-320 -320,-320z"/>
	<path id="curve2" fill="#ED9A56" d="M1559 4258l1691 -1690c-9,215 39,437 152,650l700 1317 -1133 1133c-389,389 -1020,389 -1410,0 -389,-389 -389,-1020 0,-1410z"/>
	<path id="curve1" fill="#ED9A56" d="M5253 6020l-1568 -2952c-253,-477 -75,-989 354,-1287 428,-297 971,-286 1329,117 884,994 1767,1988 2650,2981 97,109 174,228 233,353 -331,-270 -753,-432 -1211,-432 -811,0 -1507,507 -1787,1220z"/>
	<path id="curve0" fill="#808080" d="M2506 6257c24,83 37,170 37,259 0,89 -31,165 -93,228 -17,17 -36,32 -55,44 98,150 156,329 156,522 0,199 -65,396 -182,557 -103,143 -303,175 -446,72 -143,-104 -175,-304 -71,-447 39,-54 59,-115 59,-182 0,-172 -139,-311 -311,-311 -172,0 -311,139 -311,311 0,67 20,128 59,182 104,143 72,343 -71,447 -143,103 -343,71 -446,-72 -117,-161 -182,-358 -182,-557 0,-190 56,-366 151,-514 -24,-14 -46,-32 -67,-52 -62,-63 -93,-139 -93,-228 2,-366 211,-684 516,-841 50,77 109,151 177,219 319,319 761,440 1173,363z"/>
</svg>
