<?xml version="1.0" encoding="UTF-8"?>
<!DOCTYPE svg PUBLIC "-//W3C//DTD SVG 1.1//EN" "http://www.w3.org/Graphics/SVG/1.1/DTD/svg11.dtd">
<svg xmlns="http://www.w3.org/2000/svg" xml:space="preserve" width="1024px" height="1024px" shape-rendering="geometricPrecision" text-rendering="geometricPrecision" image-rendering="optimizeQuality" fill-rule="nonzero" clip-rule="evenodd" viewBox="0 0 10240 10240" xmlns:xlink="http://www.w3.org/1999/xlink">
	<title>infusion_drip icon</title>
	<desc>infusion_drip icon from the IconExperience.com O-Collection. Copyright by INCORS GmbH (www.incors.com).</desc>
	<path id="curve1" fill="#808080" d="M2560 1280c-177,0 -320,-143 -320,-320 0,-177 143,-320 320,-320l960 0c120,0 235,21 344,63l913 913c-96,26 -197,38 -297,38 -271,0 -547,-93 -734,-280 -29,-30 -63,-56 -102,-72 -35,-15 -76,-22 -124,-22l-960 0zm2631 -608c80,-21 163,-32 249,-32l2560 0c529,0 960,431 960,960l0 8000 -640 0 0 -8000c0,-176 -144,-320 -320,-320l-2201 0 -608 -608z"/>
	<path id="curve0" fill="#76A797" d="M5440 7040c-176,0 -320,144 -320,320l0 0c176,0 320,144 320,320l0 320c0,176 -144,320 -320,320l-320 0 0 1280 -640 0 0 -1280 -320 0c-176,0 -320,-144 -320,-320l0 -320c0,-176 144,-320 320,-320 0,-176 -144,-320 -320,-320 -529,0 -960,-431 -960,-960l0 -3520c0,-243 137,-455 337,-564l397 -396 226 0 0 0c38,38 79,73 121,105l-215 215 2108 0 -1219 -1219c54,-15 109,-22 165,-22 164,0 328,63 453,187l1130 1130c200,109 337,321 337,564l0 3520c0,529 -431,960 -960,960zm-1917 -5443l0 0 -1 1 0 0c3,0 5,0 1,-1zm0 0l0 0 -1 1 0 0 1 -1zm0 0c-2,-1 -1,0 -1,1l1 -1zm-646 4163l0 320 960 0 0 -320 -960 0zm0 -2880l0 320 960 0 0 -320 -960 0zm0 960l0 320 960 0 0 -320 -960 0zm0 960l0 320 960 0 0 -320 -960 0z"/>
</svg>
