<?xml version="1.0" encoding="UTF-8"?>
<!DOCTYPE svg PUBLIC "-//W3C//DTD SVG 1.1//EN" "http://www.w3.org/Graphics/SVG/1.1/DTD/svg11.dtd">
<svg xmlns="http://www.w3.org/2000/svg" xml:space="preserve" width="1024px" height="1024px" shape-rendering="geometricPrecision" text-rendering="geometricPrecision" image-rendering="optimizeQuality" fill-rule="nonzero" clip-rule="evenodd" viewBox="0 0 10240 10240" xmlns:xlink="http://www.w3.org/1999/xlink">
	<title>injection icon</title>
	<desc>injection icon from the IconExperience.com O-Collection. Copyright by INCORS GmbH (www.incors.com).</desc>
	<path id="curve2" fill="#808080" d="M2607,7859 753,9713 1327,8687 2381,7633z"/>
	<path id="curve1" fill="#4D82B8" d="M4894 2786c-125,-125 -125,-327 0,-452 125,-125 327,-125 452,0l2560 2560c125,125 125,327 0,452 -125,125 -327,125 -452,0l-480 -480 -621 621 -480 -480 -226 226 480 480 -414 414 -480 -480 -226 226 480 480 -414 414 -480 -480 -226 226 480 480 -414 414 -480 -480 -226 226 480 480 -461 461c-124,124 -328,124 -452,0l-1148 -1148c-124,-124 -124,-328 0,-452l3228 -3228 -480 -480z"/>
	<path id="curve0" fill="#4D82B8" d="M8800 2532l-1401 1402 -1085 -1085 1394 -1408 -254 -255c-125,-125 -125,-327 0,-452 125,-125 327,-125 452,0l1600 1600c125,125 125,327 0,452 -125,125 -327,125 -452,0l-254 -254z"/>
</svg>
