<?xml version="1.0" encoding="UTF-8"?>
<!DOCTYPE svg PUBLIC "-//W3C//DTD SVG 1.1//EN" "http://www.w3.org/Graphics/SVG/1.1/DTD/svg11.dtd">
<svg xmlns="http://www.w3.org/2000/svg" xml:space="preserve" width="1024px" height="1024px" shape-rendering="geometricPrecision" text-rendering="geometricPrecision" image-rendering="optimizeQuality" fill-rule="nonzero" clip-rule="evenodd" viewBox="0 0 10240 10240" xmlns:xlink="http://www.w3.org/1999/xlink">
	<title>inkpot icon</title>
	<desc>inkpot icon from the IconExperience.com O-Collection. Copyright by INCORS GmbH (www.incors.com).</desc>
	<path id="curve1" fill="#4D82B8" d="M3520 6720l2560 0c176,0 320,144 320,320 0,50 -12,99 -34,143 -45,90 2,198 98,226 384,112 576,415 576,911l0 960c0,176 -144,320 -320,320l-3840 0c-176,0 -320,-144 -320,-320l0 -960c0,-496 192,-799 576,-911 96,-28 143,-136 98,-226 -22,-44 -34,-93 -34,-143 0,-176 144,-320 320,-320z"/>
	<path id="curve0" fill="#808080" d="M4250 4380c543,-1301 1250,-2416 2248,-3412 417,-415 1095,-415 1511,2 415,416 415,1095 -2,1511 -799,797 -1350,1679 -1785,2721 -174,418 -585,667 -1013,657 -55,173 -108,353 -160,541l-663 0c294,-1104 646,-1980 1021,-2691 -302,383 -658,1004 -970,1791 -262,-297 -349,-730 -187,-1120z"/>
</svg>
