<?xml version="1.0" encoding="UTF-8"?>
<!DOCTYPE svg PUBLIC "-//W3C//DTD SVG 1.1//EN" "http://www.w3.org/Graphics/SVG/1.1/DTD/svg11.dtd">
<svg xmlns="http://www.w3.org/2000/svg" xml:space="preserve" width="1024px" height="1024px" shape-rendering="geometricPrecision" text-rendering="geometricPrecision" image-rendering="optimizeQuality" fill-rule="nonzero" clip-rule="evenodd" viewBox="0 0 10240 10240" xmlns:xlink="http://www.w3.org/1999/xlink">
	<title>install icon</title>
	<desc>install icon from the IconExperience.com O-Collection. Copyright by INCORS GmbH (www.incors.com).</desc>
	<path id="curve2" fill="#808080" d="M2505 7680l5230 0c176,0 328,63 452,187l999 999c63,63 94,138 94,227l0 187c0,176 -144,320 -320,320l-7680 0c-176,0 -320,-144 -320,-320l0 -187c0,-89 31,-164 94,-227l999 -999c124,-124 276,-187 452,-187zm695 320l-640 0c-88,0 -160,72 -160,160 0,88 72,160 160,160l640 0c88,0 160,-72 160,-160 0,-88 -72,-160 -160,-160zm4480 0l-960 0c-88,0 -160,72 -160,160 0,88 72,160 160,160l960 0c88,0 160,-72 160,-160 0,-88 -72,-160 -160,-160zm-1600 0l-320 0c-88,0 -160,72 -160,160 0,88 72,160 160,160l320 0c88,0 160,-72 160,-160 0,-88 -72,-160 -160,-160zm-960 0l-320 0c-88,0 -160,72 -160,160 0,88 72,160 160,160l320 0c88,0 160,-72 160,-160 0,-88 -72,-160 -160,-160zm3200 640l-640 0c-88,0 -160,72 -160,160 0,88 72,160 160,160l640 0c88,0 160,-72 160,-160 0,-88 -72,-160 -160,-160zm-1280 0l-1438 0 -2 0 -480 0 -2 0 -1918 0c-88,0 -160,72 -160,160 0,88 72,160 160,160l3840 0c88,0 160,-72 160,-160 0,-88 -72,-160 -160,-160zm-4480 0l-640 0c-88,0 -160,72 -160,160 0,88 72,160 160,160l640 0c88,0 160,-72 160,-160 0,-88 -72,-160 -160,-160zm1600 -640l-320 0c-88,0 -160,72 -160,160 0,88 72,160 160,160l320 0c88,0 160,-72 160,-160 0,-88 -72,-160 -160,-160z"/>
	<path id="curve1" fill="#808080" d="M2560 1280l5120 0c353,0 640,288 640,640l0 3840c0,352 -288,640 -640,640l-1600 0 0 320c0,176 144,320 320,320l160 0c88,0 160,72 160,160l0 160 -3200 0 0 -160c0,-88 72,-160 160,-160l160 0c176,0 320,-144 320,-320l0 -320 -1600 0c-352,0 -640,-287 -640,-639 1920,-2 3840,-1 5760,-1l0 -3840c-1920,0 -3840,-1 -5760,1l0 -1c0,-352 288,-640 640,-640z"/>
	<path id="curve0" fill="#4D82B8" d="M3201 5260l1186 -1186c124,-125 124,-328 0,-453l-1186 -1186c-125,-124 -277,-195 -453,-195l-839 1c-65,0 -122,37 -148,98 -25,61 -12,128 35,175l687 685 -1684 5c-87,1 -159,73 -159,160l0 956c0,88 72,160 160,160l1683 -1 -687 688c-46,47 -60,114 -35,175 26,61 82,98 148,99l839 -1c176,1 328,-55 453,-180z"/>
</svg>
