<?xml version="1.0" encoding="UTF-8"?>
<!DOCTYPE svg PUBLIC "-//W3C//DTD SVG 1.1//EN" "http://www.w3.org/Graphics/SVG/1.1/DTD/svg11.dtd">
<svg xmlns="http://www.w3.org/2000/svg" xml:space="preserve" width="1024px" height="1024px" shape-rendering="geometricPrecision" text-rendering="geometricPrecision" image-rendering="optimizeQuality" fill-rule="nonzero" clip-rule="evenodd" viewBox="0 0 10240 10240" xmlns:xlink="http://www.w3.org/1999/xlink">
	<title>invoice icon</title>
	<desc>invoice icon from the IconExperience.com O-Collection. Copyright by INCORS GmbH (www.incors.com).</desc>
	<path id="curve1" fill="#ED9A56" d="M2240 6400l5760 0 0 2240 -5760 0 0 -2240zm640 320l0 1600 320 0 0 -1600 -320 0zm2560 0l-320 0 0 489c0,129 27,242 85,357l332 665c28,56 85,88 143,88l160 1c68,0 126,-42 149,-102l326 -652c58,-115 85,-228 85,-357l0 -489 -320 0 0 489c0,78 -15,145 -50,215l-270 540 -270 -540c-35,-70 -50,-137 -50,-215l0 -489zm-960 0l0 1006 -616 -969c-16,-24 -40,-37 -68,-37l-276 0 0 1600 320 0 0 -1006 616 969c16,23 40,37 68,37l276 0 0 -1600 -320 0z"/>
	<path id="curve0" fill="#808080" d="M1280 640l5230 0c352,0 656,126 905,375l1170 1170c249,249 375,553 375,905l0 6510 -7680 0 0 -8960zm5760 960l0 960 960 0 -960 -960zm-5120 -320l0 7680 6400 0 0 -5440c0,-176 -144,-320 -320,-320l-1600 0 0 -1600c0,-176 -144,-320 -320,-320l-4160 0z"/>
</svg>
