<?xml version="1.0" encoding="UTF-8"?>
<!DOCTYPE svg PUBLIC "-//W3C//DTD SVG 1.1//EN" "http://www.w3.org/Graphics/SVG/1.1/DTD/svg11.dtd">
<svg xmlns="http://www.w3.org/2000/svg" xml:space="preserve" width="1024px" height="1024px" shape-rendering="geometricPrecision" text-rendering="geometricPrecision" image-rendering="optimizeQuality" fill-rule="nonzero" clip-rule="evenodd" viewBox="0 0 10240 10240" xmlns:xlink="http://www.w3.org/1999/xlink">
	<title>invoice_euro icon</title>
	<desc>invoice_euro icon from the IconExperience.com O-Collection. Copyright by INCORS GmbH (www.incors.com).</desc>
	<path id="curve1" fill="#808080" d="M1280 640l5230 0c352,0 656,126 905,375l1170 1170c249,249 375,553 375,905l0 6510 -3513 0c62,-30 124,-62 184,-96 123,-69 185,-204 157,-342l-40 -202 2572 0 0 -5440c0,-176 -144,-320 -320,-320l-1600 0 0 -1600c0,-176 -144,-320 -320,-320l-4160 0 0 2394c-245,210 -460,455 -640,728l0 -3762zm1364 8960l-1364 0 0 -1201c342,518 812,935 1364,1201zm4396 -8000l0 960 960 0 -960 -960z"/>
	<path id="curve0" fill="#EDC87E" d="M503 6720l518 0c-10,-105 -15,-212 -15,-320l-435 0 138 -640 358 0c281,-1461 1508,-2560 2979,-2560 491,0 956,123 1367,341l-288 1342c-298,-252 -673,-403 -1079,-403 -767,0 -1418,534 -1660,1280l2551 0 -137 640 -2514 0c0,109 8,216 24,320l2421 0 -137 640 -2073 0c305,574 873,960 1525,960 441,0 845,-177 1154,-470l275 1375c-426,239 -913,375 -1429,375 -1361,0 -2514,-942 -2901,-2240l-779 0 137 -640z"/>
</svg>
