<?xml version="1.0" encoding="UTF-8"?>
<!DOCTYPE svg PUBLIC "-//W3C//DTD SVG 1.1//EN" "http://www.w3.org/Graphics/SVG/1.1/DTD/svg11.dtd">
<svg xmlns="http://www.w3.org/2000/svg" xml:space="preserve" width="1024px" height="1024px" shape-rendering="geometricPrecision" text-rendering="geometricPrecision" image-rendering="optimizeQuality" fill-rule="nonzero" clip-rule="evenodd" viewBox="0 0 10240 10240" xmlns:xlink="http://www.w3.org/1999/xlink">
	<title>invoice_dollar icon</title>
	<desc>invoice_dollar icon from the IconExperience.com O-Collection. Copyright by INCORS GmbH (www.incors.com).</desc>
	<path id="curve1" fill="#808080" d="M1280 640l5230 0c352,0 656,126 905,375l1170 1170c249,249 375,553 375,905l0 6510 -4662 0c588,0 1120,-246 1498,-640l2524 0 0 -5440c0,-176 -144,-320 -320,-320l-1600 0 0 -1600c0,-176 -144,-320 -320,-320l-4160 0 0 2071c-238,96 -455,235 -640,408l0 -3119zm1416 8960l-1416 0 0 -559c373,347 872,559 1416,559zm-1416 -2240l0 -559c185,173 402,312 640,408l0 151 -640 0zm5760 -5760l0 960 960 0 -960 -960z"/>
	<path id="curve0" fill="#EDC87E" d="M3177 3200l640 0 0 320 320 0 160 0c908,0 1671,697 1753,1600l-1301 0c-68,-190 -249,-320 -452,-320l-480 0 0 960 480 0c970,0 1760,790 1760,1760 0,970 -790,1760 -1760,1760l-160 0 -320 0 0 320 -640 0 0 -320 -320 0 -160 0c-908,0 -1671,-697 -1753,-1600l1301 0c68,190 249,320 452,320l480 0 0 -960 -480 0c-970,0 -1760,-790 -1760,-1760 0,-970 790,-1760 1760,-1760l160 0 320 0 0 -320zm640 3840l0 960 480 0c263,0 480,-216 480,-480 0,-264 -217,-480 -480,-480l-480 0zm-640 -1280l0 -960 -480 0c-264,0 -480,216 -480,480 0,264 216,480 480,480l480 0z"/>
</svg>
