<?xml version="1.0" encoding="UTF-8"?>
<!DOCTYPE svg PUBLIC "-//W3C//DTD SVG 1.1//EN" "http://www.w3.org/Graphics/SVG/1.1/DTD/svg11.dtd">
<svg xmlns="http://www.w3.org/2000/svg" xml:space="preserve" width="1024px" height="1024px" shape-rendering="geometricPrecision" text-rendering="geometricPrecision" image-rendering="optimizeQuality" fill-rule="nonzero" clip-rule="evenodd" viewBox="0 0 10240 10240" xmlns:xlink="http://www.w3.org/1999/xlink">
	<title>jackhammer icon</title>
	<desc>jackhammer icon from the IconExperience.com O-Collection. Copyright by INCORS GmbH (www.incors.com).</desc>
	<path id="curve2" fill="#808080" d="M4800 6720l640 0 0 1524c0,52 11,97 34,144l203 406c53,105 11,207 -20,321l-217 805 -640 0 -217 -805c-31,-114 -73,-216 -20,-321l203 -406c23,-47 34,-92 34,-144l0 -1524z"/>
	<path id="curve1" fill="#808080" d="M1600 1920l960 0c176,0 320,-144 320,-320l0 0 320 0 0 1600 -320 0 0 0c0,-176 -144,-320 -320,-320l-960 0c-176,0 -320,-144 -320,-320l0 -320c0,-176 144,-320 320,-320zm7040 0l-960 0c-176,0 -320,-144 -320,-320l0 0 -320 0 0 1600 320 0 0 0c0,-176 144,-320 320,-320l960 0c176,0 320,-144 320,-320l0 -320c0,-176 -144,-320 -320,-320z"/>
	<path id="curve0" fill="#EDC87E" d="M4800 640l640 0 0 640c0,177 143,320 320,320 177,0 320,-143 320,-320l0 -640c353,0 640,288 640,640l0 0 0 0 0 2240c0,236 -129,444 -321,554 -203,118 -319,319 -319,554l0 172c0,176 -195,195 -320,320l0 0 0 1280 -1280 0 0 -1280 0 0c0,-176 -320,-144 -320,-320l0 -172c0,-235 -116,-436 -319,-554 -192,-110 -321,-318 -321,-554l0 -2240 0 0c0,-353 287,-640 640,-640l0 640c0,177 143,320 320,320 177,0 320,-143 320,-320l0 -640z"/>
</svg>
