<?xml version="1.0" encoding="UTF-8"?>
<!DOCTYPE svg PUBLIC "-//W3C//DTD SVG 1.1//EN" "http://www.w3.org/Graphics/SVG/1.1/DTD/svg11.dtd">
<svg xmlns="http://www.w3.org/2000/svg" xml:space="preserve" width="1024px" height="1024px" shape-rendering="geometricPrecision" text-rendering="geometricPrecision" image-rendering="optimizeQuality" fill-rule="nonzero" clip-rule="evenodd" viewBox="0 0 10240 10240" xmlns:xlink="http://www.w3.org/1999/xlink">
	<title>jar_coffee_bean icon</title>
	<desc>jar_coffee_bean icon from the IconExperience.com O-Collection. Copyright by INCORS GmbH (www.incors.com).</desc>
	<path id="curve2" fill="#B89A7C" d="M5990 4833c-971,-487 -1815,-418 -2396,89 -46,40 -65,98 -52,158 14,60 57,104 116,120 198,54 388,127 569,217 432,217 809,532 1132,947 265,341 568,596 909,767 250,125 523,207 819,245 77,10 150,-35 174,-110 310,-937 -106,-1850 -1271,-2433zm-3007 1031c-317,941 97,1860 1266,2446 976,488 1823,417 2404,-96 47,-40 65,-99 51,-159 -14,-60 -57,-104 -117,-119 -212,-55 -415,-131 -607,-228 -432,-216 -809,-531 -1132,-946 -265,-341 -568,-597 -909,-767 -239,-120 -499,-200 -779,-240 -79,-11 -152,34 -177,109z"/>
	<path id="curve1" fill="#808080" d="M3200 2240l640 0c0,476 -293,876 -768,973 -296,60 -512,324 -512,627l0 4377c0,395 190,743 640,743l3840 -1c358,0 640,-292 640,-640l0 -4480c-1,-302 -217,-566 -512,-626 -475,-97 -768,-497 -768,-973l640 0c0,170 79,310 256,346 583,119 1024,637 1024,1254l0 4480c0,705 -575,1280 -1280,1280l-3840 0c-705,0 -1280,-575 -1280,-1280l0 -4480c0,-617 441,-1135 1024,-1254 177,-36 256,-176 256,-346z"/>
	<path id="curve0" fill="#808080" d="M2880 640l4480 0c176,0 320,144 320,320l0 640c0,176 -144,320 -320,320l-4480 0c-176,0 -320,-144 -320,-320l0 -640c0,-176 144,-320 320,-320z"/>
</svg>
