<?xml version="1.0" encoding="UTF-8"?>
<!DOCTYPE svg PUBLIC "-//W3C//DTD SVG 1.1//EN" "http://www.w3.org/Graphics/SVG/1.1/DTD/svg11.dtd">
<svg xmlns="http://www.w3.org/2000/svg" xml:space="preserve" width="1024px" height="1024px" shape-rendering="geometricPrecision" text-rendering="geometricPrecision" image-rendering="optimizeQuality" fill-rule="nonzero" clip-rule="evenodd" viewBox="0 0 10240 10240" xmlns:xlink="http://www.w3.org/1999/xlink">
	<title>jar_cookies icon</title>
	<desc>jar_cookies icon from the IconExperience.com O-Collection. Copyright by INCORS GmbH (www.incors.com).</desc>
	<path id="curve2" fill="#EDC87E" d="M4486 6400c7,0 14,0 22,0 -37,195 -35,400 -4,597 73,457 299,895 605,1239 68,76 141,150 219,218 -244,107 -533,168 -842,168 -880,0 -1594,-497 -1594,-1111 0,-614 714,-1111 1594,-1111zm2326 -23c580,652 722,1550 318,2004 -404,455 -1202,295 -1782,-358 -580,-652 -722,-1550 -318,-2004 404,-455 1202,-295 1782,358z"/>
	<path id="curve1" fill="#808080" d="M3200 2272l0 -32 320 0 320 0 0 32c0,458 -320,849 -768,941 -296,60 -512,324 -512,627l0 4480c0,352 288,640 640,640l3840 0c352,0 640,-288 640,-640l0 -4480c0,-303 -216,-567 -512,-627 -448,-92 -768,-483 -768,-941l0 -32 320 0 320 0 0 32c0,154 105,283 256,314 583,119 1024,637 1024,1254l0 1920 0 2560c0,705 -575,1280 -1280,1280l-3840 0c-705,0 -1280,-575 -1280,-1280l0 -2560 0 -1920c0,-617 441,-1135 1024,-1254 151,-31 256,-160 256,-314z"/>
	<path id="curve0" fill="#808080" d="M2880 640l4480 0c176,0 320,144 320,320l0 640c0,176 -144,320 -320,320l-4480 0c-176,0 -320,-144 -320,-320l0 -640c0,-176 144,-320 320,-320z"/>
</svg>
