<?xml version="1.0" encoding="UTF-8"?>
<!DOCTYPE svg PUBLIC "-//W3C//DTD SVG 1.1//EN" "http://www.w3.org/Graphics/SVG/1.1/DTD/svg11.dtd">
<svg xmlns="http://www.w3.org/2000/svg" xml:space="preserve" width="1024px" height="1024px" shape-rendering="geometricPrecision" text-rendering="geometricPrecision" image-rendering="optimizeQuality" fill-rule="nonzero" clip-rule="evenodd" viewBox="0 0 10240 10240" xmlns:xlink="http://www.w3.org/1999/xlink">
	<title>jar_earth icon</title>
	<desc>jar_earth icon from the IconExperience.com O-Collection. Copyright by INCORS GmbH (www.incors.com).</desc>
	<path id="curve2" fill="#4D82B8" d="M5120 4160c1237,0 2240,1003 2240,2240 0,1237 -1003,2240 -2240,2240 -1237,0 -2240,-1003 -2240,-2240 0,-1237 1003,-2240 2240,-2240zm153 647c48,52 92,122 73,165 -26,60 -65,134 -181,177 -85,31 -197,33 -283,70 -89,39 -177,35 -228,47 -81,19 3,-263 -20,-295 -35,-47 -248,-6 -266,42 -43,113 57,208 52,231 -8,42 -7,213 -48,257 -62,67 -219,127 -240,130 -102,14 -126,119 -202,179 -32,26 -194,196 -220,249 -70,143 -1,234 31,263 54,49 77,55 138,74 24,7 255,126 318,191 64,65 96,134 160,173 78,47 220,100 239,137 85,165 56,397 -188,561 -63,43 -192,113 -160,231 6,21 9,41 12,60 248,159 543,251 860,251 884,0 1600,-716 1600,-1600 0,-97 -9,-193 -25,-285 -6,-2 -11,-3 -15,-2 -28,9 -30,97 -60,147 -25,41 -79,46 -88,58 -59,80 138,144 52,255 -36,48 -148,156 -178,295 -63,295 -21,117 -116,353 -14,36 -40,172 -60,202 -91,139 -347,296 -410,217 -36,-47 -58,-116 -69,-183 -12,-66 -81,-151 -74,-203 10,-82 17,-108 19,-202 0,-4 -57,-232 -66,-251 -42,-90 -111,-130 -208,-97 -75,26 -139,-12 -199,-36 -119,-48 -175,-204 -200,-332 0,-1 18,-201 19,-211 4,-53 28,-103 57,-144 214,-307 164,-175 441,-275 46,-16 114,-19 138,-11 124,43 118,170 245,192 14,2 80,-38 95,-35 78,13 152,87 221,52 40,-20 62,-97 25,-125 -35,-27 -89,-7 -127,-34 -57,-41 -104,16 -151,-39 -22,-24 -60,-101 -88,-141 -29,-43 -120,-25 -105,-6 46,63 114,72 123,107 10,37 -87,87 -61,19 13,-36 -56,-58 -137,-100 -42,-22 -83,-79 -147,-49 -31,15 -91,90 -115,125 -40,61 -132,44 -194,14 -61,-29 -63,-177 17,-242 76,-61 138,-24 212,-44 30,-9 45,-42 91,-72 53,-36 -33,-93 -5,-151 24,-48 102,-57 144,-78 39,-19 83,-51 125,-26 59,35 123,38 181,74 58,37 106,62 158,70 -247,-221 -563,-366 -912,-399zm-1232 2775c-42,-58 -76,-111 -92,-150 -35,-85 -44,-238 -85,-285 -84,-97 -162,-176 -177,-275 -15,-91 -67,-222 -76,-293 -11,-79 -41,-164 -90,-236 -1,19 -1,38 -1,57 0,468 201,889 521,1182z"/>
	<path id="curve1" fill="#808080" d="M3520 2240l320 0 0 32c0,458 -320,849 -768,941 -296,60 -512,324 -512,627l0 4480c0,352 288,640 640,640l3840 0c352,0 640,-288 640,-640l0 -4480c0,-303 -216,-567 -512,-627 -448,-92 -768,-483 -768,-941l0 -32 320 0 320 0 0 32c0,154 105,283 256,314 583,119 1024,637 1024,1254l0 1920 0 2560c0,705 -575,1280 -1280,1280l-3840 0c-705,0 -1280,-575 -1280,-1280l0 -2560 0 -1920c0,-617 441,-1135 1024,-1254 151,-31 256,-160 256,-314l0 -32 320 0z"/>
	<path id="curve0" fill="#808080" d="M2880 640l4480 0c176,0 320,144 320,320l0 640c0,176 -144,320 -320,320l-4480 0c-176,0 -320,-144 -320,-320l0 -640c0,-176 144,-320 320,-320z"/>
</svg>
