<?xml version="1.0" encoding="UTF-8"?>
<!DOCTYPE svg PUBLIC "-//W3C//DTD SVG 1.1//EN" "http://www.w3.org/Graphics/SVG/1.1/DTD/svg11.dtd">
<svg xmlns="http://www.w3.org/2000/svg" xml:space="preserve" width="1024px" height="1024px" shape-rendering="geometricPrecision" text-rendering="geometricPrecision" image-rendering="optimizeQuality" fill-rule="nonzero" clip-rule="evenodd" viewBox="0 0 10240 10240" xmlns:xlink="http://www.w3.org/1999/xlink">
	<title>jerrycan icon</title>
	<desc>jerrycan icon from the IconExperience.com O-Collection. Copyright by INCORS GmbH (www.incors.com).</desc>
	<path id="curve0" fill="#808080" d="M8067 2669l-290 580 189 94c222,111 354,324 354,573l0 5044c0,353 -287,640 -640,640l-5120 0c-353,0 -640,-287 -640,-640l0 -5532 0 -228 0 -1487c0,-308 212,-567 514,-627l2164 -433c305,-61 604,101 720,390l550 1376c159,26 316,69 471,127l298 -593 -286 -144 286 -572 2003 1003 -287 572 -286 -143zm-613 5612l-734 -734 0 -2294 734 -734c62,-63 94,-139 93,-227 0,-88 -31,-164 -94,-226 -125,-124 -327,-124 -452,0l-734 734 -2294 0 -734 -734c-63,-62 -139,-94 -227,-93 -88,0 -164,31 -226,94 -124,125 -124,327 0,452l734 734 0 2294 -734 734c-62,63 -94,139 -93,227 0,88 31,164 94,226 125,124 327,124 452,0l734 -734 2294 0 734 734c125,124 327,124 452,0 63,-62 94,-138 94,-226 1,-88 -31,-164 -93,-227zm-3294 -2841l1920 0 0 1920 -1920 0 0 -1920zm-1600 -2400l2281 -570c112,-28 223,-49 333,-63l-450 -1127c-1,0 -1,0 -1,0l-2163 433c0,0 0,0 0,0l0 1327z"/>
</svg>
