<?xml version="1.0" encoding="UTF-8"?>
<!DOCTYPE svg PUBLIC "-//W3C//DTD SVG 1.1//EN" "http://www.w3.org/Graphics/SVG/1.1/DTD/svg11.dtd">
<svg xmlns="http://www.w3.org/2000/svg" xml:space="preserve" width="1024px" height="1024px" shape-rendering="geometricPrecision" text-rendering="geometricPrecision" image-rendering="optimizeQuality" fill-rule="nonzero" clip-rule="evenodd" viewBox="0 0 10240 10240" xmlns:xlink="http://www.w3.org/1999/xlink">
	<title>joystick icon</title>
	<desc>joystick icon from the IconExperience.com O-Collection. Copyright by INCORS GmbH (www.incors.com).</desc>
	<path id="curve4" fill="#808080" d="M1920 7680l6400 0c353,0 640,288 640,640l0 640c0,352 -288,640 -640,640l-6400 0c-352,0 -640,-287 -640,-640l0 -640c0,-353 288,-640 640,-640z"/>
	<path id="curve3" fill="#E68497" d="M6720 6720l1280 0c176,0 320,144 320,320l0 320 -1920 0 0 -320c0,-176 144,-320 320,-320z"/>
	<path id="curve2" fill="#E68497" d="M2240 6720l1280 0c176,0 320,144 320,320l0 320 -1920 0 0 -320c0,-176 144,-320 320,-320z"/>
	<path id="curve1" fill="#808080" d="M5760 4707l0 2653 -1280 0 0 -2653c203,60 418,93 640,93 222,0 437,-33 640,-93z"/>
	<path id="curve0" fill="#E68497" d="M5120 640c1060,0 1920,860 1920,1920 0,1060 -860,1920 -1920,1920 -1060,0 -1920,-860 -1920,-1920 0,-1060 860,-1920 1920,-1920zm283 767c45,-102 35,-210 -26,-304 -62,-93 -158,-144 -270,-143 -874,7 -1582,715 -1587,1590 -1,103 42,192 123,255 81,63 178,83 277,57 143,-37 239,-160 240,-308 3,-525 428,-950 953,-954 130,-1 240,-77 290,-193z"/>
</svg>
