<?xml version="1.0" encoding="UTF-8"?>
<!DOCTYPE svg PUBLIC "-//W3C//DTD SVG 1.1//EN" "http://www.w3.org/Graphics/SVG/1.1/DTD/svg11.dtd">
<svg xmlns="http://www.w3.org/2000/svg" xml:space="preserve" width="1024px" height="1024px" shape-rendering="geometricPrecision" text-rendering="geometricPrecision" image-rendering="optimizeQuality" fill-rule="nonzero" clip-rule="evenodd" viewBox="0 0 10240 10240" xmlns:xlink="http://www.w3.org/1999/xlink">
	<title>judge icon</title>
	<desc>judge icon from the IconExperience.com O-Collection. Copyright by INCORS GmbH (www.incors.com).</desc>
	<path id="curve4" fill="#E68497" d="M5923 7929l206 -1135 -206 -207c-125,-125 -188,-276 -188,-452l0 -127c206,47 420,72 640,72 220,0 434,-25 640,-72l0 127c0,176 -63,327 -187,452l-207 207 394 2166 -77 77c-31,-130 -97,-253 -198,-355l-304 -303c-162,-162 -332,-311 -513,-450z"/>
	<path id="curve3" fill="#808080" d="M9575 8470c0,713 -1486,1046 -2716,1116 7,-13 14,-25 20,-38l363 -362c76,-76 108,-177 88,-283l-364 -2001 88 -88c185,-185 281,-418 281,-679l0 -52c0,-1 0,-3 0,-4l0 -70c0,-31 -4,-61 -11,-89 208,-73 405,-168 588,-284 1083,807 1663,1074 1663,2834zm-4083 1084c-463,-46 -935,-130 -1332,-256l0 -338c0,-442 -300,-815 -708,-926 -53,-107 -136,-197 -238,-260 20,-153 46,-291 80,-417l28 28c95,94 208,153 340,177 170,30 380,239 500,359 125,125 233,260 336,404 121,167 234,339 357,505 159,217 331,418 521,609l116 115zm-1305 -3434c74,-58 152,-116 234,-177 56,-26 107,-62 153,-107l19 -19c79,-58 160,-118 245,-181 184,116 381,212 589,284 -8,28 -12,58 -12,89l0 126c0,261 97,494 281,679l88 88 -148 818c-105,-73 -210,-145 -314,-219 -144,-103 -279,-211 -404,-337 -119,-119 -328,-330 -359,-500 -23,-131 -83,-245 -177,-339l-197 -197 2 -8z"/>
	<path id="curve2" fill="#EFC1B4" d="M6375 640c1414,0 2560,1146 2560,2560 0,1414 -1146,2560 -2560,2560 -579,0 -1113,-192 -1542,-517 -5,-184 -78,-367 -219,-507l-607 -608c-9,-9 -19,-18 -28,-27 -106,-280 -164,-584 -164,-901 0,-1414 1146,-2560 2560,-2560z"/>
	<path id="curve1" fill="#B89A7C" d="M1280 8320l0 0c0,-176 144,-320 320,-320l1280 0c176,0 320,144 320,320l0 0c353,0 640,288 640,640l0 640 -3200 0 0 -640c0,-353 288,-640 640,-640z"/>
	<path id="curve0" fill="#B89A7C" d="M3933 6328l-607 607 223 223c48,49 102,77 169,89 272,49 526,303 670,447 458,458 607,911 1215,1518l303 304c167,167 440,167 607,0 168,-167 168,-440 0,-607l-303 -304c-607,-607 -1060,-756 -1518,-1214 -145,-145 -399,-399 -448,-670 -12,-67 -40,-122 -88,-170l-223 -223zm-759 -1973l-41 40c-56,56 -76,131 -56,208 43,159 -103,305 -263,263 -76,-21 -151,0 -207,55l-688 689c-56,55 -76,131 -56,207 43,159 -104,306 -263,263 -76,-20 -152,0 -207,56l-41 40c-167,167 -167,440 0,607l607 608c168,167 440,167 607,0l41 -41c56,-56 76,-131 56,-207 -43,-160 104,-306 263,-263 76,20 151,0 207,-56l689 -688c55,-56 75,-132 55,-208 -42,-159 104,-305 263,-263 76,21 152,0 207,-55l41 -41c167,-167 167,-440 0,-607l-607 -607c-167,-168 -440,-167 -607,0z"/>
</svg>
