<?xml version="1.0" encoding="UTF-8"?>
<!DOCTYPE svg PUBLIC "-//W3C//DTD SVG 1.1//EN" "http://www.w3.org/Graphics/SVG/1.1/DTD/svg11.dtd">
<svg xmlns="http://www.w3.org/2000/svg" xml:space="preserve" width="1024px" height="1024px" shape-rendering="geometricPrecision" text-rendering="geometricPrecision" image-rendering="optimizeQuality" fill-rule="nonzero" clip-rule="evenodd" viewBox="0 0 10240 10240" xmlns:xlink="http://www.w3.org/1999/xlink">
	<title>key2 icon</title>
	<desc>key2 icon from the IconExperience.com O-Collection. Copyright by INCORS GmbH (www.incors.com).</desc>
	<path id="curve1" fill="#808080" d="M4661 4221l-3526 3527c-63,62 -94,138 -94,226l0 542c0,140 86,259 219,303l951 318c118,39 240,10 327,-78l313 -312 0 -586c0,-176 144,-320 320,-320l585 0 0 -585c0,-176 144,-320 320,-320l585 0 0 -585c0,-176 144,-320 320,-320l585 0 453 -452 -905 -905 -3394 3394 -227 -227 3395 -3394 -227 -226z"/>
	<path id="curve0" fill="#4D82B8" d="M6245 827l-1810 1810c-249,249 -249,656 0,905l2263 2263c249,249 656,249 905,0l1810 -1810c249,-249 249,-656 0,-905l-2263 -2263c-249,-249 -656,-249 -905,0zm227 1131c124,-124 327,-124 452,0l1358 1358c124,125 124,328 0,452l-453 453c-124,125 -328,125 -452,0l-1358 -1358c-125,-124 -125,-328 0,-452l453 -453z"/>
</svg>
