<?xml version="1.0" encoding="UTF-8"?>
<!DOCTYPE svg PUBLIC "-//W3C//DTD SVG 1.1//EN" "http://www.w3.org/Graphics/SVG/1.1/DTD/svg11.dtd">
<svg xmlns="http://www.w3.org/2000/svg" xml:space="preserve" width="1024px" height="1024px" shape-rendering="geometricPrecision" text-rendering="geometricPrecision" image-rendering="optimizeQuality" fill-rule="nonzero" clip-rule="evenodd" viewBox="0 0 10240 10240" xmlns:xlink="http://www.w3.org/1999/xlink">
	<title>keyboard_key_speaker icon</title>
	<desc>keyboard_key_speaker icon from the IconExperience.com O-Collection. Copyright by INCORS GmbH (www.incors.com).</desc>
	<path id="curve3" fill="#4D82B8" d="M8000 4561c1104,284 1920,1286 1920,2479 0,1193 -816,2195 -1920,2479l0 -668c746,-264 1280,-975 1280,-1811 0,-836 -534,-1547 -1280,-1811l0 -668zm0 1370c383,222 640,635 640,1109 0,474 -257,887 -640,1109l0 -2218z"/>
	<path id="curve2" fill="#4D82B8" d="M7360 4160l0 0c176,0 320,144 320,320l0 5120c0,176 -144,320 -320,320l0 0c-176,0 -320,-144 -320,-320l-1280 -1280 0 -2560 1280 -1280c0,-176 144,-320 320,-320z"/>
	<path id="curve1" fill="#4D82B8" d="M4800 5760l640 0 0 2560 -640 0c-220,0 -320,-144 -320,-320l0 -1920c0,-176 100,-320 320,-320z"/>
	<path id="curve0" fill="#808080" d="M1920 640l5120 0c705,0 1280,575 1280,1280l0 2404c-78,-28 -159,-52 -240,-73 -43,-11 -85,-14 -126,-8 -94,-236 -325,-403 -594,-403l0 -1600c0,-529 -431,-960 -960,-960l-3840 0c-529,0 -960,431 -960,960l0 3840c0,529 431,960 960,960l1600 0 0 960c0,119 27,228 76,320l-2316 0c-705,0 -1280,-575 -1280,-1280l0 -5120c0,-705 575,-1280 1280,-1280zm1294 3200c40,-444 164,-874 347,-1280l558 0c183,406 307,836 347,1280l-1252 0zm1266 640l0 640 640 0 0 -960c0,-726 -192,-1416 -515,-2063 -56,-111 -168,-176 -285,-176l-960 0c-117,0 -229,65 -285,176 -323,647 -515,1337 -515,2063l0 960 640 0 0 -640 1280 0zm-1920 -2880l3840 0c353,0 640,288 640,640l0 1686c-149,87 -261,232 -302,404l-1148 1147c-45,-23 -96,-37 -150,-37l-640 0c-377,0 -640,266 -640,640l0 640 -1600 0c-352,0 -640,-288 -640,-640l0 -3840c0,-353 288,-640 640,-640z"/>
</svg>
