<?xml version="1.0" encoding="UTF-8"?>
<!DOCTYPE svg PUBLIC "-//W3C//DTD SVG 1.1//EN" "http://www.w3.org/Graphics/SVG/1.1/DTD/svg11.dtd">
<svg xmlns="http://www.w3.org/2000/svg" xml:space="preserve" width="1024px" height="1024px" shape-rendering="geometricPrecision" text-rendering="geometricPrecision" image-rendering="optimizeQuality" fill-rule="nonzero" clip-rule="evenodd" viewBox="0 0 10240 10240" xmlns:xlink="http://www.w3.org/1999/xlink">
	<title>keyboard_key_clock icon</title>
	<desc>keyboard_key_clock icon from the IconExperience.com O-Collection. Copyright by INCORS GmbH (www.incors.com).</desc>
	<path id="curve2" fill="#808080" d="M1920 640l5120 0c705,0 1280,575 1280,1280l0 2028c-294,-170 -617,-294 -960,-364l0 -1344c0,-529 -431,-960 -960,-960l-3809 0c-529,0 -960,431 -960,960l0 3849c0,528 431,960 960,960l946 0c47,459 191,890 411,1271l-2028 0c-705,0 -1280,-575 -1280,-1280l0 -5120c0,-705 575,-1280 1280,-1280zm1294 3199l1252 0c-40,-444 -164,-874 -347,-1280l-558 0c-183,406 -307,836 -347,1280zm1222 640l-1236 0 0 640 -640 0 0 -960c0,-727 192,-1416 515,-2063 56,-111 168,-176 285,-176l960 0c117,0 229,65 285,176 293,585 477,1205 510,1855 472,-274 1020,-431 1605,-431 113,0 225,6 335,17l0 -1293c0,-352 -287,-640 -640,-640l-3840 0c-352,0 -640,288 -640,640l0 3840c0,353 288,640 640,640l945 0 0 -4c0,-873 350,-1664 916,-2241z"/>
	<path id="curve1" fill="#4D82B8" d="M5495 5241c164,-135 351,-245 554,-320l671 1159 0 0c116,0 226,31 320,85l877 -507c141,160 251,347 321,554l-878 508 0 0c0,353 -287,640 -640,640 -353,0 -640,-287 -640,-640 0,-116 31,-226 85,-320l-670 -1159z"/>
	<path id="curve0" fill="#808080" d="M6720 3840c1591,0 2880,1289 2880,2880 0,1591 -1289,2880 -2880,2880 -1591,0 -2880,-1289 -2880,-2880 0,-1591 1289,-2880 2880,-2880zm0 640c-1237,0 -2240,1003 -2240,2240 0,1237 1003,2240 2240,2240 1237,0 2240,-1003 2240,-2240 0,-1237 -1003,-2240 -2240,-2240z"/>
</svg>
