<?xml version="1.0" encoding="UTF-8"?>
<!DOCTYPE svg PUBLIC "-//W3C//DTD SVG 1.1//EN" "http://www.w3.org/Graphics/SVG/1.1/DTD/svg11.dtd">
<svg xmlns="http://www.w3.org/2000/svg" xml:space="preserve" width="1024px" height="1024px" shape-rendering="geometricPrecision" text-rendering="geometricPrecision" image-rendering="optimizeQuality" fill-rule="nonzero" clip-rule="evenodd" viewBox="0 0 10240 10240" xmlns:xlink="http://www.w3.org/1999/xlink">
	<title>keyboard_key_w icon</title>
	<desc>keyboard_key_w icon from the IconExperience.com O-Collection. Copyright by INCORS GmbH (www.incors.com).</desc>
	<path id="curve0" fill="#808080" d="M2560 1280l5120 0c705,0 1280,575 1280,1280l0 5120c0,705 -575,1280 -1280,1280l-5120 0c-705,0 -1280,-575 -1280,-1280l0 -5120c0,-705 575,-1280 1280,-1280zm1280 1280l-640 0 0 1319c0,105 5,207 17,313 11,100 28,201 53,311l223 1006c33,149 161,251 313,251l112 0c125,0 231,-66 287,-177l275 -550 275 550c56,111 162,177 287,177l112 0c152,0 280,-102 313,-251l223 -1006c25,-110 42,-211 53,-311 12,-106 17,-208 17,-313l0 -1319 -640 0 0 1319c0,91 -4,171 -12,246 -9,81 -22,159 -40,241l-64 289 -204 -407c-27,-55 -81,-88 -143,-88l-354 0c-62,0 -116,33 -143,88l-204 407 -64 -289c-18,-82 -31,-160 -40,-241 -8,-75 -12,-155 -12,-246l0 -1319zm-640 -640c-529,0 -960,431 -960,960l0 3840c0,529 431,960 960,960l3840 0c529,0 960,-431 960,-960l0 -3840c0,-529 -431,-960 -960,-960l-3840 0zm0 320l3840 0c353,0 640,287 640,640l0 3840c0,353 -287,640 -640,640l-3840 0c-353,0 -640,-287 -640,-640l0 -3840c0,-353 287,-640 640,-640z"/>
</svg>
