<?xml version="1.0" encoding="UTF-8"?>
<!DOCTYPE svg PUBLIC "-//W3C//DTD SVG 1.1//EN" "http://www.w3.org/Graphics/SVG/1.1/DTD/svg11.dtd">
<svg xmlns="http://www.w3.org/2000/svg" xml:space="preserve" width="1024px" height="1024px" shape-rendering="geometricPrecision" text-rendering="geometricPrecision" image-rendering="optimizeQuality" fill-rule="nonzero" clip-rule="evenodd" viewBox="0 0 10240 10240" xmlns:xlink="http://www.w3.org/1999/xlink">
	<title>keyboard_key_enter icon</title>
	<desc>keyboard_key_enter icon from the IconExperience.com O-Collection. Copyright by INCORS GmbH (www.incors.com).</desc>
	<path id="curve0" fill="#808080" d="M2560 640l5120 0c705,0 1280,575 1280,1280l0 6400c0,705 -575,1280 -1280,1280l-3200 0c-705,0 -1280,-575 -1280,-1280l0 -1600c0,-176 -144,-320 -320,-320l-320 0c-705,0 -1280,-575 -1280,-1280l0 -3200c0,-705 575,-1280 1280,-1280zm1240 1374c63,-63 138,-94 227,-94l537 0c50,0 92,28 111,74 19,46 12,98 -26,131l-489 437 1600 -2 0 -480c0,-88 72,-160 160,-160l320 0c88,0 160,72 160,160l0 800c0,176 -144,320 -320,320l-1950 2 519 433c38,32 45,85 26,131 -19,46 -61,74 -111,74l-537 0c-89,0 -164,-31 -227,-94l-753 -753c-62,-62 -62,-164 0,-226l753 -753zm-600 -734c-529,0 -960,431 -960,960l0 1920c0,529 431,960 960,960l320 0c352,0 640,287 640,640l0 1600c0,529 431,960 960,960l1920 0c529,0 960,-431 960,-960l0 -5120c0,-529 -431,-960 -960,-960l-3840 0zm0 320c-353,0 -640,287 -640,640l0 1920c0,352 288,640 640,640l320 0c529,0 960,431 960,960l0 1600c0,352 288,640 640,640l1920 0c352,0 640,-288 640,-640l0 -5120c0,-352 -287,-640 -640,-640l-3840 0z"/>
</svg>
