<?xml version="1.0" encoding="UTF-8"?>
<!DOCTYPE svg PUBLIC "-//W3C//DTD SVG 1.1//EN" "http://www.w3.org/Graphics/SVG/1.1/DTD/svg11.dtd">
<svg xmlns="http://www.w3.org/2000/svg" xml:space="preserve" width="1024px" height="1024px" shape-rendering="geometricPrecision" text-rendering="geometricPrecision" image-rendering="optimizeQuality" fill-rule="nonzero" clip-rule="evenodd" viewBox="0 0 10240 10240" xmlns:xlink="http://www.w3.org/1999/xlink">
	<title>keyboard_key_shift icon</title>
	<desc>keyboard_key_shift icon from the IconExperience.com O-Collection. Copyright by INCORS GmbH (www.incors.com).</desc>
	<path id="curve0" fill="#808080" d="M1920 1920l6400 0c705,0 1280,575 1280,1280l0 3840c0,705 -575,1280 -1280,1280l-6400 0c-705,0 -1280,-575 -1280,-1280l0 -3840c0,-705 575,-1280 1280,-1280zm734 2080l753 -753c62,-63 164,-63 226,0l753 753c63,62 94,138 94,226l0 538c0,49 -28,92 -74,111 -46,19 -99,12 -131,-26l-433 -520 -2 1271c0,88 -72,160 -160,160l-320 0c-89,0 -160,-71 -160,-160l2 -1240 -437 489c-33,37 -85,45 -131,26 -46,-19 -74,-62 -74,-111l0 -538c0,-88 31,-164 94,-226zm-94 -1440c-529,0 -960,431 -960,960l0 2560c0,529 431,960 960,960l5120 0c529,0 960,-431 960,-960l0 -2560c0,-529 -431,-960 -960,-960l-5120 0zm0 320c-352,0 -640,287 -640,640l0 2560c0,353 288,640 640,640l5120 0c352,0 640,-288 640,-640l0 -2560c0,-352 -287,-640 -640,-640l-5120 0z"/>
</svg>
