<?xml version="1.0" encoding="UTF-8"?>
<!DOCTYPE svg PUBLIC "-//W3C//DTD SVG 1.1//EN" "http://www.w3.org/Graphics/SVG/1.1/DTD/svg11.dtd">
<svg xmlns="http://www.w3.org/2000/svg" xml:space="preserve" width="1024px" height="1024px" shape-rendering="geometricPrecision" text-rendering="geometricPrecision" image-rendering="optimizeQuality" fill-rule="nonzero" clip-rule="evenodd" viewBox="0 0 10240 10240" xmlns:xlink="http://www.w3.org/1999/xlink">
	<title>keyboard_key_r icon</title>
	<desc>keyboard_key_r icon from the IconExperience.com O-Collection. Copyright by INCORS GmbH (www.incors.com).</desc>
	<path id="curve0" fill="#808080" d="M2560 1280l5120 0c705,0 1280,575 1280,1280l0 5120c0,705 -575,1280 -1280,1280l-5120 0c-705,0 -1280,-575 -1280,-1280l0 -5120c0,-705 575,-1280 1280,-1280zm640 1280l1600 0c530,0 960,430 960,960 0,294 -132,557 -340,733 211,228 340,533 340,867l0 640 -640 0 0 -640c0,-353 -288,-640 -640,-640l-640 0 0 1280 -640 0 0 -3200zm1600 1280c177,0 320,-143 320,-320 0,-177 -143,-320 -320,-320l-960 0 0 640 960 0zm-1600 -1920c-529,0 -960,431 -960,960l0 3840c0,529 431,960 960,960l3840 0c529,0 960,-431 960,-960l0 -3840c0,-529 -431,-960 -960,-960l-3840 0zm0 320c-353,0 -640,287 -640,640l0 3840c0,353 287,640 640,640l3840 0c353,0 640,-287 640,-640l0 -3840c0,-353 -287,-640 -640,-640l-3840 0z"/>
</svg>
