<?xml version="1.0" encoding="UTF-8"?>
<!DOCTYPE svg PUBLIC "-//W3C//DTD SVG 1.1//EN" "http://www.w3.org/Graphics/SVG/1.1/DTD/svg11.dtd">
<svg xmlns="http://www.w3.org/2000/svg" xml:space="preserve" width="1024px" height="1024px" shape-rendering="geometricPrecision" text-rendering="geometricPrecision" image-rendering="optimizeQuality" fill-rule="nonzero" clip-rule="evenodd" viewBox="0 0 10240 10240" xmlns:xlink="http://www.w3.org/1999/xlink">
	<title>keyboard_key_8 icon</title>
	<desc>keyboard_key_8 icon from the IconExperience.com O-Collection. Copyright by INCORS GmbH (www.incors.com).</desc>
	<path id="curve0" fill="#808080" d="M2560 1280l5120 0c705,0 1280,575 1280,1280l0 5120c0,705 -575,1280 -1280,1280l-5120 0c-705,0 -1280,-575 -1280,-1280l0 -5120c0,-705 575,-1280 1280,-1280zm1280 1280l1280 0c176,0 336,72 452,188 116,115 188,276 188,452l0 480c0,176 -72,337 -188,452 -9,10 -19,19 -29,28 10,9 20,18 29,28 116,115 188,276 188,452l0 480c0,176 -72,337 -188,452 -115,116 -276,188 -452,188l-1280 0c-176,0 -337,-72 -452,-188 -116,-115 -188,-276 -188,-452l0 -480c0,-176 72,-337 188,-452 9,-10 19,-19 29,-28 -10,-9 -20,-18 -29,-28 -116,-115 -188,-276 -188,-452l0 -480c0,-176 72,-337 188,-452 115,-116 276,-188 452,-188zm160 1920c-88,0 -160,72 -160,160l0 320c0,88 72,160 160,160l960 0c88,0 160,-72 160,-160l0 -320c0,-88 -72,-160 -160,-160l-960 0zm0 -1280c-88,0 -160,72 -160,160l0 320c0,88 72,160 160,160l960 0c88,0 160,-72 160,-160l0 -320c0,-88 -72,-160 -160,-160l-960 0zm-800 -1280c-529,0 -960,431 -960,960l0 3840c0,529 431,960 960,960l3840 0c529,0 960,-431 960,-960l0 -3840c0,-529 -431,-960 -960,-960l-3840 0zm0 320c-353,0 -640,287 -640,640l0 3840c0,352 288,640 640,640l3840 0c352,0 640,-288 640,-640l0 -3840c0,-352 -287,-640 -640,-640l-3840 0z"/>
</svg>
