<?xml version="1.0" encoding="UTF-8"?>
<!DOCTYPE svg PUBLIC "-//W3C//DTD SVG 1.1//EN" "http://www.w3.org/Graphics/SVG/1.1/DTD/svg11.dtd">
<svg xmlns="http://www.w3.org/2000/svg" xml:space="preserve" width="1024px" height="1024px" shape-rendering="geometricPrecision" text-rendering="geometricPrecision" image-rendering="optimizeQuality" fill-rule="nonzero" clip-rule="evenodd" viewBox="0 0 10240 10240" xmlns:xlink="http://www.w3.org/1999/xlink">
	<title>keyboard_key_up icon</title>
	<desc>keyboard_key_up icon from the IconExperience.com O-Collection. Copyright by INCORS GmbH (www.incors.com).</desc>
	<path id="curve0" fill="#808080" d="M2560 1280l5120 0c705,0 1280,575 1280,1280l0 5120c0,705 -575,1280 -1280,1280l-5120 0c-705,0 -1280,-575 -1280,-1280l0 -5120c0,-705 575,-1280 1280,-1280zm1054 2400l753 -753c62,-63 164,-63 226,0l753 753c63,62 94,138 94,226l0 538c0,49 -28,92 -74,111 -46,19 -99,12 -131,-26l-433 -520 -2 1591c0,88 -72,160 -160,160l-320 0c-44,0 -82,-16 -113,-47 -31,-31 -47,-69 -47,-113l2 -1560 -437 489c-33,37 -85,45 -131,26 -46,-19 -74,-62 -74,-111l0 -538c0,-88 31,-164 94,-226zm-414 -1760c-529,0 -960,431 -960,960l0 3840c0,529 431,960 960,960l3840 0c529,0 960,-431 960,-960l0 -3840c0,-529 -431,-960 -960,-960l-3840 0zm0 320c-353,0 -640,287 -640,640l0 3840c0,352 288,640 640,640l3840 0c352,0 640,-288 640,-640l0 -3840c0,-352 -287,-640 -640,-640l-3840 0z"/>
</svg>
