<?xml version="1.0" encoding="UTF-8"?>
<!DOCTYPE svg PUBLIC "-//W3C//DTD SVG 1.1//EN" "http://www.w3.org/Graphics/SVG/1.1/DTD/svg11.dtd">
<svg xmlns="http://www.w3.org/2000/svg" xml:space="preserve" width="1024px" height="1024px" shape-rendering="geometricPrecision" text-rendering="geometricPrecision" image-rendering="optimizeQuality" fill-rule="nonzero" clip-rule="evenodd" viewBox="0 0 10240 10240" xmlns:xlink="http://www.w3.org/1999/xlink">
	<title>keyboard_wireless icon</title>
	<desc>keyboard_wireless icon from the IconExperience.com O-Collection. Copyright by INCORS GmbH (www.incors.com).</desc>
	<path id="curve1" fill="#808080" d="M1280 3840l7680 0c353,0 640,287 640,640l0 3840c0,353 -287,640 -640,640l-7680 0c-353,0 -640,-287 -640,-640l0 -3840c0,-353 287,-640 640,-640zm6720 640c-176,0 -320,144 -320,320l0 320c0,118 65,222 160,277 102,59 160,160 160,277l0 726c0,176 144,320 320,320l320 0c176,0 320,-144 320,-320l0 -960 0 -640c0,-176 -144,-320 -320,-320l-640 0zm-4480 2560c-176,0 -320,144 -320,320l0 320c0,176 144,320 320,320l3200 0c176,0 320,-144 320,-320l0 -320c0,-176 -144,-320 -320,-320l-3200 0zm-1920 -2560c-176,0 -320,144 -320,320l0 320c0,176 144,320 320,320l320 0c176,0 320,-144 320,-320l0 -320c0,-176 -144,-320 -320,-320l-320 0zm6080 2560c-176,0 -320,144 -320,320l0 320c0,176 144,320 320,320l960 0c176,0 320,-144 320,-320l0 -320c0,-176 -144,-320 -320,-320l-960 0zm-640 -1280c-176,0 -320,144 -320,320l0 320c0,176 144,320 320,320l320 0c176,0 320,-144 320,-320l0 -320c0,-176 -144,-320 -320,-320l-320 0zm-320 -1280c-176,0 -320,144 -320,320l0 320c0,176 144,320 320,320l320 0c176,0 320,-144 320,-320l0 -320c0,-176 -144,-320 -320,-320l-320 0zm-5120 2560c-176,0 -320,144 -320,320l0 320c0,176 144,320 320,320l960 0c176,0 320,-144 320,-320l0 -320c0,-176 -144,-320 -320,-320l-960 0zm4160 -1280c-176,0 -320,144 -320,320l0 320c0,176 144,320 320,320l320 0c176,0 320,-144 320,-320l0 -320c0,-176 -144,-320 -320,-320l-320 0zm-1280 0c-176,0 -320,144 -320,320l0 320c0,176 144,320 320,320l320 0c176,0 320,-144 320,-320l0 -320c0,-176 -144,-320 -320,-320l-320 0zm-1280 0c-176,0 -320,144 -320,320l0 320c0,176 144,320 320,320l320 0c176,0 320,-144 320,-320l0 -320c0,-176 -144,-320 -320,-320l-320 0zm-1600 0c-176,0 -320,144 -320,320l0 320c0,176 144,320 320,320l640 0c176,0 320,-144 320,-320l0 -320c0,-176 -144,-320 -320,-320l-640 0zm3840 -1280c-176,0 -320,144 -320,320l0 320c0,176 144,320 320,320l320 0c176,0 320,-144 320,-320l0 -320c0,-176 -144,-320 -320,-320l-320 0zm-1280 0c-176,0 -320,144 -320,320l0 320c0,176 144,320 320,320l320 0c176,0 320,-144 320,-320l0 -320c0,-176 -144,-320 -320,-320l-320 0zm-1280 0c-176,0 -320,144 -320,320l0 320c0,176 144,320 320,320l320 0c176,0 320,-144 320,-320l0 -320c0,-176 -144,-320 -320,-320l-320 0z"/>
	<path id="curve0" fill="#4D82B8" d="M1070 2030c-125,125 -328,125 -453,0 -125,-125 -125,-328 0,-453 294,-293 647,-531 1040,-694 379,-157 792,-243 1223,-243 431,0 844,86 1223,243 393,163 746,401 1040,694 125,125 125,328 0,453 -125,125 -328,125 -453,0 -237,-238 -519,-428 -830,-557 -300,-124 -631,-193 -980,-193 -349,0 -680,69 -980,193 -311,129 -593,319 -830,557zm905 905c-125,125 -328,125 -453,0 -125,-125 -125,-328 0,-453 176,-175 388,-318 625,-416 227,-94 475,-146 733,-146 258,0 506,52 733,146 237,98 449,241 625,416 125,125 125,328 0,453 -125,125 -328,125 -453,0 -119,-119 -260,-215 -414,-279 -150,-62 -316,-96 -491,-96 -175,0 -341,34 -491,96 -154,64 -295,160 -414,279z"/>
</svg>
