<?xml version="1.0" encoding="UTF-8"?>
<!DOCTYPE svg PUBLIC "-//W3C//DTD SVG 1.1//EN" "http://www.w3.org/Graphics/SVG/1.1/DTD/svg11.dtd">
<svg xmlns="http://www.w3.org/2000/svg" xml:space="preserve" width="1024px" height="1024px" shape-rendering="geometricPrecision" text-rendering="geometricPrecision" image-rendering="optimizeQuality" fill-rule="nonzero" clip-rule="evenodd" viewBox="0 0 10240 10240" xmlns:xlink="http://www.w3.org/1999/xlink">
	<title>keyboard_key_down icon</title>
	<desc>keyboard_key_down icon from the IconExperience.com O-Collection. Copyright by INCORS GmbH (www.incors.com).</desc>
	<path id="curve0" fill="#808080" d="M2560 1280l5120 0c705,0 1280,575 1280,1280l0 5120c0,705 -575,1280 -1280,1280l-5120 0c-705,0 -1280,-575 -1280,-1280l0 -5120c0,-705 575,-1280 1280,-1280zm1054 3680c-63,-62 -94,-138 -94,-226l0 -538c0,-50 28,-92 74,-111 46,-19 98,-11 131,26l437 489 -2 -1560c0,-89 71,-160 160,-160l320 0c88,0 160,72 160,160l2 1591 433 -520c32,-38 85,-45 131,-26 46,19 74,62 74,111l0 538c0,88 -31,164 -94,226l-753 753c-62,63 -164,63 -226,0l-753 -753zm-414 -3040c-529,0 -960,431 -960,960l0 3840c0,529 431,960 960,960l3840 0c529,0 960,-431 960,-960l0 -3840c0,-529 -431,-960 -960,-960l-3840 0zm0 320c-353,0 -640,287 -640,640l0 3840c0,352 288,640 640,640l3840 0c352,0 640,-288 640,-640l0 -3840c0,-352 -287,-640 -640,-640l-3840 0z"/>
</svg>
