<?xml version="1.0" encoding="UTF-8"?>
<!DOCTYPE svg PUBLIC "-//W3C//DTD SVG 1.1//EN" "http://www.w3.org/Graphics/SVG/1.1/DTD/svg11.dtd">
<svg xmlns="http://www.w3.org/2000/svg" xml:space="preserve" width="1024px" height="1024px" shape-rendering="geometricPrecision" text-rendering="geometricPrecision" image-rendering="optimizeQuality" fill-rule="nonzero" clip-rule="evenodd" viewBox="0 0 10240 10240" xmlns:xlink="http://www.w3.org/1999/xlink">
	<title>keyboard_key_m icon</title>
	<desc>keyboard_key_m icon from the IconExperience.com O-Collection. Copyright by INCORS GmbH (www.incors.com).</desc>
	<path id="curve0" fill="#808080" d="M2560 1280l5120 0c705,0 1280,575 1280,1280l0 5120c0,705 -575,1280 -1280,1280l-5120 0c-705,0 -1280,-575 -1280,-1280l0 -5120c0,-705 575,-1280 1280,-1280zm3200 1280l0 3200 -640 0 0 -1847 -311 621c-28,56 -81,88 -143,88l-372 0c-62,0 -115,-32 -143,-88l-311 -622 0 1848 -640 0 0 -3200 577 0c62,0 116,33 143,88l560 1119 560 -1119c27,-55 81,-88 143,-88l577 0zm-2560 -640c-529,0 -960,431 -960,960l0 3840c0,529 431,960 960,960l3840 0c529,0 960,-431 960,-960l0 -3840c0,-529 -431,-960 -960,-960l-3840 0zm0 320c-353,0 -640,287 -640,640l0 3840c0,353 287,640 640,640l3840 0c353,0 640,-287 640,-640l0 -3840c0,-353 -287,-640 -640,-640l-3840 0z"/>
</svg>
