<?xml version="1.0" encoding="UTF-8"?>
<!DOCTYPE svg PUBLIC "-//W3C//DTD SVG 1.1//EN" "http://www.w3.org/Graphics/SVG/1.1/DTD/svg11.dtd">
<svg xmlns="http://www.w3.org/2000/svg" xml:space="preserve" width="1024px" height="1024px" shape-rendering="geometricPrecision" text-rendering="geometricPrecision" image-rendering="optimizeQuality" fill-rule="nonzero" clip-rule="evenodd" viewBox="0 0 10240 10240" xmlns:xlink="http://www.w3.org/1999/xlink">
	<title>keyboard_key_7 icon</title>
	<desc>keyboard_key_7 icon from the IconExperience.com O-Collection. Copyright by INCORS GmbH (www.incors.com).</desc>
	<path id="curve0" fill="#808080" d="M2560 1280l5120 0c705,0 1280,575 1280,1280l0 5120c0,705 -575,1280 -1280,1280l-5120 0c-705,0 -1280,-575 -1280,-1280l0 -5120c0,-705 575,-1280 1280,-1280zm1280 4480l0 -640c0,-256 100,-476 269,-665l905 -1015c63,-71 106,-143 106,-240l-1920 0 0 -640 2560 0 0 640c0,256 -100,476 -269,665l-905 1015c-63,71 -106,143 -106,240l0 640 -640 0zm-640 -3840c-529,0 -960,431 -960,960l0 3840c0,529 431,960 960,960l3840 0c529,0 960,-431 960,-960l0 -3840c0,-529 -431,-960 -960,-960l-3840 0zm0 320c-353,0 -640,287 -640,640l0 3840c0,352 288,640 640,640l3840 0c352,0 640,-288 640,-640l0 -3840c0,-352 -287,-640 -640,-640l-3840 0z"/>
</svg>
