<?xml version="1.0" encoding="UTF-8"?>
<!DOCTYPE svg PUBLIC "-//W3C//DTD SVG 1.1//EN" "http://www.w3.org/Graphics/SVG/1.1/DTD/svg11.dtd">
<svg xmlns="http://www.w3.org/2000/svg" xml:space="preserve" width="1024px" height="1024px" shape-rendering="geometricPrecision" text-rendering="geometricPrecision" image-rendering="optimizeQuality" fill-rule="nonzero" clip-rule="evenodd" viewBox="0 0 10240 10240" xmlns:xlink="http://www.w3.org/1999/xlink">
	<title>keyhole icon</title>
	<desc>keyhole icon from the IconExperience.com O-Collection. Copyright by INCORS GmbH (www.incors.com).</desc>
	<path id="curve0" fill="#808080" d="M2560 640l5120 0c353,0 640,287 640,640l0 7680c0,353 -287,640 -640,640l-5120 0c-353,0 -640,-287 -640,-640l0 -7680c0,-353 287,-640 640,-640zm3464 4432c-26,-120 15,-236 110,-314 358,-294 586,-739 586,-1238 0,-884 -716,-1600 -1600,-1600 -884,0 -1600,716 -1600,1600 0,499 228,944 586,1238 95,78 136,194 110,314l-613 2861c-21,98 1,190 64,268 63,78 149,119 249,119l2408 0c100,0 186,-41 249,-119 63,-78 85,-170 64,-268l-613 -2861z"/>
</svg>
