<?xml version="1.0" encoding="UTF-8"?>
<!DOCTYPE svg PUBLIC "-//W3C//DTD SVG 1.1//EN" "http://www.w3.org/Graphics/SVG/1.1/DTD/svg11.dtd">
<svg xmlns="http://www.w3.org/2000/svg" xml:space="preserve" width="1024px" height="1024px" shape-rendering="geometricPrecision" text-rendering="geometricPrecision" image-rendering="optimizeQuality" fill-rule="nonzero" clip-rule="evenodd" viewBox="0 0 10240 10240" xmlns:xlink="http://www.w3.org/1999/xlink">
	<title>keys icon</title>
	<desc>keys icon from the IconExperience.com O-Collection. Copyright by INCORS GmbH (www.incors.com).</desc>
	<path id="curve3" fill="#808080" d="M3570 4763l-2542 2543c-45,45 -68,100 -68,163l0 391c0,101 62,187 158,219l686 229c85,28 172,7 236,-56l225 -226 0 -422c0,-127 104,-230 231,-230l422 0 0 -422c0,-127 103,-231 231,-231l421 0 0 -422c0,-127 104,-230 231,-230l422 0 326 -327c-1724,-1724 -29,-29 -979,-979z"/>
	<path id="curve2" fill="#4D82B8" d="M4712 2316l-1305 1305c-179,180 -179,473 0,653l1204 1204c-84,-208 -131,-435 -131,-678 0,-318 80,-610 220,-865l-151 -151c-90,-89 -90,-236 0,-326l327 -326c89,-90 236,-90 326,0l124 124c203,-137 432,-241 675,-304l-636 -636c-180,-180 -473,-180 -653,0zm1770 2798l484 -483c-101,-103 -284,-151 -406,-151 -176,0 -480,101 -480,320 0,189 227,290 402,314z"/>
	<path id="curve1" fill="#808080" d="M6560 3200c439,0 841,146 1149,388 -262,348 -678,574 -1148,572 -364,-2 -801,232 -801,640 0,419 451,645 824,640 662,-10 1267,-248 1736,-646l0 6c0,732 -541,1350 -1280,1540l0 2940c0,176 -144,320 -320,320l-320 0c-176,0 -335,-144 -333,-320l13 -960 -12 -1983c-732,-194 -1268,-808 -1268,-1537 0,-884 788,-1600 1760,-1600zm800 4800l1280 0 0 320 -320 0 0 640 320 0 0 320 -1280 0 0 -1280z"/>
	<path id="curve0" fill="#808080" d="M6560 320c1325,0 2400,1075 2400,2400 0,1322 -1069,2394 -2389,2400 -181,4 -491,-100 -491,-320 0,-217 303,-322 481,-320 972,-1 1759,-788 1759,-1760 0,-972 -788,-1760 -1760,-1760 -660,0 -1236,364 -1537,902 -195,3 -388,79 -537,228l-304 304c159,-1171 1163,-2074 2378,-2074z"/>
</svg>
