<?xml version="1.0" encoding="UTF-8"?>
<!DOCTYPE svg PUBLIC "-//W3C//DTD SVG 1.1//EN" "http://www.w3.org/Graphics/SVG/1.1/DTD/svg11.dtd">
<svg xmlns="http://www.w3.org/2000/svg" xml:space="preserve" width="1024px" height="1024px" shape-rendering="geometricPrecision" text-rendering="geometricPrecision" image-rendering="optimizeQuality" fill-rule="nonzero" clip-rule="evenodd" viewBox="0 0 10240 10240" xmlns:xlink="http://www.w3.org/1999/xlink">
	<title>kidney_dish icon</title>
	<desc>kidney_dish icon from the IconExperience.com O-Collection. Copyright by INCORS GmbH (www.incors.com).</desc>
	<path id="curve1" fill="#808080" d="M5120 3779c177,0 320,143 320,320 0,177 -143,320 -320,320 -492,0 -997,68 -1475,183 -263,64 -968,287 -1156,470 -127,122 -329,118 -451,-9 -123,-127 -119,-329 8,-451 292,-283 1054,-534 1449,-630 530,-128 1079,-203 1625,-203z"/>
	<path id="curve0" fill="#808080" d="M640 4800c0,-1642 2818,-2301 4480,-2301 1662,0 4473,598 4478,2240l2 862c0,1237 -1003,2240 -2240,2240 -717,0 -1361,-299 -2240,-299 -879,0 -1523,299 -2240,299 -1237,0 -2240,-1003 -2240,-2240l0 -801zm8318 81c0,-152 6,-269 -56,-416 -417,-990 -2784,-1326 -3782,-1326 -998,0 -3583,402 -3824,1510 -26,153 -22,293 27,442 203,615 961,904 1557,904 370,0 751,-102 1112,-174 376,-74 744,-125 1128,-125 384,0 752,51 1128,125 361,72 742,174 1112,174 596,0 1354,-289 1557,-904 22,-68 36,-138 41,-210z"/>
</svg>
