<?xml version="1.0" encoding="UTF-8"?>
<!DOCTYPE svg PUBLIC "-//W3C//DTD SVG 1.1//EN" "http://www.w3.org/Graphics/SVG/1.1/DTD/svg11.dtd">
<svg xmlns="http://www.w3.org/2000/svg" xml:space="preserve" width="1024px" height="1024px" shape-rendering="geometricPrecision" text-rendering="geometricPrecision" image-rendering="optimizeQuality" fill-rule="nonzero" clip-rule="evenodd" viewBox="0 0 10240 10240" xmlns:xlink="http://www.w3.org/1999/xlink">
	<title>knife icon</title>
	<desc>knife icon from the IconExperience.com O-Collection. Copyright by INCORS GmbH (www.incors.com).</desc>
	<path id="curve1" fill="#808080" d="M3840 5138l1528 -1528c28,105 83,204 166,287l827 827c124,124 287,189 453,188l226 226c124,124 125,327 0,452 -1441,1446 -3699,3573 -5852,3702 -55,4 -104,-19 -137,-63 -34,-44 -42,-97 -24,-149 542,-1560 2549,-3678 2813,-3942z"/>
	<path id="curve0" fill="#B89A7C" d="M9600 1618c0,530 -430,960 -960,960 -209,0 -353,33 -507,187l-812 812c-124,124 -187,276 -187,452l0 243c0,132 -76,245 -198,295 -122,51 -255,24 -349,-69l-827 -827c-125,-125 -125,-328 0,-453l2240 -2240c602,-602 1600,-404 1600,640zm-2240 640c0,177 143,320 320,320 177,0 320,-143 320,-320 0,-177 -143,-320 -320,-320 -177,0 -320,143 -320,320zm-960 960c0,177 143,320 320,320 177,0 320,-143 320,-320 0,-177 -143,-320 -320,-320 -177,0 -320,143 -320,320z"/>
</svg>
