<?xml version="1.0" encoding="UTF-8"?>
<!DOCTYPE svg PUBLIC "-//W3C//DTD SVG 1.1//EN" "http://www.w3.org/Graphics/SVG/1.1/DTD/svg11.dtd">
<svg xmlns="http://www.w3.org/2000/svg" xml:space="preserve" width="1024px" height="1024px" shape-rendering="geometricPrecision" text-rendering="geometricPrecision" image-rendering="optimizeQuality" fill-rule="nonzero" clip-rule="evenodd" viewBox="0 0 10240 10240" xmlns:xlink="http://www.w3.org/1999/xlink">
	<title>knife_fork_spoon icon</title>
	<desc>knife_fork_spoon icon from the IconExperience.com O-Collection. Copyright by INCORS GmbH (www.incors.com).</desc>
	<path id="curve2" fill="#808080" d="M8960 3200l0 5760c0,352 -288,640 -640,640l0 0c-352,0 -640,-287 -640,-640l0 -3520c0,-176 -144,-320 -320,-320 -176,0 -320,-144 -320,-320l0 -1920c0,-787 222,-2240 1280,-2240 353,0 640,288 640,640l0 1920z"/>
	<path id="curve1" fill="#808080" d="M5440 4800l0 522c0,88 31,164 94,226l132 133c63,62 94,138 94,226l0 3053c0,352 -288,640 -640,640 -353,0 -640,-287 -640,-640l0 -3068c0,-92 34,-172 102,-234l116 -109c68,-62 102,-142 102,-234l0 -515c0,-235 -116,-436 -319,-554 -383,-221 -641,-636 -641,-1108 0,-533 0,-1325 0,-1858 0,-176 144,-320 320,-320 176,0 320,144 320,320l0 1600c0,88 72,160 160,160 88,0 160,-72 160,-160l0 -1600c0,-176 144,-320 320,-320 176,0 320,144 320,320l0 1600c0,88 72,160 160,160 88,0 160,-72 160,-160l0 -1600c0,-176 144,-320 320,-320 176,0 320,144 320,320 0,533 0,1325 0,1858 0,472 -258,887 -641,1108 -203,118 -319,319 -319,554z"/>
	<path id="curve0" fill="#808080" d="M2240 4800l0 507c0,89 31,164 94,227l132 132c63,63 94,138 94,227l0 3067c0,352 -288,640 -640,640 -352,0 -640,-287 -640,-640l0 -3083c0,-92 34,-171 102,-234l116 -108c67,-63 102,-142 102,-234l-1 -534c-1,-216 -98,-401 -275,-525 -408,-282 -684,-824 -684,-1565 0,-897 585,-1773 1307,-1773 721,0 1307,794 1307,1773 0,698 -298,1302 -730,1592 -183,122 -284,311 -284,531z"/>
</svg>
