<?xml version="1.0" encoding="UTF-8"?>
<!DOCTYPE svg PUBLIC "-//W3C//DTD SVG 1.1//EN" "http://www.w3.org/Graphics/SVG/1.1/DTD/svg11.dtd">
<svg xmlns="http://www.w3.org/2000/svg" xml:space="preserve" width="1024px" height="1024px" shape-rendering="geometricPrecision" text-rendering="geometricPrecision" image-rendering="optimizeQuality" fill-rule="nonzero" clip-rule="evenodd" viewBox="0 0 10240 10240" xmlns:xlink="http://www.w3.org/1999/xlink">
	<title>knot icon</title>
	<desc>knot icon from the IconExperience.com O-Collection. Copyright by INCORS GmbH (www.incors.com).</desc>
	<path id="curve0" fill="#4D82B8" d="M5760 640c0,1067 0,2133 0,3200 0,150 -40,211 -167,284 -244,141 -480,278 -704,463 -223,-301 -392,-721 -409,-1387 0,-853 0,-1707 0,-2560l1280 0zm320 1727c233,103 422,263 573,464 277,369 387,857 387,1329 0,639 -297,919 -787,1311 -109,78 -222,164 -317,289 -142,188 -629,85 -911,-254 -102,-122 -164,-268 -197,-421 248,-292 634,-516 925,-684 173,-100 327,-241 327,-561l0 -1473zm947 2848c54,451 -39,996 -267,1392 -293,505 -761,753 -1320,753 -730,0 -1445,-495 -1828,-1090 -611,-955 -539,-2325 187,-3196 111,-133 233,-250 361,-351l0 477c0,489 80,976 331,1398 -7,64 -11,132 -11,202 0,328 85,654 299,911 171,205 415,363 675,429 258,66 564,42 737,-186 68,-90 158,-158 249,-223 171,-123 340,-246 486,-400 37,-38 70,-77 101,-116zm-1267 2441l0 1944 -1280 0 0 -2150c303,145 632,230 960,230 110,0 217,-8 320,-24z"/>
</svg>
