<?xml version="1.0" encoding="UTF-8"?>
<!DOCTYPE svg PUBLIC "-//W3C//DTD SVG 1.1//EN" "http://www.w3.org/Graphics/SVG/1.1/DTD/svg11.dtd">
<svg xmlns="http://www.w3.org/2000/svg" xml:space="preserve" width="1024px" height="1024px" shape-rendering="geometricPrecision" text-rendering="geometricPrecision" image-rendering="optimizeQuality" fill-rule="nonzero" clip-rule="evenodd" viewBox="0 0 10240 10240" xmlns:xlink="http://www.w3.org/1999/xlink">
	<title>ladder icon</title>
	<desc>ladder icon from the IconExperience.com O-Collection. Copyright by INCORS GmbH (www.incors.com).</desc>
	<path id="curve2" fill="#808080" d="M8758 8960c101,-14 190,-43 252,-123 63,-80 83,-175 59,-274l-1326 -5336 -330 1328 1035 4162c36,145 163,263 310,243z"/>
	<path id="curve1" fill="#808080" d="M3510 639l620 0c102,0 190,43 252,123 47,59 70,127 69,198l-392 0c-141,0 -260,87 -304,220l-210 640c-33,101 -17,202 45,288 62,85 153,132 259,132l293 0 -159 640 -404 0c-141,0 -260,87 -304,220l-210 640c-33,101 -17,202 45,288 62,85 153,132 259,132l297 0 -159 640 -408 0c-141,0 -260,87 -304,220l-210 640c-33,101 -17,202 45,288 62,85 153,132 259,132l301 0 -159 640 -412 0c-141,0 -260,87 -304,220l-210 640c-33,101 -17,202 45,288 62,85 153,132 259,132l304 0 -178 717c-36,145 -161,243 -310,243l-621 0c-102,0 -189,-43 -252,-123 -63,-80 -83,-175 -58,-274l1905 -7681c36,-144 162,-243 311,-243zm3516 0l620 0c102,0 190,43 252,123 63,80 83,176 59,275l-1906 7680c-36,145 -162,243 -310,243l-621 0c-102,0 -189,-43 -252,-123 -63,-80 -83,-175 -59,-274l1906 -7681c36,-144 162,-243 311,-243z"/>
	<path id="curve0" fill="#4D82B8" d="M4059 1280l2228 0 -159 640 -2279 0 210 -640zm-960 3840l2235 0 -159 640 -2286 0 210 -640zm-480 1920l2239 0 -159 640 -2290 0 210 -640zm960 -3840l2231 0 -159 640 -2282 0 210 -640z"/>
</svg>
