<?xml version="1.0" encoding="UTF-8"?>
<!DOCTYPE svg PUBLIC "-//W3C//DTD SVG 1.1//EN" "http://www.w3.org/Graphics/SVG/1.1/DTD/svg11.dtd">
<svg xmlns="http://www.w3.org/2000/svg" xml:space="preserve" width="1024px" height="1024px" shape-rendering="geometricPrecision" text-rendering="geometricPrecision" image-rendering="optimizeQuality" fill-rule="nonzero" clip-rule="evenodd" viewBox="0 0 10240 10240" xmlns:xlink="http://www.w3.org/1999/xlink">
	<title>lantern icon</title>
	<desc>lantern icon from the IconExperience.com O-Collection. Copyright by INCORS GmbH (www.incors.com).</desc>
	<path id="curve1" fill="#808080" d="M2240 2880l960 0 0 4800 3840 0 0 -4800 960 0 0 4800 320 960 0 960 -1600 0 0 -320c0,-353 -287,-640 -640,-640 -640,0 -1280,0 -1920,0 -352,0 -640,288 -640,640l0 320 -1600 0 0 -960 320 -960 0 -4800z"/>
	<path id="curve0" fill="#808080" d="M1547 1555l1653 -275c0,-353 287,-640 640,-640l2560 0c353,0 640,288 640,640l1653 275c155,26 267,158 267,316l0 689 -7680 0 0 -689c0,-158 112,-290 267,-316z"/>
</svg>
