<?xml version="1.0" encoding="UTF-8"?>
<!DOCTYPE svg PUBLIC "-//W3C//DTD SVG 1.1//EN" "http://www.w3.org/Graphics/SVG/1.1/DTD/svg11.dtd">
<svg xmlns="http://www.w3.org/2000/svg" xml:space="preserve" width="1024px" height="1024px" shape-rendering="geometricPrecision" text-rendering="geometricPrecision" image-rendering="optimizeQuality" fill-rule="nonzero" clip-rule="evenodd" viewBox="0 0 10240 10240" xmlns:xlink="http://www.w3.org/1999/xlink">
	<title>laptop icon</title>
	<desc>laptop icon from the IconExperience.com O-Collection. Copyright by INCORS GmbH (www.incors.com).</desc>
	<path id="curve1" fill="#808080" d="M1920 1920l6400 0c353,0 640,287 640,640l0 4800 -7680 0 0 -4800c0,-353 287,-640 640,-640zm7040 6080c-177,0 -320,143 -320,320 0,177 143,320 320,320 177,0 320,-143 320,-320 0,-177 -143,-320 -320,-320zm-960 0c-177,0 -320,143 -320,320 0,177 143,320 320,320 177,0 320,-143 320,-320 0,-177 -143,-320 -320,-320zm-6080 -5440l0 4480 6400 0 0 -4480 -6400 0zm-960 5120l3520 0 0 320 1280 0 0 -320 3520 0c176,0 320,144 320,320l0 320c0,352 -287,640 -640,640l-7680 0c-353,0 -640,-288 -640,-640l0 -320c0,-176 144,-320 320,-320z"/>
	<path id="curve0" fill="#4D82B8" d="M2240,2880 8000,2880 8000,6720 2240,6720z"/>
</svg>
