<?xml version="1.0" encoding="UTF-8"?>
<!DOCTYPE svg PUBLIC "-//W3C//DTD SVG 1.1//EN" "http://www.w3.org/Graphics/SVG/1.1/DTD/svg11.dtd">
<svg xmlns="http://www.w3.org/2000/svg" xml:space="preserve" width="1024px" height="1024px" shape-rendering="geometricPrecision" text-rendering="geometricPrecision" image-rendering="optimizeQuality" fill-rule="nonzero" clip-rule="evenodd" viewBox="0 0 10240 10240" xmlns:xlink="http://www.w3.org/1999/xlink">
	<title>laser_pointer icon</title>
	<desc>laser_pointer icon from the IconExperience.com O-Collection. Copyright by INCORS GmbH (www.incors.com).</desc>
	<path id="curve1" fill="#E68497" d="M6904 3788l-2065 2066 -453 -453 2066 -2065 -436 180c-198,82 -315,-216 -122,-296l540 -224c-9,-38 -17,-76 -23,-116l-1131 0c-88,0 -160,-72 -160,-160 0,-88 72,-160 160,-160l1131 0c6,-40 14,-78 23,-116l-540 -224c-196,-81 -73,-377 122,-296l541 224c20,-34 42,-67 66,-99l-800 -800c-62,-62 -62,-164 0,-226 62,-62 164,-62 226,0l800 800c32,-24 65,-46 99,-66l-224 -541c-81,-195 215,-318 296,-122l224 540c38,-9 76,-17 116,-23l0 -1131c0,-88 72,-160 160,-160 88,0 160,72 160,160l0 1131c40,6 78,14 116,23l224 -540c81,-196 377,-73 296,122l-224 541c34,20 67,42 99,66l800 -800c62,-62 164,-62 226,0 62,62 62,164 0,226l-800 800c24,32 46,65 66,99l541 -224c195,-81 318,215 122,296l-540 224c9,38 17,76 23,116l1131 0c88,0 160,72 160,160 0,88 -72,160 -160,160l-1131 0c-6,40 -14,78 -23,116l540 224c196,81 73,377 -122,296l-541 -224c-20,34 -42,67 -66,99l800 800c62,62 62,164 0,226 -62,62 -164,62 -226,0l-800 -800c-32,24 -65,46 -99,66l224 541c81,195 -215,318 -296,122l-224 -541c-38,10 -76,18 -116,24l0 1131c0,88 -72,160 -160,160 -88,0 -160,-72 -160,-160l0 -1131c-40,-6 -78,-14 -116,-23l-224 540c-81,196 -377,73 -296,-122l180 -436z"/>
	<path id="curve0" fill="#808080" d="M733 8227l2787 -2787c125,-125 328,-125 453,0l827 827c125,125 125,328 0,453l-2787 2787c-124,124 -328,124 -452,0l-828 -828c-124,-124 -124,-328 0,-452zm3107 -2147c-177,0 -320,143 -320,320 0,177 143,320 320,320 177,0 320,-143 320,-320 0,-177 -143,-320 -320,-320z"/>
</svg>
