<?xml version="1.0" encoding="UTF-8"?>
<!DOCTYPE svg PUBLIC "-//W3C//DTD SVG 1.1//EN" "http://www.w3.org/Graphics/SVG/1.1/DTD/svg11.dtd">
<svg xmlns="http://www.w3.org/2000/svg" xml:space="preserve" width="1024px" height="1024px" shape-rendering="geometricPrecision" text-rendering="geometricPrecision" image-rendering="optimizeQuality" fill-rule="nonzero" clip-rule="evenodd" viewBox="0 0 10240 10240" xmlns:xlink="http://www.w3.org/1999/xlink">
	<title>laundry_machine icon</title>
	<desc>laundry_machine icon from the IconExperience.com O-Collection. Copyright by INCORS GmbH (www.incors.com).</desc>
	<path id="curve1" fill="#4D82B8" d="M5120 3840c1060,0 1920,860 1920,1920 0,1060 -860,1920 -1920,1920 -1060,0 -1920,-860 -1920,-1920 0,-1060 860,-1920 1920,-1920zm0 640c-707,0 -1280,573 -1280,1280 0,707 573,1280 1280,1280 382,0 725,-168 960,-433l0 -1694c-235,-265 -578,-433 -960,-433z"/>
	<path id="curve0" fill="#808080" d="M2240 640l2240 0 0 1600 -2560 0 0 -1280c0,-176 144,-320 320,-320zm2880 2880c-1237,0 -2240,1003 -2240,2240 0,1237 1003,2240 2240,2240 1237,0 2240,-1003 2240,-2240 0,-1237 -1003,-2240 -2240,-2240zm2560 -2240c-177,0 -320,143 -320,320 0,177 143,320 320,320 177,0 320,-143 320,-320 0,-177 -143,-320 -320,-320zm-960 0c-177,0 -320,143 -320,320 0,177 143,320 320,320 177,0 320,-143 320,-320 0,-177 -143,-320 -320,-320zm-2880 7680l0 640 -1280 0 0 -640 -320 0c-176,0 -320,-144 -320,-320l0 -6080c2133,0 4267,0 6400,0l0 6080c0,176 -144,320 -320,320l-320 0 0 640 -1280 0 0 -640 -2560 0zm960 -8320l3200 0c176,0 320,144 320,320l0 1280 -3520 0 0 -1600z"/>
</svg>
