<?xml version="1.0" encoding="UTF-8"?>
<!DOCTYPE svg PUBLIC "-//W3C//DTD SVG 1.1//EN" "http://www.w3.org/Graphics/SVG/1.1/DTD/svg11.dtd">
<svg xmlns="http://www.w3.org/2000/svg" xml:space="preserve" width="1024px" height="1024px" shape-rendering="geometricPrecision" text-rendering="geometricPrecision" image-rendering="optimizeQuality" fill-rule="nonzero" clip-rule="evenodd" viewBox="0 0 10240 10240" xmlns:xlink="http://www.w3.org/1999/xlink">
	<title>laurel_wreath icon</title>
	<desc>laurel_wreath icon from the IconExperience.com O-Collection. Copyright by INCORS GmbH (www.incors.com).</desc>
	<path id="curve1" fill="#76A797" d="M8285 3135c267,-161 464,-422 523,-736 75,-397 -88,-794 -404,-1041l-68 -54 -82 28c-338,115 -610,374 -720,710 -85,-83 -174,-163 -269,-237 -134,-258 -370,-455 -653,-551 -386,-132 -821,-64 -1144,188l-77 61 19 95c75,400 372,714 754,844 276,93 576,85 843,-18 171,154 320,329 446,519 -34,-9 -68,-16 -103,-22 -400,-66 -820,70 -1093,373l-66 74 36 92c148,380 497,639 896,705 273,45 554,-4 793,-136 39,172 65,347 78,521 -262,-194 -600,-273 -925,-220l-90 15 -33 85c-146,375 -64,793 205,1092 179,200 422,326 680,371 -53,163 -117,321 -192,473 -23,-54 -50,-108 -82,-160 -215,-348 -604,-547 -1010,-547l-89 0 -47 76c-212,343 -213,766 0,1110 134,216 334,375 564,464 -48,50 -98,100 -150,147 -914,854 -2192,1232 -3425,1077 -182,-23 -361,-58 -536,-103l-158 618c200,51 406,91 617,117 1387,175 2797,-228 3849,-1161 179,208 431,346 708,392 400,66 820,-70 1093,-373l66 -73 -36 -92c-149,-381 -497,-640 -896,-705 -59,-10 -117,-15 -176,-17 38,-57 75,-115 110,-174 335,92 701,40 994,-152 338,-221 536,-599 499,-1003l-9 -94 -87 -38c-279,-121 -594,-133 -878,-38 41,-201 67,-407 78,-617 327,-56 625,-242 803,-529 212,-344 212,-768 0,-1111l-47 -76 -89 0c-312,1 -613,118 -834,330 -51,-170 -113,-337 -186,-499z"/>
	<path id="curve0" fill="#76A797" d="M1795 3135c-267,-161 -463,-422 -523,-736 -75,-397 88,-794 404,-1041l68 -54 82 28c338,115 610,374 720,710 85,-83 174,-163 269,-237 134,-258 370,-455 653,-551 386,-132 821,-64 1144,188l77 61 -18 95c-76,400 -373,714 -755,844 -276,93 -576,85 -843,-18 -171,154 -320,329 -446,519 34,-9 68,-16 103,-22 400,-66 820,70 1093,373l66 74 -36 92c-148,380 -497,639 -896,705 -272,45 -554,-4 -793,-136 -39,172 -65,347 -78,521 262,-194 600,-273 925,-220l90 15 33 85c146,375 64,793 -205,1092 -179,200 -422,326 -680,371 53,163 117,321 192,473 23,-54 50,-108 82,-160 215,-348 604,-547 1010,-547l89 0 47 76c212,343 213,766 0,1110 -134,216 -334,375 -564,464 48,50 98,100 150,147 336,314 732,574 1170,762 -445,52 -901,32 -1339,-64 -60,-48 -120,-98 -178,-150 -178,208 -431,346 -708,392 -400,66 -820,-70 -1093,-373l-66 -73 36 -92c149,-381 497,-640 896,-705 59,-10 117,-15 176,-17 -38,-57 -75,-115 -110,-174 -335,92 -701,40 -994,-152 -338,-221 -536,-599 -499,-1003l9 -94 87 -38c279,-121 594,-133 878,-38 -41,-201 -67,-407 -78,-617 -327,-56 -625,-242 -803,-529 -212,-344 -212,-768 0,-1111l47 -76 89 0c312,1 613,118 834,330 51,-170 113,-337 186,-499zm5340 5315c14,-3 28,-6 41,-10 17,13 35,25 52,36l146 572c-200,51 -406,91 -616,117 -213,27 -423,41 -629,41 -112,0 -222,-4 -332,-11 479,-179 930,-428 1338,-745z"/>
</svg>
