<?xml version="1.0" encoding="UTF-8"?>
<!DOCTYPE svg PUBLIC "-//W3C//DTD SVG 1.1//EN" "http://www.w3.org/Graphics/SVG/1.1/DTD/svg11.dtd">
<svg xmlns="http://www.w3.org/2000/svg" xml:space="preserve" width="1024px" height="1024px" shape-rendering="geometricPrecision" text-rendering="geometricPrecision" image-rendering="optimizeQuality" fill-rule="nonzero" clip-rule="evenodd" viewBox="0 0 10240 10240" xmlns:xlink="http://www.w3.org/1999/xlink">
	<title>layout_southeast icon</title>
	<desc>layout_southeast icon from the IconExperience.com O-Collection. Copyright by INCORS GmbH (www.incors.com).</desc>
	<path id="curve2" fill="#808080" d="M8330,3840 8330,4160 6400,4160 6400,5760 6080,5760 6080,4160 4160,4160 4160,6080 5760,6080 5760,6400 4160,6400 4160,8330 3840,8330 3840,6400 1910,6400 1910,6080 3840,6080 3840,4160 1910,4160 1910,3840 3840,3840 3840,1910 4160,1910 4160,3840 6080,3840 6080,1910 6400,1910 6400,3840z"/>
	<path id="curve1" fill="#808080" d="M1280,640 1920,640 1920,1280 8320,1280 8320,640 8960,640 8960,1280 9600,1280 9600,1920 8960,1920 8960,8320 9600,8320 9600,8960 8960,8960 8960,9600 8320,9600 8320,8960 8960,8960 8960,5760 8320,5760 8320,1920 1920,1920 1920,8320 5760,8320 5760,8960 1920,8960 1920,9600 1280,9600 1280,8960 640,8960 640,8320 1280,8320 1280,1920 640,1920 640,1280 1280,1280z"/>
	<path id="curve0" fill="#ED9A56" d="M8640,8640 6080,8640 6080,6080 8640,6080z"/>
</svg>
