<?xml version="1.0" encoding="UTF-8"?>
<!DOCTYPE svg PUBLIC "-//W3C//DTD SVG 1.1//EN" "http://www.w3.org/Graphics/SVG/1.1/DTD/svg11.dtd">
<svg xmlns="http://www.w3.org/2000/svg" xml:space="preserve" width="1024px" height="1024px" shape-rendering="geometricPrecision" text-rendering="geometricPrecision" image-rendering="optimizeQuality" fill-rule="nonzero" clip-rule="evenodd" viewBox="0 0 10240 10240" xmlns:xlink="http://www.w3.org/1999/xlink">
	<title>layout_northwest icon</title>
	<desc>layout_northwest icon from the IconExperience.com O-Collection. Copyright by INCORS GmbH (www.incors.com).</desc>
	<path id="curve2" fill="#808080" d="M8330,3840 8330,4160 6400,4160 6400,6080 8330,6080 8330,6400 6400,6400 6400,8330 6080,8330 6080,6400 4160,6400 4160,8330 3840,8330 3840,6400 1910,6400 1910,6080 3840,6080 3840,4480 4160,4480 4160,6080 6080,6080 6080,4160 4480,4160 4480,3840 6080,3840 6080,1910 6400,1910 6400,3840z"/>
	<path id="curve1" fill="#808080" d="M1280 640l640 0 0 640 -640 0 0 -640zm3200 640l3840 0 0 -640 640 0 0 640 640 0 0 640 -640 0 0 6400 640 0 0 640 -640 0 0 640 -640 0 0 -640 -6400 0 0 640 -640 0 0 -640 -640 0 0 -640 640 0 0 -3840 640 0 0 3840 6400 0 0 -6400 -3840 0 0 -640zm-3200 640l-640 0 0 -640 640 0 0 640z"/>
	<path id="curve0" fill="#ED9A56" d="M1600,1600 4160,1600 4160,4160 1600,4160z"/>
</svg>
