<?xml version="1.0" encoding="UTF-8"?>
<!DOCTYPE svg PUBLIC "-//W3C//DTD SVG 1.1//EN" "http://www.w3.org/Graphics/SVG/1.1/DTD/svg11.dtd">
<svg xmlns="http://www.w3.org/2000/svg" xml:space="preserve" width="1024px" height="1024px" shape-rendering="geometricPrecision" text-rendering="geometricPrecision" image-rendering="optimizeQuality" fill-rule="nonzero" clip-rule="evenodd" viewBox="0 0 10240 10240" xmlns:xlink="http://www.w3.org/1999/xlink">
	<title>layout_east icon</title>
	<desc>layout_east icon from the IconExperience.com O-Collection. Copyright by INCORS GmbH (www.incors.com).</desc>
	<path id="curve2" fill="#808080" d="M6400 6720l0 1610 -320 0 0 -1610 320 0zm-640 -320l-1600 0 0 1930 -320 0 0 -1930 -1930 0 0 -320 1930 0 0 -1920 -1930 0 0 -320 1930 0 0 -1930 320 0 0 1930 1600 0 0 320 -1600 0 0 1920 1600 0 0 320zm320 -2880l0 -1610 320 0 0 1610 -320 0z"/>
	<path id="curve1" fill="#808080" d="M1280,640 1920,640 1920,1280 8320,1280 8320,640 8960,640 8960,1280 9600,1280 9600,1920 8960,1920 8960,3520 8320,3520 8320,1920 1920,1920 1920,8320 8320,8320 8320,6720 8960,6720 8960,8320 9600,8320 9600,8960 8960,8960 8960,9600 8320,9600 8320,8960 1920,8960 1920,9600 1280,9600 1280,8960 640,8960 640,8320 1280,8320 1280,1920 640,1920 640,1280 1280,1280z"/>
	<path id="curve0" fill="#ED9A56" d="M8640,3840 8640,6400 6080,6400 6080,3840z"/>
</svg>
