<?xml version="1.0" encoding="UTF-8"?>
<!DOCTYPE svg PUBLIC "-//W3C//DTD SVG 1.1//EN" "http://www.w3.org/Graphics/SVG/1.1/DTD/svg11.dtd">
<svg xmlns="http://www.w3.org/2000/svg" xml:space="preserve" width="1024px" height="1024px" shape-rendering="geometricPrecision" text-rendering="geometricPrecision" image-rendering="optimizeQuality" fill-rule="nonzero" clip-rule="evenodd" viewBox="0 0 10240 10240" xmlns:xlink="http://www.w3.org/1999/xlink">
	<title>layout_vertical icon</title>
	<desc>layout_vertical icon from the IconExperience.com O-Collection. Copyright by INCORS GmbH (www.incors.com).</desc>
	<path id="curve2" fill="#808080" d="M8330 3840l0 320 -1610 0 0 -320 1610 0zm-1610 2240l1610 0 0 320 -1610 0 0 -320zm-3200 320l-1610 0 0 -320 1610 0 0 320zm0 -2240l-1610 0 0 -320 1610 0 0 320z"/>
	<path id="curve1" fill="#808080" d="M1280 640l640 0 0 640 1600 0 0 640 -1600 0 0 6400 1600 0 0 640 -1600 0 0 640 -640 0 0 -640 -640 0 0 -640 640 0 0 -6400 -640 0 0 -640 640 0 0 -640zm5440 640l1600 0 0 -640 640 0 0 640 640 0 0 640 -640 0 0 6400 640 0 0 640 -640 0 0 640 -640 0 0 -640 -1600 0 0 -640 1600 0 0 -6400 -1600 0 0 -640z"/>
	<path id="curve0" fill="#ED9A56" d="M3840,8960 3840,1280 6400,1280 6400,8960z"/>
</svg>
