<?xml version="1.0" encoding="UTF-8"?>
<!DOCTYPE svg PUBLIC "-//W3C//DTD SVG 1.1//EN" "http://www.w3.org/Graphics/SVG/1.1/DTD/svg11.dtd">
<svg xmlns="http://www.w3.org/2000/svg" xml:space="preserve" width="1024px" height="1024px" shape-rendering="geometricPrecision" text-rendering="geometricPrecision" image-rendering="optimizeQuality" fill-rule="nonzero" clip-rule="evenodd" viewBox="0 0 10240 10240" xmlns:xlink="http://www.w3.org/1999/xlink">
	<title>lectern icon</title>
	<desc>lectern icon from the IconExperience.com O-Collection. Copyright by INCORS GmbH (www.incors.com).</desc>
	<path id="curve2" fill="#808080" d="M2747 8133l906 -906c124,-124 187,-276 187,-452l0 -1975 2560 0 0 1975c0,176 63,328 187,452l906 906c124,124 187,276 187,452l0 1015 -5120 0 0 -1015c0,-176 63,-328 187,-452z"/>
	<path id="curve1" fill="#808080" d="M1920 3200l6400 0 0 960c0,176 -144,320 -320,320l-5760 0c-176,0 -320,-144 -320,-320l0 -960z"/>
	<path id="curve0" fill="#4D82B8" d="M5333 640c326,0 609,137 753,338 462,54 821,225 1085,488 344,345 509,833 509,1414l-640 0c0,-411 -104,-744 -321,-961 -155,-154 -374,-258 -663,-299 -150,180 -418,300 -723,300 -471,0 -853,-287 -853,-640 0,-353 382,-640 853,-640z"/>
</svg>
