<?xml version="1.0" encoding="UTF-8"?>
<!DOCTYPE svg PUBLIC "-//W3C//DTD SVG 1.1//EN" "http://www.w3.org/Graphics/SVG/1.1/DTD/svg11.dtd">
<svg xmlns="http://www.w3.org/2000/svg" xml:space="preserve" width="1024px" height="1024px" shape-rendering="geometricPrecision" text-rendering="geometricPrecision" image-rendering="optimizeQuality" fill-rule="nonzero" clip-rule="evenodd" viewBox="0 0 10240 10240" xmlns:xlink="http://www.w3.org/1999/xlink">
	<title>led icon</title>
	<desc>led icon from the IconExperience.com O-Collection. Copyright by INCORS GmbH (www.incors.com).</desc>
	<path id="curve2" fill="#EDC87E" d="M5120 640c1414,0 2560,1146 2560,2560l0 2240 -5120 0 0 -2240c0,-1414 1146,-2560 2560,-2560zm0 640c-1060,0 -1920,860 -1920,1920l0 1280c0,176 144,320 320,320 176,0 320,-144 320,-320l0 -1280c0,-707 573,-1280 1280,-1280 19,0 37,0 56,1 153,7 287,-93 324,-242 50,-197 -93,-388 -296,-397 -28,-1 -56,-2 -84,-2zm-3200 4485l6400 0 0 1280 -6400 0 0 -1280z"/>
	<path id="curve1" fill="#808080" d="M6080 7360l960 0 0 1920c0,176 -144,320 -320,320l-320 0c-176,0 -320,-144 -320,-320l0 -1920z"/>
	<path id="curve0" fill="#808080" d="M3200 7360l960 0 0 1920c0,176 -144,320 -320,320l-320 0c-176,0 -320,-144 -320,-320l0 -1920z"/>
</svg>
