<?xml version="1.0" encoding="UTF-8"?>
<!DOCTYPE svg PUBLIC "-//W3C//DTD SVG 1.1//EN" "http://www.w3.org/Graphics/SVG/1.1/DTD/svg11.dtd">
<svg xmlns="http://www.w3.org/2000/svg" xml:space="preserve" width="1024px" height="1024px" shape-rendering="geometricPrecision" text-rendering="geometricPrecision" image-rendering="optimizeQuality" fill-rule="nonzero" clip-rule="evenodd" viewBox="0 0 10240 10240" xmlns:xlink="http://www.w3.org/1999/xlink">
	<title>lemon icon</title>
	<desc>lemon icon from the IconExperience.com O-Collection. Copyright by INCORS GmbH (www.incors.com).</desc>
	<path id="curve0" fill="#EDC87E" d="M5120 1920c1713,0 3164,935 3658,2226l663 441c184,123 285,312 285,533 0,221 -101,410 -285,533l-663 441c-494,1291 -1945,2226 -3658,2226 -1713,0 -3164,-935 -3659,-2226l-662 -441c-184,-123 -285,-312 -285,-533 0,-221 101,-410 285,-533l663 -441c494,-1291 1945,-2226 3658,-2226zm0 640c-1767,0 -3200,1146 -3200,2560 0,153 17,303 49,449 19,87 68,156 144,203 75,46 157,60 242,39 169,-40 276,-209 239,-379 -22,-102 -34,-206 -34,-312 0,-1060 1146,-1920 2560,-1920 70,0 140,2 209,6 155,10 291,-90 330,-240 24,-96 6,-188 -52,-268 -58,-79 -140,-124 -239,-130 -82,-5 -165,-8 -248,-8z"/>
</svg>
