<?xml version="1.0" encoding="UTF-8"?>
<!DOCTYPE svg PUBLIC "-//W3C//DTD SVG 1.1//EN" "http://www.w3.org/Graphics/SVG/1.1/DTD/svg11.dtd">
<svg xmlns="http://www.w3.org/2000/svg" xml:space="preserve" width="1024px" height="1024px" shape-rendering="geometricPrecision" text-rendering="geometricPrecision" image-rendering="optimizeQuality" fill-rule="nonzero" clip-rule="evenodd" viewBox="0 0 10240 10240" xmlns:xlink="http://www.w3.org/1999/xlink">
	<title>lemonade_glass icon</title>
	<desc>lemonade_glass icon from the IconExperience.com O-Collection. Copyright by INCORS GmbH (www.incors.com).</desc>
	<path id="curve3" fill="#EDC87E" d="M7520 640c-984,0 -1808,683 -2024,1600l666 0c198,-559 731,-960 1358,-960 795,0 1440,645 1440,1440 0,551 -310,1030 -765,1272l-65 717c851,-260 1470,-1052 1470,-1989 0,-1149 -931,-2080 -2080,-2080z"/>
	<path id="curve2" fill="#EDC87E" d="M3435,5120 3784,8960 6456,8960 6807,5120z"/>
	<path id="curve1" fill="#808080" d="M7969 2937l-611 6692c-15,165 -155,290 -318,290l-3840 1c-176,0 -319,-143 -320,-319l-608 -6692c-17,-186 131,-348 317,-348l5065 -1c215,0 333,175 315,377zm-1220 6343l556 -6080 -4367 0 553 6080 3258 0z"/>
	<path id="curve0" fill="#808080" d="M466 1652l1333 -867c384,-250 842,-279 1255,-79 413,200 674,579 716,1036l45 498 -640 0 -40 -441c-21,-232 -148,-416 -359,-518 -210,-102 -433,-88 -630,39l-1332 867 -348 -535zm3465 1868l117 1280 -641 0 -116 -1280 640 0z"/>
</svg>
