<?xml version="1.0" encoding="UTF-8"?>
<!DOCTYPE svg PUBLIC "-//W3C//DTD SVG 1.1//EN" "http://www.w3.org/Graphics/SVG/1.1/DTD/svg11.dtd">
<svg xmlns="http://www.w3.org/2000/svg" xml:space="preserve" width="1024px" height="1024px" shape-rendering="geometricPrecision" text-rendering="geometricPrecision" image-rendering="optimizeQuality" fill-rule="nonzero" clip-rule="evenodd" viewBox="0 0 10240 10240" xmlns:xlink="http://www.w3.org/1999/xlink">
	<title>lighthouse icon</title>
	<desc>lighthouse icon from the IconExperience.com O-Collection. Copyright by INCORS GmbH (www.incors.com).</desc>
	<path id="curve3" fill="#808080" d="M1280,8960 8960,8960 8960,9600 1280,9600z"/>
	<path id="curve2" fill="#808080" d="M3481 5120l-183 1280 1724 0 -183 -1280 -1358 0zm-921 -1280l3200 0 0 507c0,89 -31,164 -94,227l-113 113c-73,73 -105,168 -90,271l288 2017c6,45 14,84 25,129l464 1856 -660 0 -320 -1280 -2200 0 -320 1280 -660 0 464 -1856c11,-45 19,-84 25,-129l288 -2017c15,-103 -17,-198 -90,-271l-113 -113c-63,-63 -94,-138 -94,-227l0 -507z"/>
	<path id="curve1" fill="#EDC87E" d="M9067 1312c-428,129 -747,663 -747,1248 0,585 270,1037 647,1210l-4007 -890c-259,-58 -480,-215 -480,-480 0,-265 218,-441 480,-480l4107 -608z"/>
	<path id="curve0" fill="#808080" d="M3057 1192l960 -480c93,-47 193,-47 286,0l960 480c111,55 177,162 177,286l0 282c-134,-100 -300,-160 -480,-160 -442,0 -800,358 -800,800 0,442 358,800 800,800 180,0 346,-60 480,-160l0 480 -2560 0 0 -2042c0,-124 66,-231 177,-286z"/>
</svg>
