<?xml version="1.0" encoding="UTF-8"?>
<!DOCTYPE svg PUBLIC "-//W3C//DTD SVG 1.1//EN" "http://www.w3.org/Graphics/SVG/1.1/DTD/svg11.dtd">
<svg xmlns="http://www.w3.org/2000/svg" xml:space="preserve" width="1024px" height="1024px" shape-rendering="geometricPrecision" text-rendering="geometricPrecision" image-rendering="optimizeQuality" fill-rule="nonzero" clip-rule="evenodd" viewBox="0 0 10240 10240" xmlns:xlink="http://www.w3.org/1999/xlink">
	<title>line_spacing_paragraph icon</title>
	<desc>line_spacing_paragraph icon from the IconExperience.com O-Collection. Copyright by INCORS GmbH (www.incors.com).</desc>
	<path id="curve2" fill="#4D82B8" d="M7774 7200l753 -753c62,-63 164,-63 226,0l753 753c63,62 94,138 94,226l0 538c0,50 -28,92 -74,111 -46,19 -98,11 -131,-26l-435 -505 0 1416 -640 0 0 -1416 -435 505c-33,37 -85,45 -131,26 -46,-19 -74,-61 -74,-111l0 -538c0,-88 31,-164 94,-226zm0 -4160l753 753c62,63 164,63 226,0l753 -753c63,-62 94,-138 94,-226l0 -538c0,-50 -28,-92 -74,-111 -46,-19 -98,-11 -131,26l-435 505 0 -1416 -640 0 0 1416 -435 -505c-33,-37 -85,-45 -131,-26 -46,19 -74,61 -74,111l0 538c0,88 31,164 94,226z"/>
	<path id="curve1" fill="#808080" d="M640 1280l5760 0 0 640 -5760 0 0 -640zm0 7040l4480 0 0 640 -4480 0 0 -640zm0 -4480l2560 0 0 640 -2560 0 0 -640zm0 3200l5760 0 0 640 -5760 0 0 -640zm0 -1280l5760 0 0 640 -5760 0 0 -640zm0 -3200l5760 0 0 640 -5760 0 0 -640z"/>
	<path id="curve0" fill="#4D82B8" d="M7040 5760l2560 0 0 640 -2560 0 0 -640zm0 -1920l2560 0 0 640 -2560 0 0 -640z"/>
</svg>
