<?xml version="1.0" encoding="UTF-8"?>
<!DOCTYPE svg PUBLIC "-//W3C//DTD SVG 1.1//EN" "http://www.w3.org/Graphics/SVG/1.1/DTD/svg11.dtd">
<svg xmlns="http://www.w3.org/2000/svg" xml:space="preserve" width="1024px" height="1024px" shape-rendering="geometricPrecision" text-rendering="geometricPrecision" image-rendering="optimizeQuality" fill-rule="nonzero" clip-rule="evenodd" viewBox="0 0 10240 10240" xmlns:xlink="http://www.w3.org/1999/xlink">
	<title>lipstick icon</title>
	<desc>lipstick icon from the IconExperience.com O-Collection. Copyright by INCORS GmbH (www.incors.com).</desc>
	<path id="curve1" fill="#808080" d="M6720 5760l0 3440c0,221 -716,400 -1600,400 -884,0 -1600,-179 -1600,-400l0 -3440c0,603 1197,640 1600,640 403,0 1600,-37 1600,-640zm-2559 1247l0 1594c0,176 143,319 319,319 176,0 319,-143 319,-319l0 -1594c0,-176 -143,-319 -319,-319 -176,0 -319,143 -319,319zm319 -2617l0 718c0,177 143,320 320,320 177,0 320,-143 320,-320l0 -718c0,-176 -143,-320 -320,-320 -177,0 -320,144 -320,320zm1920 1370c0,177 -573,320 -1280,320 -707,0 -1280,-143 -1280,-320l0 -2560c0,523 921,560 1280,560 359,0 1280,-37 1280,-560"/>
	<path id="curve0" fill="#E68497" d="M5921 1238c250,468 200,982 -112,1148 -312,167 -767,-78 -1017,-545 -250,-468 -199,-982 113,-1149 311,-166 767,78 1016,546zm159 1350l0 612c0,133 -430,240 -960,240 -530,0 -960,-107 -960,-240l0 -1280c0,-232 57,-465 154,-667 8,520 302,1068 747,1343 223,137 492,206 750,132 98,-28 190,-75 269,-140z"/>
</svg>
