<?xml version="1.0" encoding="UTF-8"?>
<!DOCTYPE svg PUBLIC "-//W3C//DTD SVG 1.1//EN" "http://www.w3.org/Graphics/SVG/1.1/DTD/svg11.dtd">
<svg xmlns="http://www.w3.org/2000/svg" xml:space="preserve" width="1024px" height="1024px" shape-rendering="geometricPrecision" text-rendering="geometricPrecision" image-rendering="optimizeQuality" fill-rule="nonzero" clip-rule="evenodd" viewBox="0 0 10240 10240" xmlns:xlink="http://www.w3.org/1999/xlink">
	<title>list_style_roman icon</title>
	<desc>list_style_roman icon from the IconExperience.com O-Collection. Copyright by INCORS GmbH (www.incors.com).</desc>
	<path id="curve1" fill="#808080" d="M4480 1280l4480 0 0 640 -4480 0 0 -640zm0 2560l1920 0 0 640 -1920 0 0 -640zm0 4480l3200 0 0 640 -3200 0 0 -640zm0 -1280l4480 0 0 640 -4480 0 0 -640zm0 -1280l4480 0 0 640 -4480 0 0 -640zm0 -3200l4480 0 0 640 -4480 0 0 -640z"/>
	<path id="curve0" fill="#4D82B8" d="M2560 1920l0 1280 640 0 0 640 -1920 0 0 -640 640 0 0 -1280 -640 0 0 -640 1920 0 0 640 -640 0zm640 4480l0 1280 320 0 0 640 -2560 0 0 -640 320 0 0 -1280 -320 0 0 -640 2560 0 0 640 -320 0zm-640 1280l0 -1280 -640 0 0 1280 640 0z"/>
</svg>
