<?xml version="1.0" encoding="UTF-8"?>
<!DOCTYPE svg PUBLIC "-//W3C//DTD SVG 1.1//EN" "http://www.w3.org/Graphics/SVG/1.1/DTD/svg11.dtd">
<svg xmlns="http://www.w3.org/2000/svg" xml:space="preserve" width="1024px" height="1024px" shape-rendering="geometricPrecision" text-rendering="geometricPrecision" image-rendering="optimizeQuality" fill-rule="nonzero" clip-rule="evenodd" viewBox="0 0 10240 10240" xmlns:xlink="http://www.w3.org/1999/xlink">
	<title>list_style_numbered icon</title>
	<desc>list_style_numbered icon from the IconExperience.com O-Collection. Copyright by INCORS GmbH (www.incors.com).</desc>
	<path id="curve1" fill="#808080" d="M4480 1280l4480 0 0 640 -4480 0 0 -640zm0 4480l4480 0 0 640 -4480 0 0 -640zm0 2560l3200 0 0 640 -3200 0 0 -640zm0 -1280l4480 0 0 640 -4480 0 0 -640zm0 -3200l1920 0 0 640 -1920 0 0 -640zm0 -1280l4480 0 0 640 -4480 0 0 -640z"/>
	<path id="curve0" fill="#4D82B8" d="M1280 3201l640 0 0 -1280 -320 0 0 -640 960 0 0 1920 640 0 0 640 -1920 0 0 -640zm2 4799c0,-93 41,-186 119,-249l499 -399c209,-167 651,-452 651,-723 1,-153 -201,-229 -332,-230 -210,-2 -299,135 -299,338l-640 0c0,-573 374,-980 944,-976 490,4 966,342 965,868 -1,488 -360,812 -668,1051l679 0 0 640 -1920 0 2 -320z"/>
</svg>
