<?xml version="1.0" encoding="UTF-8"?>
<!DOCTYPE svg PUBLIC "-//W3C//DTD SVG 1.1//EN" "http://www.w3.org/Graphics/SVG/1.1/DTD/svg11.dtd">
<svg xmlns="http://www.w3.org/2000/svg" xml:space="preserve" width="1024px" height="1024px" shape-rendering="geometricPrecision" text-rendering="geometricPrecision" image-rendering="optimizeQuality" fill-rule="nonzero" clip-rule="evenodd" viewBox="0 0 10240 10240" xmlns:xlink="http://www.w3.org/1999/xlink">
	<title>lock2 icon</title>
	<desc>lock2 icon from the IconExperience.com O-Collection. Copyright by INCORS GmbH (www.incors.com).</desc>
	<path id="curve1" fill="#808080" d="M5120 3200c1767,0 3200,1433 3200,3200 0,1767 -1433,3200 -3200,3200 -1767,0 -3200,-1433 -3200,-3200 0,-1767 1433,-3200 3200,-3200zm0 1920c353,0 640,287 640,640 0,173 -69,330 -180,445 -36,38 -52,86 -43,138l192 1151c8,48 -4,92 -36,129 -31,38 -73,57 -122,57l-902 0c-49,0 -91,-19 -122,-57 -32,-37 -44,-81 -36,-129l192 -1151c9,-52 -6,-100 -43,-138 -111,-115 -180,-272 -180,-445 0,-353 287,-640 640,-640zm0 -1280c-1414,0 -2560,1146 -2560,2560 0,1414 1146,2560 2560,2560 1414,0 2560,-1146 2560,-2560 0,-1414 -1146,-2560 -2560,-2560zm0 320c-1237,0 -2240,1003 -2240,2240 0,1237 1003,2240 2240,2240 1237,0 2240,-1003 2240,-2240 0,-1237 -1003,-2240 -2240,-2240z"/>
	<path id="curve0" fill="#808080" d="M5120 640c1414,0 2560,1146 2560,2560l0 784c-275,-291 -600,-536 -960,-720l0 -64c0,-884 -716,-1600 -1600,-1600 -884,0 -1600,716 -1600,1600l0 64c-360,184 -685,429 -960,720l0 -784c0,-1414 1146,-2560 2560,-2560z"/>
</svg>
