<?xml version="1.0" encoding="UTF-8"?>
<!DOCTYPE svg PUBLIC "-//W3C//DTD SVG 1.1//EN" "http://www.w3.org/Graphics/SVG/1.1/DTD/svg11.dtd">
<svg xmlns="http://www.w3.org/2000/svg" xml:space="preserve" width="1024px" height="1024px" shape-rendering="geometricPrecision" text-rendering="geometricPrecision" image-rendering="optimizeQuality" fill-rule="nonzero" clip-rule="evenodd" viewBox="0 0 10240 10240" xmlns:xlink="http://www.w3.org/1999/xlink">
	<title>lock3 icon</title>
	<desc>lock3 icon from the IconExperience.com O-Collection. Copyright by INCORS GmbH (www.incors.com).</desc>
	<path id="curve2" fill="#808080" d="M5120 3200c1767,0 3200,1433 3200,3200 0,1767 -1433,3200 -3200,3200 -1767,0 -3200,-1433 -3200,-3200 0,-1767 1433,-3200 3200,-3200zm0 640c-1414,0 -2560,1146 -2560,2560 0,1414 1146,2560 2560,2560 1414,0 2560,-1146 2560,-2560 0,-1414 -1146,-2560 -2560,-2560z"/>
	<path id="curve1" fill="#4D82B8" d="M5440 5160c552,142 960,644 960,1240 0,707 -573,1280 -1280,1280 -707,0 -1280,-573 -1280,-1280 0,-596 408,-1098 960,-1240l0 686c-191,110 -320,317 -320,554 0,353 287,640 640,640 353,0 640,-287 640,-640 0,-237 -129,-444 -320,-554l0 -686zm936 -615l-157 272 -278 -160 158 -272c-251,-122 -527,-199 -819,-219l0 314 -320 0 0 -314c-292,20 -568,97 -819,219l158 272 -278 160 -157 -272c-236,160 -439,363 -599,599l272 157 -160 278 -272 -158c-122,251 -199,527 -219,819l314 0 0 320 -314 0c20,292 97,568 219,819l272 -158 160 278 -272 157c160,236 363,439 599,599l157 -272 278 160 -158 272c251,122 527,199 819,219l0 -314 320 0 0 314c292,-20 568,-97 819,-219l-158 -272 278 -160 157 272c236,-160 439,-363 599,-599l-272 -157 160 -278 272 158c122,-251 199,-527 219,-819l-314 0 0 -320 314 0c-20,-292 -97,-568 -219,-819l-272 158 -160 -278 272 -157c-160,-236 -363,-439 -599,-599z"/>
	<path id="curve0" fill="#808080" d="M5120 640c1414,0 2560,1146 2560,2560l0 784c-275,-291 -600,-536 -960,-720l0 -64c0,-884 -716,-1600 -1600,-1600 -884,0 -1600,716 -1600,1600l0 64c-360,184 -685,429 -960,720l0 -784c0,-1414 1146,-2560 2560,-2560z"/>
</svg>
