<?xml version="1.0" encoding="UTF-8"?>
<!DOCTYPE svg PUBLIC "-//W3C//DTD SVG 1.1//EN" "http://www.w3.org/Graphics/SVG/1.1/DTD/svg11.dtd">
<svg xmlns="http://www.w3.org/2000/svg" xml:space="preserve" width="1024px" height="1024px" shape-rendering="geometricPrecision" text-rendering="geometricPrecision" image-rendering="optimizeQuality" fill-rule="nonzero" clip-rule="evenodd" viewBox="0 0 10240 10240" xmlns:xlink="http://www.w3.org/1999/xlink">
	<title>log icon</title>
	<desc>log icon from the IconExperience.com O-Collection. Copyright by INCORS GmbH (www.incors.com).</desc>
	<path id="curve0" fill="#B89A7C" d="M6549 1429c624,-625 1638,-625 2262,0 625,624 625,1638 0,2262l-5120 5120c-289,290 -689,469 -1131,469 -884,0 -1600,-716 -1600,-1600 0,-442 179,-842 469,-1131l5120 -5120zm-4442 5798c-249,250 -249,656 0,906 250,249 656,249 906,0 249,-250 249,-656 0,-906 -250,-249 -656,-249 -906,0zm-452 -452c-500,500 -500,1310 0,1810 500,500 1310,500 1810,0 500,-500 500,-1310 0,-1810 -500,-500 -1310,-500 -1810,0zm226 226c375,-375 983,-375 1358,0 375,375 375,983 0,1358 -375,375 -983,375 -1358,0 -375,-375 -375,-983 0,-1358zm453 453c125,-125 327,-125 452,0 125,125 125,327 0,452 -125,125 -327,125 -452,0 -125,-125 -125,-327 0,-452z"/>
</svg>
