<?xml version="1.0" encoding="UTF-8"?>
<!DOCTYPE svg PUBLIC "-//W3C//DTD SVG 1.1//EN" "http://www.w3.org/Graphics/SVG/1.1/DTD/svg11.dtd">
<svg xmlns="http://www.w3.org/2000/svg" xml:space="preserve" width="1024px" height="1024px" shape-rendering="geometricPrecision" text-rendering="geometricPrecision" image-rendering="optimizeQuality" fill-rule="nonzero" clip-rule="evenodd" viewBox="0 0 10240 10240" xmlns:xlink="http://www.w3.org/1999/xlink">
	<title>log_out icon</title>
	<desc>log_out icon from the IconExperience.com O-Collection. Copyright by INCORS GmbH (www.incors.com).</desc>
	<path id="curve1" fill="#EDC87E" d="M4060 5760l4580 0c176,0 320,144 320,320l0 640c0,176 -144,320 -320,320l-320 0 0 1280 -640 0 0 -320 -640 0 0 320 -640 0 0 -1280 -2340 0c-242,746 -894,1280 -1660,1280 -972,0 -1760,-860 -1760,-1920 0,-1060 788,-1920 1760,-1920 766,0 1418,534 1660,1280zm-1660 -320c-442,0 -800,430 -800,960 0,530 358,960 800,960 442,0 800,-430 800,-960 0,-530 -358,-960 -800,-960z"/>
	<path id="curve0" fill="#E68497" d="M7322 5027l-922 -922 -921 922c-125,124 -328,124 -452,0l-453 -453c-125,-125 -125,-328 0,-452l921 -922 -921 -921c-125,-125 -125,-328 0,-452l453 -453c124,-125 327,-125 452,0l921 921 922 -921c124,-125 327,-125 452,0l453 453c124,124 124,327 0,452l-922 921 922 922c124,124 124,327 0,452l-453 453c-125,124 -328,124 -452,0z"/>
</svg>
