<?xml version="1.0" encoding="UTF-8"?>
<!DOCTYPE svg PUBLIC "-//W3C//DTD SVG 1.1//EN" "http://www.w3.org/Graphics/SVG/1.1/DTD/svg11.dtd">
<svg xmlns="http://www.w3.org/2000/svg" xml:space="preserve" width="1024px" height="1024px" shape-rendering="geometricPrecision" text-rendering="geometricPrecision" image-rendering="optimizeQuality" fill-rule="nonzero" clip-rule="evenodd" viewBox="0 0 10240 10240" xmlns:xlink="http://www.w3.org/1999/xlink">
	<title>log_in icon</title>
	<desc>log_in icon from the IconExperience.com O-Collection. Copyright by INCORS GmbH (www.incors.com).</desc>
	<path id="curve1" fill="#EDC87E" d="M4060 5760l4580 0c176,0 320,144 320,320l0 640c0,176 -144,320 -320,320l-320 0 0 1280 -640 0 0 -320 -640 0 0 320 -640 0 0 -1280 -2340 0c-242,746 -894,1280 -1660,1280 -972,0 -1760,-860 -1760,-1920 0,-1060 788,-1920 1760,-1920 766,0 1418,534 1660,1280zm-1660 -320c-442,0 -800,430 -800,960 0,530 358,960 800,960 442,0 800,-430 800,-960 0,-530 -358,-960 -800,-960z"/>
	<path id="curve0" fill="#4D82B8" d="M7493 4933l1506 -1507c124,-124 124,-328 0,-452l-1506 -1507c-125,-124 -277,-187 -453,-187l-1159 0c-66,0 -122,38 -147,99 -26,61 -12,127 34,174l1007 1007 -2135 0c-88,0 -160,72 -160,160l0 960c0,88 72,160 160,160l2135 0 -1007 1007c-46,47 -60,113 -34,174 25,61 81,99 147,99l1159 0c176,0 328,-63 453,-187z"/>
</svg>
