<?xml version="1.0" encoding="UTF-8"?>
<!DOCTYPE svg PUBLIC "-//W3C//DTD SVG 1.1//EN" "http://www.w3.org/Graphics/SVG/1.1/DTD/svg11.dtd">
<svg xmlns="http://www.w3.org/2000/svg" xml:space="preserve" width="1024px" height="1024px" shape-rendering="geometricPrecision" text-rendering="geometricPrecision" image-rendering="optimizeQuality" fill-rule="nonzero" clip-rule="evenodd" viewBox="0 0 10240 10240" xmlns:xlink="http://www.w3.org/1999/xlink">
	<title>logs icon</title>
	<desc>logs icon from the IconExperience.com O-Collection. Copyright by INCORS GmbH (www.incors.com).</desc>
	<path id="curve2" fill="#B89A7C" d="M2826 9225c-500,500 -1310,500 -1810,0 -500,-500 -500,-1310 0,-1810l899 -899c76,159 180,309 313,441 342,342 800,497 1247,465 -275,404 -344,907 -208,1362l-441 441zm-1131 -1131c-125,125 -125,327 0,452 125,125 327,125 452,0 125,-125 125,-327 0,-452 -125,-125 -327,-125 -452,0zm-453 -453c-375,375 -375,983 0,1358 375,375 983,375 1358,0 375,-375 375,-983 0,-1358 -375,-375 -983,-375 -1358,0zm226 226c250,-249 656,-249 906,0 249,250 249,656 0,906 -250,249 -656,249 -906,0 -250,-250 -250,-656 0,-906z"/>
	<path id="curve1" fill="#B89A7C" d="M5704 9225c-500,500 -1310,500 -1810,0 -500,-500 -500,-1310 0,-1810l136 -136c167,-77 323,-184 460,-322l3341 -3341c463,-190 1016,-98 1392,279 500,500 500,1310 0,1810l-3519 3520zm-1131 -1131c-125,125 -125,327 0,452 125,125 327,125 452,0 125,-125 125,-327 0,-452 -125,-125 -327,-125 -452,0zm-453 -453c-375,375 -375,983 0,1358 375,375 983,375 1358,0 375,-375 375,-983 0,-1358 -375,-375 -983,-375 -1358,0zm227 226c249,-249 655,-249 905,0 250,250 250,656 0,906 -250,249 -656,249 -905,0 -250,-250 -250,-656 0,-906z"/>
	<path id="curve0" fill="#B89A7C" d="M4264 6731c-500,500 -1310,500 -1810,0 -500,-500 -500,-1310 0,-1810l3519 -3520c500,-500 1310,-500 1810,0 500,500 500,1310 0,1810l-3519 3520zm-1131 -1131c125,-125 327,-125 452,0 125,125 125,327 0,452 -125,125 -327,125 -452,0 -125,-125 -125,-327 0,-452zm-453 -453c-375,375 -375,983 0,1358 375,375 983,375 1358,0 375,-375 375,-983 0,-1358 -375,-375 -983,-375 -1358,0zm227 226c-250,250 -250,655 0,905 249,250 655,250 905,0 250,-250 250,-655 0,-905 -250,-250 -656,-250 -905,0z"/>
</svg>
