<?xml version="1.0" encoding="UTF-8"?>
<!DOCTYPE svg PUBLIC "-//W3C//DTD SVG 1.1//EN" "http://www.w3.org/Graphics/SVG/1.1/DTD/svg11.dtd">
<svg xmlns="http://www.w3.org/2000/svg" xml:space="preserve" width="1024px" height="1024px" shape-rendering="geometricPrecision" text-rendering="geometricPrecision" image-rendering="optimizeQuality" fill-rule="nonzero" clip-rule="evenodd" viewBox="0 0 10240 10240" xmlns:xlink="http://www.w3.org/1999/xlink">
	<title>lollipop icon</title>
	<desc>lollipop icon from the IconExperience.com O-Collection. Copyright by INCORS GmbH (www.incors.com).</desc>
	<path id="curve1" fill="#808080" d="M5760 7302l0 1658c0,353 -287,640 -640,640l0 0c-353,0 -640,-287 -640,-640l0 -1658c208,38 421,58 640,58 219,0 432,-20 640,-58z"/>
	<path id="curve0" fill="#E68497" d="M4162 3837c0,-256 100,-498 281,-679 174,-174 414,-281 679,-281 265,0 505,107 678,281 174,174 282,414 282,679 0,442 -179,842 -469,1131 -290,290 -690,469 -1131,469 -442,0 -842,-179 -1132,-469 -289,-289 -468,-689 -468,-1131 0,-619 250,-1179 656,-1584 405,-405 965,-656 1584,-656 618,0 1178,251 1584,656 421,421 656,988 656,1584 0,1237 -1003,2240 -2240,2240 -105,0 -216,-8 -330,-22 494,-68 937,-298 1274,-634 405,-406 656,-966 656,-1584 0,-442 -179,-842 -469,-1132 -290,-289 -690,-468 -1131,-468 -442,0 -842,179 -1132,468 -289,290 -468,690 -468,1132 0,265 107,505 281,679 173,173 413,281 679,281 265,0 505,-108 678,-281 174,-174 282,-414 282,-679 0,-89 -36,-169 -94,-227 -58,-57 -138,-93 -226,-93 -89,0 -169,36 -227,93 -58,58 -93,138 -93,227 0,176 -144,320 -320,320 -177,0 -320,-144 -320,-320zm958 -2557c1414,0 2560,1146 2560,2560 0,1414 -1146,2560 -2560,2560 -1414,0 -2560,-1146 -2560,-2560 0,-1414 1146,-2560 2560,-2560zm0 -640c-1767,0 -3200,1433 -3200,3200 0,1767 1433,3200 3200,3200 1767,0 3200,-1433 3200,-3200 0,-1767 -1433,-3200 -3200,-3200z"/>
</svg>
