<?xml version="1.0" encoding="UTF-8"?>
<!DOCTYPE svg PUBLIC "-//W3C//DTD SVG 1.1//EN" "http://www.w3.org/Graphics/SVG/1.1/DTD/svg11.dtd">
<svg xmlns="http://www.w3.org/2000/svg" xml:space="preserve" width="1024px" height="1024px" shape-rendering="geometricPrecision" text-rendering="geometricPrecision" image-rendering="optimizeQuality" fill-rule="nonzero" clip-rule="evenodd" viewBox="0 0 10240 10240" xmlns:xlink="http://www.w3.org/1999/xlink">
	<title>loudspeaker_network icon</title>
	<desc>loudspeaker_network icon from the IconExperience.com O-Collection. Copyright by INCORS GmbH (www.incors.com).</desc>
	<path id="curve5" fill="#4D82B8" d="M5120 8640c176,0 320,144 320,320l1280 0 0 640 -1280 0c0,176 -144,320 -320,320l-640 0c-176,0 -320,-144 -320,-320l-1280 0 0 -640 1280 0c0,-176 144,-320 320,-320l0 -1467 640 640 0 827z"/>
	<path id="curve4" fill="#808080" d="M2240 3520l320 0 0 -320 1280 0 0 3200 -1280 0 0 -320 -320 0c-220,0 -320,-144 -320,-320l0 -1920c0,-176 100,-320 320,-320z"/>
	<path id="curve3" fill="#808080" d="M6080 1280l0 0c176,0 320,144 320,320l0 6400c0,176 -144,320 -320,320l0 0c-176,0 -320,-144 -320,-320l-1600 -1600 0 -3200 1600 -1600c0,-176 144,-320 320,-320z"/>
	<path id="curve2" fill="#808080" d="M6720 4246c191,110 320,317 320,554 0,237 -129,444 -320,554l0 -1108z"/>
	<path id="curve1" fill="#808080" d="M6720 2907c908,152 1600,942 1600,1893 0,951 -692,1741 -1600,1893l0 -653c552,-142 960,-644 960,-1240 0,-596 -408,-1098 -960,-1240l0 -653z"/>
	<path id="curve0" fill="#808080" d="M6720 7984c1617,-160 2880,-1525 2880,-3184 0,-1659 -1263,-3024 -2880,-3184l0 644c1263,157 2240,1235 2240,2540 0,1305 -977,2383 -2240,2540l0 644z"/>
</svg>
