<?xml version="1.0" encoding="UTF-8"?>
<!DOCTYPE svg PUBLIC "-//W3C//DTD SVG 1.1//EN" "http://www.w3.org/Graphics/SVG/1.1/DTD/svg11.dtd">
<svg xmlns="http://www.w3.org/2000/svg" xml:space="preserve" width="1024px" height="1024px" shape-rendering="geometricPrecision" text-rendering="geometricPrecision" image-rendering="optimizeQuality" fill-rule="nonzero" clip-rule="evenodd" viewBox="0 0 10240 10240" xmlns:xlink="http://www.w3.org/1999/xlink">
	<title>magazine_folder icon</title>
	<desc>magazine_folder icon from the IconExperience.com O-Collection. Copyright by INCORS GmbH (www.incors.com).</desc>
	<path id="curve1" fill="#4D82B8" d="M2240 640l640 0 0 5440 -960 0 0 -5120c0,-176 144,-320 320,-320zm2240 1920l1945 0c245,-199 546,-320 935,-320l960 0 0 -1280c0,-176 -144,-320 -320,-320l-4800 0 0 5440 320 0c401,0 752,-106 1053,-376 331,-297 554,-746 758,-1224l-851 0c-176,0 -320,-144 -320,-320l0 -1280c0,-176 144,-320 320,-320z"/>
	<path id="curve0" fill="#808080" d="M3520 6400c2560,0 1920,-3840 3840,-3840l960 0c176,0 320,144 320,320l0 6400c0,176 -144,320 -320,320l-6400 0c-176,0 -320,-144 -320,-320l0 -2560c0,-176 144,-320 320,-320l1600 0z"/>
</svg>
