<?xml version="1.0" encoding="UTF-8"?>
<!DOCTYPE svg PUBLIC "-//W3C//DTD SVG 1.1//EN" "http://www.w3.org/Graphics/SVG/1.1/DTD/svg11.dtd">
<svg xmlns="http://www.w3.org/2000/svg" xml:space="preserve" width="1024px" height="1024px" shape-rendering="geometricPrecision" text-rendering="geometricPrecision" image-rendering="optimizeQuality" fill-rule="nonzero" clip-rule="evenodd" viewBox="0 0 10240 10240" xmlns:xlink="http://www.w3.org/1999/xlink">
	<title>magician icon</title>
	<desc>magician icon from the IconExperience.com O-Collection. Copyright by INCORS GmbH (www.incors.com).</desc>
	<path id="curve3" fill="#E68497" d="M6168 6720c-246,0 -568,101 -790,256 -74,-49 -163,-78 -258,-78 -100,0 -192,32 -268,85 -221,-151 -538,-249 -780,-249 -413,0 -149,286 -149,640 0,353 -264,640 149,640 249,0 578,-104 801,-264 71,46 156,72 247,72 95,0 184,-29 258,-78 222,155 544,256 790,256 413,0 149,-287 149,-640 0,-353 264,-640 -149,-640z"/>
	<path id="curve2" fill="#808080" d="M8000 8916c0,720 -1728,1004 -2880,1004 -1152,0 -2880,-284 -2880,-1003 0,-1553 518,-1798 1481,-2506 11,23 21,46 32,70 -70,37 -131,92 -175,170 -148,262 25,475 25,723 0,247 -173,461 -25,723 103,183 298,237 494,237 114,0 235,-16 356,-44 220,553 452,990 692,990 242,0 476,-444 697,-1003 119,28 239,43 351,43 196,0 391,-53 494,-237 148,-262 -25,-475 -25,-723 0,-247 173,-461 25,-723 -43,-76 -102,-130 -170,-167 9,-20 18,-40 27,-59 964,708 1481,951 1481,2505z"/>
	<path id="curve1" fill="#EFC1B4" d="M7369 4160c-16,1218 -1012,2201 -2238,2201 -1227,0 -2223,-983 -2239,-2201l4477 0z"/>
	<path id="curve0" fill="#808080" d="M2642 3117c119,39 236,60 365,66 186,-658 154,-1603 -36,-2475 -21,-98 1,-191 64,-269 63,-78 149,-119 249,-119l3672 0c100,0 186,41 249,119 63,78 85,171 64,269 -190,872 -222,1817 -36,2475 129,-6 246,-27 365,-66 92,-30 189,-23 273,19 83,41 129,106 129,182 0,218 -117,348 -318,424 -179,68 -339,98 -530,98l-4064 0c-191,0 -351,-30 -530,-98 -201,-76 -318,-206 -318,-424 0,-76 46,-141 129,-182 84,-42 181,-49 273,-19z"/>
</svg>
