<?xml version="1.0" encoding="UTF-8"?>
<!DOCTYPE svg PUBLIC "-//W3C//DTD SVG 1.1//EN" "http://www.w3.org/Graphics/SVG/1.1/DTD/svg11.dtd">
<svg xmlns="http://www.w3.org/2000/svg" xml:space="preserve" width="1024px" height="1024px" shape-rendering="geometricPrecision" text-rendering="geometricPrecision" image-rendering="optimizeQuality" fill-rule="nonzero" clip-rule="evenodd" viewBox="0 0 10240 10240" xmlns:xlink="http://www.w3.org/1999/xlink">
	<title>magnet icon</title>
	<desc>magnet icon from the IconExperience.com O-Collection. Copyright by INCORS GmbH (www.incors.com).</desc>
	<path id="curve0" fill="#E68497" d="M5120 1280c2121,0 3840,1719 3840,3840l0 3840 -2560 0 0 -3840c0,-707 -573,-1280 -1280,-1280 -707,0 -1280,573 -1280,1280l0 3840 -2560 0 0 -3840c0,-2121 1719,-3840 3840,-3840zm1600 5440l0 1920 1920 0 0 -1920 -1920 0zm-5120 0l0 1920 1920 0 0 -1920 -1920 0z"/>
</svg>
