<?xml version="1.0" encoding="UTF-8"?>
<!DOCTYPE svg PUBLIC "-//W3C//DTD SVG 1.1//EN" "http://www.w3.org/Graphics/SVG/1.1/DTD/svg11.dtd">
<svg xmlns="http://www.w3.org/2000/svg" xml:space="preserve" width="1024px" height="1024px" shape-rendering="geometricPrecision" text-rendering="geometricPrecision" image-rendering="optimizeQuality" fill-rule="nonzero" clip-rule="evenodd" viewBox="0 0 10240 10240" xmlns:xlink="http://www.w3.org/1999/xlink">
	<title>mail_attachment icon</title>
	<desc>mail_attachment icon from the IconExperience.com O-Collection. Copyright by INCORS GmbH (www.incors.com).</desc>
	<path id="curve2" fill="#808080" d="M1280 1920l4721 0 -1278 640 -3078 0 3140 2602 536 1070 -24 22c-123,115 -313,113 -435,0l-3582 -3391 0 4497 2318 -1862 197 186 -2195 1996 7040 0 -1110 -1009 352 -177 1078 866 0 -1405 640 -321 0 2046c0,353 -287,640 -640,640l-7680 0c-353,0 -640,-287 -640,-640l0 -5120c0,-353 287,-640 640,-640zm7397 0l283 0c353,0 640,287 640,640l0 1202 -923 -1842z"/>
	<path id="curve1" fill="#EDC87E" d="M8640 2560l1137 2270c79,158 14,350 -143,429l-3266 1636c-158,79 -350,15 -429,-143l-1636 -3266c-79,-157 -14,-350 143,-429l1763 -883c-81,107 -129,240 -129,385l0 395 -1061 532 1349 2693 2693 -1349 -428 -855c5,-44 7,-89 7,-135l0 -1280z"/>
	<path id="curve0" fill="#808080" d="M6400 2559c0,-176 144,-319 320,-319 177,0 320,143 320,320l0 1280c0,176 144,320 320,320 176,0 320,-144 320,-320l0 -1600c0,-341 -301,-640 -640,-640l-1108 0c56,-97 125,-186 203,-265 241,-240 565,-375 905,-375 705,0 1280,575 1280,1280l0 1600c0,529 -431,960 -960,960 -528,0 -960,-430 -960,-958l0 -1283z"/>
</svg>
