<?xml version="1.0" encoding="UTF-8"?>
<!DOCTYPE svg PUBLIC "-//W3C//DTD SVG 1.1//EN" "http://www.w3.org/Graphics/SVG/1.1/DTD/svg11.dtd">
<svg xmlns="http://www.w3.org/2000/svg" xml:space="preserve" width="1024px" height="1024px" shape-rendering="geometricPrecision" text-rendering="geometricPrecision" image-rendering="optimizeQuality" fill-rule="nonzero" clip-rule="evenodd" viewBox="0 0 10240 10240" xmlns:xlink="http://www.w3.org/1999/xlink">
	<title>mail_virus icon</title>
	<desc>mail_virus icon from the IconExperience.com O-Collection. Copyright by INCORS GmbH (www.incors.com).</desc>
	<path id="curve1" fill="#808080" d="M2560 640l6400 0c353,0 640,287 640,640l0 4480c0,352 -287,640 -640,640l-1845 0c152,-170 245,-394 245,-640l0 0 1537 0 -2029 -1846 169 -158 1923 1558 0 -3735 -3048 2852c-106,100 -269,98 -373,0l-2979 -2845 0 1539c-196,175 -320,431 -320,715 0,276 118,535 320,716l0 501c-92,53 -180,114 -262,182 -36,-48 -56,-104 -59,-171 -15,-264 -135,-499 -319,-663l0 -3125c0,-353 287,-640 640,-640zm1581 3393l315 -256 169 162 -250 227c-109,12 -213,42 -308,87 33,-70 58,-144 74,-220zm-1308 -2753l2927 2448 2927 -2448 -5854 0z"/>
	<path id="curve0" fill="#76A797" d="M3841 5152c-1,-10 -1,-21 -1,-32 0,-353 287,-640 640,-640 353,0 640,287 640,640 0,256 -150,477 -368,579 92,111 169,234 228,366l421 -140c191,-64 329,-197 398,-386 90,-245 325,-419 601,-419 353,0 640,287 640,640 0,353 -287,640 -640,640 -128,0 -248,-38 -348,-103 -169,-109 -359,-133 -550,-70l-421 141c25,113 39,231 39,352 0,161 -24,317 -68,464 137,24 276,1 406,-69 90,-48 193,-75 302,-75 353,0 640,287 640,640 0,353 -287,640 -640,640 -294,0 -542,-199 -617,-469 -39,-143 -118,-259 -231,-342 -143,251 -352,460 -603,603 83,113 199,192 342,231 270,75 469,323 469,617 0,353 -287,640 -640,640 -353,0 -640,-287 -640,-640 0,-109 27,-212 75,-302 70,-130 93,-269 69,-406 -147,44 -303,68 -464,68 -280,0 -543,-72 -772,-198l-101 134c-120,161 -158,349 -107,544 13,51 20,105 20,160 0,353 -287,640 -640,640 -353,0 -640,-287 -640,-640 0,-347 276,-629 620,-640 201,-6 372,-94 492,-255l93 -125c-231,-196 -406,-458 -497,-756 -61,48 -114,109 -157,181 -111,189 -316,315 -551,315 -353,0 -640,-287 -640,-640 0,-353 287,-640 640,-640 169,0 324,66 438,173 62,58 129,102 202,131 3,-284 79,-550 212,-780l-131 -93c-164,-117 -353,-150 -546,-95 -56,16 -114,24 -175,24 -353,0 -640,-287 -640,-640 0,-353 287,-640 640,-640 342,0 621,268 639,605 11,201 103,369 267,486l131 94c223,-254 526,-437 868,-510l-33 -304c-23,-200 -124,-362 -294,-470 -179,-113 -298,-313 -298,-541 0,-353 287,-640 640,-640 353,0 640,287 640,640 0,177 -72,337 -187,452 -143,143 -206,324 -184,524l34 304c6,0 11,0 17,0 110,0 217,11 321,32z"/>
</svg>
