<?xml version="1.0" encoding="UTF-8"?>
<!DOCTYPE svg PUBLIC "-//W3C//DTD SVG 1.1//EN" "http://www.w3.org/Graphics/SVG/1.1/DTD/svg11.dtd">
<svg xmlns="http://www.w3.org/2000/svg" xml:space="preserve" width="1024px" height="1024px" shape-rendering="geometricPrecision" text-rendering="geometricPrecision" image-rendering="optimizeQuality" fill-rule="nonzero" clip-rule="evenodd" viewBox="0 0 10240 10240" xmlns:xlink="http://www.w3.org/1999/xlink">
	<title>mail_filter icon</title>
	<desc>mail_filter icon from the IconExperience.com O-Collection. Copyright by INCORS GmbH (www.incors.com).</desc>
	<path id="curve1" fill="#4D82B8" d="M8826 4505c87,71 134,146 134,223l0 500c0,235 -78,440 -241,603l-2395 2386c-164,163 -243,369 -241,603l1 238c0,568 -1924,1146 -1924,578l-2 -806c-1,-235 -78,-440 -241,-603l-2396 -2396c-160,-166 -241,-368 -241,-603l0 -500c0,-153 182,-297 501,-421l142 286c-61,43 -94,89 -94,135 0,314 1473,569 3291,569 1810,0 3278,-252 3291,-564l277 -139c50,-25 96,-55 138,-89z"/>
	<path id="curve0" fill="#808080" d="M1843 2732l4730 -2366c218,-108 483,-20 592,197l1577 3154c94,189 39,414 -119,541l-1 1 -2 1 -1 1 -1 1 -5 4 -1 0 -1 1 -1 1 0 0 -7 5 -2 1 -7 5 -1 1 -2 1 -6 4 -1 1 0 0 -2 1 -6 4 -1 1 -1 0 0 0 -1 0 -7 5 -1 0 0 1 -1 0c-3,1 -6,3 -9,5l-1 0c-3,2 -6,4 -9,5l-923 461c-184,39 -363,68 -444,80 -290,42 -586,71 -883,91l1855 -928 -1995 -560 66 -174 2028 439 -1387 -2774 -1209 3221c-41,108 -159,166 -268,134l-3251 -985 754 1508c-162,-28 -383,-71 -553,-122l-689 -1376c-108,-217 -20,-483 197,-591zm2444 2227c-82,-3 -164,-8 -247,-13l333 -725 179 55 -265 683zm-2022 -1945l3028 703 1253 -2844 -4281 2141z"/>
</svg>
