<?xml version="1.0" encoding="UTF-8"?>
<!DOCTYPE svg PUBLIC "-//W3C//DTD SVG 1.1//EN" "http://www.w3.org/Graphics/SVG/1.1/DTD/svg11.dtd">
<svg xmlns="http://www.w3.org/2000/svg" xml:space="preserve" width="1024px" height="1024px" shape-rendering="geometricPrecision" text-rendering="geometricPrecision" image-rendering="optimizeQuality" fill-rule="nonzero" clip-rule="evenodd" viewBox="0 0 10240 10240" xmlns:xlink="http://www.w3.org/1999/xlink">
	<title>mail icon</title>
	<desc>mail icon from the IconExperience.com O-Collection. Copyright by INCORS GmbH (www.incors.com).</desc>
	<path id="curve0" fill="#808080" d="M1280 1920l7680 0c353,0 640,287 640,640l0 5120c0,353 -287,640 -640,640l-7680 0c-353,0 -640,-287 -640,-640l0 -5120c0,-353 287,-640 640,-640zm7680 937l-3663 3397c-123,115 -313,113 -435,0l-3582 -3391 0 4497 2318 -1862 197 186 -2195 1996 7040 0 -2227 -2024 197 -183 2350 1887 0 -4503zm-7315 -297l3475 2880 3475 -2880 -6950 0z"/>
</svg>
