<?xml version="1.0" encoding="UTF-8"?>
<!DOCTYPE svg PUBLIC "-//W3C//DTD SVG 1.1//EN" "http://www.w3.org/Graphics/SVG/1.1/DTD/svg11.dtd">
<svg xmlns="http://www.w3.org/2000/svg" xml:space="preserve" width="1024px" height="1024px" shape-rendering="geometricPrecision" text-rendering="geometricPrecision" image-rendering="optimizeQuality" fill-rule="nonzero" clip-rule="evenodd" viewBox="0 0 10240 10240" xmlns:xlink="http://www.w3.org/1999/xlink">
	<title>mails icon</title>
	<desc>mails icon from the IconExperience.com O-Collection. Copyright by INCORS GmbH (www.incors.com).</desc>
	<path id="curve1" fill="#808080" d="M3200 1280l5760 0c353,0 640,288 640,640l0 3840c0,352 -288,640 -640,640l-960 0 0 -640 897 0 -955 -969c-96,-261 -301,-469 -560,-568l-194 -197 169 -158 1603 1446 0 -3095 -2278 1941 -1263 0 -2219 -1934 0 1934 -640 0 0 -2240c0,-353 287,-640 640,-640zm1277 2880l299 -270 169 161 -107 109 -361 0zm-1004 -2240l2607 1920 2607 -1920 -5214 0z"/>
	<path id="curve0" fill="#808080" d="M1280 4480l5760 0c353,0 640,288 640,640l0 3840c0,352 -288,640 -640,640l-5760 0c-352,0 -640,-287 -640,-640l0 -3840c0,-352 287,-640 640,-640zm4157 2588l1603 1446 0 -3095 -2728 2325c-106,99 -269,98 -373,0l-2659 -2318 0 3088 1576 -1424 169 161 -1682 1709 5634 0 -1709 -1734 169 -158zm-3884 -1948l2607 1920 2607 -1920 -5214 0z"/>
</svg>
