<?xml version="1.0" encoding="UTF-8"?>
<!DOCTYPE svg PUBLIC "-//W3C//DTD SVG 1.1//EN" "http://www.w3.org/Graphics/SVG/1.1/DTD/svg11.dtd">
<svg xmlns="http://www.w3.org/2000/svg" xml:space="preserve" width="1024px" height="1024px" shape-rendering="geometricPrecision" text-rendering="geometricPrecision" image-rendering="optimizeQuality" fill-rule="nonzero" clip-rule="evenodd" viewBox="0 0 10240 10240" xmlns:xlink="http://www.w3.org/1999/xlink">
	<title>mail_cloud icon</title>
	<desc>mail_cloud icon from the IconExperience.com O-Collection. Copyright by INCORS GmbH (www.incors.com).</desc>
	<path id="curve1" fill="#808080" d="M1280 4480l5760 0c353,0 640,288 640,640l0 3840c0,352 -288,640 -640,640l-5760 0c-352,0 -640,-287 -640,-640l0 -3840c0,-352 287,-640 640,-640zm4157 2588l1603 1446 0 -3095 -2728 2325c-106,99 -269,98 -373,0l-2659 -2318 0 3088 1576 -1424 169 161 -1682 1709 5634 0 -1709 -1734 169 -158zm-3884 -1948l2607 1920 2607 -1920 -5214 0z"/>
	<path id="curve0" fill="#4D82B8" d="M9253 2852c408,293 667,771 667,1300 0,883 -716,1598 -1599,1600l-321 1 0 -633 0 -7 320 -1c530,-1 960,-430 960,-960 0,-467 -333,-856 -775,-942 73,-148 113,-314 113,-490 0,-619 -501,-1120 -1120,-1120 -344,0 -651,155 -857,399 -173,-600 -727,-1039 -1383,-1039 -795,0 -1440,645 -1440,1440 0,67 5,133 14,197 -559,137 -974,589 -974,1243 0,108 16,216 45,320l-656 0c-19,-104 -29,-211 -29,-320 0,-731 372,-1348 973,-1677 118,-1037 999,-1843 2067,-1843 636,0 1220,289 1606,758 200,-77 414,-118 634,-118 972,0 1760,788 1760,1760 0,44 -2,88 -5,132z"/>
</svg>
