<?xml version="1.0" encoding="UTF-8"?>
<!DOCTYPE svg PUBLIC "-//W3C//DTD SVG 1.1//EN" "http://www.w3.org/Graphics/SVG/1.1/DTD/svg11.dtd">
<svg xmlns="http://www.w3.org/2000/svg" xml:space="preserve" width="1024px" height="1024px" shape-rendering="geometricPrecision" text-rendering="geometricPrecision" image-rendering="optimizeQuality" fill-rule="nonzero" clip-rule="evenodd" viewBox="0 0 10240 10240" xmlns:xlink="http://www.w3.org/1999/xlink">
	<title>mail_forward icon</title>
	<desc>mail_forward icon from the IconExperience.com O-Collection. Copyright by INCORS GmbH (www.incors.com).</desc>
	<path id="curve1" fill="#808080" d="M1280 1280l7680 0c353,0 640,287 640,640l0 5120c0,73 -13,144 -35,210 -7,-7 -13,-14 -20,-20l-585 -586 0 -4427 -3663 3397c-123,115 -313,113 -435,0l-3582 -3391 0 4497 2318 -1862 197 186 -2195 1996 3227 0c-18,51 -27,104 -27,160l0 480 -3520 0c-353,0 -640,-287 -640,-640l0 -5120c0,-353 287,-640 640,-640zm5330 3553l757 607 -9 0 -478 0 -467 -425 197 -182zm-4965 -2913l3475 2880 3475 -2880 -6950 0z"/>
	<path id="curve0" fill="#4D82B8" d="M7815 9413l1504 -1505c125,-124 125,-327 0,-452l-1508 -1509c-125,-124 -277,-187 -453,-187l-1159 0c-142,0 -214,172 -113,273l1009 1009 -1815 -2c-44,0 -82,16 -113,47 -31,31 -47,69 -47,113l0 960c0,88 72,160 160,160l1815 2 -1004 1005c-101,101 -30,273 113,273l1158 0c177,0 328,-63 453,-187z"/>
</svg>
