<?xml version="1.0" encoding="UTF-8"?>
<!DOCTYPE svg PUBLIC "-//W3C//DTD SVG 1.1//EN" "http://www.w3.org/Graphics/SVG/1.1/DTD/svg11.dtd">
<svg xmlns="http://www.w3.org/2000/svg" xml:space="preserve" width="1024px" height="1024px" shape-rendering="geometricPrecision" text-rendering="geometricPrecision" image-rendering="optimizeQuality" fill-rule="nonzero" clip-rule="evenodd" viewBox="0 0 10240 10240" xmlns:xlink="http://www.w3.org/1999/xlink">
	<title>mail_bug icon</title>
	<desc>mail_bug icon from the IconExperience.com O-Collection. Copyright by INCORS GmbH (www.incors.com).</desc>
	<path id="curve3" fill="#808080" d="M2560 640l6400 0c353,0 640,287 640,640l0 4480c0,352 -287,640 -640,640l-2928 0 -77 -26 321 -321c80,-80 138,-181 166,-291l1 -2 2454 0 -2029 -1846 169 -158 1923 1558 0 -3735 -2905 2718c-169,-3 -332,63 -453,179 -22,-12 -43,-27 -63,-45l-2979 -2845 0 3184c-34,44 -63,90 -87,139 -19,25 -37,51 -54,78 -26,43 -50,87 -71,132l-128 -384c-53,-160 -163,-285 -300,-359l0 -3096c0,-353 287,-640 640,-640zm1184 3714l712 -577 169 162 -474 431c-104,-12 -208,-18 -311,-18 -32,0 -64,1 -96,2zm-911 -3074l2927 2448 2927 -2448 -5854 0z"/>
	<path id="curve2" fill="#808080" d="M5432 5539l114 -113 196 -590c56,-167 236,-258 403,-203 167,56 258,236 202,403l-212 637c-13,56 -42,110 -85,154l-275 275c-92,-208 -206,-408 -343,-563zm557 2655l282 282c44,44 72,97 85,153l213 638c55,167 -36,347 -203,402 -167,55 -347,-35 -402,-202l-197 -590 -66 -66c130,-189 226,-396 288,-617zm-4019 604l-78 79 -197 590c-55,167 -235,257 -402,202 -168,-55 -258,-235 -203,-402l212 -638c13,-56 42,-109 86,-153l298 -299c61,223 155,431 284,621zm-369 -1380l-33 11 -392 392c-125,125 -328,125 -453,0 -125,-125 -125,-328 0,-453l443 -443 1 1c34,-34 77,-61 126,-77l406 -136c-14,59 -26,115 -37,168 -34,176 -56,357 -61,537zm4382 -697l383 128c49,16 92,43 126,77l1 -1 443 443c125,125 125,328 0,453 -125,125 -328,125 -453,0l-392 -392 -12 -4c-5,-183 -27,-366 -61,-544 -10,-51 -22,-104 -35,-160zm-4084 -605l-290 -289c-44,-44 -72,-98 -85,-154l-212 -637c-56,-167 35,-347 202,-403 167,-55 347,36 403,203l196 590 125 124c-136,158 -249,358 -339,566z"/>
	<path id="curve1" fill="#EDC87E" d="M3840 5587c576,0 768,-191 1152,0 46,23 93,57 139,100l0 1c-431,406 -431,406 -1272,615 -879,-209 -879,-209 -1310,-615l0 -1c46,-43 93,-77 139,-100 384,-191 576,0 1152,0zm1490 353c243,390 430,1010 430,1558 0,1522 -1268,1888 -1911,2099l182 -3007c285,-68 626,-147 864,-291 160,-96 300,-231 435,-359zm-1521 3650c-649,-212 -1889,-587 -1889,-2092 0,-548 187,-1168 430,-1558 134,126 272,259 429,354 231,140 563,218 848,284l182 3012z"/>
	<path id="curve0" fill="#808080" d="M3840 4672c222,0 415,27 579,78 -122,-1 -230,48 -284,141 -92,159 6,387 218,510 212,122 458,92 550,-67 52,-90 43,-204 -14,-307 161,171 242,397 242,661 -431,406 -431,406 -1272,615 -879,-209 -879,-209 -1310,-615 0,-238 66,-445 197,-608 -34,88 -33,179 10,254 92,159 338,189 550,67 212,-123 309,-351 218,-510 -51,-88 -150,-136 -264,-141 165,-51 358,-78 580,-78z"/>
</svg>
