<?xml version="1.0" encoding="UTF-8"?>
<!DOCTYPE svg PUBLIC "-//W3C//DTD SVG 1.1//EN" "http://www.w3.org/Graphics/SVG/1.1/DTD/svg11.dtd">
<svg xmlns="http://www.w3.org/2000/svg" xml:space="preserve" width="1024px" height="1024px" shape-rendering="geometricPrecision" text-rendering="geometricPrecision" image-rendering="optimizeQuality" fill-rule="nonzero" clip-rule="evenodd" viewBox="0 0 10240 10240" xmlns:xlink="http://www.w3.org/1999/xlink">
	<title>mail_exchange icon</title>
	<desc>mail_exchange icon from the IconExperience.com O-Collection. Copyright by INCORS GmbH (www.incors.com).</desc>
	<path id="curve3" fill="#808080" d="M3200 640l5760 0c353,0 640,288 640,640l0 3840c0,352 -288,640 -640,640l-960 0 0 -640 0 0 897 0 -1709 -1734 169 -158 1603 1446 0 -3095 -2728 2325c-106,99 -269,98 -373,0l-1195 -1042c161,-149 230,-357 204,-555l1212 893 2607 -1920 -4778 0 -195 -164c-119,-101 -261,-156 -418,-156l-650 0c111,-191 318,-320 554,-320zm0 3200l0 320 -640 0 0 -320 640 0zm569 320l1007 -910 169 161 -737 749 -439 0z"/>
	<path id="curve2" fill="#808080" d="M1280 4480l5760 0c353,0 640,288 640,640l0 1280 -640 0 0 -981 -2728 2325c-106,99 -269,98 -373,0l-2659 -2318 0 3088 1576 -1424 169 161 -1682 1709 4988 0 195 164c119,101 261,156 418,156l650 0c-111,191 -318,320 -554,320l-5760 0c-352,0 -640,-287 -640,-640l0 -3840c0,-352 287,-640 640,-640zm4157 2588l243 219 -89 77c-34,30 -65,63 -91,97l-232 -235 169 -158zm-3884 -1948l2607 1920 2607 -1920 -5214 0z"/>
	<path id="curve1" fill="#4D82B8" d="M6944 6720l736 0c68,0 126,40 150,103 24,64 8,133 -44,177l-426 360 640 0c176,0 320,-144 320,-320l0 -960 640 0c112,0 220,-19 320,-55l0 1015c0,705 -575,1280 -1280,1280l-320 0 -320 0 426 360c52,44 68,113 44,177 -24,63 -82,103 -150,103l-736 0c-81,0 -150,-28 -212,-80l-930 -787c-154,-129 -153,-355 -1,-487l931 -806c62,-53 131,-80 212,-80z"/>
	<path id="curve0" fill="#4D82B8" d="M3296 3520l-736 0c-68,0 -126,-40 -150,-103 -24,-64 -8,-133 44,-177l426 -360 -640 0c-176,0 -320,144 -320,320l0 960 -640 0c-112,0 -220,19 -320,55l0 -1015c0,-705 575,-1280 1280,-1280l320 0 320 0 -426 -360c-51,-44 -68,-113 -44,-177 24,-63 82,-103 150,-103l736 0c81,0 150,28 212,80l930 787c154,129 153,355 1,487l-931 806c-62,53 -131,80 -212,80z"/>
</svg>
