<?xml version="1.0" encoding="UTF-8"?>
<!DOCTYPE svg PUBLIC "-//W3C//DTD SVG 1.1//EN" "http://www.w3.org/Graphics/SVG/1.1/DTD/svg11.dtd">
<svg xmlns="http://www.w3.org/2000/svg" xml:space="preserve" width="1024px" height="1024px" shape-rendering="geometricPrecision" text-rendering="geometricPrecision" image-rendering="optimizeQuality" fill-rule="nonzero" clip-rule="evenodd" viewBox="0 0 10240 10240" xmlns:xlink="http://www.w3.org/1999/xlink">
	<title>mail_open2 icon</title>
	<desc>mail_open2 icon from the IconExperience.com O-Collection. Copyright by INCORS GmbH (www.incors.com).</desc>
	<path id="curve1" fill="#808080" d="M5510 538l1381 1062 -1046 0 -725 -558 -725 558 -1046 0 1381 -1062c233,-180 547,-180 780,0zm3130 2407l710 547c163,125 250,301 250,507l0 4961c0,353 -287,640 -640,640l-7680 0c-353,0 -640,-287 -640,-640l0 -4961c0,-206 87,-382 250,-507l710 -547 0 805 -270 208 2469 2222 -248 207 -2271 -2044 0 4351 2909 -2422c271,-235 601,-352 931,-352 330,0 660,117 931,352l2909 2422 0 -4351 -2271 2044 -248 -207 2469 -2222 -270 -208 0 -805zm-41 6015l-2757 -2447c-210,-182 -466,-273 -722,-273 -256,0 -512,91 -722,273l-2757 2447 6958 0z"/>
	<path id="curve0" fill="#808080" d="M8320,4059 7680,4635 7680,2560 2560,2560 2560,4635 1920,4059 1920,1920 8320,1920z"/>
</svg>
