<?xml version="1.0" encoding="UTF-8"?>
<!DOCTYPE svg PUBLIC "-//W3C//DTD SVG 1.1//EN" "http://www.w3.org/Graphics/SVG/1.1/DTD/svg11.dtd">
<svg xmlns="http://www.w3.org/2000/svg" xml:space="preserve" width="1024px" height="1024px" shape-rendering="geometricPrecision" text-rendering="geometricPrecision" image-rendering="optimizeQuality" fill-rule="nonzero" clip-rule="evenodd" viewBox="0 0 10240 10240" xmlns:xlink="http://www.w3.org/1999/xlink">
	<title>mail_open icon</title>
	<desc>mail_open icon from the IconExperience.com O-Collection. Copyright by INCORS GmbH (www.incors.com).</desc>
	<path id="curve0" fill="#808080" d="M5510 538l3840 2954c163,125 250,301 250,507l0 4961c0,353 -287,640 -640,640l-7680 0c-353,0 -640,-287 -640,-640l0 -4961c0,-206 87,-382 250,-507l3840 -2954c233,-180 547,-180 780,0zm-4230 8156l2909 -2422c271,-235 601,-352 931,-352 330,0 660,117 931,352l2909 2422 0 -4351 -2271 2044 -248 -207 2469 -2222 -3790 -2916 -3790 2916 2469 2222 -248 207 -2271 -2044 0 4351zm7319 266l-2757 -2447c-210,-182 -466,-273 -722,-273 -256,0 -512,91 -722,273l-2757 2447 6958 0z"/>
</svg>
