<?xml version="1.0" encoding="UTF-8"?>
<!DOCTYPE svg PUBLIC "-//W3C//DTD SVG 1.1//EN" "http://www.w3.org/Graphics/SVG/1.1/DTD/svg11.dtd">
<svg xmlns="http://www.w3.org/2000/svg" xml:space="preserve" width="1024px" height="1024px" shape-rendering="geometricPrecision" text-rendering="geometricPrecision" image-rendering="optimizeQuality" fill-rule="nonzero" clip-rule="evenodd" viewBox="0 0 10240 10240" xmlns:xlink="http://www.w3.org/1999/xlink">
	<title>mailbox_full icon</title>
	<desc>mailbox_full icon from the IconExperience.com O-Collection. Copyright by INCORS GmbH (www.incors.com).</desc>
	<path id="curve2" fill="#EDC87E" d="M2240 5760l2560 0 0 2240 -2880 0 0 -1920c0,-176 144,-320 320,-320z"/>
	<path id="curve1" fill="#808080" d="M3200 3200l2560 0 0 2560c0,530 430,960 960,960 530,0 960,-430 960,-960 0,-418 -267,-774 -640,-905l0 -1015 1280 0c114,0 222,-30 314,-83 589,469 966,1192 966,2003l0 2880c0,176 -144,320 -320,320l-8320 0c-176,0 -320,-144 -320,-320l0 -2880c0,-1414 1146,-2560 2560,-2560zm-1920 5120l3840 0 0 -2560c0,-1061 -859,-1920 -1920,-1920 -1061,0 -1920,859 -1920,1920l0 2560z"/>
	<path id="curve0" fill="#E68497" d="M6080 5760c0,353 287,640 640,640 353,0 640,-287 640,-640 0,-353 -287,-640 -640,-640l0 -1280c0,-176 144,-320 320,-320l1280 0c176,0 320,-144 320,-320l0 -320c0,-353 -287,-640 -640,-640l-1600 0c-176,0 -320,144 -320,320l0 3200zm320 0c0,-177 143,-320 320,-320 177,0 320,143 320,320 0,177 -143,320 -320,320 -177,0 -320,-143 -320,-320z"/>
</svg>
