<?xml version="1.0" encoding="UTF-8"?>
<!DOCTYPE svg PUBLIC "-//W3C//DTD SVG 1.1//EN" "http://www.w3.org/Graphics/SVG/1.1/DTD/svg11.dtd">
<svg xmlns="http://www.w3.org/2000/svg" xml:space="preserve" width="1024px" height="1024px" shape-rendering="geometricPrecision" text-rendering="geometricPrecision" image-rendering="optimizeQuality" fill-rule="nonzero" clip-rule="evenodd" viewBox="0 0 10240 10240" xmlns:xlink="http://www.w3.org/1999/xlink">
	<title>mail_earth icon</title>
	<desc>mail_earth icon from the IconExperience.com O-Collection. Copyright by INCORS GmbH (www.incors.com).</desc>
	<path id="curve1" fill="#808080" d="M1280 4480l5760 0c353,0 640,288 640,640l0 3840c0,352 -288,640 -640,640l-5760 0c-352,0 -640,-287 -640,-640l0 -3840c0,-352 287,-640 640,-640zm4157 2588l1603 1446 0 -3095 -2728 2325c-106,99 -269,98 -373,0l-2659 -2318 0 3088 1576 -1424 169 161 -1682 1709 5634 0 -1709 -1734 169 -158zm-3884 -1948l2607 1920 2607 -1920 -5214 0z"/>
	<path id="curve0" fill="#4D82B8" d="M6071 311c2121,0 3840,1719 3840,3840 0,1418 -768,2656 -1911,3321l0 -767c772,-585 1271,-1511 1271,-2554 0,-195 -17,-385 -51,-570 -10,-5 -20,-6 -29,-3 -56,17 -60,193 -120,294 -49,82 -158,91 -176,115 -118,160 276,289 105,511 -73,95 -296,310 -356,588 -127,591 -43,235 -233,708 -29,70 -79,343 -119,404 -66,99 -174,204 -292,289l0 -1367c0,-529 -431,-960 -960,-960l-1131 0c-13,-46 -23,-92 -32,-137 0,-1 37,-401 38,-422 8,-106 57,-206 113,-287 430,-615 330,-351 884,-550 91,-33 227,-39 276,-22 247,86 235,340 489,383 29,5 161,-76 191,-71 156,28 304,175 440,105 82,-41 124,-195 52,-250 -71,-53 -179,-14 -256,-69 -113,-80 -207,33 -302,-76 -42,-49 -118,-202 -174,-283 -60,-86 -240,-51 -211,-11 93,124 229,144 247,213 19,75 -175,174 -123,38 27,-71 -112,-116 -273,-201 -85,-44 -167,-158 -295,-97 -62,31 -182,180 -229,251 -81,121 -265,88 -389,28 -122,-60 -125,-355 34,-484 152,-123 277,-48 425,-90 60,-17 90,-82 181,-143 107,-72 -66,-186 -9,-302 47,-95 204,-114 287,-155 78,-39 166,-103 251,-53 117,70 244,77 360,149 118,73 214,124 317,139 -494,-441 -1126,-731 -1824,-797 95,103 185,243 146,330 -53,118 -130,267 -361,353 -171,63 -396,66 -567,140 -178,77 -355,71 -457,95 -160,37 8,-527 -39,-590 -69,-94 -496,-14 -533,83 -85,226 115,417 106,461 -18,86 -16,427 -97,515 -124,134 -438,254 -480,260 -204,29 -251,238 -404,359 -64,51 -388,391 -439,497 -141,286 -4,469 60,527 110,98 155,108 278,147 6,2 20,8 40,17l-685 0c-21,-42 -45,-83 -72,-122 -1,38 -2,75 -2,113l0 9 -640 0c0,-3 0,-6 0,-9 0,-2121 1719,-3840 3840,-3840z"/>
</svg>
