<?xml version="1.0" encoding="UTF-8"?>
<!DOCTYPE svg PUBLIC "-//W3C//DTD SVG 1.1//EN" "http://www.w3.org/Graphics/SVG/1.1/DTD/svg11.dtd">
<svg xmlns="http://www.w3.org/2000/svg" xml:space="preserve" width="1024px" height="1024px" shape-rendering="geometricPrecision" text-rendering="geometricPrecision" image-rendering="optimizeQuality" fill-rule="nonzero" clip-rule="evenodd" viewBox="0 0 10240 10240" xmlns:xlink="http://www.w3.org/1999/xlink">
	<title>mail_write icon</title>
	<desc>mail_write icon from the IconExperience.com O-Collection. Copyright by INCORS GmbH (www.incors.com).</desc>
	<path id="curve2" fill="#808080" d="M5510 538l1058 813c-55,31 -107,70 -153,117l-136 132 -434 0 -725 -558 -725 558 -1046 0 1381 -1062c233,-180 547,-180 780,0zm3130 2407l710 547c163,125 250,301 250,507l0 4961c0,353 -287,640 -640,640l-7680 0c-353,0 -640,-287 -640,-640l0 -4961c0,-206 87,-382 250,-507l710 -547 0 805 -270 208 2469 2222 -248 207 -2271 -2044 0 4351 2909 -2422c271,-235 601,-352 931,-352 330,0 660,117 931,352l2909 2422 0 -4351 -2271 2044 -248 -207 2469 -2222 -270 -208 0 -805zm-41 6015l-2757 -2447c-210,-182 -466,-273 -722,-273 -256,0 -512,91 -722,273l-2757 2447 6958 0z"/>
	<path id="curve1" fill="#808080" d="M8320 4059l-640 576 0 -1173 640 -640 0 1237zm-2753 -1499l-3007 0 0 2075 -640 -576 0 -2139 4030 0 -208 202c-120,121 -179,280 -175,438z"/>
	<path id="curve0" fill="#4D82B8" d="M6419 2425c49,104 31,233 -55,319 -109,109 -286,109 -395,0 -110,-110 -109,-287 0,-396l1290 -1295c72,-72 160,-109 263,-109l140 0c264,-229 597,-481 887,-587 139,-51 287,-19 392,86l250 251c106,105 138,253 87,393 -191,516 -844,1169 -1003,1327l-65 65 -691 -691 515 -507 -475 0 -1140 1144zm-1423 2477l-148 148c-73,73 -191,73 -263,0 -73,-72 -73,-190 0,-263l148 -148 263 263zm-166 -618c131,-381 390,-839 861,-1373 16,21 33,40 51,59 234,234 614,234 848,0 119,-119 180,-279 176,-439l525 -518 693 692 -895 895c-717,717 -1253,1067 -1724,1218l-535 -534z"/>
</svg>
