<?xml version="1.0" encoding="UTF-8"?>
<!DOCTYPE svg PUBLIC "-//W3C//DTD SVG 1.1//EN" "http://www.w3.org/Graphics/SVG/1.1/DTD/svg11.dtd">
<svg xmlns="http://www.w3.org/2000/svg" xml:space="preserve" width="1024px" height="1024px" shape-rendering="geometricPrecision" text-rendering="geometricPrecision" image-rendering="optimizeQuality" fill-rule="nonzero" clip-rule="evenodd" viewBox="0 0 10240 10240" xmlns:xlink="http://www.w3.org/1999/xlink">
	<title>mail_reply icon</title>
	<desc>mail_reply icon from the IconExperience.com O-Collection. Copyright by INCORS GmbH (www.incors.com).</desc>
	<path id="curve1" fill="#808080" d="M1280 1280l7680 0c353,0 640,287 640,640l0 5120c0,353 -287,640 -640,640l-3840 0 0 -480c0,-56 -9,-109 -27,-160l3547 0 -2227 -2025 197 -182 2350 1887 0 -4503 -3663 3397c-123,115 -313,113 -435,0l-3582 -3391 0 4101 -640 640 0 -5044c0,-353 287,-640 640,-640zm1593 4160l725 -582 197 186 -435 396 -487 0zm-1228 -3520l3475 2880 3475 -2880 -6950 0z"/>
	<path id="curve0" fill="#4D82B8" d="M2105 9413l-1504 -1505c-125,-124 -125,-328 0,-452l1508 -1509c125,-124 277,-187 453,-187l1159 0c142,0 214,172 113,273l-1009 1009 1815 -2c44,0 82,16 113,47 31,31 47,69 47,113l0 960c0,88 -72,160 -160,160l-1815 2 1004 1005c101,101 30,273 -113,273l-1158 0c-177,0 -328,-63 -453,-187z"/>
</svg>
