<?xml version="1.0" encoding="UTF-8"?>
<!DOCTYPE svg PUBLIC "-//W3C//DTD SVG 1.1//EN" "http://www.w3.org/Graphics/SVG/1.1/DTD/svg11.dtd">
<svg xmlns="http://www.w3.org/2000/svg" xml:space="preserve" width="1024px" height="1024px" shape-rendering="geometricPrecision" text-rendering="geometricPrecision" image-rendering="optimizeQuality" fill-rule="nonzero" clip-rule="evenodd" viewBox="0 0 10240 10240" xmlns:xlink="http://www.w3.org/1999/xlink">
	<title>mail_out icon</title>
	<desc>mail_out icon from the IconExperience.com O-Collection. Copyright by INCORS GmbH (www.incors.com).</desc>
	<path id="curve1" fill="#808080" d="M6485 1288l2865 2204c163,125 250,301 250,507l0 4961c0,353 -287,640 -640,640l-7680 0c-353,0 -640,-287 -640,-640l0 -4961c0,-206 87,-382 250,-507l2865 -2204 -914 913c-184,185 -281,418 -281,679l0 132 -1230 946 2469 2222 -248 207 -2271 -2044 0 4351 2909 -2422c271,-235 601,-352 931,-352 330,0 660,117 931,352l2909 2422 0 -4351 -2271 2044 -248 -207 2469 -2222 -1230 -946 0 -132c0,-261 -97,-494 -281,-679l-914 -913zm2114 7672l-2757 -2447c-210,-182 -466,-273 -722,-273 -256,0 -512,91 -722,273l-2757 2447 6958 0z"/>
	<path id="curve0" fill="#4D82B8" d="M7173 2427l-1827 -1826c-124,-124 -328,-124 -452,0l-1827 1826c-124,125 -187,277 -187,453l0 1159c0,142 172,214 273,113l1327 -1327 0 2135c0,88 72,160 160,160l960 0c88,0 160,-72 160,-160l0 -2135 1327 1327c101,101 273,29 273,-113l0 -1159c0,-176 -63,-328 -187,-453z"/>
</svg>
