<?xml version="1.0" encoding="UTF-8"?>
<!DOCTYPE svg PUBLIC "-//W3C//DTD SVG 1.1//EN" "http://www.w3.org/Graphics/SVG/1.1/DTD/svg11.dtd">
<svg xmlns="http://www.w3.org/2000/svg" xml:space="preserve" width="1024px" height="1024px" shape-rendering="geometricPrecision" text-rendering="geometricPrecision" image-rendering="optimizeQuality" fill-rule="nonzero" clip-rule="evenodd" viewBox="0 0 10240 10240" xmlns:xlink="http://www.w3.org/1999/xlink">
	<title>maneki_neko icon</title>
	<desc>maneki_neko icon from the IconExperience.com O-Collection. Copyright by INCORS GmbH (www.incors.com).</desc>
	<path id="curve3" fill="#EDC87E" d="M5852 5380c210,66 425,130 633,199 137,354 427,633 789,755 100,261 117,556 27,842l-478 1527c-211,673 -932,1049 -1604,838l-611 -191c-673,-211 -1049,-931 -839,-1604l479 -1527c211,-673 931,-1049 1604,-839z"/>
	<path id="curve2" fill="#808080" d="M1920 1600l960 0c260,0 484,156 584,379 -39,62 -76,127 -108,195 -104,222 -156,461 -156,706 0,25 0,49 1,74 -94,84 -203,149 -321,191 -206,73 -425,55 -640,55 -168,0 -344,-139 -443,-6 -64,86 -43,201 61,247 117,51 246,79 382,79 214,0 431,14 640,-41l0 41c0,313 276,627 618,640 306,517 834,798 1523,907 -528,155 -920,552 -1084,1075 -361,-32 -715,89 -981,335 -45,-136 -76,-274 -76,-397l0 -320c-960,-320 -1600,-1215 -1600,-1920l0 -1280 0 -320c0,-353 288,-640 640,-640zm6400 2880l-960 0c-353,0 -640,288 -640,640 0,540 420,960 960,960l320 0c168,0 344,-139 443,-6 64,86 43,201 -61,247 -117,51 -246,79 -382,79l-320 0c-17,0 -33,0 -50,-1l0 1 0 0 0 1 1 2 0 1 1 2 0 1 0 3 1 0 0 1 0 1 0 0 0 0 0 1 0 1 1 1 0 1 2 6 0 1 0 1 0 0 0 1 0 0 0 1 1 0 0 1 0 1 0 0 0 1 1 2 0 1 0 1 0 1 0 0 1 1 0 1 0 0 0 1 0 1 0 0 0 1 0 0 1 1 0 1 0 0 0 1 0 0c61,266 54,551 -33,830l-228 728 621 0c112,0 220,19 320,55l0 -695c0,-130 -26,-253 -73,-366 323,-110 713,-415 713,-914l0 -960c0,-353 -288,-640 -640,-640zm-5120 3840l203 0c68,554 425,1052 959,1280l-1482 0c-176,0 -320,-144 -320,-320l0 -320c0,-353 287,-640 640,-640zm4078 0l722 0c353,0 640,288 640,640l0 320c0,176 -144,320 -320,320l-1600 0c-45,0 -88,-9 -126,-26 244,-193 435,-458 534,-775l150 -479zm-3440 -1863l-374 1193c-36,116 -59,233 -68,350l-196 0c-119,0 -232,22 -337,61l0 -644c0,-534 441,-968 975,-960z"/>
	<path id="curve1" fill="#808080" d="M4800 2240c216,0 392,175 392,392 0,216 -176,391 -392,391 -216,0 -392,-175 -392,-391 0,-217 176,-392 392,-392zm1920 0c-216,0 -392,175 -392,392 0,216 176,391 392,391 216,0 392,-175 392,-391 0,-217 -176,-392 -392,-392z"/>
	<path id="curve0" fill="#808080" d="M6351 1329c254,-337 600,-593 998,-682 115,-26 217,24 267,132 175,377 173,850 77,1246 196,240 307,529 307,855 0,541 -114,968 -367,1280l-273 0c-397,0 -739,243 -885,588 -213,34 -451,52 -715,52 -1600,0 -2240,-640 -2240,-1920 0,-326 111,-615 307,-855 -96,-396 -98,-869 77,-1246 50,-108 152,-158 267,-132 398,89 744,345 998,682 187,-32 385,-49 591,-49 206,0 404,17 591,49zm358 886c-387,0 -606,438 -606,652 260,280 920,300 1290,-90 -10,-230 -296,-562 -684,-562zm-1898 0c-388,0 -674,332 -684,562 370,390 1030,370 1290,90 0,-214 -219,-652 -606,-652zm1109 1714l0 -239c0,-88 -72,-160 -160,-160 -88,0 -160,72 -160,160l0 239 -248 124c-79,39 -111,135 -71,214 39,78 135,110 213,71l266 -133 266 133c78,39 174,7 213,-71 40,-79 8,-175 -71,-214l-248 -124z"/>
</svg>
