<?xml version="1.0" encoding="UTF-8"?>
<!DOCTYPE svg PUBLIC "-//W3C//DTD SVG 1.1//EN" "http://www.w3.org/Graphics/SVG/1.1/DTD/svg11.dtd">
<svg xmlns="http://www.w3.org/2000/svg" xml:space="preserve" width="1024px" height="1024px" shape-rendering="geometricPrecision" text-rendering="geometricPrecision" image-rendering="optimizeQuality" fill-rule="nonzero" clip-rule="evenodd" viewBox="0 0 10240 10240" xmlns:xlink="http://www.w3.org/1999/xlink">
	<title>map icon</title>
	<desc>map icon from the IconExperience.com O-Collection. Copyright by INCORS GmbH (www.incors.com).</desc>
	<path id="curve0" fill="#808080" d="M838 2585l2540 -1270c84,-42 179,-43 261,-11l0 0 3067 1227 2432 -1216c157,-79 348,-15 427,142 29,57 38,119 32,178l1 0 -317 2845 317 2845c15,145 -68,278 -196,330l-2539 1270c-85,42 -180,43 -262,11l0 0 -3067 -1227 -2431 1216c-158,79 -349,15 -428,-143 -28,-57 -38,-118 -32,-177l-1 0 317 -2845 -317 -2845c-15,-145 68,-278 196,-330zm2890 -558l261 2349 2280 1140 296 -2354 -2837 -1135zm2868 3457l2045 -1023 257 -2314 -2012 1006 -290 2331zm2078 -683l-2103 1052 264 2373 2103 -1051 -264 -2374zm-2162 3412l-261 -2349 -2278 -1139 -263 2367 2802 1121zm-3120 -1145l257 -2314 -2050 1025 -257 2314 2050 -1025zm-1826 -1629l2103 -1052 -264 -2373 -2103 1051 264 2374z"/>
</svg>
