<?xml version="1.0" encoding="UTF-8"?>
<!DOCTYPE svg PUBLIC "-//W3C//DTD SVG 1.1//EN" "http://www.w3.org/Graphics/SVG/1.1/DTD/svg11.dtd">
<svg xmlns="http://www.w3.org/2000/svg" xml:space="preserve" width="1024px" height="1024px" shape-rendering="geometricPrecision" text-rendering="geometricPrecision" image-rendering="optimizeQuality" fill-rule="nonzero" clip-rule="evenodd" viewBox="0 0 10240 10240" xmlns:xlink="http://www.w3.org/1999/xlink">
	<title>map_roads icon</title>
	<desc>map_roads icon from the IconExperience.com O-Collection. Copyright by INCORS GmbH (www.incors.com).</desc>
	<path id="curve1" fill="#808080" d="M838 2585l2540 -1270c84,-42 179,-43 261,-11l0 0 3067 1227 2432 -1216c157,-79 348,-15 427,142 29,57 38,119 32,178l1 0 -317 2845 317 2845c15,145 -68,278 -196,330l-2539 1270c-85,42 -180,43 -262,11l0 0 -3067 -1227 -2431 1216c-158,79 -349,15 -428,-143 -28,-57 -38,-118 -32,-177l-1 0 317 -2845 -317 -2845c-15,-145 68,-278 196,-330zm2696 -636l-2232 1116 295 2654c3,25 3,50 1,76l-256 2298 2019 -1010c82,-47 184,-57 278,-19l3067 1227 2232 -1116 -295 -2654c-3,-25 -3,-50 -1,-76l256 -2298 -2019 1010c-82,47 -183,57 -278,19l-3067 -1227z"/>
	<path id="curve0" fill="#76A797" d="M1645 3253l68 609 865 288 1262 -252 0 -698 0 -97 54 -80 307 -461 -652 -261 -1904 952zm146 1306l133 1201 -198 1781 834 -417 0 -1364 2 0c0,-70 22,-140 69,-199l733 -916 -741 149 -1 -1c-52,10 -108,7 -162,-11l-669 -223zm1409 2245l291 -145 2269 908 0 -1527 -759 -304 0 0c-52,-21 -100,-56 -136,-105l-713 -951 -952 1190 0 934zm3309 -1152l227 91 1667 -476 -87 -787 198 -1781 -1235 617 -245 1226c-7,35 -19,67 -36,96l-489 1014zm78 -2136l-1779 -711 -328 492 0 758 841 1122 594 237 499 -1034 173 -864zm-187 2780l0 1527 291 116 1904 -952 -120 -1076 -1667 477 -1 -1c-65,19 -137,17 -206,-11l-201 -80z"/>
</svg>
