<?xml version="1.0" encoding="UTF-8"?>
<!DOCTYPE svg PUBLIC "-//W3C//DTD SVG 1.1//EN" "http://www.w3.org/Graphics/SVG/1.1/DTD/svg11.dtd">
<svg xmlns="http://www.w3.org/2000/svg" xml:space="preserve" width="1024px" height="1024px" shape-rendering="geometricPrecision" text-rendering="geometricPrecision" image-rendering="optimizeQuality" fill-rule="nonzero" clip-rule="evenodd" viewBox="0 0 10240 10240" xmlns:xlink="http://www.w3.org/1999/xlink">
	<title>map_route icon</title>
	<desc>map_route icon from the IconExperience.com O-Collection. Copyright by INCORS GmbH (www.incors.com).</desc>
	<path id="curve1" fill="#808080" d="M838 2585l2540 -1270c84,-42 179,-43 261,-11l0 0 3067 1227 2432 -1216c157,-79 348,-15 427,142 29,57 38,119 32,178l1 0 -317 2845 317 2845c15,145 -68,278 -196,330l-2539 1270c-85,42 -180,43 -262,11l0 0 -3067 -1227 -2431 1216c-158,79 -349,15 -428,-143 -28,-57 -38,-118 -32,-177l-1 0 317 -2845 -317 -2845c-15,-145 68,-278 196,-330zm2696 -636l-2232 1116 295 2654c3,25 3,50 1,76l-256 2298 2019 -1010c82,-47 184,-57 278,-19l3067 1227 2232 -1116 -295 -2654c-3,-25 -3,-50 -1,-76l256 -2298 -2019 1010c-82,47 -183,57 -278,19l-3067 -1227z"/>
	<path id="curve0" fill="#4D82B8" d="M3840 5120c102,0 198,24 284,66l997 -665c0,-13 -1,-27 -1,-41 0,-353 287,-640 640,-640 353,0 640,287 640,640 0,57 -8,113 -22,166l1136 1136c53,-14 109,-22 166,-22 353,0 640,287 640,640 0,353 -287,640 -640,640 -353,0 -640,-287 -640,-640 0,-57 8,-113 22,-166l-1136 -1136c-53,14 -109,22 -166,22 -102,0 -198,-24 -284,-66l-997 665c0,13 1,27 1,41 0,353 -287,640 -640,640 -353,0 -640,-287 -640,-640 0,-57 8,-113 22,-166l-496 -496c-53,14 -109,22 -166,22 -353,0 -640,-287 -640,-640 0,-353 287,-640 640,-640 353,0 640,287 640,640 0,57 -8,113 -22,166l496 496c53,-14 109,-22 166,-22z"/>
</svg>
