<?xml version="1.0" encoding="UTF-8"?>
<!DOCTYPE svg PUBLIC "-//W3C//DTD SVG 1.1//EN" "http://www.w3.org/Graphics/SVG/1.1/DTD/svg11.dtd">
<svg xmlns="http://www.w3.org/2000/svg" xml:space="preserve" width="1024px" height="1024px" shape-rendering="geometricPrecision" text-rendering="geometricPrecision" image-rendering="optimizeQuality" fill-rule="nonzero" clip-rule="evenodd" viewBox="0 0 10240 10240" xmlns:xlink="http://www.w3.org/1999/xlink">
	<title>map_location icon</title>
	<desc>map_location icon from the IconExperience.com O-Collection. Copyright by INCORS GmbH (www.incors.com).</desc>
	<path id="curve2" fill="#808080" d="M838 3226l2540 -1270c84,-42 179,-43 261,-10l0 -1 1853 741c27,113 64,222 109,326l-273 296 -1600 -640 261 2350 2280 1140 265 -2109 55 -50c83,36 171,68 260,92l-253 2034 2045 -1022 179 -1617c287,-335 460,-770 460,-1246 0,-108 -9,-213 -26,-316 126,-11 251,55 311,175 29,57 38,118 32,177l1 0 -317 2845 317 2845c15,145 -68,278 -196,331l-2539 1269c-85,43 -180,44 -262,11l0 1 -3067 -1227 -2431 1215c-158,79 -349,15 -428,-142 -28,-57 -38,-119 -32,-178l-1 0 317 -2845 -317 -2845c-15,-145 68,-277 196,-330zm7836 2216l-2103 1052 264 2374 2103 -1052 -264 -2374zm-2162 3412l-261 -2349 -2278 -1139 -263 2368 2802 1120zm-3120 -1145l257 -2314 -2050 1025 -257 2314 2050 -1025zm-1826 -1629l2103 -1051 -264 -2374 -2103 1052 264 2373z"/>
	<path id="curve1" fill="#E68497" d="M6293 3836l-947 870c-125,125 -327,125 -452,0 -125,-125 -125,-327 0,-452l870 -946c140,208 320,388 529,528z"/>
	<path id="curve0" fill="#E68497" d="M7360 640c884,0 1600,716 1600,1600 0,884 -716,1600 -1600,1600 -884,0 -1600,-716 -1600,-1600 0,-884 716,-1600 1600,-1600zm0 320c-707,0 -1280,573 -1280,1280 0,53 3,106 10,158 13,106 71,192 166,243 94,50 198,52 294,4l0 0c124,-62 192,-189 175,-326 -3,-26 -5,-52 -5,-79 0,-353 287,-640 640,-640 27,0 53,2 79,5 137,17 264,-51 326,-175l0 0c48,-96 46,-200 -4,-294 -51,-95 -137,-153 -243,-166 -52,-7 -105,-10 -158,-10z"/>
</svg>
