<?xml version="1.0" encoding="UTF-8"?>
<!DOCTYPE svg PUBLIC "-//W3C//DTD SVG 1.1//EN" "http://www.w3.org/Graphics/SVG/1.1/DTD/svg11.dtd">
<svg xmlns="http://www.w3.org/2000/svg" xml:space="preserve" width="1024px" height="1024px" shape-rendering="geometricPrecision" text-rendering="geometricPrecision" image-rendering="optimizeQuality" fill-rule="nonzero" clip-rule="evenodd" viewBox="0 0 10240 10240" xmlns:xlink="http://www.w3.org/1999/xlink">
	<title>map_location2 icon</title>
	<desc>map_location2 icon from the IconExperience.com O-Collection. Copyright by INCORS GmbH (www.incors.com).</desc>
	<path id="curve1" fill="#808080" d="M838 3225l2540 -1270c74,-37 156,-43 231,-21 -58,199 -89,409 -89,626 0,12 0,24 0,36l-2218 1109 295 2654c3,25 3,50 1,76l-256 2298 2019 -1010c82,-47 184,-57 278,-19l3067 1227 2232 -1116 -295 -2654c-3,-25 -3,-50 -1,-76l256 -2298 -1023 512c82,-235 125,-484 125,-739 0,-12 0,-24 0,-36l1138 -569c157,-79 348,-15 427,142 29,57 38,119 32,178l1 0 -317 2845 317 2845c15,145 -68,278 -196,330l-2539 1270c-85,42 -180,43 -262,11l0 0 -3067 -1227 -2431 1216c-158,79 -349,15 -428,-143 -28,-57 -38,-118 -32,-177l-1 0 317 -2845 -317 -2845c-15,-145 68,-278 196,-330z"/>
	<path id="curve0" fill="#4D82B8" d="M5760 640c1060,0 1920,860 1920,1920 0,577 -255,1095 -658,1447 -316,276 -540,565 -728,941l-534 1068 -534 -1068c-188,-376 -412,-665 -728,-941 -403,-352 -658,-870 -658,-1447 0,-1060 860,-1920 1920,-1920zm0 768c-636,0 -1152,516 -1152,1152 0,636 516,1152 1152,1152 636,0 1152,-516 1152,-1152 0,-636 -516,-1152 -1152,-1152z"/>
</svg>
