<?xml version="1.0" encoding="UTF-8"?>
<!DOCTYPE svg PUBLIC "-//W3C//DTD SVG 1.1//EN" "http://www.w3.org/Graphics/SVG/1.1/DTD/svg11.dtd">
<svg xmlns="http://www.w3.org/2000/svg" xml:space="preserve" width="1024px" height="1024px" shape-rendering="geometricPrecision" text-rendering="geometricPrecision" image-rendering="optimizeQuality" fill-rule="nonzero" clip-rule="evenodd" viewBox="0 0 10240 10240" xmlns:xlink="http://www.w3.org/1999/xlink">
	<title>marionette icon</title>
	<desc>marionette icon from the IconExperience.com O-Collection. Copyright by INCORS GmbH (www.incors.com).</desc>
	<path id="curve1" fill="#808080" d="M5600 3840c442,0 800,358 800,800 0,442 -358,800 -800,800 -442,0 -800,-358 -800,-800 0,-442 358,-800 800,-800zm161 3840c0,-176 143,-319 319,-319 176,0 319,143 319,319l0 960 0 960c0,176 -143,319 -319,319 -176,0 -319,-143 -319,-319l0 -960 0 -960zm-1187 -2146c62,-63 144,-94 226,-94l1503 0 737 -491 0 -789c0,-177 143,-320 320,-320 177,0 320,143 320,320l0 960c0,103 -50,205 -143,266l-960 640c-54,37 -116,54 -177,54l0 960c0,176 -144,320 -320,320l-957 0c102,1 202,51 263,142 98,148 59,346 -89,444l-817 545 0 789c0,177 -143,320 -320,320 -177,0 -320,-143 -320,-320l0 -960c0,-103 50,-205 143,-266l959 -640c55,-37 116,-54 177,-54 -176,0 -319,-144 -319,-320l0 -828 -320 320 0 -905 94 -93zm-1054 1415l-220 73c-167,56 -347,-35 -403,-202 -55,-167 36,-347 203,-403l420 -140 0 672z"/>
	<path id="curve0" fill="#EDC87E" d="M3485 596l177 -267c49,-73 149,-93 222,-44l1797 1198 2071 -552c87,-23 174,28 196,114l81 308c23,85 -28,173 -113,196l-236 62 0 1995c-94,-55 -203,-86 -320,-86l0 -1823 -971 258 642 427c73,49 93,149 44,222l-177 267c-40,59 -113,28 -178,9l0 1658 -5 0c-24,-265 -139,-503 -315,-682l0 -1125 -640 -426 0 1226c-106,-15 -214,-15 -320,0l0 -1323 -960 255 0 -660 377 -101 -697 -464 0 6313 -320 213 0 -6739 -311 -207c-73,-49 -93,-149 -44,-222zm35 2123l-320 85 0 3243c-103,34 -227,67 -320,120l0 -3278 -72 20c-87,23 -174,-28 -196,-114l-81 -308c-23,-85 28,-173 113,-196l876 -233 0 661z"/>
</svg>
