<?xml version="1.0" encoding="UTF-8"?>
<!DOCTYPE svg PUBLIC "-//W3C//DTD SVG 1.1//EN" "http://www.w3.org/Graphics/SVG/1.1/DTD/svg11.dtd">
<svg xmlns="http://www.w3.org/2000/svg" xml:space="preserve" width="1024px" height="1024px" shape-rendering="geometricPrecision" text-rendering="geometricPrecision" image-rendering="optimizeQuality" fill-rule="nonzero" clip-rule="evenodd" viewBox="0 0 10240 10240" xmlns:xlink="http://www.w3.org/1999/xlink">
	<title>market_stand icon</title>
	<desc>market_stand icon from the IconExperience.com O-Collection. Copyright by INCORS GmbH (www.incors.com).</desc>
	<path id="curve4" fill="#808080" d="M5783 7680c6,-285 92,-443 247,-567 105,72 233,114 370,114 137,0 265,-42 370,-114 155,125 241,282 247,567l-1 10 -1233 0 0 -10zm617 -1600c273,0 494,221 494,494 0,272 -221,493 -494,493 -273,0 -494,-221 -494,-493 0,-273 221,-494 494,-494z"/>
	<path id="curve3" fill="#808080" d="M7040,7680 7680,7680 7680,8000 7680,8960 7040,8960 7040,8320 3200,8320 3200,8960 2560,8960 2560,7680z"/>
	<path id="curve2" fill="#76A797" d="M4800 7040c177,0 320,143 320,320 0,177 -143,320 -320,320 -58,0 -113,-16 -160,-43 -47,27 -102,43 -160,43 -58,0 -113,-16 -160,-43 -47,27 -102,43 -160,43 -58,0 -113,-16 -160,-43 -47,27 -102,43 -160,43 -58,0 -113,-16 -160,-43 -47,27 -102,43 -160,43 -58,0 -113,-16 -160,-43 -47,27 -102,43 -160,43 -177,0 -320,-143 -320,-320 0,-177 143,-320 320,-320l0 0c0,-177 143,-320 320,-320 58,0 113,16 160,43 47,-27 102,-43 160,-43 58,0 113,16 160,43 47,-27 102,-43 160,-43 174,0 315,138 320,310 0,4 -1,7 -1,10l1 0c58,0 113,16 160,43 47,-27 102,-43 160,-43z"/>
	<path id="curve1" fill="#808080" d="M8960 5440l0 3520 -960 0 0 -3200 -5760 0 0 3200 -960 0 0 -3520c382,0 725,-168 960,-433 235,265 578,433 960,433 382,0 725,-168 960,-433 235,265 578,433 960,433 382,0 725,-168 960,-433 235,265 578,433 960,433 382,0 725,-168 960,-433 235,265 578,433 960,433z"/>
	<path id="curve0" fill="#ED9A56" d="M8404 1920l1516 1920 0 320c0,530 -430,960 -960,960 -530,0 -960,-430 -960,-960l0 -320 -909 -1920 1313 0zm-6164 1920l0 320c0,530 -430,960 -960,960 -530,0 -960,-430 -960,-960l0 -320 1516 -1920 1313 0 -909 1920zm3537 -1920l303 1920 0 320c0,530 -430,960 -960,960 -530,0 -960,-430 -960,-960l0 -320 303 -1920 1314 0z"/>
</svg>
