<?xml version="1.0" encoding="UTF-8"?>
<!DOCTYPE svg PUBLIC "-//W3C//DTD SVG 1.1//EN" "http://www.w3.org/Graphics/SVG/1.1/DTD/svg11.dtd">
<svg xmlns="http://www.w3.org/2000/svg" xml:space="preserve" width="1024px" height="1024px" shape-rendering="geometricPrecision" text-rendering="geometricPrecision" image-rendering="optimizeQuality" fill-rule="nonzero" clip-rule="evenodd" viewBox="0 0 10240 10240" xmlns:xlink="http://www.w3.org/1999/xlink">
	<title>masks icon</title>
	<desc>masks icon from the IconExperience.com O-Collection. Copyright by INCORS GmbH (www.incors.com).</desc>
	<path id="curve1" fill="#EDC87E" d="M4049 2681l4005 -2006c79,-40 161,-46 245,-18 83,28 145,82 185,161 953,1912 1627,3443 606,5303 -261,476 -764,727 -1301,652 -626,-89 -1139,-281 -1576,-557 137,-255 271,-518 407,-788 78,-154 90,-324 36,-489 -55,-164 -167,-293 -321,-370l-592 -297c104,-10 209,-39 310,-90 395,-198 574,-641 399,-989 -18,-37 -40,-72 -65,-104 -36,-46 -82,-72 -129,-71 -47,1 -82,27 -100,74 -69,188 -216,356 -421,459 -205,103 -428,119 -620,63 -48,-15 -90,-2 -119,35 -29,37 -36,89 -20,146 10,39 25,77 44,114l1 3 -953 -477c-54,-107 -109,-215 -164,-325 -40,-78 -46,-160 -18,-244 28,-84 82,-146 161,-185zm4007 498c395,-198 574,-641 399,-989 -18,-37 -40,-72 -65,-104 -36,-46 -82,-72 -129,-71 -47,1 -82,27 -100,74 -69,188 -216,357 -421,459 -205,103 -428,119 -620,63 -48,-15 -90,-2 -119,35 -29,37 -36,89 -20,146 10,39 25,77 44,114 174,349 636,471 1031,273zm974 1487c-312,-357 -947,-427 -1524,-138 -576,289 -902,839 -802,1303 10,47 45,81 95,92 49,10 98,-7 132,-45 221,-253 534,-493 910,-682 376,-188 756,-294 1091,-320 51,-4 94,-34 115,-79 21,-46 15,-94 -17,-131z"/>
	<path id="curve0" fill="#4D82B8" d="M2186 2849l4005 2006c79,39 133,101 161,185 28,84 22,166 -18,245 -960,1908 -1782,3365 -3883,3662 -537,76 -1040,-176 -1301,-652 -1021,-1860 -347,-3391 606,-5303 40,-79 102,-133 185,-161 84,-27 166,-22 245,18zm2574 2363c-395,-198 -857,-76 -1031,272 -19,38 -33,76 -44,115 -16,57 -8,108 20,145 29,38 71,50 120,36 191,-57 414,-40 619,62 205,103 352,272 422,459 17,48 52,74 99,75 48,0 93,-25 129,-71 25,-32 47,-67 66,-104 174,-349 -5,-792 -400,-989zm-2003 -1003c-395,-198 -856,-76 -1031,272 -19,38 -33,76 -44,115 -16,57 -8,108 20,145 29,38 71,50 120,36 191,-57 414,-40 619,62 206,103 352,272 422,459 17,48 53,74 100,75 47,0 92,-25 128,-71 25,-32 47,-67 66,-104 174,-349 -5,-792 -400,-989zm927 3500c32,-37 39,-86 18,-131 -20,-45 -62,-74 -112,-78 -330,-23 -704,-126 -1073,-311 -369,-184 -675,-422 -891,-672 -33,-38 -81,-54 -130,-44 -48,11 -83,45 -94,93 -101,462 215,1008 781,1292 565,283 1192,209 1501,-149z"/>
</svg>
