<?xml version="1.0" encoding="UTF-8"?>
<!DOCTYPE svg PUBLIC "-//W3C//DTD SVG 1.1//EN" "http://www.w3.org/Graphics/SVG/1.1/DTD/svg11.dtd">
<svg xmlns="http://www.w3.org/2000/svg" xml:space="preserve" width="1024px" height="1024px" shape-rendering="geometricPrecision" text-rendering="geometricPrecision" image-rendering="optimizeQuality" fill-rule="nonzero" clip-rule="evenodd" viewBox="0 0 10240 10240" xmlns:xlink="http://www.w3.org/1999/xlink">
	<title>matryoshka icon</title>
	<desc>matryoshka icon from the IconExperience.com O-Collection. Copyright by INCORS GmbH (www.incors.com).</desc>
	<path id="curve3" fill="#808080" d="M8256 7679c-119,733 -398,1393 -790,1921l-4692 0c-392,-528 -671,-1188 -790,-1921 215,-3 428,-25 638,-64 82,474 244,935 492,1345l4012 0c248,-410 410,-871 492,-1345 210,39 423,61 638,64z"/>
	<path id="curve2" fill="#808080" d="M4655 3520c232,-320 698,-320 930,0 -232,320 -698,320 -930,0z"/>
	<path id="curve1" fill="#808080" d="M5509 2384c-81,38 -176,4 -213,-76 -38,-80 -4,-175 76,-213 372,-177 372,-178 772,-1 81,35 118,130 82,210 -35,81 -130,118 -210,82 -266,-117 -266,-117 -507,-2zm-1280 0c-81,38 -176,4 -213,-76 -38,-80 -4,-175 76,-213 372,-177 372,-178 772,-1 81,35 118,130 82,210 -35,81 -130,118 -210,82 -266,-117 -266,-117 -507,-2z"/>
	<path id="curve0" fill="#E68497" d="M5120 4480c884,0 1600,-716 1600,-1600 0,-884 -716,-1600 -1600,-1600 -884,0 -1600,716 -1600,1600 0,884 716,1600 1600,1600zm0 0c0,1584 -1420,2869 -3177,2880 -15,-158 -23,-318 -23,-480 0,-879 227,-1692 612,-2352 130,-224 164,-462 102,-714 -48,-196 -74,-402 -74,-614 0,-1414 1146,-2560 2560,-2560 1414,0 2560,1146 2560,2560 0,212 -26,418 -74,614 -62,252 -28,490 102,714 385,660 612,1473 612,2352 0,162 -8,322 -23,480 -1757,-11 -3177,-1296 -3177,-2880z"/>
</svg>
