<?xml version="1.0" encoding="UTF-8"?>
<!DOCTYPE svg PUBLIC "-//W3C//DTD SVG 1.1//EN" "http://www.w3.org/Graphics/SVG/1.1/DTD/svg11.dtd">
<svg xmlns="http://www.w3.org/2000/svg" xml:space="preserve" width="1024px" height="1024px" shape-rendering="geometricPrecision" text-rendering="geometricPrecision" image-rendering="optimizeQuality" fill-rule="nonzero" clip-rule="evenodd" viewBox="0 0 10240 10240" xmlns:xlink="http://www.w3.org/1999/xlink">
	<title>mda icon</title>
	<desc>mda icon from the IconExperience.com O-Collection. Copyright by INCORS GmbH (www.incors.com).</desc>
	<path id="curve1" fill="#808080" d="M8960 5195l0 3765c0,352 -288,640 -640,640l-6400 0c-352,0 -640,-287 -640,-640l0 -3765c170,152 394,245 640,245l6400 0c246,0 470,-93 640,-245zm-7040 3125l0 640 1280 0 0 -640 -1280 0zm4480 -960l0 640 640 0 0 -640 -640 0zm-2880 0l0 640 640 0 0 -640 -640 0zm960 0l0 640 640 0 0 -640 -640 0zm960 0l0 640 640 0 0 -640 -640 0zm640 -960l0 640 640 0 0 -640 -640 0zm-4160 960l0 640 1280 0 0 -640 -1280 0zm0 -960l0 640 960 0 0 -640 -960 0zm1280 0l0 640 640 0 0 -640 -640 0zm960 0l0 640 640 0 0 -640 -640 0zm960 0l0 640 640 0 0 -640 -640 0zm1920 0l0 640 320 0 0 960 960 0 0 -1600 -1280 0zm-3520 1920l0 640 3200 0 0 -640 -3200 0zm3520 0l0 640 1280 0 0 -640 -1280 0z"/>
	<path id="curve0" fill="#808080" d="M2240 1280l5760 0 0 3200 -5760 0 0 -3200zm-320 -640c-353,0 -640,287 -640,640l0 3200c0,352 288,640 640,640l6400 0c352,0 640,-288 640,-640l0 -3200c0,-352 -287,-640 -640,-640l-6400 0z"/>
</svg>
