<?xml version="1.0" encoding="UTF-8"?>
<!DOCTYPE svg PUBLIC "-//W3C//DTD SVG 1.1//EN" "http://www.w3.org/Graphics/SVG/1.1/DTD/svg11.dtd">
<svg xmlns="http://www.w3.org/2000/svg" xml:space="preserve" width="1024px" height="1024px" shape-rendering="geometricPrecision" text-rendering="geometricPrecision" image-rendering="optimizeQuality" fill-rule="nonzero" clip-rule="evenodd" viewBox="0 0 10240 10240" xmlns:xlink="http://www.w3.org/1999/xlink">
	<title>measuring_cup icon</title>
	<desc>measuring_cup icon from the IconExperience.com O-Collection. Copyright by INCORS GmbH (www.incors.com).</desc>
	<path id="curve0" fill="#808080" d="M960 1280l6400 0c176,0 320,144 320,320l0 960 1280 0c353,0 640,287 640,640l0 4160c0,176 -144,320 -320,320 -176,0 -320,-144 -320,-320l0 -2880c0,-353 -287,-640 -640,-640 -352,0 -640,287 -640,640l0 4160c0,352 -287,640 -640,640l0 320 -5120 0 0 -320c-352,0 -640,-288 -640,-640l0 -5653c0,-289 -83,-537 -256,-768l-320 -427c-75,-99 -86,-224 -30,-335 55,-111 162,-177 286,-177zm1920 7040l0 -960 960 0 0 -320 -960 0 0 -960 960 0 0 -320 -960 0 0 -960 960 0 0 -320 -960 0 0 -960 960 0 0 -320 -1280 0 0 5440 1280 0 0 -320 -960 0z"/>
</svg>
