<?xml version="1.0" encoding="UTF-8"?>
<!DOCTYPE svg PUBLIC "-//W3C//DTD SVG 1.1//EN" "http://www.w3.org/Graphics/SVG/1.1/DTD/svg11.dtd">
<svg xmlns="http://www.w3.org/2000/svg" xml:space="preserve" width="1024px" height="1024px" shape-rendering="geometricPrecision" text-rendering="geometricPrecision" image-rendering="optimizeQuality" fill-rule="nonzero" clip-rule="evenodd" viewBox="0 0 10240 10240" xmlns:xlink="http://www.w3.org/1999/xlink">
	<title>medal2 icon</title>
	<desc>medal2 icon from the IconExperience.com O-Collection. Copyright by INCORS GmbH (www.incors.com).</desc>
	<path id="curve1" fill="#4D82B8" d="M1920 1600l1920 0 0 3535 87 0 -395 0 -1464 -1757c-99,-120 -148,-254 -148,-410l0 -1368zm4480 0l1920 0 0 1368c0,156 -49,290 -148,410l-1464 1757 -248 0 -60 -167 0 -3368zm-4480 -960l6400 0 0 640 -6400 0 0 -640z"/>
	<path id="curve0" fill="#EDC87E" d="M5509 3422l725 2034 2262 -4c151,0 278,95 322,239 43,144 -12,293 -138,376l-1803 1180 711 1964c49,138 7,286 -108,377 -115,91 -269,98 -392,17l-1895 -1251 -1895 1251c-122,81 -276,74 -391,-17 -115,-91 -158,-239 -108,-377l710 -1964 -1802 -1180c-126,-83 -181,-232 -138,-376 43,-144 171,-239 322,-239l2262 4 725 -2034c49,-135 171,-222 315,-222 145,0 267,87 316,222zm-316 1021l-590 1654 -1687 -3 1367 895 -569 1575 1479 -977 1480 977 -569 -1575 1367 -895 -1688 3 -590 -1654z"/>
</svg>
