<?xml version="1.0" encoding="UTF-8"?>
<!DOCTYPE svg PUBLIC "-//W3C//DTD SVG 1.1//EN" "http://www.w3.org/Graphics/SVG/1.1/DTD/svg11.dtd">
<svg xmlns="http://www.w3.org/2000/svg" xml:space="preserve" width="1024px" height="1024px" shape-rendering="geometricPrecision" text-rendering="geometricPrecision" image-rendering="optimizeQuality" fill-rule="nonzero" clip-rule="evenodd" viewBox="0 0 10240 10240" xmlns:xlink="http://www.w3.org/1999/xlink">
	<title>medical_bag icon</title>
	<desc>medical_bag icon from the IconExperience.com O-Collection. Copyright by INCORS GmbH (www.incors.com).</desc>
	<path id="curve2" fill="#E68497" d="M4480,3840 5760,3840 5760,5120 7040,5120 7040,6400 5760,6400 5760,7680 4480,7680 4480,6400 3200,6400 3200,5120 4480,5120z"/>
	<path id="curve1" fill="#808080" d="M1920 2560l6400 0c705,0 1280,575 1280,1280l0 3840c0,705 -575,1280 -1280,1280l-6400 0c-705,0 -1280,-575 -1280,-1280l0 -3840c0,-705 575,-1280 1280,-1280zm3200 640c-1414,0 -2560,1146 -2560,2560 0,1414 1146,2560 2560,2560 1414,0 2560,-1146 2560,-2560 0,-1414 -1146,-2560 -2560,-2560z"/>
	<path id="curve0" fill="#808080" d="M3840 640l2560 0c353,0 640,287 640,640l0 960 -640 0 0 -960 -2560 0 0 960 -640 0 0 -960c0,-353 287,-640 640,-640z"/>
</svg>
