<?xml version="1.0" encoding="UTF-8"?>
<!DOCTYPE svg PUBLIC "-//W3C//DTD SVG 1.1//EN" "http://www.w3.org/Graphics/SVG/1.1/DTD/svg11.dtd">
<svg xmlns="http://www.w3.org/2000/svg" xml:space="preserve" width="1024px" height="1024px" shape-rendering="geometricPrecision" text-rendering="geometricPrecision" image-rendering="optimizeQuality" fill-rule="nonzero" clip-rule="evenodd" viewBox="0 0 10240 10240" xmlns:xlink="http://www.w3.org/1999/xlink">
	<title>media_eject icon</title>
	<desc>media_eject icon from the IconExperience.com O-Collection. Copyright by INCORS GmbH (www.incors.com).</desc>
	<path id="curve1" fill="#4D82B8" d="M1280 8320l0 -1280c0,-353 288,-640 640,-640l6400 0c352,0 640,288 640,640l0 1280c0,352 -287,640 -640,640l-6400 0c-352,0 -640,-287 -640,-640z"/>
	<path id="curve0" fill="#4D82B8" d="M1467 4681l3207 -3216c246,-247 646,-247 892,0l3207 3216c185,184 237,447 137,689 -100,241 -322,390 -582,390l-6415 0c-261,0 -483,-149 -583,-390 -100,-242 -48,-505 137,-689z"/>
</svg>
