<?xml version="1.0" encoding="UTF-8"?>
<!DOCTYPE svg PUBLIC "-//W3C//DTD SVG 1.1//EN" "http://www.w3.org/Graphics/SVG/1.1/DTD/svg11.dtd">
<svg xmlns="http://www.w3.org/2000/svg" xml:space="preserve" width="1024px" height="1024px" shape-rendering="geometricPrecision" text-rendering="geometricPrecision" image-rendering="optimizeQuality" fill-rule="nonzero" clip-rule="evenodd" viewBox="0 0 10240 10240" xmlns:xlink="http://www.w3.org/1999/xlink">
	<title>media_rewind icon</title>
	<desc>media_rewind icon from the IconExperience.com O-Collection. Copyright by INCORS GmbH (www.incors.com).</desc>
	<path id="curve1" fill="#4D82B8" d="M7822 1522l-2497 3136c-114,143 -205,280 -205,462 0,182 91,319 205,462l2497 3136c170,215 447,295 709,206 261,-89 429,-321 429,-594l0 -6420c0,-273 -168,-505 -429,-594 -262,-89 -539,-9 -709,206z"/>
	<path id="curve0" fill="#4D82B8" d="M3342 1522l-2497 3136c-114,143 -205,280 -205,462 0,182 91,319 205,462l2497 3136c170,215 447,295 709,206 261,-89 429,-321 429,-594l0 -6420c0,-273 -168,-505 -429,-594 -262,-89 -539,-9 -709,206z"/>
</svg>
