<?xml version="1.0" encoding="UTF-8"?>
<!DOCTYPE svg PUBLIC "-//W3C//DTD SVG 1.1//EN" "http://www.w3.org/Graphics/SVG/1.1/DTD/svg11.dtd">
<svg xmlns="http://www.w3.org/2000/svg" xml:space="preserve" width="1024px" height="1024px" shape-rendering="geometricPrecision" text-rendering="geometricPrecision" image-rendering="optimizeQuality" fill-rule="nonzero" clip-rule="evenodd" viewBox="0 0 10240 10240" xmlns:xlink="http://www.w3.org/1999/xlink">
	<title>media_end icon</title>
	<desc>media_end icon from the IconExperience.com O-Collection. Copyright by INCORS GmbH (www.incors.com).</desc>
	<path id="curve1" fill="#4D82B8" d="M7040 1280l1280 0c353,0 640,288 640,640l0 6400c0,352 -288,640 -640,640l-1280 0c-352,0 -640,-287 -640,-640l0 -6400c0,-352 288,-640 640,-640z"/>
	<path id="curve0" fill="#4D82B8" d="M2359 1467l3216 3207c247,246 247,646 0,892l-3216 3207c-184,185 -447,237 -689,137 -241,-100 -390,-322 -390,-582l0 -6415c0,-261 149,-483 390,-583 242,-100 505,-48 689,137z"/>
</svg>
