<?xml version="1.0" encoding="UTF-8"?>
<!DOCTYPE svg PUBLIC "-//W3C//DTD SVG 1.1//EN" "http://www.w3.org/Graphics/SVG/1.1/DTD/svg11.dtd">
<svg xmlns="http://www.w3.org/2000/svg" xml:space="preserve" width="1024px" height="1024px" shape-rendering="geometricPrecision" text-rendering="geometricPrecision" image-rendering="optimizeQuality" fill-rule="nonzero" clip-rule="evenodd" viewBox="0 0 10240 10240" xmlns:xlink="http://www.w3.org/1999/xlink">
	<title>megaphone icon</title>
	<desc>megaphone icon from the IconExperience.com O-Collection. Copyright by INCORS GmbH (www.incors.com).</desc>
	<path id="curve1" fill="#808080" d="M4799 6114c-22,293 -319,388 -319,588 0,198 1,340 66,535l293 881c67,201 36,404 -88,576 -124,172 -307,266 -519,266l-712 0c-280,0 -519,-172 -607,-438l-447 -1339c-100,-300 -287,-474 -359,-596 -89,-151 -187,-187 -187,-507l2560 0c98,0 205,12 319,34z"/>
	<path id="curve0" fill="#808080" d="M8000 640c176,0 320,144 320,320l0 2240c353,0 640,430 640,960 0,530 -287,960 -640,960l0 2240c0,176 -144,320 -320,320 -176,0 -320,-144 -320,-320l0 0c-640,-640 -2240,-1600 -3200,-1600l-2560 0c-352,0 -640,-287 -640,-640l-320 0c-176,0 -320,-144 -320,-320l0 -1280c0,-176 144,-320 320,-320l320 0 0 0c0,-353 288,-640 640,-640l2560 0c960,0 2560,-960 3200,-1600 0,-176 144,-320 320,-320zm-5760 2560c-176,0 -320,144 -320,320 0,176 144,320 320,320l2240 0c693,0 1547,-298 2333,-714 154,-81 215,-271 137,-426 -81,-162 -276,-226 -437,-140 -696,370 -1447,640 -2033,640 -747,0 -1493,0 -2240,0z"/>
</svg>
