<?xml version="1.0" encoding="UTF-8"?>
<!DOCTYPE svg PUBLIC "-//W3C//DTD SVG 1.1//EN" "http://www.w3.org/Graphics/SVG/1.1/DTD/svg11.dtd">
<svg xmlns="http://www.w3.org/2000/svg" xml:space="preserve" width="1024px" height="1024px" shape-rendering="geometricPrecision" text-rendering="geometricPrecision" image-rendering="optimizeQuality" fill-rule="nonzero" clip-rule="evenodd" viewBox="0 0 10240 10240" xmlns:xlink="http://www.w3.org/1999/xlink">
	<title>memory_stick icon</title>
	<desc>memory_stick icon from the IconExperience.com O-Collection. Copyright by INCORS GmbH (www.incors.com).</desc>
	<path id="curve2" fill="#808080" d="M3840 7360l2560 0 0 2240 -2560 0 0 -2240zm320 640l0 640 640 0 0 -640 -640 0zm1280 0l0 640 640 0 0 -640 -640 0z"/>
	<path id="curve1" fill="#4D82B8" d="M5120 1600c177,0 320,143 320,320l0 640c0,177 -143,320 -320,320 -177,0 -320,-143 -320,-320l0 -640c0,-177 143,-320 320,-320z"/>
	<path id="curve0" fill="#808080" d="M4480 640l1280 0c705,0 1280,575 1280,1280l0 4480c0,353 -287,640 -640,640l-2560 0c-353,0 -640,-287 -640,-640l0 -4480c0,-705 575,-1280 1280,-1280zm640 640c-353,0 -640,287 -640,640l0 640c0,353 287,640 640,640 353,0 640,-287 640,-640l0 -640c0,-353 -287,-640 -640,-640z"/>
</svg>
