<?xml version="1.0" encoding="UTF-8"?>
<!DOCTYPE svg PUBLIC "-//W3C//DTD SVG 1.1//EN" "http://www.w3.org/Graphics/SVG/1.1/DTD/svg11.dtd">
<svg xmlns="http://www.w3.org/2000/svg" xml:space="preserve" width="1024px" height="1024px" shape-rendering="geometricPrecision" text-rendering="geometricPrecision" image-rendering="optimizeQuality" fill-rule="nonzero" clip-rule="evenodd" viewBox="0 0 10240 10240" xmlns:xlink="http://www.w3.org/1999/xlink">
	<title>memory icon</title>
	<desc>memory icon from the IconExperience.com O-Collection. Copyright by INCORS GmbH (www.incors.com).</desc>
	<path id="curve0" fill="#4D82B8" d="M830 6278l990 -458c111,-52 225,-70 337,-55 -35,-53 -54,-118 -54,-188l0 -1234c0,-135 72,-250 190,-305l990 -458c95,-45 192,-64 289,-59 -34,-53 -52,-116 -52,-184l0 -1234c0,-135 72,-250 190,-305l990 -458c172,-80 348,-80 520,0l990 458c118,55 190,170 190,305l0 1234c0,70 -19,135 -54,188 112,-15 226,3 337,55l990 458c118,55 190,170 190,305l0 1234c0,68 -18,131 -52,184 97,-5 194,15 289,59l990 458c118,55 190,170 190,305l0 1234c0,135 -72,250 -190,305l-990 458c-172,80 -348,80 -520,0l-990 -458c-118,-55 -190,-170 -190,-305 0,135 -72,250 -190,305l-990 458c-172,80 -348,80 -520,0l-990 -458c-118,-55 -190,-170 -190,-305 0,135 -72,250 -190,305l-990 458c-172,80 -348,80 -520,0l-990 -458c-118,-55 -190,-170 -190,-305l0 -1234c0,-135 72,-250 190,-305zm130 483l0 606c0,150 0,300 0,450l960 445 0 -1056 -960 -445zm2880 0l0 606c0,150 0,300 0,450l960 445 0 -1056 -960 -445zm2052 -265l-802 -372c-89,-41 -171,-41 -260,0l-802 372 932 432 932 -432zm828 265l0 606 0 450c320,148 640,296 960,445l0 -1056 -960 -445zm2052 -265l-802 -372c-89,-41 -171,-41 -260,0l-802 372 932 432 932 -432zm-6349 -1975l0 606c0,150 0,300 0,450l960 445 0 -1056 -960 -445zm2052 -265l-802 -372c-89,-41 -171,-41 -260,0l-802 372 932 432 932 -432zm828 265l0 606c0,150 0,300 0,450l960 445 0 -1056 -960 -445zm2052 -265l-802 -372c-89,-41 -171,-41 -260,0l-802 372 932 432 932 -432zm-3515 -1975l0 606c0,150 0,300 0,450l960 445 0 -1056 -960 -445zm2052 -265l-802 -372c-89,-41 -171,-41 -260,0l-802 372 932 432 932 -432zm-2880 4480l-802 -372c-89,-41 -171,-41 -260,0l-802 372 932 432 932 -432z"/>
</svg>
