<?xml version="1.0" encoding="UTF-8"?>
<!DOCTYPE svg PUBLIC "-//W3C//DTD SVG 1.1//EN" "http://www.w3.org/Graphics/SVG/1.1/DTD/svg11.dtd">
<svg xmlns="http://www.w3.org/2000/svg" xml:space="preserve" width="1024px" height="1024px" shape-rendering="geometricPrecision" text-rendering="geometricPrecision" image-rendering="optimizeQuality" fill-rule="nonzero" clip-rule="evenodd" viewBox="0 0 10240 10240" xmlns:xlink="http://www.w3.org/1999/xlink">
	<title>menora icon</title>
	<desc>menora icon from the IconExperience.com O-Collection. Copyright by INCORS GmbH (www.incors.com).</desc>
	<path id="curve0" fill="#EDC87E" d="M2560 8960l2240 0 0 -2117c-2166,-164 -3839,-1974 -3839,-4148l-1 -221c-191,-111 -320,-318 -320,-554l0 -640c2987,0 5973,0 8960,0l0 640c0,237 -130,444 -321,555l0 220c0,2174 -1673,3984 -3839,4148l0 2117 2240 0 0 640 -2560 0 -2560 0 0 -640zm5760 -7040c0,236 -129,443 -320,554l0 210c0,1467 -1104,2702 -2560,2863l0 654c1809,-163 3201,-1686 3201,-3506l0 -220c-191,-111 -321,-318 -321,-555zm-1280 0c0,236 -129,443 -320,554l-1 182c0,761 -535,1417 -1279,1568l0 678c1100,-158 1920,-1104 1920,-2218l0 -210c-191,-111 -320,-318 -320,-554zm-1280 0c0,236 -129,443 -320,554l0 1087c382,-135 641,-498 641,-905l-1 -182c-191,-111 -320,-318 -320,-554zm-1280 0c0,237 -130,444 -321,555l0 181c0,407 259,770 641,905l0 -1087c-191,-111 -320,-318 -320,-554zm-1280 0c0,237 -129,444 -321,555l1 209c0,1114 820,2060 1920,2218l0 -678c-744,-151 -1279,-807 -1279,-1568l0 -181c-191,-111 -321,-318 -321,-555zm-1280 0c0,236 -129,443 -320,554l-1 221c0,1820 1392,3343 3201,3506l0 -654c-1456,-161 -2560,-1396 -2560,-2863l1 -209c-191,-111 -321,-318 -321,-555z"/>
</svg>
