<?xml version="1.0" encoding="UTF-8"?>
<!DOCTYPE svg PUBLIC "-//W3C//DTD SVG 1.1//EN" "http://www.w3.org/Graphics/SVG/1.1/DTD/svg11.dtd">
<svg xmlns="http://www.w3.org/2000/svg" xml:space="preserve" width="1024px" height="1024px" shape-rendering="geometricPrecision" text-rendering="geometricPrecision" image-rendering="optimizeQuality" fill-rule="nonzero" clip-rule="evenodd" viewBox="0 0 10240 10240" xmlns:xlink="http://www.w3.org/1999/xlink">
	<title>messages icon</title>
	<desc>messages icon from the IconExperience.com O-Collection. Copyright by INCORS GmbH (www.incors.com).</desc>
	<path id="curve1" fill="#808080" d="M6876 4251c1499,0 2715,955 2715,2134 0,552 -267,1055 -705,1434 -65,56 -105,122 -124,206 -193,845 -901,1463 -1886,1463 128,-129 214,-288 272,-461 40,-120 22,-241 -51,-345 -73,-104 -181,-162 -308,-165 -1460,-35 -2629,-977 -2629,-2132 0,-1179 1216,-2134 2716,-2134zm869 4299c191,-163 329,-388 393,-667 50,-217 162,-403 330,-548 281,-243 483,-571 483,-950 0,-107 -16,-212 -47,-314 -247,-808 -1258,-1180 -2028,-1180 -771,0 -1782,372 -2029,1180 -31,102 -47,207 -47,314 0,106 16,211 47,313 240,785 1207,1161 1958,1180 330,8 626,166 816,436 52,74 93,153 124,236z"/>
	<path id="curve0" fill="#808080" d="M3360 640c-1502,0 -2720,957 -2720,2137 0,553 267,1057 706,1436 65,57 105,123 124,207 194,846 902,1466 1890,1466 -129,-129 -215,-289 -273,-462 -40,-121 -22,-242 51,-346 73,-104 181,-162 309,-165 1462,-36 2633,-978 2633,-2136 0,-1180 -1218,-2137 -2720,-2137zm-870 4308c-192,-163 -332,-390 -396,-670 -49,-217 -161,-403 -329,-549 -282,-243 -485,-572 -485,-952 0,-107 16,-212 47,-314 248,-810 1261,-1183 2033,-1183 772,0 1785,373 2033,1183 31,102 47,207 47,314 0,107 -16,212 -47,314 -241,787 -1210,1164 -1962,1182 -330,9 -627,167 -816,437 -53,75 -95,155 -125,238z"/>
</svg>
