<?xml version="1.0" encoding="UTF-8"?>
<!DOCTYPE svg PUBLIC "-//W3C//DTD SVG 1.1//EN" "http://www.w3.org/Graphics/SVG/1.1/DTD/svg11.dtd">
<svg xmlns="http://www.w3.org/2000/svg" xml:space="preserve" width="1024px" height="1024px" shape-rendering="geometricPrecision" text-rendering="geometricPrecision" image-rendering="optimizeQuality" fill-rule="nonzero" clip-rule="evenodd" viewBox="0 0 10240 10240" xmlns:xlink="http://www.w3.org/1999/xlink">
	<title>microphone icon</title>
	<desc>microphone icon from the IconExperience.com O-Collection. Copyright by INCORS GmbH (www.incors.com).</desc>
	<path id="curve2" fill="#808080" d="M2311 6837l-23 22c-250,250 -375,578 -375,905 0,328 125,655 375,905 250,250 578,375 905,375 328,0 656,-125 905,-375l1132 -1131c125,-125 289,-187 452,-187 164,0 328,62 453,187 125,125 187,289 187,453 0,163 -62,327 -187,452l-453 453c-125,125 -125,327 0,452 125,125 328,125 453,0l452 -452c250,-250 375,-578 375,-905 0,-328 -125,-656 -375,-906 -249,-249 -577,-374 -905,-374 -327,0 -655,125 -905,374l-1131 1132c-125,125 -289,187 -453,187 -163,0 -327,-62 -452,-187 -125,-125 -188,-289 -188,-453 0,-163 63,-327 188,-452l22 -23c-177,-114 -338,-275 -452,-452z"/>
	<path id="curve1" fill="#808080" d="M4948 3362l-2433 2818c-279,323 582,1184 905,905l2818 -2433c-285,-109 -552,-278 -782,-508 -230,-230 -399,-497 -508,-782z"/>
	<path id="curve0" fill="#EDC87E" d="M8398 1202c-750,-749 -1966,-749 -2716,0 -749,750 -749,1966 0,2716 750,749 1966,749 2716,0 749,-750 749,-1966 0,-2716z"/>
</svg>
