<?xml version="1.0" encoding="UTF-8"?>
<!DOCTYPE svg PUBLIC "-//W3C//DTD SVG 1.1//EN" "http://www.w3.org/Graphics/SVG/1.1/DTD/svg11.dtd">
<svg xmlns="http://www.w3.org/2000/svg" xml:space="preserve" width="1024px" height="1024px" shape-rendering="geometricPrecision" text-rendering="geometricPrecision" image-rendering="optimizeQuality" fill-rule="nonzero" clip-rule="evenodd" viewBox="0 0 10240 10240" xmlns:xlink="http://www.w3.org/1999/xlink">
	<title>microphone2 icon</title>
	<desc>microphone2 icon from the IconExperience.com O-Collection. Copyright by INCORS GmbH (www.incors.com).</desc>
	<path id="curve3" fill="#808080" d="M3145 8958c176,-10 326,125 336,301 10,176 -125,326 -301,336 -46,3 -95,5 -140,5 -1325,0 -2400,-1075 -2400,-2400 0,-45 2,-94 5,-140 10,-176 160,-311 336,-301 176,10 311,160 301,336 -2,37 -2,68 -2,105 0,972 788,1760 1760,1760 37,0 68,0 105,-2z"/>
	<path id="curve2" fill="#808080" d="M3088 7999c176,-9 327,125 337,301 9,177 -126,327 -302,337 -27,1 -56,3 -83,3 -795,0 -1440,-645 -1440,-1440 0,-27 2,-56 3,-83 10,-176 160,-311 336,-302 177,10 311,161 302,337 -1,19 -1,29 -1,48 0,442 358,800 800,800 19,0 29,0 48,-1z"/>
	<path id="curve1" fill="#808080" d="M3040 6720c9,0 18,0 27,1l255 -256c-90,-159 -118,-319 -29,-423l1986 -2333c109,275 275,533 497,755 222,222 480,388 755,497l-2333 1986c-104,89 -264,61 -423,-29l-256 255c1,9 1,18 1,27 0,265 -215,480 -480,480 -265,0 -480,-215 -480,-480 0,-265 215,-480 480,-480z"/>
	<path id="curve0" fill="#EDC87E" d="M8718 1522c-750,-749 -1966,-749 -2716,0 -749,750 -749,1966 0,2716 750,749 1966,749 2716,0 749,-750 749,-1966 0,-2716z"/>
</svg>
