<?xml version="1.0" encoding="UTF-8"?>
<!DOCTYPE svg PUBLIC "-//W3C//DTD SVG 1.1//EN" "http://www.w3.org/Graphics/SVG/1.1/DTD/svg11.dtd">
<svg xmlns="http://www.w3.org/2000/svg" xml:space="preserve" width="1024px" height="1024px" shape-rendering="geometricPrecision" text-rendering="geometricPrecision" image-rendering="optimizeQuality" fill-rule="nonzero" clip-rule="evenodd" viewBox="0 0 10240 10240" xmlns:xlink="http://www.w3.org/1999/xlink">
	<title>microscope icon</title>
	<desc>microscope icon from the IconExperience.com O-Collection. Copyright by INCORS GmbH (www.incors.com).</desc>
	<path id="curve3" fill="#808080" d="M2567 8307l2553 6 0 -953 640 0c176,0 320,-144 320,-320l0 -640 0 0c353,0 640,-430 640,-960 0,-319 -104,-602 -264,-777 348,-190 584,-559 584,-983 0,-244 -78,-469 -210,-653 868,353 1490,1300 1490,2413 0,1018 -520,1897 -1273,2310l0 568 633 2c353,1 640,288 640,640l0 640 -6393 -13 0 -640c0,-353 287,-641 640,-640z"/>
	<path id="curve2" fill="#808080" d="M2560,6400 5760,6400 5760,7040 2560,7040z"/>
	<path id="curve1" fill="#808080" d="M3367 627l160 0 1280 0 160 0c88,0 160,72 160,160l0 320c0,88 -72,160 -160,160l-160 0 0 640 320 320 0 662c-202,203 -327,482 -327,791 0,226 67,436 182,612l-175 175 0 960 -320 320 -640 0 -320 -320 0 -960 -320 -320 0 -1920 320 -320 0 -640 -160 0c-88,0 -160,-72 -160,-160l0 -320c0,-88 72,-160 160,-160z"/>
	<path id="curve0" fill="#808080" d="M5920 2880c442,0 800,358 800,800 0,442 -358,800 -800,800 -442,0 -800,-358 -800,-800 0,-442 358,-800 800,-800z"/>
</svg>
