<?xml version="1.0" encoding="UTF-8"?>
<!DOCTYPE svg PUBLIC "-//W3C//DTD SVG 1.1//EN" "http://www.w3.org/Graphics/SVG/1.1/DTD/svg11.dtd">
<svg xmlns="http://www.w3.org/2000/svg" xml:space="preserve" width="1024px" height="1024px" shape-rendering="geometricPrecision" text-rendering="geometricPrecision" image-rendering="optimizeQuality" fill-rule="nonzero" clip-rule="evenodd" viewBox="0 0 10240 10240" xmlns:xlink="http://www.w3.org/1999/xlink">
	<title>microwave_oven icon</title>
	<desc>microwave_oven icon from the IconExperience.com O-Collection. Copyright by INCORS GmbH (www.incors.com).</desc>
	<path id="curve1" fill="#4D82B8" d="M1600,2880 6720,2880 6720,6720 1600,6720z"/>
	<path id="curve0" fill="#808080" d="M1280 1920l7680 0c353,0 640,288 640,640l0 6080c0,176 -144,320 -320,320l-1280 0c-176,0 -320,-144 -320,-320 0,-176 -144,-320 -320,-320l-4480 0c-176,0 -320,144 -320,320 0,176 -144,320 -320,320l-1280 0c-176,0 -320,-144 -320,-320l0 -6080c0,-353 287,-640 640,-640zm7040 3840c-353,0 -640,287 -640,640 0,353 287,640 640,640 353,0 640,-287 640,-640 0,-353 -287,-640 -640,-640zm-640 -3200l0 2560 1280 0 0 -2560 -1280 0zm-6080 0c-176,0 -320,144 -320,320l0 3840c0,176 144,320 320,320l5120 0c176,0 320,-144 320,-320l0 -3840c0,-176 -144,-320 -320,-320l-5120 0z"/>
</svg>
