<?xml version="1.0" encoding="UTF-8"?>
<!DOCTYPE svg PUBLIC "-//W3C//DTD SVG 1.1//EN" "http://www.w3.org/Graphics/SVG/1.1/DTD/svg11.dtd">
<svg xmlns="http://www.w3.org/2000/svg" xml:space="preserve" width="1024px" height="1024px" shape-rendering="geometricPrecision" text-rendering="geometricPrecision" image-rendering="optimizeQuality" fill-rule="nonzero" clip-rule="evenodd" viewBox="0 0 10240 10240" xmlns:xlink="http://www.w3.org/1999/xlink">
	<title>minibus icon</title>
	<desc>minibus icon from the IconExperience.com O-Collection. Copyright by INCORS GmbH (www.incors.com).</desc>
	<path id="curve1" fill="#808080" d="M2880 7040c530,0 960,430 960,960 0,530 -430,960 -960,960 -530,0 -960,-430 -960,-960 0,-530 430,-960 960,-960zm4480 640c177,0 320,143 320,320 0,177 -143,320 -320,320 -177,0 -320,-143 -320,-320 0,-177 143,-320 320,-320zm-4480 0c-177,0 -320,143 -320,320 0,177 143,320 320,320 177,0 320,-143 320,-320 0,-177 -143,-320 -320,-320zm4480 -640c-530,0 -960,430 -960,960 0,530 430,960 960,960 530,0 960,-430 960,-960 0,-530 -430,-960 -960,-960z"/>
	<path id="curve0" fill="#4D82B8" d="M1280 3200l5929 0c497,0 923,263 1145,708l606 1212 265 265c249,249 375,553 375,905l0 110 -320 0c-176,0 -320,144 -320,320l0 0c0,176 144,320 320,320l320 0 0 320c0,352 -288,640 -640,640l-320 0 0 0c0,-707 -573,-1280 -1280,-1280 -707,0 -1280,573 -1280,1280 0,110 14,218 40,320l-2000 0c26,-102 40,-210 40,-320 0,-707 -573,-1280 -1280,-1280 -707,0 -1280,573 -1280,1280l0 0 -320 0c-352,0 -640,-288 -640,-640l0 -3520c0,-351 289,-640 640,-640zm1282 640c-1,0 -2,1 -2,2l0 1278 1280 0 0 -1280 -1278 0zm1918 1280l1280 0 0 -1280 -1280 0 0 1280zm1920 0l1327 0c114,0 212,-55 272,-152 60,-97 65,-209 14,-311l-232 -463c-113,-228 -318,-354 -572,-354l-809 0 0 1280z"/>
</svg>
