<?xml version="1.0" encoding="UTF-8"?>
<!DOCTYPE svg PUBLIC "-//W3C//DTD SVG 1.1//EN" "http://www.w3.org/Graphics/SVG/1.1/DTD/svg11.dtd">
<svg xmlns="http://www.w3.org/2000/svg" xml:space="preserve" width="1024px" height="1024px" shape-rendering="geometricPrecision" text-rendering="geometricPrecision" image-rendering="optimizeQuality" fill-rule="nonzero" clip-rule="evenodd" viewBox="0 0 10240 10240" xmlns:xlink="http://www.w3.org/1999/xlink">
	<title>mirror_vertically icon</title>
	<desc>mirror_vertically icon from the IconExperience.com O-Collection. Copyright by INCORS GmbH (www.incors.com).</desc>
	<path id="curve2" fill="#4D82B8" d="M6909 7578c456,-198 771,-651 771,-1175l0 -643 -5120 0 0 643c0,524 315,977 771,1175 127,54 202,177 193,315 -3,35 -4,71 -4,107 0,883 717,1600 1600,1600 883,0 1600,-717 1600,-1600 0,-36 -1,-72 -4,-107 -9,-138 66,-261 193,-315z"/>
	<path id="curve1" fill="#808080" d="M640,4800 9600,4800 9600,5440 640,5440z"/>
	<path id="curve0" fill="#808080" d="M6909 2662c456,198 771,651 771,1175l0 643 -640 0 0 -643c0,-255 -151,-486 -385,-587 -374,-162 -604,-540 -577,-945 1,-22 2,-43 2,-65 0,-530 -430,-960 -960,-960 -530,0 -960,430 -960,960 0,22 1,43 2,65 27,405 -204,783 -577,945 -234,101 -385,332 -385,587l0 643 -640 0 0 -643c0,-524 315,-977 771,-1175 127,-54 202,-177 193,-315 -3,-35 -4,-71 -4,-107 0,-883 717,-1600 1600,-1600 883,0 1600,717 1600,1600 0,36 -1,72 -4,107 -9,138 66,261 193,315z"/>
</svg>
