<?xml version="1.0" encoding="UTF-8"?>
<!DOCTYPE svg PUBLIC "-//W3C//DTD SVG 1.1//EN" "http://www.w3.org/Graphics/SVG/1.1/DTD/svg11.dtd">
<svg xmlns="http://www.w3.org/2000/svg" xml:space="preserve" width="1024px" height="1024px" shape-rendering="geometricPrecision" text-rendering="geometricPrecision" image-rendering="optimizeQuality" fill-rule="nonzero" clip-rule="evenodd" viewBox="0 0 10240 10240" xmlns:xlink="http://www.w3.org/1999/xlink">
	<title>mirror_horizontally icon</title>
	<desc>mirror_horizontally icon from the IconExperience.com O-Collection. Copyright by INCORS GmbH (www.incors.com).</desc>
	<path id="curve2" fill="#4D82B8" d="M7578 3331c-198,-456 -651,-771 -1175,-771l-643 0 0 5120 643 0c524,0 977,-315 1175,-771 54,-127 177,-202 315,-193 35,3 71,4 107,4 883,0 1600,-717 1600,-1600 0,-883 -717,-1600 -1600,-1600 -36,0 -72,1 -107,4 -138,9 -261,-66 -315,-193z"/>
	<path id="curve1" fill="#808080" d="M4800,9600 4800,640 5440,640 5440,9600z"/>
	<path id="curve0" fill="#808080" d="M2662 3331c198,-456 651,-771 1175,-771l643 0 0 640 -643 0c-255,0 -486,151 -587,385 -162,374 -540,604 -945,577 -22,-1 -43,-2 -65,-2 -530,0 -960,430 -960,960 0,530 430,960 960,960 22,0 43,-1 65,-2 405,-27 783,204 945,577 101,234 332,385 587,385l643 0 0 640 -643 0c-524,0 -977,-315 -1175,-771 -54,-127 -177,-202 -315,-193 -35,3 -71,4 -107,4 -883,0 -1600,-717 -1600,-1600 0,-883 717,-1600 1600,-1600 36,0 72,1 107,4 138,9 261,-66 315,-193z"/>
</svg>
