<?xml version="1.0" encoding="UTF-8"?>
<!DOCTYPE svg PUBLIC "-//W3C//DTD SVG 1.1//EN" "http://www.w3.org/Graphics/SVG/1.1/DTD/svg11.dtd">
<svg xmlns="http://www.w3.org/2000/svg" xml:space="preserve" width="1024px" height="1024px" shape-rendering="geometricPrecision" text-rendering="geometricPrecision" image-rendering="optimizeQuality" fill-rule="nonzero" clip-rule="evenodd" viewBox="0 0 10240 10240" xmlns:xlink="http://www.w3.org/1999/xlink">
	<title>missile icon</title>
	<desc>missile icon from the IconExperience.com O-Collection. Copyright by INCORS GmbH (www.incors.com).</desc>
	<path id="curve1" fill="#808080" d="M2240 4480l2240 0 1650 -825c186,-93 364,-135 572,-135l338 0 0 960 1280 0 640 -640 640 0 0 640 0 1280 0 640 -640 0 -640 -640 -1280 0 0 960 -338 0c-208,0 -386,-42 -572,-135l-1650 -825 -2240 0 0 -1280z"/>
	<path id="curve0" fill="#E68497" d="M1756 4480l164 0 0 1280 -164 0c-145,0 -268,-20 -405,-66l-812 -270c-133,-45 -219,-164 -219,-304 0,-140 86,-259 219,-304l812 -270c137,-46 260,-66 405,-66z"/>
</svg>
