<?xml version="1.0" encoding="UTF-8"?>
<!DOCTYPE svg PUBLIC "-//W3C//DTD SVG 1.1//EN" "http://www.w3.org/Graphics/SVG/1.1/DTD/svg11.dtd">
<svg xmlns="http://www.w3.org/2000/svg" xml:space="preserve" width="1024px" height="1024px" shape-rendering="geometricPrecision" text-rendering="geometricPrecision" image-rendering="optimizeQuality" fill-rule="nonzero" clip-rule="evenodd" viewBox="0 0 10240 10240" xmlns:xlink="http://www.w3.org/1999/xlink">
	<title>mobile_crane icon</title>
	<desc>mobile_crane icon from the IconExperience.com O-Collection. Copyright by INCORS GmbH (www.incors.com).</desc>
	<path id="curve5" fill="#808080" d="M6400 7040c-530,0 -960,430 -960,960 0,530 430,960 960,960 530,0 960,-430 960,-960 0,-530 -430,-960 -960,-960zm-5120 0c530,0 960,430 960,960 0,-530 430,-960 960,-960 530,0 960,430 960,960 0,530 -430,960 -960,960 -530,0 -960,-430 -960,-960 0,530 -430,960 -960,960 -530,0 -960,-430 -960,-960 0,-530 430,-960 960,-960zm0 640c-177,0 -320,143 -320,320 0,177 143,320 320,320 177,0 320,-143 320,-320 0,-177 -143,-320 -320,-320zm1920 0c-177,0 -320,143 -320,320 0,177 143,320 320,320 177,0 320,-143 320,-320 0,-177 -143,-320 -320,-320zm3200 0c177,0 320,143 320,320 0,177 -143,320 -320,320 -177,0 -320,-143 -320,-320 0,-177 143,-320 320,-320z"/>
	<path id="curve4" fill="#808080" d="M6080 6080l0 640 -1600 0 0 -640 1600 0zm960 -320l0 960 1101 0 -537 -960c0,0 0,0 0,0l-564 0zm-640 960l0 -1280c0,-176 144,-320 320,-320l884 0c249,0 452,137 573,354l715 1280c51,90 68,182 68,286l0 765c0,123 -64,228 -174,284l-379 196c-47,24 -93,35 -146,35l-621 0c26,-102 40,-210 40,-320 0,-707 -573,-1280 -1280,-1280zm-1240 1600l-720 0c26,-102 40,-210 40,-320 0,-382 -168,-725 -434,-960l1508 0c-266,235 -434,578 -434,960 0,110 14,218 40,320z"/>
	<path id="curve3" fill="#808080" d="M9834 5878c-86,122 -229,202 -394,202 -261,0 -480,-243 -480,-480 0,-237 134,-387 320,-453l0 -27 -42 0c-121,0 -225,-62 -282,-169 -57,-107 -51,-228 16,-329l261 -391c30,-46 78,-71 133,-71l148 0c56,0 103,25 134,71l260 391c68,101 73,222 16,329 -57,107 -161,169 -282,169l-42 0 0 27c0,139 -83,256 -213,302 -62,22 -107,81 -107,151 0,88 77,160 160,160 55,0 100,-27 128,-67 32,-44 78,-68 132,-67l4 0c61,0 113,32 141,87 28,54 24,115 -11,165z"/>
	<path id="curve2" fill="#808080" d="M9280,2177 9280,4194 9600,4194 9600,2016z"/>
	<path id="curve1" fill="#EDC87E" d="M3928 5220l726 -727 1813 -908 -2466 2466c94,-247 82,-521 -41,-766l-32 -65zm-725 -1432l6001 -3005c158,-79 351,-14 429,143l144 286c79,158 14,351 -143,430l-5995 3001 -384 -769c-15,-30 -33,-59 -52,-86z"/>
	<path id="curve0" fill="#EDC87E" d="M1600 3840l1082 0c124,0 231,66 286,177l706 1411c105,211 91,445 -40,641l-244 366c-122,184 -312,285 -533,285l-2217 0c-176,0 -320,-144 -320,-320l0 -960c0,-176 144,-320 320,-320l640 0 0 -960c0,-176 144,-320 320,-320zm320 640l0 960 1044 0 -480 -960 -564 0z"/>
</svg>
