<?xml version="1.0" encoding="UTF-8"?>
<!DOCTYPE svg PUBLIC "-//W3C//DTD SVG 1.1//EN" "http://www.w3.org/Graphics/SVG/1.1/DTD/svg11.dtd">
<svg xmlns="http://www.w3.org/2000/svg" xml:space="preserve" width="1024px" height="1024px" shape-rendering="geometricPrecision" text-rendering="geometricPrecision" image-rendering="optimizeQuality" fill-rule="nonzero" clip-rule="evenodd" viewBox="0 0 10240 10240" xmlns:xlink="http://www.w3.org/1999/xlink">
	<title>mobilephone2 icon</title>
	<desc>mobilephone2 icon from the IconExperience.com O-Collection. Copyright by INCORS GmbH (www.incors.com).</desc>
	<path id="curve1" fill="#808080" d="M6720 5440c116,0 226,-31 320,-86l0 3606c0,352 -288,640 -640,640l-2560 0c-352,0 -640,-287 -640,-640l0 -3606c94,55 204,86 320,86 0,176 144,320 320,320l2560 0c176,0 320,-144 320,-320zm-2880 2880l0 640 640 0 0 -640 -640 0zm0 -960l0 640 640 0 0 -640 -640 0zm0 -960l0 640 640 0 0 -640 -640 0zm960 1920l0 640 640 0 0 -640 -640 0zm0 -960l0 640 640 0 0 -640 -640 0zm0 -960l0 640 640 0 0 -640 -640 0zm960 1920l0 640 640 0 0 -640 -640 0zm0 -960l0 640 640 0 0 -640 -640 0zm0 -960l0 640 640 0 0 -640 -640 0z"/>
	<path id="curve0" fill="#808080" d="M3840 640l2560 0c353,0 640,288 640,640l0 3520c0,176 -144,320 -320,320l-320 0 0 320 -2560 0 0 -320 -320 0c-176,0 -320,-144 -320,-320l0 -3520c0,-353 287,-640 640,-640zm0 640l0 3200 2560 0 0 -3200 -2560 0z"/>
</svg>
