<?xml version="1.0" encoding="UTF-8"?>
<!DOCTYPE svg PUBLIC "-//W3C//DTD SVG 1.1//EN" "http://www.w3.org/Graphics/SVG/1.1/DTD/svg11.dtd">
<svg xmlns="http://www.w3.org/2000/svg" xml:space="preserve" width="1024px" height="1024px" shape-rendering="geometricPrecision" text-rendering="geometricPrecision" image-rendering="optimizeQuality" fill-rule="nonzero" clip-rule="evenodd" viewBox="0 0 10240 10240" xmlns:xlink="http://www.w3.org/1999/xlink">
	<title>modem_earth icon</title>
	<desc>modem_earth icon from the IconExperience.com O-Collection. Copyright by INCORS GmbH (www.incors.com).</desc>
	<path id="curve2" fill="#ED9A56" d="M5760,7680 7040,7680 7040,8320 5760,8320z"/>
	<path id="curve1" fill="#808080" d="M1280 6400l640 0 0 1280 320 0 0 -1280 320 0 0 1280 320 0 0 -1280 320 0 0 1280 320 0 0 -1280 3520 0c353,0 640,288 640,640l0 1920c0,352 -287,640 -640,640l-5760 0c-352,0 -640,-287 -640,-640l0 -1920c0,-352 287,-640 640,-640zm4480 960c-176,0 -320,144 -320,320l0 640c0,176 144,320 320,320l1280 0c176,0 320,-144 320,-320l0 -640c0,-176 -144,-320 -320,-320l-1280 0z"/>
	<path id="curve0" fill="#4D82B8" d="M5760 640c2121,0 3840,1719 3840,3840 0,1285 -631,2422 -1600,3119l0 -559c0,-84 -11,-166 -32,-244 611,-583 992,-1405 992,-2316 0,-195 -17,-385 -51,-571 -10,-4 -20,-5 -30,-2 -55,17 -59,193 -119,293 -49,82 -158,92 -176,116 -118,160 276,289 105,511 -74,95 -297,310 -356,588 -127,591 -44,235 -233,707 -29,71 -79,344 -120,405 -21,32 -46,64 -75,97 -156,-322 -485,-544 -865,-544l-152 0c13,-92 21,-157 23,-297 1,-8 -112,-462 -131,-502 -84,-179 -222,-259 -416,-192 -151,52 -278,-24 -398,-73 -239,-96 -350,-409 -400,-664 0,-1 36,-401 38,-423 7,-105 57,-205 113,-286 430,-616 329,-352 883,-550 92,-33 227,-39 277,-22 247,86 235,340 489,383 29,5 161,-76 191,-71 156,28 304,174 440,105 82,-41 124,-195 51,-250 -70,-54 -178,-14 -255,-69 -113,-81 -207,32 -302,-76 -43,-49 -118,-202 -174,-283 -60,-86 -240,-51 -211,-11 93,124 229,144 246,213 20,75 -175,174 -123,38 28,-71 -111,-117 -273,-201 -84,-44 -166,-158 -294,-97 -63,30 -182,180 -229,251 -81,121 -266,88 -389,28 -122,-60 -125,-355 34,-484 152,-123 276,-48 424,-90 61,-17 91,-82 181,-143 107,-72 -66,-186 -8,-303 47,-94 204,-114 287,-154 78,-39 165,-104 251,-53 117,70 244,77 360,149 117,72 214,123 317,139 -494,-441 -1127,-731 -1824,-797 95,102 185,243 146,329 -53,119 -130,268 -361,353 -171,64 -396,66 -568,141 -177,77 -354,71 -456,95 -160,37 8,-527 -39,-591 -69,-93 -496,-13 -533,84 -86,226 115,417 106,461 -18,86 -16,427 -97,515 -124,133 -439,254 -481,260 -203,29 -250,237 -403,359 -64,51 -388,391 -439,496 -141,287 -4,470 60,527 110,99 155,109 277,147 49,15 511,253 636,382 128,132 192,269 321,346 155,95 439,201 477,274 91,178 117,394 45,607l-1457 0c-14,-45 -31,-83 -51,-106 -169,-195 -324,-352 -356,-550 -29,-181 -133,-444 -152,-587 -20,-158 -81,-328 -179,-470 -1,37 -2,75 -2,113 0,583 156,1129 428,1600l-720 0c-223,-487 -348,-1029 -348,-1600 0,-2121 1719,-3840 3840,-3840z"/>
</svg>
