<?xml version="1.0" encoding="UTF-8"?>
<!DOCTYPE svg PUBLIC "-//W3C//DTD SVG 1.1//EN" "http://www.w3.org/Graphics/SVG/1.1/DTD/svg11.dtd">
<svg xmlns="http://www.w3.org/2000/svg" xml:space="preserve" width="1024px" height="1024px" shape-rendering="geometricPrecision" text-rendering="geometricPrecision" image-rendering="optimizeQuality" fill-rule="nonzero" clip-rule="evenodd" viewBox="0 0 10240 10240" xmlns:xlink="http://www.w3.org/1999/xlink">
	<title>molecule_h2o icon</title>
	<desc>molecule_h2o icon from the IconExperience.com O-Collection. Copyright by INCORS GmbH (www.incors.com).</desc>
	<path id="curve2" fill="#808080" d="M6080 7036l0 4c0,1237 -997,2240 -2226,2240 -1229,0 -2226,-1003 -2226,-2240 0,-74 4,-146 10,-218 640,535 1463,858 2362,858 772,0 1488,-238 2080,-644z"/>
	<path id="curve1" fill="#808080" d="M7200 960c1325,0 2400,1075 2400,2400 0,1325 -1075,2400 -2400,2400 -103,0 -204,-7 -304,-19 -787,-485 -1368,-1441 -1447,-2541 -50,-697 110,-1337 416,-1835 382,-256 841,-405 1335,-405zm0 640c-319,0 -617,85 -875,233 -93,53 -150,141 -159,249 -10,107 30,204 113,273l0 0c105,88 246,101 365,33 164,-94 354,-148 556,-148 10,0 19,0 29,0 149,4 277,-91 316,-235l0 0c27,-98 9,-194 -52,-276 -60,-81 -147,-126 -248,-128 -15,-1 -30,-1 -45,-1z"/>
	<path id="curve0" fill="#4D82B8" d="M4000 640c617,0 1195,166 1692,456l-5 3 -58 39 -36 59c-371,603 -513,1324 -463,2026 78,1090 634,2182 1572,2774 -612,827 -1594,1363 -2702,1363 -1856,0 -3360,-1504 -3360,-3360 0,-1856 1504,-3360 3360,-3360zm0 640c-1502,0 -2720,1218 -2720,2720 0,64 2,127 7,190 6,96 50,176 127,234 77,58 165,77 259,57l0 0c157,-34 263,-175 252,-335 -3,-48 -5,-97 -5,-146 0,-1149 931,-2080 2080,-2080 51,0 102,2 152,5 4,1 9,1 13,1 174,6 321,-129 330,-303 9,-174 -123,-323 -297,-336 -65,-5 -131,-7 -198,-7z"/>
</svg>
