<?xml version="1.0" encoding="UTF-8"?>
<!DOCTYPE svg PUBLIC "-//W3C//DTD SVG 1.1//EN" "http://www.w3.org/Graphics/SVG/1.1/DTD/svg11.dtd">
<svg xmlns="http://www.w3.org/2000/svg" xml:space="preserve" width="1024px" height="1024px" shape-rendering="geometricPrecision" text-rendering="geometricPrecision" image-rendering="optimizeQuality" fill-rule="nonzero" clip-rule="evenodd" viewBox="0 0 10240 10240" xmlns:xlink="http://www.w3.org/1999/xlink">
	<title>money_coins icon</title>
	<desc>money_coins icon from the IconExperience.com O-Collection. Copyright by INCORS GmbH (www.incors.com).</desc>
	<path id="curve2" fill="#EDC87E" d="M4480 640c1306,0 2383,977 2540,2240 -108,1 -215,8 -320,20l0 0c-147,-1095 -1085,-1940 -2220,-1940 -1237,0 -2240,1003 -2240,2240 0,378 94,734 259,1046 -106,27 -209,59 -310,97 -172,-344 -269,-732 -269,-1143 0,-1414 1146,-2560 2560,-2560zm1911 2314c-556,128 -1050,417 -1431,815l0 -1 0 -1750 -1440 542 0 480 480 0 0 1233 0 0c-254,-74 -522,-113 -800,-113 -125,0 -249,8 -370,24l1 -1c-172,-287 -271,-624 -271,-983 0,-1060 860,-1920 1920,-1920 977,0 1784,730 1905,1675 2,-1 4,-1 6,-1zm-1843 1361c-26,46 -52,93 -76,141 -104,-52 -212,-97 -324,-136l397 0c1,-2 2,-3 3,-5z"/>
	<path id="curve1" fill="#EDC87E" d="M6560 5600l0 1280 960 0 0 -2302 -1440 542 0 480 480 0zm480 -2400c1414,0 2560,1146 2560,2560 0,1414 -1146,2560 -2560,2560 -411,0 -799,-97 -1143,-269 38,-101 70,-204 97,-310 312,165 668,259 1046,259 1237,0 2240,-1003 2240,-2240 0,-1237 -1003,-2240 -2240,-2240 -895,0 -1667,525 -2026,1283 -84,-68 -172,-132 -263,-190 421,-838 1288,-1413 2289,-1413zm-984 4210c16,-121 24,-245 24,-370 0,-781 -311,-1490 -817,-2009 288,-699 975,-1191 1777,-1191 1060,0 1920,860 1920,1920 0,1060 -860,1920 -1920,1920 -359,0 -696,-99 -983,-271l-1 1z"/>
	<path id="curve0" fill="#EDC87E" d="M3200 4480c1414,0 2560,1146 2560,2560 0,1414 -1146,2560 -2560,2560 -1414,0 -2560,-1146 -2560,-2560 0,-1414 1146,-2560 2560,-2560zm-480 2400l-480 0 0 -480 1440 -542 0 2302 -960 0 0 -1280zm480 -2080c-1237,0 -2240,1003 -2240,2240 0,1237 1003,2240 2240,2240 1237,0 2240,-1003 2240,-2240 0,-1237 -1003,-2240 -2240,-2240zm0 320c-1060,0 -1920,860 -1920,1920 0,1060 860,1920 1920,1920 1060,0 1920,-860 1920,-1920 0,-1060 -860,-1920 -1920,-1920z"/>
</svg>
