<?xml version="1.0" encoding="UTF-8"?>
<!DOCTYPE svg PUBLIC "-//W3C//DTD SVG 1.1//EN" "http://www.w3.org/Graphics/SVG/1.1/DTD/svg11.dtd">
<svg xmlns="http://www.w3.org/2000/svg" xml:space="preserve" width="1024px" height="1024px" shape-rendering="geometricPrecision" text-rendering="geometricPrecision" image-rendering="optimizeQuality" fill-rule="nonzero" clip-rule="evenodd" viewBox="0 0 10240 10240" xmlns:xlink="http://www.w3.org/1999/xlink">
	<title>moneybag_coins icon</title>
	<desc>moneybag_coins icon from the IconExperience.com O-Collection. Copyright by INCORS GmbH (www.incors.com).</desc>
	<path id="curve2" fill="#B89A7C" d="M7360 3520c0,640 2240,1280 2240,3840 0,486 0,1291 -140,1777 -80,278 -325,463 -615,463l-2891 0c651,-392 1086,-1105 1086,-1920 0,-1237 -1003,-2240 -2240,-2240 -71,0 -142,3 -211,10 -103,-219 -239,-418 -403,-591 601,-648 1254,-993 1254,-1339l1920 0zm-2154 -2560c398,0 796,320 1194,320 398,0 796,-320 1194,-320 254,0 471,138 579,369 108,230 75,485 -88,681 -241,290 -725,550 -725,870l-1920 0c0,-320 -484,-580 -725,-870 -163,-196 -196,-451 -88,-681 108,-231 325,-369 579,-369z"/>
	<path id="curve1" fill="#EDC87E" d="M2560 4480c737,0 1378,416 1699,1026 -106,26 -209,60 -309,101 -276,-482 -795,-807 -1390,-807 -884,0 -1600,716 -1600,1600 0,884 716,1600 1600,1600 8,0 15,0 23,0 15,108 39,215 69,318 -30,1 -61,2 -92,2 -1060,0 -1920,-860 -1920,-1920 0,-1060 860,-1920 1920,-1920zm-320 2560l413 0c-60,203 -93,418 -93,640l0 0c-707,0 -1280,-573 -1280,-1280 0,-707 573,-1280 1280,-1280 470,0 880,253 1103,630 -321,189 -591,457 -783,776l0 -976 -840 280 0 250 200 0 0 960z"/>
	<path id="curve0" fill="#EDC87E" d="M4800 5760c1060,0 1920,860 1920,1920 0,1060 -860,1920 -1920,1920 -1060,0 -1920,-860 -1920,-1920 0,-1060 860,-1920 1920,-1920zm0 320c-884,0 -1600,716 -1600,1600 0,884 716,1600 1600,1600 884,0 1600,-716 1600,-1600 0,-884 -716,-1600 -1600,-1600zm-320 2240l0 -960 -200 0 0 -250 840 -280 0 1490 -640 0zm320 -1920c-707,0 -1280,573 -1280,1280 0,707 573,1280 1280,1280 707,0 1280,-573 1280,-1280 0,-707 -573,-1280 -1280,-1280z"/>
</svg>
