<?xml version="1.0" encoding="UTF-8"?>
<!DOCTYPE svg PUBLIC "-//W3C//DTD SVG 1.1//EN" "http://www.w3.org/Graphics/SVG/1.1/DTD/svg11.dtd">
<svg xmlns="http://www.w3.org/2000/svg" xml:space="preserve" width="1024px" height="1024px" shape-rendering="geometricPrecision" text-rendering="geometricPrecision" image-rendering="optimizeQuality" fill-rule="nonzero" clip-rule="evenodd" viewBox="0 0 10240 10240" xmlns:xlink="http://www.w3.org/1999/xlink">
	<title>money_coins2 icon</title>
	<desc>money_coins2 icon from the IconExperience.com O-Collection. Copyright by INCORS GmbH (www.incors.com).</desc>
	<path id="curve2" fill="#EDC87E" d="M7680 1920l0 960c0,530 -860,960 -1920,960 -1060,0 -1920,-430 -1920,-960l0 -960c0,530 860,960 1920,960 1060,0 1920,-430 1920,-960zm0 1280l0 640c-183,0 -372,12 -561,38 347,-173 561,-413 561,-678zm-1452 931c-16,8 -33,16 -49,24 -373,186 -732,505 -739,952 -908,-76 -1600,-471 -1600,-947l0 -960c0,530 860,960 1920,960 162,0 318,-10 468,-29zm-788 976c0,4 0,9 0,13 -4,-2 0,-9 0,-13zm0 320l0 960c-230,-20 -446,-59 -640,-116l0 -511c0,-191 -64,-358 -166,-503m806 1450l0 960c-230,-20 -446,-59 -640,-115l0 -961c194,57 410,96 640,116zm-1538 -1984c-21,-9 -41,-17 -62,-25l0 -218c0,84 22,165 62,243zm791 -3601c305,-102 672,-162 1067,-162 395,0 762,60 1067,162 427,146 702,377 702,638 0,442 -792,800 -1769,800 -977,0 -1769,-358 -1769,-800 0,-261 275,-492 702,-638z"/>
	<path id="curve1" fill="#EDC87E" d="M9600 5120l0 960c0,530 -860,960 -1920,960 -1060,0 -1920,-430 -1920,-960l0 -960c0,530 860,960 1920,960 1060,0 1920,-430 1920,-960zm0 1280l0 960c0,530 -860,960 -1920,960 -1060,0 -1920,-430 -1920,-960l0 -960c0,530 860,960 1920,960 1060,0 1920,-430 1920,-960zm0 1280l0 960c0,530 -860,960 -1920,960 -1060,0 -1920,-430 -1920,-960l0 -960c0,530 860,960 1920,960 1060,0 1920,-430 1920,-960zm-2987 -3358c305,-102 672,-162 1067,-162 395,0 762,60 1067,162 427,146 702,377 702,638 0,442 -792,800 -1769,800 -977,0 -1769,-358 -1769,-800 0,-261 275,-492 702,-638z"/>
	<path id="curve0" fill="#EDC87E" d="M4480 5760l0 960c0,530 -860,960 -1920,960 -1060,0 -1920,-430 -1920,-960l0 -960c0,530 860,960 1920,960 1060,0 1920,-430 1920,-960zm0 1280l0 960c0,530 -860,960 -1920,960 -1060,0 -1920,-430 -1920,-960l0 -960c0,530 860,960 1920,960 1060,0 1920,-430 1920,-960zm-2987 -2078c305,-102 672,-162 1067,-162 395,0 762,60 1067,162 427,146 702,377 702,638 0,442 -792,800 -1769,800 -977,0 -1769,-358 -1769,-800 0,-261 275,-492 702,-638z"/>
</svg>
