<?xml version="1.0" encoding="UTF-8"?>
<!DOCTYPE svg PUBLIC "-//W3C//DTD SVG 1.1//EN" "http://www.w3.org/Graphics/SVG/1.1/DTD/svg11.dtd">
<svg xmlns="http://www.w3.org/2000/svg" xml:space="preserve" width="1024px" height="1024px" shape-rendering="geometricPrecision" text-rendering="geometricPrecision" image-rendering="optimizeQuality" fill-rule="nonzero" clip-rule="evenodd" viewBox="0 0 10240 10240" xmlns:xlink="http://www.w3.org/1999/xlink">
	<title>money2 icon</title>
	<desc>money2 icon from the IconExperience.com O-Collection. Copyright by INCORS GmbH (www.incors.com).</desc>
	<path id="curve2" fill="#4D82B8" d="M960 1920l8320 0c176,0 320,144 320,320l0 4480c0,176 -144,320 -320,320l-2013 0c-33,-110 -74,-217 -123,-320l856 0c0,-707 573,-1280 1280,-1280l0 -1920c-707,0 -1280,-573 -1280,-1280l-5760 0c0,707 -573,1280 -1280,1280l0 1313c-122,124 -230,263 -320,413l0 -3006c0,-176 144,-320 320,-320zm4160 1018c530,0 960,417 960,931 0,514 -430,931 -960,931 -530,0 -960,-417 -960,-931 0,-514 430,-931 960,-931zm-922 1934c23,-23 47,-46 71,-68 227,196 524,316 851,316 327,0 624,-120 851,-316 121,108 222,240 296,387 -65,163 -151,309 -253,434 99,44 195,94 286,151 261,-341 420,-796 420,-1296 0,-1060 -716,-1920 -1600,-1920 -855,0 -1553,804 -1598,1817 256,122 485,291 676,495z"/>
	<path id="curve1" fill="#EDC87E" d="M2560 4480c772,0 1438,456 1743,1114 -100,39 -197,85 -290,138l1 0c-253,-550 -809,-932 -1454,-932 -884,0 -1600,716 -1600,1600 0,884 716,1600 1600,1600 116,0 229,-12 338,-36l0 0c14,107 35,212 63,314 -129,27 -264,42 -401,42 -1060,0 -1920,-860 -1920,-1920 0,-1060 860,-1920 1920,-1920zm1184 1433c-516,402 -851,1025 -864,1727 -102,26 -209,40 -320,40 -707,0 -1280,-573 -1280,-1280 0,-707 573,-1280 1280,-1280 534,0 992,327 1184,793l0 0zm-1504 1127l640 0 0 -1490 -840 280 0 250 200 0 0 960z"/>
	<path id="curve0" fill="#EDC87E" d="M5120 5760c1060,0 1920,860 1920,1920 0,1060 -860,1920 -1920,1920 -1060,0 -1920,-860 -1920,-1920 0,-1060 860,-1920 1920,-1920zm0 320c-884,0 -1600,716 -1600,1600 0,884 716,1600 1600,1600 884,0 1600,-716 1600,-1600 0,-884 -716,-1600 -1600,-1600zm-320 2240l0 -960 -200 0 0 -250 840 -280 0 1490 -640 0zm320 -1920c-707,0 -1280,573 -1280,1280 0,707 573,1280 1280,1280 707,0 1280,-573 1280,-1280 0,-707 -573,-1280 -1280,-1280z"/>
</svg>
