<?xml version="1.0" encoding="UTF-8"?>
<!DOCTYPE svg PUBLIC "-//W3C//DTD SVG 1.1//EN" "http://www.w3.org/Graphics/SVG/1.1/DTD/svg11.dtd">
<svg xmlns="http://www.w3.org/2000/svg" xml:space="preserve" width="1024px" height="1024px" shape-rendering="geometricPrecision" text-rendering="geometricPrecision" image-rendering="optimizeQuality" fill-rule="nonzero" clip-rule="evenodd" viewBox="0 0 10240 10240" xmlns:xlink="http://www.w3.org/1999/xlink">
	<title>money_bill_fire icon</title>
	<desc>money_bill_fire icon from the IconExperience.com O-Collection. Copyright by INCORS GmbH (www.incors.com).</desc>
	<path id="curve1" fill="#4D82B8" d="M960 3840l3996 0c-36,104 -66,210 -90,320l-2626 0c0,707 -573,1280 -1280,1280l0 1920c707,0 1280,573 1280,1280l2560 0 2560 0c0,-707 573,-1280 1280,-1280l0 -343c112,-65 219,-138 320,-219l0 1842c0,176 -144,320 -320,320l-7680 0c-176,0 -320,-144 -320,-320l0 -4480c0,-176 144,-320 320,-320zm3840 1018l1 0c-1,-19 -1,-39 -1,-58 0,-110 5,-216 16,-320 -5,0 -11,0 -16,0 -884,0 -1600,860 -1600,1920 0,1060 716,1920 1600,1920 671,0 1245,-495 1483,-1197 -326,-152 -614,-369 -848,-636 -169,145 -392,233 -635,233 -530,0 -960,-417 -960,-931 0,-514 430,-931 960,-931zm-1147 2253c74,-147 175,-279 296,-387 227,196 524,316 851,316 327,0 625,-120 851,-316 121,108 222,240 296,387 -210,527 -644,889 -1147,889 -503,0 -937,-362 -1147,-889z"/>
	<path id="curve0" fill="#ED9A56" d="M6613 320c2007,980 2987,2660 2987,4480 0,1227 -987,2224 -2211,2240 605,-16 1091,-511 1091,-1120 0,-875 -1388,-1330 -793,-2403 -747,583 -1447,1364 -1447,2403 0,609 486,1104 1091,1120 -1224,-16 -2211,-1013 -2211,-2240 0,-2240 2520,-2520 1493,-4480z"/>
</svg>
