<?xml version="1.0" encoding="UTF-8"?>
<!DOCTYPE svg PUBLIC "-//W3C//DTD SVG 1.1//EN" "http://www.w3.org/Graphics/SVG/1.1/DTD/svg11.dtd">
<svg xmlns="http://www.w3.org/2000/svg" xml:space="preserve" width="1024px" height="1024px" shape-rendering="geometricPrecision" text-rendering="geometricPrecision" image-rendering="optimizeQuality" fill-rule="nonzero" clip-rule="evenodd" viewBox="0 0 10240 10240" xmlns:xlink="http://www.w3.org/1999/xlink">
	<title>money_euro icon</title>
	<desc>money_euro icon from the IconExperience.com O-Collection. Copyright by INCORS GmbH (www.incors.com).</desc>
	<path id="curve0" fill="#4D82B8" d="M960 3200l8320 0c176,0 320,144 320,320l0 4480c0,176 -144,320 -320,320l-8320 0c-176,0 -320,-144 -320,-320l0 -4480c0,-176 144,-320 320,-320zm2389 2720l-69 320 390 0c193,649 769,1120 1450,1120 258,0 501,-68 714,-188l-137 -687c-155,146 -356,235 -577,235 -326,0 -610,-193 -762,-480l1036 0 69 -320 -1211 0c-8,-52 -12,-105 -12,-160l1257 0 69 -320 -1276 0c121,-373 447,-640 830,-640 203,0 391,75 540,202l143 -671c-205,-109 -437,-171 -683,-171 -735,0 -1349,550 -1490,1280l-179 0 -68 320 217 0c0,54 3,107 8,160l-259 0zm1783 -2400c1231,6 2228,1007 2228,2240 0,1233 -997,2234 -2228,2240l0 0 2868 0c0,-707 573,-1280 1280,-1280l0 -1920c-707,0 -1280,-573 -1280,-1280l-2868 0 0 0zm-23 4480c-1232,-6 -2229,-1007 -2229,-2240 0,-1233 997,-2234 2229,-2240l0 0 -2869 0c0,707 -573,1280 -1280,1280l0 1920c707,0 1280,573 1280,1280l2869 0 0 0z"/>
</svg>
