<?xml version="1.0" encoding="UTF-8"?>
<!DOCTYPE svg PUBLIC "-//W3C//DTD SVG 1.1//EN" "http://www.w3.org/Graphics/SVG/1.1/DTD/svg11.dtd">
<svg xmlns="http://www.w3.org/2000/svg" xml:space="preserve" width="1024px" height="1024px" shape-rendering="geometricPrecision" text-rendering="geometricPrecision" image-rendering="optimizeQuality" fill-rule="nonzero" clip-rule="evenodd" viewBox="0 0 10240 10240" xmlns:xlink="http://www.w3.org/1999/xlink">
	<title>money_dollar icon</title>
	<desc>money_dollar icon from the IconExperience.com O-Collection. Copyright by INCORS GmbH (www.incors.com).</desc>
	<path id="curve0" fill="#4D82B8" d="M960 3200l8320 0c176,0 320,144 320,320l0 4480c0,176 -144,320 -320,320l-8320 0c-176,0 -320,-144 -320,-320l0 -4480c0,-176 144,-320 320,-320zm4480 4000l80 0c485,0 880,-395 880,-880 0,-485 -395,-880 -880,-880l-240 0 0 -480 240 0c102,0 192,65 226,160l650 0c-41,-452 -422,-800 -876,-800l-80 0 -160 0 0 -160 -320 0 0 160 -160 0 -80 0c-485,0 -880,395 -880,880 0,485 395,880 880,880l240 0 0 480 -240 0c-101,0 -192,-65 -226,-160l-650 0c41,452 422,800 876,800l80 0 160 0 0 160 160 0 160 0 0 -160 160 0zm-160 -640l240 0c132,0 240,-108 240,-240 0,-132 -108,-240 -240,-240l-240 0 0 480zm-320 -1600l0 480 -240 0c-132,0 -240,-108 -240,-240 0,-132 108,-240 240,-240l240 0zm172 -1440c1231,6 2228,1007 2228,2240 0,1233 -997,2234 -2228,2240l2868 0c0,-707 573,-1280 1280,-1280l0 -1920c-707,0 -1280,-573 -1280,-1280l-2868 0zm-23 4480c-1232,-6 -2229,-1007 -2229,-2240 0,-1233 997,-2234 2229,-2240l-2869 0c0,707 -573,1280 -1280,1280l0 1920c707,0 1280,573 1280,1280l2869 0z"/>
</svg>
