<?xml version="1.0" encoding="UTF-8"?>
<!DOCTYPE svg PUBLIC "-//W3C//DTD SVG 1.1//EN" "http://www.w3.org/Graphics/SVG/1.1/DTD/svg11.dtd">
<svg xmlns="http://www.w3.org/2000/svg" xml:space="preserve" width="1024px" height="1024px" shape-rendering="geometricPrecision" text-rendering="geometricPrecision" image-rendering="optimizeQuality" fill-rule="nonzero" clip-rule="evenodd" viewBox="0 0 10240 10240" xmlns:xlink="http://www.w3.org/1999/xlink">
	<title>moneybag_euro icon</title>
	<desc>moneybag_euro icon from the IconExperience.com O-Collection. Copyright by INCORS GmbH (www.incors.com).</desc>
	<path id="curve0" fill="#B89A7C" d="M6080 3520c0,640 2240,1280 2240,3840 0,486 0,1291 -140,1777 -80,278 -325,463 -615,463 -1766,0 -3124,0 -4890,0 -290,0 -535,-185 -615,-463 -140,-486 -140,-1291 -140,-1777 0,-2560 2240,-3200 2240,-3840l1920 0zm-2491 3680l-69 320 390 0c193,649 769,1120 1450,1120 258,0 501,-68 714,-188l-137 -687c-155,146 -356,235 -577,235 -326,0 -610,-193 -762,-480l1036 0 69 -320 -1211 0c-8,-52 -12,-105 -12,-160l1257 0 69 -320 -1276 0c121,-373 447,-640 830,-640 203,0 391,75 540,202l143 -671c-205,-109 -437,-171 -683,-171 -735,0 -1349,550 -1490,1280l-179 0 -68 320 217 0c0,54 3,107 8,160l-259 0zm337 -6240c398,0 796,320 1194,320 398,0 796,-320 1194,-320 254,0 471,138 579,369 108,230 75,485 -88,681 -241,290 -725,550 -725,870l-1920 0c0,-320 -484,-580 -725,-870 -163,-196 -196,-451 -88,-681 108,-231 325,-369 579,-369z"/>
</svg>
