<?xml version="1.0" encoding="UTF-8"?>
<!DOCTYPE svg PUBLIC "-//W3C//DTD SVG 1.1//EN" "http://www.w3.org/Graphics/SVG/1.1/DTD/svg11.dtd">
<svg xmlns="http://www.w3.org/2000/svg" xml:space="preserve" width="1024px" height="1024px" shape-rendering="geometricPrecision" text-rendering="geometricPrecision" image-rendering="optimizeQuality" fill-rule="nonzero" clip-rule="evenodd" viewBox="0 0 10240 10240" xmlns:xlink="http://www.w3.org/1999/xlink">
	<title>money_interest icon</title>
	<desc>money_interest icon from the IconExperience.com O-Collection. Copyright by INCORS GmbH (www.incors.com).</desc>
	<path id="curve1" fill="#4D82B8" d="M2880 1920l6400 0c176,0 320,144 320,320l0 3840c0,176 -144,320 -320,320l-3314 0c-233,-206 -533,-320 -846,-320l2880 0c0,-707 573,-1280 1280,-1280l0 -1280c-707,0 -1280,-573 -1280,-1280l-3840 0c0,707 -573,1280 -1280,1280l0 1280c-1,-311 -116,-614 -320,-846l0 -1714c0,-176 144,-320 320,-320zm3200 640c736,0 1333,716 1333,1600 0,884 -597,1600 -1333,1600 -481,0 -902,-305 -1137,-763l201 -345c153,463 514,788 936,788 441,0 816,-356 955,-852 -94,-105 -204,-194 -328,-264 -172,134 -390,214 -627,214 -237,0 -455,-80 -627,-214 -70,39 -136,85 -197,136l268 -459c7,-11 13,-22 18,-34 126,153 320,251 538,251 381,0 690,-300 690,-669 0,-370 -309,-669 -690,-669 -381,0 -690,299 -690,669l0 3c-43,-21 -91,-32 -142,-32l-390 0c205,-565 675,-960 1222,-960z"/>
	<path id="curve0" fill="#808080" d="M1152 8960l2987 -5120 1109 0 -2987 5120 -1109 0zm128 -5120l320 0c529,0 960,431 960,960l0 640c0,529 -431,960 -960,960l-320 0c-530,0 -959,-430 -959,-960l0 -640c0,-530 429,-960 959,-960zm320 640l-320 0c-175,0 -321,145 -321,320l0 640c0,175 146,320 321,320l320 0c176,0 320,-144 320,-320l0 -640c0,-176 -144,-320 -320,-320zm3200 1920l320 0c529,0 960,431 960,960l0 640c0,529 -431,960 -960,960l-320 0c-530,0 -959,-430 -959,-960l0 -640c0,-530 429,-960 959,-960zm320 640l-320 0c-175,0 -321,145 -321,320l0 640c0,175 146,320 321,320l320 0c176,0 320,-144 320,-320l0 -640c0,-176 -144,-320 -320,-320z"/>
</svg>
