<?xml version="1.0" encoding="UTF-8"?>
<!DOCTYPE svg PUBLIC "-//W3C//DTD SVG 1.1//EN" "http://www.w3.org/Graphics/SVG/1.1/DTD/svg11.dtd">
<svg xmlns="http://www.w3.org/2000/svg" xml:space="preserve" width="1024px" height="1024px" shape-rendering="geometricPrecision" text-rendering="geometricPrecision" image-rendering="optimizeQuality" fill-rule="nonzero" clip-rule="evenodd" viewBox="0 0 10240 10240" xmlns:xlink="http://www.w3.org/1999/xlink">
	<title>money icon</title>
	<desc>money icon from the IconExperience.com O-Collection. Copyright by INCORS GmbH (www.incors.com).</desc>
	<path id="curve0" fill="#4D82B8" d="M960 3200l8320 0c176,0 320,144 320,320l0 4480c0,176 -144,320 -320,320l-8320 0c-176,0 -320,-144 -320,-320l0 -4480c0,-176 144,-320 320,-320zm4160 1018c530,0 960,417 960,931 0,514 -430,931 -960,931 -530,0 -960,-417 -960,-931 0,-514 430,-931 960,-931zm-1147 2253c74,-147 175,-279 296,-387 227,196 524,316 851,316 327,0 624,-120 851,-316 121,108 222,240 296,387 -210,527 -644,889 -1147,889 -503,0 -937,-362 -1147,-889zm4027 -2951l-5760 0c0,707 -573,1280 -1280,1280l0 1920c707,0 1280,573 1280,1280l5760 0c0,-707 573,-1280 1280,-1280l0 -1920c-707,0 -1280,-573 -1280,-1280zm-2880 320c-884,0 -1600,860 -1600,1920 0,1060 716,1920 1600,1920 884,0 1600,-860 1600,-1920 0,-1060 -716,-1920 -1600,-1920z"/>
</svg>
