<?xml version="1.0" encoding="UTF-8"?>
<!DOCTYPE svg PUBLIC "-//W3C//DTD SVG 1.1//EN" "http://www.w3.org/Graphics/SVG/1.1/DTD/svg11.dtd">
<svg xmlns="http://www.w3.org/2000/svg" xml:space="preserve" width="1024px" height="1024px" shape-rendering="geometricPrecision" text-rendering="geometricPrecision" image-rendering="optimizeQuality" fill-rule="nonzero" clip-rule="evenodd" viewBox="0 0 10240 10240" xmlns:xlink="http://www.w3.org/1999/xlink">
	<title>money_bills icon</title>
	<desc>money_bills icon from the IconExperience.com O-Collection. Copyright by INCORS GmbH (www.incors.com).</desc>
	<path id="curve2" fill="#4D82B8" d="M2880 1280l6400 0c176,0 320,144 320,320l0 3840c0,176 -144,320 -320,320l-320 0 0 -1560c102,-26 210,-40 320,-40l0 -1280c-165,0 -323,-31 -467,-88 -92,-110 -219,-189 -365,-219 -274,-235 -448,-584 -448,-973l-3840 0c0,382 -168,725 -433,960l-1167 0 0 -960c0,-176 144,-320 320,-320zm3200 960c249,0 467,128 589,320l478 0c-244,-389 -631,-640 -1067,-640 -436,0 -823,251 -1067,640l478 0c122,-192 340,-320 589,-320z"/>
	<path id="curve1" fill="#4D82B8" d="M1920 2880l6400 0c176,0 320,144 320,320l0 3840c0,176 -144,320 -320,320l-320 0 0 -1560c102,-26 210,-40 320,-40l0 -1280c-165,0 -323,-31 -467,-88 -92,-110 -219,-189 -365,-219 -274,-235 -448,-584 -448,-973l-3840 0c0,382 -168,725 -433,960l-1167 0 0 -960c0,-176 144,-320 320,-320zm3200 960c249,0 467,128 589,320l478 0c-244,-389 -631,-640 -1067,-640 -436,0 -823,251 -1067,640l478 0c122,-192 340,-320 589,-320z"/>
	<path id="curve0" fill="#4D82B8" d="M960 4480l6400 0c176,0 320,144 320,320l0 3840c0,176 -144,320 -320,320l-6400 0c-176,0 -320,-144 -320,-320l0 -3840c0,-176 144,-320 320,-320zm5120 320l-3840 0c0,707 -573,1280 -1280,1280l0 1280c707,0 1280,573 1280,1280l3840 0c0,-707 573,-1280 1280,-1280l0 -1280c-707,0 -1280,-573 -1280,-1280zm-1920 640c-381,0 -690,300 -690,669 0,369 309,669 690,669 381,0 690,-300 690,-669 0,-369 -309,-669 -690,-669zm-955 1708c139,497 514,852 955,852 441,0 816,-356 955,-852 -94,-105 -204,-194 -328,-264 -172,134 -390,214 -627,214 -237,0 -455,-80 -627,-214 -124,70 -234,159 -328,264zm955 -2028c736,0 1333,716 1333,1600 0,884 -597,1600 -1333,1600 -736,0 -1333,-716 -1333,-1600 0,-884 597,-1600 1333,-1600z"/>
</svg>
