<?xml version="1.0" encoding="UTF-8"?>
<!DOCTYPE svg PUBLIC "-//W3C//DTD SVG 1.1//EN" "http://www.w3.org/Graphics/SVG/1.1/DTD/svg11.dtd">
<svg xmlns="http://www.w3.org/2000/svg" xml:space="preserve" width="1024px" height="1024px" shape-rendering="geometricPrecision" text-rendering="geometricPrecision" image-rendering="optimizeQuality" fill-rule="nonzero" clip-rule="evenodd" viewBox="0 0 10240 10240" xmlns:xlink="http://www.w3.org/1999/xlink">
	<title>money_refund icon</title>
	<desc>money_refund icon from the IconExperience.com O-Collection. Copyright by INCORS GmbH (www.incors.com).</desc>
	<path id="curve1" fill="#76A797" d="M960 3840l387 0c47,111 117,214 207,304l563 563c-205,433 -646,733 -1157,733l0 1920c707,0 1280,573 1280,1280l5760 0c0,-707 573,-1280 1280,-1280l0 -1920c-707,0 -1280,-573 -1280,-1280l-3184 0 16 -16c90,-91 159,-193 206,-304l4242 0c176,0 320,144 320,320l0 4480c0,176 -144,320 -320,320l-8320 0c-176,0 -320,-144 -320,-320l0 -4480c0,-176 144,-320 320,-320zm4160 1018c-530,0 -960,417 -960,931 0,514 430,931 960,931 530,0 960,-417 960,-931 0,-514 -430,-931 -960,-931zm-1147 2253c210,527 644,889 1147,889 503,0 937,-362 1147,-889 -74,-147 -175,-279 -296,-387 -227,196 -524,316 -851,316 -327,0 -624,-120 -851,-316 -121,108 -222,240 -296,387zm1147 -2631c884,0 1600,860 1600,1920 0,1060 -716,1920 -1600,1920 -884,0 -1600,-860 -1600,-1920 0,-1060 716,-1920 1600,-1920z"/>
	<path id="curve0" fill="#4D82B8" d="M1781 3918l1186 1186c124,124 328,124 452,0l1187 -1186c124,-125 186,-277 187,-453l7 -839c1,-142 -172,-214 -273,-113l-687 687 0 -320c0,-528 432,-960 960,-960 528,0 960,432 960,960l0 640 1280 0 0 -640c0,-1235 -1005,-2240 -2240,-2240 -1235,0 -2240,1005 -2240,2240l0 320 -687 -687c-101,-101 -272,-30 -273,113l-7 839c-1,176 63,328 188,453z"/>
</svg>
