<?xml version="1.0" encoding="UTF-8"?>
<!DOCTYPE svg PUBLIC "-//W3C//DTD SVG 1.1//EN" "http://www.w3.org/Graphics/SVG/1.1/DTD/svg11.dtd">
<svg xmlns="http://www.w3.org/2000/svg" xml:space="preserve" width="1024px" height="1024px" shape-rendering="geometricPrecision" text-rendering="geometricPrecision" image-rendering="optimizeQuality" fill-rule="nonzero" clip-rule="evenodd" viewBox="0 0 10240 10240" xmlns:xlink="http://www.w3.org/1999/xlink">
	<title>moneybag_dollar icon</title>
	<desc>moneybag_dollar icon from the IconExperience.com O-Collection. Copyright by INCORS GmbH (www.incors.com).</desc>
	<path id="curve0" fill="#B89A7C" d="M6080 3520c0,640 2240,1280 2240,3840 0,486 0,1291 -140,1777 -80,278 -325,463 -615,463 -1766,0 -3124,0 -4890,0 -290,0 -535,-185 -615,-463 -140,-486 -140,-1291 -140,-1777 0,-2560 2240,-3200 2240,-3840l1920 0zm-640 4800l80 0c485,0 880,-395 880,-880 0,-485 -395,-880 -880,-880l-240 0 0 -480 240 0c102,0 192,65 226,160l650 0c-41,-452 -422,-800 -876,-800l-80 0 -160 0 0 -160 -320 0 0 160 -160 0 -80 0c-485,0 -880,395 -880,880 0,485 395,880 880,880l240 0 0 480 -240 0c-101,0 -192,-65 -226,-160l-650 0c41,452 422,800 876,800l80 0 160 0 0 160 160 0 160 0 0 -160 160 0zm-160 -640l0 -480 240 0c132,0 240,108 240,240 0,132 -108,240 -240,240l-240 0zm-320 -1600l0 480 -240 0c-132,0 -240,-108 -240,-240 0,-132 108,-240 240,-240l240 0zm-1034 -5120c398,0 796,320 1194,320 398,0 796,-320 1194,-320 254,0 471,138 579,369 108,230 75,485 -88,681 -241,290 -725,550 -725,870l-1920 0c0,-320 -484,-580 -725,-870 -163,-196 -196,-451 -88,-681 108,-231 325,-369 579,-369z"/>
</svg>
