<?xml version="1.0" encoding="UTF-8"?>
<!DOCTYPE svg PUBLIC "-//W3C//DTD SVG 1.1//EN" "http://www.w3.org/Graphics/SVG/1.1/DTD/svg11.dtd">
<svg xmlns="http://www.w3.org/2000/svg" xml:space="preserve" width="1024px" height="1024px" shape-rendering="geometricPrecision" text-rendering="geometricPrecision" image-rendering="optimizeQuality" fill-rule="nonzero" clip-rule="evenodd" viewBox="0 0 10240 10240" xmlns:xlink="http://www.w3.org/1999/xlink">
	<title>monitor icon</title>
	<desc>monitor icon from the IconExperience.com O-Collection. Copyright by INCORS GmbH (www.incors.com).</desc>
	<path id="curve2" fill="#808080" d="M3200 8960l640 0c176,0 320,-144 320,-320l0 -640 1920 0 0 640c0,176 144,320 320,320l640 0c176,0 320,144 320,320l0 320 -4480 0 0 -320c0,-176 144,-320 320,-320z"/>
	<path id="curve1" fill="#4D82B8" d="M1600,1600 8640,1600 8640,6720 1600,6720z"/>
	<path id="curve0" fill="#808080" d="M1280 640l7680 0c353,0 640,287 640,640l0 5760c0,352 -288,640 -640,640l-7680 0c-353,0 -640,-287 -640,-640l0 -5760c0,-353 287,-640 640,-640zm0 640l0 5760 7680 0 0 -5760 -7680 0z"/>
</svg>
