<?xml version="1.0" encoding="UTF-8"?>
<!DOCTYPE svg PUBLIC "-//W3C//DTD SVG 1.1//EN" "http://www.w3.org/Graphics/SVG/1.1/DTD/svg11.dtd">
<svg xmlns="http://www.w3.org/2000/svg" xml:space="preserve" width="1024px" height="1024px" shape-rendering="geometricPrecision" text-rendering="geometricPrecision" image-rendering="optimizeQuality" fill-rule="nonzero" clip-rule="evenodd" viewBox="0 0 10240 10240" xmlns:xlink="http://www.w3.org/1999/xlink">
	<title>monitor_brush icon</title>
	<desc>monitor_brush icon from the IconExperience.com O-Collection. Copyright by INCORS GmbH (www.incors.com).</desc>
	<path id="curve3" fill="#808080" d="M3200 8960l640 0c176,0 320,-144 320,-320l0 -640 1920 0 0 640c0,176 144,320 320,320l640 0c176,0 320,144 320,320l0 320 -4480 0 0 -320c0,-176 144,-320 320,-320z"/>
	<path id="curve2" fill="#808080" d="M1280 640l7266 0c-302,213 -606,423 -905,640l-6361 0 0 5760 7680 0 0 -4726c214,-301 424,-603 640,-902l0 5628c0,352 -288,640 -640,640l-7680 0c-353,0 -640,-287 -640,-640l0 -5760c0,-353 287,-640 640,-640z"/>
	<path id="curve1" fill="#EDC87E" d="M5064 5084c677,748 1,1636 -901,1636 -677,0 -733,0 -1561,0 468,-172 596,-488 706,-826 89,-276 165,-567 402,-810 315,-321 933,-464 1354,0z"/>
	<path id="curve0" fill="#808080" d="M9407 772c-18,-18 -36,-35 -54,-53 -89,-88 -226,-99 -328,-26 -1229,877 -1995,1341 -3365,2695 -180,178 -370,375 -534,588 447,190 812,568 1013,1007l0 0c216,-161 415,-350 598,-530 1369,-1355 1809,-2141 2696,-3356 74,-101 63,-237 -26,-325zm-4466 3474c-55,93 -104,189 -143,288 354,123 643,425 781,771 99,-39 195,-87 289,-141 -170,-408 -511,-761 -927,-918z"/>
</svg>
