<?xml version="1.0" encoding="UTF-8"?>
<!DOCTYPE svg PUBLIC "-//W3C//DTD SVG 1.1//EN" "http://www.w3.org/Graphics/SVG/1.1/DTD/svg11.dtd">
<svg xmlns="http://www.w3.org/2000/svg" xml:space="preserve" width="1024px" height="1024px" shape-rendering="geometricPrecision" text-rendering="geometricPrecision" image-rendering="optimizeQuality" fill-rule="nonzero" clip-rule="evenodd" viewBox="0 0 10240 10240" xmlns:xlink="http://www.w3.org/1999/xlink">
	<title>monitor_sleep icon</title>
	<desc>monitor_sleep icon from the IconExperience.com O-Collection. Copyright by INCORS GmbH (www.incors.com).</desc>
	<path id="curve2" fill="#808080" d="M2880 8960l1280 0c176,0 320,-144 320,-320l0 -640 1280 0 0 640c0,176 144,320 320,320l1280 0c176,0 320,144 320,320l0 320 -5120 0 0 -320c0,-176 144,-320 320,-320z"/>
	<path id="curve1" fill="#4D82B8" d="M1600 1600l7040 0 0 5120 -7040 0 0 -5120zm3520 640c-1060,0 -1920,860 -1920,1920 0,1060 860,1920 1920,1920 395,0 762,-119 1067,-324 -35,3 -71,4 -107,4 -884,0 -1600,-716 -1600,-1600 0,-884 716,-1600 1600,-1600 36,0 72,1 107,4 -305,-205 -672,-324 -1067,-324z"/>
	<path id="curve0" fill="#808080" d="M1280 1280l7680 0 0 5760 -7680 0 0 -5760zm0 -640c-353,0 -640,287 -640,640l0 5760c0,353 287,640 640,640l7680 0c352,0 640,-288 640,-640l0 -5760c0,-353 -287,-640 -640,-640l-7680 0z"/>
</svg>
