<?xml version="1.0" encoding="UTF-8"?>
<!DOCTYPE svg PUBLIC "-//W3C//DTD SVG 1.1//EN" "http://www.w3.org/Graphics/SVG/1.1/DTD/svg11.dtd">
<svg xmlns="http://www.w3.org/2000/svg" xml:space="preserve" width="1024px" height="1024px" shape-rendering="geometricPrecision" text-rendering="geometricPrecision" image-rendering="optimizeQuality" fill-rule="nonzero" clip-rule="evenodd" viewBox="0 0 10240 10240" xmlns:xlink="http://www.w3.org/1999/xlink">
	<title>moon icon</title>
	<desc>moon icon from the IconExperience.com O-Collection. Copyright by INCORS GmbH (www.incors.com).</desc>
	<path id="curve0" fill="#808080" d="M5120 640c2474,0 4480,2006 4480,4480 0,2474 -2006,4480 -4480,4480 -2474,0 -4480,-2006 -4480,-4480 0,-2474 2006,-4480 4480,-4480zm-646 4398c-38,228 -235,402 -474,402 -265,0 -480,-215 -480,-480 0,-80 20,-155 54,-222 -35,-79 -54,-166 -54,-258 0,-166 63,-316 166,-430 -143,70 -309,110 -486,110 -113,0 -221,-16 -322,-46 1,15 2,31 2,46 0,260 -155,483 -377,583 224,228 369,584 377,986 203,-178 486,-289 800,-289 619,0 1120,430 1120,960 0,484 -417,884 -960,950 0,3 0,7 0,10 0,353 -287,640 -640,640 -353,0 -640,-287 -640,-640 0,-171 67,-327 177,-442 -59,-78 -105,-165 -135,-257 -174,234 -415,379 -682,379 -45,0 -90,-4 -133,-12 662,1154 1907,1932 3333,1932 2121,0 3840,-1719 3840,-3840 0,-728 -202,-1408 -554,-1988 -72,43 -156,68 -246,68 -265,0 -480,-215 -480,-480 0,-130 52,-248 136,-334 -694,-684 -1645,-1106 -2696,-1106 -2009,0 -3658,1543 -3826,3509 117,-133 257,-230 412,-277 -67,-101 -106,-222 -106,-352 0,-353 287,-640 640,-640 6,0 13,0 19,0 -12,-51 -19,-105 -19,-160 0,-256 145,-485 370,-631 -32,-65 -50,-136 -50,-209 0,-331 358,-600 800,-600 442,0 800,269 800,600 0,143 -66,274 -177,377 111,130 177,290 177,463 0,201 -89,384 -235,525 73,-29 152,-45 235,-45 353,0 640,287 640,640 0,239 -132,448 -326,558zm1446 -3438c265,0 480,143 480,320 0,137 -129,254 -310,299 106,120 169,267 169,425 0,400 -398,725 -890,725 -15,0 -30,-1 -44,-1 72,84 115,193 115,312 0,265 -215,480 -480,480 -265,0 -480,-215 -480,-480 0,-219 147,-404 347,-461 -211,-133 -347,-341 -347,-575 0,-400 398,-724 889,-724 24,0 48,1 71,2l0 -2c0,-177 215,-320 480,-320zm1600 3200c265,0 480,215 480,480 0,265 -215,480 -480,480 -265,0 -480,-215 -480,-480 0,-265 215,-480 480,-480zm640 -1280c265,0 480,215 480,480 0,265 -215,480 -480,480 -265,0 -480,-215 -480,-480 0,-265 215,-480 480,-480zm-1280 -960c442,0 800,358 800,800 0,416 -318,758 -724,796 -110,194 -318,324 -556,324 -353,0 -640,-287 -640,-640 0,-238 130,-446 324,-556 38,-406 380,-724 796,-724z"/>
</svg>
