<?xml version="1.0" encoding="UTF-8"?>
<!DOCTYPE svg PUBLIC "-//W3C//DTD SVG 1.1//EN" "http://www.w3.org/Graphics/SVG/1.1/DTD/svg11.dtd">
<svg xmlns="http://www.w3.org/2000/svg" xml:space="preserve" width="1024px" height="1024px" shape-rendering="geometricPrecision" text-rendering="geometricPrecision" image-rendering="optimizeQuality" fill-rule="nonzero" clip-rule="evenodd" viewBox="0 0 10240 10240" xmlns:xlink="http://www.w3.org/1999/xlink">
	<title>mosque icon</title>
	<desc>mosque icon from the IconExperience.com O-Collection. Copyright by INCORS GmbH (www.incors.com).</desc>
	<path id="curve5" fill="#808080" d="M2240 4800l5760 0 0 4800 -1600 0 0 -1600c0,-960 -640,-1280 -1280,-1600 -640,320 -1280,640 -1280,1600l0 1600 -1600 0 0 -4800z"/>
	<path id="curve4" fill="#EDC87E" d="M5120 320c58,0 115,4 171,11 -459,72 -811,469 -811,949 0,530 430,960 960,960 480,0 877,-352 949,-811 7,56 11,113 11,171 0,596 -408,1098 -960,1240l0 381c781,104 1453,581 1852,1259l-4344 0c399,-678 1071,-1155 1852,-1259l0 -381c-552,-142 -960,-644 -960,-1240 0,-707 573,-1280 1280,-1280z"/>
	<path id="curve3" fill="#808080" d="M9600,4160 8320,4160 8320,9600 9600,9600z"/>
	<path id="curve2" fill="#EDC87E" d="M9114 1178l486 1702c176,0 320,144 320,320l0 320c0,176 -144,320 -320,320l-1280 0c-176,0 -320,-144 -320,-320l0 -320c0,-176 144,-320 320,-320l0 0 486 -1702c20,-69 81,-116 154,-116 73,0 134,47 154,116z"/>
	<path id="curve1" fill="#808080" d="M640,4160 1920,4160 1920,9600 640,9600z"/>
	<path id="curve0" fill="#EDC87E" d="M640 2880l0 0 486 -1702c20,-69 81,-116 154,-116 73,0 134,47 154,116l486 1702c176,0 320,144 320,320l0 320c0,176 -144,320 -320,320l-1280 0c-176,0 -320,-144 -320,-320l0 -320c0,-176 144,-320 320,-320z"/>
</svg>
