<?xml version="1.0" encoding="UTF-8"?>
<!DOCTYPE svg PUBLIC "-//W3C//DTD SVG 1.1//EN" "http://www.w3.org/Graphics/SVG/1.1/DTD/svg11.dtd">
<svg xmlns="http://www.w3.org/2000/svg" xml:space="preserve" width="1024px" height="1024px" shape-rendering="geometricPrecision" text-rendering="geometricPrecision" image-rendering="optimizeQuality" fill-rule="nonzero" clip-rule="evenodd" viewBox="0 0 10240 10240" xmlns:xlink="http://www.w3.org/1999/xlink">
	<title>mosquito icon</title>
	<desc>mosquito icon from the IconExperience.com O-Collection. Copyright by INCORS GmbH (www.incors.com).</desc>
	<path id="curve0" fill="#808080" d="M4482 3749l-755 -756c-35,-35 -50,-81 -46,-127l0 -879 -914 -914c-63,-62 -63,-164 0,-226 62,-63 164,-63 226,0l960 960c29,29 46,69 46,113l0 893 538 537c21,-57 47,-111 78,-161 38,-62 31,-140 -19,-194 -73,-78 -116,-173 -116,-275 0,-204 170,-379 410,-448l150 -1563c4,-39 38,-69 80,-69 42,0 76,30 80,69l150 1563c240,69 410,244 410,448 0,102 -43,197 -116,275 -50,54 -57,132 -19,194 31,50 57,104 78,161l538 -537 7 -897c0,-43 18,-83 46,-112l960 -960c62,-63 164,-63 226,0 63,62 63,164 0,226l-914 914 -7 883c4,45 -11,92 -46,126l-755 756c-7,99 -28,194 -62,279 78,22 156,41 233,60l678 -681c41,-41 99,-55 151,-42l1200 295 889 -893c62,-62 163,-62 226,0 62,62 62,163 0,225l-949 954c-38,41 -97,60 -155,46l-1200 -295 -473 475c798,173 1557,308 2206,878 807,710 485,1990 -482,1990 -741,0 -1349,-637 -1806,-1259l323 537c23,38 28,82 17,122l-293 1199 1224 1542c55,69 43,169 -26,224 -69,55 -169,43 -224,-26l-1273 -1603c-29,-37 -42,-87 -30,-137l297 -1213 -470 -784c1,39 1,78 1,118 0,795 -287,1280 -640,1280 -353,0 -640,-485 -640,-1280 0,-41 0,-82 1,-122l-470 786 311 1214c14,54 -2,109 -37,147l-1281 1595c-55,69 -155,80 -224,24 -69,-55 -80,-155 -24,-224l1236 -1540 -307 -1201 0 0c-10,-39 -5,-83 18,-121l313 -525c-456,619 -1060,1247 -1796,1247 -967,0 -1289,-1280 -482,-1990 649,-570 1409,-705 2207,-879l-474 -474 -1192 298c-57,14 -114,-4 -152,-42l-960 -960c-63,-62 -63,-164 0,-226 62,-63 164,-63 226,0l896 896 1184 -296c55,-17 117,-3 160,40l681 680c76,-18 153,-38 230,-59 -34,-85 -55,-180 -62,-279zm958 538l0 64c196,192 449,376 592,594 411,626 1136,1775 1988,1775 423,0 646,-360 618,-754 -20,-265 -149,-501 -347,-675 -577,-507 -1282,-638 -2008,-795 -285,-61 -566,-126 -843,-209zm-640 0c-277,83 -558,148 -843,209 -726,157 -1431,288 -2008,795 -198,174 -327,410 -347,675 -28,394 195,754 618,754 852,0 1577,-1149 1988,-1775 143,-218 396,-402 592,-594l0 -64z"/>
</svg>
