<?xml version="1.0" encoding="UTF-8"?>
<!DOCTYPE svg PUBLIC "-//W3C//DTD SVG 1.1//EN" "http://www.w3.org/Graphics/SVG/1.1/DTD/svg11.dtd">
<svg xmlns="http://www.w3.org/2000/svg" xml:space="preserve" width="1024px" height="1024px" shape-rendering="geometricPrecision" text-rendering="geometricPrecision" image-rendering="optimizeQuality" fill-rule="nonzero" clip-rule="evenodd" viewBox="0 0 10240 10240" xmlns:xlink="http://www.w3.org/1999/xlink">
	<title>motor_scooter icon</title>
	<desc>motor_scooter icon from the IconExperience.com O-Collection. Copyright by INCORS GmbH (www.incors.com).</desc>
	<path id="curve3" fill="#808080" d="M6869 8158c235,475 725,802 1291,802 795,0 1440,-645 1440,-1440 0,-368 -138,-704 -366,-959 -99,40 -209,56 -322,42 -74,-9 -147,-13 -221,-13 -231,0 -449,49 -648,139 38,-6 77,-9 117,-9 442,0 800,358 800,800 0,442 -358,800 -800,800 -442,0 -800,-358 -800,-800 0,-117 25,-228 70,-328 -169,197 -300,431 -380,684 -36,112 -99,208 -181,282zm-6162 -204c184,583 729,1006 1373,1006 571,0 1065,-333 1298,-815 -41,-39 -77,-87 -107,-145 0,0 0,0 0,0l-551 0c-146,194 -378,320 -640,320 -262,0 -494,-126 -640,-320l-433 0c-105,0 -206,-16 -300,-46z"/>
	<path id="curve2" fill="#EDC87E" d="M8000 5446l0 -6c0,-1497 -583,-2605 -1295,-3020 10,45 15,92 15,140 0,323 -240,590 -551,634 178,372 231,759 231,1286 0,715 -320,1920 -960,2560l-960 0c-353,0 -640,-287 -640,-640l0 -169c0,-104 21,-193 68,-286l252 -505 -2240 0c-794,0 -1369,438 -1544,1496 -32,192 17,370 143,518 126,148 293,226 488,226l2264 0c122,0 228,64 284,173 87,167 325,147 605,147l2240 0c155,20 298,-72 345,-221 267,-840 1017,-1509 1946,-1509 88,0 175,5 261,16 154,19 297,-72 344,-221 47,-148 -16,-305 -153,-379 -293,-157 -628,-246 -983,-246 -54,0 -107,2 -160,6z"/>
	<path id="curve1" fill="#808080" d="M3840 4160l-1054 0c-72,0 -134,-10 -202,-33l-335 -111c-304,-102 -632,34 -775,320l-160 321c-51,102 -46,214 14,311 60,97 158,152 272,152l2560 0c176,0 320,-144 320,-320l0 0c0,-353 -287,-640 -640,-640z"/>
	<path id="curve0" fill="#808080" d="M6080 2240l-640 0c-177,0 -320,143 -320,320 0,177 143,320 320,320l0 0 640 0 0 0c177,0 320,-143 320,-320 0,-177 -143,-320 -320,-320z"/>
</svg>
