<?xml version="1.0" encoding="UTF-8"?>
<!DOCTYPE svg PUBLIC "-//W3C//DTD SVG 1.1//EN" "http://www.w3.org/Graphics/SVG/1.1/DTD/svg11.dtd">
<svg xmlns="http://www.w3.org/2000/svg" xml:space="preserve" width="1024px" height="1024px" shape-rendering="geometricPrecision" text-rendering="geometricPrecision" image-rendering="optimizeQuality" fill-rule="nonzero" clip-rule="evenodd" viewBox="0 0 10240 10240" xmlns:xlink="http://www.w3.org/1999/xlink">
	<title>motorcyclist icon</title>
	<desc>motorcyclist icon from the IconExperience.com O-Collection. Copyright by INCORS GmbH (www.incors.com).</desc>
	<path id="curve3" fill="#808080" d="M8320 8470c0,777 -1766,1103 -3040,1128l0 -2558c0,-88 -72,-160 -160,-160 -213,0 -422,-18 -624,-52 -156,-27 -309,-64 -458,-110l139 -459c298,91 615,141 943,141 673,0 1296,-208 1812,-562 905,664 1388,1027 1388,2632zm-3360 1128c-1274,-25 -3040,-351 -3040,-1127 0,-1604 484,-1970 1389,-2633 177,122 367,226 567,311l-189 627 0 0c-24,81 19,167 100,196 211,74 430,132 656,171 169,28 342,47 517,54l0 2401z"/>
	<path id="curve2" fill="#808080" d="M5120 2880c1280,0 2240,-960 2240,533 0,1024 -960,1707 -2240,1707 -1280,0 -2240,-683 -2240,-1707 0,-1493 960,-533 2240,-533z"/>
	<path id="curve1" fill="#808080" d="M6495 669l-18 38c-158,352 -271,747 -367,1121 -52,201 -100,403 -146,607 -277,69 -553,125 -844,125 -291,0 -567,-56 -844,-125 -46,-204 -94,-406 -146,-607 -96,-374 -209,-769 -367,-1121l-18 -38c409,-223 877,-349 1375,-349 498,0 966,126 1375,349z"/>
	<path id="curve0" fill="#EDC87E" d="M6807 866c723,523 1193,1373 1193,2334 0,1591 -1289,2880 -2880,2880 -1591,0 -2880,-1289 -2880,-2880 0,-960 470,-1811 1193,-2334 165,368 310,890 444,1466 -292,-73 -622,-131 -890,16 -375,205 -427,682 -427,1065 0,301 70,592 212,857 449,839 1449,1170 2348,1170 899,0 1899,-331 2348,-1170 142,-265 212,-556 212,-857 0,-383 -52,-860 -427,-1065 -268,-147 -598,-89 -890,-16 134,-576 279,-1098 444,-1466l0 0z"/>
</svg>
