<?xml version="1.0" encoding="UTF-8"?>
<!DOCTYPE svg PUBLIC "-//W3C//DTD SVG 1.1//EN" "http://www.w3.org/Graphics/SVG/1.1/DTD/svg11.dtd">
<svg xmlns="http://www.w3.org/2000/svg" xml:space="preserve" width="1024px" height="1024px" shape-rendering="geometricPrecision" text-rendering="geometricPrecision" image-rendering="optimizeQuality" fill-rule="nonzero" clip-rule="evenodd" viewBox="0 0 10240 10240" xmlns:xlink="http://www.w3.org/1999/xlink">
	<title>motorbike icon</title>
	<desc>motorbike icon from the IconExperience.com O-Collection. Copyright by INCORS GmbH (www.incors.com).</desc>
	<path id="curve4" fill="#808080" d="M8320 5760c-884,0 -1600,716 -1600,1600 0,884 716,1600 1600,1600 884,0 1600,-716 1600,-1600 0,-884 -716,-1600 -1600,-1600zm0 640c530,0 960,430 960,960 0,530 -430,960 -960,960 -530,0 -960,-430 -960,-960 0,-530 430,-960 960,-960z"/>
	<path id="curve3" fill="#808080" d="M1826 6889c-260,52 -428,305 -377,565 52,260 305,428 565,377l1506 -302 0 -489c0,-177 29,-347 82,-506l-1776 355z"/>
	<path id="curve2" fill="#808080" d="M1920 5760c-884,0 -1600,716 -1600,1600 0,884 716,1600 1600,1600 704,0 1303,-455 1516,-1088l-839 168c-173,173 -413,280 -677,280 -530,0 -960,-430 -960,-960 0,-530 430,-960 960,-960 129,0 252,25 364,71l838 -167c-293,-333 -723,-544 -1202,-544z"/>
	<path id="curve1" fill="#EDC87E" d="M7040 3200c-640,0 -843,140 -640,320 677,601 0,2240 -1280,2240l0 0c-705,0 -1280,575 -1280,1280l0 640c0,353 287,640 640,640l2177 0c-163,-282 -257,-610 -257,-960 0,-1060 860,-1920 1920,-1920 51,0 101,2 151,6l489 -326 0 -960c-320,-640 -1280,-960 -1920,-960z"/>
	<path id="curve0" fill="#808080" d="M6348 4163c-80,-2 -169,-3 -268,-3 -320,0 -960,0 -1600,640l-1280 0 -320 -320c-295,-295 -640,-640 -960,-640 -167,0 -373,0 -640,0 -640,0 -654,990 0,1280l2469 1097c280,-465 790,-777 1371,-777 444,0 818,-257 1040,-631 102,-171 191,-418 188,-646z"/>
</svg>
