<?xml version="1.0" encoding="UTF-8"?>
<!DOCTYPE svg PUBLIC "-//W3C//DTD SVG 1.1//EN" "http://www.w3.org/Graphics/SVG/1.1/DTD/svg11.dtd">
<svg xmlns="http://www.w3.org/2000/svg" xml:space="preserve" width="1024px" height="1024px" shape-rendering="geometricPrecision" text-rendering="geometricPrecision" image-rendering="optimizeQuality" fill-rule="nonzero" clip-rule="evenodd" viewBox="0 0 10240 10240" xmlns:xlink="http://www.w3.org/1999/xlink">
	<title>motorcycle_helmet icon</title>
	<desc>motorcycle_helmet icon from the IconExperience.com O-Collection. Copyright by INCORS GmbH (www.incors.com).</desc>
	<path id="curve2" fill="#808080" d="M5120 4480c2200,0 3520,-960 3520,783 0,2370 -2053,3057 -3520,3057 -1467,0 -3520,-687 -3520,-3057 0,-1743 1320,-783 3520,-783z"/>
	<path id="curve1" fill="#808080" d="M7036 1059c-206,541 -357,1136 -487,1701 -100,436 -190,875 -275,1316 -379,49 -757,84 -1154,84 -397,0 -775,-35 -1154,-84 -85,-441 -175,-880 -275,-1316 -130,-565 -281,-1160 -487,-1701 553,-267 1197,-419 1916,-419 719,0 1363,152 1916,419z"/>
	<path id="curve0" fill="#EDC87E" d="M7321 1212c1242,732 1959,2088 1959,3588 0,2240 -1600,4800 -4160,4800 -2560,0 -4160,-2560 -4160,-4800 0,-1500 717,-2856 1959,-3588 197,523 335,1076 460,1619 91,398 174,798 253,1199 -157,-22 -314,-45 -475,-68 -449,-65 -1044,-153 -1438,129 -371,266 -439,748 -439,1172 0,1107 421,2058 1352,2683 715,480 1633,694 2488,694 855,0 1773,-214 2488,-694 931,-625 1352,-1576 1352,-2683 0,-424 -68,-906 -439,-1172 -394,-282 -989,-194 -1438,-129 -161,23 -318,46 -475,68 79,-401 162,-801 253,-1199 125,-543 263,-1096 460,-1619z"/>
</svg>
