<?xml version="1.0" encoding="UTF-8"?>
<!DOCTYPE svg PUBLIC "-//W3C//DTD SVG 1.1//EN" "http://www.w3.org/Graphics/SVG/1.1/DTD/svg11.dtd">
<svg xmlns="http://www.w3.org/2000/svg" xml:space="preserve" width="1024px" height="1024px" shape-rendering="geometricPrecision" text-rendering="geometricPrecision" image-rendering="optimizeQuality" fill-rule="nonzero" clip-rule="evenodd" viewBox="0 0 10240 10240" xmlns:xlink="http://www.w3.org/1999/xlink">
	<title>mousetrap icon</title>
	<desc>mousetrap icon from the IconExperience.com O-Collection. Copyright by INCORS GmbH (www.incors.com).</desc>
	<path id="curve4" fill="#808080" d="M4302 8071c-39,79 -135,111 -213,72 -79,-40 -111,-136 -72,-214 200,-400 680,-569 1103,-569 423,0 903,169 1103,569 39,78 7,174 -72,214 -78,39 -174,7 -213,-72 -144,-286 -522,-391 -818,-391 -296,0 -674,105 -818,391z"/>
	<path id="curve3" fill="#808080" d="M3503 5049c39,78 7,174 -72,214 -78,39 -174,7 -213,-72l-320 -640c-12,-23 -17,-47 -17,-71l-1 -2400c0,-441 359,-800 800,-800l650 1c-13,105 -13,213 0,318l-650 1c-264,0 -480,216 -480,480l0 2364 303 605zm1816 -3768l1241 -1c441,0 800,359 800,800l0 3040c0,88 -72,160 -160,160 -68,0 -126,-42 -149,-102l-313 -627c-40,-78 -8,-174 71,-214 78,-39 174,-7 214,72l17 35 0 -2364c0,-264 -216,-480 -480,-480l-1241 -1c-29,-43 -39,-108 -39,-159 0,-51 10,-116 39,-159zm281 3040c58,0 115,32 143,88l320 640c39,78 7,174 -72,214 -78,39 -174,7 -213,-72l-178 -355 0 -515zm-1422 230c-40,-78 -8,-174 71,-213 78,-40 174,-8 214,71l177 355 0 515c-58,0 -115,-32 -142,-88l-320 -640zm1920 0c-40,-78 -8,-174 71,-214 78,-39 174,-7 214,72l320 640c39,78 7,174 -72,214 -78,39 -174,7 -213,-72l-320 -640zm-2560 0c-40,-78 -8,-174 71,-213 78,-40 174,-8 214,71l319 640c40,78 8,174 -71,214 -78,39 -174,7 -214,-72l-319 -640z"/>
	<path id="curve2" fill="#808080" d="M5280 8640c0,88 -72,160 -160,160 -88,0 -160,-72 -160,-160l0 -628c51,-8 105,-12 160,-12 55,0 109,4 160,12l0 628zm-320 -1593l0 -4707c0,-61 -9,-117 -28,-167 -19,-52 -48,-100 -88,-146 -65,-75 -117,-168 -152,-271 -33,-97 -52,-204 -52,-316 0,-112 19,-219 52,-316 35,-103 87,-196 152,-271 40,-46 69,-94 88,-146 19,-50 28,-106 28,-167l0 -220c0,-88 72,-160 160,-160 88,0 160,72 160,160l0 220c0,97 -16,190 -49,279 -33,87 -81,168 -145,243 -38,44 -70,100 -92,164 -22,65 -34,137 -34,214 0,77 12,149 34,214 22,64 54,120 92,164 64,75 112,156 145,243 33,89 49,182 49,279l0 4707c-53,-5 -107,-7 -160,-7 -53,0 -107,2 -160,7z"/>
	<path id="curve1" fill="#B89A7C" d="M4160 6400l480 0 0 701c-315,82 -606,248 -800,508l0 -889c0,-176 144,-320 320,-320zm1440 0l480 0c176,0 320,144 320,320l0 889c-194,-260 -485,-426 -800,-508l0 -701zm800 1957l0 923c0,176 -144,320 -320,320l-1920 0c-176,0 -320,-144 -320,-320l0 -923c31,28 66,52 106,72 236,118 524,22 643,-215 12,-25 30,-47 51,-67l0 493c0,265 215,480 480,480 265,0 480,-215 480,-480l0 -493c21,20 39,42 51,67 119,237 407,333 643,215 40,-20 75,-44 106,-72z"/>
	<path id="curve0" fill="#B89A7C" d="M2240 640l2367 0 -4 4c-79,92 -144,199 -192,318l-731 -2c-617,0 -1120,503 -1120,1120l2 2400c0,72 16,145 51,214l320 640c118,236 405,332 641,214 39,-20 75,-45 106,-73 142,128 353,163 534,73 39,-20 75,-45 106,-73 88,79 202,123 320,123l0 482 -480 0c-353,0 -640,287 -640,640l0 2560 -1280 0c-176,0 -320,-144 -320,-320l0 -8000c0,-176 144,-320 320,-320zm3356 0l2404 0c176,0 320,144 320,320l0 8000c0,176 -144,320 -320,320l-1280 0 0 -2560c0,-353 -287,-640 -640,-640l-480 0 0 -605c142,128 353,163 534,73 39,-20 75,-45 106,-73 142,128 353,163 534,73 39,-20 74,-44 105,-72 85,77 197,124 321,124 265,0 480,-215 480,-480l0 -3040c0,-617 -503,-1120 -1120,-1120l-1043 2c4,-11 9,-21 13,-32 35,-95 57,-191 66,-290zm4 3362c118,0 232,44 320,123 31,-28 67,-53 106,-73 181,-90 392,-55 534,73 47,-42 101,-74 160,-95l0 -1950c0,-87 -73,-160 -160,-160l-1043 -2c4,11 9,21 13,32 47,127 70,257 70,390l0 1662zm-1189 -2084l-731 2c-88,0 -160,72 -160,160l0 1950c168,-60 352,-20 480,95 31,-28 67,-53 106,-72 181,-91 392,-56 534,72l0 -1785c0,-47 -6,-68 -37,-104 -79,-92 -144,-199 -192,-318z"/>
</svg>
