<?xml version="1.0" encoding="UTF-8"?>
<!DOCTYPE svg PUBLIC "-//W3C//DTD SVG 1.1//EN" "http://www.w3.org/Graphics/SVG/1.1/DTD/svg11.dtd">
<svg xmlns="http://www.w3.org/2000/svg" xml:space="preserve" width="1024px" height="1024px" shape-rendering="geometricPrecision" text-rendering="geometricPrecision" image-rendering="optimizeQuality" fill-rule="nonzero" clip-rule="evenodd" viewBox="0 0 10240 10240" xmlns:xlink="http://www.w3.org/1999/xlink">
	<title>mouse icon</title>
	<desc>mouse icon from the IconExperience.com O-Collection. Copyright by INCORS GmbH (www.incors.com).</desc>
	<path id="curve0" fill="#808080" d="M3840 1280l2560 0c1058,0 1920,862 1920,1920l0 3200c0,1767 -1433,3200 -3200,3200 -1767,0 -3200,-1433 -3200,-3200l0 -3200c0,-1058 862,-1920 1920,-1920zm1600 640l0 2560 2240 0 0 -1280c0,-705 -575,-1280 -1280,-1280l-960 0zm-640 2560l0 -2560 -960 0c-705,0 -1280,575 -1280,1280l0 1280 2240 0zm2880 640l-5120 0 0 1280c0,1414 1146,2560 2560,2560 1414,0 2560,-1146 2560,-2560l0 -1280z"/>
</svg>
