<?xml version="1.0" encoding="UTF-8"?>
<!DOCTYPE svg PUBLIC "-//W3C//DTD SVG 1.1//EN" "http://www.w3.org/Graphics/SVG/1.1/DTD/svg11.dtd">
<svg xmlns="http://www.w3.org/2000/svg" xml:space="preserve" width="1024px" height="1024px" shape-rendering="geometricPrecision" text-rendering="geometricPrecision" image-rendering="optimizeQuality" fill-rule="nonzero" clip-rule="evenodd" viewBox="0 0 10240 10240" xmlns:xlink="http://www.w3.org/1999/xlink">
	<title>moving_truck icon</title>
	<desc>moving_truck icon from the IconExperience.com O-Collection. Copyright by INCORS GmbH (www.incors.com).</desc>
	<path id="curve1" fill="#808080" d="M7360 7040c-530,0 -960,430 -960,960 0,530 430,960 960,960 530,0 960,-430 960,-960 0,-530 -430,-960 -960,-960zm-4480 0c530,0 960,430 960,960 0,530 -430,960 -960,960 -530,0 -960,-430 -960,-960 0,-530 430,-960 960,-960zm0 640c-177,0 -320,143 -320,320 0,177 143,320 320,320 177,0 320,-143 320,-320 0,-177 -143,-320 -320,-320zm4480 0c177,0 320,143 320,320 0,177 -143,320 -320,320 -177,0 -320,-143 -320,-320 0,-177 143,-320 320,-320z"/>
	<path id="curve0" fill="#808080" d="M6400 4160c0,-176 144,-320 320,-320l1524 0c249,0 452,137 573,354l715 1280c51,90 68,182 68,286l0 1920c0,176 -144,320 -320,320l-640 0 0 0c0,-707 -573,-1280 -1280,-1280 -707,0 -1280,573 -1280,1280l0 0 -1920 0 0 0c0,-707 -573,-1280 -1280,-1280 -596,0 -1098,408 -1240,960l-1000 0 0 -4800c0,-176 144,-320 320,-320l5120 0c176,0 320,144 320,320l0 1280zm-4640 -866l-753 753c-63,62 -63,164 0,226l753 753c62,63 138,94 226,94l538 0c50,0 92,-28 111,-74 19,-46 11,-98 -26,-131l-505 -435 1736 0 0 -640 -1736 0 505 -435c37,-33 45,-85 26,-131 -19,-46 -61,-74 -111,-74l-538 0c-88,0 -164,31 -226,94zm3520 3012l753 -753c63,-62 63,-164 0,-226l-753 -753c-62,-63 -138,-94 -226,-94l-538 0c-49,0 -92,28 -111,74 -19,46 -11,98 26,131l505 435 -1736 0 0 640 1736 0 -505 435c-37,33 -45,85 -26,131 19,46 62,74 111,74l538 0c88,0 164,-31 226,-94zm3366 -1104l-314 -559c-58,-103 -160,-163 -279,-163l-853 0c-88,0 -160,72 -160,160l0 640c0,88 72,160 160,160l1307 0c58,0 108,-29 138,-79 29,-51 30,-109 1,-159z"/>
</svg>
