<?xml version="1.0" encoding="UTF-8"?>
<!DOCTYPE svg PUBLIC "-//W3C//DTD SVG 1.1//EN" "http://www.w3.org/Graphics/SVG/1.1/DTD/svg11.dtd">
<svg xmlns="http://www.w3.org/2000/svg" xml:space="preserve" width="1024px" height="1024px" shape-rendering="geometricPrecision" text-rendering="geometricPrecision" image-rendering="optimizeQuality" fill-rule="nonzero" clip-rule="evenodd" viewBox="0 0 10240 10240" xmlns:xlink="http://www.w3.org/1999/xlink">
	<title>movies icon</title>
	<desc>movies icon from the IconExperience.com O-Collection. Copyright by INCORS GmbH (www.incors.com).</desc>
	<path id="curve3" fill="#808080" d="M5760 2239l0 -558c0,-103 -43,-191 -124,-253 -81,-63 -177,-83 -276,-57 -405,104 -776,294 -1092,550 528,14 1031,126 1492,318zm1590 1171c8,-2 17,-5 26,-7l963 -313c97,-32 168,-100 202,-197 35,-96 24,-194 -31,-280 -387,-606 -995,-1058 -1710,-1242 -99,-26 -195,-6 -276,57 -81,62 -124,150 -124,253l0 893c358,229 678,512 950,836zm969 2562c453,-560 680,-1270 636,-1989 -6,-102 -55,-187 -139,-245 -85,-57 -182,-71 -279,-40l-799 260c352,592 562,1279 581,2014z"/>
	<path id="curve2" fill="#808080" d="M6080 320c2121,0 3840,1719 3840,3840 0,1381 -729,2592 -1824,3268 54,-156 98,-316 133,-480 834,-644 1371,-1653 1371,-2788 0,-1944 -1576,-3520 -3520,-3520 -1135,0 -2144,537 -2788,1371 -164,35 -324,79 -480,133 676,-1095 1887,-1824 3268,-1824z"/>
	<path id="curve1" fill="#808080" d="M5358 8274l-595 -820c-76,-105 -200,-152 -327,-124 -181,40 -371,40 -552,0 -127,-28 -251,19 -327,124l-595 820c-60,82 -77,179 -48,277 28,99 94,171 190,209 676,265 1436,265 2112,0 96,-38 162,-110 190,-209 29,-98 12,-195 -48,-277zm-2302 -1546c-94,-160 -152,-338 -170,-523 -12,-130 -96,-234 -220,-274l-963 -313c-97,-31 -194,-17 -279,40 -84,58 -133,143 -139,245 -44,728 188,1446 653,2010 66,79 155,119 257,116 102,-3 189,-49 249,-132l595 -819c77,-105 83,-238 17,-350zm146 -1497c123,-138 275,-250 446,-324 119,-53 192,-164 192,-294l0 -1012c0,-103 -43,-191 -124,-253 -81,-63 -177,-83 -276,-57 -715,184 -1323,636 -1710,1242 -55,86 -66,184 -31,280 34,97 105,165 202,197l963 313c124,40 252,5 338,-92zm1470 -324c171,74 323,186 446,324 86,97 214,132 338,92l963 -313c97,-32 168,-100 202,-197 35,-96 24,-194 -31,-280 -387,-606 -995,-1058 -1710,-1242 -99,-26 -195,-6 -276,57 -81,62 -124,150 -124,253l0 1012c0,130 73,241 192,294zm1709 3006c466,-564 698,-1282 654,-2010 -6,-102 -55,-187 -139,-245 -85,-57 -182,-71 -279,-40l-963 313c-124,40 -208,144 -220,274 -18,185 -76,363 -170,523 -66,112 -60,245 17,350l595 819c60,83 147,129 249,132 102,3 191,-37 256,-116z"/>
	<path id="curve0" fill="#808080" d="M4160 9920c2121,0 3840,-1719 3840,-3840 0,-2121 -1719,-3840 -3840,-3840 -2121,0 -3840,1719 -3840,3840 0,2121 1719,3840 3840,3840zm0 -4480c353,0 640,287 640,640 0,353 -287,640 -640,640 -353,0 -640,-287 -640,-640 0,-353 287,-640 640,-640zm0 960c177,0 320,-143 320,-320 0,-177 -143,-320 -320,-320 -177,0 -320,143 -320,320 0,177 143,320 320,320zm0 -3840c1944,0 3520,1576 3520,3520 0,1944 -1576,3520 -3520,3520 -1944,0 -3520,-1576 -3520,-3520 0,-1944 1576,-3520 3520,-3520z"/>
</svg>
