<?xml version="1.0" encoding="UTF-8"?>
<!DOCTYPE svg PUBLIC "-//W3C//DTD SVG 1.1//EN" "http://www.w3.org/Graphics/SVG/1.1/DTD/svg11.dtd">
<svg xmlns="http://www.w3.org/2000/svg" xml:space="preserve" width="1024px" height="1024px" shape-rendering="geometricPrecision" text-rendering="geometricPrecision" image-rendering="optimizeQuality" fill-rule="nonzero" clip-rule="evenodd" viewBox="0 0 10240 10240" xmlns:xlink="http://www.w3.org/1999/xlink">
	<title>movie_camera icon</title>
	<desc>movie_camera icon from the IconExperience.com O-Collection. Copyright by INCORS GmbH (www.incors.com).</desc>
	<path id="curve0" fill="#808080" d="M8000 5888l0 1664 1128 677c104,62 208,91 329,91l143 0 0 -3200 -143 0c-121,0 -225,29 -329,91l-1128 677zm-1760 -3328c265,0 480,215 480,480 0,265 -215,480 -480,480 -265,0 -480,-215 -480,-480 0,-265 215,-480 480,-480zm-3519 2c265,0 479,214 479,479 0,265 -214,479 -479,479 -265,0 -479,-214 -479,-479 0,-265 214,-479 479,-479zm4000 2558l-481 0c1149,0 2080,-931 2080,-2080 0,-1149 -931,-2080 -2080,-2080 -513,0 -983,186 -1346,494 -241,205 -587,205 -828,0 -363,-308 -833,-494 -1346,-494 -1149,0 -2080,931 -2080,2080 0,1149 931,2080 2080,2080l52 19c-123,44 -212,163 -212,301l0 960 -640 0c0,-176 -144,-320 -320,-320l-320 0 0 1920 320 0c176,0 320,-144 320,-320l0 0 640 0 0 320c0,176 144,320 320,320l320 0 0 320c0,176 144,320 320,320l2560 0c176,0 320,-144 320,-320l0 -320 320 0c176,0 320,-144 320,-320l0 -320 320 0c176,0 320,-144 320,-320l0 -1280c0,-176 -144,-320 -320,-320l-320 0 0 -320c0,-176 -143,-320 -319,-320z"/>
</svg>
