<?xml version="1.0" encoding="UTF-8"?>
<!DOCTYPE svg PUBLIC "-//W3C//DTD SVG 1.1//EN" "http://www.w3.org/Graphics/SVG/1.1/DTD/svg11.dtd">
<svg xmlns="http://www.w3.org/2000/svg" xml:space="preserve" width="1024px" height="1024px" shape-rendering="geometricPrecision" text-rendering="geometricPrecision" image-rendering="optimizeQuality" fill-rule="nonzero" clip-rule="evenodd" viewBox="0 0 10240 10240" xmlns:xlink="http://www.w3.org/1999/xlink">
	<title>mug icon</title>
	<desc>mug icon from the IconExperience.com O-Collection. Copyright by INCORS GmbH (www.incors.com).</desc>
	<path id="curve0" fill="#808080" d="M1920 1920l5120 0c353,0 640,287 640,640l0 681c102,-27 210,-41 320,-41l320 0c705,0 1280,575 1280,1280l0 1920c0,705 -575,1280 -1280,1280l-640 0 0 960c0,176 -144,320 -320,320l0 0c-176,0 -320,144 -320,320l0 0c0,176 -144,320 -320,320l-4480 0c-176,0 -320,-144 -320,-320l0 0c0,-176 -144,-320 -320,-320l0 0c-176,0 -320,-144 -320,-320l0 -6080c0,-353 287,-640 640,-640zm320 640c-176,0 -320,144 -320,320l0 5120c0,176 144,320 320,320l0 0c176,0 320,-144 320,-320l0 -5120c0,-176 -144,-320 -320,-320l0 0zm5440 1920l0 2240 640 0c175,0 320,-145 320,-320l0 -1920c0,-175 -145,-320 -320,-320l-320 0c-176,0 -320,144 -320,320z"/>
</svg>
