<?xml version="1.0" encoding="UTF-8"?>
<!DOCTYPE svg PUBLIC "-//W3C//DTD SVG 1.1//EN" "http://www.w3.org/Graphics/SVG/1.1/DTD/svg11.dtd">
<svg xmlns="http://www.w3.org/2000/svg" xml:space="preserve" width="1024px" height="1024px" shape-rendering="geometricPrecision" text-rendering="geometricPrecision" image-rendering="optimizeQuality" fill-rule="nonzero" clip-rule="evenodd" viewBox="0 0 10240 10240" xmlns:xlink="http://www.w3.org/1999/xlink">
	<title>multimeter icon</title>
	<desc>multimeter icon from the IconExperience.com O-Collection. Copyright by INCORS GmbH (www.incors.com).</desc>
	<path id="curve1" fill="#ED9A56" d="M5120 2560l320 0 0 -640 320 0 0 1600 -320 0 0 -640 -640 0 0 -960 320 0 0 640zm1920 -640l0 960 -640 0 0 320 640 0 0 320 -960 0 0 -960 640 0 0 -320 -640 0 0 -320 960 0z"/>
	<path id="curve0" fill="#808080" d="M2560 640l5120 0c353,0 640,287 640,640l0 7680c0,352 -287,640 -640,640l-5120 0c-353,0 -640,-288 -640,-640l0 -7680c0,-353 287,-640 640,-640zm320 640l0 2560 4480 0 0 -2560 -4480 0zm3575 5198l-1109 1108c-125,125 -327,125 -452,0 -125,-125 -125,-327 0,-452l1108 -1109c-621,-412 -1466,-344 -2013,204 -625,624 -625,1638 0,2262 624,625 1638,625 2262,0 548,-547 616,-1392 204,-2013zm-3575 -1998l0 640 1280 0 0 -640 -1280 0zm3200 0l0 640 1280 0 0 -640 -1280 0zm-1600 0l0 640 1280 0 0 -640 -1280 0z"/>
</svg>
