<?xml version="1.0" encoding="UTF-8"?>
<!DOCTYPE svg PUBLIC "-//W3C//DTD SVG 1.1//EN" "http://www.w3.org/Graphics/SVG/1.1/DTD/svg11.dtd">
<svg xmlns="http://www.w3.org/2000/svg" xml:space="preserve" width="1024px" height="1024px" shape-rendering="geometricPrecision" text-rendering="geometricPrecision" image-rendering="optimizeQuality" fill-rule="nonzero" clip-rule="evenodd" viewBox="0 0 10240 10240" xmlns:xlink="http://www.w3.org/1999/xlink">
	<title>multimeter_analog icon</title>
	<desc>multimeter_analog icon from the IconExperience.com O-Collection. Copyright by INCORS GmbH (www.incors.com).</desc>
	<path id="curve2" fill="#E68497" d="M5120 2240c110,0 220,3 327,10l-507 633c-583,21 -1230,150 -1740,446l0 -714c532,-235 1199,-375 1920,-375zm1556 236c127,42 249,88 364,139l0 714c-172,-100 -358,-179 -547,-241l183 -612z"/>
	<path id="curve1" fill="#808080" d="M6029 3520l454 -1514c22,-74 -10,-152 -79,-188 -68,-36 -151,-18 -199,42l-1328 1660 1152 0z"/>
	<path id="curve0" fill="#808080" d="M2560 640l5120 0c353,0 640,287 640,640l0 7680c0,352 -287,640 -640,640l-5120 0c-353,0 -640,-288 -640,-640l0 -7680c0,-353 287,-640 640,-640zm320 640l0 2560c1493,0 2987,0 4480,0l0 -2560 -4480 0zm0 3200l0 640 1280 0 0 -640 -1280 0zm3200 0l0 640 1280 0 0 -640 -1280 0zm-1600 0l0 640 1280 0 0 -640 -1280 0zm1975 1998l-1109 1108c-125,125 -327,125 -452,0 -125,-125 -125,-327 0,-452l1108 -1109c-621,-412 -1466,-344 -2013,204 -625,624 -625,1638 0,2262 624,625 1638,625 2262,0 548,-547 616,-1392 204,-2013z"/>
</svg>
