<?xml version="1.0" encoding="UTF-8"?>
<!DOCTYPE svg PUBLIC "-//W3C//DTD SVG 1.1//EN" "http://www.w3.org/Graphics/SVG/1.1/DTD/svg11.dtd">
<svg xmlns="http://www.w3.org/2000/svg" xml:space="preserve" width="1024px" height="1024px" shape-rendering="geometricPrecision" text-rendering="geometricPrecision" image-rendering="optimizeQuality" fill-rule="nonzero" clip-rule="evenodd" viewBox="0 0 10240 10240" xmlns:xlink="http://www.w3.org/1999/xlink">
	<title>mushroom icon</title>
	<desc>mushroom icon from the IconExperience.com O-Collection. Copyright by INCORS GmbH (www.incors.com).</desc>
	<path id="curve1" fill="#808080" d="M3840 4800l2560 0c0,2240 640,2560 640,3520 0,960 -960,1280 -1920,1280 -960,0 -1920,-320 -1920,-1280 0,-1047 640,-1280 640,-3520z"/>
	<path id="curve0" fill="#E68497" d="M5120 640c1972,0 3632,1202 4123,2835 73,241 37,483 -101,689 -138,205 -341,316 -576,316l-6892 0c-235,0 -438,-111 -576,-316 -138,-206 -174,-448 -101,-689 491,-1633 2151,-2835 4123,-2835z"/>
</svg>
