<?xml version="1.0" encoding="UTF-8"?>
<!DOCTYPE svg PUBLIC "-//W3C//DTD SVG 1.1//EN" "http://www.w3.org/Graphics/SVG/1.1/DTD/svg11.dtd">
<svg xmlns="http://www.w3.org/2000/svg" xml:space="preserve" width="1024px" height="1024px" shape-rendering="geometricPrecision" text-rendering="geometricPrecision" image-rendering="optimizeQuality" fill-rule="nonzero" clip-rule="evenodd" viewBox="0 0 10240 10240" xmlns:xlink="http://www.w3.org/1999/xlink">
	<title>nav_up_right icon</title>
	<desc>nav_up_right icon from the IconExperience.com O-Collection. Copyright by INCORS GmbH (www.incors.com).</desc>
	<path id="curve1" fill="#4D82B8" d="M3989 2896l3035 0c176,0 320,144 320,320l0 3035c0,177 -63,328 -188,453l-819 819c-47,47 -113,60 -174,35 -61,-25 -99,-82 -99,-148l0 -2329 -2302 2302c-124,124 -328,124 -452,0l-453 -453c-124,-124 -124,-328 0,-452l2302 -2302 -2329 0c-66,0 -123,-38 -148,-99 -25,-61 -12,-127 35,-174l819 -819c125,-125 276,-188 453,-188z"/>
	<path id="curve0" fill="#4D82B8" d="M8288 8288c-1750,1749 -4586,1749 -6336,0 -1749,-1750 -1749,-4586 0,-6336 1750,-1749 4586,-1749 6336,0 1749,1750 1749,4586 0,6336zm-5883 -453c1499,1500 3931,1500 5430,0 1500,-1499 1500,-3931 0,-5430 -1499,-1500 -3931,-1500 -5430,0 -1500,1499 -1500,3931 0,5430z"/>
</svg>
