<?xml version="1.0" encoding="UTF-8"?>
<!DOCTYPE svg PUBLIC "-//W3C//DTD SVG 1.1//EN" "http://www.w3.org/Graphics/SVG/1.1/DTD/svg11.dtd">
<svg xmlns="http://www.w3.org/2000/svg" xml:space="preserve" width="1024px" height="1024px" shape-rendering="geometricPrecision" text-rendering="geometricPrecision" image-rendering="optimizeQuality" fill-rule="nonzero" clip-rule="evenodd" viewBox="0 0 10240 10240" xmlns:xlink="http://www.w3.org/1999/xlink">
	<title>nav_down_right icon</title>
	<desc>nav_down_right icon from the IconExperience.com O-Collection. Copyright by INCORS GmbH (www.incors.com).</desc>
	<path id="curve1" fill="#4D82B8" d="M7344 3989l0 3035c0,176 -144,320 -320,320l-3035 0c-177,0 -328,-63 -453,-188l-819 -819c-47,-47 -60,-113 -35,-174 25,-61 82,-99 148,-99l2329 0 -2302 -2302c-124,-124 -124,-328 0,-452l453 -453c124,-124 328,-124 452,0l2302 2302 0 -2329c0,-66 38,-123 99,-148 61,-25 127,-12 174,35l819 819c125,125 188,276 188,453z"/>
	<path id="curve0" fill="#4D82B8" d="M1952 8288c-1749,-1750 -1749,-4586 0,-6336 1750,-1749 4586,-1749 6336,0 1749,1750 1749,4586 0,6336 -1750,1749 -4586,1749 -6336,0zm453 -5883c-1500,1499 -1500,3931 0,5430 1499,1500 3931,1500 5430,0 1500,-1499 1500,-3931 0,-5430 -1499,-1500 -3931,-1500 -5430,0z"/>
</svg>
