<?xml version="1.0" encoding="UTF-8"?>
<!DOCTYPE svg PUBLIC "-//W3C//DTD SVG 1.1//EN" "http://www.w3.org/Graphics/SVG/1.1/DTD/svg11.dtd">
<svg xmlns="http://www.w3.org/2000/svg" xml:space="preserve" width="1024px" height="1024px" shape-rendering="geometricPrecision" text-rendering="geometricPrecision" image-rendering="optimizeQuality" fill-rule="nonzero" clip-rule="evenodd" viewBox="0 0 10240 10240" xmlns:xlink="http://www.w3.org/1999/xlink">
	<title>navigate_up2 icon</title>
	<desc>navigate_up2 icon from the IconExperience.com O-Collection. Copyright by INCORS GmbH (www.incors.com).</desc>
	<path id="curve1" fill="#4D82B8" d="M8967 8171l-3621 -3620c-124,-125 -328,-125 -452,0l-3621 3620c-124,125 -124,328 0,453l905 905c125,125 328,125 453,0l2489 -2489 2489 2489c125,125 328,125 453,0l905 -905c124,-125 124,-328 0,-453z"/>
	<path id="curve0" fill="#4D82B8" d="M8967 4651l-3621 -3620c-124,-125 -328,-125 -452,0l-3621 3620c-124,125 -124,328 0,453l905 905c125,125 328,125 453,0l2489 -2489 2489 2489c125,125 328,125 453,0l905 -905c124,-125 124,-328 0,-453z"/>
</svg>
