<?xml version="1.0" encoding="UTF-8"?>
<!DOCTYPE svg PUBLIC "-//W3C//DTD SVG 1.1//EN" "http://www.w3.org/Graphics/SVG/1.1/DTD/svg11.dtd">
<svg xmlns="http://www.w3.org/2000/svg" xml:space="preserve" width="1024px" height="1024px" shape-rendering="geometricPrecision" text-rendering="geometricPrecision" image-rendering="optimizeQuality" fill-rule="nonzero" clip-rule="evenodd" viewBox="0 0 10240 10240" xmlns:xlink="http://www.w3.org/1999/xlink">
	<title>navigate_cross icon</title>
	<desc>navigate_cross icon from the IconExperience.com O-Collection. Copyright by INCORS GmbH (www.incors.com).</desc>
	<path id="curve0" fill="#4D82B8" d="M7906 1506l828 828c124,124 124,328 0,452l-2334 2334 2334 2334c124,124 124,328 0,452l-828 828c-124,124 -328,124 -452,0l-2334 -2334 -2334 2334c-124,124 -328,124 -452,0l-828 -828c-124,-124 -124,-328 0,-452l2334 -2334 -2334 -2334c-124,-124 -124,-328 0,-452l828 -828c124,-124 328,-124 452,0l2334 2334 2334 -2334c124,-124 328,-124 452,0z"/>
</svg>
