<?xml version="1.0" encoding="UTF-8"?>
<!DOCTYPE svg PUBLIC "-//W3C//DTD SVG 1.1//EN" "http://www.w3.org/Graphics/SVG/1.1/DTD/svg11.dtd">
<svg xmlns="http://www.w3.org/2000/svg" xml:space="preserve" width="1024px" height="1024px" shape-rendering="geometricPrecision" text-rendering="geometricPrecision" image-rendering="optimizeQuality" fill-rule="nonzero" clip-rule="evenodd" viewBox="0 0 10240 10240" xmlns:xlink="http://www.w3.org/1999/xlink">
	<title>navigate_left2 icon</title>
	<desc>navigate_left2 icon from the IconExperience.com O-Collection. Copyright by INCORS GmbH (www.incors.com).</desc>
	<path id="curve1" fill="#4D82B8" d="M8171 1273l-3620 3621c-125,124 -125,328 0,452l3620 3621c125,124 328,124 453,0l905 -905c125,-125 125,-328 0,-453l-2489 -2489 2489 -2489c125,-125 125,-328 0,-453l-905 -905c-125,-124 -328,-124 -453,0z"/>
	<path id="curve0" fill="#4D82B8" d="M4651 1273l-3620 3621c-125,124 -125,328 0,452l3620 3621c125,124 328,124 453,0l905 -905c125,-125 125,-328 0,-453l-2489 -2489 2489 -2489c125,-125 125,-328 0,-453l-905 -905c-125,-124 -328,-124 -453,0z"/>
</svg>
