<?xml version="1.0" encoding="UTF-8"?>
<!DOCTYPE svg PUBLIC "-//W3C//DTD SVG 1.1//EN" "http://www.w3.org/Graphics/SVG/1.1/DTD/svg11.dtd">
<svg xmlns="http://www.w3.org/2000/svg" xml:space="preserve" width="1024px" height="1024px" shape-rendering="geometricPrecision" text-rendering="geometricPrecision" image-rendering="optimizeQuality" fill-rule="nonzero" clip-rule="evenodd" viewBox="0 0 10240 10240" xmlns:xlink="http://www.w3.org/1999/xlink">
	<title>newspaper icon</title>
	<desc>newspaper icon from the IconExperience.com O-Collection. Copyright by INCORS GmbH (www.incors.com).</desc>
	<path id="curve3" fill="#4D82B8" d="M3840,2560 8320,2560 8320,3840 3840,3840z"/>
	<path id="curve2" fill="#808080" d="M3840 7040l4480 0 0 640 -4480 0 0 -640zm0 -2560l1920 0 0 640 -1920 0 0 -640zm0 1280l1920 0 0 640 -1920 0 0 -640z"/>
	<path id="curve1" fill="#4D82B8" d="M6400,4480 8320,4480 8320,6400 6400,6400z"/>
	<path id="curve0" fill="#808080" d="M3200 1280l5760 0c353,0 640,287 640,640l0 5760c0,705 -575,1280 -1280,1280l-6400 0c-705,0 -1280,-575 -1280,-1280l0 -5120c0,-353 287,-640 640,-640l0 5760c0,353 288,640 640,640l0 0c353,0 640,-288 640,-640l0 -5760c0,-353 287,-640 640,-640zm-1600 640l640 0 0 5760c0,176 -144,320 -320,320l0 0c-176,0 -320,-144 -320,-320l0 -5760zm1600 0l0 5760c0,233 -63,452 -172,640l5292 0c352,0 640,-288 640,-640l0 -5760 -5760 0z"/>
</svg>
