<?xml version="1.0" encoding="UTF-8"?>
<!DOCTYPE svg PUBLIC "-//W3C//DTD SVG 1.1//EN" "http://www.w3.org/Graphics/SVG/1.1/DTD/svg11.dtd">
<svg xmlns="http://www.w3.org/2000/svg" xml:space="preserve" width="1024px" height="1024px" shape-rendering="geometricPrecision" text-rendering="geometricPrecision" image-rendering="optimizeQuality" fill-rule="nonzero" clip-rule="evenodd" viewBox="0 0 10240 10240" xmlns:xlink="http://www.w3.org/1999/xlink">
	<title>newtons_cradle icon</title>
	<desc>newtons_cradle icon from the IconExperience.com O-Collection. Copyright by INCORS GmbH (www.incors.com).</desc>
	<path id="curve3" fill="#808080" d="M8640 5800c552,142 960,644 960,1240 0,707 -573,1280 -1280,1280 -707,0 -1280,-573 -1280,-1280 0,-596 408,-1098 960,-1240l0 -2280 640 0 0 2280zm-185 702c28,-114 -4,-226 -88,-308 -85,-81 -198,-110 -311,-77 -318,90 -569,341 -659,659 -33,113 -4,226 77,311 82,84 194,116 308,87l0 0c114,-28 198,-109 230,-222 31,-106 114,-189 220,-220 113,-32 194,-116 222,-230l1 0z"/>
	<path id="curve2" fill="#808080" d="M6080 5800c552,142 960,644 960,1240 0,707 -573,1280 -1280,1280 -707,0 -1280,-573 -1280,-1280 0,-596 408,-1098 960,-1240l0 -2280 640 0 0 2280zm-186 702c29,-114 -3,-226 -87,-308 -85,-81 -198,-110 -311,-77 -318,90 -569,341 -659,659 -33,113 -4,226 77,311 82,84 194,116 308,87l0 0c114,-28 198,-109 230,-222 31,-106 114,-189 220,-220 113,-32 194,-116 222,-230l0 0z"/>
	<path id="curve1" fill="#808080" d="M2470 5704c431,373 573,1004 307,1538 -315,632 -1084,890 -1717,575 -633,-315 -890,-1084 -575,-1717 266,-534 855,-800 1412,-681l946 -1899 715 0 -1088 2184zm-705 429c29,-114 -3,-226 -88,-307 -84,-82 -197,-110 -310,-78 -318,91 -569,341 -660,660 -32,112 -4,225 78,310 82,84 194,116 308,88l0 0c114,-29 198,-110 230,-223 30,-106 114,-189 219,-220 113,-32 195,-116 223,-230l0 0z"/>
	<path id="curve0" fill="#EDC87E" d="M1920,1920 9600,1920 9600,3200 1920,3200z"/>
</svg>
