<?xml version="1.0" encoding="UTF-8"?>
<!DOCTYPE svg PUBLIC "-//W3C//DTD SVG 1.1//EN" "http://www.w3.org/Graphics/SVG/1.1/DTD/svg11.dtd">
<svg xmlns="http://www.w3.org/2000/svg" xml:space="preserve" width="1024px" height="1024px" shape-rendering="geometricPrecision" text-rendering="geometricPrecision" image-rendering="optimizeQuality" fill-rule="nonzero" clip-rule="evenodd" viewBox="0 0 10240 10240" xmlns:xlink="http://www.w3.org/1999/xlink">
	<title>nonprofit icon</title>
	<desc>nonprofit icon from the IconExperience.com O-Collection. Copyright by INCORS GmbH (www.incors.com).</desc>
	<path id="curve1" fill="#808080" d="M4801 1920l640 0 0 320 479 0c970,0 1760,790 1760,1760l0 160 -1280 0 0 -160c0,-264 -216,-480 -480,-480l-479 0 0 903 -640 -640 0 -263 -263 0 -1063 -1063c251,-138 539,-217 845,-217l481 0 0 -320zm700 2562l419 -2c485,0 925,198 1244,516 318,319 516,759 516,1244 0,131 -14,258 -41,380l-2138 -2138zm1264 3301c-251,138 -539,217 -845,217l-479 0 0 320 -640 0 0 -320 -481 0c-970,0 -1760,-790 -1760,-1760l0 -160 1280 0 0 160c0,264 216,480 480,480l481 0 0 -901 640 640 0 261 261 0 1063 1063zm-2026 -2025l-419 2c-485,0 -925,-198 -1244,-516 -318,-319 -516,-759 -516,-1244 0,-131 14,-258 41,-380l2138 2138z"/>
	<path id="curve0" fill="#E68497" d="M5120 640c2474,0 4480,2006 4480,4480 0,2474 -2006,4480 -4480,4480 -2474,0 -4480,-2006 -4480,-4480 0,-2474 2006,-4480 4480,-4480zm-2126 1675l4931 4931c449,-590 715,-1327 715,-2126 0,-1944 -1576,-3520 -3520,-3520 -799,0 -1536,266 -2126,715zm4252 5610l-4931 -4931c-449,590 -715,1327 -715,2126 0,1944 1576,3520 3520,3520 799,0 1536,-266 2126,-715z"/>
</svg>
