<?xml version="1.0" encoding="UTF-8"?>
<!DOCTYPE svg PUBLIC "-//W3C//DTD SVG 1.1//EN" "http://www.w3.org/Graphics/SVG/1.1/DTD/svg11.dtd">
<svg xmlns="http://www.w3.org/2000/svg" xml:space="preserve" width="1024px" height="1024px" shape-rendering="geometricPrecision" text-rendering="geometricPrecision" image-rendering="optimizeQuality" fill-rule="nonzero" clip-rule="evenodd" viewBox="0 0 10240 10240" xmlns:xlink="http://www.w3.org/1999/xlink">
	<title>nose icon</title>
	<desc>nose icon from the IconExperience.com O-Collection. Copyright by INCORS GmbH (www.incors.com).</desc>
	<path id="curve0" fill="#EFC1B4" d="M6591 7553c233,122 482,366 445,662 0,4 0,8 -1,13 362,-179 624,-456 671,-869 85,-742 -601,-1404 -1373,-1325 -1018,105 -1078,-98 -143,-465 1146,-449 2598,484 2438,1885 -72,627 -422,1244 -1085,1607 -433,237 -1342,270 -1927,149 -364,-76 -687,-79 -838,-34 -275,83 -538,162 -1287,45 -563,-87 -1038,-248 -1384,-593 -355,-354 -542,-864 -502,-1629 34,-632 358,-1119 693,-1622 133,-199 268,-401 372,-595 126,-237 344,-728 577,-1275 377,-886 792,-1920 928,-2269 87,-224 339,-335 564,-249 224,87 336,338 249,562 -136,348 -554,1387 -939,2293 -242,568 -471,1084 -611,1346 -131,244 -273,457 -412,667 -269,403 -529,793 -550,1187 -26,490 68,791 249,972 191,190 507,287 899,348 249,38 420,49 550,44 165,-7 297,-136 307,-300 17,-268 218,-464 443,-577 474,-239 1199,-224 1667,22z"/>
</svg>
