<?xml version="1.0" encoding="UTF-8"?>
<!DOCTYPE svg PUBLIC "-//W3C//DTD SVG 1.1//EN" "http://www.w3.org/Graphics/SVG/1.1/DTD/svg11.dtd">
<svg xmlns="http://www.w3.org/2000/svg" xml:space="preserve" width="1024px" height="1024px" shape-rendering="geometricPrecision" text-rendering="geometricPrecision" image-rendering="optimizeQuality" fill-rule="nonzero" clip-rule="evenodd" viewBox="0 0 10240 10240" xmlns:xlink="http://www.w3.org/1999/xlink">
	<title>notebook icon</title>
	<desc>notebook icon from the IconExperience.com O-Collection. Copyright by INCORS GmbH (www.incors.com).</desc>
	<path id="curve2" fill="#4D82B8" d="M2560 7680l5120 0 0 640 -5120 0 0 -640zm0 -3840l5120 0 0 640 -5120 0 0 -640zm0 1280l5120 0 0 640 -5120 0 0 -640zm0 1280l5120 0 0 640 -5120 0 0 -640z"/>
	<path id="curve1" fill="#808080" d="M8960 2240l0 6720c0,353 -287,640 -640,640l-6400 0c-353,0 -640,-287 -640,-640l0 -6720c0,-353 287,-640 640,-640l0 7360 6400 0 0 -7360c353,0 640,287 640,640z"/>
	<path id="curve0" fill="#808080" d="M7360 640l320 0c176,0 320,144 320,320l0 1280c0,176 -144,320 -320,320l-320 0c-176,0 -320,-144 -320,-320l0 -1280c0,-176 144,-320 320,-320zm-4800 0l320 0c176,0 320,144 320,320l0 1280c0,176 -144,320 -320,320l-320 0c-176,0 -320,-144 -320,-320l0 -1280c0,-176 144,-320 320,-320zm1600 0l320 0c176,0 320,144 320,320l0 1280c0,176 -144,320 -320,320l-320 0c-176,0 -320,-144 -320,-320l0 -1280c0,-176 144,-320 320,-320zm1600 0l320 0c176,0 320,144 320,320l0 1280c0,176 -144,320 -320,320l-320 0c-176,0 -320,-144 -320,-320l0 -1280c0,-176 144,-320 320,-320z"/>
</svg>
