<?xml version="1.0" encoding="UTF-8"?>
<!DOCTYPE svg PUBLIC "-//W3C//DTD SVG 1.1//EN" "http://www.w3.org/Graphics/SVG/1.1/DTD/svg11.dtd">
<svg xmlns="http://www.w3.org/2000/svg" xml:space="preserve" width="1024px" height="1024px" shape-rendering="geometricPrecision" text-rendering="geometricPrecision" image-rendering="optimizeQuality" fill-rule="nonzero" clip-rule="evenodd" viewBox="0 0 10240 10240" xmlns:xlink="http://www.w3.org/1999/xlink">
	<title>note icon</title>
	<desc>note icon from the IconExperience.com O-Collection. Copyright by INCORS GmbH (www.incors.com).</desc>
	<path id="curve0" fill="#EDC87E" d="M1280 8960l5230 0c352,0 656,-126 905,-375l1170 -1170c249,-249 375,-553 375,-905l0 -5230 -7680 0 0 7680zm5758 -903c1,-19 2,-38 2,-57l0 -960 960 0c19,0 38,-1 57,-2l-1019 1019zm-5118 263l0 -6400 6400 0 0 4160c0,176 -144,320 -320,320l-1600 0 0 1600c0,176 -144,320 -320,320l-4160 0z"/>
</svg>
