<?xml version="1.0" encoding="UTF-8"?>
<!DOCTYPE svg PUBLIC "-//W3C//DTD SVG 1.1//EN" "http://www.w3.org/Graphics/SVG/1.1/DTD/svg11.dtd">
<svg xmlns="http://www.w3.org/2000/svg" xml:space="preserve" width="1024px" height="1024px" shape-rendering="geometricPrecision" text-rendering="geometricPrecision" image-rendering="optimizeQuality" fill-rule="nonzero" clip-rule="evenodd" viewBox="0 0 10240 10240" xmlns:xlink="http://www.w3.org/1999/xlink">
	<title>notebook3 icon</title>
	<desc>notebook3 icon from the IconExperience.com O-Collection. Copyright by INCORS GmbH (www.incors.com).</desc>
	<path id="curve2" fill="#4D82B8" d="M3840 2560l3840 0 0 640 -3840 0 0 -640zm0 5120l3840 0 0 640 -3840 0 0 -640zm0 -1280l3840 0 0 640 -3840 0 0 -640zm0 -1280l3840 0 0 640 -3840 0 0 -640zm0 -1283l3840 0 0 640 -3840 0 0 -640z"/>
	<path id="curve1" fill="#808080" d="M2560 1280l5760 0c353,0 640,288 640,640l0 7040c0,352 -288,640 -640,640l-5760 0c-236,0 -443,-129 -554,-320l234 0c353,0 640,-287 640,-640 0,-353 -287,-640 -640,-640l0 0c353,0 640,-287 640,-640 0,-353 -287,-640 -640,-640l0 0c353,0 640,-287 640,-640 0,-353 -287,-640 -640,-640l0 0c353,0 640,-287 640,-640 0,-353 -287,-640 -640,-640l0 0c353,0 640,-287 640,-640 0,-353 -287,-640 -640,-640l0 0c353,0 640,-287 640,-640 0,-353 -287,-640 -640,-640l-234 0c111,-191 318,-320 554,-320zm5760 640l-5120 0 0 7040 5120 0 0 -7040z"/>
	<path id="curve0" fill="#808080" d="M1280 2240c0,-176 144,-320 320,-320l640 0c176,0 320,144 320,320 0,176 -144,320 -320,320l-640 0c-176,0 -320,-144 -320,-320zm0 1280c0,-176 144,-320 320,-320l640 0c176,0 320,144 320,320 0,176 -144,320 -320,320l-640 0c-176,0 -320,-144 -320,-320zm0 1280c0,-176 144,-320 320,-320l640 0c176,0 320,144 320,320 0,176 -144,320 -320,320l-640 0c-176,0 -320,-144 -320,-320zm1280 0l0 0zm-1280 1280c0,-176 144,-320 320,-320l640 0c176,0 320,144 320,320 0,176 -144,320 -320,320l-640 0c-176,0 -320,-144 -320,-320zm0 1280c0,-176 144,-320 320,-320l640 0c176,0 320,144 320,320 0,176 -144,320 -320,320l-640 0c-176,0 -320,-144 -320,-320zm0 1280c0,-176 144,-320 320,-320l640 0c176,0 320,144 320,320 0,176 -144,320 -320,320l-640 0c-176,0 -320,-144 -320,-320z"/>
</svg>
