<?xml version="1.0" encoding="UTF-8"?>
<!DOCTYPE svg PUBLIC "-//W3C//DTD SVG 1.1//EN" "http://www.w3.org/Graphics/SVG/1.1/DTD/svg11.dtd">
<svg xmlns="http://www.w3.org/2000/svg" xml:space="preserve" width="1024px" height="1024px" shape-rendering="geometricPrecision" text-rendering="geometricPrecision" image-rendering="optimizeQuality" fill-rule="nonzero" clip-rule="evenodd" viewBox="0 0 10240 10240" xmlns:xlink="http://www.w3.org/1999/xlink">
	<title>note_block icon</title>
	<desc>note_block icon from the IconExperience.com O-Collection. Copyright by INCORS GmbH (www.incors.com).</desc>
	<path id="curve1" fill="#EDC87E" d="M3902 3840l2436 0c-59,101 -108,208 -148,320l-2140 0c-40,-112 -89,-219 -148,-320zm-233 -320c-52,-59 -109,-115 -168,-167 1519,-292 2559,-943 3521,-1761 80,-68 178,-92 281,-68 102,24 180,90 221,186 182,430 411,840 626,1170l-150 0c-75,0 -148,4 -221,13 -208,-337 -395,-694 -550,-1058 -181,155 -367,304 -558,447 -802,599 -1615,995 -2479,1238l-523 0zm491 4160l1920 0 0 320 -1920 0 0 -320zm0 -640l1920 0 0 320 -1920 0 0 -320zm0 -640l1920 0 0 320 -1920 0 0 -320zm0 -640l1920 0 0 320 -1920 0 0 -320zm0 -640l1920 0 0 320 -1920 0 0 -320zm-27 -640l1974 0c-18,104 -27,211 -27,320l-1920 0c0,-109 -9,-216 -27,-320z"/>
	<path id="curve0" fill="#808080" d="M3840 4800l0 3520 2560 0 0 -3520c0,-876 711,-1600 1600,-1600 213,0 427,0 640,0 176,0 320,144 320,320l0 5120c0,176 -144,320 -320,320 -2347,0 -4693,0 -7040,0 -176,0 -320,-144 -320,-320l0 -5120c0,-176 144,-320 320,-320 213,0 427,0 640,0 889,0 1600,724 1600,1600z"/>
</svg>
