<?xml version="1.0" encoding="UTF-8"?>
<!DOCTYPE svg PUBLIC "-//W3C//DTD SVG 1.1//EN" "http://www.w3.org/Graphics/SVG/1.1/DTD/svg11.dtd">
<svg xmlns="http://www.w3.org/2000/svg" xml:space="preserve" width="1024px" height="1024px" shape-rendering="geometricPrecision" text-rendering="geometricPrecision" image-rendering="optimizeQuality" fill-rule="nonzero" clip-rule="evenodd" viewBox="0 0 10240 10240" xmlns:xlink="http://www.w3.org/1999/xlink">
	<title>numeric_keypad icon</title>
	<desc>numeric_keypad icon from the IconExperience.com O-Collection. Copyright by INCORS GmbH (www.incors.com).</desc>
	<path id="curve0" fill="#808080" d="M2560 1280l5120 0c353,0 640,287 640,640l0 6400c0,353 -287,640 -640,640l-5120 0c-353,0 -640,-287 -640,-640l0 -6400c0,-353 287,-640 640,-640zm640 640c-176,0 -320,144 -320,320l0 640c0,176 144,320 320,320l640 0c176,0 320,-144 320,-320l0 -640c0,-176 -144,-320 -320,-320l-640 0zm1600 4800c-176,0 -320,144 -320,320l0 640c0,176 144,320 320,320l640 0c176,0 320,-144 320,-320l0 -640c0,-176 -144,-320 -320,-320l-640 0zm1600 -1600c-176,0 -320,144 -320,320l0 640c0,176 144,320 320,320l640 0c176,0 320,-144 320,-320l0 -640c0,-176 -144,-320 -320,-320l-640 0zm-1600 0c-176,0 -320,144 -320,320l0 640c0,176 144,320 320,320l640 0c176,0 320,-144 320,-320l0 -640c0,-176 -144,-320 -320,-320l-640 0zm-1600 0c-176,0 -320,144 -320,320l0 640c0,176 144,320 320,320l640 0c176,0 320,-144 320,-320l0 -640c0,-176 -144,-320 -320,-320l-640 0zm3200 -1600c-176,0 -320,144 -320,320l0 640c0,176 144,320 320,320l640 0c176,0 320,-144 320,-320l0 -640c0,-176 -144,-320 -320,-320l-640 0zm-1600 0c-176,0 -320,144 -320,320l0 640c0,176 144,320 320,320l640 0c176,0 320,-144 320,-320l0 -640c0,-176 -144,-320 -320,-320l-640 0zm-1600 0c-176,0 -320,144 -320,320l0 640c0,176 144,320 320,320l640 0c176,0 320,-144 320,-320l0 -640c0,-176 -144,-320 -320,-320l-640 0zm3200 -1600c-176,0 -320,144 -320,320l0 640c0,176 144,320 320,320l640 0c176,0 320,-144 320,-320l0 -640c0,-176 -144,-320 -320,-320l-640 0zm-1600 0c-176,0 -320,144 -320,320l0 640c0,176 144,320 320,320l640 0c176,0 320,-144 320,-320l0 -640c0,-176 -144,-320 -320,-320l-640 0z"/>
</svg>
