<?xml version="1.0" encoding="UTF-8"?>
<!DOCTYPE svg PUBLIC "-//W3C//DTD SVG 1.1//EN" "http://www.w3.org/Graphics/SVG/1.1/DTD/svg11.dtd">
<svg xmlns="http://www.w3.org/2000/svg" xml:space="preserve" width="1024px" height="1024px" shape-rendering="geometricPrecision" text-rendering="geometricPrecision" image-rendering="optimizeQuality" fill-rule="nonzero" clip-rule="evenodd" viewBox="0 0 10240 10240" xmlns:xlink="http://www.w3.org/1999/xlink">
	<title>objects icon</title>
	<desc>objects icon from the IconExperience.com O-Collection. Copyright by INCORS GmbH (www.incors.com).</desc>
	<path id="curve2" fill="#808080" d="M4160 1920c1082,0 1985,767 2194,1787l-761 1243 -988 -494c608,-684 673,-1896 -510,-1896 -840,0 -1523,675 -1535,1513l-629 315c-7,-75 -11,-151 -11,-228 0,-1237 1003,-2240 2240,-2240z"/>
	<path id="curve1" fill="#808080" d="M9533 7272c40,57 67,123 67,195 0,471 -1146,853 -2560,853 -345,0 -673,-23 -973,-64 9,-46 13,-93 13,-142l0 -502c318,49 646,68 960,68 19,0 39,0 58,0 206,-2 382,-90 506,-254 124,-164 161,-357 107,-555l-671 -2445 -960 1568 0 -339c0,-205 -80,-393 -219,-530l997 -1628c40,-65 106,-102 182,-102 76,0 142,37 182,102l2311 3775z"/>
	<path id="curve0" fill="#808080" d="M876 5273l2133 -1066c124,-62 258,-62 382,0l2133 1066c148,74 236,216 236,382l0 2459c0,166 -88,308 -236,382l-2133 1066c-124,62 -258,62 -382,0l-2133 -1066c-148,-74 -236,-216 -236,-382l0 -2459c0,-166 88,-308 236,-382zm404 794l0 1915 1600 800 0 -1915 -1600 -800zm1920 248l1488 -744 -1488 -744 -1488 744 1488 744z"/>
</svg>
