<?xml version="1.0" encoding="UTF-8"?>
<!DOCTYPE svg PUBLIC "-//W3C//DTD SVG 1.1//EN" "http://www.w3.org/Graphics/SVG/1.1/DTD/svg11.dtd">
<svg xmlns="http://www.w3.org/2000/svg" xml:space="preserve" width="1024px" height="1024px" shape-rendering="geometricPrecision" text-rendering="geometricPrecision" image-rendering="optimizeQuality" fill-rule="nonzero" clip-rule="evenodd" viewBox="0 0 10240 10240" xmlns:xlink="http://www.w3.org/1999/xlink">
	<title>object_cylinder icon</title>
	<desc>object_cylinder icon from the IconExperience.com O-Collection. Copyright by INCORS GmbH (www.incors.com).</desc>
	<path id="curve0" fill="#808080" d="M1920 2551c6,-414 411,-755 1064,-972 553,-185 1309,-299 2136,-299 827,0 1583,114 2136,299 653,217 1058,558 1064,972l0 5129c0,418 -406,762 -1064,981 -553,185 -1309,299 -2136,299 -827,0 -1583,-114 -2136,-299 -658,-219 -1064,-563 -1064,-981l0 -5129zm3840 5745l0 -4479c-207,15 -421,23 -640,23 -782,0 -1850,-105 -2560,-475l0 4315c0,112 238,248 624,376 488,163 1172,264 1936,264 221,0 435,-8 640,-24zm-2576 -5360c488,163 1172,264 1936,264 764,0 1448,-101 1936,-264 154,-51 624,-214 624,-376 0,-112 -238,-248 -624,-376 -488,-163 -1172,-264 -1936,-264 -764,0 -1448,101 -1936,264 -386,128 -624,264 -624,376 0,162 470,325 624,376z"/>
</svg>
