<?xml version="1.0" encoding="UTF-8"?>
<!DOCTYPE svg PUBLIC "-//W3C//DTD SVG 1.1//EN" "http://www.w3.org/Graphics/SVG/1.1/DTD/svg11.dtd">
<svg xmlns="http://www.w3.org/2000/svg" xml:space="preserve" width="1024px" height="1024px" shape-rendering="geometricPrecision" text-rendering="geometricPrecision" image-rendering="optimizeQuality" fill-rule="nonzero" clip-rule="evenodd" viewBox="0 0 10240 10240" xmlns:xlink="http://www.w3.org/1999/xlink">
	<title>objects2 icon</title>
	<desc>objects2 icon from the IconExperience.com O-Collection. Copyright by INCORS GmbH (www.incors.com).</desc>
	<path id="curve1" fill="#808080" d="M4076 4944l2133 -1066c124,-62 258,-62 382,0l2133 1066c148,74 236,216 236,382l0 2459c0,166 -88,308 -236,382l-2133 1066c-124,63 -258,63 -382,0l-2133 -1066c-148,-74 -236,-216 -236,-382l0 -2459c0,-166 88,-308 236,-382zm404 794l0 1915 1600 800 0 -1915 -1600 -800zm1920 248l1488 -744 -1488 -744 -1488 744 1488 744z"/>
	<path id="curve0" fill="#808080" d="M2880 1920c1205,0 2188,952 2238,2145l-1185 593c-257,128 -413,381 -413,668l0 981c-203,60 -418,93 -640,93 -1237,0 -2240,-1003 -2240,-2240 0,-1237 1003,-2240 2240,-2240zm373 2613c674,-666 791,-1973 -438,-1973 -848,0 -1535,687 -1535,1535 0,1229 1299,1103 1973,438z"/>
</svg>
