<?xml version="1.0" encoding="UTF-8"?>
<!DOCTYPE svg PUBLIC "-//W3C//DTD SVG 1.1//EN" "http://www.w3.org/Graphics/SVG/1.1/DTD/svg11.dtd">
<svg xmlns="http://www.w3.org/2000/svg" xml:space="preserve" width="1024px" height="1024px" shape-rendering="geometricPrecision" text-rendering="geometricPrecision" image-rendering="optimizeQuality" fill-rule="nonzero" clip-rule="evenodd" viewBox="0 0 10240 10240" xmlns:xlink="http://www.w3.org/1999/xlink">
	<title>object_alignment_center icon</title>
	<desc>object_alignment_center icon from the IconExperience.com O-Collection. Copyright by INCORS GmbH (www.incors.com).</desc>
	<path id="curve3" fill="#4D82B8" d="M640 4800l0 640 1600 0 0 -640 -1600 0zm7360 0l0 640 1600 0 0 -640 -1600 0z"/>
	<path id="curve2" fill="#4D82B8" d="M4800 8640l640 0 0 960 -640 0 0 -960zm0 -8000l640 0 0 960 -640 0 0 -960z"/>
	<path id="curve1" fill="#808080" d="M2560 1920l0 6400 5120 0 0 -6400 -5120 0zm640 5760l0 -5120 3840 0 0 5120 -3840 0z"/>
	<path id="curve0" fill="#808080" d="M3840 3200l0 3840 2560 0 0 -3840 -2560 0zm640 3200l0 -2560 1280 0 0 2560 -1280 0z"/>
</svg>
