<?xml version="1.0" encoding="UTF-8"?>
<!DOCTYPE svg PUBLIC "-//W3C//DTD SVG 1.1//EN" "http://www.w3.org/Graphics/SVG/1.1/DTD/svg11.dtd">
<svg xmlns="http://www.w3.org/2000/svg" xml:space="preserve" width="1024px" height="1024px" shape-rendering="geometricPrecision" text-rendering="geometricPrecision" image-rendering="optimizeQuality" fill-rule="nonzero" clip-rule="evenodd" viewBox="0 0 10240 10240" xmlns:xlink="http://www.w3.org/1999/xlink">
	<title>object_cone icon</title>
	<desc>object_cone icon from the IconExperience.com O-Collection. Copyright by INCORS GmbH (www.incors.com).</desc>
	<path id="curve0" fill="#808080" d="M8859 7388c61,86 101,184 101,292 0,707 -1719,1280 -3840,1280 -2121,0 -3840,-573 -3840,-1280 0,-108 40,-206 100,-292l3467 -5662c60,-98 158,-153 273,-153 115,0 213,55 273,153l3466 5662zm-3739 -4882l-3160 5161c194,166 711,335 885,383 721,199 1529,270 2275,270 195,0 394,-5 595,-16 196,-10 361,-98 478,-255 118,-157 156,-340 111,-531l-1184 -5012z"/>
</svg>
