<?xml version="1.0" encoding="UTF-8"?>
<!DOCTYPE svg PUBLIC "-//W3C//DTD SVG 1.1//EN" "http://www.w3.org/Graphics/SVG/1.1/DTD/svg11.dtd">
<svg xmlns="http://www.w3.org/2000/svg" xml:space="preserve" width="1024px" height="1024px" shape-rendering="geometricPrecision" text-rendering="geometricPrecision" image-rendering="optimizeQuality" fill-rule="nonzero" clip-rule="evenodd" viewBox="0 0 10240 10240" xmlns:xlink="http://www.w3.org/1999/xlink">
	<title>object_alignment_top icon</title>
	<desc>object_alignment_top icon from the IconExperience.com O-Collection. Copyright by INCORS GmbH (www.incors.com).</desc>
	<path id="curve2" fill="#4D82B8" d="M8640 1920l0 640 960 0 0 -640 -960 0zm-8000 0l0 640 960 0 0 -640 -960 0z"/>
	<path id="curve1" fill="#808080" d="M1920 1920l0 6400 3200 0 0 -6400 -3200 0zm640 5760l0 -5120 1920 0 0 5120 -1920 0z"/>
	<path id="curve0" fill="#808080" d="M5760 1920l0 3840 2560 0 0 -3840 -2560 0zm640 3200l0 -2560 1280 0 0 2560 -1280 0z"/>
</svg>
