<?xml version="1.0" encoding="UTF-8"?>
<!DOCTYPE svg PUBLIC "-//W3C//DTD SVG 1.1//EN" "http://www.w3.org/Graphics/SVG/1.1/DTD/svg11.dtd">
<svg xmlns="http://www.w3.org/2000/svg" xml:space="preserve" width="1024px" height="1024px" shape-rendering="geometricPrecision" text-rendering="geometricPrecision" image-rendering="optimizeQuality" fill-rule="nonzero" clip-rule="evenodd" viewBox="0 0 10240 10240" xmlns:xlink="http://www.w3.org/1999/xlink">
	<title>object_alignment_right icon</title>
	<desc>object_alignment_right icon from the IconExperience.com O-Collection. Copyright by INCORS GmbH (www.incors.com).</desc>
	<path id="curve2" fill="#4D82B8" d="M8320 8640l-640 0 0 960 640 0 0 -960zm0 -8000l-640 0 0 960 640 0 0 -960z"/>
	<path id="curve1" fill="#808080" d="M8320 1920l-6400 0 0 3200 6400 0 0 -3200zm-5760 640l5120 0 0 1920 -5120 0 0 -1920z"/>
	<path id="curve0" fill="#808080" d="M8320 5760l-3840 0 0 2560 3840 0 0 -2560zm-3200 640l2560 0 0 1280 -2560 0 0 -1280z"/>
</svg>
