<?xml version="1.0" encoding="UTF-8"?>
<!DOCTYPE svg PUBLIC "-//W3C//DTD SVG 1.1//EN" "http://www.w3.org/Graphics/SVG/1.1/DTD/svg11.dtd">
<svg xmlns="http://www.w3.org/2000/svg" xml:space="preserve" width="1024px" height="1024px" shape-rendering="geometricPrecision" text-rendering="geometricPrecision" image-rendering="optimizeQuality" fill-rule="nonzero" clip-rule="evenodd" viewBox="0 0 10240 10240" xmlns:xlink="http://www.w3.org/1999/xlink">
	<title>objects4 icon</title>
	<desc>objects4 icon from the IconExperience.com O-Collection. Copyright by INCORS GmbH (www.incors.com).</desc>
	<path id="curve1" fill="#808080" d="M3520 2560c1237,0 2240,1003 2240,2240 0,72 -3,144 -10,214l-1025 1675c-348,222 -761,351 -1205,351 -1237,0 -2240,-1003 -2240,-2240 0,-1237 1003,-2240 2240,-2240zm373 2613c674,-666 791,-1973 -438,-1973 -848,0 -1535,687 -1535,1535 0,1229 1299,1103 1973,438z"/>
	<path id="curve0" fill="#808080" d="M9533 7592c40,57 67,123 67,195 0,471 -1146,853 -2560,853 -1414,0 -2560,-382 -2560,-853 0,-72 27,-137 67,-195l2311 -3775c40,-65 106,-102 182,-102 76,0 142,37 182,102l2311 3775zm-1822 -401l-671 -2445 -1811 2958c149,67 347,124 438,146 440,110 921,150 1373,150 19,0 39,0 58,0 206,-2 382,-90 506,-254 124,-164 161,-357 107,-555z"/>
</svg>
