<?xml version="1.0" encoding="UTF-8"?>
<!DOCTYPE svg PUBLIC "-//W3C//DTD SVG 1.1//EN" "http://www.w3.org/Graphics/SVG/1.1/DTD/svg11.dtd">
<svg xmlns="http://www.w3.org/2000/svg" xml:space="preserve" width="1024px" height="1024px" shape-rendering="geometricPrecision" text-rendering="geometricPrecision" image-rendering="optimizeQuality" fill-rule="nonzero" clip-rule="evenodd" viewBox="0 0 10240 10240" xmlns:xlink="http://www.w3.org/1999/xlink">
	<title>office_building icon</title>
	<desc>office_building icon from the IconExperience.com O-Collection. Copyright by INCORS GmbH (www.incors.com).</desc>
	<path id="curve2" fill="#4D82B8" d="M6080,8000 7360,8000 7360,9600 6080,9600z"/>
	<path id="curve1" fill="#808080" d="M4160 5120l5120 0c176,0 320,144 320,320l0 4160 -1920 0 0 -1920 -1920 0 0 1920 -1920 0 0 -4160c0,-176 144,-320 320,-320zm320 2560l0 1280 640 0 0 -1280 -640 0zm2 -1928l0 1280 640 0 0 -1280 -640 0zm1280 0l0 1280 640 0 0 -1280 -640 0zm1280 0l0 1280 640 0 0 -1280 -640 0zm1280 0l0 1280 640 0 0 -1280 -640 0zm-2 1928l0 1280 640 0 0 -1280 -640 0z"/>
	<path id="curve0" fill="#808080" d="M960 640l5120 0c176,0 320,144 320,320l0 3840 -2240 0c-353,0 -640,287 -640,640l0 4160 -2880 0 0 -8640c0,-176 144,-320 320,-320zm320 4480l0 1280 640 0 0 -1280 -640 0zm3840 -1920l0 1280 640 0 0 -1280 -640 0zm-1280 0l0 1280 640 0 0 -1280 -640 0zm-1280 0l0 1280 640 0 0 -1280 -640 0zm-1280 0l0 1280 640 0 0 -1280 -640 0zm3840 -1920l0 1280 640 0 0 -1280 -640 0zm-1280 0l0 1280 640 0 0 -1280 -640 0zm-1280 0l0 1280 640 0 0 -1280 -640 0zm-1280 0l0 1280 640 0 0 -1280 -640 0zm1280 5760l0 1280 640 0 0 -1280 -640 0zm-1280 0l0 1280 640 0 0 -1280 -640 0zm1280 -1920l0 1280 640 0 0 -1280 -640 0z"/>
</svg>
