<?xml version="1.0" encoding="UTF-8"?>
<!DOCTYPE svg PUBLIC "-//W3C//DTD SVG 1.1//EN" "http://www.w3.org/Graphics/SVG/1.1/DTD/svg11.dtd">
<svg xmlns="http://www.w3.org/2000/svg" xml:space="preserve" width="1024px" height="1024px" shape-rendering="geometricPrecision" text-rendering="geometricPrecision" image-rendering="optimizeQuality" fill-rule="nonzero" clip-rule="evenodd" viewBox="0 0 10240 10240" xmlns:xlink="http://www.w3.org/1999/xlink">
	<title>office_chair icon</title>
	<desc>office_chair icon from the IconExperience.com O-Collection. Copyright by INCORS GmbH (www.incors.com).</desc>
	<path id="curve3" fill="#808080" d="M3040 8960c265,0 480,215 480,480 0,265 -215,480 -480,480 -265,0 -480,-215 -480,-480 0,-265 215,-480 480,-480zm4160 0c265,0 480,215 480,480 0,265 -215,480 -480,480 -265,0 -480,-215 -480,-480 0,-265 215,-480 480,-480zm-2080 0c265,0 480,215 480,480 0,265 -215,480 -480,480 -265,0 -480,-215 -480,-480 0,-265 215,-480 480,-480z"/>
	<path id="curve2" fill="#808080" d="M4800 7360l640 0 0 320 1701 567c133,44 219,163 219,304l0 89 -320 0 -1600 -320 0 320 -640 0 0 -320 -1600 320 -320 0 0 -89c0,-141 86,-260 219,-304l1701 -567 0 -320z"/>
	<path id="curve1" fill="#4D82B8" d="M2880 2560c0,-640 320,-1920 2240,-1920 1920,0 2240,1280 2240,1920l-320 2560c-44,350 -288,640 -640,640l-2560 0c-352,0 -596,-290 -640,-640l-320 -2560z"/>
	<path id="curve0" fill="#4D82B8" d="M8000 4160l0 0c176,0 320,144 320,320 0,427 0,853 0,1280 0,705 -575,1280 -1280,1280l-3840 0c-705,0 -1280,-575 -1280,-1280 0,-427 0,-853 0,-1280 0,-176 144,-320 320,-320l0 0c176,0 320,144 320,320l0 960c0,352 287,640 640,640l3840 0c353,0 640,-288 640,-640l0 -960c0,-176 144,-320 320,-320z"/>
</svg>
