<?xml version="1.0" encoding="UTF-8"?>
<!DOCTYPE svg PUBLIC "-//W3C//DTD SVG 1.1//EN" "http://www.w3.org/Graphics/SVG/1.1/DTD/svg11.dtd">
<svg xmlns="http://www.w3.org/2000/svg" xml:space="preserve" width="1024px" height="1024px" shape-rendering="geometricPrecision" text-rendering="geometricPrecision" image-rendering="optimizeQuality" fill-rule="nonzero" clip-rule="evenodd" viewBox="0 0 10240 10240" xmlns:xlink="http://www.w3.org/1999/xlink">
	<title>oil_pump icon</title>
	<desc>oil_pump icon from the IconExperience.com O-Collection. Copyright by INCORS GmbH (www.incors.com).</desc>
	<path id="curve1" fill="#808080" d="M3496 9400c-67,163 -253,241 -416,174 -163,-67 -241,-254 -174,-417l2240 -5440c67,-163 254,-240 417,-173 82,33 142,97 173,173l0 0 2240 5440c67,163 -11,350 -173,417 -163,67 -350,-11 -417,-174l-393 -956 -3428 789 -69 167zm3149 -1801l-371 -901 -1162 456 1533 445zm-813 -1975l-391 -948 -234 569 625 379zm-870 217l-337 818 1023 -401 -686 -417zm-711 1727l-388 941 2024 -466 -1636 -475z"/>
	<path id="curve0" fill="#76A797" d="M3227 4610l1421 -523 -331 804 -869 319 110 301c61,165 -24,350 -190,410l-1501 552c-166,61 -350,-24 -411,-190l-442 -1201c-61,-165 25,-350 190,-411l1502 -552c165,-61 350,25 411,190l110 301zm2799 -1029l2594 -953c-113,-240 -249,-460 -406,-660 -228,-292 -498,-542 -798,-745 -145,-99 -184,-297 -85,-443 99,-146 297,-184 443,-85 355,240 674,536 943,880 261,334 475,712 628,1127 152,416 234,842 252,1266 17,436 -35,869 -149,1281 -48,170 -224,269 -393,222 -170,-47 -269,-223 -222,-393 97,-348 141,-714 126,-1084 -10,-253 -49,-510 -118,-766l-2571 945 -238 -577c-2,-5 -4,-10 -6,-15z"/>
</svg>
