<?xml version="1.0" encoding="UTF-8"?>
<!DOCTYPE svg PUBLIC "-//W3C//DTD SVG 1.1//EN" "http://www.w3.org/Graphics/SVG/1.1/DTD/svg11.dtd">
<svg xmlns="http://www.w3.org/2000/svg" xml:space="preserve" width="1024px" height="1024px" shape-rendering="geometricPrecision" text-rendering="geometricPrecision" image-rendering="optimizeQuality" fill-rule="nonzero" clip-rule="evenodd" viewBox="0 0 10240 10240" xmlns:xlink="http://www.w3.org/1999/xlink">
	<title>oil_platform icon</title>
	<desc>oil_platform icon from the IconExperience.com O-Collection. Copyright by INCORS GmbH (www.incors.com).</desc>
	<path id="curve5" fill="#4D82B8" d="M1760 8320c218,394 639,660 1120,660 481,0 897,-264 1117,-654 218,394 640,654 1123,654 483,0 903,-262 1120,-659 219,393 638,659 1120,659 482,0 902,-266 1120,-660 218,394 638,660 1120,660l0 640c-410,0 -799,-130 -1120,-360 -321,230 -710,360 -1120,360 -408,0 -797,-129 -1117,-358 -321,233 -711,358 -1123,358 -411,0 -805,-124 -1126,-356 -320,228 -707,356 -1114,356 -410,0 -799,-130 -1120,-360 -321,230 -710,360 -1120,360l0 -640c482,0 902,-266 1120,-660z"/>
	<path id="curve4" fill="#808080" d="M3840 6400l0 1646c-50,28 -92,70 -122,123 -117,207 -302,360 -518,436l0 -2205 -2560 0 0 -640 8960 0 0 640 -2560 0 0 2205c-218,-77 -404,-231 -520,-440 -29,-53 -71,-95 -120,-123l0 -1642 -2560 0z"/>
	<path id="curve3" fill="#808080" d="M3840,960 4480,320 5120,960 5440,4800 5440,5440 3520,5440 3520,4800z"/>
	<path id="curve2" fill="#808080" d="M8960,3200 8960,5440 8320,5440 8320,4160 7040,4160 7040,3200 6400,3200 6400,2560 9600,2560 9600,3200z"/>
	<path id="curve1" fill="#808080" d="M5760,4480 8000,4480 8000,5440 5760,5440z"/>
	<path id="curve0" fill="#808080" d="M1280,3200 3200,3200 3200,5440 1280,5440z"/>
</svg>
