<?xml version="1.0" encoding="UTF-8"?>
<!DOCTYPE svg PUBLIC "-//W3C//DTD SVG 1.1//EN" "http://www.w3.org/Graphics/SVG/1.1/DTD/svg11.dtd">
<svg xmlns="http://www.w3.org/2000/svg" xml:space="preserve" width="1024px" height="1024px" shape-rendering="geometricPrecision" text-rendering="geometricPrecision" image-rendering="optimizeQuality" fill-rule="nonzero" clip-rule="evenodd" viewBox="0 0 10240 10240" xmlns:xlink="http://www.w3.org/1999/xlink">
	<title>orange icon</title>
	<desc>orange icon from the IconExperience.com O-Collection. Copyright by INCORS GmbH (www.incors.com).</desc>
	<path id="curve1" fill="#808080" d="M6779 4324l-90 180 -89 -180c-95,-192 -280,-327 -492,-358l-201 -29 145 -141c154,-151 224,-367 188,-580l-34 -198 179 94c188,98 421,98 609,0l178 -94 -34 198c-36,213 34,429 188,580l145 141 -200 29c-212,31 -397,165 -492,358z"/>
	<path id="curve0" fill="#ED9A56" d="M5120 640c2474,0 4480,2006 4480,4480 0,2474 -2006,4480 -4480,4480 -2474,0 -4480,-2006 -4480,-4480 0,-2474 2006,-4480 4480,-4480zm1855 4005c52,-104 98,-233 194,-302 96,-70 233,-74 347,-90 68,-10 133,-41 184,-93 123,-127 120,-329 -6,-452 -84,-81 -192,-165 -229,-277 -36,-112 3,-246 22,-361 12,-69 0,-139 -32,-201 -83,-156 -276,-216 -432,-134 -105,56 -212,131 -334,131 -121,0 -223,-73 -328,-128 -61,-33 -133,-48 -207,-35 -174,29 -292,193 -263,367 20,115 59,249 22,361 -36,111 -137,188 -219,268 -54,48 -92,115 -103,193 -25,175 97,336 271,361 116,17 252,20 348,90 96,70 141,198 193,302 30,61 79,113 145,145 158,78 349,13 427,-145zm-4960 1253c-64,-254 -95,-517 -95,-778 0,-884 358,-1684 937,-2263 579,-579 1379,-937 2263,-937 261,0 524,31 778,95 171,42 344,-63 386,-234 42,-171 -63,-344 -234,-386 -305,-77 -615,-115 -930,-115 -1060,0 -2020,430 -2715,1125 -695,695 -1125,1655 -1125,2715 0,315 38,625 115,930 42,171 215,276 386,234 171,-42 276,-215 234,-386z"/>
</svg>
