<?xml version="1.0" encoding="UTF-8"?>
<!DOCTYPE svg PUBLIC "-//W3C//DTD SVG 1.1//EN" "http://www.w3.org/Graphics/SVG/1.1/DTD/svg11.dtd">
<svg xmlns="http://www.w3.org/2000/svg" xml:space="preserve" width="1024px" height="1024px" shape-rendering="geometricPrecision" text-rendering="geometricPrecision" image-rendering="optimizeQuality" fill-rule="nonzero" clip-rule="evenodd" viewBox="0 0 10240 10240" xmlns:xlink="http://www.w3.org/1999/xlink">
	<title>pacemaker icon</title>
	<desc>pacemaker icon from the IconExperience.com O-Collection. Copyright by INCORS GmbH (www.incors.com).</desc>
	<path id="curve1" fill="#E68497" d="M5211 3840c1010,0 1829,825 1829,1843 0,1709 -1371,2535 -3200,3917 -1829,-1382 -3200,-2208 -3200,-3917 0,-1018 819,-1843 1829,-1843 546,0 1036,241 1371,624 335,-383 825,-624 1371,-624z"/>
	<path id="curve0" fill="#808080" d="M2560 3522l0 -1282c0,-882 718,-1600 1600,-1600l4480 0c529,0 960,431 960,960 0,529 -431,960 -960,960 -176,0 -320,144 -320,320l0 320c0,530 -430,960 -960,960 -530,0 -960,-430 -960,-960l0 -960c0,-176 144,-320 320,-320l1920 0c176,0 320,-144 320,-320 0,-176 -144,-320 -320,-320l-4480 0c-528,0 -960,432 -960,960l0 1409c-203,-74 -419,-118 -640,-127z"/>
</svg>
