<?xml version="1.0" encoding="UTF-8"?>
<!DOCTYPE svg PUBLIC "-//W3C//DTD SVG 1.1//EN" "http://www.w3.org/Graphics/SVG/1.1/DTD/svg11.dtd">
<svg xmlns="http://www.w3.org/2000/svg" xml:space="preserve" width="1024px" height="1024px" shape-rendering="geometricPrecision" text-rendering="geometricPrecision" image-rendering="optimizeQuality" fill-rule="nonzero" clip-rule="evenodd" viewBox="0 0 10240 10240" xmlns:xlink="http://www.w3.org/1999/xlink">
	<title>pacifier icon</title>
	<desc>pacifier icon from the IconExperience.com O-Collection. Copyright by INCORS GmbH (www.incors.com).</desc>
	<path id="curve2" fill="#808080" d="M8850 1390c1000,1000 1000,2620 0,3620 -340,340 -752,565 -1187,673 -109,-156 -222,-310 -337,-461 -24,-30 -47,-60 -71,-91 226,-81 437,-211 618,-392 655,-655 655,-1717 0,-2372 -655,-655 -1717,-655 -2372,0 -181,181 -311,392 -392,618 -31,-24 -61,-47 -91,-71 -151,-115 -305,-228 -461,-337 108,-435 333,-847 673,-1187 1000,-1000 2621,-1000 3620,0z"/>
	<path id="curve1" fill="#E68497" d="M3062 4650c-310,-206 -680,-450 -680,-450 -528,-305 -711,-979 -409,-1509 261,-534 1010,-704 1518,-411 469,270 914,568 1332,888 427,328 827,679 1199,1050 371,372 722,772 1050,1199 324,423 624,869 888,1332 304,527 123,1212 -406,1515 -528,305 -1210,124 -1514,-406 -139,-240 -286,-472 -441,-697 28,-51 55,-98 73,-127 132,-220 307,-461 484,-646 393,-413 255,-986 -18,-1422 -214,-341 -523,-650 -864,-864 -436,-273 -1009,-411 -1422,-18 -185,177 -426,352 -645,484 -33,20 -87,51 -145,82z"/>
	<path id="curve0" fill="#EDC87E" d="M5924 6167c-140,148 -359,424 -526,701 -115,191 -203,375 -216,502 -47,489 -262,943 -609,1290 -413,413 -955,620 -1496,620 -542,0 -1084,-207 -1497,-620 -639,-639 -620,-1497 -620,-1497 0,-820 473,-1564 1212,-1913 221,-105 458,-169 698,-192 127,-13 311,-101 502,-216 277,-167 553,-386 701,-526 262,-250 657,-176 1031,58 299,187 575,463 762,762 234,374 308,769 58,1031zm-1569 -1244c-202,172 -425,331 -652,467 -229,139 -500,279 -770,306 -166,16 -336,62 -487,133 -515,244 -846,764 -846,1334 0,177 143,320 320,320 177,0 320,-143 320,-320 0,-325 184,-617 478,-756 89,-42 178,-67 275,-76 372,-37 723,-202 1040,-393 258,-156 505,-332 734,-527 135,-114 152,-315 38,-450 -114,-135 -316,-151 -450,-38z"/>
</svg>
