<?xml version="1.0" encoding="UTF-8"?>
<!DOCTYPE svg PUBLIC "-//W3C//DTD SVG 1.1//EN" "http://www.w3.org/Graphics/SVG/1.1/DTD/svg11.dtd">
<svg xmlns="http://www.w3.org/2000/svg" xml:space="preserve" width="1024px" height="1024px" shape-rendering="geometricPrecision" text-rendering="geometricPrecision" image-rendering="optimizeQuality" fill-rule="nonzero" clip-rule="evenodd" viewBox="0 0 10240 10240" xmlns:xlink="http://www.w3.org/1999/xlink">
	<title>packaging_paper icon</title>
	<desc>packaging_paper icon from the IconExperience.com O-Collection. Copyright by INCORS GmbH (www.incors.com).</desc>
	<path id="curve0" fill="#808080" d="M2997 7680l523 0c803,0 993,-594 1211,-1275 148,-460 305,-952 633,-1395 513,-694 1305,-1120 2162,-1166l-1126 -965c-246,-210 -640,-319 -960,-319 -714,0 -1379,335 -1804,910 -264,357 -405,798 -537,1210 -277,865 -521,1625 -1605,1712l1503 1288zm3597 215l-1055 -879c35,-104 69,-211 104,-318 35,-110 71,-223 109,-334l330 275c42,-846 742,-1519 1598,-1519 530,0 960,430 960,960 0,530 -430,960 -960,960 -353,0 -640,-287 -640,-640 0,-348 277,-631 623,-640 -522,9 -943,435 -943,960 0,530 430,960 960,960 884,0 1600,-716 1600,-1600 0,-884 -716,-1600 -1600,-1600 -714,0 -1379,335 -1804,910 -169,228 -287,491 -385,756 -55,152 -104,305 -152,454 -21,66 -42,132 -63,196 -274,834 -579,1524 -1756,1524l-640 0c-88,0 -167,-35 -225,-93l-2205 -1890c-245,-181 -120,-577 190,-577l640 0c803,0 993,-594 1211,-1275 148,-460 305,-952 633,-1395 544,-736 1401,-1170 2316,-1170 445,0 1007,160 1349,452l2238 1918c562,424 893,1083 893,1790 0,1237 -1003,2240 -2240,2240 -419,0 -801,-161 -1086,-425z"/>
</svg>
