<?xml version="1.0" encoding="UTF-8"?>
<!DOCTYPE svg PUBLIC "-//W3C//DTD SVG 1.1//EN" "http://www.w3.org/Graphics/SVG/1.1/DTD/svg11.dtd">
<svg xmlns="http://www.w3.org/2000/svg" xml:space="preserve" width="1024px" height="1024px" shape-rendering="geometricPrecision" text-rendering="geometricPrecision" image-rendering="optimizeQuality" fill-rule="nonzero" clip-rule="evenodd" viewBox="0 0 10240 10240" xmlns:xlink="http://www.w3.org/1999/xlink">
	<title>packaging_tape icon</title>
	<desc>packaging_tape icon from the IconExperience.com O-Collection. Copyright by INCORS GmbH (www.incors.com).</desc>
	<path id="curve1" fill="#B89A7C" d="M7679 5227c14,632 -220,1268 -702,1750 -482,482 -1118,716 -1750,702 -81,-57 -159,-122 -231,-195 -55,-54 -105,-111 -150,-170 666,142 1388,-46 1905,-563 517,-517 705,-1239 563,-1905 59,45 116,95 170,149 73,73 138,151 195,232z"/>
	<path id="curve0" fill="#B89A7C" d="M2904 7656c-1312,-1312 -1312,-3440 0,-4752 1312,-1312 3440,-1312 4752,0l960 960c1312,1312 1312,3440 0,4752 -615,615 -1410,942 -2216,980l0 4 -1663 0 -1537 0 -960 0 -1920 -1920 2160 0c67,67 131,135 198,202l960 960c40,41 81,80 123,118l506 0c-141,-102 -276,-217 -403,-344l-960 -960zm1865 -2887c-812,813 -812,2129 0,2942 813,812 2129,812 2942,0 812,-813 812,-2129 0,-2942 -813,-812 -2129,-812 -2942,0z"/>
</svg>
