<?xml version="1.0" encoding="UTF-8"?>
<!DOCTYPE svg PUBLIC "-//W3C//DTD SVG 1.1//EN" "http://www.w3.org/Graphics/SVG/1.1/DTD/svg11.dtd">
<svg xmlns="http://www.w3.org/2000/svg" xml:space="preserve" width="1024px" height="1024px" shape-rendering="geometricPrecision" text-rendering="geometricPrecision" image-rendering="optimizeQuality" fill-rule="nonzero" clip-rule="evenodd" viewBox="0 0 10240 10240" xmlns:xlink="http://www.w3.org/1999/xlink">
	<title>package icon</title>
	<desc>package icon from the IconExperience.com O-Collection. Copyright by INCORS GmbH (www.incors.com).</desc>
	<path id="curve0" fill="#808080" d="M1634 3023l3200 -1600c186,-93 386,-93 572,0l3200 1600c222,111 354,324 354,573l0 3688c0,249 -132,462 -354,573l-3200 1600c-186,93 -386,93 -572,0l-3200 -1600c-222,-111 -354,-324 -354,-573l0 -3688c0,-249 132,-462 354,-573zm286 853l0 1546 1280 640 0 -1546 -1280 -640zm0 1902l0 1506 1280 640 0 -1506 -1280 -640zm1600 2306l1280 640 0 -1506 -1280 -640 0 1506zm1280 -1222l0 -1546 -1280 -640 0 1546 1280 640zm640 1862l1280 -640 0 -1506 -1280 640 0 1506zm1280 -2502l0 -1546 -1280 640 0 1546 1280 -640zm320 1702l1280 -640 0 -1506 -1280 640 0 1506zm1280 -2502l0 -1546 -1280 640 0 1546 1280 -640zm-3200 -658l1226 -613 -1226 -613 -1226 613 1226 613zm1582 -791l1186 -593 -1225 -613 -1187 593 1226 613zm-396 -1384l-1186 -593 -1186 593 1186 593 1186 -593zm-2729 178l-1225 613 1186 593 1226 -613 -1187 -593z"/>
</svg>
