<?xml version="1.0" encoding="UTF-8"?>
<!DOCTYPE svg PUBLIC "-//W3C//DTD SVG 1.1//EN" "http://www.w3.org/Graphics/SVG/1.1/DTD/svg11.dtd">
<svg xmlns="http://www.w3.org/2000/svg" xml:space="preserve" width="1024px" height="1024px" shape-rendering="geometricPrecision" text-rendering="geometricPrecision" image-rendering="optimizeQuality" fill-rule="nonzero" clip-rule="evenodd" viewBox="0 0 10240 10240" xmlns:xlink="http://www.w3.org/1999/xlink">
	<title>pagoda icon</title>
	<desc>pagoda icon from the IconExperience.com O-Collection. Copyright by INCORS GmbH (www.incors.com).</desc>
	<path id="curve3" fill="#808080" d="M7680,7040 7680,9600 5760,9600 5760,7680 4480,7680 4480,9600 2560,9600 2560,7040z"/>
	<path id="curve2" fill="#76A797" d="M640 5120l932 373c427,171 876,111 1243,-165l278 -208 4054 0 278 208c367,276 816,336 1243,165l932 -373 0 640 -960 960c-2347,0 -4693,0 -7040,0l-960 -960 0 -640z"/>
	<path id="curve1" fill="#76A797" d="M1280 3200l932 373c427,171 876,111 1243,-165l278 -208 2774 0 278 208c367,276 816,336 1243,165l932 -373 0 640 -960 960c-2347,0 -3413,0 -5760,0l-960 -960 0 -640z"/>
	<path id="curve0" fill="#76A797" d="M1920 1280l932 373c427,171 876,111 1243,-165l1025 -848 1025 848c367,276 816,336 1243,165l932 -373 0 640 -960 960c-2347,0 -2133,0 -4480,0l-960 -960 0 -640z"/>
</svg>
