<?xml version="1.0" encoding="UTF-8"?>
<!DOCTYPE svg PUBLIC "-//W3C//DTD SVG 1.1//EN" "http://www.w3.org/Graphics/SVG/1.1/DTD/svg11.dtd">
<svg xmlns="http://www.w3.org/2000/svg" xml:space="preserve" width="1024px" height="1024px" shape-rendering="geometricPrecision" text-rendering="geometricPrecision" image-rendering="optimizeQuality" fill-rule="nonzero" clip-rule="evenodd" viewBox="0 0 10240 10240" xmlns:xlink="http://www.w3.org/1999/xlink">
	<title>paint_brush icon</title>
	<desc>paint_brush icon from the IconExperience.com O-Collection. Copyright by INCORS GmbH (www.incors.com).</desc>
	<path id="curve2" fill="#ED9A56" d="M2240 6720l321 0c4,901 48,1920 449,1920 330,0 446,-401 487,-858 2,-20 18,-35 39,-36 20,-1 37,13 41,32 76,417 244,742 583,742 248,0 495,-503 595,-1176 3,-20 20,-34 40,-34 20,0 37,15 39,35 68,563 248,968 606,975 230,5 461,-163 572,-377 8,-16 26,-25 43,-21 18,4 31,18 32,36 23,294 117,620 503,602 270,-12 378,-455 421,-873 2,-19 18,-34 37,-36 20,-1 37,12 42,31 68,288 57,408 271,408 248,0 305,-729 316,-1370l323 0c116,0 226,-31 320,-86l0 2326 0 320c0,176 -144,320 -320,320 -1920,0 -3840,0 -5760,0 -176,0 -320,-144 -320,-320l0 -320 0 -2326c94,55 204,86 320,86z"/>
	<path id="curve1" fill="#808080" d="M1920 5760l6400 0 0 320c0,176 -144,320 -320,320l-5760 0c-176,0 -320,-144 -320,-320l0 -320z"/>
	<path id="curve0" fill="#808080" d="M2560 4480c960,0 1600,-255 1600,-960 0,-960 -320,-960 -320,-1920 0,-960 640,-1280 1280,-1280 640,0 1280,320 1280,1280 0,960 -320,960 -320,1920 0,705 640,960 1600,960 353,0 640,288 640,640l0 320 -6400 0 0 -320c0,-353 287,-640 640,-640zm2560 -3520c-353,0 -640,287 -640,640 0,353 287,640 640,640 353,0 640,-287 640,-640 0,-353 -287,-640 -640,-640z"/>
</svg>
