<?xml version="1.0" encoding="UTF-8"?>
<!DOCTYPE svg PUBLIC "-//W3C//DTD SVG 1.1//EN" "http://www.w3.org/Graphics/SVG/1.1/DTD/svg11.dtd">
<svg xmlns="http://www.w3.org/2000/svg" xml:space="preserve" width="1024px" height="1024px" shape-rendering="geometricPrecision" text-rendering="geometricPrecision" image-rendering="optimizeQuality" fill-rule="nonzero" clip-rule="evenodd" viewBox="0 0 10240 10240" xmlns:xlink="http://www.w3.org/1999/xlink">
	<title>painters_palette_brush icon</title>
	<desc>painters_palette_brush icon from the IconExperience.com O-Collection. Copyright by INCORS GmbH (www.incors.com).</desc>
	<path id="curve3" fill="#808080" d="M7559 8114c912,-909 1354,-2075 1397,-3207 -242,329 -491,650 -755,963 -66,79 -134,158 -202,236 -11,144 -119,261 -258,288 -23,25 -46,51 -69,76 5,29 8,59 8,90 0,99 -30,191 -81,267 50,57 81,131 81,213 0,177 -143,320 -320,320 -150,0 -277,-104 -311,-244 -28,28 -56,56 -84,84 -263,260 -524,515 -829,726 -36,25 -75,42 -115,51 37,52 59,116 59,185 0,176 -143,320 -320,320 -14,0 -28,-1 -41,-3 -33,94 -122,161 -226,161 -23,0 -44,-3 -65,-9 -7,52 -18,104 -32,156 -76,278 -234,511 -440,692 918,-188 1847,-611 2603,-1365zm-1479 -5714c0,-57 10,-111 28,-161 -9,1 -19,1 -28,1 -177,0 -320,-143 -320,-320 0,-177 143,-320 320,-320 177,0 320,143 320,320 0,9 0,19 -1,28 50,-18 104,-28 161,-28 99,0 191,30 267,81 57,-50 131,-81 213,-81 177,0 320,143 320,320 0,177 -143,320 -320,320 -9,0 -18,0 -27,-1 -6,16 -12,32 -20,48 29,29 47,69 47,113 0,23 -5,46 -14,66 9,30 14,61 14,94 0,177 -143,320 -320,320 -177,0 -320,-143 -320,-320 0,-9 0,-18 1,-27 -16,-6 -32,-12 -48,-20 -29,29 -69,47 -113,47 -88,0 -160,-72 -160,-160 0,-44 18,-84 47,-113 -30,-63 -47,-133 -47,-207zm-1758 -668l0 0c0,-177 143,-320 320,-320 176,0 320,143 320,320 0,14 -1,27 -3,41 94,32 161,121 161,226 0,132 -107,239 -239,239 -114,0 -210,-80 -234,-186l-5 0 0 0c0,176 -144,320 -320,320 -177,0 -320,-144 -320,-320 -177,0 -320,-144 -320,-320 0,-127 73,-236 179,-288l0 -4c0,-88 71,-160 160,-160 88,0 160,72 160,160 0,9 -1,17 -2,25 86,58 143,155 143,267zm-157 5313c4,-21 10,-42 18,-63 44,-116 95,-229 154,-338 33,-60 82,-106 139,-135 0,-64 20,-127 60,-183 213,-300 470,-557 731,-815 429,-424 871,-836 1332,-1225 148,-125 298,-248 449,-368 -5,-23 -8,-47 -8,-72 0,-177 143,-320 320,-320 54,0 106,13 150,37 79,-59 158,-117 238,-175 266,-194 535,-383 805,-573 -268,-580 -664,-1078 -1171,-1432 -1899,-1324 -4979,-961 -6343,1756 -1218,2425 939,1454 1111,2516 207,1269 -2734,1425 -912,3205 159,155 389,296 671,411 338,-147 440,-378 553,-727 131,-406 233,-747 542,-1063 246,-252 593,-412 944,-437 74,-6 146,-5 217,1zm40 -1572c-372,378 -980,383 -1358,12 -378,-372 -383,-980 -12,-1358 372,-378 980,-383 1358,-12 378,372 383,980 12,1358z"/>
	<path id="curve2" fill="#EDC87E" d="M4802 7705c784,865 1,1895 -1045,1895 -784,0 -849,0 -1808,0 542,-199 690,-565 817,-958 103,-319 192,-656 467,-937 364,-373 1080,-539 1569,0z"/>
	<path id="curve1" fill="#808080" d="M4619 6796c-51,95 -97,194 -137,299 207,78 395,206 553,378 138,152 249,321 321,503 109,-40 212,-86 309,-137 -83,-200 -209,-398 -382,-588 -193,-209 -420,-360 -664,-455z"/>
	<path id="curve0" fill="#808080" d="M9834 2708c-21,-21 -42,-42 -63,-62 -103,-102 -262,-115 -380,-30 -1424,1016 -2312,1554 -3899,3123 -246,243 -492,487 -695,772 269,113 520,285 734,518 187,204 326,418 423,634 291,-201 538,-446 786,-690 1587,-1570 2096,-2481 3124,-3889 86,-117 73,-275 -30,-376z"/>
</svg>
