<?xml version="1.0" encoding="UTF-8"?>
<!DOCTYPE svg PUBLIC "-//W3C//DTD SVG 1.1//EN" "http://www.w3.org/Graphics/SVG/1.1/DTD/svg11.dtd">
<svg xmlns="http://www.w3.org/2000/svg" xml:space="preserve" width="1024px" height="1024px" shape-rendering="geometricPrecision" text-rendering="geometricPrecision" image-rendering="optimizeQuality" fill-rule="nonzero" clip-rule="evenodd" viewBox="0 0 10240 10240" xmlns:xlink="http://www.w3.org/1999/xlink">
	<title>painters_palette2 icon</title>
	<desc>painters_palette2 icon from the IconExperience.com O-Collection. Copyright by INCORS GmbH (www.incors.com).</desc>
	<path id="curve6" fill="#808080" d="M7559 8114c2056,-2050 1722,-5407 -177,-6731 -1657,-1155 -4182,-1063 -5745,831 -920,1116 -997,2266 604,2266 914,0 1409,1294 324,1864 -1294,679 -2639,1233 -1327,2516 929,907 4265,1304 6321,-746zm-452 -453c-838,836 -1983,1253 -3154,1296 -616,22 -1800,-98 -2268,-555 -67,-66 -372,-389 -343,-505 70,-280 1264,-852 1520,-987 831,-436 1230,-1369 771,-2228 -276,-517 -804,-842 -1392,-842 -101,0 -548,-23 -606,-140 -35,-70 12,-246 35,-313 92,-271 280,-546 461,-765 614,-745 1451,-1223 2414,-1331 862,-96 1758,120 2471,617 833,581 1249,1613 1299,2601 59,1172 -375,2322 -1208,3152z"/>
	<path id="curve5" fill="#ED9A56" d="M4000 7360c56,0 111,10 161,28 -1,-8 -1,-17 -1,-25 0,-175 143,-317 320,-317 177,0 320,142 320,317 0,57 -15,111 -42,158 27,47 42,101 42,159 0,177 -143,320 -320,320 -9,0 -18,0 -27,-1 -6,16 -12,32 -20,48 29,29 47,69 47,113 0,88 -72,160 -160,160 -44,0 -84,-18 -113,-47 -16,8 -32,14 -48,20 1,9 1,18 1,27 0,177 -143,320 -320,320 -177,0 -320,-143 -320,-320 0,-82 31,-156 81,-213 -22,-33 -41,-70 -54,-108 -9,1 -18,1 -27,1 -177,0 -320,-143 -320,-320 0,-177 143,-320 320,-320 56,0 108,14 154,39 -2,-8 -2,-18 -2,-27 0,-89 71,-162 160,-162 84,0 153,66 159,150l9 0z"/>
	<path id="curve4" fill="#E68497" d="M6080 7040l0 0c177,0 320,143 320,320 0,177 -143,320 -320,320 -14,0 -28,-1 -41,-3 -33,94 -122,161 -226,161 -133,0 -240,-107 -240,-239 0,-114 80,-209 187,-233l0 -6 0 0c-177,0 -320,-143 -320,-320 0,-177 143,-320 320,-320 0,-177 143,-320 320,-320 126,0 235,73 287,179l5 0c88,0 160,72 160,160 0,89 -72,160 -160,160 -9,0 -17,0 -26,-2 -57,86 -155,143 -266,143z"/>
	<path id="curve3" fill="#B89A7C" d="M6880 5120c57,0 111,10 161,28 -1,-9 -1,-19 -1,-28 0,-177 143,-320 320,-320 177,0 320,143 320,320 0,177 -143,320 -320,320 -9,0 -19,0 -28,-1 18,50 28,104 28,161 0,99 -30,191 -81,267 50,57 81,131 81,213 0,177 -143,320 -320,320 -177,0 -320,-143 -320,-320 0,-9 0,-18 1,-27 -16,-6 -32,-12 -48,-20 -29,29 -69,47 -113,47 -23,0 -46,-5 -66,-14 -30,9 -61,14 -94,14 -177,0 -320,-143 -320,-320 0,-177 143,-320 320,-320 9,0 18,0 27,1 6,-16 12,-32 20,-48 -29,-29 -47,-69 -47,-113 0,-88 72,-160 160,-160 44,0 84,18 113,47 63,-30 133,-47 207,-47z"/>
	<path id="curve2" fill="#76A797" d="M6880 4166c56,0 111,-10 161,-28 -1,8 -1,17 -1,25 0,175 143,317 320,317 177,0 320,-142 320,-317 0,-58 -15,-111 -42,-158 27,-47 42,-101 42,-159 0,-177 -143,-320 -320,-320 -9,0 -18,0 -27,1 -6,-17 -12,-33 -20,-48 29,-29 47,-69 47,-113 0,-89 -72,-160 -160,-160 -44,0 -84,18 -113,47 -16,-8 -32,-15 -48,-20 1,-9 1,-18 1,-27 0,-177 -143,-320 -320,-320 -177,0 -320,143 -320,320 0,82 31,156 81,213 -22,33 -41,69 -54,108 -9,-1 -18,-1 -27,-1 -177,0 -320,143 -320,320 0,176 143,320 320,320 56,0 108,-15 154,-40 -2,9 -2,18 -2,28 0,89 71,162 160,162 84,0 153,-66 159,-150l9 0z"/>
	<path id="curve1" fill="#EDC87E" d="M5120 2400c0,-57 10,-111 28,-161 -9,1 -19,1 -28,1 -177,0 -320,-143 -320,-320 0,-177 143,-320 320,-320 177,0 320,143 320,320 0,9 0,19 -1,28 50,-18 104,-28 161,-28 99,0 191,30 267,81 57,-50 131,-81 213,-81 177,0 320,143 320,320 0,177 -143,320 -320,320 -9,0 -18,0 -27,-1 -6,16 -12,32 -20,48 29,29 47,69 47,113 0,23 -5,46 -14,66 9,30 14,61 14,94 0,177 -143,320 -320,320 -177,0 -320,-143 -320,-320 0,-9 0,-18 1,-27 -16,-6 -32,-12 -48,-20 -29,29 -69,47 -113,47 -88,0 -160,-72 -160,-160 0,-44 18,-84 47,-113 -30,-63 -47,-133 -47,-207z"/>
	<path id="curve0" fill="#4D82B8" d="M3682 2560l0 0c0,-177 143,-320 320,-320 176,0 320,143 320,320 0,14 -1,28 -3,41 94,33 161,122 161,226 0,133 -107,240 -239,240 -114,0 -210,-80 -234,-187l-5 0 0 0c0,177 -144,320 -320,320 -177,0 -320,-143 -320,-320 -177,0 -320,-143 -320,-320 0,-126 73,-235 179,-287l0 -5c0,-88 71,-160 160,-160 88,0 160,72 160,160 0,9 -1,17 -2,26 86,57 143,155 143,266z"/>
</svg>
