<?xml version="1.0" encoding="UTF-8"?>
<!DOCTYPE svg PUBLIC "-//W3C//DTD SVG 1.1//EN" "http://www.w3.org/Graphics/SVG/1.1/DTD/svg11.dtd">
<svg xmlns="http://www.w3.org/2000/svg" xml:space="preserve" width="1024px" height="1024px" shape-rendering="geometricPrecision" text-rendering="geometricPrecision" image-rendering="optimizeQuality" fill-rule="nonzero" clip-rule="evenodd" viewBox="0 0 10240 10240" xmlns:xlink="http://www.w3.org/1999/xlink">
	<title>paint_bucket icon</title>
	<desc>paint_bucket icon from the IconExperience.com O-Collection. Copyright by INCORS GmbH (www.incors.com).</desc>
	<path id="curve1" fill="#808080" d="M8960 2880l0 6080c0,353 -287,640 -640,640l-6400 0c-353,0 -640,-287 -640,-640l0 -3510c82,66 182,109 297,111 135,3 250,-49 343,-130l0 3529 6400 0 0 -6080 640 0z"/>
	<path id="curve0" fill="#4D82B8" d="M5760 3840l0 960c0,640 -640,640 -640,0l0 -960c0,-640 -640,-640 -640,0l0 3520c0,640 -640,640 -640,0 0,-514 0,-1726 0,-2240 0,-640 -640,-640 -640,0 0,640 0,-27 0,640 -12,744 -640,640 -640,0l0 -1280c0,-640 -640,-640 -640,0 0,960 -640,1068 -640,0l0 -1920 -326 0c-176,0 -320,-144 -320,-320l0 -640c0,-176 144,-320 320,-320l8006 0 314 0c177,0 320,144 320,320l0 640c0,176 -143,320 -320,320l-314 0 -640 0c-859,0 -2560,106 -2560,1280z"/>
</svg>
