<?xml version="1.0" encoding="UTF-8"?>
<!DOCTYPE svg PUBLIC "-//W3C//DTD SVG 1.1//EN" "http://www.w3.org/Graphics/SVG/1.1/DTD/svg11.dtd">
<svg xmlns="http://www.w3.org/2000/svg" xml:space="preserve" width="1024px" height="1024px" shape-rendering="geometricPrecision" text-rendering="geometricPrecision" image-rendering="optimizeQuality" fill-rule="nonzero" clip-rule="evenodd" viewBox="0 0 10240 10240" xmlns:xlink="http://www.w3.org/1999/xlink">
	<title>paint_roller icon</title>
	<desc>paint_roller icon from the IconExperience.com O-Collection. Copyright by INCORS GmbH (www.incors.com).</desc>
	<path id="curve2" fill="#808080" d="M4160 5760l1280 0c176,0 320,144 320,320l0 3200c0,176 -144,320 -320,320l-1280 0c-176,0 -320,-144 -320,-320l0 -3200c0,-176 144,-320 320,-320z"/>
	<path id="curve1" fill="#808080" d="M8000 1600l0 0c265,0 505,108 678,282 174,173 282,413 282,678l0 960c0,265 -108,505 -282,678 -173,174 -413,282 -678,282l0 -1 -1920 0 0 1c-264,0 -504,108 -678,282 -174,174 -282,414 -282,678l0 0 -640 0 0 0c0,-441 180,-841 469,-1131 290,-289 690,-469 1131,-469l0 1 1920 0 0 -1c88,0 168,-36 226,-94 58,-58 94,-138 94,-226l0 -960c0,-88 -36,-168 -94,-226 -58,-58 -138,-94 -226,-94l0 0 0 -640z"/>
	<path id="curve0" fill="#EDC87E" d="M2560 640l4480 0c353,0 640,287 640,640l0 1280c0,352 -287,640 -640,640l-4480 0c-352,0 -640,-287 -640,-640l0 -1280c0,-353 288,-640 640,-640z"/>
</svg>
