<?xml version="1.0" encoding="UTF-8"?>
<!DOCTYPE svg PUBLIC "-//W3C//DTD SVG 1.1//EN" "http://www.w3.org/Graphics/SVG/1.1/DTD/svg11.dtd">
<svg xmlns="http://www.w3.org/2000/svg" xml:space="preserve" width="1024px" height="1024px" shape-rendering="geometricPrecision" text-rendering="geometricPrecision" image-rendering="optimizeQuality" fill-rule="nonzero" clip-rule="evenodd" viewBox="0 0 10240 10240" xmlns:xlink="http://www.w3.org/1999/xlink">
	<title>painting_portrait icon</title>
	<desc>painting_portrait icon from the IconExperience.com O-Collection. Copyright by INCORS GmbH (www.incors.com).</desc>
	<path id="curve2" fill="#808080" d="M2880 7292c238,-350 601,-578 1060,-908 198,123 417,216 649,273 166,53 341,87 531,92 190,-5 365,-39 531,-92 232,-57 451,-150 649,-273 459,330 822,558 1060,908l0 708 -4480 0 0 -708z"/>
	<path id="curve1" fill="#808080" d="M5120 2560c1060,0 1920,860 1920,1920 0,1060 -860,1920 -1920,1920 -1060,0 -1920,-860 -1920,-1920 0,-1060 860,-1920 1920,-1920z"/>
	<path id="curve0" fill="#EDC87E" d="M1280 8640c0,-640 320,-960 320,-1600 0,-640 -320,-960 -320,-1920 0,-960 320,-1280 320,-1920 0,-640 -320,-960 -320,-1600 0,-705 255,-960 960,-960 640,0 960,320 1280,320 640,0 960,-320 1600,-320 640,0 960,320 1600,320 320,0 640,-320 1280,-320 705,0 960,255 960,960 0,640 -320,960 -320,1600 0,640 320,960 320,1920 0,960 -320,1280 -320,1920 0,640 320,960 320,1600 0,705 -255,960 -960,960 -640,0 -960,-320 -1280,-320 -640,0 -960,320 -1600,320 -640,0 -960,-320 -1600,-320 -320,0 -640,320 -1280,320 -705,0 -960,-320 -960,-960zm1280 -320l5120 0 0 -6400 -5120 0 0 6400z"/>
</svg>
