<?xml version="1.0" encoding="UTF-8"?>
<!DOCTYPE svg PUBLIC "-//W3C//DTD SVG 1.1//EN" "http://www.w3.org/Graphics/SVG/1.1/DTD/svg11.dtd">
<svg xmlns="http://www.w3.org/2000/svg" xml:space="preserve" width="1024px" height="1024px" shape-rendering="geometricPrecision" text-rendering="geometricPrecision" image-rendering="optimizeQuality" fill-rule="nonzero" clip-rule="evenodd" viewBox="0 0 10240 10240" xmlns:xlink="http://www.w3.org/1999/xlink">
	<title>palm_tree icon</title>
	<desc>palm_tree icon from the IconExperience.com O-Collection. Copyright by INCORS GmbH (www.incors.com).</desc>
	<path id="curve3" fill="#EDC87E" d="M5826 8032c128,12 254,27 379,45 -256,107 -464,323 -442,622 30,417 476,607 844,580 195,-14 402,-92 550,-223 214,348 691,321 1006,136 143,-83 274,-211 356,-360 402,220 765,478 1081,768l-8960 0c661,-607 1534,-1077 2532,-1346 -2,75 11,152 36,226 60,181 192,320 372,386 247,91 575,112 837,108 343,-5 999,-50 1169,-408 85,-179 165,-357 240,-534z"/>
	<path id="curve2" fill="#B89A7C" d="M7678 8364c229,-134 487,-119 576,34 90,152 -24,384 -252,518 -229,134 -487,119 -576,-34 -90,-152 24,-384 252,-518zm-1141 -42c265,-20 489,108 502,284 13,176 -191,335 -455,354 -264,19 -489,-108 -502,-284 -13,-176 191,-335 455,-354z"/>
	<path id="curve1" fill="#B89A7C" d="M5297 8429c-112,235 -1176,295 -1607,137 -87,-32 -149,-97 -179,-188 -30,-90 -28,-187 28,-263 1187,-1592 1792,-3133 1960,-4844 66,24 119,39 182,87 132,110 327,107 484,62 95,-27 182,-70 262,-126 -22,1654 -167,3104 -1130,5135z"/>
	<path id="curve0" fill="#76A797" d="M5889 1401c419,-357 966,-550 1522,-364 1946,-637 2415,1568 1821,3414 -24,72 -92,117 -168,110 -76,-7 -134,-64 -143,-140 -79,-651 -274,-1193 -601,-1541 0,541 -228,1081 -685,1590 -45,50 -112,66 -175,43 -62,-23 -103,-80 -104,-147 -17,-766 -92,-1377 -283,-1684 -157,-254 -497,-31 -673,198 -211,275 -476,268 -517,230 -135,-106 -185,-99 -317,-156 -657,-63 -1221,398 -1570,1540 -22,72 -88,117 -162,113 -74,-3 -135,-56 -149,-129 -156,-813 -119,-1449 36,-1931 -432,276 -946,983 -1109,1946 -12,73 -70,126 -144,133 -74,6 -140,-37 -164,-107 -773,-2199 644,-3507 1856,-3559 563,-24 1112,81 1441,311 101,25 198,68 288,130z"/>
</svg>
