<?xml version="1.0" encoding="UTF-8"?>
<!DOCTYPE svg PUBLIC "-//W3C//DTD SVG 1.1//EN" "http://www.w3.org/Graphics/SVG/1.1/DTD/svg11.dtd">
<svg xmlns="http://www.w3.org/2000/svg" xml:space="preserve" width="1024px" height="1024px" shape-rendering="geometricPrecision" text-rendering="geometricPrecision" image-rendering="optimizeQuality" fill-rule="nonzero" clip-rule="evenodd" viewBox="0 0 10240 10240" xmlns:xlink="http://www.w3.org/1999/xlink">
	<title>pan_flute icon</title>
	<desc>pan_flute icon from the IconExperience.com O-Collection. Copyright by INCORS GmbH (www.incors.com).</desc>
	<path id="curve1" fill="#ED9A56" d="M960,1280 9280,1280 9280,1920 960,1920z"/>
	<path id="curve0" fill="#B89A7C" d="M1280 640l7680 0 0 320 -7680 0 0 -320zm7680 1600l0 960c0,352 -288,640 -640,640 -352,0 -639,-287 -640,-639l0 639c0,352 -288,640 -640,640 -352,0 -639,-287 -640,-639l0 959c0,352 -288,640 -640,640 -352,0 -640,-287 -640,-640l0 1280c0,352 -288,640 -640,640 -352,0 -639,-287 -640,-639l0 1279c0,352 -288,640 -640,640 -352,0 -639,-287 -640,-639l0 1599c0,353 -287,640 -640,640 -353,0 -640,-287 -640,-640l0 -6720 7680 0z"/>
</svg>
