<?xml version="1.0" encoding="UTF-8"?>
<!DOCTYPE svg PUBLIC "-//W3C//DTD SVG 1.1//EN" "http://www.w3.org/Graphics/SVG/1.1/DTD/svg11.dtd">
<svg xmlns="http://www.w3.org/2000/svg" xml:space="preserve" width="1024px" height="1024px" shape-rendering="geometricPrecision" text-rendering="geometricPrecision" image-rendering="optimizeQuality" fill-rule="nonzero" clip-rule="evenodd" viewBox="0 0 10240 10240" xmlns:xlink="http://www.w3.org/1999/xlink">
	<title>paper_fan icon</title>
	<desc>paper_fan icon from the IconExperience.com O-Collection. Copyright by INCORS GmbH (www.incors.com).</desc>
	<path id="curve1" fill="#B89A7C" d="M735 4295l4388 2581 4383 -2581c157,-92 345,-34 432,124 84,152 32,343 -117,431l-4071 2396 813 480c151,89 202,285 112,437 -90,152 -286,202 -437,113l-1117 -660 -1120 660c-152,89 -347,38 -436,-114 -89,-152 -38,-347 114,-436l814 -480 -4074 -2395c-156,-92 -199,-282 -113,-438 85,-154 277,-207 429,-118z"/>
	<path id="curve0" fill="#4D82B8" d="M5279 1602c556,17 1092,118 1598,294l-1419 3900c-59,-13 -118,-22 -179,-28l0 -4166zm1897 407c500,207 966,488 1388,830l-2635 3140c-54,-31 -110,-60 -167,-85l1414 -3885zm1631 1037c295,267 564,564 804,888 -91,7 -182,35 -267,86l-2674 1573 2137 -2547zm-3848 2722c-61,6 -120,16 -179,28l-1419 -3899c506,-176 1042,-278 1598,-295l0 4166zm-483 127c-57,25 -113,54 -167,85l-2635 -3140c422,-342 889,-623 1389,-830l1413 3885zm-914 -308l-2665 -1567c-85,-51 -177,-78 -269,-86 240,-323 509,-620 804,-886l2130 2539z"/>
</svg>
