<?xml version="1.0" encoding="UTF-8"?>
<!DOCTYPE svg PUBLIC "-//W3C//DTD SVG 1.1//EN" "http://www.w3.org/Graphics/SVG/1.1/DTD/svg11.dtd">
<svg xmlns="http://www.w3.org/2000/svg" xml:space="preserve" width="1024px" height="1024px" shape-rendering="geometricPrecision" text-rendering="geometricPrecision" image-rendering="optimizeQuality" fill-rule="nonzero" clip-rule="evenodd" viewBox="0 0 10240 10240" xmlns:xlink="http://www.w3.org/1999/xlink">
	<title>paper_jet icon</title>
	<desc>paper_jet icon from the IconExperience.com O-Collection. Copyright by INCORS GmbH (www.incors.com).</desc>
	<path id="curve0" fill="#808080" d="M7418 5963l-300 600c-50,101 -140,164 -252,175l-5843 615c-20,5 -42,7 -63,7 -147,0 -280,-103 -312,-252 -23,-103 7,-205 72,-279l2865 -3820c33,-44 75,-77 122,-99l1270 -635c94,-47 200,-43 287,1l2096 1048 0 712 -4800 2044 4038 -2425 -1478 -739 -1070 535 -2321 3095 6488 -1411 671 -335 -1528 -764 611 -407 1772 886c157,79 221,270 142,427 -32,65 -83,113 -143,143l-1279 640c-25,12 -50,21 -76,27l-969 211z"/>
</svg>
