<?xml version="1.0" encoding="UTF-8"?>
<!DOCTYPE svg PUBLIC "-//W3C//DTD SVG 1.1//EN" "http://www.w3.org/Graphics/SVG/1.1/DTD/svg11.dtd">
<svg xmlns="http://www.w3.org/2000/svg" xml:space="preserve" width="1024px" height="1024px" shape-rendering="geometricPrecision" text-rendering="geometricPrecision" image-rendering="optimizeQuality" fill-rule="nonzero" clip-rule="evenodd" viewBox="0 0 10240 10240" xmlns:xlink="http://www.w3.org/1999/xlink">
	<title>paperclip2 icon</title>
	<desc>paperclip2 icon from the IconExperience.com O-Collection. Copyright by INCORS GmbH (www.incors.com).</desc>
	<path id="curve0" fill="#808080" d="M7680 7360c0,176 -143,319 -319,319 -176,0 -319,-143 -319,-319l-2 -4801c0,-182 -58,-323 -187,-452l-960 -960c-248,-248 -658,-248 -906,0l-960 960c-129,129 -187,270 -187,452l0 6401c0,176 144,320 320,320l1600 0c176,0 320,-144 320,-320l0 -4481c0,-357 -284,-639 -640,-639 -356,0 -640,282 -640,639l0 2241c0,176 -143,319 -319,319 -176,0 -319,-143 -319,-319l-2 -2241c0,-709 572,-1279 1280,-1279 708,0 1280,570 1280,1279l0 4481c0,529 -431,960 -960,960l-1600 0c-529,0 -960,-431 -960,-960l0 -6401c0,-346 130,-660 375,-905l960 -960c496,-496 1314,-496 1810,0l960 960c245,245 375,559 375,905l0 4801z"/>
</svg>
