<?xml version="1.0" encoding="UTF-8"?>
<!DOCTYPE svg PUBLIC "-//W3C//DTD SVG 1.1//EN" "http://www.w3.org/Graphics/SVG/1.1/DTD/svg11.dtd">
<svg xmlns="http://www.w3.org/2000/svg" xml:space="preserve" width="1024px" height="1024px" shape-rendering="geometricPrecision" text-rendering="geometricPrecision" image-rendering="optimizeQuality" fill-rule="nonzero" clip-rule="evenodd" viewBox="0 0 10240 10240" xmlns:xlink="http://www.w3.org/1999/xlink">
	<title>paper_lantern icon</title>
	<desc>paper_lantern icon from the IconExperience.com O-Collection. Copyright by INCORS GmbH (www.incors.com).</desc>
	<path id="curve2" fill="#808080" d="M3520 8640l3200 0 0 640c0,176 -144,320 -320,320l-2560 0c-176,0 -320,-144 -320,-320l0 -640z"/>
	<path id="curve1" fill="#E68497" d="M7040 3200c777,584 1280,1513 1280,2560 0,1047 -503,1976 -1280,2560l-3840 0c-777,-584 -1280,-1513 -1280,-2560 0,-1047 503,-1976 1280,-2560l3840 0z"/>
	<path id="curve0" fill="#808080" d="M5600 640l3040 0 0 320 -3040 0c-176,0 -320,144 -320,320l0 10c406,51 753,291 949,630l171 0c176,0 320,144 320,320l0 640 -3200 0 0 -640c0,-176 144,-320 320,-320l171 0c196,-339 543,-579 949,-630l0 -10c0,-353 288,-640 640,-640zm-1195 1280l1430 0c-175,-196 -431,-320 -715,-320 -284,0 -540,124 -715,320z"/>
</svg>
