<?xml version="1.0" encoding="UTF-8"?>
<!DOCTYPE svg PUBLIC "-//W3C//DTD SVG 1.1//EN" "http://www.w3.org/Graphics/SVG/1.1/DTD/svg11.dtd">
<svg xmlns="http://www.w3.org/2000/svg" xml:space="preserve" width="1024px" height="1024px" shape-rendering="geometricPrecision" text-rendering="geometricPrecision" image-rendering="optimizeQuality" fill-rule="nonzero" clip-rule="evenodd" viewBox="0 0 10240 10240" xmlns:xlink="http://www.w3.org/1999/xlink">
	<title>paper_roll icon</title>
	<desc>paper_roll icon from the IconExperience.com O-Collection. Copyright by INCORS GmbH (www.incors.com).</desc>
	<path id="curve0" fill="#808080" d="M3475 3233l1976 1984c52,-530 289,-1005 645,-1361 405,-405 965,-656 1584,-656 10,0 21,0 31,0l-1780 -1771c-621,-622 -1641,-622 -2262,0 -452,451 -690,1299 -194,1804zm-446 458c-290,-289 -469,-689 -469,-1131 0,-619 251,-1179 656,-1584 405,-405 965,-656 1584,-656 619,0 1179,251 1584,656l2995 3005c365,366 541,902 541,1459 0,1590 -1290,2880 -2880,2880l-3200 -1c-88,0 -168,-36 -225,-94l-3201 -3199c-125,-125 -125,-327 0,-452 62,-63 144,-94 226,-94l2723 0 638 640 -2588 0 2561 2561 3066 -1c1237,0 2240,-1003 2240,-2240 0,-884 -716,-1600 -1600,-1600 -884,0 -1600,716 -1600,1600 0,530 430,960 960,960 525,0 951,-421 960,-943 -9,346 -292,623 -640,623 -353,0 -640,-287 -640,-640 0,-530 430,-960 960,-960 530,0 960,430 960,960 0,884 -716,1600 -1600,1600 -377,0 -749,-101 -996,-348l-3015 -3001z"/>
</svg>
