<?xml version="1.0" encoding="UTF-8"?>
<!DOCTYPE svg PUBLIC "-//W3C//DTD SVG 1.1//EN" "http://www.w3.org/Graphics/SVG/1.1/DTD/svg11.dtd">
<svg xmlns="http://www.w3.org/2000/svg" xml:space="preserve" width="1024px" height="1024px" shape-rendering="geometricPrecision" text-rendering="geometricPrecision" image-rendering="optimizeQuality" fill-rule="nonzero" clip-rule="evenodd" viewBox="0 0 10240 10240" xmlns:xlink="http://www.w3.org/1999/xlink">
	<title>paper_jet2 icon</title>
	<desc>paper_jet2 icon from the IconExperience.com O-Collection. Copyright by INCORS GmbH (www.incors.com).</desc>
	<path id="curve0" fill="#808080" d="M818 3875l1279 -640c37,-18 76,-29 114,-32l7040 -641c176,-15 331,114 347,289 4,48 -3,95 -18,138l-1280 3520c-31,86 -95,150 -173,184l-1264 632c-94,47 -200,43 -287,-1l-1294 -647 -1235 927c-24,20 -52,37 -82,50 -162,69 -350,-7 -419,-169l-914 -2133 -1814 -907c-158,-79 -222,-270 -143,-428 32,-64 83,-112 143,-142zm2624 1170l4518 -1405 -3303 2012 2063 1032 1023 -512 1065 -2929 -6480 589 -655 328 1769 885z"/>
</svg>
