<?xml version="1.0" encoding="UTF-8"?>
<!DOCTYPE svg PUBLIC "-//W3C//DTD SVG 1.1//EN" "http://www.w3.org/Graphics/SVG/1.1/DTD/svg11.dtd">
<svg xmlns="http://www.w3.org/2000/svg" xml:space="preserve" width="1024px" height="1024px" shape-rendering="geometricPrecision" text-rendering="geometricPrecision" image-rendering="optimizeQuality" fill-rule="nonzero" clip-rule="evenodd" viewBox="0 0 10240 10240" xmlns:xlink="http://www.w3.org/1999/xlink">
	<title>parasol icon</title>
	<desc>parasol icon from the IconExperience.com O-Collection. Copyright by INCORS GmbH (www.incors.com).</desc>
	<path id="curve1" fill="#808080" d="M1920 8960l1281 0 0 -2645c-192,-110 -321,-318 -321,-555 0,-353 287,-640 640,-640 14,0 28,0 41,1l667 -1000c172,128 357,234 555,321l-689 1034c42,86 66,182 66,284 0,237 -129,445 -321,555l0 2645 1281 0 0 640 -3200 0 0 -640z"/>
	<path id="curve0" fill="#4D82B8" d="M1831 650l4197 1051c61,15 109,43 153,88l3008 3109c101,104 120,257 47,382l-359 623c-1151,74 -1983,-406 -2494,-1440 -1429,-86 -2260,-566 -2772,-1600 -1151,74 -1982,-406 -2494,-1440l360 -623c72,-125 214,-185 354,-150zm4120 1361l-1866 275c-100,15 -180,69 -231,157l-50 87 94 191c519,1050 1376,1355 2504,1422l160 10 63 -110c51,-88 58,-184 21,-278l-695 -1754z"/>
</svg>
