<?xml version="1.0" encoding="UTF-8"?>
<!DOCTYPE svg PUBLIC "-//W3C//DTD SVG 1.1//EN" "http://www.w3.org/Graphics/SVG/1.1/DTD/svg11.dtd">
<svg xmlns="http://www.w3.org/2000/svg" xml:space="preserve" width="1024px" height="1024px" shape-rendering="geometricPrecision" text-rendering="geometricPrecision" image-rendering="optimizeQuality" fill-rule="nonzero" clip-rule="evenodd" viewBox="0 0 10240 10240" xmlns:xlink="http://www.w3.org/1999/xlink">
	<title>parking_meter icon</title>
	<desc>parking_meter icon from the IconExperience.com O-Collection. Copyright by INCORS GmbH (www.incors.com).</desc>
	<path id="curve1" fill="#808080" d="M5760,8640 5760,9920 4480,9920 4480,8640z"/>
	<path id="curve0" fill="#808080" d="M3661 640l2918 0c280,0 518,172 607,438l753 2260c42,124 45,241 12,367l-1104 4140c-76,284 -325,475 -619,475l-2216 0c-294,0 -543,-191 -619,-475l-1104 -4140c-33,-126 -30,-243 12,-367l753 -2260c89,-266 327,-438 607,-438zm179 960c-176,0 -320,144 -320,320l0 1280c0,176 144,320 320,320l171 0c220,-380 630,-637 1101,-640l620 -813c60,-79 162,-107 253,-70 92,36 146,127 135,225l-112 1017c86,82 161,177 221,281l171 0c176,0 320,-144 320,-320l0 -1280c0,-176 -144,-320 -320,-320l-2560 0zm1280 2880c-707,0 -1280,573 -1280,1280 0,707 573,1280 1280,1280 707,0 1280,-573 1280,-1280 0,-237 -65,-460 -177,-650l-877 876c-125,125 -327,125 -452,0 -125,-125 -125,-327 0,-452l876 -877c-190,-112 -413,-177 -650,-177z"/>
</svg>
