<?xml version="1.0" encoding="UTF-8"?>
<!DOCTYPE svg PUBLIC "-//W3C//DTD SVG 1.1//EN" "http://www.w3.org/Graphics/SVG/1.1/DTD/svg11.dtd">
<svg xmlns="http://www.w3.org/2000/svg" xml:space="preserve" width="1024px" height="1024px" shape-rendering="geometricPrecision" text-rendering="geometricPrecision" image-rendering="optimizeQuality" fill-rule="nonzero" clip-rule="evenodd" viewBox="0 0 10240 10240" xmlns:xlink="http://www.w3.org/1999/xlink">
	<title>passport icon</title>
	<desc>passport icon from the IconExperience.com O-Collection. Copyright by INCORS GmbH (www.incors.com).</desc>
	<path id="curve0" fill="#4D82B8" d="M8320 1600l-6080 0c-88,0 -160,-72 -160,-160l0 0c0,-88 72,-160 160,-160l6400 0c0,-176 -144,-320 -320,-320l-6080 0c-352,0 -640,288 -640,640l0 7040c0,352 287,640 640,640l6080 0c176,0 320,-144 320,-320l0 -7040c0,-176 -144,-320 -320,-320zm-4480 5440l2560 0 0 640 -2560 0 0 -640zm3147 -2534c14,94 22,190 22,288 0,1060 -860,1920 -1920,1920 -1061,0 -1920,-860 -1920,-1920 0,-108 9,-214 26,-317l333 167c-5,51 -8,103 -8,156 0,884 716,1600 1600,1600 884,0 1600,-716 1600,-1600 0,-53 -3,-105 -8,-156l275 -138zm-2827 -666l1920 0 0 960c0,320 -320,960 -960,1280 -640,-320 -960,-960 -960,-1280l0 -960z"/>
</svg>
