<?xml version="1.0" encoding="UTF-8"?>
<!DOCTYPE svg PUBLIC "-//W3C//DTD SVG 1.1//EN" "http://www.w3.org/Graphics/SVG/1.1/DTD/svg11.dtd">
<svg xmlns="http://www.w3.org/2000/svg" xml:space="preserve" width="1024px" height="1024px" shape-rendering="geometricPrecision" text-rendering="geometricPrecision" image-rendering="optimizeQuality" fill-rule="nonzero" clip-rule="evenodd" viewBox="0 0 10240 10240" xmlns:xlink="http://www.w3.org/1999/xlink">
	<title>pastor icon</title>
	<desc>pastor icon from the IconExperience.com O-Collection. Copyright by INCORS GmbH (www.incors.com).</desc>
	<path id="curve1" fill="#808080" d="M8320 8470c0,745 -1623,1075 -2880,1124l0 -1274 640 0 0 -640 -640 0 0 -640 -640 0 0 640 -640 0 0 640 640 0 0 1274c-1256,-49 -2880,-379 -2880,-1123 0,-1604 484,-1970 1389,-2633l96 -324c315,234 679,405 1075,494l0 392c0,176 144,320 320,320l640 0c176,0 320,-144 320,-320l1 -392c395,-89 759,-261 1074,-494l97 324c905,664 1388,1027 1388,2632z"/>
	<path id="curve0" fill="#EFC1B4" d="M5120 640c1414,0 2560,1146 2560,2560 0,1414 -1146,2560 -2560,2560 -1414,0 -2560,-1146 -2560,-2560 0,-1414 1146,-2560 2560,-2560z"/>
</svg>
