<?xml version="1.0" encoding="UTF-8"?>
<!DOCTYPE svg PUBLIC "-//W3C//DTD SVG 1.1//EN" "http://www.w3.org/Graphics/SVG/1.1/DTD/svg11.dtd">
<svg xmlns="http://www.w3.org/2000/svg" xml:space="preserve" width="1024px" height="1024px" shape-rendering="geometricPrecision" text-rendering="geometricPrecision" image-rendering="optimizeQuality" fill-rule="nonzero" clip-rule="evenodd" viewBox="0 0 10240 10240" xmlns:xlink="http://www.w3.org/1999/xlink">
	<title>pawn icon</title>
	<desc>pawn icon from the IconExperience.com O-Collection. Copyright by INCORS GmbH (www.incors.com).</desc>
	<path id="curve0" fill="#4D82B8" d="M5120 640c17,0 33,0 50,1 1214,26 2190,1018 2190,2239 0,730 -349,1378 -889,1787l1780 3517c48,94 69,184 69,289l0 1127 -6400 0 0 -1127c0,-105 21,-195 69,-289l1780 -3517c-540,-409 -889,-1057 -889,-1787 0,-1221 976,-2213 2190,-2239 17,-1 33,-1 50,-1zm-1920 8320l320 0c176,0 320,-144 320,-320l0 -272c0,-34 3,-62 9,-95l540 -2699c26,-127 -44,-251 -165,-295 -67,-25 -135,-22 -200,8 -66,31 -111,81 -135,150l-982 2806c-19,53 -27,102 -27,159l0 238c0,176 144,320 320,320zm1920 -7680c-884,0 -1600,716 -1600,1600 0,115 12,227 35,335 43,201 276,319 456,219 133,-66 201,-208 170,-353 -14,-65 -21,-132 -21,-201 0,-530 430,-960 960,-960 69,0 136,7 201,21 145,31 287,-38 353,-170 94,-188 -13,-412 -219,-456 -108,-23 -220,-35 -335,-35z"/>
</svg>
