<?xml version="1.0" encoding="UTF-8"?>
<!DOCTYPE svg PUBLIC "-//W3C//DTD SVG 1.1//EN" "http://www.w3.org/Graphics/SVG/1.1/DTD/svg11.dtd">
<svg xmlns="http://www.w3.org/2000/svg" xml:space="preserve" width="1024px" height="1024px" shape-rendering="geometricPrecision" text-rendering="geometricPrecision" image-rendering="optimizeQuality" fill-rule="nonzero" clip-rule="evenodd" viewBox="0 0 10240 10240" xmlns:xlink="http://www.w3.org/1999/xlink">
	<title>pci_card icon</title>
	<desc>pci_card icon from the IconExperience.com O-Collection. Copyright by INCORS GmbH (www.incors.com).</desc>
	<path id="curve3" fill="#808080" d="M6400,3840 7680,3840 7680,5120 6400,5120z"/>
	<path id="curve2" fill="#808080" d="M3200,3840 5120,3840 5120,5760 3200,5760z"/>
	<path id="curve1" fill="#76A797" d="M2240 2560l6080 0c353,0 640,288 640,640l0 3200c0,352 -288,640 -640,640l-640 0 0 640 -320 0 0 -640 -320 0 0 640 -320 0 0 -640 -320 0 0 640 -320 0 0 -640 -320 0 0 640 -320 0 0 -640 -320 0 0 640 -640 0 0 -640 -1280 0 0 640 -960 0 0 -5120zm960 960c-176,0 -320,144 -320,320l0 1920c0,176 144,320 320,320l1920 0c176,0 320,-144 320,-320l0 -1920c0,-176 -144,-320 -320,-320l-1920 0zm3200 0c-176,0 -320,144 -320,320l0 1280c0,176 144,320 320,320l1280 0c176,0 320,-144 320,-320l0 -1280c0,-176 -144,-320 -320,-320l-1280 0z"/>
	<path id="curve0" fill="#808080" d="M640 640l640 0c353,0 640,288 640,640l0 7680 -640 0 0 -7680 -640 0 0 -640z"/>
</svg>
