<?xml version="1.0" encoding="UTF-8"?>
<!DOCTYPE svg PUBLIC "-//W3C//DTD SVG 1.1//EN" "http://www.w3.org/Graphics/SVG/1.1/DTD/svg11.dtd">
<svg xmlns="http://www.w3.org/2000/svg" xml:space="preserve" width="1024px" height="1024px" shape-rendering="geometricPrecision" text-rendering="geometricPrecision" image-rendering="optimizeQuality" fill-rule="nonzero" clip-rule="evenodd" viewBox="0 0 10240 10240" xmlns:xlink="http://www.w3.org/1999/xlink">
	<title>pda icon</title>
	<desc>pda icon from the IconExperience.com O-Collection. Copyright by INCORS GmbH (www.incors.com).</desc>
	<path id="curve1" fill="#4D82B8" d="M2880,1600 7360,1600 7360,7360 2880,7360z"/>
	<path id="curve0" fill="#808080" d="M2560 640l5120 0c353,0 640,287 640,640l0 7040c0,353 -287,640 -640,640l0 0 0 320c0,176 -144,320 -320,320l-4480 0c-176,0 -320,-144 -320,-320l0 -320 0 0c-353,0 -640,-287 -640,-640l0 -7040c0,-353 287,-640 640,-640zm1280 7680c-177,0 -320,143 -320,320 0,177 143,320 320,320 177,0 320,-143 320,-320 0,-177 -143,-320 -320,-320zm1280 -320c-353,0 -640,287 -640,640 0,353 287,640 640,640 353,0 640,-287 640,-640 0,-353 -287,-640 -640,-640zm1280 320c-177,0 -320,143 -320,320 0,177 143,320 320,320 177,0 320,-143 320,-320 0,-177 -143,-320 -320,-320zm-3840 -7040l0 6400 5120 0 0 -6400 -5120 0z"/>
</svg>
