<?xml version="1.0" encoding="UTF-8"?>
<!DOCTYPE svg PUBLIC "-//W3C//DTD SVG 1.1//EN" "http://www.w3.org/Graphics/SVG/1.1/DTD/svg11.dtd">
<svg xmlns="http://www.w3.org/2000/svg" xml:space="preserve" width="1024px" height="1024px" shape-rendering="geometricPrecision" text-rendering="geometricPrecision" image-rendering="optimizeQuality" fill-rule="nonzero" clip-rule="evenodd" viewBox="0 0 10240 10240" xmlns:xlink="http://www.w3.org/1999/xlink">
	<title>pda_write icon</title>
	<desc>pda_write icon from the IconExperience.com O-Collection. Copyright by INCORS GmbH (www.incors.com).</desc>
	<path id="curve2" fill="#808080" d="M2880 1600l4480 0 0 507 -1186 1187c-354,354 -738,777 -965,1228 -107,214 -169,414 -199,632l-62 62c-197,197 -197,518 0,716 198,197 519,197 716,0l54 -54c28,-3 56,-6 84,-10 293,-42 541,-149 789,-309 270,-175 529,-401 769,-631l0 2432 -4480 0 0 -5760z"/>
	<path id="curve1" fill="#808080" d="M2560 640l5120 0c311,0 572,224 628,519l-628 628 0 -507 -5120 0 0 6400 5120 0 0 -3067 640 -640 0 4347c0,353 -287,640 -640,640l0 0 0 320c0,176 -144,320 -320,320l-4480 0c-176,0 -320,-144 -320,-320l0 -320 0 0c-353,0 -640,-287 -640,-640l0 -7040c0,-353 287,-640 640,-640zm1280 7680c-177,0 -320,143 -320,320 0,177 143,320 320,320 177,0 320,-143 320,-320 0,-177 -143,-320 -320,-320zm1280 -320c-353,0 -640,287 -640,640 0,353 287,640 640,640 353,0 640,-287 640,-640 0,-353 -287,-640 -640,-640zm1280 320c-177,0 -320,143 -320,320 0,177 143,320 320,320 177,0 320,-143 320,-320 0,-177 -143,-320 -320,-320z"/>
	<path id="curve0" fill="#4D82B8" d="M5586 5557l-148 148c-73,73 -191,73 -263,0 -73,-72 -73,-190 0,-263l148 -148 263 263zm4108 -3411l-2334 2334c-653,653 -1035,916 -1383,1022 -61,-100 -472,-478 -584,-591 115,-348 383,-767 1007,-1391l2334 -2334c124,-124 328,-124 452,0l508 508c124,124 124,328 0,452z"/>
</svg>
