<?xml version="1.0" encoding="UTF-8"?>
<!DOCTYPE svg PUBLIC "-//W3C//DTD SVG 1.1//EN" "http://www.w3.org/Graphics/SVG/1.1/DTD/svg11.dtd">
<svg xmlns="http://www.w3.org/2000/svg" xml:space="preserve" width="1024px" height="1024px" shape-rendering="geometricPrecision" text-rendering="geometricPrecision" image-rendering="optimizeQuality" fill-rule="nonzero" clip-rule="evenodd" viewBox="0 0 10240 10240" xmlns:xlink="http://www.w3.org/1999/xlink">
	<title>pens icon</title>
	<desc>pens icon from the IconExperience.com O-Collection. Copyright by INCORS GmbH (www.incors.com).</desc>
	<path id="curve4" fill="#808080" d="M2560 4800l5120 0 -570 4239c-35,323 -310,561 -635,561l-2710 0c-325,0 -600,-238 -635,-561l-570 -4239zm0 -960l5120 0c176,0 320,144 320,320l0 320 -5760 0 0 -320c0,-176 144,-320 320,-320z"/>
	<path id="curve3" fill="#EDC87E" d="M6579 1290l-829 2230 1930 0c39,0 77,4 115,10l584 -1571c123,-331 -47,-700 -377,-823l-600 -223c-330,-123 -700,46 -823,377z"/>
	<path id="curve2" fill="#808080" d="M4160 2240l0 22c190,406 363,821 516,1242l6 16 745 0 466 -1280 -1733 0z"/>
	<path id="curve1" fill="#E68497" d="M4160 1280l0 640 1849 0 71 -195 0 -445c0,-353 -287,-640 -640,-640l-640 0c-353,0 -640,287 -640,640zm720 -240c177,0 320,143 320,320 0,177 -143,320 -320,320 -177,0 -320,-143 -320,-320 0,-177 143,-320 320,-320z"/>
	<path id="curve0" fill="#4D82B8" d="M3164 1071c158,263 310,534 453,813l-1577 574c-70,-310 -129,-620 -178,-928 -18,-111 47,-217 149,-254l0 0 869 -316c110,-40 231,9 284,111zm598 1100c21,44 43,89 64,134 190,398 362,803 515,1215l-1781 0c-80,0 -156,15 -226,41 -66,-214 -127,-430 -183,-647 -13,-48 -25,-96 -37,-143l1648 -600z"/>
</svg>
