<?xml version="1.0" encoding="UTF-8"?>
<!DOCTYPE svg PUBLIC "-//W3C//DTD SVG 1.1//EN" "http://www.w3.org/Graphics/SVG/1.1/DTD/svg11.dtd">
<svg xmlns="http://www.w3.org/2000/svg" xml:space="preserve" width="1024px" height="1024px" shape-rendering="geometricPrecision" text-rendering="geometricPrecision" image-rendering="optimizeQuality" fill-rule="nonzero" clip-rule="evenodd" viewBox="0 0 10240 10240" xmlns:xlink="http://www.w3.org/1999/xlink">
	<title>pentagram icon</title>
	<desc>pentagram icon from the IconExperience.com O-Collection. Copyright by INCORS GmbH (www.incors.com).</desc>
	<path id="curve0" fill="#808080" d="M5422 879l985 2961 3193 0c176,0 320,143 320,320 0,116 -63,218 -156,274l-2556 1817 983 2958c55,167 -36,348 -203,403 -100,33 -205,14 -284,-43l-2584 -1835 -2584 1835c-144,102 -343,69 -445,-75 -65,-91 -75,-205 -37,-302l978 -2941 -2577 -1831c-144,-102 -178,-301 -75,-445 62,-87 160,-134 260,-134l3193 -1 984 -2962c55,-167 235,-258 403,-203 99,33 172,111 202,204zm1197 3601l378 1137 1601 -1137 -1979 0zm-671 0l-1657 0 -506 1523 1335 948 1334 -948 -506 -1523zm-213 -640l-615 -1852 -616 1852 616 0 615 0zm1544 4645l-615 -1849 -993 706 1608 1143zm-2710 -1143l-994 -706 -614 1849 1608 -1143zm-2928 -2862l1601 1137 378 -1137 -1979 0z"/>
</svg>
