<?xml version="1.0" encoding="UTF-8"?>
<!DOCTYPE svg PUBLIC "-//W3C//DTD SVG 1.1//EN" "http://www.w3.org/Graphics/SVG/1.1/DTD/svg11.dtd">
<svg xmlns="http://www.w3.org/2000/svg" xml:space="preserve" width="1024px" height="1024px" shape-rendering="geometricPrecision" text-rendering="geometricPrecision" image-rendering="optimizeQuality" fill-rule="nonzero" clip-rule="evenodd" viewBox="0 0 10240 10240" xmlns:xlink="http://www.w3.org/1999/xlink">
	<title>perfume icon</title>
	<desc>perfume icon from the IconExperience.com O-Collection. Copyright by INCORS GmbH (www.incors.com).</desc>
	<path id="curve3" fill="#E68497" d="M3774 7040c-154,351 -254,729 -254,1074 0,102 13,402 67,526l3706 0c54,-124 67,-424 67,-526 0,-345 -100,-723 -254,-1074l-3332 0z"/>
	<path id="curve2" fill="#808080" d="M7413 5686c559,719 907,1654 907,2428 0,892 -320,1486 -960,1486l-3840 0c-640,0 -960,-594 -960,-1486 0,-774 348,-1709 907,-2428 124,-159 307,-246 519,-246l2908 0c212,0 395,87 519,246zm-508 393l-2939 0c-421,541 -766,1340 -766,2035 0,189 17,846 320,846l3840 0c303,0 320,-657 320,-846 0,-695 -354,-1494 -775,-2035z"/>
	<path id="curve1" fill="#808080" d="M4800 2560l1280 0c176,0 320,144 320,320l0 1600 160 0c88,0 160,72 160,160l0 480 -2560 0 0 -480c0,-88 72,-160 160,-160l160 0 0 -320c353,0 640,-287 640,-640 0,-353 -287,-640 -640,-640 0,-176 144,-320 320,-320z"/>
	<path id="curve0" fill="#E68497" d="M4480 3200c177,0 320,143 320,320 0,177 -143,320 -320,320 -177,0 -320,-143 -320,-320 0,-177 143,-320 320,-320zm-2880 1920c177,0 320,143 320,320 0,177 -143,320 -320,320 -177,0 -320,-143 -320,-320 0,-177 143,-320 320,-320zm0 -3840c177,0 320,143 320,320 0,177 -143,320 -320,320 -177,0 -320,-143 -320,-320 0,-177 143,-320 320,-320zm0 1280c177,0 320,143 320,320 0,177 -143,320 -320,320 -177,0 -320,-143 -320,-320 0,-177 143,-320 320,-320zm0 1280c177,0 320,143 320,320 0,177 -143,320 -320,320 -177,0 -320,-143 -320,-320 0,-177 143,-320 320,-320zm960 640c177,0 320,143 320,320 0,177 -143,320 -320,320 -177,0 -320,-143 -320,-320 0,-177 143,-320 320,-320zm0 -2560c177,0 320,143 320,320 0,177 -143,320 -320,320 -177,0 -320,-143 -320,-320 0,-177 143,-320 320,-320zm0 1280c177,0 320,143 320,320 0,177 -143,320 -320,320 -177,0 -320,-143 -320,-320 0,-177 143,-320 320,-320zm960 -640c177,0 320,143 320,320 0,177 -143,320 -320,320 -177,0 -320,-143 -320,-320 0,-177 143,-320 320,-320zm0 1280c177,0 320,143 320,320 0,177 -143,320 -320,320 -177,0 -320,-143 -320,-320 0,-177 143,-320 320,-320z"/>
</svg>
