<?xml version="1.0" encoding="UTF-8"?>
<!DOCTYPE svg PUBLIC "-//W3C//DTD SVG 1.1//EN" "http://www.w3.org/Graphics/SVG/1.1/DTD/svg11.dtd">
<svg xmlns="http://www.w3.org/2000/svg" xml:space="preserve" width="1024px" height="1024px" shape-rendering="geometricPrecision" text-rendering="geometricPrecision" image-rendering="optimizeQuality" fill-rule="nonzero" clip-rule="evenodd" viewBox="0 0 10240 10240" xmlns:xlink="http://www.w3.org/1999/xlink">
	<title>person icon</title>
	<desc>person icon from the IconExperience.com O-Collection. Copyright by INCORS GmbH (www.incors.com).</desc>
	<path id="curve2" fill="#4D82B8" d="M6959 7002l-559 1958c-97,340 -640,640 -1280,640 -640,0 -1183,-300 -1280,-640l-559 -1958c580,278 1374,358 1839,358 465,0 1259,-80 1839,-358z"/>
	<path id="curve1" fill="#4D82B8" d="M7360 6065c0,699 -1344,975 -2240,975 -896,0 -2240,-276 -2240,-975 0,-927 343,-1860 876,-2474 348,351 831,569 1364,569 533,0 1016,-218 1364,-569 533,614 876,1547 876,2474z"/>
	<path id="curve0" fill="#4D82B8" d="M5120 640c884,0 1600,716 1600,1600 0,884 -716,1600 -1600,1600 -884,0 -1600,-716 -1600,-1600 0,-884 716,-1600 1600,-1600z"/>
</svg>
