<?xml version="1.0" encoding="UTF-8"?>
<!DOCTYPE svg PUBLIC "-//W3C//DTD SVG 1.1//EN" "http://www.w3.org/Graphics/SVG/1.1/DTD/svg11.dtd">
<svg xmlns="http://www.w3.org/2000/svg" xml:space="preserve" width="1024px" height="1024px" shape-rendering="geometricPrecision" text-rendering="geometricPrecision" image-rendering="optimizeQuality" fill-rule="nonzero" clip-rule="evenodd" viewBox="0 0 10240 10240" xmlns:xlink="http://www.w3.org/1999/xlink">
	<title>pet_bottle icon</title>
	<desc>pet_bottle icon from the IconExperience.com O-Collection. Copyright by INCORS GmbH (www.incors.com).</desc>
	<path id="curve1" fill="#808080" d="M7039 4829c-4,160 -47,314 -128,452 84,145 129,311 129,479 0,168 -45,335 -129,480 84,145 129,312 129,480 0,168 -45,335 -129,480 84,145 129,312 129,480l0 1280c0,353 -287,640 -640,640l-2560 0c-353,0 -640,-287 -640,-640l0 -1280c0,-168 45,-335 129,-480 -84,-145 -129,-312 -129,-480 0,-168 45,-335 129,-480 -84,-145 -129,-312 -129,-480 0,-168 45,-335 129,-480 -84,-145 -129,-312 -129,-480l1 -320c0,-482 98,-860 293,-1155 162,-245 384,-425 666,-553l0 -532 640 0 -1 750c0,135 -85,260 -220,304 -251,82 -435,205 -553,384 -125,189 -187,451 -187,802l1 320c0,136 54,177 135,269 117,132 105,333 -27,450 -70,61 -108,148 -108,241 0,136 54,177 135,269 117,132 105,333 -27,450 -70,61 -108,148 -108,241 0,139 56,179 135,269 117,132 105,333 -27,450 -70,61 -108,148 -108,241l0 1280c0,0 0,0 0,0l0 0 0 0c0,0 0,0 0,0l2560 0c0,0 0,0 0,0l0 0 0 0c0,0 0,0 0,0l0 -1280c0,-139 -56,-179 -135,-269 -117,-132 -105,-333 27,-450 70,-61 108,-148 108,-241 0,-139 -56,-178 -135,-269 -117,-132 -105,-333 27,-450 70,-61 108,-148 108,-241 0,-154 -48,-170 -135,-269 -117,-132 -105,-333 27,-450 73,-64 108,-145 108,-242l0 -319c0,-352 -62,-615 -186,-802 -115,-175 -294,-296 -536,-378 -137,-36 -238,-161 -238,-310l0 -750 640 0 0 532c282,128 504,308 666,553 196,296 294,674 294,1155 0,108 8,245 -1,349zm-639 4131l0 0 0 0c0,0 0,0 0,0 0,0 0,0 0,0l0 0 0 0zm-2560 0l0 0c0,0 0,0 0,0 0,0 0,0 0,0l0 0z"/>
	<path id="curve0" fill="#4D82B8" d="M4480 640l1280 0c176,0 320,144 320,320l0 800c0,88 -72,160 -160,160l-1600 0c-88,0 -160,-72 -160,-160l0 -800c0,-176 144,-320 320,-320z"/>
</svg>
