<?xml version="1.0" encoding="UTF-8"?>
<!DOCTYPE svg PUBLIC "-//W3C//DTD SVG 1.1//EN" "http://www.w3.org/Graphics/SVG/1.1/DTD/svg11.dtd">
<svg xmlns="http://www.w3.org/2000/svg" xml:space="preserve" width="1024px" height="1024px" shape-rendering="geometricPrecision" text-rendering="geometricPrecision" image-rendering="optimizeQuality" fill-rule="nonzero" clip-rule="evenodd" viewBox="0 0 10240 10240" xmlns:xlink="http://www.w3.org/1999/xlink">
	<title>petri_dish icon</title>
	<desc>petri_dish icon from the IconExperience.com O-Collection. Copyright by INCORS GmbH (www.incors.com).</desc>
	<path id="curve1" fill="#76A797" d="M7200 6400c619,0 1120,215 1120,480 0,265 -501,480 -1120,480 -619,0 -1120,-215 -1120,-480 0,-265 501,-480 1120,-480zm-3840 0c619,0 1120,215 1120,480 0,63 -28,123 -79,177 113,-11 232,-17 354,-17 732,0 1325,215 1325,480 0,265 -593,480 -1325,480 -731,0 -1325,-215 -1325,-480 0,-58 29,-113 80,-164 -49,3 -99,4 -150,4 -619,0 -1120,-215 -1120,-480 0,-265 501,-480 1120,-480z"/>
	<path id="curve0" fill="#808080" d="M9600 4150l0 2890c0,3 0,7 0,10 -7,583 -550,1082 -1425,1419 -789,303 -1869,491 -3055,491 -1186,0 -2266,-188 -3055,-491 -876,-337 -1419,-837 -1425,-1420 0,-3 0,-6 0,-9l0 -2889c6,-584 549,-1083 1425,-1420 789,-303 1869,-491 3055,-491 1186,0 2266,188 3055,491 876,337 1419,836 1425,1419zm-640 1869l0 -838c-216,154 -480,291 -785,408 -789,303 -1869,491 -3055,491 -1186,0 -2266,-188 -3055,-491 -305,-117 -569,-254 -785,-408l0 838c121,-87 258,-168 408,-243 295,135 607,238 921,321 -111,34 -217,71 -317,109 -625,241 -1012,538 -1012,834 0,296 387,593 1012,834 717,275 1716,446 2828,446 1112,0 2111,-171 2828,-446 625,-241 1012,-538 1012,-834 0,-296 -387,-593 -1012,-834 -100,-38 -206,-75 -317,-109 314,-83 626,-186 921,-321 150,76 287,156 408,243zm-1012 -2693c-717,-276 -1716,-446 -2828,-446 -1112,0 -2111,170 -2828,446 -625,241 -1012,538 -1012,834 0,296 387,593 1012,834 717,275 1716,446 2828,446 1112,0 2111,-171 2828,-446 625,-241 1012,-538 1012,-834 0,-296 -387,-593 -1012,-834z"/>
</svg>
