<?xml version="1.0" encoding="UTF-8"?>
<!DOCTYPE svg PUBLIC "-//W3C//DTD SVG 1.1//EN" "http://www.w3.org/Graphics/SVG/1.1/DTD/svg11.dtd">
<svg xmlns="http://www.w3.org/2000/svg" xml:space="preserve" width="1024px" height="1024px" shape-rendering="geometricPrecision" text-rendering="geometricPrecision" image-rendering="optimizeQuality" fill-rule="nonzero" clip-rule="evenodd" viewBox="0 0 10240 10240" xmlns:xlink="http://www.w3.org/1999/xlink">
	<title>phone_receiver2 icon</title>
	<desc>phone_receiver2 icon from the IconExperience.com O-Collection. Copyright by INCORS GmbH (www.incors.com).</desc>
	<path id="curve0" fill="#808080" d="M4528 6832l-250 -248c-297,-295 -759,-347 -1027,-115l-1464 1264c-268,232 -245,662 52,957l270 268c745,740 1875,847 2569,286 1933,-1560 3315,-3736 3916,-6163 216,-872 -349,-1867 -1323,-2246l-353 -137c-389,-152 -785,5 -882,349l-529 1872c-97,343 140,747 529,898l327 127c178,69 294,240 276,406 -114,1067 -720,2020 -1632,2568 -142,85 -343,49 -479,-86z"/>
</svg>
