<?xml version="1.0" encoding="UTF-8"?>
<!DOCTYPE svg PUBLIC "-//W3C//DTD SVG 1.1//EN" "http://www.w3.org/Graphics/SVG/1.1/DTD/svg11.dtd">
<svg xmlns="http://www.w3.org/2000/svg" xml:space="preserve" width="1024px" height="1024px" shape-rendering="geometricPrecision" text-rendering="geometricPrecision" image-rendering="optimizeQuality" fill-rule="nonzero" clip-rule="evenodd" viewBox="0 0 10240 10240" xmlns:xlink="http://www.w3.org/1999/xlink">
	<title>phone_speaker icon</title>
	<desc>phone_speaker icon from the IconExperience.com O-Collection. Copyright by INCORS GmbH (www.incors.com).</desc>
	<path id="curve4" fill="#808080" d="M6049 7227l-216 -212c-257,-253 -656,-297 -888,-98l-1263 1083c-232,199 -212,567 45,820l233 230c643,634 1619,726 2218,245 1670,-1337 2864,-3202 3382,-5283 187,-747 -301,-1600 -1143,-1925l-304 -118c-336,-129 -678,5 -762,300l-457 1604c-84,295 122,640 457,770l282 109c154,59 254,206 239,348 -99,914 -622,1731 -1409,2201 -123,73 -297,42 -414,-74z"/>
	<path id="curve3" fill="#4D82B8" d="M4160 1041c1104,284 1920,1286 1920,2479 0,1193 -816,2195 -1920,2479l0 -668c746,-264 1280,-975 1280,-1811 0,-836 -534,-1547 -1280,-1811l0 -668z"/>
	<path id="curve2" fill="#4D82B8" d="M4160 2411c383,222 640,635 640,1109 0,474 -257,887 -640,1109l0 -2218z"/>
	<path id="curve1" fill="#4D82B8" d="M960 2240l640 0 0 2560 -640 0c-220,0 -320,-144 -320,-320l0 -1920c0,-176 100,-320 320,-320z"/>
	<path id="curve0" fill="#4D82B8" d="M3520 640l0 0c176,0 320,144 320,320l0 5120c0,176 -144,320 -320,320l0 0c-176,0 -320,-144 -320,-320l-1280 -1280 0 -2560 1280 -1280c0,-176 144,-320 320,-320z"/>
</svg>
