<?xml version="1.0" encoding="UTF-8"?>
<!DOCTYPE svg PUBLIC "-//W3C//DTD SVG 1.1//EN" "http://www.w3.org/Graphics/SVG/1.1/DTD/svg11.dtd">
<svg xmlns="http://www.w3.org/2000/svg" xml:space="preserve" width="1024px" height="1024px" shape-rendering="geometricPrecision" text-rendering="geometricPrecision" image-rendering="optimizeQuality" fill-rule="nonzero" clip-rule="evenodd" viewBox="0 0 10240 10240" xmlns:xlink="http://www.w3.org/1999/xlink">
	<title>phone_speech_bubble icon</title>
	<desc>phone_speech_bubble icon from the IconExperience.com O-Collection. Copyright by INCORS GmbH (www.incors.com).</desc>
	<path id="curve1" fill="#808080" d="M6049 6587l-216 -212c-257,-253 -656,-297 -888,-98l-1263 1083c-232,199 -212,567 45,820l233 230c643,634 1619,726 2218,245 1670,-1337 2864,-3202 3382,-5283 187,-747 -301,-1600 -1143,-1925l-304 -118c-336,-129 -678,5 -762,300l-457 1604c-84,295 122,640 457,770l282 109c154,59 254,206 239,348 -99,914 -622,1731 -1409,2201 -123,73 -297,42 -414,-74z"/>
	<path id="curve0" fill="#4D82B8" d="M3520 960c-1414,0 -2560,1013 -2560,2263 0,585 252,1119 664,1520 62,60 99,131 117,220 183,895 850,1551 1779,1551 -121,-136 -203,-305 -257,-489 -37,-127 -21,-256 48,-366 69,-110 171,-171 290,-174 1377,-38 2479,-1036 2479,-2262 0,-1250 -1146,-2263 -2560,-2263zm-841 4537c-153,-178 -258,-407 -310,-662 -44,-212 -143,-399 -298,-550 -291,-283 -471,-653 -471,-1062 0,-1000 998,-1623 1920,-1623 922,0 1920,623 1920,1623 0,974 -954,1597 -1856,1622 -340,9 -636,188 -815,475 -36,57 -66,116 -90,177z"/>
</svg>
