<?xml version="1.0" encoding="UTF-8"?>
<!DOCTYPE svg PUBLIC "-//W3C//DTD SVG 1.1//EN" "http://www.w3.org/Graphics/SVG/1.1/DTD/svg11.dtd">
<svg xmlns="http://www.w3.org/2000/svg" xml:space="preserve" width="1024px" height="1024px" shape-rendering="geometricPrecision" text-rendering="geometricPrecision" image-rendering="optimizeQuality" fill-rule="nonzero" clip-rule="evenodd" viewBox="0 0 10240 10240" xmlns:xlink="http://www.w3.org/1999/xlink">
	<title>phone_conference icon</title>
	<desc>phone_conference icon from the IconExperience.com O-Collection. Copyright by INCORS GmbH (www.incors.com).</desc>
	<path id="curve6" fill="#808080" d="M6049 7227l-216 -212c-257,-253 -656,-297 -888,-98l-1263 1083c-232,199 -212,567 45,820l233 230c643,634 1619,726 2218,245 1670,-1337 2864,-3202 3382,-5283 187,-747 -301,-1600 -1143,-1925l-304 -118c-336,-129 -678,5 -762,300l-457 1604c-84,295 122,640 457,770l282 109c154,59 254,206 239,348 -99,914 -622,1731 -1409,2201 -123,73 -297,42 -414,-74z"/>
	<path id="curve5" fill="#4D82B8" d="M6400 5150c0,385 -750,564 -1366,601 -91,-351 -254,-681 -490,-958l-32 -37c123,-177 212,-379 256,-598 11,0 21,0 32,0 426,0 814,-167 1101,-439 307,360 499,868 499,1431zm-1600 -3872c707,0 1280,573 1280,1280 0,707 -573,1280 -1280,1280l0 0c-1,-762 -535,-1400 -1249,-1559 127,-573 638,-1001 1249,-1001z"/>
	<path id="curve4" fill="#4D82B8" d="M4800 1278c707,0 1280,573 1280,1280 0,707 -573,1280 -1280,1280l0 0c-1,-762 -535,-1400 -1249,-1559 127,-573 638,-1001 1249,-1001z"/>
	<path id="curve3" fill="#4D82B8" d="M4800 6433c0,435 -960,607 -1600,607 -640,0 -1600,-172 -1600,-607 0,-564 192,-1072 499,-1432 287,272 675,439 1101,439 426,0 814,-167 1101,-439 307,360 499,868 499,1432z"/>
	<path id="curve2" fill="#4D82B8" d="M3200 2560c707,0 1280,573 1280,1280 0,707 -573,1280 -1280,1280 -707,0 -1280,-573 -1280,-1280 0,-707 573,-1280 1280,-1280z"/>
	<path id="curve1" fill="#4D82B8" d="M1631 5109c-605,-43 -1311,-223 -1311,-596 0,-564 192,-1072 499,-1432 222,211 505,358 818,414 -24,111 -37,227 -37,345 0,341 107,657 288,916l-32 37c-84,99 -159,205 -225,316z"/>
	<path id="curve0" fill="#4D82B8" d="M1920 640c707,0 1280,573 1280,1280 0,111 -14,218 -40,321 -634,15 -1176,400 -1421,946 -621,-88 -1099,-622 -1099,-1267 0,-707 573,-1280 1280,-1280z"/>
</svg>
