<?xml version="1.0" encoding="UTF-8"?>
<!DOCTYPE svg PUBLIC "-//W3C//DTD SVG 1.1//EN" "http://www.w3.org/Graphics/SVG/1.1/DTD/svg11.dtd">
<svg xmlns="http://www.w3.org/2000/svg" xml:space="preserve" width="1024px" height="1024px" shape-rendering="geometricPrecision" text-rendering="geometricPrecision" image-rendering="optimizeQuality" fill-rule="nonzero" clip-rule="evenodd" viewBox="0 0 10240 10240" xmlns:xlink="http://www.w3.org/1999/xlink">
	<title>phone_receiver icon</title>
	<desc>phone_receiver icon from the IconExperience.com O-Collection. Copyright by INCORS GmbH (www.incors.com).</desc>
	<path id="curve0" fill="#808080" d="M6810 5841l-71 341c-84,407 122,821 459,922l1834 553c337,102 680,-147 764,-553l77 -368c211,-1018 -309,-2021 -1146,-2304 -2334,-789 -4880,-789 -7213,0 -838,283 -1357,1286 -1146,2304l76 368c84,406 428,655 765,553l1834 -553c337,-101 543,-515 459,-922l-71 -341c-39,-185 40,-374 187,-447 945,-473 2060,-473 3005,0 147,73 226,262 187,447z"/>
</svg>
