<?xml version="1.0" encoding="UTF-8"?>
<!DOCTYPE svg PUBLIC "-//W3C//DTD SVG 1.1//EN" "http://www.w3.org/Graphics/SVG/1.1/DTD/svg11.dtd">
<svg xmlns="http://www.w3.org/2000/svg" xml:space="preserve" width="1024px" height="1024px" shape-rendering="geometricPrecision" text-rendering="geometricPrecision" image-rendering="optimizeQuality" fill-rule="nonzero" clip-rule="evenodd" viewBox="0 0 10240 10240" xmlns:xlink="http://www.w3.org/1999/xlink">
	<title>photographic_filters icon</title>
	<desc>photographic_filters icon from the IconExperience.com O-Collection. Copyright by INCORS GmbH (www.incors.com).</desc>
	<path id="curve3" fill="#808080" d="M5920 640c2032,0 3680,1648 3680,3680 0,687 -189,1330 -517,1881 128,-391 197,-808 197,-1241 0,-2209 -1791,-4000 -4000,-4000 -433,0 -850,69 -1241,197 551,-328 1194,-517 1881,-517z"/>
	<path id="curve2" fill="#808080" d="M5280 1280c2032,0 3680,1648 3680,3680 0,687 -189,1330 -516,1881 127,-391 196,-808 196,-1241 0,-2209 -1791,-4000 -4000,-4000 -433,0 -850,69 -1241,196 551,-327 1194,-516 1881,-516z"/>
	<path id="curve1" fill="#76A797" d="M4640 2880c1502,0 2720,1218 2720,2720 0,1502 -1218,2720 -2720,2720 -1502,0 -2720,-1218 -2720,-2720 0,-1502 1218,-2720 2720,-2720zm-1520 2720c0,-420 170,-800 445,-1075 275,-275 655,-445 1075,-445 177,0 320,-143 320,-320 0,-177 -143,-320 -320,-320 -596,0 -1136,242 -1527,633 -391,391 -633,931 -633,1527 0,177 143,320 320,320 177,0 320,-143 320,-320z"/>
	<path id="curve0" fill="#808080" d="M4640 1920c2032,0 3680,1648 3680,3680 0,2032 -1648,3680 -3680,3680 -2032,0 -3680,-1648 -3680,-3680 0,-2032 1648,-3680 3680,-3680zm0 640c-1679,0 -3040,1361 -3040,3040 0,1679 1361,3040 3040,3040 1679,0 3040,-1361 3040,-3040 0,-1679 -1361,-3040 -3040,-3040z"/>
</svg>
