<?xml version="1.0" encoding="UTF-8"?>
<!DOCTYPE svg PUBLIC "-//W3C//DTD SVG 1.1//EN" "http://www.w3.org/Graphics/SVG/1.1/DTD/svg11.dtd">
<svg xmlns="http://www.w3.org/2000/svg" xml:space="preserve" width="1024px" height="1024px" shape-rendering="geometricPrecision" text-rendering="geometricPrecision" image-rendering="optimizeQuality" fill-rule="nonzero" clip-rule="evenodd" viewBox="0 0 10240 10240" xmlns:xlink="http://www.w3.org/1999/xlink">
	<title>photos icon</title>
	<desc>photos icon from the IconExperience.com O-Collection. Copyright by INCORS GmbH (www.incors.com).</desc>
	<path id="curve5" fill="#808080" d="M1920,1280 9600,1280 9600,7680 9280,7680 9280,1600 1920,1600z"/>
	<path id="curve4" fill="#808080" d="M1280,1920 8960,1920 8960,8320 8640,8320 8640,2240 1280,2240z"/>
	<path id="curve3" fill="#76A797" d="M4178 6576c-1075,-478 -1557,-1055 -2898,37l0 513 110 40c1075,394 1916,54 2788,-590z"/>
	<path id="curve2" fill="#76A797" d="M1280 7467c3200,1173 4480,-3627 6400,-1423l0 2276 -6400 0 0 -853z"/>
	<path id="curve1" fill="#4D82B8" d="M1280 3200l6400 0 0 2387c-302,-272 -663,-462 -1091,-449 -462,14 -882,261 -1246,525 -300,217 -583,458 -873,689 -149,-61 -298,-129 -450,-204 -360,-178 -731,-390 -1132,-457 -606,-100 -1138,167 -1608,516l0 -3007zm2560 320c-530,0 -960,420 -960,939 0,518 430,938 960,938 530,0 960,-420 960,-938 0,-519 -430,-939 -960,-939z"/>
	<path id="curve0" fill="#808080" d="M640 2560l7680 0 0 6400 -7680 0 0 -6400zm320 320l0 5760 7040 0 0 -5760 -7040 0z"/>
</svg>
