<?xml version="1.0" encoding="UTF-8"?>
<!DOCTYPE svg PUBLIC "-//W3C//DTD SVG 1.1//EN" "http://www.w3.org/Graphics/SVG/1.1/DTD/svg11.dtd">
<svg xmlns="http://www.w3.org/2000/svg" xml:space="preserve" width="1024px" height="1024px" shape-rendering="geometricPrecision" text-rendering="geometricPrecision" image-rendering="optimizeQuality" fill-rule="nonzero" clip-rule="evenodd" viewBox="0 0 10240 10240" xmlns:xlink="http://www.w3.org/1999/xlink">
	<title>photo_portrait icon</title>
	<desc>photo_portrait icon from the IconExperience.com O-Collection. Copyright by INCORS GmbH (www.incors.com).</desc>
	<path id="curve1" fill="#4D82B8" d="M2240 1600l5760 0 0 7040 -5760 0 0 -7040zm330 6720l5100 0c-76,-1101 -579,-1369 -1370,-1936 -198,123 -417,216 -649,273 -166,53 -341,87 -531,92 -190,-5 -365,-39 -531,-92 -232,-57 -451,-150 -649,-273 -791,567 -1294,835 -1370,1936zm2550 -5760c-1060,0 -1920,860 -1920,1920 0,1060 860,1920 1920,1920 1060,0 1920,-860 1920,-1920 0,-1060 -860,-1920 -1920,-1920z"/>
	<path id="curve0" fill="#808080" d="M1280 640l7680 0 0 8960 -7680 0 0 -8960zm640 640l0 7680 6400 0 0 -7680 -6400 0z"/>
</svg>
