<?xml version="1.0" encoding="UTF-8"?>
<!DOCTYPE svg PUBLIC "-//W3C//DTD SVG 1.1//EN" "http://www.w3.org/Graphics/SVG/1.1/DTD/svg11.dtd">
<svg xmlns="http://www.w3.org/2000/svg" xml:space="preserve" width="1024px" height="1024px" shape-rendering="geometricPrecision" text-rendering="geometricPrecision" image-rendering="optimizeQuality" fill-rule="nonzero" clip-rule="evenodd" viewBox="0 0 10240 10240" xmlns:xlink="http://www.w3.org/1999/xlink">
	<title>piece2 icon</title>
	<desc>piece2 icon from the IconExperience.com O-Collection. Copyright by INCORS GmbH (www.incors.com).</desc>
	<path id="curve0" fill="#76A797" d="M8000 7040c0,-261 294,-412 506,-260 135,97 290,152 454,152 530,0 960,-574 960,-1280 0,-707 -430,-1280 -960,-1280 -164,0 -319,54 -454,151 -212,152 -506,1 -506,-260 0,-391 0,-1312 0,-1703l-1492 0c-261,0 -412,-294 -260,-506 97,-135 152,-290 152,-454 0,-530 -573,-960 -1280,-960 -707,0 -1280,430 -1280,960 0,164 55,319 152,454 152,212 1,506 -260,506l-1492 0 0 1703c0,261 -294,412 -506,260 -135,-97 -290,-151 -454,-151 -530,0 -960,573 -960,1280 0,706 430,1280 960,1280 164,0 319,-55 454,-152 212,-152 506,-1 506,260l0 1920 1492 0c261,0 412,-294 260,-506 -97,-135 -152,-290 -152,-454 0,-530 573,-960 1280,-960 707,0 1280,430 1280,960 0,164 -55,319 -152,454 -152,212 -1,506 260,506l1492 0c0,-604 0,-1316 0,-1920z"/>
</svg>
