<?xml version="1.0" encoding="UTF-8"?>
<!DOCTYPE svg PUBLIC "-//W3C//DTD SVG 1.1//EN" "http://www.w3.org/Graphics/SVG/1.1/DTD/svg11.dtd">
<svg xmlns="http://www.w3.org/2000/svg" xml:space="preserve" width="1024px" height="1024px" shape-rendering="geometricPrecision" text-rendering="geometricPrecision" image-rendering="optimizeQuality" fill-rule="nonzero" clip-rule="evenodd" viewBox="0 0 10240 10240" xmlns:xlink="http://www.w3.org/1999/xlink">
	<title>pieces icon</title>
	<desc>pieces icon from the IconExperience.com O-Collection. Copyright by INCORS GmbH (www.incors.com).</desc>
	<path id="curve2" fill="#808080" d="M3520 7040c0,-353 287,-640 640,-640 144,0 277,47 383,128 106,79 256,4 256,-128l1 -960 960 -1c132,0 207,-150 127,-256 -80,-106 -127,-239 -127,-383 0,-353 287,-640 640,-640 353,0 640,287 640,640 0,144 -48,277 -128,383 -79,106 -4,256 128,256l1280 1 1 960c0,132 150,207 256,127 106,-80 239,-127 383,-127 353,0 640,287 640,640 0,353 -287,640 -640,640 -144,0 -277,-47 -383,-128 -106,-79 -256,-4 -256,128l-1 640 -1280 1c-132,0 -207,150 -127,256 80,106 127,239 127,383 0,353 -287,640 -640,640 -353,0 -640,-287 -640,-640 0,-144 48,-277 128,-383 79,-106 4,-256 -128,-256l-960 -1 -1 -640c0,-132 -150,-207 -256,-127 -106,80 -239,127 -383,127 -353,0 -640,-287 -640,-640z"/>
	<path id="curve1" fill="#4D82B8" d="M8320 1280l1 1280c0,132 150,207 256,127 106,-80 239,-127 383,-127 353,0 640,287 640,640 0,353 -287,640 -640,640 -144,0 -277,-47 -383,-128 -106,-79 -256,-4 -256,128l-1 1280c-359,0 -692,0 -1015,0 36,-100 55,-208 55,-320 0,-530 -430,-960 -960,-960 -530,0 -960,430 -960,960 0,112 19,220 55,320 -223,0 -453,0 -695,0l-1 -1280c0,-132 -150,-207 -256,-127 -106,80 -239,127 -383,127 -353,0 -640,-287 -640,-640 0,-353 287,-640 640,-640 144,0 277,47 383,128 106,79 256,4 256,-128l1 -1280 3520 0z"/>
	<path id="curve0" fill="#808080" d="M4480 4105l0 1015 -1280 1c-132,0 -207,150 -127,256 80,106 127,239 127,383 0,353 -287,640 -640,640 -353,0 -640,-287 -640,-640 0,-144 48,-277 128,-383 79,-106 4,-256 -128,-256l-1280 -1 0 -3200c0,-353 288,-640 640,-640l3200 0 1 1015c-101,-36 -209,-55 -321,-55 -530,0 -960,430 -960,960 0,530 430,960 960,960 112,0 220,-19 320,-55z"/>
</svg>
