<?xml version="1.0" encoding="UTF-8"?>
<!DOCTYPE svg PUBLIC "-//W3C//DTD SVG 1.1//EN" "http://www.w3.org/Graphics/SVG/1.1/DTD/svg11.dtd">
<svg xmlns="http://www.w3.org/2000/svg" xml:space="preserve" width="1024px" height="1024px" shape-rendering="geometricPrecision" text-rendering="geometricPrecision" image-rendering="optimizeQuality" fill-rule="nonzero" clip-rule="evenodd" viewBox="0 0 10240 10240" xmlns:xlink="http://www.w3.org/1999/xlink">
	<title>pig icon</title>
	<desc>pig icon from the IconExperience.com O-Collection. Copyright by INCORS GmbH (www.incors.com).</desc>
	<path id="curve0" fill="#EFC1B4" d="M7045 8960l-688 0 247 -500c39,-78 56,-153 56,-240l0 -174c0,-14 0,-28 -1,-42 209,123 442,191 687,223l0 39c0,21 -2,38 -6,56l-295 638zm-4572 -2784c-41,-141 -104,-264 -173,-394 -109,-202 -190,-366 -143,-606 19,-92 -42,-181 -134,-199 -92,-18 -181,42 -199,134 -67,337 24,546 177,831 58,110 115,218 149,338 14,48 37,91 69,128 33,37 73,66 118,86 45,19 94,28 143,26 49,-2 97,-15 140,-39 174,-92 333,-241 459,-391 128,-152 252,-343 317,-532 31,-88 -15,-185 -104,-216 -88,-31 -185,16 -216,104 -52,151 -156,305 -257,426 -94,113 -216,231 -346,304zm6407 -441c33,11 70,22 109,32 -4,-81 13,-163 58,-246 23,-43 54,-86 94,-128 146,-156 308,-210 449,-195 80,9 152,39 212,85 59,45 106,105 137,175 60,137 59,312 -39,483 -58,100 -157,158 -276,187 73,50 148,94 213,130 78,42 107,138 65,216 -42,78 -138,107 -216,65 -135,-73 -306,-179 -442,-307 -36,-34 -70,-70 -101,-107 -91,-15 -181,-35 -263,-58 -4,176 -14,358 -29,547 -47,619 -163,1206 -360,1794l-211 460c-27,57 -81,92 -145,92l-740 0 242 -517c19,-56 27,-109 27,-168l0 -332c-424,-11 -832,-101 -1120,-426 -421,214 -824,300 -1290,305 -43,0 -97,-7 -140,-10 -104,-9 -209,-18 -313,-26 -274,-24 -547,-47 -821,-71 -14,174 -85,327 -212,453l-59 58c-42,42 -73,85 -100,139l-255 508c-28,54 -81,87 -142,87l-759 0 247 -494c39,-77 56,-151 56,-238l0 -170c0,-122 -34,-224 -108,-322l-99 -131c-388,346 -1063,500 -1590,515 -56,2 -106,-23 -137,-70l-315 -470c-37,-55 -36,-125 3,-179 267,-374 401,-704 440,-1185 12,-153 13,-307 13,-461 -81,-54 -136,-114 -199,-196 -41,-53 -77,-98 -130,-140 -64,-50 -138,-85 -214,-114 -44,-16 -76,-48 -92,-93 -17,-44 -13,-89 10,-130 260,-474 838,-549 1368,-552 152,-115 319,-216 493,-292 65,-29 130,-65 192,-100 87,-49 172,-100 257,-150 225,-132 452,-257 688,-368 1142,-537 2967,-698 4122,-149 1081,514 1391,1276 1422,2264zm447 91c31,2 61,4 90,4 103,0 186,-13 206,-49 43,-74 46,-143 23,-194 -9,-21 -22,-38 -38,-51 -15,-11 -32,-18 -51,-20 -50,-6 -114,21 -184,96 -19,21 -34,41 -45,60 -25,47 -24,94 -7,140 2,4 4,9 6,14zm-4250 2290c-30,35 -64,68 -97,101 -43,43 -74,87 -101,141l-255 514c-27,55 -80,88 -142,88l-759 0 247 -500c15,-30 27,-60 36,-90 93,-97 166,-207 216,-327 184,16 368,32 552,47 101,9 202,18 303,26z"/>
</svg>
