<?xml version="1.0" encoding="UTF-8"?>
<!DOCTYPE svg PUBLIC "-//W3C//DTD SVG 1.1//EN" "http://www.w3.org/Graphics/SVG/1.1/DTD/svg11.dtd">
<svg xmlns="http://www.w3.org/2000/svg" xml:space="preserve" width="1024px" height="1024px" shape-rendering="geometricPrecision" text-rendering="geometricPrecision" image-rendering="optimizeQuality" fill-rule="nonzero" clip-rule="evenodd" viewBox="0 0 10240 10240" xmlns:xlink="http://www.w3.org/1999/xlink">
	<title>piggy_bank icon</title>
	<desc>piggy_bank icon from the IconExperience.com O-Collection. Copyright by INCORS GmbH (www.incors.com).</desc>
	<path id="curve1" fill="#4D82B8" d="M8869 4228c130,-22 268,4 390,76 280,165 422,605 265,961 -109,250 -324,479 -565,533 -10,724 -308,1389 -803,1921l161 1508c11,97 -10,186 -83,260 -74,74 -173,113 -287,113l-1181 0c-157,0 -291,-77 -349,-201l-261 -557c-330,77 -677,118 -1036,118 -149,0 -297,-7 -441,-21l-217 460c-58,124 -192,201 -349,201l-1173 0c-254,0 -396,-215 -379,-381l107 -996c-459,-318 -827,-723 -1069,-1184l-700 -187c-167,-44 -259,-197 -259,-364l0 -1484c0,-187 82,-289 262,-337l697 -186c135,-257 310,-497 517,-714 -112,-434 -264,-807 -445,-1146 -116,-219 -132,-669 285,-670 820,0 1489,197 1919,781 390,-111 809,-172 1245,-172 1815,0 3336,1050 3737,2460 361,-120 194,-487 33,-582 -22,-12 -44,-22 -66,-30 -113,-38 -183,-142 45,-180zm-5989 -68c-177,0 -320,143 -320,320 0,177 143,320 320,320 177,0 320,-143 320,-320 0,-177 -143,-320 -320,-320z"/>
	<path id="curve0" fill="#EDC87E" d="M5440 320c884,0 1600,716 1600,1600 0,234 -50,456 -141,657 -99,-40 -200,-76 -302,-109 79,-166 123,-352 123,-548 0,-707 -573,-1280 -1280,-1280 -707,0 -1280,573 -1280,1280 0,140 23,275 64,402 -77,14 -155,31 -232,49 -38,-42 -77,-81 -117,-119 -23,-107 -35,-218 -35,-332 0,-884 716,-1600 1600,-1600zm843 2059c-380,-93 -771,-139 -1163,-139 -192,0 -383,11 -573,33 -43,-109 -67,-228 -67,-353 0,-530 430,-960 960,-960 530,0 960,430 960,960 0,166 -42,323 -117,459z"/>
</svg>
