<?xml version="1.0" encoding="UTF-8"?>
<!DOCTYPE svg PUBLIC "-//W3C//DTD SVG 1.1//EN" "http://www.w3.org/Graphics/SVG/1.1/DTD/svg11.dtd">
<svg xmlns="http://www.w3.org/2000/svg" xml:space="preserve" width="1024px" height="1024px" shape-rendering="geometricPrecision" text-rendering="geometricPrecision" image-rendering="optimizeQuality" fill-rule="nonzero" clip-rule="evenodd" viewBox="0 0 10240 10240" xmlns:xlink="http://www.w3.org/1999/xlink">
	<title>pill icon</title>
	<desc>pill icon from the IconExperience.com O-Collection. Copyright by INCORS GmbH (www.incors.com).</desc>
	<path id="curve1" fill="#808080" d="M7680 3200c1060,0 1920,860 1920,1920 0,1060 -860,1920 -1920,1920l-2240 0 0 -640 2240 0c707,0 1280,-573 1280,-1280 0,-707 -573,-1280 -1280,-1280l-2240 0 0 -640 2240 0z"/>
	<path id="curve0" fill="#4D82B8" d="M5120 7040l-2560 0c-1060,0 -1920,-860 -1920,-1920 0,-1060 860,-1920 1920,-1920l2560 0 0 3840zm-960 -2560c176,0 320,-144 320,-320l0 0c0,-176 -144,-320 -320,-320l-1600 0c-707,0 -1280,573 -1280,1280 0,446 228,838 573,1067 89,60 193,71 293,32 100,-39 168,-117 194,-220 34,-134 -18,-269 -133,-345 -173,-115 -287,-311 -287,-534 0,-354 286,-640 640,-640l1600 0z"/>
</svg>
