<?xml version="1.0" encoding="UTF-8"?>
<!DOCTYPE svg PUBLIC "-//W3C//DTD SVG 1.1//EN" "http://www.w3.org/Graphics/SVG/1.1/DTD/svg11.dtd">
<svg xmlns="http://www.w3.org/2000/svg" xml:space="preserve" width="1024px" height="1024px" shape-rendering="geometricPrecision" text-rendering="geometricPrecision" image-rendering="optimizeQuality" fill-rule="nonzero" clip-rule="evenodd" viewBox="0 0 10240 10240" xmlns:xlink="http://www.w3.org/1999/xlink">
	<title>pilot icon</title>
	<desc>pilot icon from the IconExperience.com O-Collection. Copyright by INCORS GmbH (www.incors.com).</desc>
	<path id="curve3" fill="#EDC87E" d="M5760 6329l0 126c0,176 -63,328 -187,452l-207 207 394 2166 -640 640 -640 -640 394 -2166 -207 -207c-124,-124 -187,-276 -187,-452l0 -126c212,47 423,71 640,71 215,0 430,-24 640,-71z"/>
	<path id="curve2" fill="#4D82B8" d="M8320 8790c0,717 -1502,1050 -2735,1117l401 -401c77,-76 108,-177 89,-283l-364 -2001 88 -88c184,-185 281,-418 281,-679l0 -126c0,-31 -4,-61 -12,-89 209,-72 406,-168 589,-284 1082,807 1663,1074 1663,2834zm-3665 1117c-1233,-67 -2735,-400 -2735,-1116 0,-1759 582,-2029 1663,-2835 183,116 380,212 589,284 -8,28 -12,58 -12,89l0 126c0,261 97,494 281,679l88 88 -364 2001c-19,106 12,207 89,283l401 401z"/>
	<path id="curve1" fill="#EFC1B4" d="M7674 3702c-88,1328 -1198,2378 -2554,2378 -1356,0 -2466,-1050 -2554,-2378 657,421 2115,458 2554,458 439,0 1897,-37 2554,-458z"/>
	<path id="curve0" fill="#4D82B8" d="M7680 3200c0,353 -1146,640 -2560,640 -1414,0 -2560,-287 -2560,-640l5120 0zm-5120 -640c0,-320 -640,-658 -640,-960 0,-640 2240,-1280 3200,-1280 960,0 3200,640 3200,1280 0,302 -640,640 -640,960l-5120 0zm3840 -1600c0,192 -138,320 -320,320l-640 0c-93,0 -167,29 -220,76 -60,54 -150,55 -211,2 -56,-49 -129,-78 -209,-78l-640 0c-182,0 -320,-130 -320,-320l0 320c0,225 144,320 320,320l640 0c182,0 321,141 320,320 1,-174 137,-320 320,-320l640 0c176,0 320,-95 320,-320l0 -320z"/>
</svg>
