<?xml version="1.0" encoding="UTF-8"?>
<!DOCTYPE svg PUBLIC "-//W3C//DTD SVG 1.1//EN" "http://www.w3.org/Graphics/SVG/1.1/DTD/svg11.dtd">
<svg xmlns="http://www.w3.org/2000/svg" xml:space="preserve" width="1024px" height="1024px" shape-rendering="geometricPrecision" text-rendering="geometricPrecision" image-rendering="optimizeQuality" fill-rule="nonzero" clip-rule="evenodd" viewBox="0 0 10240 10240" xmlns:xlink="http://www.w3.org/1999/xlink">
	<title>pin icon</title>
	<desc>pin icon from the IconExperience.com O-Collection. Copyright by INCORS GmbH (www.incors.com).</desc>
	<path id="curve1" fill="#808080" d="M5537 5657c-1163,1107 -4024,3536 -4257,3303 -233,-233 2196,-3094 3303,-4257 238,388 566,716 954,954z"/>
	<path id="curve0" fill="#4D82B8" d="M7040 640c1414,0 2560,1146 2560,2560 0,1414 -1146,2560 -2560,2560 -1414,0 -2560,-1146 -2560,-2560 0,-1414 1146,-2560 2560,-2560zm0 640c-1060,0 -1920,860 -1920,1920 0,172 23,339 65,498 26,96 87,168 178,209 91,41 186,39 274,-6l1 0c137,-69 205,-221 166,-369 -29,-106 -44,-217 -44,-332 0,-707 573,-1280 1280,-1280 115,0 226,15 332,44 148,39 301,-29 369,-166l0 -1c45,-88 47,-183 6,-274 -41,-91 -113,-152 -209,-178 -159,-42 -326,-65 -498,-65z"/>
</svg>
