<?xml version="1.0" encoding="UTF-8"?>
<!DOCTYPE svg PUBLIC "-//W3C//DTD SVG 1.1//EN" "http://www.w3.org/Graphics/SVG/1.1/DTD/svg11.dtd">
<svg xmlns="http://www.w3.org/2000/svg" xml:space="preserve" width="1024px" height="1024px" shape-rendering="geometricPrecision" text-rendering="geometricPrecision" image-rendering="optimizeQuality" fill-rule="nonzero" clip-rule="evenodd" viewBox="0 0 10240 10240" xmlns:xlink="http://www.w3.org/1999/xlink">
	<title>pineapple icon</title>
	<desc>pineapple icon from the IconExperience.com O-Collection. Copyright by INCORS GmbH (www.incors.com).</desc>
	<path id="curve1" fill="#B89A7C" d="M6450 3976c738,579 1230,1706 1230,3384 0,832 -254,1518 -670,2012 -126,150 -294,228 -489,228l-2802 0c-195,0 -363,-78 -489,-228 -416,-494 -670,-1180 -670,-2012 0,-1678 492,-2805 1230,-3384 117,-92 245,-136 395,-136l1870 0c150,0 278,44 395,136zm-974 504l-712 0 -342 627 -304 -558c-2,-3 -4,-6 -6,-9 -84,74 -160,155 -230,243l358 657 -516 947 -328 -600c-43,155 -78,313 -106,471l252 462 -342 627 0 13c0,188 16,377 50,562l474 -869 516 947 -522 958 1 2 361 0 342 -627 342 627 712 0 342 -627 342 627 361 0c0,0 0,0 0,0l1 -2 -522 -958 516 -947 474 869c34,-185 50,-374 50,-562l0 -13 -342 -627 252 -462c-28,-158 -63,-316 -106,-471l-328 600 -516 -947 358 -657c-70,-88 -146,-169 -230,-243 -2,3 -4,6 -6,9l-304 558 -342 -627zm859 2240l-517 -947 -516 947 516 947 517 -947zm-698 -1280l-517 -947 -517 947 517 947 517 -947zm-517 3507l517 -947 -517 -947 -517 947 517 947zm-1215 -2227l517 947 516 -947 -516 -947 -517 947z"/>
	<path id="curve0" fill="#76A797" d="M3866 3573c-445,-223 -1085,-327 -1626,-53 260,-1055 1682,-1277 2641,-725 -214,200 -384,445 -497,725l-199 0c-113,0 -219,18 -319,53zm2542 12c394,-226 943,-330 1492,-51 -340,-1380 -2507,-1347 -3165,-14l1320 0c125,0 243,22 353,65zm-1261 -1003c416,-281 930,-417 1430,-388 224,-202 567,-337 1105,-336 -674,-935 -2222,-604 -2951,509 147,59 286,131 416,215zm1317 -1587c130,-93 286,-187 475,-286 -242,-132 -724,-188 -1188,-55 80,136 152,278 216,424 163,-46 330,-75 497,-83zm-1349 -675c215,239 403,537 549,864 -162,68 -315,153 -460,252 -193,-124 -402,-221 -622,-287 143,-313 326,-599 533,-829zm-1404 734c-139,-94 -308,-190 -511,-291 254,-126 754,-176 1244,-49 -66,117 -126,238 -180,362 -183,-30 -369,-37 -553,-22zm706 1211c-251,-64 -519,-92 -783,-79 -212,-122 -541,-187 -1074,-169 529,-736 1571,-831 2374,-371 -203,181 -377,389 -517,619z"/>
</svg>
