<?xml version="1.0" encoding="UTF-8"?>
<!DOCTYPE svg PUBLIC "-//W3C//DTD SVG 1.1//EN" "http://www.w3.org/Graphics/SVG/1.1/DTD/svg11.dtd">
<svg xmlns="http://www.w3.org/2000/svg" xml:space="preserve" width="1024px" height="1024px" shape-rendering="geometricPrecision" text-rendering="geometricPrecision" image-rendering="optimizeQuality" fill-rule="nonzero" clip-rule="evenodd" viewBox="0 0 10240 10240" xmlns:xlink="http://www.w3.org/1999/xlink">
	<title>pipette icon</title>
	<desc>pipette icon from the IconExperience.com O-Collection. Copyright by INCORS GmbH (www.incors.com).</desc>
	<path id="curve1" fill="#808080" d="M4977 3664l-2739 2740c-457,456 -229,1141 -685,1598l-800 800c-62,62 -62,164 0,226l459 459c62,62 164,62 226,0l800 -800c456,-457 1141,-229 1597,-685l2739 -2740c-532,-532 -1065,-1065 -1597,-1598zm0 457l456 456 -2982 2984c-52,51 -127,62 -191,27 -63,-35 -94,-104 -79,-175 11,-48 21,-97 31,-147 23,-113 45,-229 81,-339 38,-112 89,-211 173,-295l2511 -2511z"/>
	<path id="curve0" fill="#EDC87E" d="M7510 4372c457,-457 662,-251 1119,-708 655,-655 925,-1709 290,-2345 -568,-567 -1597,-457 -2345,291 -456,456 -251,662 -707,1118 -113,113 -404,40 -635,228 -73,61 -116,138 -126,229 -10,90 16,168 77,229l1642 1642c60,60 138,87 229,77 90,-10 168,-53 228,-126 189,-231 115,-522 228,-635z"/>
</svg>
