<?xml version="1.0" encoding="UTF-8"?>
<!DOCTYPE svg PUBLIC "-//W3C//DTD SVG 1.1//EN" "http://www.w3.org/Graphics/SVG/1.1/DTD/svg11.dtd">
<svg xmlns="http://www.w3.org/2000/svg" xml:space="preserve" width="1024px" height="1024px" shape-rendering="geometricPrecision" text-rendering="geometricPrecision" image-rendering="optimizeQuality" fill-rule="nonzero" clip-rule="evenodd" viewBox="0 0 10240 10240" xmlns:xlink="http://www.w3.org/1999/xlink">
	<title>pirates_ship icon</title>
	<desc>pirates_ship icon from the IconExperience.com O-Collection. Copyright by INCORS GmbH (www.incors.com).</desc>
	<path id="curve2" fill="#4D82B8" d="M1760 8320c218,394 639,660 1120,660 481,0 897,-264 1117,-654 218,394 640,654 1123,654 483,0 903,-262 1120,-659 219,393 638,659 1120,659 482,0 902,-266 1120,-660 218,394 638,660 1120,660l0 640c-410,0 -799,-130 -1120,-360 -321,230 -710,360 -1120,360 -408,0 -797,-129 -1117,-358 -321,233 -711,358 -1123,358 -411,0 -805,-124 -1126,-356 -320,228 -707,356 -1114,356 -410,0 -799,-130 -1120,-360 -321,230 -710,360 -1120,360l0 -640c482,0 902,-266 1120,-660z"/>
	<path id="curve1" fill="#B89A7C" d="M8320 7680c2,90 -2,218 -11,368 -44,28 -81,68 -109,117 -169,305 -490,495 -840,495 -350,0 -670,-189 -840,-495 -58,-104 -161,-165 -281,-164 -119,0 -222,61 -279,166 -169,308 -489,493 -840,493 -350,0 -674,-182 -844,-489 -57,-104 -159,-164 -278,-165 -120,0 -222,60 -280,163 -171,304 -489,491 -838,491 -350,0 -671,-190 -840,-495 -27,-49 -65,-89 -109,-117 -9,-150 -13,-278 -11,-368 573,-860 1916,-1463 2880,-1809l0 -271c0,-88 72,-160 160,-160l320 0c88,0 160,72 160,160l0 271c964,346 2307,949 2880,1809z"/>
	<path id="curve0" fill="#808080" d="M4800 320l640 0 0 960 2881 0c203,0 376,128 443,320l516 0 0 640 -399 0c53,383 79,769 79,1156 0,1152 -233,2249 -651,3242 -389,-151 -790,-277 -1200,-376 -447,-249 -920,-452 -1349,-614l0 -48c0,-265 -215,-480 -480,-480l-320 0c-265,0 -480,215 -480,480l0 48c-377,142 -788,317 -1186,525 -430,109 -848,265 -1363,465 -419,-994 -651,-2091 -651,-3244 0,-392 27,-777 79,-1154l-399 0 0 -640 516 0c67,-192 240,-320 443,-320l2881 0 0 -960zm-665 4270c-85,25 -169,14 -242,-34 -74,-48 -159,-70 -244,-68 -115,2 -181,131 -97,214 95,93 144,231 127,358 -15,114 121,181 214,120 69,-45 124,-110 153,-189 29,-79 89,-134 174,-160l325 -99c-102,-39 -205,-98 -276,-183l-134 41zm1923 -1028c120,-56 268,-253 134,-506 -54,-102 -27,-144 0,-252 134,-505 -402,-884 -1072,-884 -670,0 -1206,379 -1072,884 27,111 57,146 0,252 -134,253 14,450 134,506 396,182 536,253 536,379 0,253 134,253 402,253 268,0 402,0 402,-253 0,-126 140,-197 536,-379zm-496 -767c174,0 316,130 316,291 0,161 -142,292 -316,292 -174,0 -316,-131 -316,-292 0,-161 142,-291 316,-291zm-884 0c174,0 316,130 316,291 0,161 -142,292 -316,292 -174,0 -316,-131 -316,-292 0,-161 142,-291 316,-291zm565 678c71,153 213,180 123,349 -23,44 -104,140 -137,115 -80,-57 -154,-53 -235,0 -34,23 -97,-71 -120,-115 -75,-143 58,-223 123,-349 36,-69 213,-71 246,0zm-806 353c13,218 13,436 13,494 0,126 268,252 670,252 402,0 670,-126 670,-252 0,-58 0,-276 13,-494 -82,44 -147,88 -147,115 0,110 -22,349 -115,423 -111,89 -283,82 -421,82 -138,0 -310,7 -421,-82 -93,-74 -115,-313 -115,-423 0,-27 -65,-71 -147,-115zm1258 906l325 99c85,26 145,81 174,160 29,79 84,144 153,189 93,61 229,-6 214,-120 -17,-127 32,-265 127,-358 84,-83 18,-212 -97,-214 -85,-2 -170,20 -244,68 -73,48 -157,59 -242,34l-134 -41c-71,84 -174,144 -276,183zm363 -460l315 -96c85,-25 169,-14 242,34 74,48 159,70 244,68 115,-2 181,-131 97,-214 -95,-93 -144,-231 -127,-358 15,-114 -121,-181 -214,-120 -69,45 -124,110 -153,189 -29,79 -89,134 -174,160l-225 69c-3,89 -5,179 -5,268zm-1881 -268l-225 -69c-85,-26 -145,-81 -174,-160 -29,-79 -84,-144 -153,-189 -93,-61 -229,6 -214,120 17,127 -32,265 -127,358 -84,83 -18,212 97,214 85,2 170,-20 244,-68 73,-48 157,-59 242,-34l315 96c0,-89 -2,-179 -5,-268z"/>
</svg>
