<?xml version="1.0" encoding="UTF-8"?>
<!DOCTYPE svg PUBLIC "-//W3C//DTD SVG 1.1//EN" "http://www.w3.org/Graphics/SVG/1.1/DTD/svg11.dtd">
<svg xmlns="http://www.w3.org/2000/svg" xml:space="preserve" width="1024px" height="1024px" shape-rendering="geometricPrecision" text-rendering="geometricPrecision" image-rendering="optimizeQuality" fill-rule="nonzero" clip-rule="evenodd" viewBox="0 0 10240 10240" xmlns:xlink="http://www.w3.org/1999/xlink">
	<title>plank icon</title>
	<desc>plank icon from the IconExperience.com O-Collection. Copyright by INCORS GmbH (www.incors.com).</desc>
	<path id="curve0" fill="#B89A7C" d="M3934 8866l5572 -5572c63,-63 94,-138 94,-227l0 -1467c0,-176 -144,-320 -320,-320l-2747 0c-88,0 -165,31 -227,94l-5572 5572c-62,62 -94,139 -94,227l0 1467c0,176 144,320 320,320l2747 0c89,0 164,-31 227,-94zm226 -1131l0 -563 4800 -4799 0 562 -4800 4800zm-454 -1014l-1842 0 4801 -4801 1843 0 -4802 4801zm-2426 638l2240 0 0 961 -2240 0 0 -961z"/>
</svg>
