<?xml version="1.0" encoding="UTF-8"?>
<!DOCTYPE svg PUBLIC "-//W3C//DTD SVG 1.1//EN" "http://www.w3.org/Graphics/SVG/1.1/DTD/svg11.dtd">
<svg xmlns="http://www.w3.org/2000/svg" xml:space="preserve" width="1024px" height="1024px" shape-rendering="geometricPrecision" text-rendering="geometricPrecision" image-rendering="optimizeQuality" fill-rule="nonzero" clip-rule="evenodd" viewBox="0 0 10240 10240" xmlns:xlink="http://www.w3.org/1999/xlink">
	<title>planks icon</title>
	<desc>planks icon from the IconExperience.com O-Collection. Copyright by INCORS GmbH (www.incors.com).</desc>
	<path id="curve0" fill="#B89A7C" d="M1600 5848l-1186 1098c-65,60 -94,138 -94,227l0 1467c0,176 144,320 320,320l4987 0c89,0 164,-31 227,-94l3972 -3972c63,-63 94,-138 94,-227l0 -1467c0,-176 -144,-320 -320,-320l-960 0 0 -1280c0,-176 -144,-320 -320,-320l-2427 0c-89,0 -164,31 -227,94l-3972 3972c-63,63 -94,138 -94,227l0 275zm4480 1887l0 -563 3200 -3199 0 562 -3200 3200zm-5120 -375l1920 0 0 960 -1920 0 0 -960zm3840 -1225l0 -563 3200 -3199 0 562 -3200 3200zm2747 -4215l-3200 3200 -1522 0 3200 -3200 1522 0zm-5307 3840l1920 0 0 960 -1920 0 0 -960zm6588 -2240l-3201 3200 -507 0 3200 -3200 508 0zm-5308 3840l1920 0 0 960 -1920 0 0 -960z"/>
</svg>
