<?xml version="1.0" encoding="UTF-8"?>
<!DOCTYPE svg PUBLIC "-//W3C//DTD SVG 1.1//EN" "http://www.w3.org/Graphics/SVG/1.1/DTD/svg11.dtd">
<svg xmlns="http://www.w3.org/2000/svg" xml:space="preserve" width="1024px" height="1024px" shape-rendering="geometricPrecision" text-rendering="geometricPrecision" image-rendering="optimizeQuality" fill-rule="nonzero" clip-rule="evenodd" viewBox="0 0 10240 10240" xmlns:xlink="http://www.w3.org/1999/xlink">
	<title>plane_tool icon</title>
	<desc>plane_tool icon from the IconExperience.com O-Collection. Copyright by INCORS GmbH (www.incors.com).</desc>
	<path id="curve2" fill="#B89A7C" d="M640,7360 9600,7360 9600,8960 640,8960z"/>
	<path id="curve1" fill="#B89A7C" d="M6940 4327c21,-110 32,-224 32,-341 0,-353 -228,-940 -335,-1289 -117,-338 -194,-698 -223,-1072 -15,-187 131,-345 319,-345l955 0c161,0 295,117 317,276 196,1424 1915,1422 1915,3625 0,702 -227,1349 -608,1859l-1952 0 0 -1920c0,-329 -167,-620 -420,-793z"/>
	<path id="curve0" fill="#B89A7C" d="M1280 2880c374,-374 984,-374 1358,0l1600 1600 2162 0c353,0 640,288 640,640l0 1920 -5760 0 0 -1920c0,-259 155,-483 377,-583l-1017 -1017 453 -453 1412 1413 375 0 -1600 -1600zm3200 2240c-353,0 -640,287 -640,640 0,353 287,640 640,640 353,0 640,-287 640,-640 0,-353 -287,-640 -640,-640z"/>
</svg>
