<?xml version="1.0" encoding="UTF-8"?>
<!DOCTYPE svg PUBLIC "-//W3C//DTD SVG 1.1//EN" "http://www.w3.org/Graphics/SVG/1.1/DTD/svg11.dtd">
<svg xmlns="http://www.w3.org/2000/svg" xml:space="preserve" width="1024px" height="1024px" shape-rendering="geometricPrecision" text-rendering="geometricPrecision" image-rendering="optimizeQuality" fill-rule="nonzero" clip-rule="evenodd" viewBox="0 0 10240 10240" xmlns:xlink="http://www.w3.org/1999/xlink">
	<title>planet icon</title>
	<desc>planet icon from the IconExperience.com O-Collection. Copyright by INCORS GmbH (www.incors.com).</desc>
	<path id="curve1" fill="#EDC87E" d="M5120 2560c-946,0 -1771,513 -2215,1275 46,87 96,171 145,246 398,617 1002,1202 1572,1659 570,458 1272,921 1961,1176 84,31 176,62 270,88 508,-468 827,-1139 827,-1884 0,-1414 -1146,-2560 -2560,-2560zm-2467 3247c289,1038 1215,1810 2330,1869 -424,-281 -830,-582 -1206,-883 -375,-302 -757,-633 -1124,-986z"/>
	<path id="curve0" fill="#808080" d="M3978 6544c2358,1892 4782,2789 5412,2003 455,-566 -145,-1851 -1397,-3233 -26,394 -130,766 -299,1100 152,345 174,628 36,800 -386,481 -1867,-67 -3308,-1224 -1441,-1157 -2297,-2484 -1912,-2964 139,-173 419,-213 789,-139 293,-239 635,-422 1008,-531 -1620,-923 -3003,-1229 -3458,-663 -630,786 770,2958 3129,4851z"/>
</svg>
