<?xml version="1.0" encoding="UTF-8"?>
<!DOCTYPE svg PUBLIC "-//W3C//DTD SVG 1.1//EN" "http://www.w3.org/Graphics/SVG/1.1/DTD/svg11.dtd">
<svg xmlns="http://www.w3.org/2000/svg" xml:space="preserve" width="1024px" height="1024px" shape-rendering="geometricPrecision" text-rendering="geometricPrecision" image-rendering="optimizeQuality" fill-rule="nonzero" clip-rule="evenodd" viewBox="0 0 10240 10240" xmlns:xlink="http://www.w3.org/1999/xlink">
	<title>plant icon</title>
	<desc>plant icon from the IconExperience.com O-Collection. Copyright by INCORS GmbH (www.incors.com).</desc>
	<path id="curve1" fill="#808080" d="M7360 7040l-589 2303c-38,149 -159,257 -313,257l-2676 0c-154,0 -275,-108 -313,-257l-589 -2303 4480 0zm-4480 -1280l4480 0c176,0 320,144 320,320l0 320c0,176 -144,320 -320,320l-4480 0c-176,0 -320,-144 -320,-320l0 -320c0,-176 144,-320 320,-320z"/>
	<path id="curve0" fill="#76A797" d="M2136 2031c551,1217 1594,958 2486,1972 310,-720 -31,-1512 -526,-1821 -821,-511 -1689,-277 -2189,-1060 -629,1289 -221,2776 580,3326 476,326 1226,452 1744,89 176,188 561,435 569,903l622 0c-19,-389 -39,-753 18,-960 91,-331 273,-538 486,-745 567,363 1388,237 1910,-89 877,-550 1325,-2038 636,-3326 -548,782 -1499,548 -2398,1060 -543,309 -917,1101 -577,1821 978,-1014 2121,-755 2724,-1973 -542,1376 -1657,1261 -2561,2233 -334,277 -715,770 -862,1205 -90,-144 -265,-334 -324,-403 -833,-964 -1843,-857 -2338,-2232z"/>
</svg>
