<?xml version="1.0" encoding="UTF-8"?>
<!DOCTYPE svg PUBLIC "-//W3C//DTD SVG 1.1//EN" "http://www.w3.org/Graphics/SVG/1.1/DTD/svg11.dtd">
<svg xmlns="http://www.w3.org/2000/svg" xml:space="preserve" width="1024px" height="1024px" shape-rendering="geometricPrecision" text-rendering="geometricPrecision" image-rendering="optimizeQuality" fill-rule="nonzero" clip-rule="evenodd" viewBox="0 0 10240 10240" xmlns:xlink="http://www.w3.org/1999/xlink">
	<title>platform_truck_empty icon</title>
	<desc>platform_truck_empty icon from the IconExperience.com O-Collection. Copyright by INCORS GmbH (www.incors.com).</desc>
	<path id="curve1" fill="#808080" d="M7360 7680c530,0 960,430 960,960 0,530 -430,960 -960,960 -530,0 -960,-430 -960,-960 0,-530 430,-960 960,-960zm-5120 0c530,0 960,430 960,960 0,530 -430,960 -960,960 -530,0 -960,-430 -960,-960 0,-530 430,-960 960,-960z"/>
	<path id="curve0" fill="#808080" d="M1280 7360c-265,0 -480,-215 -480,-480 0,-265 215,-480 480,-480l6080 0 0 -4000c0,-172 91,-323 227,-408l1246 -934c211,-159 511,-116 670,95 158,211 115,511 -96,670l-1087 815 0 4242c0,265 -215,480 -480,480l-6560 0z"/>
</svg>
