<?xml version="1.0" encoding="UTF-8"?>
<!DOCTYPE svg PUBLIC "-//W3C//DTD SVG 1.1//EN" "http://www.w3.org/Graphics/SVG/1.1/DTD/svg11.dtd">
<svg xmlns="http://www.w3.org/2000/svg" xml:space="preserve" width="1024px" height="1024px" shape-rendering="geometricPrecision" text-rendering="geometricPrecision" image-rendering="optimizeQuality" fill-rule="nonzero" clip-rule="evenodd" viewBox="0 0 10240 10240" xmlns:xlink="http://www.w3.org/1999/xlink">
	<title>playing_cards icon</title>
	<desc>playing_cards icon from the IconExperience.com O-Collection. Copyright by INCORS GmbH (www.incors.com).</desc>
	<path id="curve3" fill="#808080" d="M8000 1813l1567 785c315,158 443,543 285,858l-1852 3700 0 -1428 1281 -2557 -1281 -642 0 -716zm-533 6406l-194 388c-157,315 -543,443 -858,286l-1144 -573 1430 0 0 0 1 0 0 0 338 0c153,0 299,-36 427,-101z"/>
	<path id="curve2" fill="#808080" d="M5219 960l1821 0c353,0 640,288 640,640l0 4270 -639 -1277 0 -2992 -1499 -1 -290 -579c-11,-21 -22,-41 -33,-61zm2461 6289l0 111c0,352 -288,640 -640,640l-718 0 1080 -541c108,-54 201,-125 278,-210z"/>
	<path id="curve1" fill="#808080" d="M673 2598l3434 -1720c315,-158 701,-29 859,286l2579 5150c157,315 29,701 -286,859l-3434 1719c-315,158 -701,30 -858,-285l-2579 -5151c-158,-315 -30,-701 285,-858zm287 572l2579 5150 3434 -1719 -2579 -5150 -3434 1719z"/>
	<path id="curve0" fill="#E68497" d="M4457 6030c-599,-300 -1412,-126 -1786,-873 -159,-318 -33,-680 293,-844 327,-163 580,-78 772,112 -28,-272 46,-521 373,-685 327,-163 691,-47 851,271 374,747 -252,1293 -371,1953 -5,29 -22,52 -49,66 -27,13 -56,13 -83,0z"/>
</svg>
