<?xml version="1.0" encoding="UTF-8"?>
<!DOCTYPE svg PUBLIC "-//W3C//DTD SVG 1.1//EN" "http://www.w3.org/Graphics/SVG/1.1/DTD/svg11.dtd">
<svg xmlns="http://www.w3.org/2000/svg" xml:space="preserve" width="1024px" height="1024px" shape-rendering="geometricPrecision" text-rendering="geometricPrecision" image-rendering="optimizeQuality" fill-rule="nonzero" clip-rule="evenodd" viewBox="0 0 10240 10240" xmlns:xlink="http://www.w3.org/1999/xlink">
	<title>playing_card_spades icon</title>
	<desc>playing_card_spades icon from the IconExperience.com O-Collection. Copyright by INCORS GmbH (www.incors.com).</desc>
	<path id="curve1" fill="#808080" d="M2240 640l5760 0c353,0 640,288 640,640l0 7680c0,352 -288,640 -640,640l-5760 0c-352,0 -640,-287 -640,-640l0 -7680c0,-353 287,-640 640,-640zm0 640l0 7680 5760 0 0 -7680 -5760 0z"/>
	<path id="curve0" fill="#808080" d="M5440 6194l0 206c0,352 288,640 640,640l640 0 0 320 -3200 0 0 -320 640 0c353,0 640,-288 640,-640l0 -202c-156,127 -364,202 -640,202 -549,0 -960,-420 -960,-979 0,-1312 1207,-1640 1809,-2483 27,-38 66,-58 111,-58 45,0 84,20 111,58 602,843 1809,1171 1809,2483 0,559 -411,979 -960,979 -279,0 -486,-77 -640,-206z"/>
</svg>
