<?xml version="1.0" encoding="UTF-8"?>
<!DOCTYPE svg PUBLIC "-//W3C//DTD SVG 1.1//EN" "http://www.w3.org/Graphics/SVG/1.1/DTD/svg11.dtd">
<svg xmlns="http://www.w3.org/2000/svg" xml:space="preserve" width="1024px" height="1024px" shape-rendering="geometricPrecision" text-rendering="geometricPrecision" image-rendering="optimizeQuality" fill-rule="nonzero" clip-rule="evenodd" viewBox="0 0 10240 10240" xmlns:xlink="http://www.w3.org/1999/xlink">
	<title>playing_cards_deck icon</title>
	<desc>playing_cards_deck icon from the IconExperience.com O-Collection. Copyright by INCORS GmbH (www.incors.com).</desc>
	<path id="curve4" fill="#808080" d="M1920 9280l7360 0 0 320 -7360 0 0 -320zm0 -1920l7360 0 0 320 -7360 0 0 -320zm0 640l7360 0 0 320 -7360 0 0 -320zm0 640l7360 0 0 320 -7360 0 0 -320z"/>
	<path id="curve3" fill="#808080" d="M8000 1642l1567 785c315,158 443,544 285,859l-1852 3699 0 -1428 1281 -2557c0,0 -1,-1 -1,-1l-1280 -641 0 -716z"/>
	<path id="curve2" fill="#808080" d="M5219 789l1821 0c353,0 640,288 640,640l0 4270 -639 -1277 0 -2992c0,0 -1,-1 -1,-1l-1498 0 -290 -579c-11,-21 -22,-41 -33,-61z"/>
	<path id="curve1" fill="#808080" d="M673 2427l3434 -1719c315,-158 701,-30 859,285l2579 5151c157,315 29,701 -286,858l-75 38 -1430 0 1219 -610 -2579 -5150 -3434 1719 2024 4041 -716 0 -1880 -3754c-158,-315 -30,-701 285,-859zm3784 3432c-599,-300 -1412,-126 -1786,-873 -159,-318 -33,-680 293,-843 327,-164 580,-79 772,111 -28,-271 46,-521 373,-684 327,-164 691,-48 851,270 374,747 -252,1293 -371,1953 -5,29 -22,52 -49,66 -27,14 -56,14 -83,0z"/>
	<path id="curve0" fill="#E68497" d="M4457 5859c-599,-300 -1412,-126 -1786,-873 -159,-318 -33,-680 293,-843 327,-164 580,-79 772,111 -28,-271 46,-521 373,-684 327,-164 691,-48 851,270 374,747 -252,1293 -371,1953 -5,29 -22,52 -49,66 -27,14 -56,14 -83,0z"/>
</svg>
