<?xml version="1.0" encoding="UTF-8"?>
<!DOCTYPE svg PUBLIC "-//W3C//DTD SVG 1.1//EN" "http://www.w3.org/Graphics/SVG/1.1/DTD/svg11.dtd">
<svg xmlns="http://www.w3.org/2000/svg" xml:space="preserve" width="1024px" height="1024px" shape-rendering="geometricPrecision" text-rendering="geometricPrecision" image-rendering="optimizeQuality" fill-rule="nonzero" clip-rule="evenodd" viewBox="0 0 10240 10240" xmlns:xlink="http://www.w3.org/1999/xlink">
	<title>playing_card_clubs icon</title>
	<desc>playing_card_clubs icon from the IconExperience.com O-Collection. Copyright by INCORS GmbH (www.incors.com).</desc>
	<path id="curve1" fill="#808080" d="M5794 4523c91,-28 186,-43 286,-43 530,0 960,430 960,960 0,530 -430,960 -960,960 -246,0 -470,-92 -640,-245l0 245c0,352 288,640 640,640l640 0 0 320 -3200 0 0 -320 640 0c353,0 640,-288 640,-640l0 -245c-170,153 -394,245 -640,245 -530,0 -960,-430 -960,-960 0,-530 430,-960 960,-960 99,0 195,15 286,43 -177,-174 -286,-416 -286,-683 0,-530 430,-960 960,-960 530,0 960,430 960,960 0,267 -109,509 -286,683z"/>
	<path id="curve0" fill="#808080" d="M2240 640l5760 0c353,0 640,288 640,640l0 7680c0,352 -288,640 -640,640l-5760 0c-352,0 -640,-287 -640,-640l0 -7680c0,-353 287,-640 640,-640zm0 640l0 7680 5760 0 0 -7680 -5760 0z"/>
</svg>
