<?xml version="1.0" encoding="UTF-8"?>
<!DOCTYPE svg PUBLIC "-//W3C//DTD SVG 1.1//EN" "http://www.w3.org/Graphics/SVG/1.1/DTD/svg11.dtd">
<svg xmlns="http://www.w3.org/2000/svg" xml:space="preserve" width="1024px" height="1024px" shape-rendering="geometricPrecision" text-rendering="geometricPrecision" image-rendering="optimizeQuality" fill-rule="nonzero" clip-rule="evenodd" viewBox="0 0 10240 10240" xmlns:xlink="http://www.w3.org/1999/xlink">
	<title>playing_card_diamonds icon</title>
	<desc>playing_card_diamonds icon from the IconExperience.com O-Collection. Copyright by INCORS GmbH (www.incors.com).</desc>
	<path id="curve1" fill="#808080" d="M2240 640l5760 0c353,0 640,288 640,640l0 7680c0,352 -288,640 -640,640l-5760 0c-352,0 -640,-287 -640,-640l0 -7680c0,-353 287,-640 640,-640zm0 640l0 7680 5760 0 0 -7680 -5760 0z"/>
	<path id="curve0" fill="#E68497" d="M3586 5027c468,-655 936,-1310 1404,-1965 31,-43 77,-67 130,-67 53,0 99,24 130,67 468,655 936,1310 1404,1965 40,57 40,129 0,186 -468,655 -936,1310 -1404,1965 -31,43 -77,67 -130,67 -53,0 -99,-24 -130,-67 -468,-655 -936,-1310 -1404,-1965 -40,-57 -40,-129 0,-186z"/>
</svg>
