<?xml version="1.0" encoding="UTF-8"?>
<!DOCTYPE svg PUBLIC "-//W3C//DTD SVG 1.1//EN" "http://www.w3.org/Graphics/SVG/1.1/DTD/svg11.dtd">
<svg xmlns="http://www.w3.org/2000/svg" xml:space="preserve" width="1024px" height="1024px" shape-rendering="geometricPrecision" text-rendering="geometricPrecision" image-rendering="optimizeQuality" fill-rule="nonzero" clip-rule="evenodd" viewBox="0 0 10240 10240" xmlns:xlink="http://www.w3.org/1999/xlink">
	<title>pliers icon</title>
	<desc>pliers icon from the IconExperience.com O-Collection. Copyright by INCORS GmbH (www.incors.com).</desc>
	<path id="curve2" fill="#808080" d="M2780 6749c196,-197 515,-197 712,0 196,196 196,515 0,712 -197,196 -516,196 -712,0 -197,-197 -197,-516 0,-712z"/>
	<path id="curve1" fill="#808080" d="M2388 7449l-1388 786 -125 -216 -21 -37 345 -1290 1401 -820c222,-97 469,-133 715,-100 293,39 563,173 772,382 223,224 360,516 388,831 21,233 -19,463 -112,671l-814 1386 -1289 345 -253 -146 785 -1388c104,48 221,75 344,75 454,0 823,-369 823,-823 0,-455 -369,-824 -823,-824 -455,0 -824,369 -824,824 0,123 28,240 76,344z"/>
	<path id="curve0" fill="#4D82B8" d="M2881 5459c174,-933 542,-1941 1014,-2759 297,-515 625,-985 1024,-1426 151,-167 309,-327 472,-483 213,-205 552,-201 759,12 205,213 204,557 -12,762 -111,105 -219,213 -323,324 -390,414 -704,858 -988,1350 -413,716 -725,1584 -882,2398l-2 11c-180,-100 -378,-166 -586,-193 -160,-22 -320,-20 -476,4zm1711 838l11 -2c814,-158 1682,-470 2398,-884 492,-284 935,-598 1349,-988 111,-105 219,-213 323,-323 206,-217 549,-218 763,-13 213,206 217,546 12,759 -155,163 -316,321 -482,472 -441,400 -912,728 -1426,1025 -818,473 -1826,841 -2759,1015 20,-131 25,-266 13,-401 -21,-234 -90,-459 -202,-660z"/>
</svg>
