<?xml version="1.0" encoding="UTF-8"?>
<!DOCTYPE svg PUBLIC "-//W3C//DTD SVG 1.1//EN" "http://www.w3.org/Graphics/SVG/1.1/DTD/svg11.dtd">
<svg xmlns="http://www.w3.org/2000/svg" xml:space="preserve" width="1024px" height="1024px" shape-rendering="geometricPrecision" text-rendering="geometricPrecision" image-rendering="optimizeQuality" fill-rule="nonzero" clip-rule="evenodd" viewBox="0 0 10240 10240" xmlns:xlink="http://www.w3.org/1999/xlink">
	<title>plug icon</title>
	<desc>plug icon from the IconExperience.com O-Collection. Copyright by INCORS GmbH (www.incors.com).</desc>
	<path id="curve1" fill="#808080" d="M9600 6720c0,352 -288,640 -640,640l-1920 0 0 -1280 1920 0c353,0 640,287 640,640zm0 -3200c0,352 -288,640 -640,640l-1920 0 0 -1280 1920 0c353,0 640,287 640,640z"/>
	<path id="curve0" fill="#808080" d="M3840 2560l1600 0c0,-176 144,-320 320,-320l640 0c176,0 320,144 320,320l0 5120c0,176 -144,320 -320,320l-640 0c-176,0 -320,-144 -320,-320l-1600 0c-705,0 -1280,-575 -1280,-1280 0,-176 -144,-320 -320,-320 -176,0 -320,-144 -320,-320l-1600 0 0 -1280 1600 0c0,-176 144,-320 320,-320 176,0 320,-144 320,-320 0,-705 575,-1280 1280,-1280z"/>
</svg>
