<?xml version="1.0" encoding="UTF-8"?>
<!DOCTYPE svg PUBLIC "-//W3C//DTD SVG 1.1//EN" "http://www.w3.org/Graphics/SVG/1.1/DTD/svg11.dtd">
<svg xmlns="http://www.w3.org/2000/svg" xml:space="preserve" width="1024px" height="1024px" shape-rendering="geometricPrecision" text-rendering="geometricPrecision" image-rendering="optimizeQuality" fill-rule="nonzero" clip-rule="evenodd" viewBox="0 0 10240 10240" xmlns:xlink="http://www.w3.org/1999/xlink">
	<title>plug2 icon</title>
	<desc>plug2 icon from the IconExperience.com O-Collection. Copyright by INCORS GmbH (www.incors.com).</desc>
	<path id="curve2" fill="#808080" d="M8000 8000l1440 0c264,0 480,216 480,480l0 0c0,264 -216,480 -480,480l-1440 0 0 -960zm0 -2240l1440 0c264,0 480,216 480,480l0 0c0,264 -216,480 -480,480l-1440 0 0 -960z"/>
	<path id="curve1" fill="#808080" d="M6080 5120l1280 0c176,0 320,144 320,320l0 3840c0,176 -144,320 -320,320l-1280 0c-617,0 -1135,-441 -1254,-1024 -31,-151 -160,-256 -314,-256l-352 0c-176,0 -320,-144 -320,-320l0 -1280c0,-176 144,-320 320,-320l352 0c154,0 283,-105 314,-256 119,-583 637,-1024 1254,-1024z"/>
	<path id="curve0" fill="#808080" d="M3520 8000l-640 0c-657,0 -1213,-228 -1612,-628 -400,-399 -628,-955 -628,-1612 0,-657 228,-1213 627,-1613 400,-399 956,-627 1613,-627l640 0c303,0 547,-92 707,-253 161,-160 253,-404 253,-707 0,-303 -92,-547 -253,-707 -160,-161 -404,-253 -707,-253l-1600 0c-353,0 -640,-287 -640,-640 0,-353 287,-640 640,-640l1600 0c657,0 1213,228 1613,627 399,400 627,956 627,1613 0,657 -228,1213 -627,1612 -400,400 -956,628 -1613,628l-640 0c-303,0 -547,92 -708,252 -160,161 -252,405 -252,708 0,303 92,547 253,707 160,161 404,253 707,253l640 0 0 1280z"/>
</svg>
