<?xml version="1.0" encoding="UTF-8"?>
<!DOCTYPE svg PUBLIC "-//W3C//DTD SVG 1.1//EN" "http://www.w3.org/Graphics/SVG/1.1/DTD/svg11.dtd">
<svg xmlns="http://www.w3.org/2000/svg" xml:space="preserve" width="1024px" height="1024px" shape-rendering="geometricPrecision" text-rendering="geometricPrecision" image-rendering="optimizeQuality" fill-rule="nonzero" clip-rule="evenodd" viewBox="0 0 10240 10240" xmlns:xlink="http://www.w3.org/1999/xlink">
	<title>plug_usb icon</title>
	<desc>plug_usb icon from the IconExperience.com O-Collection. Copyright by INCORS GmbH (www.incors.com).</desc>
	<path id="curve1" fill="#808080" d="M7680 5440l0 960 640 0 0 -960 -640 0zm0 -1600l0 960 640 0 0 -960 -640 0zm-1280 -640l2880 0c176,0 320,144 320,320l0 3200c0,176 -144,320 -320,320l-2880 0 0 -3840z"/>
	<path id="curve0" fill="#808080" d="M5760 2880l-2240 0c-1179,0 -952,1135 -1960,1263 -161,21 -280,155 -280,318l0 19 -960 0 0 1280 960 0 0 19c0,163 119,297 280,318 1008,128 781,1263 1960,1263l2240 0c176,0 320,-144 320,-320l0 -3840c0,-176 -144,-320 -320,-320z"/>
</svg>
