<?xml version="1.0" encoding="UTF-8"?>
<!DOCTYPE svg PUBLIC "-//W3C//DTD SVG 1.1//EN" "http://www.w3.org/Graphics/SVG/1.1/DTD/svg11.dtd">
<svg xmlns="http://www.w3.org/2000/svg" xml:space="preserve" width="1024px" height="1024px" shape-rendering="geometricPrecision" text-rendering="geometricPrecision" image-rendering="optimizeQuality" fill-rule="nonzero" clip-rule="evenodd" viewBox="0 0 10240 10240" xmlns:xlink="http://www.w3.org/1999/xlink">
	<title>plug_cinch icon</title>
	<desc>plug_cinch icon from the IconExperience.com O-Collection. Copyright by INCORS GmbH (www.incors.com).</desc>
	<path id="curve2" fill="#808080" d="M8320 4480l960 0c353,0 640,287 640,640l0 0c0,353 -287,640 -640,640l-960 0 0 -1280z"/>
	<path id="curve1" fill="#808080" d="M6400 3520l1280 0c176,0 320,144 320,320l0 2560c0,176 -144,320 -320,320l-1280 0 0 -3200z"/>
	<path id="curve0" fill="#808080" d="M5760 3200l-1920 0c-1179,0 -1272,815 -2280,943 -161,21 -280,155 -280,318l0 19 -960 0 0 1280 960 0 0 19c0,163 119,297 280,318 1008,128 1101,943 2280,943l1920 0c176,0 320,-144 320,-320l0 -3200c0,-176 -144,-320 -320,-320z"/>
</svg>
