<?xml version="1.0" encoding="UTF-8"?>
<!DOCTYPE svg PUBLIC "-//W3C//DTD SVG 1.1//EN" "http://www.w3.org/Graphics/SVG/1.1/DTD/svg11.dtd">
<svg xmlns="http://www.w3.org/2000/svg" xml:space="preserve" width="1024px" height="1024px" shape-rendering="geometricPrecision" text-rendering="geometricPrecision" image-rendering="optimizeQuality" fill-rule="nonzero" clip-rule="evenodd" viewBox="0 0 10240 10240" xmlns:xlink="http://www.w3.org/1999/xlink">
	<title>podium2 icon</title>
	<desc>podium2 icon from the IconExperience.com O-Collection. Copyright by INCORS GmbH (www.incors.com).</desc>
	<path id="curve1" fill="#808080" d="M640 6400l2560 0 0 -2240c0,-176 144,-320 320,-320l3200 0c176,0 320,144 320,320l0 2240 2560 0c176,0 320,144 320,320l0 2560c0,176 -144,320 -320,320l-8960 0c-176,0 -320,-144 -320,-320l0 -2560c0,-176 144,-320 320,-320zm4080 -1920c-44,0 -80,36 -80,80l0 240 320 0 0 960 -320 0 0 320 960 0 0 -320 -320 0c0,-427 0,-853 0,-1280l-560 0zm-3440 3041l320 0 0 -160c102,0 640,-1 640,-1l0 320 -480 1c-132,0 -252,54 -339,140 -87,87 -141,207 -141,340l0 479 1280 0 0 -319 -960 0 0 -160c0,-44 18,-84 47,-113 29,-29 69,-47 113,-47l480 0c85,0 166,-34 226,-94 58,-58 94,-138 94,-226l0 -320c0,-89 -36,-169 -94,-227 -58,-57 -138,-93 -226,-93l-640 0c-88,0 -168,36 -226,93 -60,60 -94,142 -94,227l0 160zm7680 -161c0,-176 -144,-320 -320,-320 -213,0 -427,0 -640,0 -176,0 -320,144 -320,320l0 80 320 0c0,-44 36,-80 80,-80l480 0c44,0 80,36 80,80l0 160c0,44 -36,80 -80,80l-240 0 0 320 240 0c44,0 80,36 80,80 0,53 0,107 0,160 0,44 -36,80 -80,80l-480 0c-44,0 -80,-36 -80,-80l-320 0 0 80c0,176 144,320 320,320l640 0c176,0 320,-144 320,-320l0 -320c0,-88 -72,-160 -160,-160 88,0 160,-72 160,-160l0 -320z"/>
	<path id="curve0" fill="#EDC87E" d="M3840 320l2560 0 0 960c0,529 -431,960 -960,960l0 0 0 640 320 0c176,0 320,144 320,320l0 320 -1920 0 0 -320c0,-176 144,-320 320,-320l320 0 0 -640 0 0c-529,0 -960,-431 -960,-960l0 -960z"/>
</svg>
