<?xml version="1.0" encoding="UTF-8"?>
<!DOCTYPE svg PUBLIC "-//W3C//DTD SVG 1.1//EN" "http://www.w3.org/Graphics/SVG/1.1/DTD/svg11.dtd">
<svg xmlns="http://www.w3.org/2000/svg" xml:space="preserve" width="1024px" height="1024px" shape-rendering="geometricPrecision" text-rendering="geometricPrecision" image-rendering="optimizeQuality" fill-rule="nonzero" clip-rule="evenodd" viewBox="0 0 10240 10240" xmlns:xlink="http://www.w3.org/1999/xlink">
	<title>poison icon</title>
	<desc>poison icon from the IconExperience.com O-Collection. Copyright by INCORS GmbH (www.incors.com).</desc>
	<path id="curve1" fill="#808080" d="M4160 1600l1920 0c176,0 320,144 320,320l0 320c0,118 -65,222 -160,277 -102,59 -160,160 -160,277l0 86c0,176 144,320 320,320l320 0c705,0 1280,575 1280,1280l0 3840c0,705 -575,1280 -1280,1280l-3200 0c-705,0 -1280,-575 -1280,-1280l0 -3840c0,-705 575,-1280 1280,-1280l320 0c176,0 320,-144 320,-320l0 -86c0,-117 -58,-218 -160,-277 -95,-55 -160,-159 -160,-277l0 -320c0,-176 144,-320 320,-320zm2058 5854l-149 -50c-73,95 -180,167 -290,216 -6,3 -12,5 -18,8l362 121c94,31 162,99 194,195 32,97 93,177 171,232 50,36 113,38 166,6 52,-33 80,-90 72,-152 -19,-156 36,-325 141,-439 42,-46 54,-109 30,-167 -24,-58 -76,-94 -137,-95 -95,-2 -191,25 -273,84 -81,58 -175,72 -269,41zm-53 -1257l0 0c134,-69 299,-310 150,-619 -61,-124 -30,-176 0,-308 149,-618 -448,-1081 -1195,-1081 -747,0 -1344,463 -1195,1081 31,136 64,178 0,308 -149,309 16,550 150,619 441,222 597,309 597,463 0,309 149,309 448,309 299,0 448,0 448,-309 0,-154 156,-241 597,-463zm-1806 322c14,268 14,534 14,605 0,154 299,309 747,309 448,0 747,-155 747,-309 0,-71 0,-337 14,-605 -91,55 -164,109 -164,141 0,134 -24,427 -128,518 -124,109 -316,100 -469,100 -153,0 -345,9 -469,-100 -104,-91 -128,-384 -128,-518 0,-32 -73,-86 -164,-141zm898 -431c80,187 237,220 137,427 -25,53 -115,171 -153,141 -89,-71 -172,-66 -261,0 -38,28 -108,-88 -134,-141 -84,-175 65,-272 137,-427 40,-85 237,-86 274,0zm386 -818c206,0 373,173 373,387 0,213 -167,386 -373,386 -207,0 -374,-173 -374,-386 0,-214 167,-387 374,-387zm-1046 0c207,0 374,173 374,386 0,214 -167,386 -374,386 -206,0 -373,-172 -373,-386 0,-213 167,-386 373,-386zm-118 2358c-6,-3 -12,-5 -18,-8 -110,-49 -217,-121 -290,-216l-149 50c-94,31 -188,17 -269,-41 -82,-59 -178,-86 -273,-84 -61,1 -113,37 -137,95 -24,58 -12,121 30,167 105,114 160,283 141,439 -8,62 20,119 72,152 53,32 116,30 166,-6 78,-55 139,-135 171,-232 32,-96 100,-164 194,-195l362 -121zm-404 -563c-1,-109 -2,-219 -6,-328l-251 -84c-94,-31 -162,-100 -194,-195 -32,-97 -93,-177 -170,-232 -51,-36 -114,-38 -166,-6 -53,33 -80,90 -73,152 19,156 -35,325 -141,439 -42,46 -53,109 -29,167 23,58 75,94 137,95 94,2 190,-25 272,-84 81,-58 175,-72 269,-41l352 117zm2096 -328c-4,109 -5,219 -6,328l352 -117c94,-31 188,-17 269,41 82,59 178,86 272,84 62,-1 114,-37 137,-95 24,-58 13,-121 -29,-167 -106,-114 -160,-283 -141,-439 7,-62 -20,-119 -73,-152 -52,-32 -115,-30 -166,6 -77,55 -138,135 -170,232 -32,95 -100,164 -194,195l-251 84z"/>
	<path id="curve0" fill="#EDC87E" d="M4382 640l1476 0c53,0 99,23 130,66 31,44 39,94 22,145l-143 429 -1494 0 -143 -429c-17,-51 -9,-101 22,-145 31,-43 77,-66 130,-66z"/>
</svg>
