<?xml version="1.0" encoding="UTF-8"?>
<!DOCTYPE svg PUBLIC "-//W3C//DTD SVG 1.1//EN" "http://www.w3.org/Graphics/SVG/1.1/DTD/svg11.dtd">
<svg xmlns="http://www.w3.org/2000/svg" xml:space="preserve" width="1024px" height="1024px" shape-rendering="geometricPrecision" text-rendering="geometricPrecision" image-rendering="optimizeQuality" fill-rule="nonzero" clip-rule="evenodd" viewBox="0 0 10240 10240" xmlns:xlink="http://www.w3.org/1999/xlink">
	<title>policeman_bobby icon</title>
	<desc>policeman_bobby icon from the IconExperience.com O-Collection. Copyright by INCORS GmbH (www.incors.com).</desc>
	<path id="curve3" fill="#808080" d="M5696 6655l0 144c0,159 -57,296 -169,408l-185 186 354 1953 -576 577 -576 -577 354 -1953 -185 -186c-112,-112 -169,-249 -169,-408l0 -144c185,42 378,65 576,65 198,0 391,-23 576,-65z"/>
	<path id="curve2" fill="#808080" d="M8000 8916c0,627 -1311,923 -2411,989l333 -333c77,-77 108,-177 89,-284l-325 -1787 68 -68c172,-172 262,-390 262,-634 0,-62 0,-124 0,-186 0,-23 -2,-44 -6,-65 174,-68 339,-152 493,-249 974,717 1497,1055 1497,2617zm-3349 989c-1100,-66 -2411,-362 -2411,-988 0,-1562 524,-1901 1497,-2618 154,97 319,181 493,249 -4,21 -6,42 -6,65 0,62 0,124 0,186 0,244 90,462 262,634l68 68 -325 1787c-19,107 12,207 89,284l333 333z"/>
	<path id="curve1" fill="#EFC1B4" d="M7340 3858c13,99 20,200 20,302 0,1237 -1003,2240 -2240,2240 -1237,0 -2240,-1003 -2240,-2240 0,-102 7,-203 20,-302 595,63 1157,291 1629,659 350,274 832,274 1182,0 472,-368 1034,-596 1629,-659z"/>
	<path id="curve0" fill="#808080" d="M2880 2957l0 -77c0,-1305 868,-2407 2058,-2761 124,-37 240,-37 364,0 1190,354 2058,1456 2058,2761l0 75c137,88 246,216 311,368 19,46 14,95 -14,137 -28,42 -71,65 -122,64 -88,-1 -161,10 -248,18 -647,72 -1260,322 -1773,723 -235,184 -554,184 -788,0 -500,-390 -1108,-649 -1772,-723 -86,-8 -159,-19 -247,-18 -50,1 -94,-22 -122,-64 -28,-42 -33,-91 -13,-137 64,-151 172,-278 308,-366zm2242 -1822l-252 428 -467 -166 81 490 -465 174 378 322 -245 432 497 5 90 488 383 -316 384 316 90 -488 496 -5 -244 -432 377 -322 -465 -174 82 -490 -468 166 -252 -428zm-2 596c281,0 509,228 509,509 0,281 -228,509 -509,509 -281,0 -509,-228 -509,-509 0,-281 228,-509 509,-509z"/>
</svg>
