<?xml version="1.0" encoding="UTF-8"?>
<!DOCTYPE svg PUBLIC "-//W3C//DTD SVG 1.1//EN" "http://www.w3.org/Graphics/SVG/1.1/DTD/svg11.dtd">
<svg xmlns="http://www.w3.org/2000/svg" xml:space="preserve" width="1024px" height="1024px" shape-rendering="geometricPrecision" text-rendering="geometricPrecision" image-rendering="optimizeQuality" fill-rule="nonzero" clip-rule="evenodd" viewBox="0 0 10240 10240" xmlns:xlink="http://www.w3.org/1999/xlink">
	<title>police_car icon</title>
	<desc>police_car icon from the IconExperience.com O-Collection. Copyright by INCORS GmbH (www.incors.com).</desc>
	<path id="curve2" fill="#808080" d="M7360 8657l0 623c0,176 144,320 320,320l1280 0c176,0 320,-144 320,-320l0 -640 -1868 0 -52 17zm-4480 0l0 623c0,176 -144,320 -320,320l-1280 0c-176,0 -320,-144 -320,-320l0 -640 1868 0 52 17z"/>
	<path id="curve1" fill="#808080" d="M1600 4480c220,-660 440,-1017 660,-1280l434 0c-127,131 -243,260 -348,417 -170,256 -324,579 -426,863 -19,54 -10,110 26,154 36,45 88,65 145,59 2069,-213 3989,-213 6022,-49 57,4 109,-14 145,-59 36,-44 45,-100 26,-154 -102,-284 -220,-558 -390,-814 -105,-157 -221,-286 -348,-417l434 0c220,263 440,620 660,1280 640,320 960,1280 960,1920 0,674 0,1920 -320,1920l-1920 0 -960 320 -2560 0 -960 -320 -1920 0c-320,0 -320,-1246 -320,-1920 0,-640 320,-1600 960,-1920zm2044 1600c-106,0 -198,47 -260,133 -62,86 -94,195 -44,288l516 960c67,124 164,219 304,219l1920 0c140,0 237,-95 304,-219l516 -960c50,-93 18,-202 -44,-288 -62,-86 -154,-133 -260,-133l-2952 0zm-2516 0c-83,0 -151,62 -159,145 -6,61 -9,120 -9,175 0,161 0,322 3,483 2,87 73,157 160,157l1778 0c61,0 113,-31 141,-84 29,-54 26,-114 -8,-165l-379 -568c-61,-92 -156,-143 -266,-143l-1261 0zm7984 0l-1261 0c-110,0 -205,51 -266,142l-379 569c-34,51 -37,111 -8,165 28,53 80,84 141,84l1778 0c87,0 159,-70 160,-157 3,-161 3,-322 3,-483 0,-55 -3,-114 -9,-175 -8,-83 -76,-145 -159,-145z"/>
	<path id="curve0" fill="#E68497" d="M2880 1600l4480 0c353,0 640,288 640,640l0 320c0,176 -144,320 -320,320l-5120 0c-176,0 -320,-144 -320,-320l0 -320c0,-353 287,-640 640,-640zm960 320l0 640 2560 0 0 -640 -2560 0z"/>
</svg>
