<?xml version="1.0" encoding="UTF-8"?>
<!DOCTYPE svg PUBLIC "-//W3C//DTD SVG 1.1//EN" "http://www.w3.org/Graphics/SVG/1.1/DTD/svg11.dtd">
<svg xmlns="http://www.w3.org/2000/svg" xml:space="preserve" width="1024px" height="1024px" shape-rendering="geometricPrecision" text-rendering="geometricPrecision" image-rendering="optimizeQuality" fill-rule="nonzero" clip-rule="evenodd" viewBox="0 0 10240 10240" xmlns:xlink="http://www.w3.org/1999/xlink">
	<title>policeman icon</title>
	<desc>policeman icon from the IconExperience.com O-Collection. Copyright by INCORS GmbH (www.incors.com).</desc>
	<path id="curve4" fill="#808080" d="M5760 6319l0 116c0,176 -63,328 -187,453l-207 206 394 1846 -640 640 -640 -640 394 -1846 -207 -206c-124,-125 -187,-277 -187,-453l0 -116c205,53 419,81 640,81 221,0 435,-28 640,-81z"/>
	<path id="curve3" fill="#4D82B8" d="M8000 8640c0,650 -1316,881 -2417,930l403 -404c79,-79 110,-184 87,-293l-358 -1676 84 -83c184,-185 281,-418 281,-679l0 -116c0,-35 -5,-68 -15,-99 170,-68 330,-152 480,-253 947,721 1455,1078 1455,2673zm-3343 930c-1101,-49 -2417,-281 -2417,-930 0,-1594 509,-1953 1455,-2673 150,101 310,185 480,253 -10,31 -15,64 -15,99l0 116c0,261 97,494 281,679l84 83 -358 1676c-23,109 8,214 87,293l403 404z"/>
	<path id="curve2" fill="#EFC1B4" d="M7326 3451c22,126 34,256 34,389 0,1237 -1003,2240 -2240,2240 -1237,0 -2240,-1003 -2240,-2240 0,-133 12,-263 34,-389 445,424 1266,709 2206,709 940,0 1761,-285 2206,-709z"/>
	<path id="curve1" fill="#4D82B8" d="M7228 3099c-311,432 -1137,741 -2108,741 -971,0 -1798,-309 -2108,-741l0 0c694,78 1411,101 2108,101 697,0 1414,-23 2108,-101z"/>
	<path id="curve0" fill="#4D82B8" d="M7245 2775c-558,65 -1305,105 -2125,105 -820,0 -1563,-39 -2118,-104 -304,-117 -562,-327 -740,-594 -42,-64 -15,-151 56,-179 391,-158 692,-491 805,-901 31,-113 136,-186 253,-177 572,46 1141,-120 1600,-469 87,-66 205,-66 293,0 458,349 1027,515 1599,469 117,-9 222,64 253,177 114,410 414,743 805,901 71,28 98,115 56,179 -177,267 -434,476 -737,593zm-2125 -1515l-146 248 -272 -96 48 284 -270 101 219 187 -142 251 288 2 53 283 222 -183 222 183 53 -283 288 -2 -142 -251 219 -187 -270 -101 48 -284 -272 96 -146 -248z"/>
</svg>
