<?xml version="1.0" encoding="UTF-8"?>
<!DOCTYPE svg PUBLIC "-//W3C//DTD SVG 1.1//EN" "http://www.w3.org/Graphics/SVG/1.1/DTD/svg11.dtd">
<svg xmlns="http://www.w3.org/2000/svg" xml:space="preserve" width="1024px" height="1024px" shape-rendering="geometricPrecision" text-rendering="geometricPrecision" image-rendering="optimizeQuality" fill-rule="nonzero" clip-rule="evenodd" viewBox="0 0 10240 10240" xmlns:xlink="http://www.w3.org/1999/xlink">
	<title>pontifex icon</title>
	<desc>pontifex icon from the IconExperience.com O-Collection. Copyright by INCORS GmbH (www.incors.com).</desc>
	<path id="curve2" fill="#EDC87E" d="M4172 7782l640 0 0 -640 640 0 0 640 640 0 0 640 -640 0 -12 1172c-110,4 -217,6 -320,6 -103,0 -210,-2 -320,-6l12 -1172 -640 0 0 -640z"/>
	<path id="curve1" fill="#808080" d="M8320 8470c0,683 -1364,1017 -2560,1106l7 -642c487,-40 1017,-116 1476,-280 93,-33 353,-139 437,-228 -7,-1226 -285,-1456 -1075,-2034 -327,152 -674,253 -1032,299 110,-51 187,-162 187,-291l0 -391c396,-90 761,-262 1076,-496l96 325c905,664 1388,1027 1388,2632zm-3840 1106c-1195,-88 -2560,-423 -2560,-1105 0,-1604 484,-1970 1389,-2633l95 -325c315,234 680,406 1076,496l0 391c0,129 77,240 187,291 -357,-46 -705,-147 -1032,-299 -789,578 -1068,810 -1075,2035 85,89 344,194 438,227 462,165 998,242 1489,281l-7 641z"/>
	<path id="curve0" fill="#EFC1B4" d="M5120 640c1414,0 2560,1146 2560,2560 0,1414 -1146,2560 -2560,2560 -1414,0 -2560,-1146 -2560,-2560 0,-1414 1146,-2560 2560,-2560zm0 320c-755,0 -1422,373 -1828,945 573,-197 1188,-305 1828,-305 640,0 1255,108 1828,305 -406,-572 -1073,-945 -1828,-945z"/>
</svg>
