<?xml version="1.0" encoding="UTF-8"?>
<!DOCTYPE svg PUBLIC "-//W3C//DTD SVG 1.1//EN" "http://www.w3.org/Graphics/SVG/1.1/DTD/svg11.dtd">
<svg xmlns="http://www.w3.org/2000/svg" xml:space="preserve" width="1024px" height="1024px" shape-rendering="geometricPrecision" text-rendering="geometricPrecision" image-rendering="optimizeQuality" fill-rule="nonzero" clip-rule="evenodd" viewBox="0 0 10240 10240" xmlns:xlink="http://www.w3.org/1999/xlink">
	<title>pool_balls icon</title>
	<desc>pool_balls icon from the IconExperience.com O-Collection. Copyright by INCORS GmbH (www.incors.com).</desc>
	<path id="curve9" fill="#EDC87E" d="M5120 7105c619,0 1120,501 1120,1120 0,619 -501,1120 -1120,1120 -619,0 -1120,-501 -1120,-1120 0,-619 501,-1120 1120,-1120zm0 320c-442,0 -800,358 -800,800 0,442 358,800 800,800 442,0 800,-358 800,-800 0,-442 -358,-800 -800,-800z"/>
	<path id="curve8" fill="#4D82B8" d="M6240 5160c619,0 1120,501 1120,1120 0,619 -501,1120 -1120,1120 -619,0 -1120,-501 -1120,-1120 0,-619 501,-1120 1120,-1120zm0 320c-442,0 -800,358 -800,800 0,442 358,800 800,800 442,0 800,-358 800,-800 0,-442 -358,-800 -800,-800z"/>
	<path id="curve7" fill="#9868B9" d="M4000 5160c619,0 1120,501 1120,1120 0,619 -501,1120 -1120,1120 -619,0 -1120,-501 -1120,-1120 0,-619 501,-1120 1120,-1120zm0 320c-442,0 -800,358 -800,800 0,30 2,60 5,89l1270 -733c-133,-98 -297,-156 -475,-156zm795 710l-1270 734c133,98 297,156 475,156 442,0 800,-358 800,-800 0,-30 -2,-60 -5,-90z"/>
	<path id="curve6" fill="#E68497" d="M7360 3220c619,0 1120,501 1120,1120 0,618 -501,1120 -1120,1120 -619,0 -1120,-502 -1120,-1120 0,-619 501,-1120 1120,-1120zm0 320c-442,0 -800,358 -800,800 0,178 58,342 156,475l733 -1270c-29,-3 -59,-5 -89,-5zm644 325l-733 1270c29,3 59,5 89,5 442,0 800,-358 800,-800 0,-178 -58,-342 -156,-475z"/>
	<path id="curve5" fill="#808080" d="M5120 3220c619,0 1120,501 1120,1120 0,618 -501,1120 -1120,1120 -619,0 -1120,-502 -1120,-1120 0,-619 501,-1120 1120,-1120z"/>
	<path id="curve4" fill="#76A797" d="M2880 3220c619,0 1120,501 1120,1120 0,618 -501,1120 -1120,1120 -619,0 -1120,-502 -1120,-1120 0,-619 501,-1120 1120,-1120zm0 320c-30,0 -60,2 -89,5l733 1270c98,-133 156,-297 156,-475 0,-442 -358,-800 -800,-800zm89 1595l-733 -1270c-98,133 -156,297 -156,475 0,442 358,800 800,800 30,0 60,-2 89,-5z"/>
	<path id="curve3" fill="#ED9A56" d="M8480 1280c619,0 1120,501 1120,1120 0,619 -501,1120 -1120,1120 -619,0 -1120,-501 -1120,-1120 0,-619 501,-1120 1120,-1120zm0 320c-442,0 -800,358 -800,800 0,442 358,800 800,800 442,0 800,-358 800,-800 0,-442 -358,-800 -800,-800z"/>
	<path id="curve2" fill="#4D82B8" d="M6240 1280c619,0 1120,501 1120,1120 0,619 -501,1120 -1120,1120 -619,0 -1120,-501 -1120,-1120 0,-619 501,-1120 1120,-1120zm0 320c-178,0 -342,58 -475,156l1270 733c3,-29 5,-59 5,-89 0,-442 -358,-800 -800,-800zm475 1444l-1270 -733c-3,29 -5,59 -5,89 0,442 358,800 800,800 178,0 342,-58 475,-156z"/>
	<path id="curve1" fill="#E68497" d="M4000 1280c619,0 1120,501 1120,1120 0,619 -501,1120 -1120,1120 -619,0 -1120,-501 -1120,-1120 0,-619 501,-1120 1120,-1120zm0 320c-442,0 -800,358 -800,800 0,442 358,800 800,800 442,0 800,-358 800,-800 0,-442 -358,-800 -800,-800z"/>
	<path id="curve0" fill="#9868B9" d="M1760 1280c619,0 1120,501 1120,1120 0,619 -501,1120 -1120,1120 -619,0 -1120,-501 -1120,-1120 0,-619 501,-1120 1120,-1120zm0 320c-442,0 -800,358 -800,800 0,442 358,800 800,800 442,0 800,-358 800,-800 0,-442 -358,-800 -800,-800z"/>
</svg>
