<?xml version="1.0" encoding="UTF-8"?>
<!DOCTYPE svg PUBLIC "-//W3C//DTD SVG 1.1//EN" "http://www.w3.org/Graphics/SVG/1.1/DTD/svg11.dtd">
<svg xmlns="http://www.w3.org/2000/svg" xml:space="preserve" width="1024px" height="1024px" shape-rendering="geometricPrecision" text-rendering="geometricPrecision" image-rendering="optimizeQuality" fill-rule="nonzero" clip-rule="evenodd" viewBox="0 0 10240 10240" xmlns:xlink="http://www.w3.org/1999/xlink">
	<title>portfolio_folder icon</title>
	<desc>portfolio_folder icon from the IconExperience.com O-Collection. Copyright by INCORS GmbH (www.incors.com).</desc>
	<path id="curve1" fill="#808080" d="M8640 6508l-2772 2772 452 0 2320 -2320 0 -452zm0 -3204l-2344 -2344 -452 0 2796 2796 0 -452z"/>
	<path id="curve0" fill="#EDC87E" d="M1920 960l3471 0 2289 2289 0 3766 -2265 2265 -3495 0c-176,0 -320,-144 -320,-320l0 -7680c0,-176 144,-320 320,-320zm6720 3249l0 1847 -640 639 0 -3126 640 640zm-1891 -3249l611 0c176,0 320,144 320,320l0 611 -931 -931zm1251 1251l0 -931c0,-117 -31,-226 -86,-320l406 0c176,0 320,144 320,320l0 1571 -640 -640zm640 5202l0 1547c0,176 -144,320 -320,320l-406 0c55,-94 86,-204 86,-320l0 -907 640 -640zm-1280 1867l-587 0 907 -907 0 587c0,176 -144,320 -320,320zm-3840 -6080c-176,0 -320,144 -320,320l0 1280c0,176 144,320 320,320l2240 0c176,0 320,-144 320,-320l0 -1280c0,-176 -144,-320 -320,-320l-2240 0z"/>
</svg>
