<?xml version="1.0" encoding="UTF-8"?>
<!DOCTYPE svg PUBLIC "-//W3C//DTD SVG 1.1//EN" "http://www.w3.org/Graphics/SVG/1.1/DTD/svg11.dtd">
<svg xmlns="http://www.w3.org/2000/svg" xml:space="preserve" width="1024px" height="1024px" shape-rendering="geometricPrecision" text-rendering="geometricPrecision" image-rendering="optimizeQuality" fill-rule="nonzero" clip-rule="evenodd" viewBox="0 0 10240 10240" xmlns:xlink="http://www.w3.org/1999/xlink">
	<title>post_horn icon</title>
	<desc>post_horn icon from the IconExperience.com O-Collection. Copyright by INCORS GmbH (www.incors.com).</desc>
	<path id="curve1" fill="#EDC87E" d="M8715 5347l77 -171c36,-80 96,-137 178,-168l175 -66c165,-63 351,20 413,185l341 897c63,165 -21,351 -185,413l-176 67c-82,31 -164,29 -244,-7l-171 -77c-81,-36 -162,-38 -245,-8l-848 311c-11,-33 -24,-66 -40,-99l-434 -868c-36,-72 -84,-135 -141,-187 168,-270 265,-588 265,-929 0,-972 -788,-1760 -1760,-1760 -972,0 -1760,788 -1760,1760 0,341 97,659 265,929 -57,52 -105,115 -141,187l-434 868c-5,11 -10,21 -14,31 -814,-421 -1711,-715 -3094,-401 -99,22 -193,2 -275,-58 -82,-60 -129,-145 -137,-246 -109,-1401 682,-2728 1984,-3203 103,-37 208,-25 300,34 92,60 145,150 153,260 48,645 206,1175 433,1602l0 -3c0,-1502 1218,-2720 2720,-2720 1502,0 2720,1218 2720,2720 0,313 -53,613 -150,892l47 -17c83,-30 142,-88 178,-168z"/>
	<path id="curve0" fill="#808080" d="M7594 7178c-480,317 -1055,502 -1674,502 -619,0 -1194,-185 -1674,-502 -136,-90 -183,-265 -110,-410l434 -869c90,-180 320,-233 480,-111 242,183 543,292 870,292 327,0 628,-109 870,-292 161,-122 390,-69 480,111l434 869c73,145 26,320 -110,410z"/>
</svg>
