<?xml version="1.0" encoding="UTF-8"?>
<!DOCTYPE svg PUBLIC "-//W3C//DTD SVG 1.1//EN" "http://www.w3.org/Graphics/SVG/1.1/DTD/svg11.dtd">
<svg xmlns="http://www.w3.org/2000/svg" xml:space="preserve" width="1024px" height="1024px" shape-rendering="geometricPrecision" text-rendering="geometricPrecision" image-rendering="optimizeQuality" fill-rule="nonzero" clip-rule="evenodd" viewBox="0 0 10240 10240" xmlns:xlink="http://www.w3.org/1999/xlink">
	<title>postage_stamp icon</title>
	<desc>postage_stamp icon from the IconExperience.com O-Collection. Copyright by INCORS GmbH (www.incors.com).</desc>
	<path id="curve2" fill="#4D82B8" d="M3251 6909c109,-569 388,-787 820,-1141 301,196 662,311 1049,311 387,0 748,-115 1049,-311 446,365 728,585 829,1194 19,115 -20,222 -109,297 -352,298 -1158,422 -1742,422 -644,0 -1558,-150 -1836,-519 -57,-75 -77,-161 -60,-253z"/>
	<path id="curve1" fill="#4D82B8" d="M5120 2573c884,0 1600,714 1600,1594 0,880 -716,1593 -1600,1593 -884,0 -1600,-713 -1600,-1593 0,-880 716,-1594 1600,-1594z"/>
	<path id="curve0" fill="#4D82B8" d="M1920 640l640 0c0,353 287,640 640,640 353,0 640,-287 640,-640l640 0c0,353 287,640 640,640 353,0 640,-287 640,-640l640 0c-7,359 270,654 629,654 360,0 647,-295 640,-654l651 0c0,353 287,640 640,640l0 320c-353,0 -640,287 -640,640 0,353 287,640 640,640l0 640c-353,0 -640,287 -640,640 0,353 287,640 640,640l0 640c-353,0 -640,287 -640,640 0,353 287,640 640,640l0 635c-349,5 -631,289 -631,639 0,351 282,635 631,640l0 326c-353,0 -640,287 -640,640l-640 0c0,-353 -287,-640 -640,-640 -353,0 -640,287 -640,640l-640 0c0,-353 -287,-640 -640,-640 -353,0 -640,287 -640,640l-640 0c0,-353 -287,-640 -640,-640 -353,0 -640,287 -640,640l-611 0c-19,-351 -318,-621 -669,-605l0 -361c357,6 649,-282 649,-640 0,-357 -292,-645 -649,-639l0 -635c353,0 640,-287 640,-640 0,-353 -287,-640 -640,-640l0 -640c353,0 640,-287 640,-640 0,-353 -287,-640 -640,-640l0 -640c353,0 640,-287 640,-640 0,-353 -287,-640 -640,-640l0 -320c353,0 640,-287 640,-640zm640 1280l0 6400 5120 0 0 -6400 -5120 0z"/>
</svg>
