<?xml version="1.0" encoding="UTF-8"?>
<!DOCTYPE svg PUBLIC "-//W3C//DTD SVG 1.1//EN" "http://www.w3.org/Graphics/SVG/1.1/DTD/svg11.dtd">
<svg xmlns="http://www.w3.org/2000/svg" xml:space="preserve" width="1024px" height="1024px" shape-rendering="geometricPrecision" text-rendering="geometricPrecision" image-rendering="optimizeQuality" fill-rule="nonzero" clip-rule="evenodd" viewBox="0 0 10240 10240" xmlns:xlink="http://www.w3.org/1999/xlink">
	<title>precision_knife icon</title>
	<desc>precision_knife icon from the IconExperience.com O-Collection. Copyright by INCORS GmbH (www.incors.com).</desc>
	<path id="curve2" fill="#808080" d="M527,8960 1824,7663 2577,8416 2033,8960z"/>
	<path id="curve1" fill="#EDC87E" d="M2841 8227l-828 -828c-124,-124 -124,-328 0,-452l1788 -1788c124,-125 328,-125 452,0l828 828c125,124 125,328 0,452l-1788 1788c-124,124 -328,124 -452,0z"/>
	<path id="curve0" fill="#808080" d="M4418 4878l4103 -3830c129,-121 330,-116 454,8l209 209c124,124 129,325 8,454l-3830 4103c-17,-21 -35,-42 -55,-62l-827 -827c-20,-20 -41,-38 -62,-55z"/>
</svg>
