<?xml version="1.0" encoding="UTF-8"?>
<!DOCTYPE svg PUBLIC "-//W3C//DTD SVG 1.1//EN" "http://www.w3.org/Graphics/SVG/1.1/DTD/svg11.dtd">
<svg xmlns="http://www.w3.org/2000/svg" xml:space="preserve" width="1024px" height="1024px" shape-rendering="geometricPrecision" text-rendering="geometricPrecision" image-rendering="optimizeQuality" fill-rule="nonzero" clip-rule="evenodd" viewBox="0 0 10240 10240" xmlns:xlink="http://www.w3.org/1999/xlink">
	<title>precision_square icon</title>
	<desc>precision_square icon from the IconExperience.com O-Collection. Copyright by INCORS GmbH (www.incors.com).</desc>
	<path id="curve0" fill="#808080" d="M1280 640l7680 0 0 2560 -4480 0c0,-353 -287,-640 -640,-640 -353,0 -640,287 -640,640 0,353 287,640 640,640l0 5760 -2560 0 0 -8960zm7040 1920l0 -1280 -6400 0 0 7680 1280 0 0 -320 -320 0 0 -320 320 0 0 -320 -640 0 0 -320 640 0 0 -320 -320 0 0 -320 320 0 0 -320 -640 0 0 -320 640 0 0 -320 -320 0 0 -320 320 0 0 -320 -640 0 0 -320 640 0 0 -320 -320 0 0 -320 320 0 0 -171c-383,-222 -640,-635 -640,-1109 0,-707 573,-1280 1280,-1280 474,0 887,257 1109,640l171 0 0 -320 320 0 0 320 320 0 0 -640 320 0 0 640 320 0 0 -320 320 0 0 320 320 0 0 -640 320 0 0 640 320 0 0 -320 320 0 0 320 320 0z"/>
</svg>
