<?xml version="1.0" encoding="UTF-8"?>
<!DOCTYPE svg PUBLIC "-//W3C//DTD SVG 1.1//EN" "http://www.w3.org/Graphics/SVG/1.1/DTD/svg11.dtd">
<svg xmlns="http://www.w3.org/2000/svg" xml:space="preserve" width="1024px" height="1024px" shape-rendering="geometricPrecision" text-rendering="geometricPrecision" image-rendering="optimizeQuality" fill-rule="nonzero" clip-rule="evenodd" viewBox="0 0 10240 10240" xmlns:xlink="http://www.w3.org/1999/xlink">
	<title>pressure_sprayer icon</title>
	<desc>pressure_sprayer icon from the IconExperience.com O-Collection. Copyright by INCORS GmbH (www.incors.com).</desc>
	<path id="curve4" fill="#EDC87E" d="M9600 3840l0 5440c0,176 -144,320 -320,320l-3840 0c-176,0 -320,-144 -320,-320 0,-1813 0,-3627 0,-5440 0,-353 287,-640 640,-640l3200 0c353,0 640,287 640,640zm-3520 0c-176,0 -320,144 -320,320l0 4480c0,176 144,320 320,320l0 0c176,0 320,-144 320,-320l0 -4480c0,-176 -144,-320 -320,-320l0 0z"/>
	<path id="curve3" fill="#808080" d="M6400 640l1920 0c352,0 640,288 640,640l0 640c0,352 -288,640 -640,640l-640 0 0 320 -640 0 0 -320 -640 0c-352,0 -640,-287 -640,-640l0 -640c0,-353 287,-640 640,-640zm0 640l0 640 1920 0 0 -640 -1920 0z"/>
	<path id="curve2" fill="#808080" d="M4800 4480c-95,0 -188,17 -273,52 -206,83 -367,279 -367,588l0 3200c0,612 -337,1006 -767,1181 -163,66 -339,99 -513,99 -174,0 -350,-33 -513,-99 -430,-175 -767,-569 -767,-1181l0 -320 640 0 0 320c0,309 161,505 367,588 85,35 178,52 273,52 95,0 188,-17 273,-52 206,-83 367,-279 367,-588l0 -3200c0,-612 337,-1007 767,-1181 163,-66 339,-99 513,-99l0 640z"/>
	<path id="curve1" fill="#808080" d="M1280 7040l320 0 0 -1920 -320 0 0 -536c0,-72 10,-134 33,-203l223 -669c107,80 240,128 384,128 144,0 277,-48 384,-128l223 669c23,69 33,131 33,203l0 536 -320 0 0 1920 320 0 0 640 -1280 0 0 -640z"/>
	<path id="curve0" fill="#EDC87E" d="M2240 3200c0,177 -143,320 -320,320 -177,0 -320,-143 -320,-320 0,-177 143,-320 320,-320 177,0 320,143 320,320zm-1280 -1920c0,177 -143,320 -320,320 -177,0 -320,-143 -320,-320 0,-177 143,-320 320,-320 177,0 320,143 320,320zm2560 0c0,177 -143,320 -320,320 -177,0 -320,-143 -320,-320 0,-177 143,-320 320,-320 177,0 320,143 320,320zm-1280 0c0,177 -143,320 -320,320 -177,0 -320,-143 -320,-320 0,-177 143,-320 320,-320 177,0 320,143 320,320zm640 960c0,177 -143,320 -320,320 -177,0 -320,-143 -320,-320 0,-177 143,-320 320,-320 177,0 320,143 320,320zm-1280 0c0,177 -143,320 -320,320 -177,0 -320,-143 -320,-320 0,-177 143,-320 320,-320 177,0 320,143 320,320z"/>
</svg>
