<?xml version="1.0" encoding="UTF-8"?>
<!DOCTYPE svg PUBLIC "-//W3C//DTD SVG 1.1//EN" "http://www.w3.org/Graphics/SVG/1.1/DTD/svg11.dtd">
<svg xmlns="http://www.w3.org/2000/svg" xml:space="preserve" width="1024px" height="1024px" shape-rendering="geometricPrecision" text-rendering="geometricPrecision" image-rendering="optimizeQuality" fill-rule="nonzero" clip-rule="evenodd" viewBox="0 0 10240 10240" xmlns:xlink="http://www.w3.org/1999/xlink">
	<title>presentation_chart icon</title>
	<desc>presentation_chart icon from the IconExperience.com O-Collection. Copyright by INCORS GmbH (www.incors.com).</desc>
	<path id="curve3" fill="#808080" d="M7040 8884l-1584 -793 0 -731 -640 0 0 715 -1616 809c-79,40 -133,102 -161,186 -28,84 -22,166 18,245 79,157 272,221 429,142l1634 -818 1634 818c157,79 350,15 429,-142 40,-79 46,-161 18,-245 -28,-84 -82,-146 -161,-186z"/>
	<path id="curve2" fill="#EDC87E" d="M6782 2807c348,347 562,827 562,1357 0,531 -214,1011 -562,1358l-1358 -1358 1358 -1357z"/>
	<path id="curve1" fill="#4D82B8" d="M4800 2240c530,0 1010,215 1358,562l-1358 1358 1358 1358c-348,347 -828,562 -1358,562 -1060,0 -1920,-860 -1920,-1920 0,-1060 860,-1920 1920,-1920z"/>
	<path id="curve0" fill="#808080" d="M8320 1280c176,0 320,144 320,320 0,176 -144,320 -320,320l0 4492c178,0 323,141 323,320 0,176 -143,320 -320,320l-6400 0c-176,0 -320,-144 -320,-320 0,-175 142,-318 317,-320l0 -4492c-176,0 -320,-144 -320,-320 0,-176 144,-320 320,-320l6400 0zm-320 640l-5760 0 0 4480 5760 0 0 -4480z"/>
</svg>
