<?xml version="1.0" encoding="UTF-8"?>
<!DOCTYPE svg PUBLIC "-//W3C//DTD SVG 1.1//EN" "http://www.w3.org/Graphics/SVG/1.1/DTD/svg11.dtd">
<svg xmlns="http://www.w3.org/2000/svg" xml:space="preserve" width="1024px" height="1024px" shape-rendering="geometricPrecision" text-rendering="geometricPrecision" image-rendering="optimizeQuality" fill-rule="nonzero" clip-rule="evenodd" viewBox="0 0 10240 10240" xmlns:xlink="http://www.w3.org/1999/xlink">
	<title>press icon</title>
	<desc>press icon from the IconExperience.com O-Collection. Copyright by INCORS GmbH (www.incors.com).</desc>
	<path id="curve1" fill="#4D82B8" d="M4160 3840l0 640 -1600 0c-353,0 -640,287 -640,640l0 3200 6400 0 0 -3200c0,-353 -287,-640 -640,-640l-1600 0 0 -640 1600 0c705,0 1280,575 1280,1280l0 4480c-2560,0 -5120,0 -7680,0l0 -4480c0,-705 575,-1280 1280,-1280l1600 0z"/>
	<path id="curve0" fill="#808080" d="M3114 2240l1366 0 0 2880 -1920 0 0 1280 5120 0 0 -1280 -1920 0 0 -2880 1366 0c110,191 317,320 554,320 353,0 640,-287 640,-640 0,-353 -287,-640 -640,-640 -237,0 -444,129 -554,320l-1366 0c0,-176 -144,-320 -320,-320l-640 0c-176,0 -320,144 -320,320l-1366 0c-110,-191 -317,-320 -554,-320 -353,0 -640,287 -640,640 0,353 287,640 640,640 237,0 444,-129 554,-320z"/>
</svg>
