<?xml version="1.0" encoding="UTF-8"?>
<!DOCTYPE svg PUBLIC "-//W3C//DTD SVG 1.1//EN" "http://www.w3.org/Graphics/SVG/1.1/DTD/svg11.dtd">
<svg xmlns="http://www.w3.org/2000/svg" xml:space="preserve" width="1024px" height="1024px" shape-rendering="geometricPrecision" text-rendering="geometricPrecision" image-rendering="optimizeQuality" fill-rule="nonzero" clip-rule="evenodd" viewBox="0 0 10240 10240" xmlns:xlink="http://www.w3.org/1999/xlink">
	<title>pretzel icon</title>
	<desc>pretzel icon from the IconExperience.com O-Collection. Copyright by INCORS GmbH (www.incors.com).</desc>
	<path id="curve0" fill="#EDC87E" d="M3840 4480c0,-1685 1280,-2560 2560,-2560 1018,0 1769,243 2417,1077 489,629 783,1492 783,2443 0,2590 -1982,4205 -4492,4160 -2519,-5 -4468,-1533 -4468,-4160 0,-951 278,-1798 767,-2427 519,-667 1153,-1093 2433,-1093 312,0 625,52 918,155 -440,285 -766,673 -972,1126 -920,36 -1546,977 -1546,1919 0,267 30,517 88,747 -412,188 -647,652 -533,1106 127,511 651,825 1163,697 274,-68 549,-135 822,-208 426,159 888,218 1340,218 508,0 957,-75 1340,-218 273,73 548,140 822,208 512,128 1036,-186 1163,-697 114,-454 -121,-918 -533,-1106 58,-230 88,-480 88,-747 0,-848 -507,-1695 -1280,-1882 -324,-78 -722,-34 -1006,113 -435,225 -593,655 -594,1127 -9,548 -688,802 -1122,943 -102,-269 -158,-579 -158,-941zm-320 3840c-177,0 -320,143 -320,320 0,177 143,320 320,320 177,0 320,-143 320,-320 0,-177 -143,-320 -320,-320zm2080 320c-88,0 -160,72 -160,160 0,88 72,160 160,160 88,0 160,-72 160,-160 0,-88 -72,-160 -160,-160zm320 -640c-88,0 -160,72 -160,160 0,88 72,160 160,160 88,0 160,-72 160,-160 0,-88 -72,-160 -160,-160zm1280 0c-88,0 -160,72 -160,160 0,88 72,160 160,160 88,0 160,-72 160,-160 0,-88 -72,-160 -160,-160zm-2880 960c-88,0 -160,72 -160,160 0,88 72,160 160,160 88,0 160,-72 160,-160 0,-88 -72,-160 -160,-160zm2400 -640c-177,0 -320,143 -320,320 0,177 143,320 320,320 177,0 320,-143 320,-320 0,-177 -143,-320 -320,-320zm-1920 -320c-177,0 -320,143 -320,320 0,177 143,320 320,320 177,0 320,-143 320,-320 0,-177 -143,-320 -320,-320zm1619 -2193c379,122 781,202 1113,280 46,10 92,22 138,33 342,86 551,433 465,775 -86,342 -433,551 -775,465 -294,-74 -588,-146 -881,-225 -351,-96 -694,-204 -1011,-340 203,-127 391,-274 557,-446 162,-168 292,-349 394,-542zm-3849 313c-49,14 -95,30 -141,53 -256,134 -397,430 -324,722 86,342 433,551 775,465 150,-38 302,-75 454,-113 1529,-388 3066,-876 3066,-2767 0,-353 -56,-671 -157,-952 -524,51 -802,373 -803,950 -17,1234 -1981,1420 -2870,1642z"/>
</svg>
