<?xml version="1.0" encoding="UTF-8"?>
<!DOCTYPE svg PUBLIC "-//W3C//DTD SVG 1.1//EN" "http://www.w3.org/Graphics/SVG/1.1/DTD/svg11.dtd">
<svg xmlns="http://www.w3.org/2000/svg" xml:space="preserve" width="1024px" height="1024px" shape-rendering="geometricPrecision" text-rendering="geometricPrecision" image-rendering="optimizeQuality" fill-rule="nonzero" clip-rule="evenodd" viewBox="0 0 10240 10240" xmlns:xlink="http://www.w3.org/1999/xlink">
	<title>price_sticker icon</title>
	<desc>price_sticker icon from the IconExperience.com O-Collection. Copyright by INCORS GmbH (www.incors.com).</desc>
	<path id="curve2" fill="#EDC87E" d="M5456 1651l1636 -809c143,-71 313,-27 405,103 577,827 1445,524 2101,1818 656,1293 -106,1798 214,2746 51,153 -17,318 -162,389l-1633 808c85,-566 21,-1062 -195,-1486 -229,-453 -627,-818 -1192,-1097 -995,-491 -1393,-1276 -1195,-2355l21 -117z"/>
	<path id="curve1" fill="#EDC87E" d="M2418 3154l2684 -1328c-179,1178 284,2039 1387,2583 501,247 851,566 1048,955 198,389 247,856 147,1400l-21 117 -2685 1327c86,-566 21,-1061 -194,-1485 -230,-453 -628,-819 -1193,-1098 -501,-247 -851,-565 -1048,-954 -198,-390 -247,-857 -147,-1400l22 -117z"/>
	<path id="curve0" fill="#EDC87E" d="M590 4057l1473 -728c-85,566 -20,1061 195,1485 229,453 627,819 1192,1098 502,247 851,565 1049,955 197,389 246,856 146,1400l-21 117 -1477 730c-142,70 -312,27 -404,-104 -577,-826 -1445,-523 -2101,-1818 -656,-1292 106,-1797 -214,-2745 -51,-153 17,-318 162,-390z"/>
</svg>
