<?xml version="1.0" encoding="UTF-8"?>
<!DOCTYPE svg PUBLIC "-//W3C//DTD SVG 1.1//EN" "http://www.w3.org/Graphics/SVG/1.1/DTD/svg11.dtd">
<svg xmlns="http://www.w3.org/2000/svg" xml:space="preserve" width="1024px" height="1024px" shape-rendering="geometricPrecision" text-rendering="geometricPrecision" image-rendering="optimizeQuality" fill-rule="nonzero" clip-rule="evenodd" viewBox="0 0 10240 10240" xmlns:xlink="http://www.w3.org/1999/xlink">
	<title>printer3 icon</title>
	<desc>printer3 icon from the IconExperience.com O-Collection. Copyright by INCORS GmbH (www.incors.com).</desc>
	<path id="curve2" fill="#808080" d="M1920 4480l6400 0c705,0 1280,575 1280,1280l0 1920c0,705 -575,1280 -1280,1280l-6400 0c-705,0 -1280,-575 -1280,-1280l0 -1920c0,-705 575,-1280 1280,-1280zm320 640c-176,0 -320,144 -320,320 0,176 144,320 320,320l640 0c176,0 320,-144 320,-320 0,-176 -144,-320 -320,-320l-640 0zm0 1920c-176,0 -320,144 -320,320l0 640c0,176 144,320 320,320l5760 0c176,0 320,-144 320,-320l0 -640c0,-176 -144,-320 -320,-320l-5760 0z"/>
	<path id="curve1" fill="#4D82B8" d="M3200 1600l3840 0 0 2560 -966 0c-75,-68 -163,-132 -263,-202 -199,128 -436,202 -691,202 -255,0 -492,-74 -691,-202 -100,70 -188,134 -263,202l-966 0 0 -2560zm1920 320c-530,0 -960,430 -960,960 0,530 430,960 960,960 530,0 960,-430 960,-960 0,-530 -430,-960 -960,-960z"/>
	<path id="curve0" fill="#808080" d="M2240,640 8000,640 8000,4160 7360,4160 7360,1280 2880,1280 2880,4160 2240,4160z"/>
</svg>
