<?xml version="1.0" encoding="UTF-8"?>
<!DOCTYPE svg PUBLIC "-//W3C//DTD SVG 1.1//EN" "http://www.w3.org/Graphics/SVG/1.1/DTD/svg11.dtd">
<svg xmlns="http://www.w3.org/2000/svg" xml:space="preserve" width="1024px" height="1024px" shape-rendering="geometricPrecision" text-rendering="geometricPrecision" image-rendering="optimizeQuality" fill-rule="nonzero" clip-rule="evenodd" viewBox="0 0 10240 10240" xmlns:xlink="http://www.w3.org/1999/xlink">
	<title>printer_network icon</title>
	<desc>printer_network icon from the IconExperience.com O-Collection. Copyright by INCORS GmbH (www.incors.com).</desc>
	<path id="curve3" fill="#4D82B8" d="M5440 8640c176,0 320,144 320,320l1280 0 0 640 -1280 0c0,176 -144,320 -320,320l-640 0c-176,0 -320,-144 -320,-320l-1280 0 0 -640 1280 0c0,-176 144,-320 320,-320l0 -640 640 0 0 640z"/>
	<path id="curve2" fill="#808080" d="M2560 3840l5120 0c705,0 1280,575 1280,1280l0 1280c0,705 -575,1280 -1280,1280l-5120 0c-705,0 -1280,-575 -1280,-1280l0 -1280c0,-705 575,-1280 1280,-1280zm320 1920c-176,0 -320,144 -320,320l0 640c0,176 144,320 320,320l4480 0c176,0 320,-144 320,-320l0 -640c0,-176 -144,-320 -320,-320l-4480 0zm0 -1600c-176,0 -320,144 -320,320l0 0c0,176 144,320 320,320l640 0c176,0 320,-144 320,-320l0 0c0,-176 -144,-320 -320,-320l-640 0z"/>
	<path id="curve1" fill="#808080" d="M3840 3200l2560 0 0 320 -2560 0 0 -320zm0 -1280l2560 0 0 320 -2560 0 0 -320zm0 640l2560 0 0 320 -2560 0 0 -320z"/>
	<path id="curve0" fill="#808080" d="M2560,960 7680,960 7680,3520 7040,3520 7040,1600 3200,1600 3200,3520 2560,3520z"/>
</svg>
