<?xml version="1.0" encoding="UTF-8"?>
<!DOCTYPE svg PUBLIC "-//W3C//DTD SVG 1.1//EN" "http://www.w3.org/Graphics/SVG/1.1/DTD/svg11.dtd">
<svg xmlns="http://www.w3.org/2000/svg" xml:space="preserve" width="1024px" height="1024px" shape-rendering="geometricPrecision" text-rendering="geometricPrecision" image-rendering="optimizeQuality" fill-rule="nonzero" clip-rule="evenodd" viewBox="0 0 10240 10240" xmlns:xlink="http://www.w3.org/1999/xlink">
	<title>print_calculator icon</title>
	<desc>print_calculator icon from the IconExperience.com O-Collection. Copyright by INCORS GmbH (www.incors.com).</desc>
	<path id="curve1" fill="#76A797" d="M2880,3840 2880,4800 7360,4800 7360,3840z"/>
	<path id="curve0" fill="#808080" d="M8320 2560l0 6400c0,352 -288,640 -640,640l-5120 0c-352,0 -640,-287 -640,-640l0 -6400c0,-353 287,-640 640,-640l960 0 0 -320c0,-707 573,-1280 1280,-1280l1920 0c529,0 960,431 960,960 0,176 -144,320 -320,320l-640 0 0 320 960 0c353,0 640,287 640,640zm-960 -1280c0,-352 -287,-640 -640,-640l-1920 0c-530,0 -960,430 -960,960l0 960 2560 0 0 -1280c0,-176 144,-320 320,-320l0 0c176,0 320,144 320,320l0 0 320 0 0 0zm-3840 1280c-176,0 -320,144 -320,320 0,176 144,320 320,320l3200 0c176,0 320,-144 320,-320 0,-176 -144,-320 -320,-320l0 320 -3200 0 0 -320zm-640 960c-176,0 -320,144 -320,320l0 960c0,176 144,320 320,320l4480 0c176,0 320,-144 320,-320l0 -960c0,-176 -144,-320 -320,-320l-4480 0zm0 1920c-176,0 -320,144 -320,320l0 320c0,176 144,320 320,320l320 0c176,0 320,-144 320,-320l0 -320c0,-176 -144,-320 -320,-320l-320 0zm4160 0c-176,0 -320,144 -320,320l0 320c0,176 144,320 320,320l320 0c176,0 320,-144 320,-320l0 -320c0,-176 -144,-320 -320,-320l-320 0zm0 1280c-176,0 -320,144 -320,320l0 1600c0,176 144,320 320,320l320 0c176,0 320,-144 320,-320l0 -1600c0,-176 -144,-320 -320,-320l-320 0zm-1600 1280c-176,0 -320,144 -320,320l0 320c0,176 144,320 320,320l320 0c176,0 320,-144 320,-320l0 -320c0,-176 -144,-320 -320,-320l-320 0zm0 -1280c-176,0 -320,144 -320,320l0 320c0,176 144,320 320,320l320 0c176,0 320,-144 320,-320l0 -320c0,-176 -144,-320 -320,-320l-320 0zm-1280 1280c-176,0 -320,144 -320,320l0 320c0,176 144,320 320,320l320 0c176,0 320,-144 320,-320l0 -320c0,-176 -144,-320 -320,-320l-320 0zm0 -1280c-176,0 -320,144 -320,320l0 320c0,176 144,320 320,320l320 0c176,0 320,-144 320,-320l0 -320c0,-176 -144,-320 -320,-320l-320 0zm1280 -1280c-176,0 -320,144 -320,320l0 320c0,176 144,320 320,320l320 0c176,0 320,-144 320,-320l0 -320c0,-176 -144,-320 -320,-320l-320 0zm-1280 0c-176,0 -320,144 -320,320l0 320c0,176 144,320 320,320l320 0c176,0 320,-144 320,-320l0 -320c0,-176 -144,-320 -320,-320l-320 0zm-1280 2560c-176,0 -320,144 -320,320l0 320c0,176 144,320 320,320l320 0c176,0 320,-144 320,-320l0 -320c0,-176 -144,-320 -320,-320l-320 0zm0 -1280c-176,0 -320,144 -320,320l0 320c0,176 144,320 320,320l320 0c176,0 320,-144 320,-320l0 -320c0,-176 -144,-320 -320,-320l-320 0z"/>
</svg>
