<?xml version="1.0" encoding="UTF-8"?>
<!DOCTYPE svg PUBLIC "-//W3C//DTD SVG 1.1//EN" "http://www.w3.org/Graphics/SVG/1.1/DTD/svg11.dtd">
<svg xmlns="http://www.w3.org/2000/svg" xml:space="preserve" width="1024px" height="1024px" shape-rendering="geometricPrecision" text-rendering="geometricPrecision" image-rendering="optimizeQuality" fill-rule="nonzero" clip-rule="evenodd" viewBox="0 0 10240 10240" xmlns:xlink="http://www.w3.org/1999/xlink">
	<title>print_layout_continous icon</title>
	<desc>print_layout_continous icon from the IconExperience.com O-Collection. Copyright by INCORS GmbH (www.incors.com).</desc>
	<path id="curve3" fill="#4D82B8" d="M2560 8960l4480 0 0 640 -4480 0 0 -640zm0 -2560l1920 0 0 640 -1920 0 0 -640zm0 1280l1920 0 0 640 -1920 0 0 -640z"/>
	<path id="curve2" fill="#808080" d="M1280,5120 8960,5120 8960,9600 8320,9600 8320,5760 1920,5760 1920,9600 1280,9600z"/>
	<path id="curve1" fill="#4D82B8" d="M2560 2560l1920 0 0 640 -1920 0 0 -640zm0 -1280l4480 0 0 640 -4480 0 0 -640z"/>
	<path id="curve0" fill="#808080" d="M8960,640 8960,4480 1280,4480 1280,640 1920,640 1920,3840 8320,3840 8320,640z"/>
</svg>
