<?xml version="1.0" encoding="UTF-8"?>
<!DOCTYPE svg PUBLIC "-//W3C//DTD SVG 1.1//EN" "http://www.w3.org/Graphics/SVG/1.1/DTD/svg11.dtd">
<svg xmlns="http://www.w3.org/2000/svg" xml:space="preserve" width="1024px" height="1024px" shape-rendering="geometricPrecision" text-rendering="geometricPrecision" image-rendering="optimizeQuality" fill-rule="nonzero" clip-rule="evenodd" viewBox="0 0 10240 10240" xmlns:xlink="http://www.w3.org/1999/xlink">
	<title>projector icon</title>
	<desc>projector icon from the IconExperience.com O-Collection. Copyright by INCORS GmbH (www.incors.com).</desc>
	<path id="curve1" fill="#4D82B8" d="M3527 4160c880,0 1593,713 1593,1593 0,880 -713,1593 -1593,1593 -880,0 -1593,-713 -1593,-1593 0,-880 713,-1593 1593,-1593zm0 320c-678,0 -1233,530 -1271,1199 -6,106 36,201 119,268 84,67 185,87 288,58l0 0c133,-38 224,-151 232,-289 19,-333 295,-596 632,-596 2,0 5,0 7,0 138,2 256,-79 304,-208l0 0c38,-100 25,-204 -36,-293 -60,-88 -152,-138 -260,-139 -5,0 -10,0 -15,0z"/>
	<path id="curve0" fill="#808080" d="M8960 3840c353,0 640,287 640,640l0 3200c0,352 -287,640 -640,640l0 0 0 320c0,176 -144,320 -320,320l-640 0c-176,0 -320,-144 -320,-320l0 -320 -4160 0 -960 0 0 320c0,176 -144,320 -320,320l-640 0c-176,0 -320,-144 -320,-320l0 -320c-352,0 -640,-288 -640,-640l0 -3200c0,-353 287,-640 640,-640l547 0c451,-398 1044,-640 1693,-640 649,0 1242,242 1693,640l3747 0zm-1920 640l0 320 1920 0 0 -320 -1920 0zm0 1280l0 320 1920 0 0 -320 -1920 0zm0 -640l0 320 1920 0 0 -320 -1920 0zm-3513 -1294c-1064,0 -1927,863 -1927,1927 0,1064 863,1927 1927,1927 1064,0 1927,-863 1927,-1927 0,-1064 -863,-1927 -1927,-1927z"/>
</svg>
