<?xml version="1.0" encoding="UTF-8"?>
<!DOCTYPE svg PUBLIC "-//W3C//DTD SVG 1.1//EN" "http://www.w3.org/Graphics/SVG/1.1/DTD/svg11.dtd">
<svg xmlns="http://www.w3.org/2000/svg" xml:space="preserve" width="1024px" height="1024px" shape-rendering="geometricPrecision" text-rendering="geometricPrecision" image-rendering="optimizeQuality" fill-rule="nonzero" clip-rule="evenodd" viewBox="0 0 10240 10240" xmlns:xlink="http://www.w3.org/1999/xlink">
	<title>pumpkin_halloween icon</title>
	<desc>pumpkin_halloween icon from the IconExperience.com O-Collection. Copyright by INCORS GmbH (www.incors.com).</desc>
	<path id="curve1" fill="#ED9A56" d="M3360 2560c210,0 412,67 598,190 339,-324 737,-510 1162,-510 425,0 823,186 1162,510 186,-123 388,-190 598,-190 972,0 1760,1433 1760,3200 0,1767 -788,3200 -1760,3200 -210,0 -412,-67 -598,-190 -339,324 -737,510 -1162,510 -425,0 -823,-186 -1162,-510 -186,123 -388,190 -598,190 -972,0 -1760,-1433 -1760,-3200 0,-1767 788,-3200 1760,-3200zm4377 4177c31,-63 18,-135 -32,-184 -50,-50 -122,-61 -184,-29 -323,164 -703,296 -1121,385l0 771 -640 0 0 -672c-208,21 -421,32 -640,32 -333,0 -655,-25 -960,-72l0 392 -640 0 0 -529c-293,-82 -562,-186 -801,-307 -62,-32 -134,-21 -184,29 -50,49 -63,121 -32,184 369,757 1097,1327 1977,1516l0 -573 640 0 0 640c1161,0 2161,-649 2617,-1583zm-2617 -1617l-640 960 1280 0 -640 -960zm-1600 -1600l-960 1600 1920 0 -960 -1600zm3200 0l-960 1600 1920 0 -960 -1600zm-4559 5116c-847,-74 -1521,-1333 -1521,-2876 0,-1543 674,-2802 1521,-2876 -533,637 -881,1688 -881,2876 0,1188 348,2239 881,2876zm5918 -5752c847,74 1521,1333 1521,2876 0,1543 -674,2802 -1521,2876 533,-637 881,-1688 881,-2876 0,-1188 -348,-2239 -881,-2876z"/>
	<path id="curve0" fill="#76A797" d="M5441 1646c263,78 473,248 574,463 -282,-122 -583,-189 -895,-189 -312,0 -613,67 -895,189 102,-216 313,-386 576,-464 3,-208 12,-383 45,-548 53,-263 158,-474 368,-683 125,-125 327,-125 452,0 125,125 125,327 0,452 -110,110 -165,220 -192,356 -23,114 -30,253 -33,424z"/>
</svg>
