<?xml version="1.0" encoding="UTF-8"?>
<!DOCTYPE svg PUBLIC "-//W3C//DTD SVG 1.1//EN" "http://www.w3.org/Graphics/SVG/1.1/DTD/svg11.dtd">
<svg xmlns="http://www.w3.org/2000/svg" xml:space="preserve" width="1024px" height="1024px" shape-rendering="geometricPrecision" text-rendering="geometricPrecision" image-rendering="optimizeQuality" fill-rule="nonzero" clip-rule="evenodd" viewBox="0 0 10240 10240" xmlns:xlink="http://www.w3.org/1999/xlink">
	<title>pumpkin icon</title>
	<desc>pumpkin icon from the IconExperience.com O-Collection. Copyright by INCORS GmbH (www.incors.com).</desc>
	<path id="curve1" fill="#ED9A56" d="M8079 2884c847,74 1521,1333 1521,2876 0,1543 -674,2802 -1521,2876 533,-637 881,-1688 881,-2876 0,-1188 -348,-2239 -881,-2876zm-377 5706l0 0c-245,236 -525,370 -822,370 -102,0 -202,-16 -299,-46 775,-810 1099,-2059 1099,-3154 0,-1095 -324,-2344 -1099,-3154l0 0c97,-30 197,-46 299,-46 297,0 577,134 822,370l0 0c558,537 938,1603 938,2830 0,1227 -380,2293 -938,2830zm-1420 180l0 0c-339,324 -737,510 -1162,510 -425,0 -823,-186 -1162,-510 -769,-742 -1078,-1973 -1078,-3010 0,-1037 309,-2269 1078,-3010 339,-324 737,-510 1162,-510 425,0 823,186 1162,510 773,736 1078,1976 1078,3010 0,1276 -432,2393 -1078,3010zm-2619 143c-98,31 -200,47 -303,47 -297,0 -577,-134 -822,-370l0 0c-558,-537 -938,-1603 -938,-2830 0,-1227 380,-2293 938,-2830l0 0c245,-236 525,-370 822,-370 102,0 202,16 299,46 -775,810 -1099,2059 -1099,3154 0,1306 435,2460 1099,3154 2,-1 3,-1 4,-1zm-1502 -277c-847,-74 -1521,-1333 -1521,-2876 0,-1543 674,-2802 1521,-2876 -533,637 -881,1688 -881,2876 0,1188 348,2239 881,2876z"/>
	<path id="curve0" fill="#76A797" d="M5441 1646c290,86 515,284 601,531 -286,-166 -597,-257 -922,-257 -325,0 -636,91 -922,257 86,-248 313,-447 603,-532 3,-208 12,-383 45,-548 53,-263 158,-474 368,-683 125,-125 327,-125 452,0 125,125 125,327 0,452 -110,110 -165,220 -192,356 -23,114 -30,253 -33,424z"/>
</svg>
