<?xml version="1.0" encoding="UTF-8"?>
<!DOCTYPE svg PUBLIC "-//W3C//DTD SVG 1.1//EN" "http://www.w3.org/Graphics/SVG/1.1/DTD/svg11.dtd">
<svg xmlns="http://www.w3.org/2000/svg" xml:space="preserve" width="1024px" height="1024px" shape-rendering="geometricPrecision" text-rendering="geometricPrecision" image-rendering="optimizeQuality" fill-rule="nonzero" clip-rule="evenodd" viewBox="0 0 10240 10240" xmlns:xlink="http://www.w3.org/1999/xlink">
	<title>punching_bag icon</title>
	<desc>punching_bag icon from the IconExperience.com O-Collection. Copyright by INCORS GmbH (www.incors.com).</desc>
	<path id="curve2" fill="#808080" d="M3840,5440 7680,5440 7680,7360 3840,7360z"/>
	<path id="curve1" fill="#76A797" d="M5760 2560c1057,0 1920,223 1920,1280l0 1280 -3840 0 0 -1280c0,-1058 863,-1280 1920,-1280zm1920 5120l0 640c0,352 -287,640 -640,640l-2560 0c-352,0 -640,-287 -640,-640l0 -640 3840 0z"/>
	<path id="curve0" fill="#808080" d="M5760 640c177,0 320,143 320,320 0,47 -10,93 -29,133l933 1306c-151,-51 -311,-87 -471,-111l-722 -1010c-21,3 -42,2 -63,2l-721 1008c-160,24 -320,60 -471,111l799 -1119 -1815 0c-528,0 -960,432 -960,960l0 7360 -640 0 0 -7360c0,-882 718,-1600 1600,-1600l2240 0z"/>
</svg>
