<?xml version="1.0" encoding="UTF-8"?>
<!DOCTYPE svg PUBLIC "-//W3C//DTD SVG 1.1//EN" "http://www.w3.org/Graphics/SVG/1.1/DTD/svg11.dtd">
<svg xmlns="http://www.w3.org/2000/svg" xml:space="preserve" width="1024px" height="1024px" shape-rendering="geometricPrecision" text-rendering="geometricPrecision" image-rendering="optimizeQuality" fill-rule="nonzero" clip-rule="evenodd" viewBox="0 0 10240 10240" xmlns:xlink="http://www.w3.org/1999/xlink">
	<title>purchase_order icon</title>
	<desc>purchase_order icon from the IconExperience.com O-Collection. Copyright by INCORS GmbH (www.incors.com).</desc>
	<path id="curve1" fill="#808080" d="M1920 640l5230 0c352,0 656,126 905,375l1170 1170c249,249 375,553 375,905l0 6510 -4216 0c36,-100 55,-209 55,-321 0,-112 -19,-219 -54,-319l3575 0 0 -5440c0,-176 -144,-320 -320,-320l-1600 0 0 -1600c0,-176 -144,-320 -320,-320l-4160 0 0 3201 -640 0 0 -3841zm5760 960l0 960 960 0 -960 -960z"/>
	<path id="curve0" fill="#4D82B8" d="M646 6782l-319 -1600c-39,-196 111,-381 313,-381l3495 0c219,-17 394,190 332,406l-640 2240c-47,166 -217,265 -384,223l-2545 -636c-123,-24 -226,-121 -252,-252zm673 1858c335,21 600,299 600,639 0,353 -287,640 -640,640 -353,0 -640,-287 -640,-640 0,-340 265,-618 600,-639l-279 0c-177,0 -320,-143 -320,-320 0,-177 143,-320 320,-320l3397 0 -179 -540c-21,-63 -21,-128 -4,-187l-1 -1 639 -2240c29,-98 100,-173 189,-209l617 -308c157,-79 348,-15 427,142 79,158 15,349 -142,428l-514 257 -575 2013 279 835c17,40 27,84 27,130 0,177 -143,320 -320,320l-281 0c335,21 600,299 600,639 0,353 -287,640 -640,640 -353,0 -640,-287 -640,-640 0,-340 265,-618 600,-639l-3120 0zm-85 -2182l2063 516 438 -1533 -2703 0 202 1017z"/>
</svg>
