<?xml version="1.0" encoding="UTF-8"?>
<!DOCTYPE svg PUBLIC "-//W3C//DTD SVG 1.1//EN" "http://www.w3.org/Graphics/SVG/1.1/DTD/svg11.dtd">
<svg xmlns="http://www.w3.org/2000/svg" xml:space="preserve" width="1024px" height="1024px" shape-rendering="geometricPrecision" text-rendering="geometricPrecision" image-rendering="optimizeQuality" fill-rule="nonzero" clip-rule="evenodd" viewBox="0 0 10240 10240" xmlns:xlink="http://www.w3.org/1999/xlink">
	<title>purse icon</title>
	<desc>purse icon from the IconExperience.com O-Collection. Copyright by INCORS GmbH (www.incors.com).</desc>
	<path id="curve1" fill="#EDC87E" d="M2468 3840c1768,0 3536,0 5304,0 138,0 256,74 302,190 403,1024 886,1809 886,3010 0,1920 -1280,1920 -3840,1920 -2560,0 -3840,0 -3840,-1920 0,-1280 483,-1986 886,-3010 46,-116 164,-190 302,-190z"/>
	<path id="curve0" fill="#808080" d="M5767 1277c325,0 594,242 634,557 6,42 25,76 58,103 116,94 215,199 299,310 75,100 137,205 185,313l-752 0 -7 -8c-46,-51 -115,-67 -178,-41 -74,30 -155,46 -239,46 -172,0 -328,-68 -443,-178 155,-286 154,-637 -3,-921 116,-112 273,-181 446,-181zm-1287 3c353,0 640,287 640,640 0,353 -287,640 -640,640 -77,0 -151,-14 -219,-39 -64,-23 -131,-6 -176,45 -16,19 -32,38 -46,57 -38,50 -44,112 -16,168 27,56 81,89 143,89l3514 0c705,0 1280,575 1280,1280l0 360c0,76 -52,141 -128,156 -75,16 -148,-23 -179,-93 -96,-222 -193,-444 -282,-670 -97,-246 -338,-393 -599,-393 -1768,0 -3536,0 -5304,0 -261,0 -503,147 -599,393 -88,223 -186,442 -283,661 -31,70 -104,108 -179,92 -75,-16 -127,-80 -127,-156l0 -350c0,-705 575,-1280 1280,-1280l433 0c137,0 254,-82 301,-211 54,-147 130,-289 230,-422 75,-100 163,-194 264,-281 32,-28 51,-63 55,-106 30,-325 304,-580 637,-580z"/>
</svg>
