<?xml version="1.0" encoding="UTF-8"?>
<!DOCTYPE svg PUBLIC "-//W3C//DTD SVG 1.1//EN" "http://www.w3.org/Graphics/SVG/1.1/DTD/svg11.dtd">
<svg xmlns="http://www.w3.org/2000/svg" xml:space="preserve" width="1024px" height="1024px" shape-rendering="geometricPrecision" text-rendering="geometricPrecision" image-rendering="optimizeQuality" fill-rule="nonzero" clip-rule="evenodd" viewBox="0 0 10240 10240" xmlns:xlink="http://www.w3.org/1999/xlink">
	<title>pylon icon</title>
	<desc>pylon icon from the IconExperience.com O-Collection. Copyright by INCORS GmbH (www.incors.com).</desc>
	<path id="curve1" fill="#E68497" d="M1280 8000l7680 0c176,0 320,144 320,320l0 320c0,176 -144,320 -320,320l-7680 0c-176,0 -320,-144 -320,-320l0 -320c0,-176 144,-320 320,-320z"/>
	<path id="curve0" fill="#E68497" d="M4316 1280l1608 0c287,0 530,181 613,456l1783 5944 -6400 0 1783 -5944c83,-275 326,-456 613,-456zm471 1280l69 -226c31,-99 15,-198 -46,-282 -61,-84 -150,-130 -254,-132l-2 0c-143,-3 -265,91 -306,228 -453,1509 -908,2978 -1361,4481 -28,93 -15,185 38,267 54,82 133,131 230,143l11 1c141,17 263,-89 306,-225l128 -415 3668 0 -384 -1280 -2889 0 396 -1280 2109 0 -384 -1280 -1329 0z"/>
</svg>
