<?xml version="1.0" encoding="UTF-8"?>
<!DOCTYPE svg PUBLIC "-//W3C//DTD SVG 1.1//EN" "http://www.w3.org/Graphics/SVG/1.1/DTD/svg11.dtd">
<svg xmlns="http://www.w3.org/2000/svg" xml:space="preserve" width="1024px" height="1024px" shape-rendering="geometricPrecision" text-rendering="geometricPrecision" image-rendering="optimizeQuality" fill-rule="nonzero" clip-rule="evenodd" viewBox="0 0 10240 10240" xmlns:xlink="http://www.w3.org/1999/xlink">
	<title>quad icon</title>
	<desc>quad icon from the IconExperience.com O-Collection. Copyright by INCORS GmbH (www.incors.com).</desc>
	<path id="curve3" fill="#808080" d="M2080 8640c795,0 1440,-645 1440,-1440 0,-795 -645,-1440 -1440,-1440 -795,0 -1440,645 -1440,1440 0,795 645,1440 1440,1440zm0 -640c-442,0 -800,-358 -800,-800 0,-442 358,-800 800,-800 442,0 800,358 800,800 0,442 -358,800 -800,800zm6080 0c-442,0 -800,-358 -800,-800 0,-442 358,-800 800,-800 442,0 800,358 800,800 0,442 -358,800 -800,800zm0 640c795,0 1440,-645 1440,-1440 0,-795 -645,-1440 -1440,-1440 -795,0 -1440,645 -1440,1440 0,795 645,1440 1440,1440z"/>
	<path id="curve2" fill="#808080" d="M8960 4800c177,0 320,143 320,320 0,177 -143,320 -320,320l-800 0c-463,0 -883,177 -1196,467 -316,292 -524,700 -559,1157 -13,168 -153,296 -319,296l-1932 0c-173,0 -314,-137 -320,-309 -37,-452 -245,-854 -558,-1144 -313,-290 -733,-467 -1196,-467l-800 0c-177,0 -320,-143 -320,-320 0,-177 143,-320 320,-320l800 0c628,0 1200,243 1629,640 362,335 620,779 722,1280l1378 0c102,-501 360,-945 722,-1280 429,-397 1001,-640 1629,-640l800 0z"/>
	<path id="curve1" fill="#4D82B8" d="M2240 3840l978 0c208,0 386,42 572,135l185 92c501,251 1081,157 1477,-239l441 -441c124,-124 276,-187 452,-187l864 0c104,0 193,21 286,68l791 395c222,111 354,324 354,573l0 244 -480 0c-687,0 -1342,258 -1846,725 -353,326 -613,739 -754,1195l-880 0c-141,-456 -401,-869 -754,-1195 -504,-467 -1159,-725 -1846,-725l-480 0c0,-353 287,-640 640,-640z"/>
	<path id="curve0" fill="#808080" d="M5894 2561c-176,0 -319,-142 -319,-318 0,-176 143,-319 319,-319l826 -3c129,0 239,76 290,186l396 793c-64,-14 -129,-20 -197,-20l-525 0 -161 -321 -629 2z"/>
</svg>
