<?xml version="1.0" encoding="UTF-8"?>
<!DOCTYPE svg PUBLIC "-//W3C//DTD SVG 1.1//EN" "http://www.w3.org/Graphics/SVG/1.1/DTD/svg11.dtd">
<svg xmlns="http://www.w3.org/2000/svg" xml:space="preserve" width="1024px" height="1024px" shape-rendering="geometricPrecision" text-rendering="geometricPrecision" image-rendering="optimizeQuality" fill-rule="nonzero" clip-rule="evenodd" viewBox="0 0 10240 10240" xmlns:xlink="http://www.w3.org/1999/xlink">
	<title>question_and_answer icon</title>
	<desc>question_and_answer icon from the IconExperience.com O-Collection. Copyright by INCORS GmbH (www.incors.com).</desc>
	<path id="curve1" fill="#808080" d="M8730 8007c-4,505 -374,1060 -986,1273 102,-427 15,-747 -714,-747 -1408,0 -2550,-910 -2550,-2026 0,-1117 1142,-2027 2550,-2027 1408,0 2550,905 2550,2021 0,599 -328,1136 -850,1506zm-1470 -2567l-480 0 0 1468 480 0 0 -1468zm0 1760l-480 0 0 480 480 0 0 -480z"/>
	<path id="curve0" fill="#4D82B8" d="M1490 4487c4,505 374,1060 986,1273 -102,-427 -15,-747 714,-747 1408,0 2550,-910 2550,-2026 0,-1117 -1142,-2027 -2550,-2027 -1408,0 -2550,905 -2550,2021 0,599 328,1136 850,1506zm750 -1927l0 -80c0,-397 323,-720 720,-720l480 0c397,0 720,323 720,720 0,356 -265,661 -618,712 -61,9 -102,58 -102,119l0 154 -480 0 0 -154c0,-298 219,-550 515,-593 118,-17 205,-119 205,-238 0,-132 -108,-240 -240,-240l-480 0c-132,0 -240,108 -240,240l0 80 -480 0zm720 1120l480 0 0 480 -480 0 0 -480z"/>
</svg>
