<?xml version="1.0" encoding="UTF-8"?>
<!DOCTYPE svg PUBLIC "-//W3C//DTD SVG 1.1//EN" "http://www.w3.org/Graphics/SVG/1.1/DTD/svg11.dtd">
<svg xmlns="http://www.w3.org/2000/svg" xml:space="preserve" width="1024px" height="1024px" shape-rendering="geometricPrecision" text-rendering="geometricPrecision" image-rendering="optimizeQuality" fill-rule="nonzero" clip-rule="evenodd" viewBox="0 0 10240 10240" xmlns:xlink="http://www.w3.org/1999/xlink">
	<title>quotation_marks icon</title>
	<desc>quotation_marks icon from the IconExperience.com O-Collection. Copyright by INCORS GmbH (www.incors.com).</desc>
	<path id="curve3" fill="#808080" d="M9280 1280l-1272 0c-176,0 -320,144 -320,320l0 1272c0,176 144,320 320,320l636 0c0,286 0,827 -687,937 -156,25 -269,157 -269,315l0 326c0,94 35,174 104,237 70,63 153,91 246,82 1562,-148 1562,-1301 1562,-1897l0 -1592c0,-176 -144,-320 -320,-320z"/>
	<path id="curve2" fill="#808080" d="M6720 1280l-1272 0c-176,0 -320,144 -320,320l0 1272c0,176 144,320 320,320l636 0c0,286 0,827 -687,937 -156,25 -269,157 -269,315l0 326c0,94 35,174 104,237 70,63 153,91 246,82 1562,-148 1562,-1301 1562,-1897l0 -1592c0,-176 -144,-320 -320,-320z"/>
	<path id="curve1" fill="#808080" d="M3528 8960l1272 0c176,0 320,-144 320,-320l0 -1272c0,-176 -144,-320 -320,-320l-636 0c0,-286 0,-827 687,-937 156,-25 269,-157 269,-315l0 -326c0,-94 -36,-174 -105,-237 -69,-63 -152,-91 -245,-82 -1562,148 -1562,1301 -1562,1897l0 1592c0,176 144,320 320,320z"/>
	<path id="curve0" fill="#808080" d="M968 8960l1272 0c176,0 320,-144 320,-320l0 -1272c0,-176 -144,-320 -320,-320l-636 0c0,-286 0,-827 687,-937 156,-25 269,-157 269,-315l0 -326c0,-94 -36,-174 -105,-237 -69,-63 -152,-91 -245,-82 -1562,148 -1562,1301 -1562,1897l0 1592c0,176 144,320 320,320z"/>
</svg>
