<?xml version="1.0" encoding="UTF-8"?>
<!DOCTYPE svg PUBLIC "-//W3C//DTD SVG 1.1//EN" "http://www.w3.org/Graphics/SVG/1.1/DTD/svg11.dtd">
<svg xmlns="http://www.w3.org/2000/svg" xml:space="preserve" width="1024px" height="1024px" shape-rendering="geometricPrecision" text-rendering="geometricPrecision" image-rendering="optimizeQuality" fill-rule="nonzero" clip-rule="evenodd" viewBox="0 0 10240 10240" xmlns:xlink="http://www.w3.org/1999/xlink">
	<title>quotation_mark2 icon</title>
	<desc>quotation_mark2 icon from the IconExperience.com O-Collection. Copyright by INCORS GmbH (www.incors.com).</desc>
	<path id="curve1" fill="#808080" d="M8320 1920l-1920 0c-353,0 -640,287 -640,640l0 1920c0,353 287,640 640,640l960 0c0,499 0,1464 -1310,1587 -165,15 -290,153 -290,319l0 966c0,91 34,169 100,232 66,63 145,92 236,88 2864,-146 2864,-2164 2864,-3192l0 -2560c0,-353 -287,-640 -640,-640z"/>
	<path id="curve0" fill="#808080" d="M3840 1920l-1920 0c-353,0 -640,287 -640,640l0 1920c0,353 287,640 640,640l960 0c0,499 0,1464 -1310,1587 -165,15 -290,153 -290,319l0 966c0,91 34,169 100,232 66,63 145,92 236,88 2864,-146 2864,-2164 2864,-3192l0 -2560c0,-353 -287,-640 -640,-640z"/>
</svg>
