<?xml version="1.0" encoding="UTF-8"?>
<!DOCTYPE svg PUBLIC "-//W3C//DTD SVG 1.1//EN" "http://www.w3.org/Graphics/SVG/1.1/DTD/svg11.dtd">
<svg xmlns="http://www.w3.org/2000/svg" xml:space="preserve" width="1024px" height="1024px" shape-rendering="geometricPrecision" text-rendering="geometricPrecision" image-rendering="optimizeQuality" fill-rule="nonzero" clip-rule="evenodd" viewBox="0 0 10240 10240" xmlns:xlink="http://www.w3.org/1999/xlink">
	<title>rack_servers icon</title>
	<desc>rack_servers icon from the IconExperience.com O-Collection. Copyright by INCORS GmbH (www.incors.com).</desc>
	<path id="curve5" fill="#76A797" d="M8160 7360c265,0 480,215 480,480 0,265 -215,480 -480,480 -265,0 -480,-215 -480,-480 0,-265 215,-480 480,-480z"/>
	<path id="curve4" fill="#808080" d="M320 6720l9600 0 0 640 -320 0c-177,0 -320,143 -320,320 0,177 143,320 320,320l320 0 0 960 -9600 0 0 -960 320 0c177,0 320,-143 320,-320 0,-177 -143,-320 -320,-320l-320 0 0 -640zm1280 320l0 640 640 0 0 -640 -640 0zm4800 960l0 640 640 0 0 -640 -640 0zm-960 0l0 640 640 0 0 -640 -640 0zm-960 0l0 640 640 0 0 -640 -640 0zm-960 0l0 640 640 0 0 -640 -640 0zm-960 0l0 640 640 0 0 -640 -640 0zm-960 0l0 640 640 0 0 -640 -640 0zm4800 -960l0 640 640 0 0 -640 -640 0zm-960 0l0 640 640 0 0 -640 -640 0zm-960 0l0 640 640 0 0 -640 -640 0zm-960 0l0 640 640 0 0 -640 -640 0zm-960 0l0 640 640 0 0 -640 -640 0zm5600 0c-442,0 -800,358 -800,800 0,442 358,800 800,800 442,0 800,-358 800,-800 0,-442 -358,-800 -800,-800z"/>
	<path id="curve3" fill="#76A797" d="M8160 4800c265,0 480,215 480,480 0,265 -215,480 -480,480 -265,0 -480,-215 -480,-480 0,-265 215,-480 480,-480z"/>
	<path id="curve2" fill="#808080" d="M320 4160l9600 0 0 640 -320 0c-177,0 -320,143 -320,320 0,177 143,320 320,320l320 0 0 960 -9600 0 0 -960 320 0c177,0 320,-143 320,-320 0,-177 -143,-320 -320,-320l-320 0 0 -640zm1280 320l0 640 640 0 0 -640 -640 0zm4800 960l0 640 640 0 0 -640 -640 0zm-960 0l0 640 640 0 0 -640 -640 0zm-960 0l0 640 640 0 0 -640 -640 0zm-960 0l0 640 640 0 0 -640 -640 0zm-960 0l0 640 640 0 0 -640 -640 0zm-960 0l0 640 640 0 0 -640 -640 0zm4800 -960l0 640 640 0 0 -640 -640 0zm-960 0l0 640 640 0 0 -640 -640 0zm-960 0l0 640 640 0 0 -640 -640 0zm-960 0l0 640 640 0 0 -640 -640 0zm-960 0l0 640 640 0 0 -640 -640 0zm5600 0c-442,0 -800,358 -800,800 0,442 358,800 800,800 442,0 800,-358 800,-800 0,-442 -358,-800 -800,-800z"/>
	<path id="curve1" fill="#76A797" d="M8160 2240c265,0 480,215 480,480 0,265 -215,480 -480,480 -265,0 -480,-215 -480,-480 0,-265 215,-480 480,-480z"/>
	<path id="curve0" fill="#808080" d="M320 1600l9600 0 0 640 -320 0c-177,0 -320,143 -320,320 0,177 143,320 320,320l320 0 0 960 -9600 0 0 -960 320 0c177,0 320,-143 320,-320 0,-177 -143,-320 -320,-320l-320 0 0 -640zm1280 320l0 640 640 0 0 -640 -640 0zm4800 960l0 640 640 0 0 -640 -640 0zm-960 0l0 640 640 0 0 -640 -640 0zm-960 0l0 640 640 0 0 -640 -640 0zm-960 0l0 640 640 0 0 -640 -640 0zm-960 0l0 640 640 0 0 -640 -640 0zm-960 0l0 640 640 0 0 -640 -640 0zm4800 -960l0 640 640 0 0 -640 -640 0zm-960 0l0 640 640 0 0 -640 -640 0zm-960 0l0 640 640 0 0 -640 -640 0zm-960 0l0 640 640 0 0 -640 -640 0zm-960 0l0 640 640 0 0 -640 -640 0zm5600 0c-442,0 -800,358 -800,800 0,442 358,800 800,800 442,0 800,-358 800,-800 0,-442 -358,-800 -800,-800z"/>
</svg>
