<?xml version="1.0" encoding="UTF-8"?>
<!DOCTYPE svg PUBLIC "-//W3C//DTD SVG 1.1//EN" "http://www.w3.org/Graphics/SVG/1.1/DTD/svg11.dtd">
<svg xmlns="http://www.w3.org/2000/svg" xml:space="preserve" width="1024px" height="1024px" shape-rendering="geometricPrecision" text-rendering="geometricPrecision" image-rendering="optimizeQuality" fill-rule="nonzero" clip-rule="evenodd" viewBox="0 0 10240 10240" xmlns:xlink="http://www.w3.org/1999/xlink">
	<title>radar icon</title>
	<desc>radar icon from the IconExperience.com O-Collection. Copyright by INCORS GmbH (www.incors.com).</desc>
	<path id="curve1" fill="#808080" d="M5120 640c2474,0 4480,2006 4480,4480 0,2474 -2006,4480 -4480,4480 -2474,0 -4480,-2006 -4480,-4480 0,-2474 2006,-4480 4480,-4480zm0 640c-2121,0 -3840,1719 -3840,3840 0,2121 1719,3840 3840,3840 2121,0 3840,-1719 3840,-3840 0,-2121 -1719,-3840 -3840,-3840z"/>
	<path id="curve0" fill="#76A797" d="M5136 4480l1 0c11,1 21,1 31,2l2 0c10,1 20,2 30,3l3 0c5,1 10,2 14,2l1 0c5,1 9,2 14,3l3 0c10,2 19,4 29,6l1 0c10,3 20,5 30,8l0 0c10,3 20,6 30,9l1 1c9,3 19,7 28,10l2 1c4,2 9,3 13,5l0 0c5,2 9,4 14,6l1 1c4,2 9,4 13,6l1 0c4,2 8,5 13,7l1 0c9,5 17,10 26,14l2 1c4,3 8,5 12,8l0 0c4,2 8,5 12,7l2 2c4,2 7,4 11,7l1 1c4,2 8,5 12,8l2 1c3,3 7,5 11,8l0 0c4,3 8,6 11,9l2 2c4,2 7,4 10,7l2 2c3,3 7,5 10,8l2 2c3,3 7,6 10,9l1 1c3,3 7,6 10,9l2 2c3,3 6,6 9,8l1 2c3,3 6,6 9,10l3 2c3,3 5,6 8,9l1 1c3,3 6,7 9,10l2 3c3,3 5,5 7,8l3 3c2,3 5,7 8,10l2 2c2,3 5,7 7,10l1 2c3,3 6,7 8,11l2 2c2,3 4,6 7,10l1 2c3,4 5,8 8,12l1 1c2,4 4,7 7,11l1 2c2,4 4,7 6,11l273 -167c-82,-139 -199,-259 -347,-344l160 -277 0 0c-188,-110 -407,-172 -640,-172l0 -320c592,0 1109,322 1386,800l277 -160 0 1c-164,-285 -402,-530 -703,-704l160 -277 1 0c-330,-191 -713,-300 -1121,-300l0 -320c947,0 1775,515 2217,1280l277 -160 3 4c-246,-428 -604,-797 -1057,-1058l160 -277 0 -1c-471,-272 -1017,-428 -1600,-428l0 -320c1944,0 3520,1576 3520,3520 0,1061 -471,2040 -1268,2705l-2086 -2087c-53,14 -109,22 -166,22 -353,0 -640,-287 -640,-640 0,-353 287,-640 640,-640l0 0c5,0 11,0 16,0zm67 5c5,1 10,2 14,2"/>
</svg>
