<?xml version="1.0" encoding="UTF-8"?>
<!DOCTYPE svg PUBLIC "-//W3C//DTD SVG 1.1//EN" "http://www.w3.org/Graphics/SVG/1.1/DTD/svg11.dtd">
<svg xmlns="http://www.w3.org/2000/svg" xml:space="preserve" width="1024px" height="1024px" shape-rendering="geometricPrecision" text-rendering="geometricPrecision" image-rendering="optimizeQuality" fill-rule="nonzero" clip-rule="evenodd" viewBox="0 0 10240 10240" xmlns:xlink="http://www.w3.org/1999/xlink">
	<title>radiation icon</title>
	<desc>radiation icon from the IconExperience.com O-Collection. Copyright by INCORS GmbH (www.incors.com).</desc>
	<path id="curve1" fill="#808080" d="M6080 5119c0,-530 -430,-960 -960,-960 -530,0 -960,430 -960,960 0,531 430,960 960,960 530,0 960,-429 960,-960z"/>
	<path id="curve0" fill="#808080" d="M7194 1527l-1274 2206c478,277 800,794 800,1386l2548 0c92,0 172,-35 235,-102 63,-68 91,-150 84,-243 -103,-1315 -783,-2564 -1935,-3351 -77,-52 -162,-68 -252,-48 -90,21 -160,72 -206,152zm-2874 4978l-1274 2207c-46,80 -56,166 -28,254 27,89 84,154 167,194 1190,569 2612,604 3870,0 84,-40 140,-106 168,-194 27,-88 17,-175 -29,-255l-1274 -2206c-235,136 -509,214 -800,214 -291,0 -565,-78 -800,-214zm0 -2771l-1274 -2207c-46,-80 -116,-132 -206,-152 -91,-20 -176,-4 -252,48 -1088,747 -1829,1961 -1935,3352 -7,92 22,174 84,242 63,68 143,102 235,102l2548 0c0,-592 322,-1109 800,-1385z"/>
</svg>
