<?xml version="1.0" encoding="UTF-8"?>
<!DOCTYPE svg PUBLIC "-//W3C//DTD SVG 1.1//EN" "http://www.w3.org/Graphics/SVG/1.1/DTD/svg11.dtd">
<svg xmlns="http://www.w3.org/2000/svg" xml:space="preserve" width="1024px" height="1024px" shape-rendering="geometricPrecision" text-rendering="geometricPrecision" image-rendering="optimizeQuality" fill-rule="nonzero" clip-rule="evenodd" viewBox="0 0 10240 10240" xmlns:xlink="http://www.w3.org/1999/xlink">
	<title>radio icon</title>
	<desc>radio icon from the IconExperience.com O-Collection. Copyright by INCORS GmbH (www.incors.com).</desc>
	<path id="curve3" fill="#808080" d="M3200 4800c1060,0 1920,860 1920,1920 0,1060 -860,1920 -1920,1920 -1060,0 -1920,-860 -1920,-1920 0,-1060 860,-1920 1920,-1920z"/>
	<path id="curve2" fill="#EDC87E" d="M1280 3840l6720 0c353,0 640,288 640,640l0 4480c0,352 -288,640 -640,640l-6720 0c-352,0 -640,-287 -640,-640l0 -4480c0,-353 288,-640 640,-640zm5760 640c-353,0 -640,287 -640,640l0 3200c0,353 287,640 640,640 353,0 640,-287 640,-640l0 -3200c0,-353 -287,-640 -640,-640zm-3840 4480c1237,0 2240,-1003 2240,-2240 0,-1237 -1003,-2240 -2240,-2240 -1237,0 -2240,1003 -2240,2240 0,1237 1003,2240 2240,2240z"/>
	<path id="curve1" fill="#808080" d="M8960 4480l320 0c176,0 320,144 320,320l0 1280c0,176 -144,320 -320,320l-320 0 0 -1920z"/>
	<path id="curve0" fill="#808080" d="M7360 320l0 0c176,0 320,144 320,320l0 2880 -640 0 0 -2880c0,-176 144,-320 320,-320z"/>
</svg>
