<?xml version="1.0" encoding="UTF-8"?>
<!DOCTYPE svg PUBLIC "-//W3C//DTD SVG 1.1//EN" "http://www.w3.org/Graphics/SVG/1.1/DTD/svg11.dtd">
<svg xmlns="http://www.w3.org/2000/svg" xml:space="preserve" width="1024px" height="1024px" shape-rendering="geometricPrecision" text-rendering="geometricPrecision" image-rendering="optimizeQuality" fill-rule="nonzero" clip-rule="evenodd" viewBox="0 0 10240 10240" xmlns:xlink="http://www.w3.org/1999/xlink">
	<title>rain_drops icon</title>
	<desc>rain_drops icon from the IconExperience.com O-Collection. Copyright by INCORS GmbH (www.incors.com).</desc>
	<path id="curve2" fill="#4D82B8" d="M9599 3875l1 2365c0,795 -645,1440 -1440,1440 -795,0 -1440,-645 -1440,-1440 0,-426 195,-841 525,-1112l1831 -1500c98,-80 225,-96 340,-42 114,54 183,163 183,289zm-1808 1633c-143,111 -314,246 -392,489 -41,126 -3,257 98,342 101,86 236,101 353,40l1 0c116,-60 177,-238 345,-375 77,-63 118,-148 118,-248l0 -1c0,-126 -69,-235 -183,-289 -115,-54 -240,-36 -340,42z"/>
	<path id="curve1" fill="#4D82B8" d="M6719 1635l1 2365c0,795 -645,1440 -1440,1440 -795,0 -1440,-645 -1440,-1440 0,-426 195,-841 525,-1112l1831 -1500c98,-80 225,-96 340,-42 114,54 183,163 183,289zm-1808 1633c-143,111 -314,246 -392,489 -41,126 -4,257 98,342 101,86 236,101 353,40l1 0c116,-60 177,-238 345,-375 77,-63 118,-148 118,-248l0 -1c0,-126 -69,-235 -183,-289 -115,-54 -240,-36 -340,42z"/>
	<path id="curve0" fill="#4D82B8" d="M3199 3875l1 2365c0,795 -645,1440 -1440,1440 -795,0 -1440,-645 -1440,-1440 0,-426 195,-841 525,-1112l1831 -1500c98,-80 225,-96 340,-42 114,54 183,163 183,289zm-1808 1633c-143,111 -314,246 -392,489 -41,126 -4,257 98,342 101,86 236,101 353,40l1 0c116,-60 177,-238 345,-375 77,-63 118,-148 118,-248l0 -1c0,-126 -69,-235 -183,-289 -115,-54 -240,-36 -340,42z"/>
</svg>
