<?xml version="1.0" encoding="UTF-8"?>
<!DOCTYPE svg PUBLIC "-//W3C//DTD SVG 1.1//EN" "http://www.w3.org/Graphics/SVG/1.1/DTD/svg11.dtd">
<svg xmlns="http://www.w3.org/2000/svg" xml:space="preserve" width="1024px" height="1024px" shape-rendering="geometricPrecision" text-rendering="geometricPrecision" image-rendering="optimizeQuality" fill-rule="nonzero" clip-rule="evenodd" viewBox="0 0 10240 10240" xmlns:xlink="http://www.w3.org/1999/xlink">
	<title>razor icon</title>
	<desc>razor icon from the IconExperience.com O-Collection. Copyright by INCORS GmbH (www.incors.com).</desc>
	<path id="curve1" fill="#B89A7C" d="M8032 6533c722,-128 1410,356 1537,1080 127,723 -355,1414 -1076,1541 -1326,235 -2687,82 -3927,-444 -1211,-512 -2251,-1357 -3005,-2437 -420,-602 -274,-1432 326,-1854 599,-421 1427,-275 1847,327 466,669 1109,1192 1859,1510 770,327 1616,423 2439,277zm-5312 -1413c-265,0 -480,215 -480,480 0,265 215,480 480,480 265,0 480,-215 480,-480 0,-265 -215,-480 -480,-480z"/>
	<path id="curve0" fill="#808080" d="M855 7596c-130,119 -333,109 -451,-21 -119,-130 -109,-333 21,-451l822 -747c108,175 251,357 381,516l-773 703zm6802 -6184l-2664 2423 654 727 0 0 0 0 1 0c1,2 4,3 6,4 3,0 5,-1 8,-3l19 -18 0 0 2643 -2376c4,-4 4,-10 0,-15l-667 -742zm-1590 3645c-269,219 -662,191 -895,-67l-652 -726 -446 406c-140,-187 -235,-326 -429,-474l4058 -3688 1096 1219c239,265 218,678 -48,917l-2684 2413z"/>
</svg>
