<?xml version="1.0" encoding="UTF-8"?>
<!DOCTYPE svg PUBLIC "-//W3C//DTD SVG 1.1//EN" "http://www.w3.org/Graphics/SVG/1.1/DTD/svg11.dtd">
<svg xmlns="http://www.w3.org/2000/svg" xml:space="preserve" width="1024px" height="1024px" shape-rendering="geometricPrecision" text-rendering="geometricPrecision" image-rendering="optimizeQuality" fill-rule="nonzero" clip-rule="evenodd" viewBox="0 0 10240 10240" xmlns:xlink="http://www.w3.org/1999/xlink">
	<title>reactor icon</title>
	<desc>reactor icon from the IconExperience.com O-Collection. Copyright by INCORS GmbH (www.incors.com).</desc>
	<path id="curve2" fill="#4D82B8" d="M8640 4480l0 1280c0,1309 450,2298 932,3200l-2852 0 0 -2560c0,-720 -238,-1385 -640,-1920l2560 0z"/>
	<path id="curve1" fill="#808080" d="M8807 3367c-54,107 -121,207 -199,297 32,163 40,330 25,496l-644 0c7,-52 11,-106 11,-160 0,-201 -53,-390 -146,-553 232,-107 405,-322 453,-580 371,-69 653,-395 653,-787 0,-442 -358,-800 -800,-800 -243,0 -461,109 -608,280 -187,-357 -561,-600 -992,-600 -384,0 -722,193 -924,487 -165,-291 -478,-487 -836,-487 -419,0 -775,268 -906,642 -141,-12 -280,23 -399,99 -24,-236 -224,-421 -467,-421 -258,0 -468,210 -468,468 0,259 210,469 468,469 62,0 121,-12 175,-33 -2,18 -3,37 -3,56 0,353 287,640 640,640 164,0 313,-61 426,-162 161,107 356,166 550,162 74,365 397,640 784,640 -72,96 -123,208 -146,331 -537,-409 -1207,-651 -1934,-651 -164,0 -326,12 -483,36 -145,-116 -263,-263 -346,-431 -447,-143 -771,-562 -771,-1057 0,-611 497,-1108 1108,-1108 224,0 433,67 608,182 296,-313 714,-502 1164,-502 309,0 605,89 857,249 269,-161 580,-249 903,-249 417,0 810,147 1120,402 152,-54 314,-82 480,-82 795,0 1440,645 1440,1440 0,555 -317,1048 -793,1287z"/>
	<path id="curve0" fill="#4D82B8" d="M6400 9600l-5760 0 0 -3200c0,-1591 1289,-2880 2880,-2880 1591,0 2880,1289 2880,2880l0 3200zm-2173 -5324c-226,-76 -469,-116 -707,-116 -1237,0 -2240,1003 -2240,2240l0 2240c0,177 143,320 320,320 177,0 320,-143 320,-320l0 -2240c0,-884 716,-1600 1600,-1600 174,0 342,25 507,81 167,55 348,-36 403,-203 55,-167 -36,-347 -203,-402z"/>
</svg>
