<?xml version="1.0" encoding="UTF-8"?>
<!DOCTYPE svg PUBLIC "-//W3C//DTD SVG 1.1//EN" "http://www.w3.org/Graphics/SVG/1.1/DTD/svg11.dtd">
<svg xmlns="http://www.w3.org/2000/svg" xml:space="preserve" width="1024px" height="1024px" shape-rendering="geometricPrecision" text-rendering="geometricPrecision" image-rendering="optimizeQuality" fill-rule="nonzero" clip-rule="evenodd" viewBox="0 0 10240 10240" xmlns:xlink="http://www.w3.org/1999/xlink">
	<title>receipt_printer icon</title>
	<desc>receipt_printer icon from the IconExperience.com O-Collection. Copyright by INCORS GmbH (www.incors.com).</desc>
	<path id="curve2" fill="#808080" d="M8320 8960l0 640 -6400 0 0 -640c-352,0 -640,-287 -640,-640l0 -2240c0,-352 288,-640 640,-640l6400 0c352,0 640,288 640,640l0 2240c0,352 -288,640 -640,640zm-5760 -2560c-176,0 -320,144 -320,320 0,176 144,320 320,320l640 0c176,0 320,-144 320,-320 0,-176 -144,-320 -320,-320l-640 0z"/>
	<path id="curve1" fill="#808080" d="M2240 5120l0 -3200c0,-705 575,-1280 1280,-1280l5120 0c707,0 1280,573 1280,1280 0,707 -573,1280 -1280,1280l-320 0 0 -640 320 0c353,0 640,-287 640,-640 0,-354 -286,-640 -640,-640 -354,0 -640,286 -640,640l0 3200 -640 0 0 -3200c0,-233 62,-452 171,-640l-4011 0c-352,0 -640,288 -640,640l0 3200 -640 0z"/>
	<path id="curve0" fill="#4D82B8" d="M3520 1920l3200 0 0 640 -3200 0 0 -640zm2240 2560l960 0 0 640 -960 0 0 -640zm-2240 0l1600 0 0 640 -1600 0 0 -640zm2560 -1280l640 0 0 640 -640 0 0 -640zm-2560 0l1920 0 0 640 -1920 0 0 -640z"/>
</svg>
