<?xml version="1.0" encoding="UTF-8"?>
<!DOCTYPE svg PUBLIC "-//W3C//DTD SVG 1.1//EN" "http://www.w3.org/Graphics/SVG/1.1/DTD/svg11.dtd">
<svg xmlns="http://www.w3.org/2000/svg" xml:space="preserve" width="1024px" height="1024px" shape-rendering="geometricPrecision" text-rendering="geometricPrecision" image-rendering="optimizeQuality" fill-rule="nonzero" clip-rule="evenodd" viewBox="0 0 10240 10240" xmlns:xlink="http://www.w3.org/1999/xlink">
	<title>receipt icon</title>
	<desc>receipt icon from the IconExperience.com O-Collection. Copyright by INCORS GmbH (www.incors.com).</desc>
	<path id="curve2" fill="#4D82B8" d="M2560 3840l2240 0 0 640 -2240 0 0 -640zm0 3840l2240 0 0 640 -2240 0 0 -640zm2880 -1280l960 0 0 640 -960 0 0 -640zm-2880 0l1920 0 0 640 -1920 0 0 -640zm3200 -1280l640 0 0 640 -640 0 0 -640zm-3200 0l1600 0 0 640 -1600 0 0 -640zm2880 -1280l960 0 0 640 -960 0 0 -640z"/>
	<path id="curve1" fill="#4D82B8" d="M2560,1920 6400,1920 6400,2560 2560,2560z"/>
	<path id="curve0" fill="#808080" d="M7040 8320l0 -6400c0,-233 62,-452 171,-640l-4651 0c-352,0 -640,288 -640,640l0 6400c0,352 288,640 640,640l4651 0c-109,-188 -171,-407 -171,-640zm1280 1280l-5760 0c-705,0 -1280,-575 -1280,-1280l0 -6400c0,-705 575,-1280 1280,-1280l5760 0c707,0 1280,573 1280,1280 0,707 -573,1280 -1280,1280l-320 0 0 -640 320 0c354,0 640,-286 640,-640 0,-354 -286,-640 -640,-640 -354,0 -640,286 -640,640l0 6400c0,354 286,640 640,640 354,0 640,-286 640,-640 0,-354 -286,-640 -640,-640l-320 0 0 -640 320 0c707,0 1280,573 1280,1280 0,707 -573,1280 -1280,1280z"/>
</svg>
