<?xml version="1.0" encoding="UTF-8"?>
<!DOCTYPE svg PUBLIC "-//W3C//DTD SVG 1.1//EN" "http://www.w3.org/Graphics/SVG/1.1/DTD/svg11.dtd">
<svg xmlns="http://www.w3.org/2000/svg" xml:space="preserve" width="1024px" height="1024px" shape-rendering="geometricPrecision" text-rendering="geometricPrecision" image-rendering="optimizeQuality" fill-rule="nonzero" clip-rule="evenodd" viewBox="0 0 10240 10240" xmlns:xlink="http://www.w3.org/1999/xlink">
	<title>receipt_book icon</title>
	<desc>receipt_book icon from the IconExperience.com O-Collection. Copyright by INCORS GmbH (www.incors.com).</desc>
	<path id="curve1" fill="#808080" d="M960 3840l2560 0 0 640 -2240 0 0 3200 3879 0c263,223 558,415 887,563 61,28 122,53 182,77l-5268 0c-176,0 -320,-144 -320,-320l0 -3840c0,-176 144,-320 320,-320z"/>
	<path id="curve0" fill="#4D82B8" d="M4143 676c1267,2524 3019,3164 4497,3164l0 4480c-1584,0 -3418,0 -4694,-2946 -73,-169 -106,-326 -106,-510l0 -4116c0,-75 50,-138 123,-156 73,-17 146,17 180,84zm4817 3164l320 0c176,0 320,144 320,320l0 3840c0,176 -144,320 -320,320l-320 0 0 -4480z"/>
</svg>
