<?xml version="1.0" encoding="UTF-8"?>
<!DOCTYPE svg PUBLIC "-//W3C//DTD SVG 1.1//EN" "http://www.w3.org/Graphics/SVG/1.1/DTD/svg11.dtd">
<svg xmlns="http://www.w3.org/2000/svg" xml:space="preserve" width="1024px" height="1024px" shape-rendering="geometricPrecision" text-rendering="geometricPrecision" image-rendering="optimizeQuality" fill-rule="nonzero" clip-rule="evenodd" viewBox="0 0 10240 10240" xmlns:xlink="http://www.w3.org/1999/xlink">
	<title>record_player icon</title>
	<desc>record_player icon from the IconExperience.com O-Collection. Copyright by INCORS GmbH (www.incors.com).</desc>
	<path id="curve3" fill="#808080" d="M960 1280l8320 0c176,0 320,144 320,320l0 320c0,-176 -144,-320 -320,-320l-1280 0c-176,0 -320,144 -320,320l-1732 0c-447,-205 -944,-320 -1468,-320 -524,0 -1021,115 -1468,320l-1732 0 0 1732c-205,447 -320,944 -320,1468 0,524 115,1021 320,1468l0 1732 1732 0c447,205 944,320 1468,320 524,0 1021,-115 1468,-320l1656 0 74 37c211,105 452,83 636,-37l646 0 0 -1096 74 -147c52,-105 41,-227 -19,-319l164 -327c68,-137 101,-276 101,-430l0 -2161c176,0 320,-144 320,-320l0 5120c0,176 -144,320 -320,320l-8320 0c-176,0 -320,-144 -320,-320l0 -7040c0,-176 144,-320 320,-320z"/>
	<path id="curve2" fill="#808080" d="M8000 1920l1280 0 0 1600 -320 0 0 2481c0,104 -21,194 -68,287l-287 575 143 71 -497 994c-79,157 -272,221 -430,143 -94,-47 -188,-95 -282,-142 -158,-78 -222,-271 -143,-429l497 -994 142 72 217 -435c47,-93 68,-183 68,-287l0 -416 0 -1920 -320 0 0 -1600z"/>
	<path id="curve1" fill="#EDC87E" d="M4480 4160c530,0 960,430 960,960 0,530 -430,960 -960,960 -530,0 -960,-430 -960,-960 0,-530 430,-960 960,-960zm0 640c-177,0 -320,143 -320,320 0,177 143,320 320,320 177,0 320,-143 320,-320 0,-177 -143,-320 -320,-320z"/>
	<path id="curve0" fill="#808080" d="M4480 1920c1767,0 3200,1433 3200,3200 0,1767 -1433,3200 -3200,3200 -1767,0 -3200,-1433 -3200,-3200 0,-1767 1433,-3200 3200,-3200zm1920 3200l-320 0c0,884 -716,1600 -1600,1600l0 320c1060,0 1920,-860 1920,-1920zm-1920 -1280c-707,0 -1280,573 -1280,1280 0,707 573,1280 1280,1280 707,0 1280,-573 1280,-1280 0,-707 -573,-1280 -1280,-1280zm-1920 1280l320 0c0,-884 716,-1600 1600,-1600l0 -320c-1060,0 -1920,860 -1920,1920zm1920 -2560c-1414,0 -2560,1146 -2560,2560l320 0c0,-1237 1003,-2240 2240,-2240l0 -320zm0 4800l0 320c1414,0 2560,-1146 2560,-2560l-320 0c0,1237 -1003,2240 -2240,2240z"/>
</svg>
