<?xml version="1.0" encoding="UTF-8"?>
<!DOCTYPE svg PUBLIC "-//W3C//DTD SVG 1.1//EN" "http://www.w3.org/Graphics/SVG/1.1/DTD/svg11.dtd">
<svg xmlns="http://www.w3.org/2000/svg" xml:space="preserve" width="1024px" height="1024px" shape-rendering="geometricPrecision" text-rendering="geometricPrecision" image-rendering="optimizeQuality" fill-rule="nonzero" clip-rule="evenodd" viewBox="0 0 10240 10240" xmlns:xlink="http://www.w3.org/1999/xlink">
	<title>record icon</title>
	<desc>record icon from the IconExperience.com O-Collection. Copyright by INCORS GmbH (www.incors.com).</desc>
	<path id="curve1" fill="#EDC87E" d="M5120 3840c707,0 1280,573 1280,1280 0,707 -573,1280 -1280,1280 -707,0 -1280,-573 -1280,-1280 0,-707 573,-1280 1280,-1280zm0 960c-177,0 -320,143 -320,320 0,177 143,320 320,320 177,0 320,-143 320,-320 0,-177 -143,-320 -320,-320z"/>
	<path id="curve0" fill="#808080" d="M5120 640c2474,0 4480,2006 4480,4480 0,2474 -2006,4480 -4480,4480 -2474,0 -4480,-2006 -4480,-4480 0,-2474 2006,-4480 4480,-4480zm3309 5683l-301 -109c-447,1228 -1625,2106 -3008,2106l0 320c1521,0 2817,-965 3309,-2317zm-3309 -2803c-884,0 -1600,716 -1600,1600 0,884 716,1600 1600,1600 884,0 1600,-716 1600,-1600 0,-884 -716,-1600 -1600,-1600zm-2106 834l301 110c268,-737 975,-1264 1805,-1264l0 -320c-968,0 -1793,614 -2106,1474zm-601 -218l301 109c357,-983 1300,-1685 2406,-1685l0 -320c-1245,0 -2305,790 -2707,1896zm-602 -219l301 109c447,-1228 1625,-2106 3008,-2106l0 -320c-1521,0 -2817,965 -3309,2317zm5415 1969l-301 -110c-268,737 -975,1264 -1805,1264l0 320c968,0 1793,-614 2106,-1474zm601 218l-301 -109c-357,983 -1300,1685 -2406,1685l0 320c1245,0 2305,-790 2707,-1896z"/>
</svg>
