<?xml version="1.0" encoding="UTF-8"?>
<!DOCTYPE svg PUBLIC "-//W3C//DTD SVG 1.1//EN" "http://www.w3.org/Graphics/SVG/1.1/DTD/svg11.dtd">
<svg xmlns="http://www.w3.org/2000/svg" xml:space="preserve" width="1024px" height="1024px" shape-rendering="geometricPrecision" text-rendering="geometricPrecision" image-rendering="optimizeQuality" fill-rule="nonzero" clip-rule="evenodd" viewBox="0 0 10240 10240" xmlns:xlink="http://www.w3.org/1999/xlink">
	<title>recycle icon</title>
	<desc>recycle icon from the IconExperience.com O-Collection. Copyright by INCORS GmbH (www.incors.com).</desc>
	<path id="curve2" fill="#76A797" d="M7713 2025c157,115 305,242 442,380 695,695 1125,1655 1125,2715 0,484 -90,948 -253,1374 -54,-35 -116,-59 -182,-71l-1099 -190c163,-336 254,-714 254,-1113 0,-707 -287,-1347 -750,-1810 -37,-37 -75,-73 -114,-108l337 918c52,140 -101,268 -230,193l-1180 -681c-67,-39 -113,-93 -140,-166l-757 -2057c-34,-94 24,-196 123,-213l2160 -373c77,-13 147,-1 214,38l1180 681c129,75 95,271 -53,296l-1077 187z"/>
	<path id="curve1" fill="#76A797" d="M6607 9662l377 -1025c-472,208 -995,323 -1544,323 -1060,0 -2020,-430 -2715,-1125 -94,-94 -184,-193 -268,-296 58,-29 109,-70 152,-122l714 -857c91,133 193,257 307,370 463,463 1103,750 1810,750 285,0 559,-47 815,-132l-965 -167c-148,-26 -182,-222 -53,-296l1180 -681c67,-39 137,-52 214,-39l2160 374c99,17 157,118 123,212l-757 2057c-27,73 -73,128 -140,167l-1180 681c-129,75 -282,-53 -230,-194z"/>
	<path id="curve0" fill="#76A797" d="M5251 2567c-631,46 -1200,321 -1621,743 -349,349 -598,798 -699,1301l626 -752c96,-114 283,-47 283,103l0 1362c0,78 -24,145 -74,205l-1403 1684c-59,71 -187,71 -246,0l-1403 -1684c-50,-60 -74,-127 -74,-205l0 -1362c0,-150 187,-217 283,-103l700 840c97,-892 500,-1692 1102,-2294 560,-561 1293,-949 2112,-1078 -4,64 6,130 29,192l385 1048z"/>
</svg>
