<?xml version="1.0" encoding="UTF-8"?>
<!DOCTYPE svg PUBLIC "-//W3C//DTD SVG 1.1//EN" "http://www.w3.org/Graphics/SVG/1.1/DTD/svg11.dtd">
<svg xmlns="http://www.w3.org/2000/svg" xml:space="preserve" width="1024px" height="1024px" shape-rendering="geometricPrecision" text-rendering="geometricPrecision" image-rendering="optimizeQuality" fill-rule="nonzero" clip-rule="evenodd" viewBox="0 0 10240 10240" xmlns:xlink="http://www.w3.org/1999/xlink">
	<title>registry icon</title>
	<desc>registry icon from the IconExperience.com O-Collection. Copyright by INCORS GmbH (www.incors.com).</desc>
	<path id="curve3" fill="#808080" d="M5666 2580l1120 -1940c176,-306 569,-411 874,-235l1940 1120c306,177 411,569 235,875l-1120 1940c-177,305 -569,410 -875,234l-1940 -1120c-305,-176 -410,-569 -234,-874z"/>
	<path id="curve2" fill="#76A797" d="M5760 5440l2240 0c353,0 640,287 640,640l0 2240c0,353 -287,640 -640,640l-2240 0c-353,0 -640,-287 -640,-640l0 -2240c0,-353 287,-640 640,-640z"/>
	<path id="curve1" fill="#76A797" d="M1920 5440l2240 0c353,0 640,287 640,640l0 2240c0,353 -287,640 -640,640l-2240 0c-353,0 -640,-287 -640,-640l0 -2240c0,-353 287,-640 640,-640z"/>
	<path id="curve0" fill="#76A797" d="M1920 1600l2240 0c353,0 640,287 640,640l0 2240c0,353 -287,640 -640,640l-2240 0c-353,0 -640,-287 -640,-640l0 -2240c0,-353 287,-640 640,-640z"/>
</svg>
