<?xml version="1.0" encoding="UTF-8"?>
<!DOCTYPE svg PUBLIC "-//W3C//DTD SVG 1.1//EN" "http://www.w3.org/Graphics/SVG/1.1/DTD/svg11.dtd">
<svg xmlns="http://www.w3.org/2000/svg" xml:space="preserve" width="1024px" height="1024px" shape-rendering="geometricPrecision" text-rendering="geometricPrecision" image-rendering="optimizeQuality" fill-rule="nonzero" clip-rule="evenodd" viewBox="0 0 10240 10240" xmlns:xlink="http://www.w3.org/1999/xlink">
	<title>remotecontrol2 icon</title>
	<desc>remotecontrol2 icon from the IconExperience.com O-Collection. Copyright by INCORS GmbH (www.incors.com).</desc>
	<path id="curve3" fill="#808080" d="M5280 4480l800 0c581,0 1090,310 1370,773l843 1327c226,322 347,704 347,1100 0,1060 -860,1920 -1920,1920l-3200 0c-1060,0 -1920,-860 -1920,-1920 0,-396 121,-779 347,-1101l843 -1326c280,-463 789,-773 1370,-773l800 0 0 -1483c-186,-66 -320,-244 -320,-453 0,-265 215,-480 480,-480 265,0 480,215 480,480 0,209 -134,387 -320,453l0 1483zm-1760 1920c-707,0 -1280,573 -1280,1280 0,707 573,1280 1280,1280 707,0 1280,-573 1280,-1280 0,-237 -65,-460 -177,-650l-557 556c-125,125 -327,125 -452,0 -125,-125 -125,-327 0,-452l556 -557c-190,-112 -413,-177 -650,-177zm3200 0c-707,0 -1280,573 -1280,1280 0,707 573,1280 1280,1280 310,0 594,-110 815,-293l-636 -462c-143,-104 -175,-304 -72,-447 104,-142 304,-174 447,-71l637 463c57,-145 89,-304 89,-470 0,-707 -573,-1280 -1280,-1280zm-2240 -1280c-177,0 -320,143 -320,320 0,177 143,320 320,320l1280 0c177,0 320,-143 320,-320 0,-177 -143,-320 -320,-320l-1280 0z"/>
	<path id="curve2" fill="#4D82B8" d="M1917 3986c73,161 1,350 -160,423 -161,72 -350,1 -422,-160 -245,-539 -371,-1126 -371,-1717 0,-568 118,-1137 345,-1657 70,-162 258,-236 420,-165 161,70 235,258 165,420 -194,446 -290,916 -290,1402 0,504 105,995 313,1454zm6436 -2861c-71,-161 3,-349 165,-420 161,-70 349,4 420,165 228,523 346,1091 346,1662 0,597 -126,1179 -374,1723 -73,160 -262,230 -422,157 -160,-73 -231,-262 -158,-422 209,-458 314,-956 314,-1458 0,-487 -97,-961 -291,-1407z"/>
	<path id="curve1" fill="#4D82B8" d="M3085 3465c74,160 3,350 -157,423 -160,73 -349,2 -423,-158 -172,-377 -261,-782 -261,-1197 0,-386 81,-782 234,-1137 70,-162 258,-237 420,-168 162,70 237,258 168,420 -123,285 -182,576 -182,885 0,321 68,641 201,932zm4097 -1821c-69,-161 5,-349 167,-418 161,-70 349,4 418,166 156,359 237,750 237,1141 0,417 -89,823 -263,1201 -73,161 -262,231 -422,158 -161,-73 -231,-262 -158,-423 135,-293 203,-613 203,-936 0,-308 -59,-606 -182,-889z"/>
	<path id="curve0" fill="#4D82B8" d="M4253 2943c74,160 5,349 -154,424 -160,74 -349,6 -424,-154 -98,-209 -151,-445 -151,-676 0,-206 45,-429 125,-619 68,-163 255,-239 418,-171 163,68 240,256 172,419 -52,124 -75,237 -75,371 0,144 28,276 89,406zm1757 -781c-69,-162 7,-349 170,-417 162,-69 349,7 417,170 82,193 127,412 127,622 0,231 -54,472 -152,681 -76,159 -266,228 -425,152 -160,-75 -228,-265 -153,-425 62,-132 90,-262 90,-408 0,-132 -23,-253 -74,-375z"/>
</svg>
