<?xml version="1.0" encoding="UTF-8"?>
<!DOCTYPE svg PUBLIC "-//W3C//DTD SVG 1.1//EN" "http://www.w3.org/Graphics/SVG/1.1/DTD/svg11.dtd">
<svg xmlns="http://www.w3.org/2000/svg" xml:space="preserve" width="1024px" height="1024px" shape-rendering="geometricPrecision" text-rendering="geometricPrecision" image-rendering="optimizeQuality" fill-rule="nonzero" clip-rule="evenodd" viewBox="0 0 10240 10240" xmlns:xlink="http://www.w3.org/1999/xlink">
	<title>remote_control icon</title>
	<desc>remote_control icon from the IconExperience.com O-Collection. Copyright by INCORS GmbH (www.incors.com).</desc>
	<path id="curve2" fill="#808080" d="M2880 3840l2880 0c353,0 640,287 640,640l0 4480c0,353 -287,640 -640,640l-2880 0c-353,0 -640,-287 -640,-640l0 -4480c0,-353 287,-640 640,-640zm2027 3840c-235,0 -427,192 -427,427l0 426c0,235 192,427 427,427l426 0c235,0 427,-192 427,-427l0 -426c0,-235 -192,-427 -427,-427l-426 0zm-1600 -3200c-235,0 -427,192 -427,427l0 426c0,235 192,427 427,427l426 0c235,0 427,-192 427,-427l0 -426c0,-235 -192,-427 -427,-427l-426 0zm1600 0c-235,0 -427,192 -427,427l0 426c0,235 192,427 427,427l426 0c235,0 427,-192 427,-427l0 -426c0,-235 -192,-427 -427,-427l-426 0zm-1600 1600c-235,0 -427,192 -427,427l0 426c0,235 192,427 427,427l426 0c235,0 427,-192 427,-427l0 -426c0,-235 -192,-427 -427,-427l-426 0zm1600 0c-235,0 -427,192 -427,427l0 426c0,235 192,427 427,427l426 0c235,0 427,-192 427,-427l0 -426c0,-235 -192,-427 -427,-427l-426 0zm-1600 1600c-235,0 -427,192 -427,427l0 426c0,235 192,427 427,427l426 0c235,0 427,-192 427,-427l0 -426c0,-235 -192,-427 -427,-427l-426 0z"/>
	<path id="curve1" fill="#4D82B8" d="M1390 2030c-125,125 -328,125 -453,0 -125,-125 -125,-328 0,-453 294,-293 647,-531 1040,-694 379,-157 792,-243 1223,-243 431,0 844,86 1223,243 393,163 746,401 1040,694 125,125 125,328 0,453 -125,125 -328,125 -453,0 -237,-238 -519,-428 -830,-557 -300,-124 -631,-193 -980,-193 -349,0 -680,69 -980,193 -311,129 -593,319 -830,557z"/>
	<path id="curve0" fill="#4D82B8" d="M2295 2935c-125,125 -328,125 -453,0 -125,-125 -125,-328 0,-453 176,-175 388,-318 625,-416 227,-94 475,-146 733,-146 258,0 506,52 733,146 237,98 449,241 625,416 125,125 125,328 0,453 -125,125 -328,125 -453,0 -119,-119 -260,-215 -414,-279 -150,-62 -316,-96 -491,-96 -175,0 -341,34 -491,96 -154,64 -295,160 -414,279z"/>
</svg>
