<?xml version="1.0" encoding="UTF-8"?>
<!DOCTYPE svg PUBLIC "-//W3C//DTD SVG 1.1//EN" "http://www.w3.org/Graphics/SVG/1.1/DTD/svg11.dtd">
<svg xmlns="http://www.w3.org/2000/svg" xml:space="preserve" width="1024px" height="1024px" shape-rendering="geometricPrecision" text-rendering="geometricPrecision" image-rendering="optimizeQuality" fill-rule="nonzero" clip-rule="evenodd" viewBox="0 0 10240 10240" xmlns:xlink="http://www.w3.org/1999/xlink">
	<title>repeat icon</title>
	<desc>repeat icon from the IconExperience.com O-Collection. Copyright by INCORS GmbH (www.incors.com).</desc>
	<path id="curve1" fill="#4D82B8" d="M7437 1470l2146 2146c125,125 125,328 0,452l-2146 2147c-124,124 -276,187 -452,187l-1159 0c-66,0 -123,-38 -148,-99 -25,-61 -12,-127 35,-174l2060 -2061c125,-124 125,-327 0,-452l-2060 -2061c-47,-46 -60,-113 -35,-174 25,-61 82,-99 148,-99l1159 0c176,0 328,63 452,188z"/>
	<path id="curve0" fill="#4D82B8" d="M4877 1470l2146 2146c125,125 125,328 0,452l-2146 2147c-124,124 -276,187 -452,187l-1159 0c-143,0 -214,-172 -113,-273l1647 -1647 -2240 -2c-352,0 -640,288 -640,640l0 1282c0,352 288,640 640,640l960 3c176,0 320,143 320,319l0 636c0,176 -144,320 -320,320l-960 2c-1059,0 -1920,-862 -1920,-1920l0 -1282c0,-1058 862,-1920 1920,-1920 1085,0 1155,2 2240,2l-1647 -1647c-101,-101 -30,-273 113,-273l1159 0c176,0 328,63 452,188z"/>
</svg>
