<?xml version="1.0" encoding="UTF-8"?>
<!DOCTYPE svg PUBLIC "-//W3C//DTD SVG 1.1//EN" "http://www.w3.org/Graphics/SVG/1.1/DTD/svg11.dtd">
<svg xmlns="http://www.w3.org/2000/svg" xml:space="preserve" width="1024px" height="1024px" shape-rendering="geometricPrecision" text-rendering="geometricPrecision" image-rendering="optimizeQuality" fill-rule="nonzero" clip-rule="evenodd" viewBox="0 0 10240 10240" xmlns:xlink="http://www.w3.org/1999/xlink">
	<title>reticle icon</title>
	<desc>reticle icon from the IconExperience.com O-Collection. Copyright by INCORS GmbH (www.incors.com).</desc>
	<path id="curve0" fill="#808080" d="M4800 640l640 0 0 653c1865,154 3353,1642 3507,3507l653 0 0 640 -653 0c-154,1865 -1642,3353 -3507,3507l0 653 -640 0 0 -653c-1865,-154 -3353,-1642 -3507,-3507l-653 0 0 -640 653 0c154,-1866 1642,-3353 3507,-3507l0 -653zm640 1296l0 1291c804,135 1438,769 1573,1573l1291 0c-150,-1512 -1352,-2714 -2864,-2864zm2864 3504l-1291 0c-135,804 -769,1438 -1573,1573l0 1291c1512,-150 2714,-1352 2864,-2864zm-3504 2864l0 -1291c-804,-135 -1438,-769 -1573,-1573l-1291 0c150,1512 1352,2714 2864,2864zm-2864 -3504l1291 0c135,-804 769,-1438 1573,-1573l0 -1291c-1512,150 -2714,1352 -2864,2864zm3184 -960c-707,0 -1280,573 -1280,1280 0,707 573,1280 1280,1280 707,0 1280,-573 1280,-1280 0,-707 -573,-1280 -1280,-1280z"/>
</svg>
