<?xml version="1.0" encoding="UTF-8"?>
<!DOCTYPE svg PUBLIC "-//W3C//DTD SVG 1.1//EN" "http://www.w3.org/Graphics/SVG/1.1/DTD/svg11.dtd">
<svg xmlns="http://www.w3.org/2000/svg" xml:space="preserve" width="1024px" height="1024px" shape-rendering="geometricPrecision" text-rendering="geometricPrecision" image-rendering="optimizeQuality" fill-rule="nonzero" clip-rule="evenodd" viewBox="0 0 10240 10240" xmlns:xlink="http://www.w3.org/1999/xlink">
	<title>rfid_chip icon</title>
	<desc>rfid_chip icon from the IconExperience.com O-Collection. Copyright by INCORS GmbH (www.incors.com).</desc>
	<path id="curve0" fill="#ED9A56" d="M1600 8960c-176,0 -320,-144 -320,-320l0 -7040c0,-176 144,-320 320,-320l7040 0c176,0 320,144 320,320l0 7040c0,176 -144,320 -320,320l-4535 0c-88,0 -164,-31 -226,-94l-1225 -1225c-63,-62 -94,-138 -94,-226l0 -4535c0,-176 144,-320 320,-320l4480 0c176,0 320,144 320,320l0 4480c0,176 -144,320 -320,320l-2615 0c-88,0 -164,-31 -226,-94l-585 -585c-63,-62 -94,-138 -94,-226l0 -2615c0,-176 144,-320 320,-320l1920 0c176,0 320,144 320,320l0 1920c0,176 -144,320 -320,320 -533,0 -1067,0 -1600,0 0,82 31,164 94,226l318 318c58,59 139,96 228,96l1600 0c177,0 320,-143 320,-320l0 -3200c0,-177 -143,-320 -320,-320l-3200 0c-177,0 -320,143 -320,320l0 3520c0,82 31,164 94,226l958 958c58,59 139,96 228,96l3520 0c177,0 320,-143 320,-320l0 -5760c0,-177 -143,-320 -320,-320l-5760 0c-177,0 -320,143 -320,320l0 5440c0,82 31,164 94,226l1054 1054 -1468 0z"/>
</svg>
