<?xml version="1.0" encoding="UTF-8"?>
<!DOCTYPE svg PUBLIC "-//W3C//DTD SVG 1.1//EN" "http://www.w3.org/Graphics/SVG/1.1/DTD/svg11.dtd">
<svg xmlns="http://www.w3.org/2000/svg" xml:space="preserve" width="1024px" height="1024px" shape-rendering="geometricPrecision" text-rendering="geometricPrecision" image-rendering="optimizeQuality" fill-rule="nonzero" clip-rule="evenodd" viewBox="0 0 10240 10240" xmlns:xlink="http://www.w3.org/1999/xlink">
	<title>rfq icon</title>
	<desc>rfq icon from the IconExperience.com O-Collection. Copyright by INCORS GmbH (www.incors.com).</desc>
	<path id="curve2" fill="#4D82B8" d="M1600 6240l0 -160c0,-529 431,-960 960,-960l640 0c529,0 960,431 960,960 0,475 -354,882 -824,950 -81,11 -136,76 -136,159l0 331 -640 0 0 -331c0,-399 292,-735 686,-792 158,-23 274,-158 274,-317 0,-176 -144,-320 -320,-320l-640 0c-176,0 -320,144 -320,320l0 160 -640 0zm960 1440l640 0 0 640 -640 0 0 -640z"/>
	<path id="curve1" fill="#4D82B8" d="M2880 3840c1591,0 2880,1289 2880,2880 0,1591 -1289,2880 -2880,2880 -1591,0 -2880,-1289 -2880,-2880 0,-1591 1289,-2880 2880,-2880zm0 640c-1237,0 -2240,1003 -2240,2240 0,1237 1003,2240 2240,2240 1237,0 2240,-1003 2240,-2240 0,-1237 -1003,-2240 -2240,-2240z"/>
	<path id="curve0" fill="#808080" d="M1920 640l5230 0c352,0 656,126 905,375l1170 1170c249,249 375,553 375,905l0 6510 -5324 0c333,-162 633,-379 889,-640l3795 0 0 -5440c0,-176 -144,-320 -320,-320l-1600 0 0 -1600c0,-176 -144,-320 -320,-320l-4160 0 0 2256c-221,22 -435,66 -640,131l0 -3027zm5760 960l0 960 960 0 -960 -960z"/>
</svg>
