<?xml version="1.0" encoding="UTF-8"?>
<!DOCTYPE svg PUBLIC "-//W3C//DTD SVG 1.1//EN" "http://www.w3.org/Graphics/SVG/1.1/DTD/svg11.dtd">
<svg xmlns="http://www.w3.org/2000/svg" xml:space="preserve" width="1024px" height="1024px" shape-rendering="geometricPrecision" text-rendering="geometricPrecision" image-rendering="optimizeQuality" fill-rule="nonzero" clip-rule="evenodd" viewBox="0 0 10240 10240" xmlns:xlink="http://www.w3.org/1999/xlink">
	<title>road_roller icon</title>
	<desc>road_roller icon from the IconExperience.com O-Collection. Copyright by INCORS GmbH (www.incors.com).</desc>
	<path id="curve3" fill="#808080" d="M7360 4480c761,0 1434,380 1838,960l-745 0c-169,0 -322,62 -443,177l0 0c-190,-112 -413,-177 -650,-177 -325,0 -621,121 -846,320l-1178 0c359,-757 1130,-1280 2024,-1280zm2024 3200c-359,757 -1130,1280 -2024,1280 -894,0 -1665,-523 -2024,-1280l1178 0c225,199 521,320 846,320 325,0 621,-121 847,-320l1177 0z"/>
	<path id="curve2" fill="#808080" d="M2240 5760c884,0 1600,716 1600,1600 0,884 -716,1600 -1600,1600 -884,0 -1600,-716 -1600,-1600 0,-884 716,-1600 1600,-1600zm0 960c-353,0 -640,287 -640,640 0,353 287,640 640,640 353,0 640,-287 640,-640 0,-353 -287,-640 -640,-640z"/>
	<path id="curve1" fill="#EDC87E" d="M320 5120c0,-780 1056,-1137 1967,-1244 45,140 124,268 234,378l905 905c185,184 418,281 679,281l802 0c89,0 174,-11 255,-33 -124,207 -220,433 -281,673 995,0 1991,0 2986,0 89,0 164,-31 227,-94l132 -132c63,-63 138,-94 227,-94l1014 0c89,0 164,31 227,94l132 132c63,63 94,138 94,227l0 827c0,176 -144,320 -320,320 -1573,0 -3146,0 -4719,0 28,110 63,217 105,320l-893 0c17,-104 26,-211 26,-321 0,-1060 -859,-1920 -1920,-1920 -767,0 -1430,451 -1737,1103l-142 -142 0 -1280zm7040 1280c-177,0 -320,143 -320,320 0,177 143,320 320,320 177,0 320,-143 320,-320 0,-177 -143,-320 -320,-320z"/>
	<path id="curve0" fill="#808080" d="M3200 1280l1504 0c259,0 480,144 585,380l904 2034c123,276 41,591 -201,772l-701 526c-116,87 -240,128 -384,128l-802 0c-176,0 -328,-63 -452,-187l-906 -906c-124,-124 -187,-276 -187,-452l0 -1655c0,-353 287,-640 640,-640zm0 640l0 1600 320 320 2037 0 -853 -1920 -1504 0z"/>
</svg>
