<?xml version="1.0" encoding="UTF-8"?>
<!DOCTYPE svg PUBLIC "-//W3C//DTD SVG 1.1//EN" "http://www.w3.org/Graphics/SVG/1.1/DTD/svg11.dtd">
<svg xmlns="http://www.w3.org/2000/svg" xml:space="preserve" width="1024px" height="1024px" shape-rendering="geometricPrecision" text-rendering="geometricPrecision" image-rendering="optimizeQuality" fill-rule="nonzero" clip-rule="evenodd" viewBox="0 0 10240 10240" xmlns:xlink="http://www.w3.org/1999/xlink">
	<title>rocking_horse icon</title>
	<desc>rocking_horse icon from the IconExperience.com O-Collection. Copyright by INCORS GmbH (www.incors.com).</desc>
	<path id="curve2" fill="#B89A7C" d="M9508 8033c-1146,972 -2690,1567 -4388,1567 -1698,0 -3242,-595 -4388,-1567 -69,-59 -107,-135 -112,-226 -5,-91 24,-171 86,-237l219 -233c116,-124 309,-135 439,-25 977,823 2299,1328 3756,1328 1457,0 2779,-505 3756,-1328 130,-110 323,-99 439,25l219 233c62,66 91,146 86,237 -5,91 -43,167 -112,226z"/>
	<path id="curve1" fill="#76A797" d="M4480 3840l1280 0 0 640c0,352 -288,640 -640,640 -352,0 -640,-287 -640,-640l0 -640z"/>
	<path id="curve0" fill="#B89A7C" d="M7426 3841c627,19 1378,304 1755,613 63,52 83,145 48,223l-442 985c-28,61 -80,97 -142,98 -61,1 -115,-35 -143,-96 -226,-481 -415,-960 -820,-1124 -24,901 -199,926 3,1431l565 1413c-216,147 -443,277 -679,390l-991 -1142c-222,-255 -412,-463 -802,-376 -405,91 -828,101 -1237,30 -225,-39 -437,36 -589,207 -354,401 -821,893 -1185,1326 -255,-115 -501,-251 -735,-406l733 -1744c272,-647 239,-1216 -413,-1856l-752 347c-178,82 -335,91 -528,-27 -260,-159 -464,-366 -208,-842l633 -1177c203,-376 103,-514 103,-834 960,0 2560,240 2560,1920l0 1280c0,529 431,960 960,960 529,0 960,-431 960,-960l0 -725c17,-10 33,-21 50,-33 422,-299 976,-174 1296,119zm-5186 -1601c-177,0 -320,143 -320,320 0,177 143,320 320,320 177,0 320,-143 320,-320 0,-177 -143,-320 -320,-320z"/>
</svg>
