<?xml version="1.0" encoding="UTF-8"?>
<!DOCTYPE svg PUBLIC "-//W3C//DTD SVG 1.1//EN" "http://www.w3.org/Graphics/SVG/1.1/DTD/svg11.dtd">
<svg xmlns="http://www.w3.org/2000/svg" xml:space="preserve" width="1024px" height="1024px" shape-rendering="geometricPrecision" text-rendering="geometricPrecision" image-rendering="optimizeQuality" fill-rule="nonzero" clip-rule="evenodd" viewBox="0 0 10240 10240" xmlns:xlink="http://www.w3.org/1999/xlink">
	<title>rocket icon</title>
	<desc>rocket icon from the IconExperience.com O-Collection. Copyright by INCORS GmbH (www.incors.com).</desc>
	<path id="curve2" fill="#808080" d="M5639 8321c568,11 1266,107 1384,1001 21,160 156,278 317,278l87 0c152,0 279,-102 312,-249 521,-2301 -63,-3215 -1227,-3268 263,-1136 309,-2391 -54,-3523l-2676 0c-363,1132 -317,2387 -54,3523 -1164,53 -1748,967 -1227,3268 33,147 160,249 312,249l87 0c161,0 296,-118 317,-278 118,-894 816,-990 1384,-1001 66,112 133,219 201,319l636 0c68,-100 135,-207 201,-319zm-519 -5441c530,0 960,430 960,960 0,530 -430,960 -960,960 -530,0 -960,-430 -960,-960 0,-530 430,-960 960,-960z"/>
	<path id="curve1" fill="#4D82B8" d="M5120 3200c353,0 640,287 640,640 0,353 -287,640 -640,640 -353,0 -640,-287 -640,-640 0,-353 287,-640 640,-640z"/>
	<path id="curve0" fill="#808080" d="M5345 732c454,446 778,959 998,1508l-2446 0c220,-549 544,-1062 998,-1508 62,-61 137,-92 225,-92 88,0 163,31 225,92z"/>
</svg>
