<?xml version="1.0" encoding="UTF-8"?>
<!DOCTYPE svg PUBLIC "-//W3C//DTD SVG 1.1//EN" "http://www.w3.org/Graphics/SVG/1.1/DTD/svg11.dtd">
<svg xmlns="http://www.w3.org/2000/svg" xml:space="preserve" width="1024px" height="1024px" shape-rendering="geometricPrecision" text-rendering="geometricPrecision" image-rendering="optimizeQuality" fill-rule="nonzero" clip-rule="evenodd" viewBox="0 0 10240 10240" xmlns:xlink="http://www.w3.org/1999/xlink">
	<title>roulette_wheel icon</title>
	<desc>roulette_wheel icon from the IconExperience.com O-Collection. Copyright by INCORS GmbH (www.incors.com).</desc>
	<path id="curve4" fill="#808080" d="M4466 3315c249,-90 538,76 615,288 77,212 19,362 -99,489l140 388c188,0 367,84 488,228l388 -141c22,-172 101,-312 312,-389 212,-77 525,39 615,288 90,249 -75,538 -288,615 -212,77 -363,18 -491,-101l-386 140c0,189 -84,369 -228,490l141 388c172,22 312,101 389,312 77,212 -39,525 -288,615 -249,90 -538,-75 -615,-288 -77,-212 -18,-363 101,-491l-140 -386c-189,0 -370,-84 -491,-229l-387 140c-22,173 -100,314 -312,391 -213,77 -525,-39 -615,-288 -90,-249 76,-538 288,-615 212,-77 362,-19 489,99l388 -140c0,-189 85,-368 229,-489l-140 -387c-173,-22 -314,-100 -391,-312 -77,-213 39,-525 288,-615z"/>
	<path id="curve3" fill="#E68497" d="M5280 2244c233,13 458,54 673,119l-219 602c-146,-41 -298,-68 -454,-79l0 -642zm1811 776c166,156 314,332 439,524l-555 320c-76,-112 -162,-216 -256,-312 1,-11 1,-21 1,-32 0,-19 -1,-37 -2,-55l373 -445zm889 1758c27,227 27,457 0,684l-632 -112c16,-153 16,-307 0,-460l632 -112zm-450 1918c-125,192 -273,368 -439,524l-412 -491c110,-107 209,-226 296,-353l555 320zm-1577 1181c-215,65 -440,106 -673,119l0 -642c156,-11 308,-38 454,-79l219 602zm-1967 -109c-212,-91 -410,-206 -592,-342l412 -492c124,90 258,168 399,231l-219 603zm-1437 -1349c-102,-201 -181,-417 -234,-642l632 -111c38,151 91,296 158,433l-556 320zm-234 -1956c53,-225 132,-441 234,-642l556 320c-67,137 -120,282 -158,433l-632 -111zm1079 -1649c182,-136 380,-251 592,-342l219 603c-141,63 -275,141 -399,231l-412 -492z"/>
	<path id="curve2" fill="#808080" d="M4289 2376c223,-68 449,-107 673,-119l0 641c-151,11 -303,38 -454,81l-219 -603zm1967 110c210,90 409,204 592,341l-257 307c-111,-146 -283,-244 -479,-253l144 -395zm1437 1348c102,204 181,420 234,642l-632 111c-38,-149 -91,-294 -158,-433l556 -320zm233 1956c-52,223 -131,438 -234,642l-555 -321c67,-138 120,-283 158,-433l631 112zm-1078 1649c-179,134 -377,250 -592,341l-219 -602c143,-64 276,-142 399,-230l412 491zm-1886 570c-229,-13 -455,-53 -673,-119l219 -603c148,42 300,69 454,81l0 641zm-1811 -776c-165,-154 -313,-330 -440,-524l556 -320c87,129 187,247 296,353l-412 491zm-889 -1758c-28,-230 -27,-460 0,-684l632 111c-16,152 -16,307 0,461l-632 112zm450 -1918c124,-191 271,-367 439,-524l412 491c-111,108 -210,226 -296,353l-555 -320z"/>
	<path id="curve1" fill="#808080" d="M6080 3200c177,0 320,143 320,320 0,177 -143,320 -320,320 -177,0 -320,-143 -320,-320 0,-177 143,-320 320,-320z"/>
	<path id="curve0" fill="#808080" d="M5120 640c2474,0 4480,2006 4480,4480 0,2474 -2006,4480 -4480,4480 -2474,0 -4480,-2006 -4480,-4480 0,-2474 2006,-4480 4480,-4480zm0 1280c-1767,0 -3200,1433 -3200,3200 0,1767 1433,3200 3200,3200 1767,0 3200,-1433 3200,-3200 0,-1767 -1433,-3200 -3200,-3200z"/>
</svg>
