<?xml version="1.0" encoding="UTF-8"?>
<!DOCTYPE svg PUBLIC "-//W3C//DTD SVG 1.1//EN" "http://www.w3.org/Graphics/SVG/1.1/DTD/svg11.dtd">
<svg xmlns="http://www.w3.org/2000/svg" xml:space="preserve" width="1024px" height="1024px" shape-rendering="geometricPrecision" text-rendering="geometricPrecision" image-rendering="optimizeQuality" fill-rule="nonzero" clip-rule="evenodd" viewBox="0 0 10240 10240" xmlns:xlink="http://www.w3.org/1999/xlink">
	<title>router icon</title>
	<desc>router icon from the IconExperience.com O-Collection. Copyright by INCORS GmbH (www.incors.com).</desc>
	<path id="curve1" fill="#76A797" d="M7360,6080 8640,6080 8640,6720 7360,6720z"/>
	<path id="curve0" fill="#808080" d="M1280 5120l640 0 0 960 640 0 0 -960 640 0 0 960 640 0 0 -960 640 0 0 960 640 0 0 -960 3840 0c353,0 640,288 640,640l0 2560c0,352 -287,640 -640,640l-7680 0c-352,0 -640,-287 -640,-640l0 -2560c0,-353 287,-640 640,-640zm640 1920c-176,0 -320,144 -320,320l0 960 1280 0 0 -960c0,-176 -144,-320 -320,-320l-640 0zm0 640l640 0 0 320 -640 0 0 -320zm1600 0l640 0 0 320 -640 0 0 -320zm0 -640c-176,0 -320,144 -320,320l0 960 1280 0 0 -960c0,-176 -144,-320 -320,-320l-640 0zm1600 640l640 0 0 320 -640 0 0 -320zm0 -640c-176,0 -320,144 -320,320l0 960 1280 0 0 -960c0,-176 -144,-320 -320,-320l-640 0zm2240 -1280c-176,0 -320,144 -320,320l0 640c0,176 144,320 320,320l1280 0c176,0 320,-144 320,-320l0 -640c0,-176 -144,-320 -320,-320l-1280 0z"/>
</svg>
