<?xml version="1.0" encoding="UTF-8"?>
<!DOCTYPE svg PUBLIC "-//W3C//DTD SVG 1.1//EN" "http://www.w3.org/Graphics/SVG/1.1/DTD/svg11.dtd">
<svg xmlns="http://www.w3.org/2000/svg" xml:space="preserve" width="1024px" height="1024px" shape-rendering="geometricPrecision" text-rendering="geometricPrecision" image-rendering="optimizeQuality" fill-rule="nonzero" clip-rule="evenodd" viewBox="0 0 10240 10240" xmlns:xlink="http://www.w3.org/1999/xlink">
	<title>route_sign icon</title>
	<desc>route_sign icon from the IconExperience.com O-Collection. Copyright by INCORS GmbH (www.incors.com).</desc>
	<path id="curve0" fill="#4D82B8" d="M1499 2021l909 -909c90,-90 214,-118 333,-76 611,216 1581,195 2194,-240 113,-80 257,-80 370,0 613,435 1583,456 2194,240 119,-42 243,-14 333,76l932 932c111,111 126,281 37,409 -1441,1707 159,1707 159,3947 0,2998 -2809,2625 -3690,3093 -97,51 -203,51 -300,0 -881,-468 -3690,-95 -3690,-3093 0,-1920 1600,-2240 206,-3942 -108,-131 -106,-318 13,-437zm1061 2410c-102,281 -246,541 -372,819 -173,382 -268,727 -268,1150 0,904 264,1546 1122,1905 351,147 734,227 1106,302 311,62 669,124 972,250 303,-126 661,-188 972,-250 372,-75 755,-155 1106,-302 858,-359 1122,-1001 1122,-1905 0,-475 -80,-877 -274,-1309 -93,-209 -202,-406 -293,-611l-5193 0 0 -49z"/>
</svg>
