<?xml version="1.0" encoding="UTF-8"?>
<!DOCTYPE svg PUBLIC "-//W3C//DTD SVG 1.1//EN" "http://www.w3.org/Graphics/SVG/1.1/DTD/svg11.dtd">
<svg xmlns="http://www.w3.org/2000/svg" xml:space="preserve" width="1024px" height="1024px" shape-rendering="geometricPrecision" text-rendering="geometricPrecision" image-rendering="optimizeQuality" fill-rule="nonzero" clip-rule="evenodd" viewBox="0 0 10240 10240" xmlns:xlink="http://www.w3.org/1999/xlink">
	<title>rss icon</title>
	<desc>rss icon from the IconExperience.com O-Collection. Copyright by INCORS GmbH (www.incors.com).</desc>
	<path id="curve2" fill="#ED9A56" d="M8960 8960c0,-4242 -3438,-7680 -7680,-7680l0 1280c3535,0 6400,2865 6400,6400l1280 0z"/>
	<path id="curve1" fill="#ED9A56" d="M6400 8960l-1280 0c0,-2121 -1719,-3840 -3840,-3840l0 -1280c2828,0 5120,2292 5120,5120z"/>
	<path id="curve0" fill="#ED9A56" d="M2400 6720c619,0 1120,501 1120,1120 0,619 -501,1120 -1120,1120 -619,0 -1120,-501 -1120,-1120 0,-619 501,-1120 1120,-1120z"/>
</svg>
