<?xml version="1.0" encoding="UTF-8"?>
<!DOCTYPE svg PUBLIC "-//W3C//DTD SVG 1.1//EN" "http://www.w3.org/Graphics/SVG/1.1/DTD/svg11.dtd">
<svg xmlns="http://www.w3.org/2000/svg" xml:space="preserve" width="1024px" height="1024px" shape-rendering="geometricPrecision" text-rendering="geometricPrecision" image-rendering="optimizeQuality" fill-rule="nonzero" clip-rule="evenodd" viewBox="0 0 10240 10240" xmlns:xlink="http://www.w3.org/1999/xlink">
	<title>rubber_stamp icon</title>
	<desc>rubber_stamp icon from the IconExperience.com O-Collection. Copyright by INCORS GmbH (www.incors.com).</desc>
	<path id="curve2" fill="#E68497" d="M4978 3925l4299 -1753 640 1569 -5683 2317c-47,-89 -74,-191 -74,-298 0,-427 196,-969 480,-1290 144,-163 258,-348 338,-545zm784 -2149c910,-371 1910,-177 2609,420l-681 277c-497,-290 -1119,-355 -1693,-121 -375,153 -675,411 -881,726 -17,-265 -87,-514 -200,-739 234,-236 519,-430 846,-563zm3490 2581c-83,916 -662,1754 -1572,2125 -594,242 -1226,243 -1788,49 -86,-67 -187,-111 -300,-126 -186,-92 -362,-207 -521,-343l681 -278c497,291 1119,356 1693,121 575,-234 974,-715 1127,-1270l680 -278z"/>
	<path id="curve1" fill="#E68497" d="M320,8320 6080,8320 6080,8960 320,8960z"/>
	<path id="curve0" fill="#808080" d="M890 6720l710 0c529,0 960,-431 960,-960 0,-496 -219,-1115 -560,-1502 -249,-282 -400,-652 -400,-1058 0,-884 716,-1600 1600,-1600 884,0 1600,716 1600,1600 0,406 -151,776 -400,1058 -341,387 -560,1006 -560,1502 0,529 431,960 960,960l710 0c149,0 260,103 311,242l221 613c26,73 38,139 38,217l0 208 -5760 0 0 -208c0,-78 12,-144 38,-217l221 -613c51,-140 162,-242 311,-242z"/>
</svg>
