<?xml version="1.0" encoding="UTF-8"?>
<!DOCTYPE svg PUBLIC "-//W3C//DTD SVG 1.1//EN" "http://www.w3.org/Graphics/SVG/1.1/DTD/svg11.dtd">
<svg xmlns="http://www.w3.org/2000/svg" xml:space="preserve" width="1024px" height="1024px" shape-rendering="geometricPrecision" text-rendering="geometricPrecision" image-rendering="optimizeQuality" fill-rule="nonzero" clip-rule="evenodd" viewBox="0 0 10240 10240" xmlns:xlink="http://www.w3.org/1999/xlink">
	<title>safe_into icon</title>
	<desc>safe_into icon from the IconExperience.com O-Collection. Copyright by INCORS GmbH (www.incors.com).</desc>
	<path id="curve4" fill="#808080" d="M1920 1280l6400 0c353,0 640,288 640,640l-6400 0c-353,0 -640,287 -640,640l0 293c-50,118 -54,255 0,378l0 929 -640 0 0 -2240c0,-353 287,-640 640,-640zm0 4800l0 929c-54,123 -50,260 0,378l0 293c0,352 288,640 640,640l6400 0 0 1280 -1722 0c-124,0 -231,-66 -286,-177l-55 -109c-111,-222 -324,-354 -573,-354l-2408 0c-249,0 -462,132 -573,354l-55 109c-55,111 -162,177 -286,177l-1722 0 0 -3520 640 0z"/>
	<path id="curve3" fill="#808080" d="M2560 2240l5120 0c-236,0 -443,129 -554,320l-4765 0c-42,0 -83,5 -121,15l0 -15c0,-176 144,-320 320,-320zm0 1678l0 242 -320 0 0 -563 320 321zm2958 242l1522 0 0 320 -1202 0 -320 -320zm0 1920l1522 0 0 320 -1842 0 320 -320zm1608 1600c111,191 318,320 554,320l-5120 0c-176,0 -320,-144 -320,-320l0 -15c38,10 79,15 121,15l4765 0zm-4886 -1037l0 -563 562 0 -562 563z"/>
	<path id="curve2" fill="#808080" d="M9600 3200c176,0 320,144 320,320l0 3200c0,176 -144,320 -320,320 -176,0 -320,-144 -320,-320l0 -960 -329 0 0 -1280 329 0 0 -960c0,-176 144,-320 320,-320z"/>
	<path id="curve1" fill="#808080" d="M8960 2240l0 5760 -960 0 0 -320 -320 0c-176,0 -320,-144 -320,-320l0 -4480c0,-176 144,-320 320,-320l320 0 0 -320 960 0z"/>
	<path id="curve0" fill="#4D82B8" d="M3993 3067l1826 1827c124,124 124,328 0,452l-1826 1827c-125,124 -277,187 -453,187l-1159 0c-142,0 -214,-172 -113,-273l1327 -1327 -2795 0c-88,0 -160,-72 -160,-160l0 -960c0,-88 72,-160 160,-160l2795 0 -1327 -1327c-101,-101 -29,-273 113,-273l1159 0c176,0 328,63 453,187z"/>
</svg>
