<?xml version="1.0" encoding="UTF-8"?>
<!DOCTYPE svg PUBLIC "-//W3C//DTD SVG 1.1//EN" "http://www.w3.org/Graphics/SVG/1.1/DTD/svg11.dtd">
<svg xmlns="http://www.w3.org/2000/svg" xml:space="preserve" width="1024px" height="1024px" shape-rendering="geometricPrecision" text-rendering="geometricPrecision" image-rendering="optimizeQuality" fill-rule="nonzero" clip-rule="evenodd" viewBox="0 0 10240 10240" xmlns:xlink="http://www.w3.org/1999/xlink">
	<title>safe_open_full icon</title>
	<desc>safe_open_full icon from the IconExperience.com O-Collection. Copyright by INCORS GmbH (www.incors.com).</desc>
	<path id="curve4" fill="#808080" d="M1920 1280l6400 0c353,0 640,288 640,640l-6400 0c-353,0 -640,287 -640,640l0 5120c0,352 288,640 640,640l6400 0 0 1280 -1722 0c-124,0 -231,-66 -286,-177l-55 -109c-111,-222 -324,-354 -573,-354l-2408 0c-249,0 -462,132 -573,354l-55 109c-55,111 -162,177 -286,177l-1722 0 0 -7680c0,-353 287,-640 640,-640z"/>
	<path id="curve3" fill="#808080" d="M2560 2240l5120 0c-236,0 -443,129 -554,320l-4566 0 0 1600 4480 0 0 320 -4480 0 0 1600 4480 0 0 320 -4480 0 0 1280 4566 0c111,191 318,320 554,320l-5120 0c-176,0 -320,-144 -320,-320l0 -5120c0,-176 144,-320 320,-320z"/>
	<path id="curve2" fill="#808080" d="M9600 3200c176,0 320,144 320,320l0 3200c0,176 -144,320 -320,320 -176,0 -320,-144 -320,-320l0 -960 -329 0 0 -1280 329 0 0 -960c0,-176 144,-320 320,-320z"/>
	<path id="curve1" fill="#808080" d="M8960 2240l0 5760 -960 0 0 -320 -320 0c-176,0 -320,-144 -320,-320l0 -4480c0,-176 144,-320 320,-320l320 0 0 -320 960 0z"/>
	<path id="curve0" fill="#EDC87E" d="M5605 3321l-80 320c-13,50 -2,97 29,137 31,41 75,62 126,62l800 0c51,0 95,-21 126,-62 31,-40 42,-87 29,-137l-80 -320c-18,-72 -81,-121 -155,-121l-640 0c-74,0 -137,49 -155,121zm-2560 3520l-80 320c-13,50 -2,97 29,137 31,41 75,62 126,62l800 0c51,0 95,-21 126,-62 31,-40 42,-87 29,-137l-80 -320c-18,-72 -81,-121 -155,-121l-640 0c-74,0 -137,49 -155,121zm1280 0l-80 320c-13,50 -2,97 29,137 31,41 75,62 126,62l800 0c51,0 95,-21 126,-62 31,-40 42,-87 29,-137l-80 -320c-18,-72 -81,-121 -155,-121l-640 0c-74,0 -137,49 -155,121zm1280 0l-80 320c-13,50 -2,97 29,137 31,41 75,62 126,62l800 0c51,0 95,-21 126,-62 31,-40 42,-87 29,-137l-80 -320c-18,-72 -81,-121 -155,-121l-640 0c-74,0 -137,49 -155,121zm-2560 -1600l-80 320c-13,50 -2,97 29,137 31,41 75,62 126,62l800 0c51,0 95,-21 126,-62 31,-40 42,-87 29,-137l-80 -320c-18,-72 -81,-121 -155,-121l-640 0c-74,0 -137,49 -155,121zm1280 0l-80 320c-13,50 -2,97 29,137 31,41 75,62 126,62l800 0c51,0 95,-21 126,-62 31,-40 42,-87 29,-137l-80 -320c-18,-72 -81,-121 -155,-121l-640 0c-74,0 -137,49 -155,121zm1280 0l-80 320c-13,50 -2,97 29,137 31,41 75,62 126,62l800 0c51,0 95,-21 126,-62 31,-40 42,-87 29,-137l-80 -320c-18,-72 -81,-121 -155,-121l-640 0c-74,0 -137,49 -155,121zm-2560 -1920l-80 320c-13,50 -2,97 29,137 31,41 75,62 126,62l800 0c51,0 95,-21 126,-62 31,-40 42,-87 29,-137l-80 -320c-18,-72 -81,-121 -155,-121l-640 0c-74,0 -137,49 -155,121zm1280 0l-80 320c-13,50 -2,97 29,137 31,41 75,62 126,62l800 0c51,0 95,-21 126,-62 31,-40 42,-87 29,-137l-80 -320c-18,-72 -81,-121 -155,-121l-640 0c-74,0 -137,49 -155,121z"/>
</svg>
