<?xml version="1.0" encoding="UTF-8"?>
<!DOCTYPE svg PUBLIC "-//W3C//DTD SVG 1.1//EN" "http://www.w3.org/Graphics/SVG/1.1/DTD/svg11.dtd">
<svg xmlns="http://www.w3.org/2000/svg" xml:space="preserve" width="1024px" height="1024px" shape-rendering="geometricPrecision" text-rendering="geometricPrecision" image-rendering="optimizeQuality" fill-rule="nonzero" clip-rule="evenodd" viewBox="0 0 10240 10240" xmlns:xlink="http://www.w3.org/1999/xlink">
	<title>safety_glasses icon</title>
	<desc>safety_glasses icon from the IconExperience.com O-Collection. Copyright by INCORS GmbH (www.incors.com).</desc>
	<path id="curve0" fill="#4D82B8" d="M320 2560l9600 0 0 960c0,176 -144,320 -320,320l0 0 0 1920c0,705 -575,1280 -1280,1280l-1600 0c-392,0 -728,-221 -882,-582l-418 -975c-52,-120 -163,-194 -294,-194 -130,0 -242,73 -294,193l-423 976c-155,360 -490,582 -882,582l-1607 0c-705,0 -1280,-575 -1280,-1280l0 -1920 0 0c-176,0 -320,-144 -320,-320l0 -960zm960 1280l0 1920c0,352 288,640 640,640l1607 0c137,0 241,-70 295,-196l423 -976c153,-355 496,-580 882,-579 386,1 729,227 881,582l418 975c54,125 158,194 294,194l1600 0c352,0 640,-288 640,-640l0 -1920 -7680 0z"/>
</svg>
