<?xml version="1.0" encoding="UTF-8"?>
<!DOCTYPE svg PUBLIC "-//W3C//DTD SVG 1.1//EN" "http://www.w3.org/Graphics/SVG/1.1/DTD/svg11.dtd">
<svg xmlns="http://www.w3.org/2000/svg" xml:space="preserve" width="1024px" height="1024px" shape-rendering="geometricPrecision" text-rendering="geometricPrecision" image-rendering="optimizeQuality" fill-rule="nonzero" clip-rule="evenodd" viewBox="0 0 10240 10240" xmlns:xlink="http://www.w3.org/1999/xlink">
	<title>safety_pin_open icon</title>
	<desc>safety_pin_open icon from the IconExperience.com O-Collection. Copyright by INCORS GmbH (www.incors.com).</desc>
	<path id="curve0" fill="#808080" d="M8738 1822c750,750 750,1966 0,2716l-905 905c-250,249 -656,249 -905,0l-161 -160c-249,-250 -249,-656 0,-905l1066 -1066c115,-115 187,-275 187,-452 0,-354 -286,-640 -640,-640 -353,0 -640,435 -640,640 0,205 344,751 135,960 -215,192 -499,-92 -808,-112 -209,-13 -429,98 -646,74l-3540 3539c-375,375 -375,983 0,1358 375,375 983,375 1358,0 375,-375 375,-983 0,-1358 -174,-174 -398,-267 -626,-279l532 -532c199,78 385,198 546,359 625,624 625,1638 0,2262 -624,625 -1638,625 -2262,0 -625,-624 -625,-1638 0,-2262l3521 -3522c-56,-214 0,-453 167,-620l905 -905c750,-750 1966,-750 2716,0zm-4515 7138l2595 0c769,0 1332,0 2019,164 73,18 123,81 123,156 0,75 -50,138 -123,156 -687,164 -1251,164 -2019,164l-3197 0c247,-164 453,-383 602,-640z"/>
</svg>
