<?xml version="1.0" encoding="UTF-8"?>
<!DOCTYPE svg PUBLIC "-//W3C//DTD SVG 1.1//EN" "http://www.w3.org/Graphics/SVG/1.1/DTD/svg11.dtd">
<svg xmlns="http://www.w3.org/2000/svg" xml:space="preserve" width="1024px" height="1024px" shape-rendering="geometricPrecision" text-rendering="geometricPrecision" image-rendering="optimizeQuality" fill-rule="nonzero" clip-rule="evenodd" viewBox="0 0 10240 10240" xmlns:xlink="http://www.w3.org/1999/xlink">
	<title>sailboat icon</title>
	<desc>sailboat icon from the IconExperience.com O-Collection. Copyright by INCORS GmbH (www.incors.com).</desc>
	<path id="curve3" fill="#4D82B8" d="M1760 8320c218,394 639,660 1120,660 481,0 897,-264 1117,-654 218,394 640,654 1123,654 483,0 903,-262 1120,-659 219,393 638,659 1120,659 482,0 902,-266 1120,-660 218,394 638,660 1120,660l0 640c-410,0 -799,-130 -1120,-360 -321,230 -710,360 -1120,360 -408,0 -797,-129 -1117,-358 -321,233 -711,358 -1123,358 -411,0 -805,-124 -1126,-356 -320,228 -707,356 -1114,356 -410,0 -799,-130 -1120,-360 -321,230 -710,360 -1120,360l0 -640c482,0 902,-266 1120,-660z"/>
	<path id="curve2" fill="#808080" d="M640 7040l1999 0 465 -531c63,-72 146,-109 241,-109l1135 0 0 -5920c0,-88 72,-160 160,-160l320 0c88,0 160,72 160,160l0 5920 1402 0c124,0 231,66 286,177l232 463 0 0 1600 0c176,0 320,144 320,320l0 0 0 320c0,209 -50,406 -140,580 -21,-30 -42,-62 -60,-95 -58,-105 -161,-165 -280,-165 -119,0 -222,60 -280,165 -169,305 -490,495 -840,495 -350,0 -670,-189 -840,-495 -58,-104 -161,-165 -281,-164 -119,0 -222,61 -279,166 -169,308 -489,493 -840,493 -350,0 -674,-182 -844,-489 -57,-104 -159,-164 -278,-165 -120,0 -222,60 -280,163 -171,304 -489,491 -838,491 -73,0 -144,-8 -214,-24 -430,-532 -1228,-1064 -2026,-1596z"/>
	<path id="curve1" fill="#EDC87E" d="M5738 1041l2626 4559c58,102 58,218 -1,320 -58,102 -159,160 -277,160l-2646 0 0 -4956c0,-75 47,-138 118,-158 71,-20 143,10 180,75z"/>
	<path id="curve0" fill="#EDC87E" d="M4114 1345c-456,1667 -444,3100 37,4521 17,50 10,102 -18,146 -29,44 -71,68 -121,68 -739,3 -1767,34 -2566,372 -109,46 -226,31 -320,-41 -93,-72 -138,-180 -122,-297 240,-1743 1434,-3953 2888,-4949 54,-37 119,-34 169,7 51,41 71,108 53,173z"/>
</svg>
