<?xml version="1.0" encoding="UTF-8"?>
<!DOCTYPE svg PUBLIC "-//W3C//DTD SVG 1.1//EN" "http://www.w3.org/Graphics/SVG/1.1/DTD/svg11.dtd">
<svg xmlns="http://www.w3.org/2000/svg" xml:space="preserve" width="1024px" height="1024px" shape-rendering="geometricPrecision" text-rendering="geometricPrecision" image-rendering="optimizeQuality" fill-rule="nonzero" clip-rule="evenodd" viewBox="0 0 10240 10240" xmlns:xlink="http://www.w3.org/1999/xlink">
	<title>sales_quotation icon</title>
	<desc>sales_quotation icon from the IconExperience.com O-Collection. Copyright by INCORS GmbH (www.incors.com).</desc>
	<path id="curve1" fill="#808080" d="M1920 640l5230 0c352,0 656,126 905,375l1170 1170c249,249 375,553 375,905l0 6510 -6202 0 1294 -640 4268 0 0 -5440c0,-176 -144,-320 -320,-320l-1600 0 0 -1600c0,-176 -144,-320 -320,-320l-4160 0 0 3806 -640 317 0 -4763zm5760 960l0 960 960 0 -960 -960z"/>
	<path id="curve0" fill="#EDC87E" d="M320 6551l1104 -546c-50,373 -4,702 140,986 159,312 432,564 819,755 639,315 895,819 768,1513l-21 116 -1101 545c-380,-749 -1020,-432 -1494,-1368 -475,-936 165,-1252 -215,-2001zm1458 -721l1672 -827c-50,374 -4,702 140,986 159,312 432,564 819,755 639,315 895,820 768,1513l-21 117 -1673 827c108,-793 -211,-1373 -959,-1741 -323,-160 -549,-364 -675,-613 -126,-249 -157,-549 -93,-900l22 -117zm2026 -1002l1207 -597c380,749 1020,432 1494,1368 475,936 -165,1253 215,2001l-1211 599c108,-792 -211,-1373 -959,-1741 -324,-160 -549,-364 -675,-613 -126,-249 -157,-549 -93,-900l22 -117z"/>
</svg>
