<?xml version="1.0" encoding="UTF-8"?>
<!DOCTYPE svg PUBLIC "-//W3C//DTD SVG 1.1//EN" "http://www.w3.org/Graphics/SVG/1.1/DTD/svg11.dtd">
<svg xmlns="http://www.w3.org/2000/svg" xml:space="preserve" width="1024px" height="1024px" shape-rendering="geometricPrecision" text-rendering="geometricPrecision" image-rendering="optimizeQuality" fill-rule="nonzero" clip-rule="evenodd" viewBox="0 0 10240 10240" xmlns:xlink="http://www.w3.org/1999/xlink">
	<title>satellite icon</title>
	<desc>satellite icon from the IconExperience.com O-Collection. Copyright by INCORS GmbH (www.incors.com).</desc>
	<path id="curve4" fill="#4D82B8" d="M8942 6195c-36,-80 0,-175 80,-211 81,-35 175,1 211,81 68,152 120,311 155,476 34,162 52,329 52,499 0,663 -269,1263 -703,1697 -434,434 -1034,703 -1697,703 -154,0 -306,-15 -454,-43 -151,-29 -297,-73 -437,-129 -82,-32 -122,-125 -89,-207 33,-82 125,-122 207,-89 121,48 247,86 379,111 126,24 258,37 394,37 574,0 1094,-233 1471,-609 376,-377 609,-897 609,-1471 0,-149 -15,-294 -45,-433 -30,-144 -75,-282 -133,-412z"/>
	<path id="curve3" fill="#4D82B8" d="M8357 6455c-36,-80 0,-175 80,-211 81,-35 175,1 211,81 50,112 88,229 114,349 25,119 38,241 38,366 0,486 -197,926 -515,1244 -319,319 -759,516 -1245,516 -113,0 -224,-11 -333,-32 -111,-21 -218,-53 -321,-94 -82,-33 -121,-126 -88,-207 32,-82 125,-122 207,-89 83,33 171,59 262,76 87,17 179,26 273,26 398,0 758,-161 1018,-422 261,-260 422,-620 422,-1018 0,-104 -11,-204 -31,-300 -21,-100 -52,-195 -92,-285z"/>
	<path id="curve2" fill="#4D82B8" d="M7772 6715c-36,-80 0,-175 80,-211 81,-35 175,1 211,81 32,71 56,146 72,222 17,76 25,154 25,233 0,309 -125,589 -328,792 -203,203 -483,328 -792,328 -71,0 -142,-7 -212,-20 -70,-14 -138,-34 -204,-60 -82,-33 -122,-126 -89,-208 33,-82 126,-121 208,-89 46,19 94,33 145,43 48,9 99,14 152,14 221,0 421,-90 566,-234 144,-145 234,-345 234,-566 0,-58 -6,-114 -17,-167 -12,-55 -29,-108 -51,-158z"/>
	<path id="curve1" fill="#808080" d="M7840 4970c190,0 375,18 554,53 60,12 105,52 123,110 17,58 3,117 -40,160l-3193 3193c-43,43 -102,58 -160,40 -58,-18 -99,-63 -110,-122 -35,-180 -54,-365 -54,-554 0,-1591 1290,-2880 2880,-2880z"/>
	<path id="curve0" fill="#808080" d="M5440 2560l1920 -1920 1600 1600 -1920 1920 -575 -575 -480 480 95 95c249,249 249,656 0,905l-1015 1015c-249,249 -656,249 -905,0l-98 -98 -481 479 579 579 -1920 1920 -1600 -1600 1920 -1920 570 570 481 -479 -731 -731c-320,-320 -320,-640 -320,-960l-827 0c-89,0 -164,-31 -227,-94l-226 -226 2240 -2240 226 226c63,63 94,138 94,227l0 827c320,0 640,0 960,320l733 733 481 -479 -574 -574z"/>
</svg>
