<?xml version="1.0" encoding="UTF-8"?>
<!DOCTYPE svg PUBLIC "-//W3C//DTD SVG 1.1//EN" "http://www.w3.org/Graphics/SVG/1.1/DTD/svg11.dtd">
<svg xmlns="http://www.w3.org/2000/svg" xml:space="preserve" width="1024px" height="1024px" shape-rendering="geometricPrecision" text-rendering="geometricPrecision" image-rendering="optimizeQuality" fill-rule="nonzero" clip-rule="evenodd" viewBox="0 0 10240 10240" xmlns:xlink="http://www.w3.org/1999/xlink">
	<title>sausage icon</title>
	<desc>sausage icon from the IconExperience.com O-Collection. Copyright by INCORS GmbH (www.incors.com).</desc>
	<path id="curve0" fill="#E68497" d="M9817 3737l-434 -434c-86,-86 -203,-115 -319,-80 -116,35 -198,125 -221,243l-98 488c141,123 261,271 351,435l558 -112c118,-23 208,-105 243,-221 35,-116 6,-233 -80,-319zm-1189 548c260,279 371,629 320,1009 -55,398 -273,719 -627,918 -934,527 -2015,828 -3167,828 -1187,0 -2300,-320 -3253,-877 -370,-217 -590,-569 -618,-993 -28,-424 142,-802 480,-1064 407,-316 960,-356 1417,-90 576,334 1251,527 1974,527 702,0 1358,-181 1922,-497 517,-290 1149,-193 1552,239zm-868 238c-124,-12 -253,15 -371,81 -684,383 -1452,579 -2235,579 -807,0 -1597,-208 -2296,-614 -128,-75 -272,-102 -410,-83 -101,15 -178,86 -200,186 -22,99 17,196 102,252 800,528 1758,836 2789,836 1004,0 1941,-292 2729,-796 87,-56 128,-158 103,-259 -24,-101 -107,-173 -211,-182zm-7326 -760l434 -434c86,-86 203,-115 319,-80 116,35 198,125 221,243l85 422c-163,142 -290,308 -380,492l-516 -103c-118,-23 -208,-105 -243,-221 -35,-116 -6,-233 80,-319z"/>
</svg>
