<?xml version="1.0" encoding="UTF-8"?>
<!DOCTYPE svg PUBLIC "-//W3C//DTD SVG 1.1//EN" "http://www.w3.org/Graphics/SVG/1.1/DTD/svg11.dtd">
<svg xmlns="http://www.w3.org/2000/svg" xml:space="preserve" width="1024px" height="1024px" shape-rendering="geometricPrecision" text-rendering="geometricPrecision" image-rendering="optimizeQuality" fill-rule="nonzero" clip-rule="evenodd" viewBox="0 0 10240 10240" xmlns:xlink="http://www.w3.org/1999/xlink">
	<title>scalpel icon</title>
	<desc>scalpel icon from the IconExperience.com O-Collection. Copyright by INCORS GmbH (www.incors.com).</desc>
	<path id="curve1" fill="#808080" d="M4314 7205l-1114 1115c-640,640 -1600,960 -2240,960 0,-640 320,-1600 960,-2240l1115 -1115c23,89 66,173 128,247l-736 735c-249,250 -249,656 0,906 250,249 656,249 906,0l735 -736c74,62 158,105 246,128z"/>
	<path id="curve0" fill="#808080" d="M4066 6626l-960 960c-125,125 -327,125 -452,0 -125,-125 -125,-327 0,-452l960 -960 -94 -94 -94 -94c-124,-124 -124,-328 0,-452l4441 -4441c250,-250 656,-250 906,0l374 374c250,250 250,656 0,906l-4441 4441c-124,124 -328,124 -452,0l-94 -94 -94 -94z"/>
</svg>
