<?xml version="1.0" encoding="UTF-8"?>
<!DOCTYPE svg PUBLIC "-//W3C//DTD SVG 1.1//EN" "http://www.w3.org/Graphics/SVG/1.1/DTD/svg11.dtd">
<svg xmlns="http://www.w3.org/2000/svg" xml:space="preserve" width="1024px" height="1024px" shape-rendering="geometricPrecision" text-rendering="geometricPrecision" image-rendering="optimizeQuality" fill-rule="nonzero" clip-rule="evenodd" viewBox="0 0 10240 10240" xmlns:xlink="http://www.w3.org/1999/xlink">
	<title>scales icon</title>
	<desc>scales icon from the IconExperience.com O-Collection. Copyright by INCORS GmbH (www.incors.com).</desc>
	<path id="curve5" fill="#EDC87E" d="M5760 3165l0 5155 320 0c176,0 320,144 320,320l0 320 960 0c176,0 320,144 320,320l0 320 -5120 0 0 -320c0,-176 144,-320 320,-320l960 0 0 -320c0,-176 144,-320 320,-320l320 0 0 -5447 1280 292z"/>
	<path id="curve4" fill="#808080" d="M6783 6400l1067 -2934c30,-83 122,-126 204,-96 47,17 80,53 96,96l0 0 1067 2934 -339 0 -878 -2413 -877 2413 -340 0z"/>
	<path id="curve3" fill="#808080" d="M9600 7040c0,353 -716,640 -1600,640 -884,0 -1600,-287 -1600,-640l0 0c0,-176 144,-320 320,-320l2560 0c176,0 320,144 320,320l0 0z"/>
	<path id="curve2" fill="#808080" d="M1023 5120l1067 -2934c30,-83 122,-126 204,-96 47,17 80,53 96,96l0 0 1067 2934 -339 0 -878 -2413 -878 2413 -339 0z"/>
	<path id="curve1" fill="#808080" d="M3840 5760c0,353 -716,640 -1600,640 -884,0 -1600,-287 -1600,-640l0 0c0,-176 144,-320 320,-320l2560 0c176,0 320,144 320,320l0 0z"/>
	<path id="curve0" fill="#EDC87E" d="M1920 1280l2623 1c98,0 182,8 278,29l977 210c96,21 176,47 265,88l2389 1127c138,64 211,210 179,358l-13 62c-21,96 -82,172 -162,215l-5 -14c-49,-133 -154,-238 -288,-287 -213,-77 -446,7 -565,189l-4873 -1086 -34 -96c-49,-133 -154,-238 -288,-287 -212,-77 -443,6 -562,186 -172,-39 -282,-208 -245,-381l13 -61c32,-149 159,-252 311,-253zm3200 320c-177,0 -320,143 -320,320 0,177 143,320 320,320 177,0 320,-143 320,-320 0,-177 -143,-320 -320,-320z"/>
</svg>
