<?xml version="1.0" encoding="UTF-8"?>
<!DOCTYPE svg PUBLIC "-//W3C//DTD SVG 1.1//EN" "http://www.w3.org/Graphics/SVG/1.1/DTD/svg11.dtd">
<svg xmlns="http://www.w3.org/2000/svg" xml:space="preserve" width="1024px" height="1024px" shape-rendering="geometricPrecision" text-rendering="geometricPrecision" image-rendering="optimizeQuality" fill-rule="nonzero" clip-rule="evenodd" viewBox="0 0 10240 10240" xmlns:xlink="http://www.w3.org/1999/xlink">
	<title>scanner icon</title>
	<desc>scanner icon from the IconExperience.com O-Collection. Copyright by INCORS GmbH (www.incors.com).</desc>
	<path id="curve1" fill="#808080" d="M8960 8640c0,176 -144,320 -320,320l-7040 0c-176,0 -320,-144 -320,-320l0 -320c-353,0 -640,-287 -640,-640l0 -640c0,-352 287,-640 640,-640l7680 0c353,0 640,288 640,640l0 640c0,353 -287,640 -640,640l0 320zm-7040 -1920c-177,0 -320,143 -320,320 0,177 143,320 320,320 177,0 320,-143 320,-320 0,-177 -143,-320 -320,-320zm960 0c-177,0 -320,143 -320,320 0,177 143,320 320,320 177,0 320,-143 320,-320 0,-177 -143,-320 -320,-320zm960 0c-177,0 -320,143 -320,320 0,177 143,320 320,320 177,0 320,-143 320,-320 0,-177 -143,-320 -320,-320z"/>
	<path id="curve0" fill="#808080" d="M3793 893l757 414c311,171 561,342 833,570l2655 2228c271,227 484,445 705,721l539 673c97,121 95,288 -4,406l-140 167c-57,67 -158,76 -226,19l-5638 -4730c-67,-57 -76,-158 -20,-226l140 -167c99,-118 264,-149 399,-75z"/>
</svg>
