<?xml version="1.0" encoding="UTF-8"?>
<!DOCTYPE svg PUBLIC "-//W3C//DTD SVG 1.1//EN" "http://www.w3.org/Graphics/SVG/1.1/DTD/svg11.dtd">
<svg xmlns="http://www.w3.org/2000/svg" xml:space="preserve" width="1024px" height="1024px" shape-rendering="geometricPrecision" text-rendering="geometricPrecision" image-rendering="optimizeQuality" fill-rule="nonzero" clip-rule="evenodd" viewBox="0 0 10240 10240" xmlns:xlink="http://www.w3.org/1999/xlink">
	<title>schoolbus icon</title>
	<desc>schoolbus icon from the IconExperience.com O-Collection. Copyright by INCORS GmbH (www.incors.com).</desc>
	<path id="curve2" fill="#808080" d="M2880 8640l0 640c0,176 -144,320 -320,320l-960 0c-176,0 -320,-144 -320,-320l0 -726c94,55 204,86 320,86l1280 0zm4480 0l0 640c0,176 144,320 320,320l960 0c176,0 320,-144 320,-320l0 -726c-94,55 -203,86 -320,86l-1280 0z"/>
	<path id="curve1" fill="#808080" d="M3200,1280 7040,1280 7040,1920 3200,1920z"/>
	<path id="curve0" fill="#EDC87E" d="M5120 640c660,0 3840,72 3840,1046l0 640c0,118 -65,222 -160,277 -102,59 -160,160 -160,277l0 2880c222,111 320,467 320,716l0 1524c0,176 -144,320 -320,320l-1335 0c-88,0 -164,31 -226,94l-133 132c-62,62 -238,94 -326,94l-1500 0 -1455 15c-88,1 -309,-46 -371,-109l-133 -132c-62,-63 -138,-94 -226,-94l-1335 0c-176,0 -320,-144 -320,-320l0 -1524c0,-249 98,-605 320,-716l0 -2966c0,-117 -58,-218 -160,-277 -95,-55 -160,-159 -160,-277l0 -710c0,-975 3180,-890 3840,-890zm-2880 1920c-176,0 -320,144 -320,320l0 1280c0,352 287,640 640,640l2240 0 0 -2240 -2560 0zm3200 0l0 2240 2240 0c353,0 640,-288 640,-640l0 -1280c0,-176 -144,-320 -320,-320l-2560 0zm-2240 -1600c-176,0 -320,144 -320,320l0 640c0,176 144,320 320,320l3840 0c176,0 320,-144 320,-320l0 -640c0,-176 -144,-320 -320,-320l-3840 0zm320 6080l0 320 3200 0 0 -320 -3200 0zm0 -1280l0 320 3200 0 0 -320 -3200 0zm0 640l0 320 3200 0 0 -320 -3200 0zm-1600 0c-176,0 -320,144 -320,320 0,176 144,320 320,320l960 0c176,0 320,-144 320,-320 0,-176 -144,-320 -320,-320l-960 0zm5440 0c-176,0 -320,144 -320,320 0,176 144,320 320,320l960 0c176,0 320,-144 320,-320 0,-176 -144,-320 -320,-320l-960 0z"/>
</svg>
