<?xml version="1.0" encoding="UTF-8"?>
<!DOCTYPE svg PUBLIC "-//W3C//DTD SVG 1.1//EN" "http://www.w3.org/Graphics/SVG/1.1/DTD/svg11.dtd">
<svg xmlns="http://www.w3.org/2000/svg" xml:space="preserve" width="1024px" height="1024px" shape-rendering="geometricPrecision" text-rendering="geometricPrecision" image-rendering="optimizeQuality" fill-rule="nonzero" clip-rule="evenodd" viewBox="0 0 10240 10240" xmlns:xlink="http://www.w3.org/1999/xlink">
	<title>school icon</title>
	<desc>school icon from the IconExperience.com O-Collection. Copyright by INCORS GmbH (www.incors.com).</desc>
	<path id="curve2" fill="#76A797" d="M640 8960l8960 0c176,0 320,144 320,320l0 320 -9600 0 0 -320c0,-176 144,-320 320,-320z"/>
	<path id="curve1" fill="#808080" d="M3200 5760l0 2880 -2560 0 0 -2880 2560 0zm-1920 640l0 1280 1280 0 0 -1280 -1280 0zm2880 -1920l0 1280 640 0 0 -1280 -640 0zm1280 0l0 1280 640 0 0 -1280 -640 0zm2240 1920l0 1280 1280 0 0 -1280 -1280 0zm-960 -2327l0 4567 -960 0 0 -1920 -1280 0 0 1920 -960 0 0 -4567c12,-6 24,-13 35,-20l1565 -1044 1565 1044c11,7 23,14 35,20zm2880 1687l0 2880 -2560 0 0 -2880 2560 0z"/>
	<path id="curve0" fill="#ED9A56" d="M1798 3520l1017 0 296 444c24,36 55,66 89,88l0 1388 -2560 0 872 -1743c55,-111 162,-177 286,-177zm5065 266l-1743 -1161 -1742 1161 -355 -532 1914 -1276c105,-74 248,-79 361,-4l1920 1280 -355 532zm177 266c34,-22 65,-52 89,-88l296 -444 1017 0c124,0 231,66 286,177l872 1743 -2560 0 0 -1388z"/>
</svg>
