<?xml version="1.0" encoding="UTF-8"?>
<!DOCTYPE svg PUBLIC "-//W3C//DTD SVG 1.1//EN" "http://www.w3.org/Graphics/SVG/1.1/DTD/svg11.dtd">
<svg xmlns="http://www.w3.org/2000/svg" xml:space="preserve" width="1024px" height="1024px" shape-rendering="geometricPrecision" text-rendering="geometricPrecision" image-rendering="optimizeQuality" fill-rule="nonzero" clip-rule="evenodd" viewBox="0 0 10240 10240" xmlns:xlink="http://www.w3.org/1999/xlink">
	<title>schoolboy icon</title>
	<desc>schoolboy icon from the IconExperience.com O-Collection. Copyright by INCORS GmbH (www.incors.com).</desc>
	<path id="curve3" fill="#4D82B8" d="M7680 8756c0,203 -122,371 -320,508l0 -2051c211,340 320,786 320,1543zm-640 679c-190,80 -409,144 -640,193l0 -2588 0 -663c23,-13 45,-26 68,-40 219,179 410,331 572,488l0 2610zm-960 251c-330,51 -666,74 -960,74 -294,0 -630,-23 -960,-74l0 -3152c296,120 620,186 960,186 340,0 664,-66 960,-186l0 3152zm-2240 -58c-231,-49 -450,-113 -640,-193l0 -2610c162,-157 353,-309 572,-488 23,14 45,27 68,40l0 3251zm-960 -363c-198,-137 -320,-305 -320,-508 0,-756 109,-1202 320,-1543l0 2051z"/>
	<path id="curve2" fill="#ED9A56" d="M7040 6392l0 3043c-190,80 -409,144 -640,193l0 -3251c276,-159 520,-369 718,-617l562 0c353,0 640,288 640,640l0 2560 -345 0c16,-64 25,-132 25,-204 0,-663 -66,-1331 -481,-1875 -136,-178 -303,-338 -479,-489zm-3200 -15l0 3251c-231,-49 -450,-113 -640,-193l0 -3043c-175,151 -342,310 -478,488 -415,545 -482,1213 -482,1877 0,71 9,139 25,203l-345 0 0 -2560c0,-353 287,-640 640,-640l562 0c198,248 442,458 718,617z"/>
	<path id="curve1" fill="#EFC1B4" d="M7349 4385c-113,1132 -1068,2015 -2229,2015 -1161,0 -2116,-883 -2229,-2015 141,194 324,335 549,335 271,0 476,-195 697,-323 308,-179 629,-237 983,-237 241,0 494,26 711,136 156,79 286,198 438,284 168,96 338,140 531,140 225,0 408,-141 549,-335z"/>
	<path id="curve0" fill="#ED9A56" d="M2900 3019c112,-1292 703,-1739 1954,-1739 279,0 266,0 546,0 1263,0 1833,447 1941,1739 -178,-114 -393,-190 -558,-240 -523,-157 -1118,-219 -1663,-219 -545,0 -1140,62 -1663,219 -165,50 -379,126 -557,240zm3900 1381c-590,0 -560,-560 -1680,-560 -1120,0 -1370,560 -1680,560 -209,0 -484,-405 -560,-880 22,-305 1017,-640 2240,-640 1223,0 2218,335 2240,640 -76,475 -351,880 -560,880z"/>
</svg>
