<?xml version="1.0" encoding="UTF-8"?>
<!DOCTYPE svg PUBLIC "-//W3C//DTD SVG 1.1//EN" "http://www.w3.org/Graphics/SVG/1.1/DTD/svg11.dtd">
<svg xmlns="http://www.w3.org/2000/svg" xml:space="preserve" width="1024px" height="1024px" shape-rendering="geometricPrecision" text-rendering="geometricPrecision" image-rendering="optimizeQuality" fill-rule="nonzero" clip-rule="evenodd" viewBox="0 0 10240 10240" xmlns:xlink="http://www.w3.org/1999/xlink">
	<title>schoolbus2 icon</title>
	<desc>schoolbus2 icon from the IconExperience.com O-Collection. Copyright by INCORS GmbH (www.incors.com).</desc>
	<path id="curve1" fill="#808080" d="M2880 7040c530,0 960,430 960,960 0,530 -430,960 -960,960 -530,0 -960,-430 -960,-960 0,-530 430,-960 960,-960zm5120 640c177,0 320,143 320,320 0,177 -143,320 -320,320 -177,0 -320,-143 -320,-320 0,-177 143,-320 320,-320zm-5120 0c-177,0 -320,143 -320,320 0,177 143,320 320,320 177,0 320,-143 320,-320 0,-177 -143,-320 -320,-320zm5120 -640c-530,0 -960,430 -960,960 0,530 430,960 960,960 530,0 960,-430 960,-960 0,-530 -430,-960 -960,-960z"/>
	<path id="curve0" fill="#EDC87E" d="M960 3520c2240,0 4480,0 6720,0 176,0 320,144 320,320l0 320 475 1280 805 320c328,130 640,288 640,640l0 1280c0,176 -144,320 -320,320l-320 0c0,-707 -573,-1280 -1280,-1280 -707,0 -1280,573 -1280,1280 0,110 14,218 40,320l-2640 0c26,-102 40,-210 40,-320 0,-707 -573,-1280 -1280,-1280 -707,0 -1280,573 -1280,1280 0,110 14,218 40,320l-680 0c-352,0 -640,-287 -640,-640l0 -3520c0,-353 288,-640 640,-640zm320 640c-176,0 -320,144 -320,320l0 640c0,176 144,320 320,320l640 0 0 -1280 -640 0zm5584 0l-784 0 0 1920 353 0c270,-265 608,-462 984,-563 178,-48 279,-233 221,-409l-167 -510c-87,-267 -327,-438 -607,-438zm-4624 0l0 1280 960 0 0 -1280 -960 0zm1280 0l0 1280 960 0 0 -1280 -960 0zm1280 0l0 1280 960 0 0 -1280 -960 0z"/>
</svg>
