<?xml version="1.0" encoding="UTF-8"?>
<!DOCTYPE svg PUBLIC "-//W3C//DTD SVG 1.1//EN" "http://www.w3.org/Graphics/SVG/1.1/DTD/svg11.dtd">
<svg xmlns="http://www.w3.org/2000/svg" xml:space="preserve" width="1024px" height="1024px" shape-rendering="geometricPrecision" text-rendering="geometricPrecision" image-rendering="optimizeQuality" fill-rule="nonzero" clip-rule="evenodd" viewBox="0 0 10240 10240" xmlns:xlink="http://www.w3.org/1999/xlink">
	<title>scientist icon</title>
	<desc>scientist icon from the IconExperience.com O-Collection. Copyright by INCORS GmbH (www.incors.com).</desc>
	<path id="curve5" fill="#4D82B8" d="M7700 8000l-549 640c0,0 0,0 0,0 345,0 2165,0 2165,0l-457 -640 -1159 0z"/>
	<path id="curve4" fill="#808080" d="M7360 5760c-176,0 -320,-144 -320,-320l0 0c0,-176 144,-320 320,-320l640 0 0 1683c0,236 -78,446 -231,625l-860 1004c-86,99 -103,223 -48,342 54,119 160,186 290,186l2165 0c126,0 227,-62 285,-174 57,-111 49,-230 -24,-332l-758 -1061c-120,-167 -179,-352 -179,-558l0 -1715 640 0c176,0 320,144 320,320l0 0c0,176 -144,320 -320,320l0 1075c0,72 18,127 60,186l758 1061c211,297 239,673 72,997 -167,325 -488,521 -854,521l-2165 0c-380,0 -713,-213 -872,-559 -159,-346 -104,-737 144,-1026l860 -1003c54,-63 77,-126 77,-209l0 -1043z"/>
	<path id="curve3" fill="#4D82B8" d="M3844 6009c205,47 417,71 636,71 219,0 431,-24 636,-71 3,24 4,47 4,71 0,274 -172,508 -415,599l415 2281 -640 640 -640 -640 415 -2281c-243,-91 -415,-325 -415,-599 0,-24 1,-47 4,-71z"/>
	<path id="curve2" fill="#808080" d="M6149 9438c-390,79 -810,127 -1203,149l400 -401c77,-76 108,-177 89,-283 28,-3 55,-7 83,-10 121,-16 244,-34 368,-56 18,115 52,228 103,338 43,95 97,183 160,263zm619 -2317c-215,-329 -573,-554 -1124,-965 -70,-49 -139,-99 -207,-151 -2,-28 -5,-56 -13,-83l0 0c210,-73 409,-170 593,-286 417,311 760,542 1023,809l0 358c0,0 0,0 0,0l-272 318zm-2754 2466c-1232,-68 -2734,-401 -2734,-1116 0,-1760 582,-2029 1663,-2835 184,116 383,213 593,286 -8,27 -11,55 -13,83 -68,52 -137,102 -207,151 -1036,772 -1389,892 -1396,2271 85,89 344,194 438,227 342,122 725,193 1084,239 28,3 55,7 83,10 -19,106 12,207 89,283l400 401z"/>
	<path id="curve1" fill="#EFC1B4" d="M5120 2560l960 0 0 640 -960 0 0 -640zm-2240 0l960 0 0 640 -960 0 0 -640z"/>
	<path id="curve0" fill="#EFC1B4" d="M4480 640c1414,0 2560,1141 2560,2549 0,1408 -1146,2550 -2560,2550 -1414,0 -2560,-1142 -2560,-2550 0,-1408 1146,-2549 2560,-2549zm1920 2560l0 -640c0,-176 -144,-320 -320,-320l-3200 0c-176,0 -320,144 -320,320l0 640c0,176 144,320 320,320l960 0c176,0 320,-144 320,-320l0 -320c0,-176 144,-320 320,-320 176,0 320,144 320,320l0 320c0,176 144,320 320,320l960 0c176,0 320,-144 320,-320z"/>
</svg>
