<?xml version="1.0" encoding="UTF-8"?>
<!DOCTYPE svg PUBLIC "-//W3C//DTD SVG 1.1//EN" "http://www.w3.org/Graphics/SVG/1.1/DTD/svg11.dtd">
<svg xmlns="http://www.w3.org/2000/svg" xml:space="preserve" width="1024px" height="1024px" shape-rendering="geometricPrecision" text-rendering="geometricPrecision" image-rendering="optimizeQuality" fill-rule="nonzero" clip-rule="evenodd" viewBox="0 0 10240 10240" xmlns:xlink="http://www.w3.org/1999/xlink">
	<title>scooter icon</title>
	<desc>scooter icon from the IconExperience.com O-Collection. Copyright by INCORS GmbH (www.incors.com).</desc>
	<path id="curve1" fill="#808080" d="M1600 8960c-353,0 -640,-287 -640,-640 0,-353 287,-640 640,-640 353,0 640,287 640,640 0,353 -287,640 -640,640zm7040 0c-353,0 -640,-287 -640,-640 0,-353 287,-640 640,-640 353,0 640,287 640,640 0,353 -287,640 -640,640z"/>
	<path id="curve0" fill="#4D82B8" d="M6400 1920c-177,0 -320,-143 -320,-320 0,-177 143,-320 320,-320l960 0c164,0 299,124 318,283l1106 5808c-216,-33 -438,9 -627,119l-94 -492 -418 826c-298,589 -938,816 -1565,816l-3200 0c-177,0 -320,-143 -320,-320 0,-265 -107,-505 -281,-679 -174,-174 -414,-281 -679,-281 -167,0 -326,40 -472,122 -153,86 -348,32 -434,-121 -86,-153 -32,-348 121,-434 239,-135 511,-207 785,-207 442,0 842,179 1131,469 218,218 374,498 437,812l2912 -1c375,0 811,-100 995,-464l793 -1566 -772 -4050 -696 0z"/>
</svg>
