<?xml version="1.0" encoding="UTF-8"?>
<!DOCTYPE svg PUBLIC "-//W3C//DTD SVG 1.1//EN" "http://www.w3.org/Graphics/SVG/1.1/DTD/svg11.dtd">
<svg xmlns="http://www.w3.org/2000/svg" xml:space="preserve" width="1024px" height="1024px" shape-rendering="geometricPrecision" text-rendering="geometricPrecision" image-rendering="optimizeQuality" fill-rule="nonzero" clip-rule="evenodd" viewBox="0 0 10240 10240" xmlns:xlink="http://www.w3.org/1999/xlink">
	<title>score_board icon</title>
	<desc>score_board icon from the IconExperience.com O-Collection. Copyright by INCORS GmbH (www.incors.com).</desc>
	<path id="curve0" fill="#808080" d="M1280 1920l7680 0c353,0 640,287 640,640l0 5120c0,353 -287,640 -640,640l-7680 0c-353,0 -640,-287 -640,-640l0 -5120c0,-353 287,-640 640,-640zm1920 5120l0 640 3840 0 0 -640 -3840 0zm3200 -4480l0 640 2240 0 0 -640 -2240 0zm-4800 0l0 640 2240 0 0 -640 -2240 0zm960 1600l-1280 0 0 2240 1280 0 0 -1280 -960 0 0 -640 960 0 0 -320zm2560 1280c-177,0 -320,143 -320,320 0,177 143,320 320,320 177,0 320,-143 320,-320 0,-177 -143,-320 -320,-320zm0 -960c-177,0 -320,143 -320,320 0,177 143,320 320,320 177,0 320,-143 320,-320 0,-177 -143,-320 -320,-320zm2880 640l640 0 0 -640 -640 0 0 640zm640 320l0 960 320 0 0 -2240 -1280 0 0 1280 960 0zm-1600 -1280l0 960 -640 0 0 -960 -320 0 0 1280 960 0 0 960 320 0 0 -960 0 -320 0 -960 -320 0zm-2880 0l-1280 0 0 320 960 0 0 1920 320 0 0 -2240zm-1920 1280l-640 0 0 640 640 0 0 -640z"/>
</svg>
