<?xml version="1.0" encoding="UTF-8"?>
<!DOCTYPE svg PUBLIC "-//W3C//DTD SVG 1.1//EN" "http://www.w3.org/Graphics/SVG/1.1/DTD/svg11.dtd">
<svg xmlns="http://www.w3.org/2000/svg" xml:space="preserve" width="1024px" height="1024px" shape-rendering="geometricPrecision" text-rendering="geometricPrecision" image-rendering="optimizeQuality" fill-rule="nonzero" clip-rule="evenodd" viewBox="0 0 10240 10240" xmlns:xlink="http://www.w3.org/1999/xlink">
	<title>scroll2 icon</title>
	<desc>scroll2 icon from the IconExperience.com O-Collection. Copyright by INCORS GmbH (www.incors.com).</desc>
	<path id="curve2" fill="#808080" d="M8960 3200l0 27c0,157 -112,289 -267,315 -335,56 -634,217 -864,447 -290,289 -469,689 -469,1131 0,265 107,505 281,679 181,180 424,281 679,281 265,0 505,-107 679,-281 174,-174 281,-414 281,-679 0,-88 -36,-168 -94,-226 -58,-58 -138,-94 -226,-94 -88,0 -168,36 -226,94 -58,58 -94,138 -94,226 0,176 -144,320 -320,320 -176,0 -320,-144 -320,-320 0,-265 107,-505 281,-679 174,-174 414,-281 679,-281 265,0 505,107 679,281 174,174 281,414 281,679 0,442 -179,842 -469,1131 -289,290 -689,469 -1131,469l-2336 0c-73,-116 -148,-232 -226,-345 19,-22 38,-45 57,-69 55,-71 100,-146 137,-226l1088 0c-201,-267 -320,-600 -320,-960 0,-619 251,-1179 656,-1584 6,-5 11,-11 16,-16l-2286 0c-143,-31 -314,-49 -449,-91 -293,-91 -497,-228 -825,-229 -134,-1 -263,26 -384,82 -130,59 -243,141 -341,238l-547 0c-442,0 -842,179 -1131,469 -290,289 -469,689 -469,1131 0,265 107,505 281,679 174,174 414,281 679,281l714 0c17,44 35,87 53,129 -116,164 -226,335 -327,511l-440 0c-442,0 -842,-179 -1131,-469 -290,-289 -469,-689 -469,-1131 0,-619 251,-1179 656,-1584 405,-405 965,-656 1584,-656l6080 0c176,0 320,144 320,320z"/>
	<path id="curve1" fill="#E68497" d="M2857 6526c-393,590 -673,1247 -809,1751l824 -271c162,-53 329,-26 445,90l544 544c98,-570 100,-1131 126,-1605 -178,14 -356,0 -528,-58 -283,-95 -466,-251 -602,-451zm1419 461c79,497 153,1070 311,1653l472 -628c99,-130 270,-172 434,-97l907 362c-175,-482 -487,-1103 -885,-1690 -250,165 -531,209 -873,297 -125,33 -240,73 -366,103z"/>
	<path id="curve0" fill="#E68497" d="M2894 4445c128,-282 334,-710 687,-873 336,-154 690,72 981,163 247,77 789,90 970,344 149,209 103,650 167,898 125,493 47,898 -136,1132 -239,305 -439,320 -1001,465 -185,48 -618,230 -1001,100 -402,-136 -530,-441 -667,-810 -80,-215 -346,-362 -334,-709 16,-442 219,-458 334,-710zm1266 -285c-530,0 -960,430 -960,960 0,530 430,960 960,960 530,0 960,-430 960,-960 0,-530 -430,-960 -960,-960zm0 320c-353,0 -640,287 -640,640 0,353 287,640 640,640 353,0 640,-287 640,-640 0,-353 -287,-640 -640,-640z"/>
</svg>
