<?xml version="1.0" encoding="UTF-8"?>
<!DOCTYPE svg PUBLIC "-//W3C//DTD SVG 1.1//EN" "http://www.w3.org/Graphics/SVG/1.1/DTD/svg11.dtd">
<svg xmlns="http://www.w3.org/2000/svg" xml:space="preserve" width="1024px" height="1024px" shape-rendering="geometricPrecision" text-rendering="geometricPrecision" image-rendering="optimizeQuality" fill-rule="nonzero" clip-rule="evenodd" viewBox="0 0 10240 10240" xmlns:xlink="http://www.w3.org/1999/xlink">
	<title>sd_card icon</title>
	<desc>sd_card icon from the IconExperience.com O-Collection. Copyright by INCORS GmbH (www.incors.com).</desc>
	<path id="curve0" fill="#808080" d="M7680 1280l-4215 0c-176,0 -328,63 -452,187l-906 906c-124,124 -187,276 -187,452l0 5495c0,352 287,640 640,640l5120 0c353,0 640,-287 640,-640 0,-2503 0,-4205 0,-6400 0,-353 -288,-640 -640,-640zm-320 640l320 0 0 1280 -320 0 0 -1280zm-4800 640l640 0 0 1280 -640 0 0 -1280zm960 -640l640 0 0 1280 -640 0 0 -1280zm960 0l640 0 0 1280 -640 0 0 -1280zm960 0l640 0 0 1280 -640 0 0 -1280zm960 0l640 0 0 1280 -640 0 0 -1280z"/>
</svg>
