<?xml version="1.0" encoding="UTF-8"?>
<!DOCTYPE svg PUBLIC "-//W3C//DTD SVG 1.1//EN" "http://www.w3.org/Graphics/SVG/1.1/DTD/svg11.dtd">
<svg xmlns="http://www.w3.org/2000/svg" xml:space="preserve" width="1024px" height="1024px" shape-rendering="geometricPrecision" text-rendering="geometricPrecision" image-rendering="optimizeQuality" fill-rule="nonzero" clip-rule="evenodd" viewBox="0 0 10240 10240" xmlns:xlink="http://www.w3.org/1999/xlink">
	<title>server2 icon</title>
	<desc>server2 icon from the IconExperience.com O-Collection. Copyright by INCORS GmbH (www.incors.com).</desc>
	<path id="curve1" fill="#ED9A56" d="M5120 6400c353,0 640,287 640,640 0,353 -287,640 -640,640 -353,0 -640,-287 -640,-640 0,-353 287,-640 640,-640z"/>
	<path id="curve0" fill="#808080" d="M2240 640l5760 0c176,0 320,144 320,320l0 8640 -6400 0 0 -8640c0,-176 144,-320 320,-320zm960 1600l3840 0 0 640 -3840 0 0 -640zm0 2560l3840 0 0 640 -3840 0 0 -640zm0 -1280l3840 0 0 640 -3840 0 0 -640zm-640 -2240l0 7360 5120 0 0 -7360 -5120 0zm320 320l0 6720 4480 0 0 -6720 -4480 0zm2240 4480c530,0 960,430 960,960 0,530 -430,960 -960,960 -530,0 -960,-430 -960,-960 0,-530 430,-960 960,-960z"/>
</svg>
