<?xml version="1.0" encoding="UTF-8"?>
<!DOCTYPE svg PUBLIC "-//W3C//DTD SVG 1.1//EN" "http://www.w3.org/Graphics/SVG/1.1/DTD/svg11.dtd">
<svg xmlns="http://www.w3.org/2000/svg" xml:space="preserve" width="1024px" height="1024px" shape-rendering="geometricPrecision" text-rendering="geometricPrecision" image-rendering="optimizeQuality" fill-rule="nonzero" clip-rule="evenodd" viewBox="0 0 10240 10240" xmlns:xlink="http://www.w3.org/1999/xlink">
	<title>shapes icon</title>
	<desc>shapes icon from the IconExperience.com O-Collection. Copyright by INCORS GmbH (www.incors.com).</desc>
	<path id="curve2" fill="#4D82B8" d="M2240 1280l3840 0c176,0 320,144 320,320l0 1108c-47,43 -88,93 -122,150l-518 862 0 -1800 -3200 0 0 2311c-224,51 -439,129 -640,229l0 -2860c0,-176 144,-320 320,-320z"/>
	<path id="curve1" fill="#4D82B8" d="M7102 3025l2453 4173c59,102 60,219 2,321 -59,102 -160,161 -278,161l-3270 0c46,-206 71,-420 71,-640l0 0 2640 0 -1896 -3226 -1102 1835c-113,-204 -250,-394 -407,-564l1237 -2063c60,-99 160,-156 276,-155 116,0 215,58 274,158z"/>
	<path id="curve0" fill="#4D82B8" d="M3200 4480c1414,0 2560,1146 2560,2560 0,1414 -1146,2560 -2560,2560 -1414,0 -2560,-1146 -2560,-2560 0,-1414 1146,-2560 2560,-2560zm0 640c-1060,0 -1920,860 -1920,1920 0,1060 860,1920 1920,1920 1060,0 1920,-860 1920,-1920 0,-1060 -860,-1920 -1920,-1920z"/>
</svg>
