<?xml version="1.0" encoding="UTF-8"?>
<!DOCTYPE svg PUBLIC "-//W3C//DTD SVG 1.1//EN" "http://www.w3.org/Graphics/SVG/1.1/DTD/svg11.dtd">
<svg xmlns="http://www.w3.org/2000/svg" xml:space="preserve" width="1024px" height="1024px" shape-rendering="geometricPrecision" text-rendering="geometricPrecision" image-rendering="optimizeQuality" fill-rule="nonzero" clip-rule="evenodd" viewBox="0 0 10240 10240" xmlns:xlink="http://www.w3.org/1999/xlink">
	<title>ship1 icon</title>
	<desc>ship1 icon from the IconExperience.com O-Collection. Copyright by INCORS GmbH (www.incors.com).</desc>
	<path id="curve3" fill="#4D82B8" d="M1760 8300c218,394 639,660 1120,660 481,0 897,-264 1116,-654 219,394 641,654 1124,654 483,0 903,-262 1120,-659 219,393 638,659 1120,659 482,0 902,-266 1120,-660 218,394 638,660 1120,660l0 640c-410,0 -799,-130 -1120,-360 -321,230 -710,360 -1120,360 -408,0 -797,-129 -1117,-358 -321,233 -711,358 -1123,358 -411,0 -805,-124 -1126,-356 -320,228 -707,356 -1114,356 -410,0 -799,-130 -1120,-360 -321,230 -710,360 -1120,360l0 -640c482,0 902,-266 1120,-660z"/>
	<path id="curve2" fill="#808080" d="M1920 6401l3041 -1216 -1 3442c-287,-46 -540,-217 -684,-476 -57,-104 -159,-164 -279,-165 -119,0 -221,60 -279,163 -171,304 -489,491 -838,491 -32,0 -63,-2 -95,-5 -215,-755 -439,-1589 -865,-2234zm3359 -1216l3041 1216c-428,648 -650,1478 -865,2234 -32,3 -63,5 -95,5 -350,0 -670,-190 -840,-495 -58,-104 -161,-165 -281,-164 -119,0 -222,61 -279,166 -143,261 -395,434 -682,480l1 -3442z"/>
	<path id="curve1" fill="#808080" d="M6720 3520l0 320 390 0c149,0 275,98 311,242l448 1794 -2630 -1052c-79,-32 -159,-32 -238,0l-2630 1052 448 -1794c36,-144 162,-242 311,-242l390 0 0 -320 -640 0 0 -320c0,-353 287,-640 640,-640l1440 0 0 -1600 -800 0 0 -320 1920 0 0 320 -800 0 0 1600 1440 0c353,0 640,287 640,640l0 320 -640 0zm-1280 0l0 320 960 0 0 -320 -960 0zm-1600 0l0 320 960 0 0 -320 -960 0z"/>
	<path id="curve0" fill="#808080" d="M6400 1280c353,0 640,287 640,640 0,353 -287,640 -640,640 -353,0 -640,-287 -640,-640 0,-353 287,-640 640,-640zm-2560 0c353,0 640,287 640,640 0,353 -287,640 -640,640 -353,0 -640,-287 -640,-640 0,-353 287,-640 640,-640z"/>
</svg>
