<?xml version="1.0" encoding="UTF-8"?>
<!DOCTYPE svg PUBLIC "-//W3C//DTD SVG 1.1//EN" "http://www.w3.org/Graphics/SVG/1.1/DTD/svg11.dtd">
<svg xmlns="http://www.w3.org/2000/svg" xml:space="preserve" width="1024px" height="1024px" shape-rendering="geometricPrecision" text-rendering="geometricPrecision" image-rendering="optimizeQuality" fill-rule="nonzero" clip-rule="evenodd" viewBox="0 0 10240 10240" xmlns:xlink="http://www.w3.org/1999/xlink">
	<title>shopping_bag icon</title>
	<desc>shopping_bag icon from the IconExperience.com O-Collection. Copyright by INCORS GmbH (www.incors.com).</desc>
	<path id="curve1" fill="#EDC87E" d="M2053 2560l6134 0c89,0 164,31 227,94l452 452c63,63 94,138 94,227l0 136c0,35 -5,65 -16,99 -580,1775 -616,3817 -109,5626 28,99 10,197 -53,279 -62,83 -151,127 -255,127l-6814 0c-104,0 -193,-44 -255,-127 -63,-82 -81,-180 -53,-279 507,-1809 471,-3851 -109,-5626 -11,-34 -16,-64 -16,-99l0 -136c0,-89 31,-164 94,-227l452 -452c63,-63 138,-94 227,-94zm-101 960c533,1727 590,3667 174,5440l5988 0c-416,-1773 -359,-3713 174,-5440l-6336 0z"/>
	<path id="curve0" fill="#808080" d="M6400 4480c353,0 640,287 640,640 0,237 -129,444 -320,554l0 406c0,441 -180,841 -469,1131 -290,289 -690,469 -1131,469 -426,0 -830,-169 -1131,-469 -289,-290 -469,-690 -469,-1131l0 -406c-191,-110 -320,-317 -320,-554 0,-353 287,-640 640,-640 353,0 640,287 640,640 0,237 -129,444 -320,554l0 406c0,264 108,504 282,678 180,181 423,282 678,282 264,0 504,-108 678,-282 174,-174 282,-414 282,-678l0 -406c-191,-110 -320,-317 -320,-554 0,-353 287,-640 640,-640z"/>
</svg>
