<?xml version="1.0" encoding="UTF-8"?>
<!DOCTYPE svg PUBLIC "-//W3C//DTD SVG 1.1//EN" "http://www.w3.org/Graphics/SVG/1.1/DTD/svg11.dtd">
<svg xmlns="http://www.w3.org/2000/svg" xml:space="preserve" width="1024px" height="1024px" shape-rendering="geometricPrecision" text-rendering="geometricPrecision" image-rendering="optimizeQuality" fill-rule="nonzero" clip-rule="evenodd" viewBox="0 0 10240 10240" xmlns:xlink="http://www.w3.org/1999/xlink">
	<title>shopping_cart icon</title>
	<desc>shopping_cart icon from the IconExperience.com O-Collection. Copyright by INCORS GmbH (www.incors.com).</desc>
	<path id="curve2" fill="#808080" d="M7360 7680c530,0 960,430 960,960 0,530 -430,960 -960,960 -530,0 -960,-430 -960,-960 0,-530 430,-960 960,-960zm-5120 0c530,0 960,430 960,960 0,530 -430,960 -960,960 -530,0 -960,-430 -960,-960 0,-530 430,-960 960,-960z"/>
	<path id="curve1" fill="#808080" d="M1920 7356c-264,0 -478,-214 -478,-478 0,-264 214,-478 478,-478l5120 0 -448 -1084c-45,-102 -52,-211 -27,-311l-1 0 752 -3008c37,-149 140,-264 270,-322l1228 -656c233,-124 522,-36 647,197 124,233 36,523 -197,647l-1069 571 -661 2644 682 1605 0 0c26,60 41,126 41,195 0,264 -214,478 -478,478l-5859 0z"/>
	<path id="curve0" fill="#4D82B8" d="M1407 1600l4813 0c204,0 379,88 505,252 125,165 166,361 116,563l-772 3168c-83,341 -414,555 -751,483l-3615 -767c-261,-55 -453,-256 -500,-525l-426 -2400c-35,-199 13,-384 138,-538 126,-155 295,-236 492,-236zm0 656l425 2401c0,0 0,0 0,0l3616 767 772 -3168 -4813 0z"/>
</svg>
