<?xml version="1.0" encoding="UTF-8"?>
<!DOCTYPE svg PUBLIC "-//W3C//DTD SVG 1.1//EN" "http://www.w3.org/Graphics/SVG/1.1/DTD/svg11.dtd">
<svg xmlns="http://www.w3.org/2000/svg" xml:space="preserve" width="1024px" height="1024px" shape-rendering="geometricPrecision" text-rendering="geometricPrecision" image-rendering="optimizeQuality" fill-rule="nonzero" clip-rule="evenodd" viewBox="0 0 10240 10240" xmlns:xlink="http://www.w3.org/1999/xlink">
	<title>sign_warning_toxic icon</title>
	<desc>sign_warning_toxic icon from the IconExperience.com O-Collection. Copyright by INCORS GmbH (www.incors.com).</desc>
	<path id="curve1" fill="#EDC87E" d="M5680 1282l3846 6712c245,428 -57,966 -554,966l-7691 0c-496,0 -798,-538 -553,-966l3846 -6712c245,-428 861,-428 1106,0zm-560 318l-3840 6720 7680 0 -3840 -6720z"/>
	<path id="curve0" fill="#808080" d="M4022 7274c-94,31 -188,17 -269,-41 -82,-58 -178,-86 -273,-84 -61,2 -113,38 -137,96 -24,57 -12,120 30,166 105,114 160,283 141,439 -8,62 20,120 72,152 53,32 116,30 166,-6 78,-55 139,-135 171,-232 32,-95 100,-163 194,-195l362 -121c-6,-2 -12,-5 -18,-7 -110,-49 -217,-121 -290,-217l-149 50zm2143 -1257l0 0c134,-69 299,-309 150,-618 -61,-125 -30,-177 0,-309 149,-618 -448,-1081 -1195,-1081 -747,0 -1344,463 -1195,1081 31,136 64,178 0,309 -149,309 16,549 150,618 441,223 597,309 597,464 0,309 149,309 448,309 299,0 448,0 448,-309 0,-155 156,-241 597,-464zm-522 -926c206,0 373,173 373,386 0,213 -167,386 -373,386 -207,0 -374,-173 -374,-386 0,-213 167,-386 374,-386zm-1046 0c207,0 374,172 374,386 0,213 -167,386 -374,386 -206,0 -373,-173 -373,-386 0,-214 167,-386 373,-386zm660 818c80,187 237,219 137,426 -25,54 -115,171 -153,141 -89,-70 -172,-65 -261,0 -38,28 -108,-87 -134,-141 -84,-174 65,-272 137,-426 40,-85 237,-87 274,0zm-898 431c14,267 14,533 14,604 0,155 299,309 747,309 448,0 747,-154 747,-309 0,-71 0,-337 14,-604 -91,54 -164,108 -164,141 0,134 -24,426 -128,518 -124,108 -316,100 -469,100 -153,0 -345,8 -469,-100 -104,-92 -128,-384 -128,-518 0,-33 -73,-87 -164,-141zm1402 1108l362 121c94,32 162,100 194,195 32,97 93,177 171,232 50,36 113,38 166,6 52,-32 80,-90 72,-152 -19,-156 36,-325 141,-439 42,-46 54,-109 30,-166 -24,-58 -76,-94 -137,-96 -95,-2 -191,26 -273,84 -81,58 -175,72 -269,41l-149 -50c-73,96 -180,168 -290,217 -6,2 -12,5 -18,7zm404 -562l352 -117c94,-32 188,-17 269,40 82,59 178,87 272,84 62,-1 114,-37 137,-95 24,-58 13,-121 -29,-166 -106,-114 -160,-284 -141,-439 7,-62 -20,-120 -73,-152 -52,-33 -115,-30 -166,5 -77,56 -138,136 -170,232 -32,96 -100,164 -194,196l-251 83c-4,110 -5,219 -6,329zm-2096 -329l-251 -83c-94,-32 -162,-100 -194,-196 -32,-96 -93,-176 -170,-232 -51,-35 -114,-38 -166,-5 -53,32 -80,90 -73,152 19,155 -35,325 -141,439 -42,45 -53,108 -29,166 23,58 75,94 137,95 94,3 190,-25 272,-84 81,-57 175,-72 269,-40l352 117c-1,-110 -2,-219 -6,-329z"/>
</svg>
