<?xml version="1.0" encoding="UTF-8"?>
<!DOCTYPE svg PUBLIC "-//W3C//DTD SVG 1.1//EN" "http://www.w3.org/Graphics/SVG/1.1/DTD/svg11.dtd">
<svg xmlns="http://www.w3.org/2000/svg" xml:space="preserve" width="1024px" height="1024px" shape-rendering="geometricPrecision" text-rendering="geometricPrecision" image-rendering="optimizeQuality" fill-rule="nonzero" clip-rule="evenodd" viewBox="0 0 10240 10240" xmlns:xlink="http://www.w3.org/1999/xlink">
	<title>signboard_closed icon</title>
	<desc>signboard_closed icon from the IconExperience.com O-Collection. Copyright by INCORS GmbH (www.incors.com).</desc>
	<path id="curve2" fill="#4D82B8" d="M1920 5440l320 0c176,0 320,144 320,320l0 80 -320 0c0,-44 -36,-80 -80,-80l-160 0c-44,0 -80,36 -80,80 0,267 0,533 0,800 0,44 36,80 80,80l160 0c44,0 80,-36 80,-80l320 0 0 80c0,176 -144,320 -320,320l-320 0c-176,0 -320,-144 -320,-320l0 -960c0,-176 144,-320 320,-320zm5840 0l240 0c353,0 640,288 640,640l0 320c0,352 -288,640 -640,640l-240 0c-44,0 -80,-36 -80,-80l0 -1440c0,-44 36,-80 80,-80zm240 320l0 960c176,0 320,-144 320,-320l0 -320c0,-176 -144,-320 -320,-320zm-640 -320l0 320 -640 0 0 320 320 0 0 320 -320 0 0 320 640 0 0 320c-400,0 -480,0 -880,0 -44,0 -80,-36 -80,-80l0 -1440c0,-44 36,-80 80,-80 400,0 480,0 880,0zm-1280 320l0 80 -320 0c0,-44 -36,-80 -80,-80l-160 0c-44,0 -80,36 -80,80l0 160c0,44 36,80 80,80l240 0c176,0 320,144 320,320l0 320c0,176 -144,320 -320,320l-320 0c-176,0 -320,-144 -320,-320l0 -80 320 0c0,44 36,80 80,80l160 0c44,0 80,-36 80,-80l0 -160c0,-44 -36,-80 -80,-80l-240 0c-176,0 -320,-144 -320,-320l0 -320c0,-176 144,-320 320,-320 213,0 107,0 320,0 176,0 320,144 320,320zm-1920 -320l320 0c176,0 320,144 320,320l0 960c0,176 -144,320 -320,320l-320 0c-176,0 -320,-144 -320,-320l0 -960c0,-176 144,-320 320,-320zm320 400c0,-44 -36,-80 -80,-80l-160 0c-44,0 -80,36 -80,80 0,267 0,533 0,800 0,44 36,80 80,80l160 0c44,0 80,-36 80,-80l0 -800zm-1600 -400l320 0 0 1280 420 0 0 320 -740 0 0 -1600z"/>
	<path id="curve1" fill="#808080" d="M960 3200l8320 0c176,0 320,144 320,320l0 5760c0,176 -144,320 -320,320l-8320 0c-176,0 -320,-144 -320,-320l0 -5760c0,-176 144,-320 320,-320zm320 640l0 5120 7680 0 0 -5120 -7680 0z"/>
	<path id="curve0" fill="#808080" d="M5120 320c194,0 366,98 512,219l2809 2341 -498 0 -2190 -1825c-46,308 -312,545 -633,545 -321,0 -587,-237 -633,-545l-2190 1825 -498 0 2809 -2341c146,-121 318,-219 512,-219z"/>
</svg>
