<?xml version="1.0" encoding="UTF-8"?>
<!DOCTYPE svg PUBLIC "-//W3C//DTD SVG 1.1//EN" "http://www.w3.org/Graphics/SVG/1.1/DTD/svg11.dtd">
<svg xmlns="http://www.w3.org/2000/svg" xml:space="preserve" width="1024px" height="1024px" shape-rendering="geometricPrecision" text-rendering="geometricPrecision" image-rendering="optimizeQuality" fill-rule="nonzero" clip-rule="evenodd" viewBox="0 0 10240 10240" xmlns:xlink="http://www.w3.org/1999/xlink">
	<title>skateboard icon</title>
	<desc>skateboard icon from the IconExperience.com O-Collection. Copyright by INCORS GmbH (www.incors.com).</desc>
	<path id="curve1" fill="#808080" d="M7680 6400c353,0 640,287 640,640 0,353 -287,640 -640,640 -353,0 -640,-287 -640,-640 0,-353 287,-640 640,-640zm-5120 0c353,0 640,287 640,640 0,353 -287,640 -640,640 -353,0 -640,-287 -640,-640 0,-353 287,-640 640,-640z"/>
	<path id="curve0" fill="#76A797" d="M414 5346c-125,-125 -125,-327 0,-452 125,-125 327,-125 452,0l265 265c192,191 408,281 679,281l6620 0c271,0 487,-90 679,-281l265 -265c125,-125 327,-125 452,0 125,125 125,327 0,452l-265 265c-307,307 -697,469 -1131,469l-6620 0c-434,0 -824,-162 -1131,-469l-265 -265z"/>
</svg>
