<?xml version="1.0" encoding="UTF-8"?>
<!DOCTYPE svg PUBLIC "-//W3C//DTD SVG 1.1//EN" "http://www.w3.org/Graphics/SVG/1.1/DTD/svg11.dtd">
<svg xmlns="http://www.w3.org/2000/svg" xml:space="preserve" width="1024px" height="1024px" shape-rendering="geometricPrecision" text-rendering="geometricPrecision" image-rendering="optimizeQuality" fill-rule="nonzero" clip-rule="evenodd" viewBox="0 0 10240 10240" xmlns:xlink="http://www.w3.org/1999/xlink">
	<title>sms icon</title>
	<desc>sms icon from the IconExperience.com O-Collection. Copyright by INCORS GmbH (www.incors.com).</desc>
	<path id="curve0" fill="#4D82B8" d="M5120 640c2474,0 4480,1576 4480,3520 0,911 -440,1740 -1162,2365 -108,93 -174,203 -206,341 -318,1393 -1486,2414 -3112,2414 213,-213 354,-475 449,-761 66,-198 37,-398 -84,-569 -120,-172 -298,-267 -507,-272 -2409,-59 -4338,-1611 -4338,-3518 0,-1944 2006,-3520 4480,-3520zm1280 1920l-577 0c-62,0 -116,33 -143,88l-560 1119 -560 -1119c-27,-55 -81,-88 -143,-88l-577 0 0 3200 640 0 0 -1848 311 622c28,56 81,88 143,88l372 0c62,0 115,-32 143,-88l311 -621 0 1847 640 0 0 -3200zm-3563 800l670 0c-78,-460 -479,-800 -947,-800l-320 0c-529,0 -960,431 -960,960 0,529 431,960 960,960l320 0c176,0 320,144 320,320 0,176 -144,320 -320,320l-320 0c-114,0 -220,-62 -277,-160l-670 0c78,460 479,800 947,800l320 0c529,0 960,-431 960,-960 0,-529 -431,-960 -960,-960l-320 0c-176,0 -320,-144 -320,-320 0,-176 144,-320 320,-320l320 0c114,0 219,62 277,160zm5440 0l670 0c-78,-460 -479,-800 -947,-800l-320 0c-529,0 -960,431 -960,960 0,529 431,960 960,960l320 0c176,0 320,144 320,320 0,176 -144,320 -320,320l-320 0c-114,0 -219,-62 -277,-160l-670 0c78,460 479,800 947,800l320 0c529,0 960,-431 960,-960 0,-529 -431,-960 -960,-960l-320 0c-176,0 -320,-144 -320,-320 0,-176 144,-320 320,-320l320 0c114,0 219,62 277,160z"/>
</svg>
