<?xml version="1.0" encoding="UTF-8"?>
<!DOCTYPE svg PUBLIC "-//W3C//DTD SVG 1.1//EN" "http://www.w3.org/Graphics/SVG/1.1/DTD/svg11.dtd">
<svg xmlns="http://www.w3.org/2000/svg" xml:space="preserve" width="1024px" height="1024px" shape-rendering="geometricPrecision" text-rendering="geometricPrecision" image-rendering="optimizeQuality" fill-rule="nonzero" clip-rule="evenodd" viewBox="0 0 10240 10240" xmlns:xlink="http://www.w3.org/1999/xlink">
	<title>soccer_ball icon</title>
	<desc>soccer_ball icon from the IconExperience.com O-Collection. Copyright by INCORS GmbH (www.incors.com).</desc>
	<path id="curve0" fill="#808080" d="M5120 640c2474,0 4480,2006 4480,4480 0,2474 -2006,4480 -4480,4480 -2474,0 -4480,-2006 -4480,-4480 0,-2474 2006,-4480 4480,-4480zm1219 2768l873 1512 816 -14 446 -1017 -611 -1058 -1104 -123 -420 700zm2569 1082l-359 819 -82 1374 128 74c234,-497 365,-1052 365,-1637 0,-215 -18,-425 -52,-630zm-634 2821l-127 -74 -1148 758 -531 722c736,-276 1364,-772 1806,-1406zm-2543 1329l658 -894 -396 -715 -1746 0 -396 715 658 894 1222 0zm166 -2306l663 -1148 -777 -1346 -1326 0 -777 1346 663 1148 1554 0zm-3520 -3503l-611 1058 446 1017 816 14 873 -1512 -420 -700 -1104 123zm1395 5886l-531 -722 -1148 -758 -127 74c442,634 1070,1130 1806,1406zm-2127 -1960l128 -74 -82 -1374 -359 -819c-34,205 -52,415 -52,630 0,585 131,1140 365,1637zm1036 -4603l888 -99 1231 -615 0 -147c-801,66 -1533,378 -2119,861zm2759 -861l0 147 1231 615 888 99c-586,-482 -1318,-795 -2119,-861z"/>
</svg>
