<?xml version="1.0" encoding="UTF-8"?>
<!DOCTYPE svg PUBLIC "-//W3C//DTD SVG 1.1//EN" "http://www.w3.org/Graphics/SVG/1.1/DTD/svg11.dtd">
<svg xmlns="http://www.w3.org/2000/svg" xml:space="preserve" width="1024px" height="1024px" shape-rendering="geometricPrecision" text-rendering="geometricPrecision" image-rendering="optimizeQuality" fill-rule="nonzero" clip-rule="evenodd" viewBox="0 0 10240 10240" xmlns:xlink="http://www.w3.org/1999/xlink">
	<title>spider icon</title>
	<desc>spider icon from the IconExperience.com O-Collection. Copyright by INCORS GmbH (www.incors.com).</desc>
	<path id="curve0" fill="#808080" d="M5626 5952c272,226 454,629 454,1088 0,707 -430,1280 -960,1280 -530,0 -960,-573 -960,-1280 0,-459 182,-862 454,-1088 -22,-12 -44,-25 -65,-39l-320 480c-3,5 -7,10 -10,15 -28,43 -51,85 -70,128 -21,49 -39,100 -53,157l-228 912c-10,39 -17,76 -21,115 -5,36 -7,75 -7,118l0 1442c0,177 -143,320 -320,320 -177,0 -320,-143 -320,-320l0 -1442c0,-68 4,-131 12,-196 7,-62 19,-125 36,-192l228 -912c23,-93 52,-178 88,-259 33,-76 73,-148 121,-222 4,-6 8,-13 12,-19l314 -471 -390 97c-90,23 -170,53 -241,94 -70,40 -138,92 -204,159l-459 459c-67,66 -119,134 -159,204 -41,71 -71,151 -94,241l-234 936c-43,172 -216,276 -388,233 -171,-43 -275,-216 -232,-388l234 -936c36,-144 88,-276 159,-401 70,-125 157,-237 261,-342l459 -459c105,-104 217,-191 342,-261 125,-71 257,-123 401,-159l336 -84 -464 -116c-93,-23 -178,-52 -259,-88 -82,-36 -160,-80 -240,-133l-492 -328 -1 -1 -1 1c-117,-79 -220,-168 -312,-272 -90,-102 -165,-215 -230,-345l-488 -976c-79,-157 -15,-348 143,-427 157,-79 348,-15 427,142l488 976c39,79 85,148 138,208 50,57 113,110 189,161l0 1 492 328c48,32 95,58 144,80 49,21 100,39 157,53l518 129 -314 -471c-4,-6 -8,-13 -12,-19 -48,-74 -88,-146 -121,-222 -36,-81 -65,-166 -88,-259l-228 -912c-17,-67 -29,-130 -36,-192 -8,-65 -12,-128 -12,-196l0 -1122c0,-177 143,-320 320,-320 177,0 320,143 320,320l0 1122c0,43 2,81 7,118 4,39 11,76 21,115l228 912c14,57 32,108 53,157 19,43 42,85 70,128 3,5 7,10 10,15l315 473c40,-68 81,-131 125,-188 -111,-50 -189,-162 -189,-292 0,-177 143,-320 320,-320 177,0 320,143 320,320 0,-177 143,-320 320,-320 177,0 320,143 320,320 0,130 -78,242 -189,292 44,57 85,120 125,188l315 -473c3,-5 7,-10 10,-15 28,-43 51,-85 70,-128 21,-49 39,-100 53,-157l228 -912c10,-39 17,-76 21,-115 5,-37 7,-75 7,-118l0 -1122c0,-177 143,-320 320,-320 177,0 320,143 320,320l0 1122c0,68 -4,131 -12,196 -7,62 -19,125 -36,192l-228 912c-23,93 -52,178 -88,259 -33,76 -73,148 -121,222 -4,6 -7,13 -12,19l-236 355 387 -41c83,-9 157,-25 226,-50 67,-25 135,-60 205,-106l0 -1 415 -277c6,-4 13,-8 19,-12 66,-46 122,-95 170,-149 53,-60 99,-129 138,-208l488 -976c79,-157 270,-221 428,-142 157,79 221,270 142,427l-488 976c-65,130 -140,243 -230,345 -84,96 -180,180 -289,255 -8,6 -15,12 -23,17l-415 276 -1 0 -1 0c-109,74 -222,131 -343,175 -120,43 -243,71 -376,85l-590 62 605 151c144,36 276,88 401,159 125,70 237,157 342,261l459 459c104,105 191,217 261,342 71,125 123,257 159,401l234 936c43,172 -61,345 -232,388 -172,43 -345,-61 -388,-233l-234 -936c-23,-90 -53,-170 -94,-241 -40,-70 -92,-138 -159,-204l-459 -459c-66,-67 -134,-119 -204,-159 -71,-41 -151,-71 -241,-94l-390 -97 314 471c6,8 10,16 15,24 47,73 86,144 118,217 36,81 65,166 88,259l228 912c17,67 29,130 36,192 8,65 12,128 12,196l0 1442c0,177 -143,320 -320,320 -177,0 -320,-143 -320,-320l0 -1442c0,-43 -2,-82 -7,-118 -4,-39 -11,-76 -21,-115l-228 -912c-14,-57 -32,-108 -53,-157 -19,-43 -41,-84 -67,-125 -5,-5 -9,-12 -13,-18l-320 -480c-21,14 -43,27 -65,39z"/>
</svg>
