<?xml version="1.0" encoding="UTF-8"?>
<!DOCTYPE svg PUBLIC "-//W3C//DTD SVG 1.1//EN" "http://www.w3.org/Graphics/SVG/1.1/DTD/svg11.dtd">
<svg xmlns="http://www.w3.org/2000/svg" xml:space="preserve" width="1024px" height="1024px" shape-rendering="geometricPrecision" text-rendering="geometricPrecision" image-rendering="optimizeQuality" fill-rule="nonzero" clip-rule="evenodd" viewBox="0 0 10240 10240" xmlns:xlink="http://www.w3.org/1999/xlink">
	<title>spreadsheed_chart icon</title>
	<desc>spreadsheed_chart icon from the IconExperience.com O-Collection. Copyright by INCORS GmbH (www.incors.com).</desc>
	<path id="curve4" fill="#4D82B8" d="M4160 3840l5120 0c176,0 320,144 320,320l0 5120c0,176 -144,320 -320,320l-5120 0c-176,0 -320,-144 -320,-320l0 -5120c0,-176 144,-320 320,-320zm320 640l0 3127 355 -710c79,-157 270,-221 428,-142 31,16 59,36 82,60l968 966 442 -883c79,-158 270,-222 428,-143 31,16 59,36 82,60l328 326 1047 -2094 0 1425 -662 1324c-15,40 -39,78 -72,110 -125,125 -327,125 -452,0l-327 -327 -429 857c-15,40 -39,78 -72,110 -125,125 -327,125 -452,0l-967 -967 -691 1381 4444 0 0 -4480 -4480 0z"/>
	<path id="curve3" fill="#808080" d="M8960,2560 8960,3520 8320,3520 8320,3200 7040,3200 7040,3520 6400,3520 6400,3200 5120,3200 5120,3520 4480,3520 4480,3200 3200,3200 3200,4480 3520,4480 3520,5120 3200,5120 3200,6400 3520,6400 3520,7040 3200,7040 3200,8320 3520,8320 3520,8960 2560,8960 2560,2560z"/>
	<path id="curve2" fill="#808080" d="M2240 2560l0 640 -960 0 0 1280 960 0 0 640 -960 0 0 1280 960 0 0 640 -960 0 0 1280 960 0 0 640 -960 0c-352,0 -640,-287 -640,-640l0 -5760 1600 0z"/>
	<path id="curve1" fill="#808080" d="M8320 640c353,0 640,287 640,640l0 960 -640 0 0 -960 -1280 0 0 960 -640 0 0 -960 -1280 0 0 960 -640 0 0 -960 -1280 0 0 960 -640 0 0 -1600 5760 0z"/>
	<path id="curve0" fill="#808080" d="M1280 640l960 0 0 1600 -1600 0 0 -960c0,-353 287,-640 640,-640z"/>
</svg>
