<?xml version="1.0" encoding="UTF-8"?>
<!DOCTYPE svg PUBLIC "-//W3C//DTD SVG 1.1//EN" "http://www.w3.org/Graphics/SVG/1.1/DTD/svg11.dtd">
<svg xmlns="http://www.w3.org/2000/svg" xml:space="preserve" width="1024px" height="1024px" shape-rendering="geometricPrecision" text-rendering="geometricPrecision" image-rendering="optimizeQuality" fill-rule="nonzero" clip-rule="evenodd" viewBox="0 0 10240 10240" xmlns:xlink="http://www.w3.org/1999/xlink">
	<title>standby icon</title>
	<desc>standby icon from the IconExperience.com O-Collection. Copyright by INCORS GmbH (www.incors.com).</desc>
	<path id="curve1" fill="#4D82B8" d="M6866 1699c1243,636 2094,1929 2094,3421 0,2121 -1719,3840 -3840,3840 -2121,0 -3840,-1719 -3840,-3840 0,-1492 851,-2785 2094,-3421 102,-52 215,-48 313,12 98,60 153,158 153,273l0 774c0,110 -51,205 -142,266 -686,459 -1138,1241 -1138,2129 0,1414 1146,2560 2560,2560 1414,0 2560,-1146 2560,-2560 0,-888 -452,-1670 -1138,-2129 -91,-61 -142,-156 -142,-266l0 -774c0,-115 55,-213 153,-273 98,-60 211,-64 313,-12z"/>
	<path id="curve0" fill="#4D82B8" d="M4800 673l640 0c176,0 320,144 320,320l0 3167c0,176 -144,320 -320,320l-640 0c-176,0 -320,-144 -320,-320l0 -3167c0,-176 144,-320 320,-320z"/>
</svg>
