<?xml version="1.0" encoding="UTF-8"?>
<!DOCTYPE svg PUBLIC "-//W3C//DTD SVG 1.1//EN" "http://www.w3.org/Graphics/SVG/1.1/DTD/svg11.dtd">
<svg xmlns="http://www.w3.org/2000/svg" xml:space="preserve" width="1024px" height="1024px" shape-rendering="geometricPrecision" text-rendering="geometricPrecision" image-rendering="optimizeQuality" fill-rule="nonzero" clip-rule="evenodd" viewBox="0 0 10240 10240" xmlns:xlink="http://www.w3.org/1999/xlink">
	<title>star_of_david icon</title>
	<desc>star_of_david icon from the IconExperience.com O-Collection. Copyright by INCORS GmbH (www.incors.com).</desc>
	<path id="curve0" fill="#4D82B8" d="M1194 7680l2402 0 1247 2160c123,212 431,212 554,0l1247 -2160 2402 0c247,0 400,-266 277,-480l-1201 -2080 1201 -2080c123,-214 -30,-480 -277,-480l-2402 0 -1247 -2160c-123,-212 -431,-212 -554,0l-1247 2160 -2402 0c-247,0 -400,266 -277,480l1201 2080 -1201 2080c-123,214 30,480 277,480zm3141 0l1570 0 -785 1360 -785 -1360zm3417 -3200l-739 -1280 1479 0 -740 1280zm-4525 -1280l-739 1280 -739 -1280 1478 0zm1108 -640l785 -1360 785 1360 -1570 0zm3417 3200l740 1280 -1479 0 739 -1280zm-4525 1280l-1478 0 739 -1280 739 1280zm-370 -1920l1109 -1920 2308 0 1109 1920 -1109 1920 -2308 0 -1109 -1920z"/>
</svg>
