<?xml version="1.0" encoding="UTF-8"?>
<!DOCTYPE svg PUBLIC "-//W3C//DTD SVG 1.1//EN" "http://www.w3.org/Graphics/SVG/1.1/DTD/svg11.dtd">
<svg xmlns="http://www.w3.org/2000/svg" xml:space="preserve" width="1024px" height="1024px" shape-rendering="geometricPrecision" text-rendering="geometricPrecision" image-rendering="optimizeQuality" fill-rule="nonzero" clip-rule="evenodd" viewBox="0 0 10240 10240" xmlns:xlink="http://www.w3.org/1999/xlink">
	<title>sticky_note icon</title>
	<desc>sticky_note icon from the IconExperience.com O-Collection. Copyright by INCORS GmbH (www.incors.com).</desc>
	<path id="curve0" fill="#EDC87E" d="M2560 1280c214,0 441,46 638,126l5393 2174c231,108 369,326 369,580l0 4160c0,352 -287,640 -640,640l-6400 0c-352,0 -640,-288 -640,-640l0 -6400c0,-353 288,-640 640,-640l640 0zm5086 2608l-2721 -1096c401,459 752,938 1027,1304l556 741 1138 -949zm-5726 -1968l0 6399 6399 1 1 -3818c0,-136 -158,-210 -262,-123l-1140 950c-283,235 -701,187 -922,-108l-556 -741c-557,-743 -1853,-2560 -2880,-2560l-640 0z"/>
</svg>
