<?xml version="1.0" encoding="UTF-8"?>
<!DOCTYPE svg PUBLIC "-//W3C//DTD SVG 1.1//EN" "http://www.w3.org/Graphics/SVG/1.1/DTD/svg11.dtd">
<svg xmlns="http://www.w3.org/2000/svg" xml:space="preserve" width="1024px" height="1024px" shape-rendering="geometricPrecision" text-rendering="geometricPrecision" image-rendering="optimizeQuality" fill-rule="nonzero" clip-rule="evenodd" viewBox="0 0 10240 10240" xmlns:xlink="http://www.w3.org/1999/xlink">
	<title>suitcase icon</title>
	<desc>suitcase icon from the IconExperience.com O-Collection. Copyright by INCORS GmbH (www.incors.com).</desc>
	<path id="curve1" fill="#B89A7C" d="M1280 2560l640 0 0 6400 -640 0c-352,0 -640,-288 -640,-640l0 -5120c0,-353 287,-640 640,-640zm1280 0l5122 0 0 6400 -5122 0 0 -6400zm5762 0l638 0c353,0 640,288 640,640l0 5120c0,352 -288,640 -640,640l-638 0 0 -6400z"/>
	<path id="curve0" fill="#808080" d="M3840 640l2560 0c353,0 640,287 640,640l0 960 -640 0 0 -960 -2560 0 0 960 -640 0 0 -960c0,-353 287,-640 640,-640z"/>
</svg>
