<?xml version="1.0" encoding="UTF-8"?>
<!DOCTYPE svg PUBLIC "-//W3C//DTD SVG 1.1//EN" "http://www.w3.org/Graphics/SVG/1.1/DTD/svg11.dtd">
<svg xmlns="http://www.w3.org/2000/svg" xml:space="preserve" width="1024px" height="1024px" shape-rendering="geometricPrecision" text-rendering="geometricPrecision" image-rendering="optimizeQuality" fill-rule="nonzero" clip-rule="evenodd" viewBox="0 0 10240 10240" xmlns:xlink="http://www.w3.org/1999/xlink">
	<title>surveillance_camera2 icon</title>
	<desc>surveillance_camera2 icon from the IconExperience.com O-Collection. Copyright by INCORS GmbH (www.incors.com).</desc>
	<path id="curve2" fill="#808080" d="M9280 5440l320 0 0 3200 -320 0c-176,0 -320,-144 -320,-320l0 -642 -2504 0c-18,1 -37,2 -56,2 -353,0 -640,-287 -640,-640l0 -176c360,207 813,235 1212,36 231,-115 412,-290 533,-497l1455 0 0 -643c0,-176 144,-320 320,-320z"/>
	<path id="curve1" fill="#808080" d="M3965,6733 2711,7360 2139,6215 2820,5874z"/>
	<path id="curve0" fill="#808080" d="M7299 5424c170,454 -26,973 -470,1194 -443,222 -976,68 -1237,-340l-667 333c-222,111 -471,88 -670,-61l-1243 -932c-99,-74 -224,-85 -335,-30l-681 341c-112,55 -236,44 -335,-30l-573 -430c-91,-68 -137,-171 -127,-285 11,-113 74,-206 176,-257l6011 -3005c630,-315 1402,-58 1717,573l572 1145c158,315 29,701 -286,858l-1852 926zm-899 16c-177,0 -320,143 -320,320 0,177 143,320 320,320 177,0 320,-143 320,-320 0,-177 -143,-320 -320,-320z"/>
</svg>
