<?xml version="1.0" encoding="UTF-8"?>
<!DOCTYPE svg PUBLIC "-//W3C//DTD SVG 1.1//EN" "http://www.w3.org/Graphics/SVG/1.1/DTD/svg11.dtd">
<svg xmlns="http://www.w3.org/2000/svg" xml:space="preserve" width="1024px" height="1024px" shape-rendering="geometricPrecision" text-rendering="geometricPrecision" image-rendering="optimizeQuality" fill-rule="nonzero" clip-rule="evenodd" viewBox="0 0 10240 10240" xmlns:xlink="http://www.w3.org/1999/xlink">
	<title>symbol_yuan icon</title>
	<desc>symbol_yuan icon from the IconExperience.com O-Collection. Copyright by INCORS GmbH (www.incors.com).</desc>
	<path id="curve0" fill="#808080" d="M2560 1280l5120 0 0 1280 -5120 0 0 -1280zm4160 3520l0 2880c0,0 0,0 0,0l0 0 0 0c0,0 0,0 0,0l960 0c0,0 0,0 0,0l0 0 0 0c0,0 0,0 0,0l0 -640 1280 0 0 640c0,353 -144,673 -375,905 -232,231 -552,375 -905,375l-960 0c-353,0 -673,-144 -905,-375 -231,-232 -375,-552 -375,-905l0 -2880 -640 0 0 640c0,786 -232,1477 -695,2073 -440,565 -1085,1030 -1935,1395l-500 -1176c643,-275 1118,-610 1425,-1005 283,-364 425,-793 425,-1287l0 -640 -1600 0 0 -1280 6400 0 0 1280 -1600 0zm0 2880l0 0 0 0 0 0 0 0 0 0 0 0 0 0zm0 0c0,0 0,0 0,0 0,0 0,0 0,0zm960 0l0 0 0 0 0 0 0 0zm0 0c0,0 0,0 0,0 0,0 0,0 0,0z"/>
</svg>
