<?xml version="1.0" encoding="UTF-8"?>
<!DOCTYPE svg PUBLIC "-//W3C//DTD SVG 1.1//EN" "http://www.w3.org/Graphics/SVG/1.1/DTD/svg11.dtd">
<svg xmlns="http://www.w3.org/2000/svg" xml:space="preserve" width="1024px" height="1024px" shape-rendering="geometricPrecision" text-rendering="geometricPrecision" image-rendering="optimizeQuality" fill-rule="nonzero" clip-rule="evenodd" viewBox="0 0 10240 10240" xmlns:xlink="http://www.w3.org/1999/xlink">
	<title>symbol_questionmark icon</title>
	<desc>symbol_questionmark icon from the IconExperience.com O-Collection. Copyright by INCORS GmbH (www.incors.com).</desc>
	<path id="curve0" fill="#808080" d="M4480 7680l1280 0 0 1280 -1280 0 0 -1280zm-2240 -3840l0 -320c0,-1235 1005,-2240 2240,-2240l1280 0c1235,0 2240,1005 2240,2240 0,976 -641,1843 -1571,2137 -412,129 -669,485 -669,916l0 467 -1280 0 0 -467c0,-989 626,-1839 1569,-2136 400,-126 671,-498 671,-917 0,-528 -432,-960 -960,-960l-1280 0c-528,0 -960,432 -960,960l0 320 -1280 0z"/>
</svg>
