<?xml version="1.0" encoding="UTF-8"?>
<!DOCTYPE svg PUBLIC "-//W3C//DTD SVG 1.1//EN" "http://www.w3.org/Graphics/SVG/1.1/DTD/svg11.dtd">
<svg xmlns="http://www.w3.org/2000/svg" xml:space="preserve" width="1024px" height="1024px" shape-rendering="geometricPrecision" text-rendering="geometricPrecision" image-rendering="optimizeQuality" fill-rule="nonzero" clip-rule="evenodd" viewBox="0 0 10240 10240" xmlns:xlink="http://www.w3.org/1999/xlink">
	<title>tea_bag icon</title>
	<desc>tea_bag icon from the IconExperience.com O-Collection. Copyright by INCORS GmbH (www.incors.com).</desc>
	<path id="curve2" fill="#808080" d="M6494 7586l960 -960c124,-124 328,-124 452,0l960 960c63,63 94,138 94,227l0 1467c0,176 -144,320 -320,320l-1920 0c-176,0 -320,-144 -320,-320l0 -1467c0,-89 31,-164 94,-227z"/>
	<path id="curve1" fill="#808080" d="M4800 3200c0,177 -143,320 -320,320 -177,0 -320,-143 -320,-320l-320 0c-177,0 -320,-143 -320,-320 0,-177 143,-320 320,-320l320 0c0,-688 245,-1220 620,-1595 430,-430 1027,-645 1620,-645 594,0 1191,215 1620,644 376,375 620,908 620,1596 0,688 -169,1194 -337,1700 -152,454 -303,908 -303,1500l0 538c-197,-114 -443,-114 -640,0l0 -538c0,-687 169,-1194 337,-1700 152,-454 303,-907 303,-1500 0,-502 -170,-882 -432,-1144 -304,-304 -735,-456 -1168,-456 -432,0 -863,152 -1168,457 -261,262 -432,642 -432,1143l320 0c177,0 320,143 320,320 0,177 -143,320 -320,320l-320 0z"/>
	<path id="curve0" fill="#EDC87E" d="M3021 1920l888 0c-24,106 -41,212 -52,320l-17 0c-353,0 -640,287 -640,640 0,353 287,640 640,640l86 0c110,191 317,320 554,320 237,0 444,-129 554,-320l86 0c353,0 640,-287 640,-640 0,-343 -271,-624 -610,-639 14,-71 34,-140 59,-208 14,-37 22,-75 22,-113l708 0c280,0 518,172 607,438l695 2086c-122,425 -201,832 -201,1316l0 827 -773 773c-122,122 -187,280 -187,453l0 1467c0,116 31,226 86,320l-4246 0c-352,0 -640,-287 -640,-640l0 -3096c0,-72 10,-134 33,-203l1101 -3303c89,-266 327,-438 607,-438z"/>
</svg>
