<?xml version="1.0" encoding="UTF-8"?>
<!DOCTYPE svg PUBLIC "-//W3C//DTD SVG 1.1//EN" "http://www.w3.org/Graphics/SVG/1.1/DTD/svg11.dtd">
<svg xmlns="http://www.w3.org/2000/svg" xml:space="preserve" width="1024px" height="1024px" shape-rendering="geometricPrecision" text-rendering="geometricPrecision" image-rendering="optimizeQuality" fill-rule="nonzero" clip-rule="evenodd" viewBox="0 0 10240 10240" xmlns:xlink="http://www.w3.org/1999/xlink">
	<title>telephone2 icon</title>
	<desc>telephone2 icon from the IconExperience.com O-Collection. Copyright by INCORS GmbH (www.incors.com).</desc>
	<path id="curve1" fill="#808080" d="M3520 4160l0 -612c192,-51 420,-89 668,-116 104,418 482,728 932,728 448,0 824,-307 930,-722 248,28 477,67 670,117l0 605c0,1280 1600,1600 1600,2560l0 1600c0,352 -288,640 -640,640l-5120 0c-352,0 -640,-287 -640,-640l0 -1600c0,-960 1600,-1280 1600,-2560zm1600 960c-707,0 -1280,573 -1280,1280 0,707 573,1280 1280,1280 707,0 1280,-573 1280,-1280 0,-707 -573,-1280 -1280,-1280z"/>
	<path id="curve0" fill="#808080" d="M7416 3780l-64 285c-76,339 103,707 412,769l1359 274c308,62 610,-123 686,-462l69 -308c189,-850 -277,-1687 -1030,-1924 -2095,-659 -5361,-659 -7456,0 -753,237 -1219,1074 -1030,1924l69 308c76,339 378,524 686,462l1357 -274c309,-62 488,-430 412,-769l-64 -285c-34,-155 42,-304 169,-374 825,-452 3385,-454 4256,0 129,67 203,219 169,374z"/>
</svg>
