<?xml version="1.0" encoding="UTF-8"?>
<!DOCTYPE svg PUBLIC "-//W3C//DTD SVG 1.1//EN" "http://www.w3.org/Graphics/SVG/1.1/DTD/svg11.dtd">
<svg xmlns="http://www.w3.org/2000/svg" xml:space="preserve" width="1024px" height="1024px" shape-rendering="geometricPrecision" text-rendering="geometricPrecision" image-rendering="optimizeQuality" fill-rule="nonzero" clip-rule="evenodd" viewBox="0 0 10240 10240" xmlns:xlink="http://www.w3.org/1999/xlink">
	<title>tobacco_pipe icon</title>
	<desc>tobacco_pipe icon from the IconExperience.com O-Collection. Copyright by INCORS GmbH (www.incors.com).</desc>
	<path id="curve0" fill="#B89A7C" d="M960 3840l3520 0c176,0 320,144 320,320l0 960c320,0 640,-320 640,-960 0,-1600 1280,-2560 2880,-2560l640 0c0,-176 144,-320 320,-320 176,0 320,144 320,320l0 960c0,176 -144,320 -320,320 -176,0 -320,-144 -320,-320 -1600,0 -1600,1573 -1600,2880 0,1920 -1600,3520 -3520,3520 -1920,0 -3200,-1280 -3200,-2880l0 -1920c0,-176 144,-320 320,-320zm320 960l0 1280c0,279 50,563 154,822 66,164 252,243 415,177 164,-65 243,-251 178,-415 -76,-189 -107,-381 -107,-584l0 -1280c0,-177 -143,-320 -320,-320 -177,0 -320,143 -320,320z"/>
</svg>
