<?xml version="1.0" encoding="UTF-8"?>
<!DOCTYPE svg PUBLIC "-//W3C//DTD SVG 1.1//EN" "http://www.w3.org/Graphics/SVG/1.1/DTD/svg11.dtd">
<svg xmlns="http://www.w3.org/2000/svg" xml:space="preserve" width="1024px" height="1024px" shape-rendering="geometricPrecision" text-rendering="geometricPrecision" image-rendering="optimizeQuality" fill-rule="nonzero" clip-rule="evenodd" viewBox="0 0 10240 10240" xmlns:xlink="http://www.w3.org/1999/xlink">
	<title>toilet icon</title>
	<desc>toilet icon from the IconExperience.com O-Collection. Copyright by INCORS GmbH (www.incors.com).</desc>
	<path id="curve2" fill="#808080" d="M7680 7023c-12,695 -443,1308 -1097,1679 -118,67 -183,141 -183,258l0 320c0,102 -48,240 -142,308 -643,467 -1633,467 -2276,0 -93,-68 -142,-206 -142,-308l0 -320c0,-117 -65,-191 -183,-258 -654,-371 -1085,-984 -1097,-1680 187,161 427,277 637,356 591,222 1295,302 1923,302 628,0 1332,-80 1923,-302 210,-78 450,-195 637,-355z"/>
	<path id="curve1" fill="#EDC87E" d="M5120 7360c1414,0 2560,-430 2560,-960 0,-199 -39,-307 -165,-440l-795 -840 -3200 0 -795 840c-126,133 -165,241 -165,440 0,530 1146,960 2560,960zm0 -1600c884,0 1600,215 1600,480 0,265 -716,480 -1600,480 -884,0 -1600,-215 -1600,-480 0,-265 716,-480 1600,-480z"/>
	<path id="curve0" fill="#808080" d="M5120 640c1448,0 2603,1353 2134,2603l-584 1557 -3150 0 -534 -1557c-434,-1265 686,-2603 2134,-2603z"/>
</svg>
