<?xml version="1.0" encoding="UTF-8"?>
<!DOCTYPE svg PUBLIC "-//W3C//DTD SVG 1.1//EN" "http://www.w3.org/Graphics/SVG/1.1/DTD/svg11.dtd">
<svg xmlns="http://www.w3.org/2000/svg" xml:space="preserve" width="1024px" height="1024px" shape-rendering="geometricPrecision" text-rendering="geometricPrecision" image-rendering="optimizeQuality" fill-rule="nonzero" clip-rule="evenodd" viewBox="0 0 10240 10240" xmlns:xlink="http://www.w3.org/1999/xlink">
	<title>tooth icon</title>
	<desc>tooth icon from the IconExperience.com O-Collection. Copyright by INCORS GmbH (www.incors.com).</desc>
	<path id="curve0" fill="#808080" d="M6720 640c1280,0 1600,1280 1600,3200 0,1280 -640,1920 -640,2560 0,1600 -365,3200 -1280,3200 -1280,0 -320,-2880 -1280,-2880 -960,0 0,2880 -1280,2880 -932,0 -1280,-1600 -1280,-3200 0,-640 -640,-1272 -640,-2560 0,-1920 320,-3200 1600,-3200 454,0 856,320 1600,320 727,0 1156,-320 1600,-320zm-2888 8320c90,-158 120,-679 129,-829 35,-626 17,-1503 606,-1890 166,-108 356,-161 553,-161 197,0 387,53 553,161 589,387 571,1264 606,1890 9,150 39,671 129,829 8,-1 16,-2 24,-5 179,-66 347,-554 393,-714 166,-574 215,-1245 215,-1841 0,-461 199,-860 366,-1278 172,-430 274,-814 274,-1282 0,-565 -17,-2074 -542,-2449 -122,-87 -271,-111 -418,-111 -135,0 -371,89 -501,130 -369,117 -710,190 -1099,190 -368,0 -698,-64 -1047,-172 -150,-47 -363,-132 -518,-146 -12,-1 -23,-2 -35,-2 -147,0 -296,24 -418,111 -525,375 -542,1884 -542,2449 0,469 101,854 274,1285 167,417 366,814 366,1275 0,593 46,1260 207,1833 46,166 209,649 392,720 11,4 22,6 33,7z"/>
</svg>
