<?xml version="1.0" encoding="UTF-8"?>
<!DOCTYPE svg PUBLIC "-//W3C//DTD SVG 1.1//EN" "http://www.w3.org/Graphics/SVG/1.1/DTD/svg11.dtd">
<svg xmlns="http://www.w3.org/2000/svg" xml:space="preserve" width="1024px" height="1024px" shape-rendering="geometricPrecision" text-rendering="geometricPrecision" image-rendering="optimizeQuality" fill-rule="nonzero" clip-rule="evenodd" viewBox="0 0 10240 10240" xmlns:xlink="http://www.w3.org/1999/xlink">
	<title>torii icon</title>
	<desc>torii icon from the IconExperience.com O-Collection. Copyright by INCORS GmbH (www.incors.com).</desc>
	<path id="curve1" fill="#808080" d="M7680 8320l1600 0c176,0 320,144 320,320l0 640 -2240 0 0 -640c0,-176 144,-320 320,-320zm-6720 0l1600 0c176,0 320,144 320,320l0 640 -2240 0 0 -640c0,-176 144,-320 320,-320z"/>
	<path id="curve0" fill="#E68497" d="M870 1307c2478,284 6022,284 8500,0 112,-12 201,89 174,198l-155 621c-67,267 -284,454 -557,481 -166,17 -331,33 -495,47l162 1186 461 0c176,0 320,144 320,320l0 320c0,176 -144,320 -320,320l-330 0 436 3200 -1288 0 -437 -3200 -4442 0 -437 3200 -1288 0 436 -3200 -330 0c-176,0 -320,-144 -320,-320l0 -320c0,-176 144,-320 320,-320l461 0 162 -1186c-164,-14 -329,-30 -495,-47 -273,-27 -490,-214 -557,-481l-155 -621c-29,-117 50,-212 174,-198zm6340 2533l-149 -1094c-1305,72 -2577,72 -3882,0l-149 1094 4180 0z"/>
</svg>
