<?xml version="1.0" encoding="UTF-8"?>
<!DOCTYPE svg PUBLIC "-//W3C//DTD SVG 1.1//EN" "http://www.w3.org/Graphics/SVG/1.1/DTD/svg11.dtd">
<svg xmlns="http://www.w3.org/2000/svg" xml:space="preserve" width="1024px" height="1024px" shape-rendering="geometricPrecision" text-rendering="geometricPrecision" image-rendering="optimizeQuality" fill-rule="nonzero" clip-rule="evenodd" viewBox="0 0 10240 10240" xmlns:xlink="http://www.w3.org/1999/xlink">
	<title>tower_crane icon</title>
	<desc>tower_crane icon from the IconExperience.com O-Collection. Copyright by INCORS GmbH (www.incors.com).</desc>
	<path id="curve6" fill="#808080" d="M4480,8960 8320,8960 8320,9600 4480,9600z"/>
	<path id="curve5" fill="#EDC87E" d="M6400 5760l-320 320 320 320 320 -320 -320 -320zm320 -4800l253 1012c-78,-33 -163,-52 -253,-52l-90 0 -30 -120 -200 -200 120 -120 -120 -481 -120 481 120 120 -200 200 -33 133c-118,12 -234,35 -347,67l260 -1040c43,-171 143,-320 320,-320 177,0 277,149 320,320zm-640 4480l0 320 160 -160 -160 -160zm0 960l0 320 160 -160 -160 -160zm640 0l-160 160 160 160 0 -320zm-640 960l0 320 160 -160 -160 -160zm640 0l-160 160 160 160 0 -320zm-320 320l-320 320 320 320 320 -320 -320 -320zm0 -960l-320 320 320 320 320 -320 -320 -320zm320 -1280l-160 160 160 160 0 -320zm-640 3200l160 -160 -160 -160 0 320zm-320 0l0 -3618c110,35 225,61 341,77l-21 21 320 320 320 -320 0 0 0 0c117,0 226,-31 320,-86l0 3606 -320 0 0 -320 -160 160 160 160 -960 0z"/>
	<path id="curve4" fill="#808080" d="M8000 2560l1600 0c176,0 320,144 320,320l0 1280c0,176 -144,320 -320,320l-1280 0c-176,0 -320,-144 -320,-320l0 -1600z"/>
	<path id="curve3" fill="#808080" d="M6400 2240l320 0c176,0 320,144 320,320l0 1920c0,176 -144,320 -320,320l-320 0c-640,0 -1280,-320 -1280,-960l0 -640c0,-640 640,-960 1280,-960zm320 1286l0 -966 -320 0c-389,0 -960,161 -960,640l0 326 1280 0z"/>
	<path id="curve2" fill="#EDC87E" d="M1865 2560l3123 0c-64,96 -114,202 -146,320l-42 0 33 33c-21,90 -33,185 -33,287l0 640 -3707 0c-133,0 -246,-75 -296,-198 -51,-122 -24,-255 69,-348l547 -547c124,-124 276,-187 452,-187zm375 640l320 320 320 -320 -320 -320 -320 320zm-320 320l320 0 -160 -160 -160 160zm960 0l320 0 -160 -160 -160 160zm0 -640l160 160 160 -160 -320 0zm960 640l320 0 -160 -160 -160 160zm0 -640l160 160 160 -160 -320 0zm320 320l320 320 320 -320 -320 -320 -320 320zm-960 0l320 320 320 -320 -320 -320 -320 320zm-1280 -320l160 160 160 -160 -320 0zm-640 320l320 320 320 -320 -320 -320 -320 320zm6080 -640l320 0 0 640 -320 0 0 -640z"/>
	<path id="curve1" fill="#808080" d="M1834 7478c-86,122 -229,202 -394,202 -261,0 -480,-215 -480,-480 0,-209 134,-387 320,-453l0 -27 -42 0c-121,0 -225,-62 -282,-169 -57,-107 -52,-228 16,-328l261 -392c30,-46 77,-71 133,-71l148 0c56,0 103,25 133,71l261 392c68,100 73,221 16,328 -57,107 -161,169 -282,169l-42 0 0 27c0,139 -83,256 -213,302 -62,22 -107,81 -107,151 0,88 77,160 160,160 55,0 100,-27 128,-67 32,-44 78,-68 132,-67l4 0c61,0 113,32 141,87 28,54 24,115 -11,165z"/>
	<path id="curve0" fill="#808080" d="M8512 2240l-1371 -913 -103 -413c-1,-15 -2,-29 -4,-44l2054 1370 -576 0zm-2814 -1071l-2142 1071 -712 0 2946 -1473c-15,47 -25,96 -28,147l-64 255zm-4098 2991l-320 0 0 1634 320 0 0 -1634z"/>
</svg>
