<?xml version="1.0" encoding="UTF-8"?>
<!DOCTYPE svg PUBLIC "-//W3C//DTD SVG 1.1//EN" "http://www.w3.org/Graphics/SVG/1.1/DTD/svg11.dtd">
<svg xmlns="http://www.w3.org/2000/svg" xml:space="preserve" width="1024px" height="1024px" shape-rendering="geometricPrecision" text-rendering="geometricPrecision" image-rendering="optimizeQuality" fill-rule="nonzero" clip-rule="evenodd" viewBox="0 0 10240 10240" xmlns:xlink="http://www.w3.org/1999/xlink">
	<title>ufo icon</title>
	<desc>ufo icon from the IconExperience.com O-Collection. Copyright by INCORS GmbH (www.incors.com).</desc>
	<path id="curve0" fill="#808080" d="M7872 4362c1238,203 2048,538 2048,918 0,619 -2149,1120 -4800,1120 -2651,0 -4800,-501 -4800,-1120 0,-380 810,-715 2048,-918 364,-1044 1458,-1802 2752,-1802 1294,0 2388,758 2752,1802zm-1152 -522c-353,0 -640,287 -640,640 0,353 287,640 640,640 353,0 640,-287 640,-640 0,-353 -287,-640 -640,-640zm-3200 0c-353,0 -640,287 -640,640 0,353 287,640 640,640 353,0 640,-287 640,-640 0,-353 -287,-640 -640,-640zm1600 0c-353,0 -640,287 -640,640 0,353 287,640 640,640 353,0 640,-287 640,-640 0,-353 -287,-640 -640,-640zm2286 2729c-422,469 -1287,791 -2286,791 -999,0 -1864,-322 -2286,-791 688,96 1464,151 2286,151 822,0 1598,-55 2286,-151z"/>
</svg>
