<?xml version="1.0" encoding="UTF-8"?>
<!DOCTYPE svg PUBLIC "-//W3C//DTD SVG 1.1//EN" "http://www.w3.org/Graphics/SVG/1.1/DTD/svg11.dtd">
<svg xmlns="http://www.w3.org/2000/svg" xml:space="preserve" width="1024px" height="1024px" shape-rendering="geometricPrecision" text-rendering="geometricPrecision" image-rendering="optimizeQuality" fill-rule="nonzero" clip-rule="evenodd" viewBox="0 0 10240 10240" xmlns:xlink="http://www.w3.org/1999/xlink">
	<title>university icon</title>
	<desc>university icon from the IconExperience.com O-Collection. Copyright by INCORS GmbH (www.incors.com).</desc>
	<path id="curve1" fill="#76A797" d="M640 8320l8960 0c176,0 320,144 320,320l0 320 -9600 0 0 -320c0,-176 144,-320 320,-320z"/>
	<path id="curve0" fill="#808080" d="M1280 3840l1280 0 0 4160 -640 0 0 -2880 -640 0 0 2880 -640 0 0 -3520c0,-353 287,-640 640,-640zm2880 -1920l1920 0c176,0 320,144 320,320l0 320 640 0c176,0 320,144 320,320l0 5120 -640 0 0 -4160 -640 0 0 4160 -640 0 0 -4160 -640 0 0 4160 -640 0 0 -4160 -640 0 0 4160 -640 0 0 -5120c0,-176 144,-320 320,-320l640 0 0 -320c0,-176 144,-320 320,-320zm3520 1920l1280 0c353,0 640,288 640,640l0 3520 -640 0 0 -2880 -640 0 0 2880 -640 0 0 -4160z"/>
</svg>
