<?xml version="1.0" encoding="UTF-8"?>
<!DOCTYPE svg PUBLIC "-//W3C//DTD SVG 1.1//EN" "http://www.w3.org/Graphics/SVG/1.1/DTD/svg11.dtd">
<svg xmlns="http://www.w3.org/2000/svg" xml:space="preserve" width="1024px" height="1024px" shape-rendering="geometricPrecision" text-rendering="geometricPrecision" image-rendering="optimizeQuality" fill-rule="nonzero" clip-rule="evenodd" viewBox="0 0 10240 10240" xmlns:xlink="http://www.w3.org/1999/xlink">
	<title>utility_knife icon</title>
	<desc>utility_knife icon from the IconExperience.com O-Collection. Copyright by INCORS GmbH (www.incors.com).</desc>
	<path id="curve2" fill="#808080" d="M3294,8546 2880,8960 320,8960 2014,7266 2240,7493 1093,8640 2747,8640 3067,8320z"/>
	<path id="curve1" fill="#EDC87E" d="M2146 6494l4629 -4629c498,-498 1312,-498 1810,0l750 750c498,498 498,1312 0,1810l-960 960c-249,249 -553,375 -905,375l-220 0c-352,0 -656,126 -905,375l-585 585 -1694 1694c-124,124 -328,124 -452,0l-1468 -1468c-124,-124 -124,-328 0,-452zm5799 -4387c-249,-249 -655,-249 -905,0l-1147 1148c-227,227 -248,583 -62,834l-2951 2951 640 640 2951 -2951c251,186 607,165 834,-62l1148 -1147c249,-250 249,-656 0,-905l-508 -508z"/>
	<path id="curve0" fill="#808080" d="M7719 2333l508 508c124,124 124,328 0,452l-1148 1148c-124,124 -328,124 -452,0l-508 -508c-124,-124 -124,-328 0,-452l1148 -1148c124,-124 328,-124 452,0z"/>
</svg>
