<?xml version="1.0" encoding="UTF-8"?>
<!DOCTYPE svg PUBLIC "-//W3C//DTD SVG 1.1//EN" "http://www.w3.org/Graphics/SVG/1.1/DTD/svg11.dtd">
<svg xmlns="http://www.w3.org/2000/svg" xml:space="preserve" width="1024px" height="1024px" shape-rendering="geometricPrecision" text-rendering="geometricPrecision" image-rendering="optimizeQuality" fill-rule="nonzero" clip-rule="evenodd" viewBox="0 0 10240 10240" xmlns:xlink="http://www.w3.org/1999/xlink">
	<title>washing_powder icon</title>
	<desc>washing_powder icon from the IconExperience.com O-Collection. Copyright by INCORS GmbH (www.incors.com).</desc>
	<path id="curve1" fill="#4D82B8" d="M3994 4480c261,0 473,212 473,474 0,261 -212,473 -473,473 -262,0 -474,-212 -474,-473 0,-262 212,-474 474,-474zm-154 2240c530,0 960,430 960,960 0,530 -430,960 -960,960 -530,0 -960,-430 -960,-960 0,-530 430,-960 960,-960zm1280 -1280c353,0 640,287 640,640 0,353 -287,640 -640,640 -353,0 -640,-287 -640,-640 0,-353 287,-640 640,-640z"/>
	<path id="curve0" fill="#808080" d="M2240 2547l0 -1587c0,-176 144,-320 320,-320l4800 0c176,0 320,144 320,320l0 1416 6 -22c39,904 715,1722 776,3143 37,857 124,2857 -184,3143l-729 762c-125,131 -281,198 -462,198l-5167 0c-320,-320 -320,-2560 -320,-3520 0,-1592 640,-2521 640,-3533zm124 6413l4154 0c-51,-372 -80,-837 -96,-1301 -22,-627 -22,-1203 -22,-1579 0,-928 205,-1629 388,-2251 133,-454 252,-862 252,-1269l0 -1280 -4160 0 0 1267c0,74 -3,148 -8,221 -38,551 -215,1072 -364,1600 -162,575 -268,1111 -268,1712 0,515 2,1030 20,1545 9,247 34,924 104,1335zm1476 -7360l2240 0c176,0 320,144 320,320l0 320c0,176 -144,320 -320,320l-2240 0c-176,0 -320,-144 -320,-320l0 -320c0,-176 144,-320 320,-320z"/>
</svg>
