<?xml version="1.0" encoding="UTF-8"?>
<!DOCTYPE svg PUBLIC "-//W3C//DTD SVG 1.1//EN" "http://www.w3.org/Graphics/SVG/1.1/DTD/svg11.dtd">
<svg xmlns="http://www.w3.org/2000/svg" xml:space="preserve" width="1024px" height="1024px" shape-rendering="geometricPrecision" text-rendering="geometricPrecision" image-rendering="optimizeQuality" fill-rule="nonzero" clip-rule="evenodd" viewBox="0 0 10240 10240" xmlns:xlink="http://www.w3.org/1999/xlink">
	<title>watering_can icon</title>
	<desc>watering_can icon from the IconExperience.com O-Collection. Copyright by INCORS GmbH (www.incors.com).</desc>
	<path id="curve0" fill="#808080" d="M3200 1280c1414,0 2560,1146 2560,2560l0 1672c0,263 150,488 393,590 243,102 511,53 696,-134l1471 -1488c210,-213 600,-795 804,-1066 37,-50 95,-72 156,-62 60,11 107,52 125,112 187,620 174,1536 -39,2116 -33,90 -136,131 -222,88l-282 -141c-125,-63 -271,-70 -369,30l-2546 2576c-123,125 -276,187 -452,187l-2935 0c-352,0 -640,-287 -640,-640l0 -1623c-765,-442 -1280,-1269 -1280,-2217 0,-1414 1146,-2560 2560,-2560zm-640 2560l2208 0c99,0 185,-41 248,-117 63,-77 85,-169 66,-267 -178,-876 -953,-1536 -1882,-1536 -1060,0 -1920,860 -1920,1920 0,569 247,1079 640,1431l0 -791c0,-353 288,-640 640,-640z"/>
</svg>
