<?xml version="1.0" encoding="UTF-8"?>
<!DOCTYPE svg PUBLIC "-//W3C//DTD SVG 1.1//EN" "http://www.w3.org/Graphics/SVG/1.1/DTD/svg11.dtd">
<svg xmlns="http://www.w3.org/2000/svg" xml:space="preserve" width="1024px" height="1024px" shape-rendering="geometricPrecision" text-rendering="geometricPrecision" image-rendering="optimizeQuality" fill-rule="nonzero" clip-rule="evenodd" viewBox="0 0 10240 10240" xmlns:xlink="http://www.w3.org/1999/xlink">
	<title>wedding_rings icon</title>
	<desc>wedding_rings icon from the IconExperience.com O-Collection. Copyright by INCORS GmbH (www.incors.com).</desc>
	<path id="curve1" fill="#EDC87E" d="M6720 1920c1591,0 2880,1289 2880,2880 0,1591 -1289,2880 -2880,2880 -1591,0 -2880,-1290 -2880,-2880 0,-639 208,-1229 560,-1707 192,99 365,230 512,385 -272,370 -432,827 -432,1322 0,1237 1003,2240 2240,2240 1237,0 2240,-1003 2240,-2240 0,-1237 -1003,-2240 -2240,-2240 -276,0 -540,50 -785,141 -152,-175 -324,-334 -512,-473 390,-197 831,-308 1297,-308z"/>
	<path id="curve0" fill="#EDC87E" d="M3520 1920c795,0 1515,322 2036,844 522,521 844,1241 844,2036 0,639 -208,1229 -560,1707 -192,-99 -365,-230 -512,-384 272,-371 432,-828 432,-1323 0,-619 -251,-1179 -656,-1584 -405,-405 -965,-656 -1584,-656 -1237,0 -2240,1003 -2240,2240 0,1237 1003,2240 2240,2240 276,0 540,-50 785,-141 152,175 324,334 512,473 -390,197 -831,308 -1297,308 -1591,0 -2880,-1290 -2880,-2880 0,-1591 1289,-2880 2880,-2880z"/>
</svg>
