<?xml version="1.0" encoding="UTF-8"?>
<!DOCTYPE svg PUBLIC "-//W3C//DTD SVG 1.1//EN" "http://www.w3.org/Graphics/SVG/1.1/DTD/svg11.dtd">
<svg xmlns="http://www.w3.org/2000/svg" xml:space="preserve" width="1024px" height="1024px" shape-rendering="geometricPrecision" text-rendering="geometricPrecision" image-rendering="optimizeQuality" fill-rule="nonzero" clip-rule="evenodd" viewBox="0 0 10240 10240" xmlns:xlink="http://www.w3.org/1999/xlink">
	<title>wheel_loader icon</title>
	<desc>wheel_loader icon from the IconExperience.com O-Collection. Copyright by INCORS GmbH (www.incors.com).</desc>
	<path id="curve3" fill="#808080" d="M7040 5760c884,0 1600,716 1600,1600 0,884 -716,1600 -1600,1600 -884,0 -1600,-716 -1600,-1600 0,-884 716,-1600 1600,-1600zm-4480 0c884,0 1600,716 1600,1600 0,884 -716,1600 -1600,1600 -884,0 -1600,-716 -1600,-1600 0,-884 716,-1600 1600,-1600zm0 960c-353,0 -640,287 -640,640 0,353 287,640 640,640 353,0 640,-287 640,-640 0,-353 -287,-640 -640,-640zm4479 0c-353,0 -639,286 -639,639 0,354 286,640 639,640 354,0 640,-286 640,-640 0,-353 -286,-639 -640,-639z"/>
	<path id="curve2" fill="#808080" d="M5932 5610c-188,186 -492,185 -678,-3 -187,-189 -186,-492 3,-679l964 -956c72,-72 161,-115 255,-132l567 -111c30,-364 265,-731 811,-1004l268 -134c146,-73 324,-13 397,132l790 1580c57,115 164,177 291,177 176,0 320,144 320,320 0,176 -144,320 -320,320 -405,0 -809,0 -1214,0 -370,0 -741,-194 -999,-480l-594 116 -861 854z"/>
	<path id="curve1" fill="#EDC87E" d="M320 5120c0,-611 649,-963 1369,-1138 46,99 110,190 192,272l585 585c185,184 418,281 679,281 463,0 927,0 1390,0 98,0 193,-14 282,-41 -63,261 6,548 209,753 163,164 379,243 594,236 -311,341 -500,795 -500,1292 0,109 9,216 27,320l-694 0c18,-104 27,-211 27,-320 0,-1060 -860,-1920 -1920,-1920 -959,0 -1754,704 -1897,1623l-156 -156c-124,-124 -187,-331 -187,-507l0 -1280z"/>
	<path id="curve0" fill="#808080" d="M4535 4800c176,0 328,-63 452,-187l447 -447c198,-198 245,-488 120,-739l-897 -1793c-111,-222 -324,-354 -573,-354l-1524 0c-353,0 -640,287 -640,640 0,552 0,1104 0,1655 0,176 63,328 187,452l586 586c124,124 276,187 452,187 463,0 927,0 1390,0zm349 -1280l-2324 0 1 -1600 1523 0 800 1600z"/>
</svg>
