<?xml version="1.0" encoding="UTF-8"?>
<!DOCTYPE svg PUBLIC "-//W3C//DTD SVG 1.1//EN" "http://www.w3.org/Graphics/SVG/1.1/DTD/svg11.dtd">
<svg xmlns="http://www.w3.org/2000/svg" xml:space="preserve" width="1024px" height="1024px" shape-rendering="geometricPrecision" text-rendering="geometricPrecision" image-rendering="optimizeQuality" fill-rule="nonzero" clip-rule="evenodd" viewBox="0 0 10240 10240" xmlns:xlink="http://www.w3.org/1999/xlink">
	<title>wheelchair icon</title>
	<desc>wheelchair icon from the IconExperience.com O-Collection. Copyright by INCORS GmbH (www.incors.com).</desc>
	<path id="curve2" fill="#808080" d="M2471 2560l3929 0c177,0 320,143 320,320 0,177 -143,320 -320,320l-3837 0 99 692c-212,112 -409,247 -588,402l-431 -3014 -683 0c-177,0 -320,-143 -320,-320 0,-177 143,-320 320,-320l960 0c168,0 306,129 319,294l232 1626zm5689 5440c55,0 108,6 160,16l0 -1296c0,-176 -144,-320 -320,-320l-656 -1c-22,-220 -66,-433 -130,-638l786 -1c529,0 960,431 960,960l0 2089c-5,438 -360,791 -800,791 -440,0 -800,-358 -800,-800 0,-442 358,-800 800,-800z"/>
	<path id="curve1" fill="#808080" d="M4156 4800c1063,0 1924,861 1924,1924 0,1062 -861,1923 -1924,1923 -1062,0 -1923,-861 -1923,-1923 0,-1063 861,-1924 1923,-1924z"/>
	<path id="curve0" fill="#4D82B8" d="M4160 3840c1591,0 2880,1289 2880,2880 0,1591 -1289,2880 -2880,2880 -1591,0 -2880,-1289 -2880,-2880 0,-1591 1289,-2880 2880,-2880zm0 640c-1237,0 -2240,1003 -2240,2240 0,1237 1003,2240 2240,2240 1237,0 2240,-1003 2240,-2240 0,-1237 -1003,-2240 -2240,-2240z"/>
</svg>
