<?xml version="1.0" encoding="UTF-8"?>
<!DOCTYPE svg PUBLIC "-//W3C//DTD SVG 1.1//EN" "http://www.w3.org/Graphics/SVG/1.1/DTD/svg11.dtd">
<svg xmlns="http://www.w3.org/2000/svg" xml:space="preserve" width="1024px" height="1024px" shape-rendering="geometricPrecision" text-rendering="geometricPrecision" image-rendering="optimizeQuality" fill-rule="nonzero" clip-rule="evenodd" viewBox="0 0 10240 10240" xmlns:xlink="http://www.w3.org/1999/xlink">
	<title>window_width icon</title>
	<desc>window_width icon from the IconExperience.com O-Collection. Copyright by INCORS GmbH (www.incors.com).</desc>
	<path id="curve2" fill="#808080" d="M1280 1280l7680 0c353,0 640,288 640,640l0 6720c0,176 -144,320 -320,320l-8320 0c-176,0 -320,-144 -320,-320l0 -6720c0,-353 288,-640 640,-640zm0 1920l0 2187c-157,94 -320,158 -320,373 0,215 163,279 320,373l0 2187 7680 0 0 -2187c157,-94 320,-158 320,-373 0,-215 -163,-279 -320,-373l0 -2187 -7680 0z"/>
	<path id="curve1" fill="#4D82B8" d="M1280,5760 2880,4800 2880,6720z"/>
	<path id="curve0" fill="#4D82B8" d="M8960,5760 7360,4800 7360,6720z"/>
</svg>
