<?xml version="1.0" encoding="UTF-8"?>
<!DOCTYPE svg PUBLIC "-//W3C//DTD SVG 1.1//EN" "http://www.w3.org/Graphics/SVG/1.1/DTD/svg11.dtd">
<svg xmlns="http://www.w3.org/2000/svg" xml:space="preserve" width="1024px" height="1024px" shape-rendering="geometricPrecision" text-rendering="geometricPrecision" image-rendering="optimizeQuality" fill-rule="nonzero" clip-rule="evenodd" viewBox="0 0 10240 10240" xmlns:xlink="http://www.w3.org/1999/xlink">
	<title>window_warning icon</title>
	<desc>window_warning icon from the IconExperience.com O-Collection. Copyright by INCORS GmbH (www.incors.com).</desc>
	<path id="curve1" fill="#EDC87E" d="M5402 3859l1914 3340c59,102 59,219 0,321 -58,102 -158,160 -275,160l-3828 0c-117,0 -217,-58 -275,-160 -59,-102 -59,-219 0,-321l1914 -3340c58,-102 158,-160 275,-160 117,0 217,58 275,160zm-282 2861c-177,0 -320,143 -320,320 0,177 143,320 320,320 177,0 320,-143 320,-320 0,-177 -143,-320 -320,-320zm-160 -1600c-88,0 -160,72 -160,160l0 401c0,55 6,102 19,155l126 503c9,37 40,61 77,61l196 0c37,0 68,-25 77,-61l126 -503c13,-53 19,-100 19,-155l0 -401c0,-88 -72,-160 -160,-160l-320 0z"/>
	<path id="curve0" fill="#808080" d="M1280 1280l7680 0c353,0 640,288 640,640l0 6720c0,176 -144,320 -320,320l-8320 0c-176,0 -320,-144 -320,-320l0 -6720c0,-353 288,-640 640,-640zm0 1920l0 5120 7680 0 0 -5120 -7680 0z"/>
</svg>
