<?xml version="1.0" encoding="UTF-8"?>
<!DOCTYPE svg PUBLIC "-//W3C//DTD SVG 1.1//EN" "http://www.w3.org/Graphics/SVG/1.1/DTD/svg11.dtd">
<svg xmlns="http://www.w3.org/2000/svg" xml:space="preserve" width="1024px" height="1024px" shape-rendering="geometricPrecision" text-rendering="geometricPrecision" image-rendering="optimizeQuality" fill-rule="nonzero" clip-rule="evenodd" viewBox="0 0 10240 10240" xmlns:xlink="http://www.w3.org/1999/xlink">
	<title>wine icon</title>
	<desc>wine icon from the IconExperience.com O-Collection. Copyright by INCORS GmbH (www.incors.com).</desc>
	<path id="curve3" fill="#808080" d="M4800 2560l0 361c0,147 97,272 240,309 413,107 720,484 720,930l-320 0c-353,0 -640,287 -640,640l0 320 0 0 -1600 0 0 1920 1920 0 0 -244c158,307 373,575 640,780l0 1731c-186,66 -320,244 -320,453l0 160 -2560 0c-176,0 -320,-144 -320,-320l0 -5440c0,-446 307,-823 720,-930 143,-37 240,-162 240,-309l0 -361 1280 0zm-1600 5120l0 640 1920 0 0 -640 -1920 0z"/>
	<path id="curve2" fill="#E68497" d="M4960 480l0 320c0,88 -72,160 -160,160l0 0 0 1280 -1280 0 0 -1280 0 0c-88,0 -160,-72 -160,-160l0 -320c0,-88 72,-160 160,-160l1280 0c88,0 160,72 160,160z"/>
	<path id="curve1" fill="#EDC87E" d="M5920 9600l160 0 160 0c264,0 480,-216 480,-480l0 -1142c103,14 210,22 320,22 110,0 217,-8 320,-22l0 1142c0,264 216,480 480,480l160 0 160 0c88,0 160,72 160,160l0 160 -2560 0 0 -160c0,-88 72,-160 160,-160z"/>
	<path id="curve0" fill="#EDC87E" d="M8640 4480c-1067,0 -2133,0 -3200,0 -176,0 -320,144 -320,320l0 640c0,1092 655,2240 1920,2240 1265,0 1920,-1148 1920,-2240l0 -640c0,-176 -144,-320 -320,-320zm-2880 320c176,0 320,144 320,320l0 320c0,386 123,819 401,1070 97,87 130,216 89,339l0 1c-35,105 -115,180 -223,208 -108,28 -214,2 -296,-73 -404,-370 -611,-961 -611,-1545l0 -320c0,-176 144,-320 320,-320l0 0z"/>
</svg>
