<?xml version="1.0" encoding="UTF-8"?>
<!DOCTYPE svg PUBLIC "-//W3C//DTD SVG 1.1//EN" "http://www.w3.org/Graphics/SVG/1.1/DTD/svg11.dtd">
<svg xmlns="http://www.w3.org/2000/svg" xml:space="preserve" width="1024px" height="1024px" shape-rendering="geometricPrecision" text-rendering="geometricPrecision" image-rendering="optimizeQuality" fill-rule="nonzero" clip-rule="evenodd" viewBox="0 0 10240 10240" xmlns:xlink="http://www.w3.org/1999/xlink">
	<title>wine_bottle icon</title>
	<desc>wine_bottle icon from the IconExperience.com O-Collection. Copyright by INCORS GmbH (www.incors.com).</desc>
	<path id="curve1" fill="#808080" d="M5760 2560l0 361c0,147 97,272 240,309 413,107 720,484 720,930l0 5440c0,176 -144,320 -320,320l-2560 0c-176,0 -320,-144 -320,-320l0 -5440c0,-446 307,-823 720,-930 143,-37 240,-162 240,-309l0 -361 1280 0zm-1600 5120l0 640 1920 0 0 -640 -1920 0zm0 -2560l0 1920 1920 0 0 -1920 -1920 0z"/>
	<path id="curve0" fill="#E68497" d="M5920 480l0 320c0,88 -72,160 -160,160l0 0 0 1280 -1280 0 0 -1280 0 0c-88,0 -160,-72 -160,-160l0 -320c0,-88 72,-160 160,-160l1280 0c88,0 160,72 160,160z"/>
</svg>
