<?xml version="1.0" encoding="UTF-8"?>
<!DOCTYPE svg PUBLIC "-//W3C//DTD SVG 1.1//EN" "http://www.w3.org/Graphics/SVG/1.1/DTD/svg11.dtd">
<svg xmlns="http://www.w3.org/2000/svg" xml:space="preserve" width="1024px" height="1024px" shape-rendering="geometricPrecision" text-rendering="geometricPrecision" image-rendering="optimizeQuality" fill-rule="nonzero" clip-rule="evenodd" viewBox="0 0 10240 10240" xmlns:xlink="http://www.w3.org/1999/xlink">
	<title>woman3 icon</title>
	<desc>woman3 icon from the IconExperience.com O-Collection. Copyright by INCORS GmbH (www.incors.com).</desc>
	<path id="curve3" fill="#76A797" d="M8000 8398c0,862 -1728,1202 -2880,1202 -1152,0 -2880,-340 -2880,-1201 0,-1632 1054,-1847 1600,-2311l0 0c4,1272 961,1275 1280,2872 319,-1597 1276,-1600 1280,-2872l0 0c546,464 1600,679 1600,2310z"/>
	<path id="curve2" fill="#EFC1B4" d="M4160 6076c286,199 612,324 960,324 348,0 674,-125 960,-324l0 0 0 4c0,707 -430,1280 -960,1280 -530,0 -960,-573 -960,-1280l0 -4z"/>
	<path id="curve1" fill="#EFC1B4" d="M3386 4401c278,855 864,1679 1734,1679 870,0 1456,-824 1734,-1679 -269,-129 -454,-403 -454,-721 0,-14 0,-27 1,-41 -93,-69 -173,-154 -230,-255 -378,-137 -759,-359 -1051,-647 -292,288 -673,510 -1051,647 -57,101 -137,186 -230,255 1,14 1,27 1,41 0,318 -185,592 -454,721z"/>
	<path id="curve0" fill="#ED9A56" d="M3754 5718c-86,117 -235,217 -353,293l-10 6 -10 7 -10 6 -10 7 -10 6 -10 6 -10 7 0 0 -10 6 -10 6 -10 7 -10 6 0 0 -10 6 -10 6 0 0 -10 7 -9 6 -10 6 0 0 -10 7 -10 6 0 0 -10 6 -10 6 -10 7 -10 6 -10 6 -10 6 -9 7 -10 6 0 0 -10 6 -10 7 -10 6 -10 6 0 0 -10 7 -9 6 -10 6 -10 7 -10 6 -9 7 -10 6 -10 7 0 0 -10 6 -9 7 0 0 -10 6 -10 7 -9 7 0 0 -10 6 -10 7 0 0 -9 7 -10 6 -10 7 -9 7 -10 7 -9 7 -10 7 -9 7 -10 6 -9 8 -10 7 -9 7 -10 7 -9 7 -10 7 -9 8 -9 7 -10 7 -9 8c-9,7 -19,15 -28,23l-1 1 -1 1c-9,7 -18,14 -26,21l-4 4c-8,6 -15,12 -22,19l-9 8 -15 13 0 0 -2 2 -14 12 -1 1 -2 2 -2 2 -3 3 -2 2 -2 2c-6,5 -11,10 -16,15l-3 2 -2 2c-328,-79 -567,-323 -567,-612 0,-106 32,-206 89,-294 -135,-113 -224,-313 -224,-541 0,-200 69,-378 176,-495 -155,-106 -261,-322 -261,-570 0,-267 123,-496 297,-592 -24,-76 -37,-160 -37,-248 0,-192 63,-364 163,-481 -12,-55 -18,-114 -18,-174 0,-296 151,-545 356,-618 -23,-56 -36,-118 -36,-182 0,-265 215,-480 480,-480 57,0 111,10 162,28 -1,-9 -2,-19 -2,-28 0,-147 149,-271 351,-308 84,-193 325,-332 609,-332 144,0 277,36 384,96 160,-60 360,-96 576,-96l0 0 0 0c216,0 416,36 576,96 107,-60 240,-96 384,-96 284,0 525,139 609,332 202,37 351,161 351,308 0,9 -1,19 -2,28 51,-18 105,-28 162,-28 265,0 480,215 480,480 0,64 -13,126 -36,182 205,73 356,322 356,618 0,60 -6,119 -18,174 100,117 163,289 163,481 0,88 -13,172 -37,248 174,96 297,325 297,592 0,248 -106,464 -261,570 107,117 176,295 176,495 0,228 -89,428 -224,541 57,88 89,188 89,294 0,288 -239,532 -567,612l-2 -2 -2 -2c-6,-6 -12,-11 -18,-17l-1 0 -2 -3 -3 -2 -2 -2 -2 -2 -3 -2 -11 -11 -3 -2 -12 -11 -2 -2 0 0 -10 -8 -2 -2c-7,-6 -13,-12 -20,-18l-4 -3c-18,-16 -37,-31 -56,-46l-9 -8 -10 -7 -9 -8 -9 -7 -10 -7 -9 -7 -10 -7 -9 -8 -10 -7 -9 -7 -10 -7 -9 -7 -10 -7 -9 -6 -10 -7 -9 -7 -10 -7 0 0 -10 -7 -9 -6 -10 -7 0 0 -10 -7 -9 -6 -10 -7 0 0 -10 -6 -9 -7 0 0 -10 -6 -10 -7 -10 -6 0 0 -9 -7 -10 -6 -10 -7 -10 -6 0 0 -9 -6 -10 -7 0 0 -10 -6 -10 -6 -10 -7 -10 -6 -10 -6 0 0 -9 -7 -10 -6 -10 -6 0 0 -10 -6 0 0 -10 -7 -10 -6 0 0 -10 -6 -10 -7 0 0 -10 -6 0 0 -10 -6 -10 -6 -9 -7 -10 -6 0 0 -10 -6 0 0 -10 -6 -10 -7 0 0 -10 -6 -10 -6 -10 -7 -10 -6 -10 -6 0 0 -10 -7 -10 -6 -10 -7 -10 -6c-118,-76 -267,-176 -353,-293 73,-80 143,-166 207,-254 278,-384 471,-835 576,-1309 -23,3 -46,5 -69,5 -265,0 -480,-215 -480,-480 0,-74 17,-144 46,-206 -183,-65 -318,-193 -356,-347 -497,-152 -1013,-472 -1290,-887 -277,415 -793,735 -1290,887 -38,154 -173,282 -356,347 29,62 46,132 46,206 0,265 -215,480 -480,480 -23,0 -46,-2 -69,-5 105,474 298,925 576,1309 64,88 134,174 207,254z"/>
</svg>
