<?xml version="1.0" encoding="UTF-8"?>
<!DOCTYPE svg PUBLIC "-//W3C//DTD SVG 1.1//EN" "http://www.w3.org/Graphics/SVG/1.1/DTD/svg11.dtd">
<svg xmlns="http://www.w3.org/2000/svg" xml:space="preserve" width="1024px" height="1024px" shape-rendering="geometricPrecision" text-rendering="geometricPrecision" image-rendering="optimizeQuality" fill-rule="nonzero" clip-rule="evenodd" viewBox="0 0 10240 10240" xmlns:xlink="http://www.w3.org/1999/xlink">
	<title>woman2 icon</title>
	<desc>woman2 icon from the IconExperience.com O-Collection. Copyright by INCORS GmbH (www.incors.com).</desc>
	<path id="curve3" fill="#E68497" d="M8320 8490c0,796 -1920,1110 -3200,1110 -1280,0 -3200,-314 -3200,-1109 0,-1641 1390,-1730 1926,-2255 5,60 12,118 22,175 -139,36 -241,161 -241,310 0,177 143,320 320,320 47,0 92,-10 133,-28 29,50 60,99 94,145 -64,58 -104,143 -104,236 0,177 143,320 320,320 111,0 209,-56 266,-142 48,23 97,43 148,59 -3,16 -4,32 -4,49 0,177 143,320 320,320 177,0 320,-143 320,-320 0,-17 -1,-33 -4,-49 51,-16 100,-36 148,-59 57,86 155,142 266,142 177,0 320,-143 320,-320 0,-93 -40,-178 -104,-236 34,-46 65,-95 94,-145 41,18 86,28 133,28 177,0 320,-143 320,-320 0,-149 -102,-274 -241,-310 10,-57 17,-115 22,-175 536,525 1926,613 1926,2254zm-3200 -2090c3762,0 -3762,0 0,0z"/>
	<path id="curve2" fill="#EFC1B4" d="M6080 6076l0 4c0,707 -430,1280 -960,1280 -530,0 -960,-573 -960,-1280l0 -4c286,199 612,324 960,324 348,0 674,-125 960,-324z"/>
	<path id="curve1" fill="#EFC1B4" d="M3202 3410c38,1053 699,2670 1918,2670 993,0 1616,-1073 1833,-2040 -436,73 -961,-75 -1317,-225 -520,-219 -908,-588 -1198,-1041 -146,198 -328,366 -562,486 -235,120 -469,172 -674,150z"/>
	<path id="curve0" fill="#808080" d="M5120 320c689,0 1250,476 1279,1072 534,322 961,901 961,1808 0,700 -895,616 -1600,320 -705,-296 -1090,-898 -1319,-1421 -134,336 -336,683 -711,876 -376,193 -850,225 -850,-415 0,-722 444,-1202 966,-1232 65,-566 610,-1008 1274,-1008z"/>
</svg>
