<?xml version="1.0" encoding="UTF-8"?>
<!DOCTYPE svg PUBLIC "-//W3C//DTD SVG 1.1//EN" "http://www.w3.org/Graphics/SVG/1.1/DTD/svg11.dtd">
<svg xmlns="http://www.w3.org/2000/svg" xml:space="preserve" width="1024px" height="1024px" shape-rendering="geometricPrecision" text-rendering="geometricPrecision" image-rendering="optimizeQuality" fill-rule="nonzero" clip-rule="evenodd" viewBox="0 0 10240 10240" xmlns:xlink="http://www.w3.org/1999/xlink">
	<title>wooden_pallet_box icon</title>
	<desc>wooden_pallet_box icon from the IconExperience.com O-Collection. Copyright by INCORS GmbH (www.incors.com).</desc>
	<path id="curve1" fill="#B89A7C" d="M9920,8960 8640,8960 8640,7680 5760,7680 5760,8960 4480,8960 4480,7680 1600,7680 1600,8960 320,8960 320,7040 9920,7040z"/>
	<path id="curve0" fill="#808080" d="M2240 640l5760 0c176,0 320,144 320,320l0 5440c0,176 -144,320 -320,320l-5760 0c-176,0 -320,-144 -320,-320l0 -5440c0,-176 144,-320 320,-320zm320 640l0 4800 5120 0 0 -4800 -1920 0 0 1280 -1280 0 0 -1280 -1920 0z"/>
</svg>
