<?xml version="1.0" encoding="UTF-8"?>
<!DOCTYPE svg PUBLIC "-//W3C//DTD SVG 1.1//EN" "http://www.w3.org/Graphics/SVG/1.1/DTD/svg11.dtd">
<svg xmlns="http://www.w3.org/2000/svg" xml:space="preserve" width="1024px" height="1024px" shape-rendering="geometricPrecision" text-rendering="geometricPrecision" image-rendering="optimizeQuality" fill-rule="nonzero" clip-rule="evenodd" viewBox="0 0 10240 10240" xmlns:xlink="http://www.w3.org/1999/xlink">
	<title>airplane icon</title>
	<desc>airplane icon from the IconExperience.com O-Collection. Copyright by INCORS GmbH (www.incors.com).</desc>
	<path id="curve0" fill="#252525" d="M3840 9920l591 -3840 -1231 0c-265,0 -628,-49 -1015,-126l-809 971c-63,75 -148,115 -246,115l-490 0 455 -1364c-613,-190 -1095,-408 -1095,-556 0,-148 482,-366 1095,-556l-455 -1364 490 0c98,0 183,40 246,115l810 972c388,-78 754,-127 1022,-127l1223 0 -591 -3840 461 0c115,0 219,51 273,152l1975 3688 1771 0c707,0 1920,430 1920,960l0 0 0 0c0,530 -1213,960 -1920,960l-1771 0 -1975 3688c-54,100 -158,152 -273,152l-461 0z"/>
</svg>
