<?xml version="1.0" encoding="UTF-8"?>
<!DOCTYPE svg PUBLIC "-//W3C//DTD SVG 1.1//EN" "http://www.w3.org/Graphics/SVG/1.1/DTD/svg11.dtd">
<svg xmlns="http://www.w3.org/2000/svg" xml:space="preserve" width="1024px" height="1024px" shape-rendering="geometricPrecision" text-rendering="geometricPrecision" image-rendering="optimizeQuality" fill-rule="nonzero" clip-rule="evenodd" viewBox="0 0 10240 10240" xmlns:xlink="http://www.w3.org/1999/xlink">
	<title>arrow_mix icon</title>
	<desc>arrow_mix icon from the IconExperience.com O-Collection. Copyright by INCORS GmbH (www.incors.com).</desc>
	<path id="curve1" fill="#FAD200" d="M7551 7680c-936,0 -1634,-558 -2264,-1274 170,-198 329,-395 479,-582 30,-38 60,-75 89,-112 32,-39 65,-80 98,-122 49,-60 100,-124 153,-190 472,560 950,1000 1445,1000 34,7 312,0 372,0l-687 -687c-47,-47 -60,-113 -35,-174 26,-61 82,-100 148,-99l839 7c176,1 328,63 452,187l1187 1187c124,124 124,328 0,452l-1186 1186c-125,125 -277,189 -453,188l-839 -7c-66,-1 -122,-38 -148,-99 -25,-61 -11,-127 35,-174l687 -687c-58,0 -340,-7 -372,0zm-5952 -3061l-1186 -1186c-124,-124 -124,-328 0,-452l1186 -1187c125,-124 277,-186 453,-187l839 -7c66,-1 122,38 148,99 25,61 12,127 -35,174l-687 687 320 0c926,0 1673,657 2245,1314 -152,179 -295,356 -430,525 -30,38 -60,75 -90,112 -31,39 -64,80 -98,122 -63,79 -130,163 -201,249 -484,-580 -973,-1042 -1481,-1042l-265 0 687 687c46,47 60,113 35,174 -26,61 -82,98 -148,99l-839 7c-176,1 -328,-63 -453,-188z"/>
	<path id="curve0" fill="#252525" d="M1599 8459l-1186 -1186c-124,-124 -124,-328 0,-452l1186 -1187c125,-124 277,-186 453,-187l839 -7c66,-1 122,38 148,99 25,61 12,127 -35,174l-687 687 244 0c689,-1 1370,-845 2050,-1688 875,-1085 1749,-2169 3047,-2169l248 0 -670 -670c-47,-47 -60,-113 -35,-174 26,-61 82,-100 148,-99l839 7c176,1 328,63 452,187l1187 1187c124,124 124,328 0,452l-1186 1186c-125,125 -277,189 -453,188l-839 -7c-66,-1 -122,-38 -148,-99 -25,-61 -11,-127 35,-174l687 -687 -320 0c-745,0 -1572,1145 -1997,1672 -768,952 -1696,2168 -3045,2168l-244 0 687 687c46,47 60,113 35,174 -26,61 -82,98 -148,99l-839 7c-176,1 -328,-63 -453,-188z"/>
</svg>
