<?xml version="1.0" encoding="UTF-8"?>
<!DOCTYPE svg PUBLIC "-//W3C//DTD SVG 1.1//EN" "http://www.w3.org/Graphics/SVG/1.1/DTD/svg11.dtd">
<svg xmlns="http://www.w3.org/2000/svg" xml:space="preserve" width="1024px" height="1024px" shape-rendering="geometricPrecision" text-rendering="geometricPrecision" image-rendering="optimizeQuality" fill-rule="nonzero" clip-rule="evenodd" viewBox="0 0 10240 10240" xmlns:xlink="http://www.w3.org/1999/xlink">
	<title>arrow_loop3 icon</title>
	<desc>arrow_loop3 icon from the IconExperience.com O-Collection. Copyright by INCORS GmbH (www.incors.com).</desc>
	<path id="curve1" fill="#FAD200" d="M5790 6400l1250 0c354,0 674,-143 905,-375 232,-231 375,-551 375,-905 0,-354 -143,-674 -375,-905 -231,-232 -551,-375 -905,-375l-640 0 687 687c46,47 60,113 34,174 -25,61 -81,98 -147,99l-839 7c-176,1 -328,-63 -453,-188l-1186 -1186c-124,-124 -124,-328 0,-452l1186 -1187c125,-124 277,-186 453,-187l839 -7c65,-1 122,38 147,99 26,61 12,127 -34,174l-687 687 640 0c707,0 1347,287 1810,750 463,463 750,1103 750,1810 0,707 -287,1347 -750,1810 -463,463 -1103,750 -1810,750l-1264 0 194 -194c249,-250 249,-656 0,-905l-180 -181z"/>
	<path id="curve0" fill="#252525" d="M4558 5621l1186 1186c124,124 124,328 0,452l-1186 1187c-125,124 -277,186 -453,187l-839 7c-65,1 -122,-38 -147,-99 -26,-61 -12,-127 34,-174l687 -687 -640 0c-707,0 -1347,-287 -1810,-750 -463,-463 -750,-1103 -750,-1810 0,-707 287,-1347 750,-1810 463,-463 1103,-750 1810,-750l1264 0 -194 194c-249,250 -249,656 0,905l181 181 -1251 0c-354,0 -674,143 -905,375 -232,231 -375,551 -375,905 0,354 143,674 375,905 231,232 551,375 905,375l640 0 -687 -687c-46,-47 -60,-113 -34,-174 25,-61 81,-98 147,-99l839 -7c176,-1 328,63 453,188z"/>
</svg>
