<?xml version="1.0" encoding="UTF-8"?>
<!DOCTYPE svg PUBLIC "-//W3C//DTD SVG 1.1//EN" "http://www.w3.org/Graphics/SVG/1.1/DTD/svg11.dtd">
<svg xmlns="http://www.w3.org/2000/svg" xml:space="preserve" width="1024px" height="1024px" shape-rendering="geometricPrecision" text-rendering="geometricPrecision" image-rendering="optimizeQuality" fill-rule="nonzero" clip-rule="evenodd" viewBox="0 0 10240 10240" xmlns:xlink="http://www.w3.org/1999/xlink">
	<title>astronaut icon</title>
	<desc>astronaut icon from the IconExperience.com O-Collection. Copyright by INCORS GmbH (www.incors.com).</desc>
	<path id="curve4" fill="#252525" d="M8960 8323c0,915 -2304,1277 -3840,1277 -1536,0 -3840,-362 -3840,-1276 0,-1745 538,-2193 1547,-2893 581,598 1394,969 2293,969 899,0 1712,-371 2293,-969 1010,700 1547,1146 1547,2892zm-6176 -2075c-175,134 -343,280 -470,440 -348,440 -393,1065 -394,1606 88,117 445,259 562,299 435,151 926,237 1383,291 415,50 837,76 1255,76 418,0 840,-26 1255,-76 457,-54 948,-140 1383,-291 117,-41 474,-183 562,-299 -2,-540 -45,-1167 -393,-1606 -127,-160 -296,-306 -471,-440 -666,511 -1484,792 -2336,792 -852,0 -1669,-280 -2336,-792z"/>
	<path id="curve3" fill="#252525" d="M8091 4390c332,232 549,616 549,1050l0 1191c-89,-168 -196,-316 -320,-452l0 -739c0,-305 -143,-577 -366,-753 51,-96 96,-195 137,-297zm-6491 2244l0 -1194c0,-434 218,-818 549,-1050 41,102 86,201 137,297 -223,176 -366,448 -366,753l0 744c-124,136 -231,282 -320,450z"/>
	<path id="curve2" fill="#252525" d="M7037 8792c-104,21 -209,39 -315,55l-2 -10 0 -197 -960 0 0 -320 960 0 0 -320 -1600 0 0 -320 -1600 0 0 1157 -3 10c-106,-16 -211,-34 -316,-55l-1 -10 0 -1102c0,-176 144,-320 320,-320l1600 0c176,0 320,144 320,320l320 0 0 -320 960 0 0 320c176,0 320,144 320,320l0 782 -3 10zm-2557 -792c353,0 640,287 640,640 0,116 -31,226 -85,320 -3,3 -6,6 -9,10 -377,-4 -754,-28 -1128,-72 -3,-4 -6,-7 -9,-11 -31,-76 -49,-159 -49,-247 0,-353 287,-640 640,-640z"/>
	<path id="curve1" fill="#252525" d="M5120 320c1591,0 2880,1289 2880,2880 0,1591 -1289,2880 -2880,2880 -1591,0 -2880,-1289 -2880,-2880 0,-1591 1289,-2880 2880,-2880zm0 640c-1237,0 -2240,1003 -2240,2240 0,1237 1003,2240 2240,2240 1237,0 2240,-1003 2240,-2240 0,-1237 -1003,-2240 -2240,-2240z"/>
	<path id="curve0" fill="#FAD200" d="M6734 2432c194,240 306,525 306,832 0,848 -860,1536 -1920,1536 -1060,0 -1920,-688 -1920,-1536 0,-307 112,-592 306,-832 474,-122 1025,-192 1614,-192 589,0 1140,70 1614,192zm-2414 128c-265,0 -480,215 -480,480 0,265 215,480 480,480 265,0 480,-215 480,-480 0,-265 -215,-480 -480,-480z"/>
</svg>
