<?xml version="1.0" encoding="UTF-8"?>
<!DOCTYPE svg PUBLIC "-//W3C//DTD SVG 1.1//EN" "http://www.w3.org/Graphics/SVG/1.1/DTD/svg11.dtd">
<svg xmlns="http://www.w3.org/2000/svg" xml:space="preserve" width="1024px" height="1024px" shape-rendering="geometricPrecision" text-rendering="geometricPrecision" image-rendering="optimizeQuality" fill-rule="nonzero" clip-rule="evenodd" viewBox="0 0 10240 10240" xmlns:xlink="http://www.w3.org/1999/xlink">
	<title>axe icon</title>
	<desc>axe icon from the IconExperience.com O-Collection. Copyright by INCORS GmbH (www.incors.com).</desc>
	<path id="curve1" fill="#252525" d="M6489 4055l-4296 4806c-62,70 -145,99 -238,99 -93,0 -172,-35 -237,-101 -472,-474 -1041,-1075 -555,-1522 247,-228 946,-477 1656,-1191 148,-148 1061,-1067 1184,-1191 473,-476 710,-1190 1183,-1667l411 -413c325,366 622,765 892,1180z"/>
	<path id="curve0" fill="#FAD200" d="M7075 1370c649,604 1384,1104 2069,1500 -426,758 -1017,1352 -1770,1781 -394,-690 -891,-1429 -1491,-2082 -122,-133 -118,-339 9,-467l719 -723c127,-128 332,-132 464,-9zm2361 1664c166,91 328,176 484,254 -473,953 -1183,1667 -2130,2144 -78,-157 -162,-320 -253,-487 807,-460 1442,-1099 1899,-1911z"/>
</svg>
