<?xml version="1.0" encoding="UTF-8"?>
<!DOCTYPE svg PUBLIC "-//W3C//DTD SVG 1.1//EN" "http://www.w3.org/Graphics/SVG/1.1/DTD/svg11.dtd">
<svg xmlns="http://www.w3.org/2000/svg" xml:space="preserve" width="1024px" height="1024px" shape-rendering="geometricPrecision" text-rendering="geometricPrecision" image-rendering="optimizeQuality" fill-rule="nonzero" clip-rule="evenodd" viewBox="0 0 10240 10240" xmlns:xlink="http://www.w3.org/1999/xlink">
	<title>barrier_open icon</title>
	<desc>barrier_open icon from the IconExperience.com O-Collection. Copyright by INCORS GmbH (www.incors.com).</desc>
	<path id="curve1" fill="#FAD200" d="M1347 4691l7154 -3582c157,-79 350,-15 429,143l287 572c78,158 14,351 -143,429l-7154 3583c-157,78 -350,14 -429,-143l-287 -573c-78,-157 -14,-350 143,-429zm430 143c-158,79 -222,271 -143,429 79,158 271,222 429,143 158,-79 222,-271 143,-429 -79,-158 -271,-222 -429,-143zm5436 -2723l-286 859 1145 -573 286 -859 -1145 573zm-2003 1003l-285 859 1144 -573 286 -859 -1145 573zm-2003 1003l-285 859 1144 -573 286 -859 -1145 573z"/>
	<path id="curve0" fill="#252525" d="M640 8640l0 0 0 -4800c0,-353 287,-640 640,-640l1280 0c213,0 402,105 519,266l-1875 939c-315,158 -444,543 -286,859l287 572c158,315 543,444 859,286l1136 -569 0 3087 0 0c176,0 320,144 320,320l0 640 -3200 0 0 -640c0,-176 144,-320 320,-320z"/>
</svg>
