<?xml version="1.0" encoding="UTF-8"?>
<!DOCTYPE svg PUBLIC "-//W3C//DTD SVG 1.1//EN" "http://www.w3.org/Graphics/SVG/1.1/DTD/svg11.dtd">
<svg xmlns="http://www.w3.org/2000/svg" xml:space="preserve" width="1024px" height="1024px" shape-rendering="geometricPrecision" text-rendering="geometricPrecision" image-rendering="optimizeQuality" fill-rule="nonzero" clip-rule="evenodd" viewBox="0 0 10240 10240" xmlns:xlink="http://www.w3.org/1999/xlink">
	<title>bed icon</title>
	<desc>bed icon from the IconExperience.com O-Collection. Copyright by INCORS GmbH (www.incors.com).</desc>
	<path id="curve3" fill="#FAD200" d="M8373 5582c374,331 405,1125 -53,1138l-960 0c-210,0 -640,0 -640,-320 0,-175 24,-324 78,-450 170,83 360,130 562,130 412,0 779,-195 1013,-498z"/>
	<path id="curve2" fill="#FAD200" d="M4480 4160c542,0 1213,227 1601,680 9,308 128,589 318,805 1,17 1,34 1,51 0,512 -320,1024 -640,1024l-3520 0c-320,0 -640,-512 -640,-1024 0,-805 960,-1536 2880,-1536z"/>
	<path id="curve1" fill="#252525" d="M7360 5760c-530,0 -960,-430 -960,-960 0,-530 430,-960 960,-960 530,0 960,430 960,960 0,530 -430,960 -960,960z"/>
	<path id="curve0" fill="#252525" d="M9600 4160l0 4800 -640 0 0 -320c0,-176 -144,-320 -320,-320l-7040 0c-176,0 -320,144 -320,320l0 320 -640 0 0 -3520c0,-177 143,-320 320,-320 177,0 320,143 320,320l0 1600 7680 0 0 -2880c0,-177 143,-320 320,-320 177,0 320,143 320,320z"/>
</svg>
