<?xml version="1.0" encoding="UTF-8"?>
<!DOCTYPE svg PUBLIC "-//W3C//DTD SVG 1.1//EN" "http://www.w3.org/Graphics/SVG/1.1/DTD/svg11.dtd">
<svg xmlns="http://www.w3.org/2000/svg" xml:space="preserve" width="1024px" height="1024px" shape-rendering="geometricPrecision" text-rendering="geometricPrecision" image-rendering="optimizeQuality" fill-rule="nonzero" clip-rule="evenodd" viewBox="0 0 10240 10240" xmlns:xlink="http://www.w3.org/1999/xlink">
	<title>bible icon</title>
	<desc>bible icon from the IconExperience.com O-Collection. Copyright by INCORS GmbH (www.incors.com).</desc>
	<path id="curve1" fill="#FAD200" d="M4800,3520 4800,4800 3520,4800 3520,5440 4800,5440 4800,8640 5440,8640 5440,5440 6720,5440 6720,4800 5440,4800 5440,3520z"/>
	<path id="curve0" fill="#252525" d="M3200 9600l5440 0c177,0 320,-143 320,-320l0 -6080c0,-353 -287,-640 -640,-640l0 0c-1921,2 -3844,0 -5760,0 -353,0 -640,-287 -640,-640 0,-353 287,-640 640,-640l640 0 4800 0c177,0 320,143 320,320l0 640 0 0 0 0c246,0 470,92 640,245l0 -1205c0,-362 -287,-645 -640,-640l-5120 0c-204,0 -436,0 -640,0 -707,0 -1280,573 -1280,1280l0 6400c0,707 573,1280 1280,1280l640 0zm1280 -6400l1280 0 0 1280 1280 0 0 1280 -1280 0 0 3200 -1280 0 0 -3200 -1280 0 0 -1280 1280 0 0 -1280z"/>
</svg>
