<?xml version="1.0" encoding="UTF-8"?>
<!DOCTYPE svg PUBLIC "-//W3C//DTD SVG 1.1//EN" "http://www.w3.org/Graphics/SVG/1.1/DTD/svg11.dtd">
<svg xmlns="http://www.w3.org/2000/svg" xml:space="preserve" width="1024px" height="1024px" shape-rendering="geometricPrecision" text-rendering="geometricPrecision" image-rendering="optimizeQuality" fill-rule="nonzero" clip-rule="evenodd" viewBox="0 0 10240 10240" xmlns:xlink="http://www.w3.org/1999/xlink">
	<title>breakpoints_selection icon</title>
	<desc>breakpoints_selection icon from the IconExperience.com O-Collection. Copyright by INCORS GmbH (www.incors.com).</desc>
	<path id="curve2" fill="#FAD200" d="M4160 2240l3200 0c353,0 640,288 640,640l0 3200c0,352 -288,640 -640,640l-320 0 0 -2560c0,-529 -431,-960 -960,-960l-2560 0 0 -320c0,-353 288,-640 640,-640z"/>
	<path id="curve1" fill="#FAD200" d="M2880 3520l3200 0c353,0 640,288 640,640l0 3200c0,352 -288,640 -640,640l-3200 0c-352,0 -640,-288 -640,-640l0 -3200c0,-353 288,-640 640,-640z"/>
	<path id="curve0" fill="#252525" d="M1280 1280l640 0 0 640 -640 0 0 -640zm7040 0l640 0 0 640 -640 0 0 -640zm0 7040l640 0 0 640 -640 0 0 -640zm-1920 640l1280 0 0 -640 -1280 0 0 640zm-1920 0l1280 0 0 -640 -1280 0 0 640zm-1920 0l1280 0 0 -640 -1280 0 0 640zm-1280 -640l640 0 0 640 -640 0 0 -640zm5120 -6400l1280 0 0 -640 -1280 0 0 640zm-1920 0l1280 0 0 -640 -1280 0 0 640zm3840 2560l640 0 0 1280 -640 0 0 -1280zm0 -1920l640 0 0 1280 -640 0 0 -1280zm0 3840l640 0 0 1280 -640 0 0 -1280zm-7040 -1920l640 0 0 1280 -640 0 0 -1280zm1280 -2560l1280 0 0 -640 -1280 0 0 640zm-1280 640l640 0 0 1280 -640 0 0 -1280zm0 3840l640 0 0 1280 -640 0 0 -1280z"/>
</svg>
