<?xml version="1.0" encoding="UTF-8"?>
<!DOCTYPE svg PUBLIC "-//W3C//DTD SVG 1.1//EN" "http://www.w3.org/Graphics/SVG/1.1/DTD/svg11.dtd">
<svg xmlns="http://www.w3.org/2000/svg" xml:space="preserve" width="1024px" height="1024px" shape-rendering="geometricPrecision" text-rendering="geometricPrecision" image-rendering="optimizeQuality" fill-rule="nonzero" clip-rule="evenodd" viewBox="0 0 10240 10240" xmlns:xlink="http://www.w3.org/1999/xlink">
	<title>bullet_train icon</title>
	<desc>bullet_train icon from the IconExperience.com O-Collection. Copyright by INCORS GmbH (www.incors.com).</desc>
	<path id="curve1" fill="#252525" d="M7675 7680c-8,523 -435,945 -960,945 -525,0 -951,-422 -959,-945l1919 0zm-1920 0c-8,523 -435,945 -960,945 -525,0 -951,-422 -959,-945l1919 0zm-3515 0c0,530 -430,960 -960,960 -530,0 -960,-430 -960,-960l1920 0z"/>
	<path id="curve0" fill="#252525" d="M320 2560l5340 0c705,0 1311,251 1810,750l1865 1865c374,374 480,906 277,1395 -202,488 -653,790 -1182,790l-8110 0 0 -1600 640 0c176,0 320,-144 320,-320l0 -1280c0,-176 -144,-320 -320,-320l-640 0 0 -1280zm5760 1280c-176,0 -320,144 -320,320l0 1280c0,176 144,320 320,320l2162 0c133,0 245,-75 296,-198 51,-122 24,-255 -69,-348l-1187 -1187c-124,-124 -276,-187 -452,-187l-750 0zm-3840 0c-176,0 -320,144 -320,320l0 1280c0,176 144,320 320,320l2560 0c176,0 320,-144 320,-320l0 -1280c0,-176 -144,-320 -320,-320l-2560 0z"/>
</svg>
