<?xml version="1.0" encoding="UTF-8"?>
<!DOCTYPE svg PUBLIC "-//W3C//DTD SVG 1.1//EN" "http://www.w3.org/Graphics/SVG/1.1/DTD/svg11.dtd">
<svg xmlns="http://www.w3.org/2000/svg" xml:space="preserve" width="1024px" height="1024px" shape-rendering="geometricPrecision" text-rendering="geometricPrecision" image-rendering="optimizeQuality" fill-rule="nonzero" clip-rule="evenodd" viewBox="0 0 10240 10240" xmlns:xlink="http://www.w3.org/1999/xlink">
	<title>bus2 icon</title>
	<desc>bus2 icon from the IconExperience.com O-Collection. Copyright by INCORS GmbH (www.incors.com).</desc>
	<path id="curve1" fill="#252525" d="M2880 7040c530,0 960,430 960,960 0,530 -430,960 -960,960 -530,0 -960,-430 -960,-960 0,-530 430,-960 960,-960zm0 640c-177,0 -320,143 -320,320 0,177 143,320 320,320 177,0 320,-143 320,-320 0,-177 -143,-320 -320,-320zm4491 -9c177,0 320,144 320,320 0,177 -143,320 -320,320 -176,0 -320,-143 -320,-320 0,-176 144,-320 320,-320zm0 -640c-530,0 -960,430 -960,960 0,530 430,960 960,960 530,0 960,-430 960,-960 0,-530 -430,-960 -960,-960z"/>
	<path id="curve0" fill="#FAD200" d="M960 3840l7680 0c705,0 1280,575 1280,1280l0 1920 -320 0c-176,0 -320,144 -320,320l0 0c0,176 144,320 320,320l320 0 0 0c0,176 -144,320 -320,320l-949 0c0,-3 0,-6 0,-9 0,-707 -573,-1280 -1280,-1280 -707,0 -1280,573 -1280,1280 0,114 15,224 43,329l-2014 0c26,-102 40,-210 40,-320 0,-707 -573,-1280 -1280,-1280 -707,0 -1280,573 -1280,1280 0,110 14,218 40,320l-680 0c-353,0 -640,-287 -640,-640l0 -3200c0,-353 287,-640 640,-640zm7360 640c-176,0 -320,144 -320,320l0 1174c0,127 69,236 184,290 195,92 371,215 523,364 63,61 137,92 224,92l349 0c176,0 320,-144 320,-320l0 -1280c0,-353 -287,-640 -640,-640l-640 0zm-6720 0c-176,0 -320,144 -320,320l0 640c0,353 288,640 640,640l960 0 0 -1600 -1280 0zm1600 0l0 1600 1280 0 0 -1600 -1280 0zm1600 0l0 1600 1280 0 0 -1600 -1280 0zm1600 0l0 1600 960 0c176,0 320,-144 320,-320l0 -960c0,-176 -144,-320 -320,-320l-960 0z"/>
</svg>
