<?xml version="1.0" encoding="UTF-8"?>
<!DOCTYPE svg PUBLIC "-//W3C//DTD SVG 1.1//EN" "http://www.w3.org/Graphics/SVG/1.1/DTD/svg11.dtd">
<svg xmlns="http://www.w3.org/2000/svg" xml:space="preserve" width="1024px" height="1024px" shape-rendering="geometricPrecision" text-rendering="geometricPrecision" image-rendering="optimizeQuality" fill-rule="nonzero" clip-rule="evenodd" viewBox="0 0 10240 10240" xmlns:xlink="http://www.w3.org/1999/xlink">
	<title>cabinet2 icon</title>
	<desc>cabinet2 icon from the IconExperience.com O-Collection. Copyright by INCORS GmbH (www.incors.com).</desc>
	<path id="curve2" fill="#252525" d="M6400 4480c353,0 640,287 640,640 0,353 -287,640 -640,640 -353,0 -640,-287 -640,-640 0,-353 287,-640 640,-640zm-2560 0c353,0 640,287 640,640 0,353 -287,640 -640,640 -353,0 -640,-287 -640,-640 0,-353 287,-640 640,-640z"/>
	<path id="curve1" fill="#252525" d="M4958,1573 5278,1573 5278,7973 4958,7973z"/>
	<path id="curve0" fill="#252525" d="M1600 640l7040 0c176,0 320,144 320,320l0 8640 -1280 0c0,-353 -287,-640 -640,-640l-3840 0c-353,0 -640,287 -640,640l-1280 0 0 -8640c0,-176 144,-320 320,-320zm6720 7680l0 -7040 -6400 0 0 7040 6400 0z"/>
</svg>
