<?xml version="1.0" encoding="UTF-8"?>
<!DOCTYPE svg PUBLIC "-//W3C//DTD SVG 1.1//EN" "http://www.w3.org/Graphics/SVG/1.1/DTD/svg11.dtd">
<svg xmlns="http://www.w3.org/2000/svg" xml:space="preserve" width="1024px" height="1024px" shape-rendering="geometricPrecision" text-rendering="geometricPrecision" image-rendering="optimizeQuality" fill-rule="nonzero" clip-rule="evenodd" viewBox="0 0 10240 10240" xmlns:xlink="http://www.w3.org/1999/xlink">
	<title>cask icon</title>
	<desc>cask icon from the IconExperience.com O-Collection. Copyright by INCORS GmbH (www.incors.com).</desc>
	<path id="curve0" fill="#252525" d="M7759 1411c739,1011 1201,2442 1201,4029 0,1587 -462,3018 -1201,4029 -62,85 -153,131 -258,131l-4762 0c-105,0 -196,-46 -258,-131 -739,-1011 -1201,-2442 -1201,-4029 0,-1587 462,-3018 1201,-4029 62,-85 153,-131 258,-131l4762 0c105,0 196,46 258,131zm-5776 4989c29,214 67,428 115,640l6044 0c48,-212 86,-426 115,-640l-6274 0zm922 -4480c-138,202 -259,417 -367,640l5164 0c-108,-223 -229,-438 -367,-640l-4430 0zm-805 1912c-49,212 -87,426 -116,640l6272 0c-29,-214 -67,-428 -116,-640l-6040 0zm438 4488c108,223 229,438 367,640l4430 0c138,-202 259,-417 367,-640l-5164 0zm2582 -3520c-353,0 -640,287 -640,640 0,353 287,640 640,640 353,0 640,-287 640,-640 0,-353 -287,-640 -640,-640z"/>
</svg>
