<?xml version="1.0" encoding="UTF-8"?>
<!DOCTYPE svg PUBLIC "-//W3C//DTD SVG 1.1//EN" "http://www.w3.org/Graphics/SVG/1.1/DTD/svg11.dtd">
<svg xmlns="http://www.w3.org/2000/svg" xml:space="preserve" width="1024px" height="1024px" shape-rendering="geometricPrecision" text-rendering="geometricPrecision" image-rendering="optimizeQuality" fill-rule="nonzero" clip-rule="evenodd" viewBox="0 0 10240 10240" xmlns:xlink="http://www.w3.org/1999/xlink">
	<title>cd_case icon</title>
	<desc>cd_case icon from the IconExperience.com O-Collection. Copyright by INCORS GmbH (www.incors.com).</desc>
	<path id="curve2" fill="#FAD200" d="M5760 3840c707,0 1280,573 1280,1280 0,707 -573,1280 -1280,1280 -707,0 -1280,-573 -1280,-1280 0,-707 573,-1280 1280,-1280zm0 640c-353,0 -640,287 -640,640 0,353 287,640 640,640 353,0 640,-287 640,-640 0,-353 -287,-640 -640,-640z"/>
	<path id="curve1" fill="#FAD200" d="M5760 1920c615,0 1190,174 1677,474l-838 1363c-244,-150 -531,-237 -839,-237 -884,0 -1600,716 -1600,1600 0,224 46,437 129,630l-1471 631c-166,-387 -258,-813 -258,-1261 0,-1767 1433,-3200 3200,-3200zm1471 2570l1471 -631c166,387 258,813 258,1261 0,1767 -1433,3200 -3200,3200 -615,0 -1190,-174 -1677,-474l838 -1363c244,150 531,237 839,237 884,0 1600,-716 1600,-1600 0,-224 -46,-437 -129,-630z"/>
	<path id="curve0" fill="#252525" d="M960 1280l960 0 0 7680 -960 0c-176,0 -320,-144 -320,-320l0 -7040c0,-176 144,-320 320,-320zm1280 3840c0,-1944 1576,-3520 3520,-3520 1944,0 3520,1576 3520,3520 0,1944 -1576,3520 -3520,3520 -1944,0 -3520,-1576 -3520,-3520zm0 3840l7040 0c176,0 320,-144 320,-320l0 -7040c0,-176 -144,-320 -320,-320l-7040 0 0 7680z"/>
</svg>
