<?xml version="1.0" encoding="UTF-8"?>
<!DOCTYPE svg PUBLIC "-//W3C//DTD SVG 1.1//EN" "http://www.w3.org/Graphics/SVG/1.1/DTD/svg11.dtd">
<svg xmlns="http://www.w3.org/2000/svg" xml:space="preserve" width="1024px" height="1024px" shape-rendering="geometricPrecision" text-rendering="geometricPrecision" image-rendering="optimizeQuality" fill-rule="nonzero" clip-rule="evenodd" viewBox="0 0 10240 10240" xmlns:xlink="http://www.w3.org/1999/xlink">
	<title>central_bank_euro icon</title>
	<desc>central_bank_euro icon from the IconExperience.com O-Collection. Copyright by INCORS GmbH (www.incors.com).</desc>
	<path id="curve2" fill="#252525" d="M640,8960 9600,8960 9600,9600 640,9600z"/>
	<path id="curve1" fill="#252525" d="M8320 4480c353,0 640,288 640,640l0 3840 -3200 0 0 -1920 -1280 0 0 1920 -3200 0 0 -3840c0,-353 287,-640 640,-640l1280 0 0 0c0,-353 287,-640 640,-640l503 0c291,202 641,320 1017,320 306,0 604,-79 871,-229l163 -91 6 0c353,0 640,288 640,640l0 0 1280 0zm-2560 640c-427,0 -853,0 -1280,0l0 1280c427,0 853,0 1280,0l0 -1280zm-3840 0l0 1280 640 0 0 -1280 -640 0zm0 1920l0 1280 640 0 0 -1280 -640 0zm1280 0l0 1280 640 0 0 -1280 -640 0zm4480 -1920l0 1280 640 0 0 -1280 -640 0zm0 1920l0 1280 640 0 0 -1280 -640 0zm-1280 0l0 1280 640 0 0 -1280 -640 0zm0 -1920l0 1280 640 0 0 -1280 -640 0zm-3200 0l0 1280 640 0 0 -1280 -640 0z"/>
	<path id="curve0" fill="#FAD200" d="M3589 2400l259 0c-5,-53 -8,-106 -8,-160l-217 0 68 -320 179 0c141,-730 755,-1280 1490,-1280 246,0 478,62 683,171l-143 671c-149,-127 -337,-202 -540,-202 -383,0 -709,267 -830,640l1276 0 -69 320 -1257 0c0,55 4,108 12,160l1211 0 -69 320 -1036 0c152,287 436,480 762,480 221,0 422,-89 577,-235l137 687c-213,120 -456,188 -714,188 -681,0 -1257,-471 -1450,-1120l-390 0 69 -320z"/>
</svg>
