<?xml version="1.0" encoding="UTF-8"?>
<!DOCTYPE svg PUBLIC "-//W3C//DTD SVG 1.1//EN" "http://www.w3.org/Graphics/SVG/1.1/DTD/svg11.dtd">
<svg xmlns="http://www.w3.org/2000/svg" xml:space="preserve" width="1024px" height="1024px" shape-rendering="geometricPrecision" text-rendering="geometricPrecision" image-rendering="optimizeQuality" fill-rule="nonzero" clip-rule="evenodd" viewBox="0 0 10240 10240" xmlns:xlink="http://www.w3.org/1999/xlink">
	<title>chalk icon</title>
	<desc>chalk icon from the IconExperience.com O-Collection. Copyright by INCORS GmbH (www.incors.com).</desc>
	<path id="curve0" fill="#252525" d="M8840 2984l-5378 5377c-36,37 -75,61 -125,78l-1160 386c-83,28 -165,23 -244,-17l-568 -284c-131,-65 -199,-205 -171,-349l160 -797c13,-64 40,-116 87,-163l5815 -5815c250,-250 807,-98 1244,340 438,437 590,994 340,1244zm-7173 4457l-7 699 568 29 955 -433 5197 -5197c115,-115 126,-295 26,-424 -42,-53 -86,-103 -132,-149 -142,-142 -329,-276 -522,-337 -62,-19 -219,-53 -270,-2l-5815 5814z"/>
</svg>
