<?xml version="1.0" encoding="UTF-8"?>
<!DOCTYPE svg PUBLIC "-//W3C//DTD SVG 1.1//EN" "http://www.w3.org/Graphics/SVG/1.1/DTD/svg11.dtd">
<svg xmlns="http://www.w3.org/2000/svg" xml:space="preserve" width="1024px" height="1024px" shape-rendering="geometricPrecision" text-rendering="geometricPrecision" image-rendering="optimizeQuality" fill-rule="nonzero" clip-rule="evenodd" viewBox="0 0 10240 10240" xmlns:xlink="http://www.w3.org/1999/xlink">
	<title>chart_donut icon</title>
	<desc>chart_donut icon from the IconExperience.com O-Collection. Copyright by INCORS GmbH (www.incors.com).</desc>
	<path id="curve2" fill="#252525" d="M4800 7013l0 2575c-2325,-164 -4160,-2101 -4160,-4468 0,-1639 880,-3072 2193,-3853l1153 2304c-476,349 -786,913 -786,1549 0,951 692,1741 1600,1893z"/>
	<path id="curve1" fill="#252525" d="M7013 5440l2575 0c-156,2219 -1929,3992 -4148,4149l0 -2576c804,-135 1438,-769 1573,-1573z"/>
	<path id="curve0" fill="#FAD200" d="M5120 640c2367,0 4304,1835 4468,4160l-2575 0c-152,-908 -942,-1600 -1893,-1600 -195,0 -384,29 -562,84l-1153 -2304c528,-219 1107,-340 1715,-340z"/>
</svg>
