<?xml version="1.0" encoding="UTF-8"?>
<!DOCTYPE svg PUBLIC "-//W3C//DTD SVG 1.1//EN" "http://www.w3.org/Graphics/SVG/1.1/DTD/svg11.dtd">
<svg xmlns="http://www.w3.org/2000/svg" xml:space="preserve" width="1024px" height="1024px" shape-rendering="geometricPrecision" text-rendering="geometricPrecision" image-rendering="optimizeQuality" fill-rule="nonzero" clip-rule="evenodd" viewBox="0 0 10240 10240" xmlns:xlink="http://www.w3.org/1999/xlink">
	<title>chess_piece_king icon</title>
	<desc>chess_piece_king icon from the IconExperience.com O-Collection. Copyright by INCORS GmbH (www.incors.com).</desc>
	<path id="curve2" fill="#252525" d="M2880 8320l4480 0c176,0 320,144 320,320l0 640c0,176 -144,320 -320,320l-4480 0c-176,0 -320,-144 -320,-320l0 -640c0,-176 144,-320 320,-320z"/>
	<path id="curve1" fill="#252525" d="M4160 4160l1920 0c0,1225 320,2796 881,3435 53,61 79,130 79,211l0 194 -3840 0 0 -194c0,-81 26,-150 79,-211 561,-639 881,-2210 881,-3435z"/>
	<path id="curve0" fill="#252525" d="M4480 640l320 0 0 -320 640 0 0 320 320 0 0 640 -320 0 0 325c1020,6 1280,51 1280,635 0,288 -137,652 -316,960l316 0 0 640 -3200 0 0 -640 312 0c-177,-305 -312,-666 -312,-960 0,-582 265,-635 1280,-637l0 -323 -320 0 0 -640z"/>
</svg>
