<?xml version="1.0" encoding="UTF-8"?>
<!DOCTYPE svg PUBLIC "-//W3C//DTD SVG 1.1//EN" "http://www.w3.org/Graphics/SVG/1.1/DTD/svg11.dtd">
<svg xmlns="http://www.w3.org/2000/svg" xml:space="preserve" width="1024px" height="1024px" shape-rendering="geometricPrecision" text-rendering="geometricPrecision" image-rendering="optimizeQuality" fill-rule="nonzero" clip-rule="evenodd" viewBox="0 0 10240 10240" xmlns:xlink="http://www.w3.org/1999/xlink">
	<title>cigarette icon</title>
	<desc>cigarette icon from the IconExperience.com O-Collection. Copyright by INCORS GmbH (www.incors.com).</desc>
	<path id="curve2" fill="#252525" d="M3200 6080l2723 0 1 0 2076 0 960 0c353,0 640,501 640,1120 0,619 -287,1120 -640,1120l-960 0 -1920 0 -320 0 -2560 0 -7 0c65,-101 121,-208 168,-320l29 0 1410 0 1408 0 7 -12c17,8 36,12 54,12l1 0c177,0 320,-358 320,-800 0,-442 -143,-800 -320,-800l-1 0c-18,0 -37,4 -54,12l-7 -12 -1408 0 -1410 0 -29 0c-47,-112 -103,-219 -168,-320l7 0 0 0z"/>
	<path id="curve1" fill="#252525" d="M3200 1920c-820,-390 -1280,0 -1280,320 0,640 960,802 960,1600 0,1280 -1600,960 -960,1920 -1434,-907 0,-1280 0,-1710 0,-640 -1280,-680 -1280,-1640 0,-986 1377,-1678 2560,-490z"/>
	<path id="curve0" fill="#FAD200" d="M640 7228c0,-9 0,-19 0,-28l0 0c0,-9 0,-19 0,-28 9,-583 292,-1052 640,-1052 353,0 640,484 640,1080 0,596 -287,1080 -640,1080 -348,0 -631,-469 -640,-1052zm1243 -1148l677 0c353,0 640,501 640,1120 0,619 -287,1120 -640,1120l-677 0c218,-264 357,-668 357,-1120 0,-452 -139,-856 -357,-1120z"/>
</svg>
