<?xml version="1.0" encoding="UTF-8"?>
<!DOCTYPE svg PUBLIC "-//W3C//DTD SVG 1.1//EN" "http://www.w3.org/Graphics/SVG/1.1/DTD/svg11.dtd">
<svg xmlns="http://www.w3.org/2000/svg" xml:space="preserve" width="1024px" height="1024px" shape-rendering="geometricPrecision" text-rendering="geometricPrecision" image-rendering="optimizeQuality" fill-rule="nonzero" clip-rule="evenodd" viewBox="0 0 10240 10240" xmlns:xlink="http://www.w3.org/1999/xlink">
	<title>clapperboard icon</title>
	<desc>clapperboard icon from the IconExperience.com O-Collection. Copyright by INCORS GmbH (www.incors.com).</desc>
	<path id="curve1" fill="#252525" d="M1280 5120l7680 0 0 3840c0,353 -287,640 -640,640l-6400 0c-353,0 -640,-287 -640,-640l0 -3840zm968 -1272l-1 2 -569 0 -3 -17 437 -121 136 136zm-1288 2l0 -574 7 -1 156 567 -6 8 -157 0zm960 2550l0 320 6400 0 0 -320 -6400 0zm0 1600l0 320 6400 0 0 -320 -6400 0z"/>
	<path id="curve0" fill="#252525" d="M960 3840l152 0 -214 -779c-47,-170 54,-346 224,-393l7405 -2037c170,-47 346,54 393,223l255 926 -309 85 -174 -634 -365 -214 -1266 349 1155 678 -1201 330 -1156 -678 -1267 349 1156 678 0 0 -1201 330 -1156 -678 -1267 349 1156 678 0 0 -1594 438 1480 0 0 0 -935 960 1315 0 934 -960 0 0 1246 0 0 0 -935 960 1314 0 935 -960 0 0 1246 0 0 0 -935 960 1314 0 295 -303 0 -657 0 0 320 0 0 960c0,176 -144,320 -320,320l-7680 0c-176,0 -320,-144 -320,-320l0 -960zm555 -949c-170,47 -270,223 -224,394 47,170 223,270 394,224 170,-47 270,-223 224,-394 -47,-170 -223,-270 -394,-224zm85 1269c-177,0 -320,143 -320,320 0,177 143,320 320,320 177,0 320,-143 320,-320 0,-177 -143,-320 -320,-320z"/>
</svg>
