<?xml version="1.0" encoding="UTF-8"?>
<!DOCTYPE svg PUBLIC "-//W3C//DTD SVG 1.1//EN" "http://www.w3.org/Graphics/SVG/1.1/DTD/svg11.dtd">
<svg xmlns="http://www.w3.org/2000/svg" xml:space="preserve" width="1024px" height="1024px" shape-rendering="geometricPrecision" text-rendering="geometricPrecision" image-rendering="optimizeQuality" fill-rule="nonzero" clip-rule="evenodd" viewBox="0 0 10240 10240" xmlns:xlink="http://www.w3.org/1999/xlink">
	<title>clipboard_check_edit icon</title>
	<desc>clipboard_check_edit icon from the IconExperience.com O-Collection. Copyright by INCORS GmbH (www.incors.com).</desc>
	<path id="curve5" fill="#252525" d="M5964 7963l-756 252c-88,30 -179,8 -245,-58 -66,-66 -88,-157 -58,-245l252 -756 807 807z"/>
	<path id="curve4" fill="#252525" d="M5447 6393l2233 -2233 1280 1280 -2233 2233c-37,37 -76,61 -126,78l-648 216 0 0 -253 -253 800 -267 -827 -827 -267 800 -253 -253 0 0 216 -648c17,-50 41,-89 78,-126z"/>
	<path id="curve3" fill="#FAD200" d="M7906 3934l461 -461c124,-124 328,-124 452,0l828 828c124,124 124,328 0,452l-461 461 -1280 -1280z"/>
	<path id="curve2" fill="#252525" d="M3633 4687l414 -414c62,-62 164,-62 226,0l527 527 1487 -1487c62,-62 164,-62 226,0l414 414c62,62 62,164 0,226l-2014 2014c-62,62 -164,62 -226,0l-1054 -1054c-62,-62 -62,-164 0,-226z"/>
	<path id="curve1" fill="#FAD200" d="M2560 1920l0 7040 5120 0 0 -1787 640 -640 0 2427c0,352 -288,640 -640,640l-5120 0c-352,0 -640,-287 -640,-640l0 -6400c0,-353 288,-640 640,-640zm5120 1787l0 -1787c353,0 640,288 640,640l0 561c-65,30 -126,72 -179,126l-461 460zm-3840 -1787l2560 0 0 320 -2560 0 0 -320z"/>
	<path id="curve0" fill="#252525" d="M3840 1600c-175,0 -320,145 -320,320l0 320c0,175 145,320 320,320l2560 0c175,0 320,-145 320,-320l0 -320c0,-176 -145,-320 -320,-320l-2560 0zm2560 -640c529,0 960,431 960,960l0 320c0,529 -431,640 -960,640l-2560 0c-529,0 -960,-111 -960,-640l0 -320c0,-529 431,-960 960,-960 0,-177 573,-640 1280,-640 707,0 1280,463 1280,640zm-1280 -320c-177,0 -320,143 -320,320 0,177 143,320 320,320 177,0 320,-143 320,-320 0,-177 -143,-320 -320,-320z"/>
</svg>
