<?xml version="1.0" encoding="UTF-8"?>
<!DOCTYPE svg PUBLIC "-//W3C//DTD SVG 1.1//EN" "http://www.w3.org/Graphics/SVG/1.1/DTD/svg11.dtd">
<svg xmlns="http://www.w3.org/2000/svg" xml:space="preserve" width="1024px" height="1024px" shape-rendering="geometricPrecision" text-rendering="geometricPrecision" image-rendering="optimizeQuality" fill-rule="nonzero" clip-rule="evenodd" viewBox="0 0 10240 10240" xmlns:xlink="http://www.w3.org/1999/xlink">
	<title>clothes_pin icon</title>
	<desc>clothes_pin icon from the IconExperience.com O-Collection. Copyright by INCORS GmbH (www.incors.com).</desc>
	<path id="curve1" fill="#FAD200" d="M5256 4269c406,0 753,319 753,731 0,412 -348,731 -753,731l-2618 -11c-88,-1 -158,-74 -157,-162 2,-88 74,-158 162,-157l1983 -1c-77,-114 -123,-251 -123,-400 0,-413 346,-731 753,-731zm0 320c-230,0 -433,175 -433,411 0,237 202,411 433,411 230,0 433,-174 433,-411 0,-237 -203,-411 -433,-411z"/>
	<path id="curve0" fill="#252525" d="M1175 7576l-182 -164c-22,-19 -32,-43 -33,-71 0,-28 10,-52 30,-72l1323 -1275c32,8 66,12 101,12l1827 27 -299 287c-117,113 -284,148 -439,92 -134,-49 -286,-17 -387,81 -102,98 -134,243 -84,373 58,149 22,310 -95,423l-295 284c-386,372 -1082,373 -1467,3zm2105 -2514l4512 -4348c68,-65 161,-90 253,-64 172,50 249,246 137,390l-2377 3057c-169,-99 -360,-148 -549,-148 -271,0 -542,100 -751,302 -10,9 -20,19 -29,28 -194,202 -291,461 -291,721l-2 0c0,25 1,50 3,75l-906 -13zm424 4395c-242,-137 -405,-369 -469,-630 -62,-246 -35,-519 99,-740l211 -347c84,-137 237,-212 401,-195 143,14 281,-53 354,-172 72,-119 65,-269 -17,-382 -95,-130 -102,-295 -19,-432l318 -521 564 8c37,3 73,5 110,5 270,0 542,-100 751,-302 10,-9 19,-19 28,-29 196,-202 294,-461 294,-720 0,-259 -98,-518 -294,-721 -4,-4 -8,-8 -12,-12l2475 -2993c60,-73 151,-108 246,-90 177,32 273,217 179,371l-4867 7996c-15,24 -37,39 -65,46 -28,7 -54,2 -79,-13l-208 -127z"/>
</svg>
