<?xml version="1.0" encoding="UTF-8"?>
<!DOCTYPE svg PUBLIC "-//W3C//DTD SVG 1.1//EN" "http://www.w3.org/Graphics/SVG/1.1/DTD/svg11.dtd">
<svg xmlns="http://www.w3.org/2000/svg" xml:space="preserve" width="1024px" height="1024px" shape-rendering="geometricPrecision" text-rendering="geometricPrecision" image-rendering="optimizeQuality" fill-rule="nonzero" clip-rule="evenodd" viewBox="0 0 10240 10240" xmlns:xlink="http://www.w3.org/1999/xlink">
	<title>cocktail icon</title>
	<desc>cocktail icon from the IconExperience.com O-Collection. Copyright by INCORS GmbH (www.incors.com).</desc>
	<path id="curve2" fill="#FAD200" d="M2560 3520l1787 1842c249,249 657,249 906,0l1787 -1842 -4480 0z"/>
	<path id="curve1" fill="#FAD200" d="M7680 1280c1060,0 1920,860 1920,1920 0,1060 -860,1920 -1920,1920 -246,0 -481,-46 -697,-131l522 -521c57,8 115,12 175,12 707,0 1280,-573 1280,-1280 0,-707 -573,-1280 -1280,-1280 -325,0 -621,121 -847,320l-816 0c332,-574 952,-960 1663,-960z"/>
	<path id="curve0" fill="#252525" d="M1413 2560l6774 0c133,0 246,75 296,198 51,122 24,255 -69,348l-3107 3107c-109,138 -187,276 -187,452l0 1753c0,315 224,579 535,631l1385 231 0 320c-1493,0 -2987,0 -4480,0l0 -320 1385 -231c311,-52 535,-316 535,-631l0 -1753c0,-176 -63,-328 -187,-452l-3107 -3107c-93,-93 -120,-226 -69,-348 50,-123 163,-198 296,-198zm0 320l2708 2709c374,373 984,373 1358,0l2708 -2709c0,0 -6211,0 -6774,0z"/>
</svg>
