<?xml version="1.0" encoding="UTF-8"?>
<!DOCTYPE svg PUBLIC "-//W3C//DTD SVG 1.1//EN" "http://www.w3.org/Graphics/SVG/1.1/DTD/svg11.dtd">
<svg xmlns="http://www.w3.org/2000/svg" xml:space="preserve" width="1024px" height="1024px" shape-rendering="geometricPrecision" text-rendering="geometricPrecision" image-rendering="optimizeQuality" fill-rule="nonzero" clip-rule="evenodd" viewBox="0 0 10240 10240" xmlns:xlink="http://www.w3.org/1999/xlink">
	<title>credit_card2 icon</title>
	<desc>credit_card2 icon from the IconExperience.com O-Collection. Copyright by INCORS GmbH (www.incors.com).</desc>
	<path id="curve2" fill="#FAD200" d="M6080,6716 8640,6716 8640,7356 6080,7356z"/>
	<path id="curve1" fill="#252525" d="M6080,5436 8640,5436 8640,6076 6080,6076z"/>
	<path id="curve0" fill="#252525" d="M1280 1920l7680 0c353,0 640,288 640,640l0 5120c0,352 -288,640 -640,640l-7680 0c-352,0 -640,-288 -640,-640l0 -5120c0,-353 288,-640 640,-640zm4800 3196c-176,0 -320,144 -320,320l0 1920c0,176 144,320 320,320l2560 0c176,0 320,-144 320,-320l0 -1920c0,-176 -144,-320 -320,-320l-2560 0zm1284 -2556c-177,0 -320,144 -320,320l0 1280c0,176 143,320 320,320l1280 0c176,0 320,-144 320,-320l0 -1280c0,-176 -144,-320 -320,-320l-1280 0z"/>
</svg>
