<?xml version="1.0" encoding="UTF-8"?>
<!DOCTYPE svg PUBLIC "-//W3C//DTD SVG 1.1//EN" "http://www.w3.org/Graphics/SVG/1.1/DTD/svg11.dtd">
<svg xmlns="http://www.w3.org/2000/svg" xml:space="preserve" width="1024px" height="1024px" shape-rendering="geometricPrecision" text-rendering="geometricPrecision" image-rendering="optimizeQuality" fill-rule="nonzero" clip-rule="evenodd" viewBox="0 0 10240 10240" xmlns:xlink="http://www.w3.org/1999/xlink">
	<title>cruise_ship icon</title>
	<desc>cruise_ship icon from the IconExperience.com O-Collection. Copyright by INCORS GmbH (www.incors.com).</desc>
	<path id="curve3" fill="#FAD200" d="M1760 8300c218,394 639,660 1120,660 481,0 897,-264 1116,-654 219,394 641,654 1124,654 483,0 903,-262 1120,-659 219,393 638,659 1120,659 482,0 902,-266 1120,-660 218,394 638,660 1120,660l0 640c-410,0 -799,-130 -1120,-360 -321,230 -710,360 -1120,360 -408,0 -797,-129 -1117,-358 -321,233 -711,358 -1123,358 -411,0 -805,-124 -1126,-356 -320,228 -707,356 -1114,356 -410,0 -799,-130 -1120,-360 -321,230 -710,360 -1120,360l0 -640c482,0 902,-266 1120,-660z"/>
	<path id="curve2" fill="#252525" d="M1281 6080c614,-307 2404,-908 3679,-1239l0 3786c-286,-46 -540,-216 -684,-476 -57,-104 -159,-164 -279,-165 -119,0 -221,60 -279,163 -171,304 -489,491 -838,491 -170,0 -334,-45 -476,-127 -275,-738 -587,-1361 -1123,-2433zm5245 -315c-162,-31 -350,84 -419,258 -69,174 6,340 169,372 163,31 351,-84 420,-258 69,-174 -7,-340 -170,-372zm-2810 0c-163,32 -238,198 -169,372 69,174 257,289 419,258 163,-32 239,-198 170,-372 -69,-174 -257,-289 -420,-258zm1564 -924c1275,330 3067,932 3681,1239 -536,1071 -847,1694 -1122,2432 -143,82 -307,128 -479,128 -350,0 -670,-190 -840,-495 -58,-104 -161,-165 -281,-164 -119,0 -222,61 -279,166 -143,260 -394,433 -680,480l0 -3786z"/>
	<path id="curve1" fill="#FAD200" d="M7920,2880 8080,3520 2160,3520 2320,2880z"/>
	<path id="curve0" fill="#252525" d="M7741 2162l99 398 -5440 0 99 -398c36,-144 162,-242 311,-242l1110 0 240 -960 1920 0 240 960 1110 0c149,0 275,98 311,242zm419 1678l432 1729c-163,-64 -328,-124 -487,-182 -461,-167 -928,-322 -1396,-468 -499,-155 -1003,-303 -1510,-429 -54,-14 -102,-14 -155,0 -507,126 -1012,274 -1511,429 -468,146 -934,301 -1395,468 -160,58 -326,118 -491,183l433 -1730 6080 0z"/>
</svg>
