<?xml version="1.0" encoding="UTF-8"?>
<!DOCTYPE svg PUBLIC "-//W3C//DTD SVG 1.1//EN" "http://www.w3.org/Graphics/SVG/1.1/DTD/svg11.dtd">
<svg xmlns="http://www.w3.org/2000/svg" xml:space="preserve" width="1024px" height="1024px" shape-rendering="geometricPrecision" text-rendering="geometricPrecision" image-rendering="optimizeQuality" fill-rule="nonzero" clip-rule="evenodd" viewBox="0 0 10240 10240" xmlns:xlink="http://www.w3.org/1999/xlink">
	<title>crystal_ball icon</title>
	<desc>crystal_ball icon from the IconExperience.com O-Collection. Copyright by INCORS GmbH (www.incors.com).</desc>
	<path id="curve1" fill="#FAD200" d="M7829 9600c-2101,0 -3581,0 -5752,0 -2368,0 -514,-2560 163,-2240 677,320 1932,640 2882,640 951,0 2201,-320 2878,-640 677,-320 2536,2240 -171,2240z"/>
	<path id="curve0" fill="#252525" d="M5120 640c2121,0 3840,1719 3840,3840 0,957 -350,1832 -929,2505 -63,33 -120,63 -168,86 -734,347 -1924,609 -2741,609 -816,0 -2011,-262 -2745,-609 -48,-23 -105,-53 -168,-87 -579,-672 -929,-1547 -929,-2504 0,-2121 1719,-3840 3840,-3840zm-2127 4550c-77,-231 -113,-467 -113,-710 0,-619 251,-1179 656,-1584 405,-405 965,-656 1584,-656 243,0 479,36 710,113 167,56 347,-35 402,-202 55,-167 -35,-347 -202,-403 -292,-97 -603,-148 -910,-148 -795,0 -1515,322 -2036,844 -522,521 -844,1241 -844,2036 0,307 51,618 148,910 56,167 236,257 403,202 167,-55 258,-235 202,-402z"/>
</svg>
