<?xml version="1.0" encoding="UTF-8"?>
<!DOCTYPE svg PUBLIC "-//W3C//DTD SVG 1.1//EN" "http://www.w3.org/Graphics/SVG/1.1/DTD/svg11.dtd">
<svg xmlns="http://www.w3.org/2000/svg" xml:space="preserve" width="1024px" height="1024px" shape-rendering="geometricPrecision" text-rendering="geometricPrecision" image-rendering="optimizeQuality" fill-rule="nonzero" clip-rule="evenodd" viewBox="0 0 10240 10240" xmlns:xlink="http://www.w3.org/1999/xlink">
	<title>detergent icon</title>
	<desc>detergent icon from the IconExperience.com O-Collection. Copyright by INCORS GmbH (www.incors.com).</desc>
	<path id="curve3" fill="#252525" d="M3200 7040c0,-2240 2240,-1600 2240,-3520l0 -640 1920 0 0 960c0,960 640,960 640,1920l0 2880c0,529 -431,960 -960,960l-2880 0c-529,0 -960,-431 -960,-960l0 -1600z"/>
	<path id="curve2" fill="#FAD200" d="M5120 2880c0,388 -102,777 -305,1116 -190,316 -467,586 -832,769 -158,79 -349,15 -428,-143 -79,-157 -15,-348 143,-427 250,-125 440,-310 570,-527 141,-236 212,-511 212,-788l640 0z"/>
	<path id="curve1" fill="#FAD200" d="M2880 640l320 0 0 960 -320 0c-176,0 -320,-144 -320,-320l0 -320c0,-176 144,-320 320,-320z"/>
	<path id="curve0" fill="#FAD200" d="M3520 640l2720 0c793,0 1440,647 1440,1440l0 480 -3200 0c-176,0 -320,-144 -320,-320 0,-353 -288,-640 -640,-640l0 -960z"/>
</svg>
