<?xml version="1.0" encoding="UTF-8"?>
<!DOCTYPE svg PUBLIC "-//W3C//DTD SVG 1.1//EN" "http://www.w3.org/Graphics/SVG/1.1/DTD/svg11.dtd">
<svg xmlns="http://www.w3.org/2000/svg" xml:space="preserve" width="1024px" height="1024px" shape-rendering="geometricPrecision" text-rendering="geometricPrecision" image-rendering="optimizeQuality" fill-rule="nonzero" clip-rule="evenodd" viewBox="0 0 10240 10240" xmlns:xlink="http://www.w3.org/1999/xlink">
	<title>document_music icon</title>
	<desc>document_music icon from the IconExperience.com O-Collection. Copyright by INCORS GmbH (www.incors.com).</desc>
	<path id="curve1" fill="#252525" d="M1280 640l5230 0c352,0 656,126 905,375l1170 1170c249,249 375,553 375,905l0 6510 -7680 0 0 -8960zm5760 960l0 960 960 0 -960 -960zm-5120 -320l0 7680 6400 0 0 -5440c0,-176 -144,-320 -320,-320l-1600 0 0 -1600c0,-176 -144,-320 -320,-320l-4160 0z"/>
	<path id="curve0" fill="#FAD200" d="M3360 6840c171,-44 334,-56 480,-39l0 -2242c0,-153 103,-281 252,-313l2881 -619c98,-21 190,2 268,64 78,63 119,149 119,249l0 2916c0,485 -501,1006 -1120,1166 -619,159 -1120,-104 -1120,-588 0,-484 501,-1006 1120,-1165 172,-45 335,-56 480,-40l0 -1467 -2240 498 0 2168c0,484 -502,1006 -1120,1165 -619,160 -1120,-103 -1120,-587 0,-484 501,-1006 1120,-1166z"/>
</svg>
