<?xml version="1.0" encoding="UTF-8"?>
<!DOCTYPE svg PUBLIC "-//W3C//DTD SVG 1.1//EN" "http://www.w3.org/Graphics/SVG/1.1/DTD/svg11.dtd">
<svg xmlns="http://www.w3.org/2000/svg" xml:space="preserve" width="1024px" height="1024px" shape-rendering="geometricPrecision" text-rendering="geometricPrecision" image-rendering="optimizeQuality" fill-rule="nonzero" clip-rule="evenodd" viewBox="0 0 10240 10240" xmlns:xlink="http://www.w3.org/1999/xlink">
	<title>document_pulse icon</title>
	<desc>document_pulse icon from the IconExperience.com O-Collection. Copyright by INCORS GmbH (www.incors.com).</desc>
	<path id="curve1" fill="#252525" d="M1920 640l5230 0c352,0 656,126 905,375l1170 1170c249,249 375,553 375,905l0 6510 -7680 0 0 -8960zm640 640l0 7680 6400 0 0 -5440c0,-176 -144,-320 -320,-320l-1600 0 0 -1600c0,-176 -144,-320 -320,-320l-4160 0zm5120 320l0 960 960 0 -960 -960z"/>
	<path id="curve0" fill="#FAD200" d="M2880 5840l541 0 249 -250c94,-93 246,-93 340,0 24,25 42,53 54,83l125 251 411 -617c74,-110 223,-140 333,-67 43,29 73,68 91,113l340 681 484 -1932c32,-129 162,-207 290,-175 99,25 168,108 180,203l464 2782 347 -1218c37,-127 169,-201 297,-165 74,21 130,75 156,141l163 326 85 -86c47,-47 109,-70 170,-70l640 0 0 480 -541 0 -250 249c-18,18 -38,33 -62,45 -118,59 -262,11 -321,-107l-44 -90 -472 1649c-24,86 -96,155 -191,170 -130,22 -253,-66 -275,-197l-451 -2703 -361 1442c-16,65 -60,123 -125,156 -118,59 -262,11 -321,-107l-455 -911 -412 617c-22,33 -54,61 -92,81 -118,59 -262,11 -321,-107l-171 -343 -84 85c-44,44 -104,71 -171,71l-640 0 0 -480z"/>
</svg>
