<?xml version="1.0" encoding="UTF-8"?>
<!DOCTYPE svg PUBLIC "-//W3C//DTD SVG 1.1//EN" "http://www.w3.org/Graphics/SVG/1.1/DTD/svg11.dtd">
<svg xmlns="http://www.w3.org/2000/svg" xml:space="preserve" width="1024px" height="1024px" shape-rendering="geometricPrecision" text-rendering="geometricPrecision" image-rendering="optimizeQuality" fill-rule="nonzero" clip-rule="evenodd" viewBox="0 0 10240 10240" xmlns:xlink="http://www.w3.org/1999/xlink">
	<title>document_page_number icon</title>
	<desc>document_page_number icon from the IconExperience.com O-Collection. Copyright by INCORS GmbH (www.incors.com).</desc>
	<path id="curve1" fill="#FAD200" d="M3706 6400l240 -960 -426 0c-51,0 -94,-21 -126,-62 -31,-40 -41,-87 -29,-137l160 -640c18,-72 81,-121 155,-121l506 0 210 -839c18,-72 81,-121 155,-121l659 0c51,0 94,21 126,62 31,40 41,87 29,137l-190 761 611 0 210 -839c18,-72 81,-121 155,-121l659 0c51,0 94,21 126,62 31,40 41,87 29,137l-190 761 425 0c51,0 95,21 126,62 32,40 42,87 29,137l-160 640c-18,72 -80,121 -155,121l-505 0 -240 960 425 0c51,0 95,21 126,62 32,40 42,87 29,137l-160 640c-18,72 -80,121 -155,121l-505 0 -210 839c-18,72 -81,121 -155,121l-659 0c-51,0 -95,-21 -126,-62 -31,-40 -42,-87 -29,-137l190 -761 -611 0 -210 839c-18,72 -81,121 -155,121l-659 0c-51,0 -95,-21 -126,-62 -31,-40 -42,-87 -29,-137l190 -761 -426 0c-51,0 -94,-21 -126,-62 -31,-40 -41,-87 -29,-137l160 -640c18,-72 81,-121 155,-121l506 0zm1840 -960l-611 0 -240 960 611 0 240 -960z"/>
	<path id="curve0" fill="#252525" d="M1280 640l5230 0c352,0 656,126 905,375l1170 1170c249,249 375,553 375,905l0 6510 -7680 0 0 -8960zm640 640l0 7680 6400 0 0 -5440c0,-176 -144,-320 -320,-320l-1600 0 0 -1600c0,-176 -144,-320 -320,-320l-4160 0zm5120 320l0 960 960 0 -960 -960z"/>
</svg>
