<?xml version="1.0" encoding="UTF-8"?>
<!DOCTYPE svg PUBLIC "-//W3C//DTD SVG 1.1//EN" "http://www.w3.org/Graphics/SVG/1.1/DTD/svg11.dtd">
<svg xmlns="http://www.w3.org/2000/svg" xml:space="preserve" width="1024px" height="1024px" shape-rendering="geometricPrecision" text-rendering="geometricPrecision" image-rendering="optimizeQuality" fill-rule="nonzero" clip-rule="evenodd" viewBox="0 0 10240 10240" xmlns:xlink="http://www.w3.org/1999/xlink">
	<title>dude5 icon</title>
	<desc>dude5 icon from the IconExperience.com O-Collection. Copyright by INCORS GmbH (www.incors.com).</desc>
	<path id="curve2" fill="#252525" d="M8320 8470c0,810 -1920,1130 -3200,1130 -1280,0 -3200,-320 -3200,-1129 0,-1760 582,-2029 1663,-2835 445,281 972,444 1537,444 565,0 1092,-163 1537,-444 1082,807 1663,1074 1663,2834z"/>
	<path id="curve1" fill="#252525" d="M7658 3520c-162,1252 -1237,2219 -2538,2219 -1301,0 -2376,-967 -2538,-2219l5076 0z"/>
	<path id="curve0" fill="#FAD200" d="M5120 21c1188,0 2187,806 2476,1899l84 0c176,0 320,144 320,320l0 640c0,176 -144,320 -320,320l-5120 0c-176,0 -320,-144 -320,-320l0 -640c0,-176 144,-320 320,-320l84 0c289,-1093 1288,-1899 2476,-1899z"/>
</svg>
