<?xml version="1.0" encoding="UTF-8"?>
<!DOCTYPE svg PUBLIC "-//W3C//DTD SVG 1.1//EN" "http://www.w3.org/Graphics/SVG/1.1/DTD/svg11.dtd">
<svg xmlns="http://www.w3.org/2000/svg" xml:space="preserve" width="1024px" height="1024px" shape-rendering="geometricPrecision" text-rendering="geometricPrecision" image-rendering="optimizeQuality" fill-rule="nonzero" clip-rule="evenodd" viewBox="0 0 10240 10240" xmlns:xlink="http://www.w3.org/1999/xlink">
	<title>dug_well icon</title>
	<desc>dug_well icon from the IconExperience.com O-Collection. Copyright by INCORS GmbH (www.incors.com).</desc>
	<path id="curve3" fill="#252525" d="M960 5120l960 0 0 1280 -1280 0 0 -960c0,-176 144,-320 320,-320zm1280 0l2240 0 0 1280 -2240 0 0 -1280zm2560 0l2240 0 0 1280 -2240 0 0 -1280zm2560 0l1920 0c176,0 320,144 320,320l0 960 -2240 0 0 -1280zm2240 1600l0 1280 -960 0 0 -1280 960 0zm0 1600l0 960c0,176 -144,320 -320,320l-1920 0 0 -1280 2240 0zm-2560 1280l-2240 0 0 -1280 2240 0 0 1280zm-2560 0l-2240 0 0 -1280 2240 0 0 1280zm-2560 0l-960 0c-176,0 -320,-144 -320,-320l0 -960 1280 0 0 1280zm-1280 -1600l0 -1280 2560 0 0 1280 -2560 0zm7680 -1280c-747,0 -1493,0 -2240,0l0 1280c747,0 1493,0 2240,0l0 -1280zm-2560 0c-747,0 -1493,0 -2240,0l0 1280c747,0 1493,0 2240,0l0 -1280z"/>
	<path id="curve2" fill="#252525" d="M5920 2880c-88,0 -160,-72 -160,-160l0 -960c0,-88 72,-160 160,-160 88,0 160,72 160,160l0 960c0,88 -72,160 -160,160zm-1600 -1120c0,-88 72,-160 160,-160 88,0 160,72 160,160l0 3040 -320 0 0 -3040zm640 1120c-88,0 -160,-72 -160,-160l0 -960c0,-88 72,-160 160,-160 88,0 160,72 160,160l0 960c0,88 -72,160 -160,160zm480 0c-88,0 -160,-72 -160,-160l0 -960c0,-88 72,-160 160,-160 88,0 160,72 160,160l0 960c0,88 -72,160 -160,160z"/>
	<path id="curve1" fill="#FAD200" d="M2880 1920l1280 0 0 640 -1280 0 0 -640zm3360 0l1120 0 0 640 -1120 0 0 -640z"/>
	<path id="curve0" fill="#FAD200" d="M8320 1280c353,0 640,288 640,640l0 2880 -1280 0 0 -2880c0,-352 288,-640 640,-640zm-6400 0c353,0 640,288 640,640l0 2880 -1280 0 0 -2880c0,-352 288,-640 640,-640z"/>
</svg>
