<?xml version="1.0" encoding="UTF-8"?>
<!DOCTYPE svg PUBLIC "-//W3C//DTD SVG 1.1//EN" "http://www.w3.org/Graphics/SVG/1.1/DTD/svg11.dtd">
<svg xmlns="http://www.w3.org/2000/svg" xml:space="preserve" width="1024px" height="1024px" shape-rendering="geometricPrecision" text-rendering="geometricPrecision" image-rendering="optimizeQuality" fill-rule="nonzero" clip-rule="evenodd" viewBox="0 0 10240 10240" xmlns:xlink="http://www.w3.org/1999/xlink">
	<title>emoticon_blink icon</title>
	<desc>emoticon_blink icon from the IconExperience.com O-Collection. Copyright by INCORS GmbH (www.incors.com).</desc>
	<path id="curve2" fill="#252525" d="M7515 6720c-517,772 -1397,1280 -2395,1280 -998,0 -1878,-508 -2395,-1280 -53,-79 -67,-168 -43,-260 24,-92 81,-161 166,-204l103 -52c132,-65 285,-35 383,75 409,462 1057,761 1786,761 729,0 1377,-299 1786,-761 98,-110 251,-140 383,-75l103 52c85,42 142,112 166,204 24,92 10,181 -43,260z"/>
	<path id="curve1" fill="#252525" d="M2933 3262l1280 213c155,26 267,158 267,316l0 491c0,114 -55,212 -152,272 -97,60 -209,65 -311,14l-1280 -640c-111,-55 -177,-162 -177,-286l0 -64c0,-98 39,-181 113,-244 74,-63 164,-88 260,-72zm3627 -62c442,0 800,358 800,800 0,442 -358,800 -800,800 -442,0 -800,-358 -800,-800 0,-442 358,-800 800,-800z"/>
	<path id="curve0" fill="#FAD200" d="M5120 640c2474,0 4480,2006 4480,4480 0,2474 -2006,4480 -4480,4480 -2474,0 -4480,-2006 -4480,-4480 0,-2474 2006,-4480 4480,-4480zm0 640c-2121,0 -3840,1719 -3840,3840 0,2121 1719,3840 3840,3840 2121,0 3840,-1719 3840,-3840 0,-2121 -1719,-3840 -3840,-3840z"/>
</svg>
