<?xml version="1.0" encoding="UTF-8"?>
<!DOCTYPE svg PUBLIC "-//W3C//DTD SVG 1.1//EN" "http://www.w3.org/Graphics/SVG/1.1/DTD/svg11.dtd">
<svg xmlns="http://www.w3.org/2000/svg" xml:space="preserve" width="1024px" height="1024px" shape-rendering="geometricPrecision" text-rendering="geometricPrecision" image-rendering="optimizeQuality" fill-rule="nonzero" clip-rule="evenodd" viewBox="0 0 10240 10240" xmlns:xlink="http://www.w3.org/1999/xlink">
	<title>escalator icon</title>
	<desc>escalator icon from the IconExperience.com O-Collection. Copyright by INCORS GmbH (www.incors.com).</desc>
	<path id="curve0" fill="#252525" d="M8000 3200c884,0 1600,716 1600,1600 0,884 -716,1600 -1600,1600l-675 0c-188,0 -350,72 -476,212l-2308 2564c-251,280 -575,424 -951,424l-1350 0c-884,0 -1600,-716 -1600,-1600 0,-884 716,-1600 1600,-1600l695 0c176,0 328,-63 452,-187l2638 -2638c249,-249 553,-375 905,-375l1070 0zm0 640l-1070 0c-182,0 -323,58 -452,187l-2638 2638c-245,245 -559,375 -905,375l-695 0c-530,0 -960,430 -960,960 0,530 430,960 960,960l1350 0c194,0 346,-67 476,-212l2308 -2564c247,-275 582,-424 951,-424l675 0c530,0 960,-430 960,-960 0,-530 -430,-960 -960,-960z"/>
</svg>
