<?xml version="1.0" encoding="UTF-8"?>
<!DOCTYPE svg PUBLIC "-//W3C//DTD SVG 1.1//EN" "http://www.w3.org/Graphics/SVG/1.1/DTD/svg11.dtd">
<svg xmlns="http://www.w3.org/2000/svg" xml:space="preserve" width="1024px" height="1024px" shape-rendering="geometricPrecision" text-rendering="geometricPrecision" image-rendering="optimizeQuality" fill-rule="nonzero" clip-rule="evenodd" viewBox="0 0 10240 10240" xmlns:xlink="http://www.w3.org/1999/xlink">
	<title>explosion icon</title>
	<desc>explosion icon from the IconExperience.com O-Collection. Copyright by INCORS GmbH (www.incors.com).</desc>
	<path id="curve2" fill="#252525" d="M1806 7257l228 -114c125,-63 270,-39 369,60l157 157 226 226c63,63 138,94 227,94l309 0c124,0 231,66 286,177l160 320c47,93 47,193 0,286l-132 264c-25,51 -23,108 8,156 30,49 79,76 136,76l213 -1c-351,394 -863,642 -1433,642 -1060,0 -1920,-860 -1920,-1920 0,-498 190,-952 501,-1293l119 560c14,64 41,114 87,160l90 90c99,99 244,123 369,60z"/>
	<path id="curve1" fill="#252525" d="M3602 6638l156 -156c50,-50 122,-62 185,-30l338 169c48,23 78,65 87,117 8,53 -7,101 -45,139l-326 326c-38,38 -86,53 -139,45 -52,-9 -94,-39 -117,-87l-169 -338c-32,-63 -20,-135 30,-185zm-1682 -3824l0 -459c0,-70 43,-129 109,-151l589 -197c56,-18 113,-7 157,32 44,39 62,94 51,151l-207 1037c-12,59 -53,104 -111,122 -58,17 -117,2 -159,-40l-382 -382c-31,-31 -47,-69 -47,-113zm2152 822l209 105c48,23 78,65 87,117 8,53 -7,101 -45,139l-210 210c-47,47 -113,60 -174,35 -61,-26 -99,-82 -99,-148l0 -315c0,-57 27,-106 76,-136 48,-30 104,-33 156,-7zm2648 -1l0 -656c0,-62 33,-115 88,-143l426 -213c72,-36 159,-13 204,55l436 653c30,45 36,96 16,147 -19,50 -58,84 -110,97l-861 215c-50,13 -97,3 -137,-29 -41,-31 -62,-75 -62,-126zm-320 4249l0 -416c0,-66 39,-123 101,-148l1341 -537c43,-17 86,-16 127,3 42,20 70,52 85,95l222 668c26,76 -8,157 -79,193l-954 482c-39,20 -80,23 -122,9l-610 -197c-67,-22 -111,-82 -111,-152z"/>
	<path id="curve0" fill="#FAD200" d="M9341 8882l132 529c28,111 -2,220 -83,302 -81,82 -189,113 -301,87l-3587 -844c-80,-19 -132,-93 -122,-174 9,-82 77,-142 159,-142l3491 0c149,0 275,98 311,242zm-8492 -8066l1144 382c145,48 234,188 217,341l-33 278 -249 83c-197,66 -328,248 -328,455l0 459c0,129 49,248 141,339l249 250 -276 2347c-9,78 -73,137 -152,141 -78,3 -147,-50 -163,-127l-964 -4578c-24,-115 12,-226 100,-305 88,-78 202,-102 314,-65zm3059 18l620 310c153,76 218,258 150,415l-765 1747c-57,11 -113,32 -165,65 -143,88 -228,240 -228,408l0 315c0,31 3,62 9,92l-453 1034c-32,75 -114,113 -192,90 -78,-23 -126,-100 -112,-180l677 -4063c17,-103 77,-185 170,-232 94,-48 195,-48 289,-1zm2315 410l1450 -362c137,-35 275,21 350,141 74,120 63,269 -29,376l-757 892c-50,7 -99,22 -146,46l-426 213c-164,82 -265,246 -265,429l0 296 -2342 2755c-40,47 -99,66 -159,52 -48,-10 -88,-44 -108,-88 -22,-46 -21,-94 2,-139 798,-1597 1422,-2846 2221,-4443 43,-87 115,-144 209,-168zm2941 1281l-184 1475c-13,104 -69,188 -161,239l-3966 2231c-49,28 -105,28 -155,1 -44,-24 -72,-64 -81,-114 -8,-53 8,-102 45,-139l2114 -2114c71,16 146,15 220,-3l861 -216c153,-38 275,-145 332,-292 57,-147 39,-308 -49,-439l-165 -249 646 -646c98,-98 241,-122 366,-61 125,61 195,189 177,327zm245 3238l363 908c38,93 31,188 -18,276 -49,87 -127,142 -226,158l-1006 168 -165 -493c-42,-127 -132,-228 -253,-284 -121,-56 -256,-60 -380,-10l-1342 537c-184,73 -302,248 -302,445l0 212 -870 145c-79,13 -154,-32 -179,-108 -25,-76 9,-157 81,-193l3857 -1928c83,-42 170,-46 257,-13 87,33 149,94 183,180z"/>
</svg>
