<?xml version="1.0" encoding="UTF-8"?>
<!DOCTYPE svg PUBLIC "-//W3C//DTD SVG 1.1//EN" "http://www.w3.org/Graphics/SVG/1.1/DTD/svg11.dtd">
<svg xmlns="http://www.w3.org/2000/svg" xml:space="preserve" width="1024px" height="1024px" shape-rendering="geometricPrecision" text-rendering="geometricPrecision" image-rendering="optimizeQuality" fill-rule="nonzero" clip-rule="evenodd" viewBox="0 0 10240 10240" xmlns:xlink="http://www.w3.org/1999/xlink">
	<title>face_scan icon</title>
	<desc>face_scan icon from the IconExperience.com O-Collection. Copyright by INCORS GmbH (www.incors.com).</desc>
	<path id="curve2" fill="#252525" d="M960 640l8320 0c176,0 320,144 320,320l0 8320c0,176 -144,320 -320,320l-8320 0c-176,0 -320,-144 -320,-320l0 -8320c0,-176 144,-320 320,-320zm3840 7040l640 0 0 1280 3520 0 0 -3840 -960 0 0 -640 960 0 0 -3200 -3520 0 0 640 -640 0 0 -640 -3520 0 0 3200 960 0 0 640 -960 0 0 3840 3520 0 0 -1280z"/>
	<path id="curve1" fill="#FAD200" d="M2148 8640c263,-597 748,-893 1433,-1404 272,172 575,300 899,373l0 1031 -2332 0zm3612 -1032c322,-73 624,-201 896,-372 687,512 1171,807 1434,1404l-2330 0 0 -1032z"/>
	<path id="curve0" fill="#FAD200" d="M5118 2240c1414,0 2560,1146 2560,2560 0,1414 -1146,2560 -2560,2560 -1413,0 -2560,-1146 -2560,-2560 0,-1414 1147,-2560 2560,-2560z"/>
</svg>
