<?xml version="1.0" encoding="UTF-8"?>
<!DOCTYPE svg PUBLIC "-//W3C//DTD SVG 1.1//EN" "http://www.w3.org/Graphics/SVG/1.1/DTD/svg11.dtd">
<svg xmlns="http://www.w3.org/2000/svg" xml:space="preserve" width="1024px" height="1024px" shape-rendering="geometricPrecision" text-rendering="geometricPrecision" image-rendering="optimizeQuality" fill-rule="nonzero" clip-rule="evenodd" viewBox="0 0 10240 10240" xmlns:xlink="http://www.w3.org/1999/xlink">
	<title>floppy_disk_window icon</title>
	<desc>floppy_disk_window icon from the IconExperience.com O-Collection. Copyright by INCORS GmbH (www.incors.com).</desc>
	<path id="curve2" fill="#FAD200" d="M9600 9280c0,176 -144,320 -320,320l-5120 0c-176,0 -320,-144 -320,-320l0 -3520c0,-353 288,-640 640,-640l4480 0c352,0 640,288 640,640l0 3520zm-5121 -2880l1 2560 4480 0 -1 -2560 -4480 0z"/>
	<path id="curve1" fill="#FAD200" d="M2240,640 6080,640 6080,1280 2240,1280z"/>
	<path id="curve0" fill="#252525" d="M1280 640l640 0 0 2560c0,352 288,640 640,640l3200 0c352,0 640,-288 640,-640l0 -2560 640 0c353,0 640,288 640,640l0 3520 -3200 0c-284,0 -539,124 -715,320l-885 0c-176,0 -320,144 -320,320l0 2240 -1280 0c-352,0 -640,-287 -640,-640l0 -5760c0,-353 287,-640 640,-640z"/>
</svg>
