<?xml version="1.0" encoding="UTF-8"?>
<!DOCTYPE svg PUBLIC "-//W3C//DTD SVG 1.1//EN" "http://www.w3.org/Graphics/SVG/1.1/DTD/svg11.dtd">
<svg xmlns="http://www.w3.org/2000/svg" xml:space="preserve" width="1024px" height="1024px" shape-rendering="geometricPrecision" text-rendering="geometricPrecision" image-rendering="optimizeQuality" fill-rule="nonzero" clip-rule="evenodd" viewBox="0 0 10240 10240" xmlns:xlink="http://www.w3.org/1999/xlink">
	<title>folder3_mail icon</title>
	<desc>folder3_mail icon from the IconExperience.com O-Collection. Copyright by INCORS GmbH (www.incors.com).</desc>
	<path id="curve1" fill="#FAD200" d="M5760 3840l0 640 2927 0 -2607 1920 -320 -236 0 853 99 87c104,98 267,99 373,0l2728 -2325 0 3095 -1603 -1446 -169 158 1709 1734 -3137 0 0 640 3200 0c352,0 640,-288 640,-640l0 -3840c0,-352 -287,-640 -640,-640l-3200 0z"/>
	<path id="curve0" fill="#252525" d="M640 7350c0,401 231,743 603,891l3758 1503c102,41 208,30 298,-32 91,-61 141,-155 141,-265l0 -5927c0,-134 -77,-248 -201,-297l-4197 -1669c-246,-98 -402,-336 -402,-594 0,2130 0,4260 0,6390zm664 -6710l7336 0c176,0 320,144 320,320l0 1975c0,176 -63,328 -187,452l-133 133 -905 0c194,-194 388,-390 583,-583l2 -2c0,-552 0,-1103 0,-1655l-640 0 0 2240 -1920 0c0,-264 -157,-496 -402,-594l-4172 -1669c-144,-57 -225,-205 -195,-358 29,-151 158,-259 313,-259z"/>
</svg>
