<?xml version="1.0" encoding="UTF-8"?>
<!DOCTYPE svg PUBLIC "-//W3C//DTD SVG 1.1//EN" "http://www.w3.org/Graphics/SVG/1.1/DTD/svg11.dtd">
<svg xmlns="http://www.w3.org/2000/svg" xml:space="preserve" width="1024px" height="1024px" shape-rendering="geometricPrecision" text-rendering="geometricPrecision" image-rendering="optimizeQuality" fill-rule="nonzero" clip-rule="evenodd" viewBox="0 0 10240 10240" xmlns:xlink="http://www.w3.org/1999/xlink">
	<title>formula icon</title>
	<desc>formula icon from the IconExperience.com O-Collection. Copyright by INCORS GmbH (www.incors.com).</desc>
	<path id="curve1" fill="#252525" d="M9600,4160 8320,4160 7680,5040 7040,4160 5760,4160 7040,5920 5760,7680 7040,7680 7680,6800 8320,7680 9600,7680 8320,5920z"/>
	<path id="curve0" fill="#FAD200" d="M640 6400l0 -1280 1280 0c272,0 504,170 597,409l533 1066 1458 -4858c82,-277 337,-456 612,-456l4480 -1 0 1280 -4005 0 -1783 5943 -1 -1c-49,163 -162,306 -326,388 -315,157 -698,30 -855,-285l-1103 -2205 -887 0z"/>
</svg>
