<?xml version="1.0" encoding="UTF-8"?>
<!DOCTYPE svg PUBLIC "-//W3C//DTD SVG 1.1//EN" "http://www.w3.org/Graphics/SVG/1.1/DTD/svg11.dtd">
<svg xmlns="http://www.w3.org/2000/svg" xml:space="preserve" width="1024px" height="1024px" shape-rendering="geometricPrecision" text-rendering="geometricPrecision" image-rendering="optimizeQuality" fill-rule="nonzero" clip-rule="evenodd" viewBox="0 0 10240 10240" xmlns:xlink="http://www.w3.org/1999/xlink">
	<title>server_id_card icon</title>
	<desc>server_id_card icon from the IconExperience.com O-Collection. Copyright by INCORS GmbH (www.incors.com).</desc>
	<path id="curve6" fill="#FAD200" d="M6838 8960c36,-405 215,-497 517,-723 140,89 307,140 485,140 178,0 345,-51 485,-140 303,226 481,318 517,723l-2004 0z"/>
	<path id="curve5" fill="#FAD200" d="M7840 6753c395,0 716,321 716,716 0,395 -321,715 -716,715 -395,0 -716,-320 -716,-715 0,-395 321,-716 716,-716z"/>
	<path id="curve4" fill="#252525" d="M3840 4480l5120 0c353,0 640,288 640,640l0 3840c0,352 -288,640 -640,640l-5120 0c-352,0 -640,-288 -640,-640l0 -3840c0,-353 287,-640 640,-640zm0 2560l0 320 1280 0 0 -320 -1280 0zm0 -640l0 320 2240 0 0 -320 -2240 0zm0 -1280l0 640 5120 0 0 -640 -5120 0zm2880 1280l0 2560 2240 0 0 -2560 -2240 0z"/>
	<path id="curve3" fill="#FAD200" d="M1600,5440 2880,5440 2880,6080 1600,6080z"/>
	<path id="curve2" fill="#FAD200" d="M1600 3840l2560 0 0 320 -320 0c-284,0 -539,124 -715,320l-1525 0 0 -640z"/>
	<path id="curve1" fill="#FAD200" d="M1600,2240 4160,2240 4160,2880 1600,2880z"/>
	<path id="curve0" fill="#252525" d="M960 640l3840 0c176,0 320,144 320,320l0 3200 -640 0 0 -640 -3200 0 0 1280 1655 0c-36,100 -55,208 -55,320l0 0 -1600 0 0 1280 1600 0 0 640 -2240 0 0 -6080c0,-176 144,-320 320,-320zm3200 320c-177,0 -320,143 -320,320 0,177 143,320 320,320 177,0 320,-143 320,-320 0,-177 -143,-320 -320,-320zm-2880 960l0 1280 3200 0 0 -1280 -3200 0z"/>
</svg>
