<?xml version="1.0" encoding="UTF-8"?>
<!DOCTYPE svg PUBLIC "-//W3C//DTD SVG 1.1//EN" "http://www.w3.org/Graphics/SVG/1.1/DTD/svg11.dtd">
<svg xmlns="http://www.w3.org/2000/svg" xml:space="preserve" width="1024px" height="1024px" shape-rendering="geometricPrecision" text-rendering="geometricPrecision" image-rendering="optimizeQuality" fill-rule="nonzero" clip-rule="evenodd" viewBox="0 0 10240 10240" xmlns:xlink="http://www.w3.org/1999/xlink">
	<title>server_network icon</title>
	<desc>server_network icon from the IconExperience.com O-Collection. Copyright by INCORS GmbH (www.incors.com).</desc>
	<path id="curve4" fill="#FAD200" d="M5440 8640c176,0 320,144 320,320l1280 0 0 640 -1280 0c0,176 -144,320 -320,320l-640 0c-176,0 -320,-144 -320,-320l-1280 0 0 -640 1280 0c0,-176 144,-320 320,-320l0 -640 640 0 0 640z"/>
	<path id="curve3" fill="#FAD200" d="M3520,6090 6720,6090 6720,7050 3520,7050z"/>
	<path id="curve2" fill="#FAD200" d="M3520,4170 6720,4170 6720,5130 3520,5130z"/>
	<path id="curve1" fill="#FAD200" d="M3520,2240 6720,2240 6720,3200 3520,3200z"/>
	<path id="curve0" fill="#252525" d="M7680 960l0 6720 -5120 0 0 -6720c0,-176 144,-320 320,-320l4480 0c176,0 320,144 320,320zm-4480 4800l0 1600 3840 0 0 -1600 -3840 0zm0 -1920l0 1600 3840 0 0 -1600 -3840 0zm0 -1920l0 1600 3840 0 0 -1600 -3840 0zm3520 -960c-177,0 -320,143 -320,320 0,177 143,320 320,320 177,0 320,-143 320,-320 0,-177 -143,-320 -320,-320z"/>
</svg>
