<?xml version="1.0" encoding="UTF-8"?>
<!DOCTYPE svg PUBLIC "-//W3C//DTD SVG 1.1//EN" "http://www.w3.org/Graphics/SVG/1.1/DTD/svg11.dtd">
<svg xmlns="http://www.w3.org/2000/svg" xml:space="preserve" width="1024px" height="1024px" shape-rendering="geometricPrecision" text-rendering="geometricPrecision" image-rendering="optimizeQuality" fill-rule="nonzero" clip-rule="evenodd" viewBox="0 0 10240 10240" xmlns:xlink="http://www.w3.org/1999/xlink">
	<title>shield icon</title>
	<desc>shield icon from the IconExperience.com O-Collection. Copyright by INCORS GmbH (www.incors.com).</desc>
	<path id="curve1" fill="#252525" d="M1652 1109c794,-10 1512,-129 2286,-273 375,-69 749,-138 1127,-189 51,-6 59,-6 110,0 378,51 752,120 1127,189 774,144 1492,263 2286,273l371 5c0,1224 30,2470 -104,3689 -93,844 -280,1679 -735,2427 -637,1048 -1690,1732 -2823,2284l-177 86 -177 -86c-1133,-552 -2186,-1236 -2823,-2284 -455,-748 -642,-1583 -735,-2427 -134,-1219 -104,-2465 -104,-3689l371 -5zm267 633c-4,998 -6,2000 103,2991 83,756 245,1508 645,2165 557,917 1510,1522 2453,1990 943,-468 1896,-1073 2453,-1990 400,-657 562,-1409 645,-2165 109,-991 107,-1993 103,-2991 -723,-30 -1420,-144 -2135,-276 -355,-66 -709,-131 -1066,-180 -357,49 -711,114 -1066,180 -715,132 -1412,246 -2135,276z"/>
	<path id="curve0" fill="#FAD200" d="M2557 2338c1,776 16,1554 101,2325 72,656 208,1331 555,1903 432,710 1173,1214 1907,1603 734,-389 1475,-893 1907,-1603 347,-572 483,-1247 555,-1903 85,-771 100,-1549 101,-2325 -542,-54 -1077,-143 -1614,-243 -316,-59 -631,-117 -949,-163 -318,46 -633,104 -949,163 -537,100 -1072,189 -1614,243z"/>
</svg>
