<?xml version="1.0" encoding="UTF-8"?>
<!DOCTYPE svg PUBLIC "-//W3C//DTD SVG 1.1//EN" "http://www.w3.org/Graphics/SVG/1.1/DTD/svg11.dtd">
<svg xmlns="http://www.w3.org/2000/svg" xml:space="preserve" width="1024px" height="1024px" shape-rendering="geometricPrecision" text-rendering="geometricPrecision" image-rendering="optimizeQuality" fill-rule="nonzero" clip-rule="evenodd" viewBox="0 0 10240 10240" xmlns:xlink="http://www.w3.org/1999/xlink">
	<title>skin_tiger icon</title>
	<desc>skin_tiger icon from the IconExperience.com O-Collection. Copyright by INCORS GmbH (www.incors.com).</desc>
	<path id="curve1" fill="#252525" d="M3248 2782c619,-127 1163,-266 1644,-449 153,-59 303,-59 456,0 481,183 1025,323 1644,449 47,9 79,44 75,83 -3,39 -40,70 -88,74 -602,53 -1206,51 -1754,-40 -73,-12 -137,-12 -210,0 -548,91 -1152,93 -1754,40 -48,-4 -85,-35 -88,-74 -4,-39 28,-74 75,-83zm2826 -953c-225,-91 -430,-189 -618,-304 -211,-131 -461,-131 -672,0 -188,115 -393,213 -618,304 -38,15 -59,47 -54,81 5,35 35,61 77,69 265,46 530,51 776,-10 107,-27 203,-27 310,0 246,61 511,56 776,10 42,-8 72,-34 77,-69 5,-34 -16,-66 -54,-81zm1843 1911c-1000,-136 -1869,-288 -2630,-493 -114,-31 -220,-31 -334,0 -761,205 -1630,357 -2630,493 -50,7 -85,42 -83,83 3,41 42,73 92,76 932,54 1869,51 2712,-50 53,-6 99,-6 152,0 843,101 1780,104 2712,50 50,-3 89,-35 92,-76 2,-41 -33,-76 -83,-83zm-308 961c-875,-134 -1637,-283 -2305,-484 -125,-37 -243,-37 -368,0 -668,201 -1430,350 -2305,484 -49,7 -83,42 -80,82 2,41 41,73 91,76 822,54 1649,51 2394,-47 59,-8 109,-8 168,0 745,98 1572,101 2394,47 50,-3 89,-35 91,-76 3,-40 -31,-75 -80,-82zm-617 1921c-619,-126 -1163,-266 -1644,-449 -153,-59 -303,-59 -456,0 -481,183 -1025,323 -1644,449 -47,9 -79,44 -75,83 3,39 40,70 88,74 602,53 1206,51 1754,-40 73,-12 137,-12 210,0 548,91 1152,93 1754,40 48,-4 85,-35 88,-74 4,-39 -28,-74 -75,-83zm308 -961c-748,-131 -1401,-276 -1976,-469 -138,-46 -270,-46 -408,0 -575,193 -1228,338 -1976,469 -49,8 -81,43 -78,83 3,40 40,71 89,75 713,53 1429,51 2075,-44 66,-10 122,-10 188,0 646,95 1362,97 2075,44 49,-4 86,-35 89,-75 3,-40 -29,-75 -78,-83zm309 1920c-875,-134 -1637,-283 -2305,-484 -125,-37 -243,-37 -368,0 -668,201 -1430,350 -2305,484 -49,7 -83,42 -80,82 2,41 41,73 91,76 822,54 1649,51 2394,-47 59,-8 109,-8 168,0 745,98 1572,101 2394,47 50,-3 89,-35 91,-76 3,-40 -31,-75 -80,-82z"/>
	<path id="curve0" fill="#252525" d="M6486 797c316,536 878,1035 1878,1113 154,11 275,127 293,280 61,507 286,1113 675,1465 128,115 142,311 31,443 -958,1138 -964,2481 -19,3621 60,73 84,158 70,251 -14,93 -61,168 -139,220 -443,294 -858,719 -1137,1164 -84,136 -253,188 -399,124 -629,-275 -1503,-518 -2619,-518 -1116,0 -1990,243 -2619,518 -146,64 -315,12 -399,-124 -279,-445 -694,-870 -1137,-1164 -78,-52 -125,-127 -139,-220 -14,-93 10,-178 70,-251 945,-1140 939,-2483 -19,-3621 -110,-132 -97,-328 31,-443 389,-352 614,-958 675,-1465 18,-153 139,-269 293,-280 1000,-78 1562,-577 1878,-1113 60,-100 160,-157 276,-157l2180 0c116,0 216,57 276,157zm1574 1722c-838,-124 -1548,-526 -2027,-1239l-1826 0c-479,713 -1189,1115 -2027,1239 -98,498 -313,1005 -636,1392 911,1241 928,2697 52,3946 337,265 648,588 897,932 834,-323 1732,-469 2627,-469 895,0 1793,146 2627,469 249,-344 560,-667 897,-932 -876,-1249 -859,-2705 52,-3946 -323,-387 -538,-894 -636,-1392z"/>
</svg>
