<?xml version="1.0" encoding="UTF-8"?>
<!DOCTYPE svg PUBLIC "-//W3C//DTD SVG 1.1//EN" "http://www.w3.org/Graphics/SVG/1.1/DTD/svg11.dtd">
<svg xmlns="http://www.w3.org/2000/svg" xml:space="preserve" width="1024px" height="1024px" shape-rendering="geometricPrecision" text-rendering="geometricPrecision" image-rendering="optimizeQuality" fill-rule="nonzero" clip-rule="evenodd" viewBox="0 0 10240 10240" xmlns:xlink="http://www.w3.org/1999/xlink">
	<title>smartphone_cloud icon</title>
	<desc>smartphone_cloud icon from the IconExperience.com O-Collection. Copyright by INCORS GmbH (www.incors.com).</desc>
	<path id="curve1" fill="#FAD200" d="M9253 2852c408,293 667,771 667,1300 0,883 -716,1598 -1599,1600l-3521 7 0 -640 3520 -7c530,-1 960,-430 960,-960 0,-467 -333,-856 -775,-942 73,-148 113,-314 113,-490 0,-619 -501,-1120 -1120,-1120 -344,0 -651,155 -857,399 -173,-600 -727,-1039 -1383,-1039 -795,0 -1440,645 -1440,1440 0,67 5,133 14,197 -211,52 -401,148 -556,283l-814 0c169,-300 419,-547 729,-717 118,-1037 999,-1843 2067,-1843 636,0 1220,289 1606,758 200,-77 414,-118 634,-118 972,0 1760,788 1760,1760 0,44 -2,88 -5,132z"/>
	<path id="curve0" fill="#252525" d="M1280 3200l2560 0c353,0 640,288 640,640l0 5120c0,352 -288,640 -640,640l-2560 0c-352,0 -640,-288 -640,-640l0 -5120c0,-353 288,-640 640,-640zm1280 5120c-265,0 -480,215 -480,480 0,265 215,480 480,480 265,0 480,-215 480,-480 0,-265 -215,-480 -480,-480zm-1280 -3840l0 3520 2560 0 0 -3520 -2560 0zm960 -960c-176,0 -320,144 -320,320 0,176 144,320 320,320l640 0c176,0 320,-144 320,-320 0,-176 -144,-320 -320,-320l-640 0z"/>
</svg>
