<?xml version="1.0" encoding="UTF-8"?>
<!DOCTYPE svg PUBLIC "-//W3C//DTD SVG 1.1//EN" "http://www.w3.org/Graphics/SVG/1.1/DTD/svg11.dtd">
<svg xmlns="http://www.w3.org/2000/svg" xml:space="preserve" width="1024px" height="1024px" shape-rendering="geometricPrecision" text-rendering="geometricPrecision" image-rendering="optimizeQuality" fill-rule="nonzero" clip-rule="evenodd" viewBox="0 0 10240 10240" xmlns:xlink="http://www.w3.org/1999/xlink">
	<title>sort_az_descending icon</title>
	<desc>sort_az_descending icon from the IconExperience.com O-Collection. Copyright by INCORS GmbH (www.incors.com).</desc>
	<path id="curve2" fill="#FAD200" d="M6400 8320c0,0 79,-211 94,-226l1694 -1694 -1788 0 0 -640 2560 0 0 640c0,82 -31,164 -94,226l-1693 1694 1787 0 0 640 -2560 0 0 -640z"/>
	<path id="curve1" fill="#FAD200" d="M7054 3840l1252 0c-40,-444 -164,-874 -347,-1280l-558 0c-183,406 -307,836 -347,1280zm1266 640l-1280 0 0 640 -640 0 0 0 0 0 0 -960c0,-726 192,-1416 515,-2063 56,-111 168,-176 285,-176l960 0c117,0 229,65 285,176 323,647 515,1337 515,2063l0 960 -640 0 0 -640z"/>
	<path id="curve0" fill="#252525" d="M5253 7493l-1827 1826c-124,124 -328,124 -452,0l-1827 -1826c-124,-125 -187,-277 -187,-453l0 -1159c0,-142 172,-214 273,-113l1327 1327 0 -5495c0,-176 144,-320 320,-320l640 0c176,0 320,144 320,320l0 5495 1327 -1327c101,-101 273,-29 273,113l0 1159c0,176 -63,328 -187,453z"/>
</svg>
