<?xml version="1.0" encoding="UTF-8"?>
<!DOCTYPE svg PUBLIC "-//W3C//DTD SVG 1.1//EN" "http://www.w3.org/Graphics/SVG/1.1/DTD/svg11.dtd">
<svg xmlns="http://www.w3.org/2000/svg" xml:space="preserve" width="1024px" height="1024px" shape-rendering="geometricPrecision" text-rendering="geometricPrecision" image-rendering="optimizeQuality" fill-rule="nonzero" clip-rule="evenodd" viewBox="0 0 10240 10240" xmlns:xlink="http://www.w3.org/1999/xlink">
	<title>sort_descending icon</title>
	<desc>sort_descending icon from the IconExperience.com O-Collection. Copyright by INCORS GmbH (www.incors.com).</desc>
	<path id="curve1" fill="#FAD200" d="M5760 2560l3200 0 0 -1280 -3200 0 0 1280zm1920 5760l1280 0 0 -1280 -1280 0 0 1280zm-640 -1920l1920 0 0 -1280 -1920 0 0 1280zm-640 -1920l2560 0 0 -1280 -2560 0 0 1280z"/>
	<path id="curve0" fill="#252525" d="M5253 7493l-1827 1826c-124,124 -328,124 -452,0l-1827 -1826c-124,-125 -187,-277 -187,-453l0 -1159c0,-142 172,-214 273,-113l1327 1327 0 -5495c0,-176 144,-320 320,-320l640 0c176,0 320,144 320,320l0 5495 1327 -1327c101,-101 273,-29 273,113l0 1159c0,176 -63,328 -187,453z"/>
</svg>
