<?xml version="1.0" encoding="UTF-8"?>
<!DOCTYPE svg PUBLIC "-//W3C//DTD SVG 1.1//EN" "http://www.w3.org/Graphics/SVG/1.1/DTD/svg11.dtd">
<svg xmlns="http://www.w3.org/2000/svg" xml:space="preserve" width="1024px" height="1024px" shape-rendering="geometricPrecision" text-rendering="geometricPrecision" image-rendering="optimizeQuality" fill-rule="nonzero" clip-rule="evenodd" viewBox="0 0 10240 10240" xmlns:xlink="http://www.w3.org/1999/xlink">
	<title>spellcheck2 icon</title>
	<desc>spellcheck2 icon from the IconExperience.com O-Collection. Copyright by INCORS GmbH (www.incors.com).</desc>
	<path id="curve3" fill="#FAD200" d="M640 6401c354,0 683,166 895,447 91,121 232,190 385,190 320,0 387,-247 607,-413 199,-149 437,-224 673,-224 238,0 483,81 674,225 124,94 332,412 606,412 320,0 387,-247 607,-413 199,-149 437,-224 673,-224 236,0 474,75 673,224 220,166 287,413 607,413 320,0 387,-247 607,-413 199,-149 437,-224 673,-224 354,0 683,166 895,447 91,121 232,190 385,190l0 640c-228,0 -453,-76 -652,-210 -232,-156 -284,-427 -628,-427 -320,0 -387,247 -607,412 -199,150 -437,225 -673,225 -236,0 -474,-75 -673,-225 -220,-165 -287,-412 -607,-412 -320,0 -387,247 -607,412 -199,150 -437,225 -673,225 -236,0 -474,-75 -673,-225 -223,-168 -288,-412 -607,-412 -320,0 -387,247 -607,412 -199,150 -437,225 -673,225 -228,0 -453,-76 -652,-210 -244,-164 -277,-427 -628,-427l0 -640z"/>
	<path id="curve2" fill="#252525" d="M7680 2560l1280 0c353,0 640,287 640,640l0 160 -640 0 0 0c0,-88 -72,-160 -160,-160l-960 0c-88,0 -160,72 -160,160 0,533 0,1067 0,1600 0,88 72,160 160,160l960 0c88,0 160,-72 160,-160l0 0 640 0 0 160c0,353 -287,640 -640,640l-1280 0c-352,0 -640,-287 -640,-640l0 -1920c0,-353 288,-640 640,-640z"/>
	<path id="curve1" fill="#252525" d="M5440 2560c530,0 960,430 960,960 0,246 -92,470 -245,640 153,170 245,394 245,640 0,530 -430,960 -960,960l-1440 0c-88,0 -160,-72 -160,-160l0 -2880c0,-88 72,-160 160,-160l1440 0zm-960 1920l0 640 960 0c176,0 320,-144 320,-320 0,-176 -144,-320 -320,-320l-960 0zm0 -1280l0 640 960 0c176,0 320,-144 320,-320 0,-176 -144,-320 -320,-320l-960 0z"/>
	<path id="curve0" fill="#252525" d="M1294 4481l1252 0c-40,-444 -164,-874 -347,-1280l-558 0c-183,406 -307,836 -347,1280zm1266 640l-1280 0 0 640 -640 0 0 -960c0,-726 192,-1415 515,-2062 56,-112 168,-176 285,-176l960 0c117,0 229,64 285,176 323,647 515,1336 515,2062l0 960 -640 0 0 -640z"/>
</svg>
