<?xml version="1.0" encoding="UTF-8"?>
<!DOCTYPE svg PUBLIC "-//W3C//DTD SVG 1.1//EN" "http://www.w3.org/Graphics/SVG/1.1/DTD/svg11.dtd">
<svg xmlns="http://www.w3.org/2000/svg" xml:space="preserve" width="1024px" height="1024px" shape-rendering="geometricPrecision" text-rendering="geometricPrecision" image-rendering="optimizeQuality" fill-rule="nonzero" clip-rule="evenodd" viewBox="0 0 10240 10240" xmlns:xlink="http://www.w3.org/1999/xlink">
	<title>spreadsheed_cell icon</title>
	<desc>spreadsheed_cell icon from the IconExperience.com O-Collection. Copyright by INCORS GmbH (www.incors.com).</desc>
	<path id="curve4" fill="#252525" d="M9280 2560l0 6400 -6400 0 0 -6400 6400 0zm-4160 320l0 1920 1920 0 0 -1920 -1920 0zm-1600 4160l0 1280 1280 0 0 -1280 -1280 0zm3840 0l0 1280 1280 0 0 -1280 -1280 0zm-1920 0l0 1280 1280 0 0 -1280 -1280 0zm-1920 -1920l0 1280 1280 0 0 -1280 -1280 0zm3840 0l0 1280 1280 0 0 -1280 -1280 0zm-1920 0l0 1280 1280 0 0 -1280 -1280 0zm-1920 -1920l0 1280 1280 0 0 -1280 -1280 0zm3840 0l0 1280 1280 0 0 -1280 -1280 0z"/>
	<path id="curve3" fill="#252525" d="M2560 2560l0 640 -960 0 0 1280 960 0 0 640 -960 0 0 1280 960 0 0 640 -960 0 0 1280 960 0 0 640 -960 0c-352,0 -640,-287 -640,-640l0 -5760 1600 0z"/>
	<path id="curve2" fill="#252525" d="M8640 640c353,0 640,287 640,640l0 960 -640 0 0 -960 -1280 0 0 960 -640 0 0 -960 -1280 0 0 960 -640 0 0 -960 -1280 0 0 960 -640 0 0 -1600 5760 0z"/>
	<path id="curve1" fill="#252525" d="M1600 640l960 0 0 1600 -1600 0 0 -960c0,-353 287,-640 640,-640z"/>
	<path id="curve0" fill="#FAD200" d="M5440,3200 6720,3200 6720,4480 5440,4480z"/>
</svg>
