<?xml version="1.0" encoding="UTF-8"?>
<!DOCTYPE svg PUBLIC "-//W3C//DTD SVG 1.1//EN" "http://www.w3.org/Graphics/SVG/1.1/DTD/svg11.dtd">
<svg xmlns="http://www.w3.org/2000/svg" xml:space="preserve" width="1024px" height="1024px" shape-rendering="geometricPrecision" text-rendering="geometricPrecision" image-rendering="optimizeQuality" fill-rule="nonzero" clip-rule="evenodd" viewBox="0 0 10240 10240" xmlns:xlink="http://www.w3.org/1999/xlink">
	<title>steering_wheel icon</title>
	<desc>steering_wheel icon from the IconExperience.com O-Collection. Copyright by INCORS GmbH (www.incors.com).</desc>
	<path id="curve1" fill="#FAD200" d="M7700 3840c192,386 300,820 300,1280l0 0 -320 0c-1057,0 -1920,863 -1920,1920l0 889c-206,46 -420,71 -640,71 -220,0 -434,-25 -640,-71l0 -889c0,-1057 -862,-1920 -1920,-1920l-320 0 0 0c0,-460 108,-894 300,-1280l5160 0zm-2580 640c-353,0 -640,287 -640,640 0,353 287,640 640,640 353,0 640,-287 640,-640 0,-353 -287,-640 -640,-640z"/>
	<path id="curve0" fill="#252525" d="M5120 640c2474,0 4480,2006 4480,4480 0,2474 -2006,4480 -4480,4480 -2474,0 -4480,-2006 -4480,-4480 0,-2474 2006,-4480 4480,-4480zm0 1280c-1767,0 -3200,1433 -3200,3200 0,1767 1433,3200 3200,3200 1767,0 3200,-1433 3200,-3200 0,-1767 -1433,-3200 -3200,-3200z"/>
</svg>
