<?xml version="1.0" encoding="UTF-8"?>
<!DOCTYPE svg PUBLIC "-//W3C//DTD SVG 1.1//EN" "http://www.w3.org/Graphics/SVG/1.1/DTD/svg11.dtd">
<svg xmlns="http://www.w3.org/2000/svg" xml:space="preserve" width="1024px" height="1024px" shape-rendering="geometricPrecision" text-rendering="geometricPrecision" image-rendering="optimizeQuality" fill-rule="nonzero" clip-rule="evenodd" viewBox="0 0 10240 10240" xmlns:xlink="http://www.w3.org/1999/xlink">
	<title>suitcase2 icon</title>
	<desc>suitcase2 icon from the IconExperience.com O-Collection. Copyright by INCORS GmbH (www.incors.com).</desc>
	<path id="curve2" fill="#252525" d="M8000 2560c0,884 716,1600 1600,1600l0 3200c-884,0 -1600,716 -1600,1600l-5760 0c0,-884 -716,-1600 -1600,-1600l0 -3200c884,0 1600,-716 1600,-1600l5760 0z"/>
	<path id="curve1" fill="#FAD200" d="M1280 2560l640 0c0,707 -573,1280 -1280,1280l0 -640c0,-353 287,-640 640,-640zm7040 0l640 0c353,0 640,287 640,640l0 640c-707,0 -1280,-573 -1280,-1280zm1280 5120l0 640c0,353 -287,640 -640,640l-640 0c0,-707 573,-1280 1280,-1280zm-7680 1280l-640 0c-353,0 -640,-287 -640,-640l0 -640c707,0 1280,573 1280,1280z"/>
	<path id="curve0" fill="#252525" d="M3840 640l2560 0c353,0 640,287 640,640l0 960 -640 0 0 -960 -2560 0 0 960 -640 0 0 -960c0,-353 287,-640 640,-640z"/>
</svg>
