<?xml version="1.0" encoding="UTF-8"?>
<!DOCTYPE svg PUBLIC "-//W3C//DTD SVG 1.1//EN" "http://www.w3.org/Graphics/SVG/1.1/DTD/svg11.dtd">
<svg xmlns="http://www.w3.org/2000/svg" xml:space="preserve" width="1024px" height="1024px" shape-rendering="geometricPrecision" text-rendering="geometricPrecision" image-rendering="optimizeQuality" fill-rule="nonzero" clip-rule="evenodd" viewBox="0 0 10240 10240" xmlns:xlink="http://www.w3.org/1999/xlink">
	<title>switch_on icon</title>
	<desc>switch_on icon from the IconExperience.com O-Collection. Copyright by INCORS GmbH (www.incors.com).</desc>
	<path id="curve2" fill="#252525" d="M2560 8320l0 -6400c0,-705 575,-1280 1280,-1280l2560 0c705,0 1280,575 1280,1280l0 6400c0,705 -575,1280 -1280,1280l-2560 0c-705,0 -1280,-575 -1280,-1280zm640 0c0,353 287,640 640,640l2560 0c353,0 640,-287 640,-640l0 -6400c0,-353 -287,-640 -640,-640l-2560 0c-353,0 -640,287 -640,640l0 6400z"/>
	<path id="curve1" fill="#252525" d="M4800 5760l640 0c353,0 640,287 640,640l0 960c0,353 -287,640 -640,640l-640 0c-353,0 -640,-287 -640,-640l0 -960c0,-353 287,-640 640,-640zm0 640l0 960 640 0 0 -960 -640 0z"/>
	<path id="curve0" fill="#FAD200" d="M3520 1920l0 3200 3200 0 0 -3200c0,-176 -144,-320 -320,-320l-2560 0c-176,0 -320,144 -320,320zm1440 320l320 0c88,0 160,72 160,160l0 1920c0,88 -72,160 -160,160l-320 0c-88,0 -160,-72 -160,-160l0 -1920c0,-88 72,-160 160,-160z"/>
</svg>
