<?xml version="1.0" encoding="UTF-8"?>
<!DOCTYPE svg PUBLIC "-//W3C//DTD SVG 1.1//EN" "http://www.w3.org/Graphics/SVG/1.1/DTD/svg11.dtd">
<svg xmlns="http://www.w3.org/2000/svg" xml:space="preserve" width="1024px" height="1024px" shape-rendering="geometricPrecision" text-rendering="geometricPrecision" image-rendering="optimizeQuality" fill-rule="nonzero" clip-rule="evenodd" viewBox="0 0 10240 10240" xmlns:xlink="http://www.w3.org/1999/xlink">
	<title>symbol_dollar icon</title>
	<desc>symbol_dollar icon from the IconExperience.com O-Collection. Copyright by INCORS GmbH (www.incors.com).</desc>
	<path id="curve0" fill="#252525" d="M4480 960l1280 0 0 640 160 0c1146,0 2080,934 2080,2080l0 480 -1280 0 0 -480c0,-440 -360,-800 -800,-800l-160 0 0 1600 160 0c1146,0 2080,934 2080,2080 0,1146 -934,2080 -2080,2080l-160 0 0 640 -1280 0 0 -640 -160 0c-1146,0 -2080,-934 -2080,-2080l0 -480 1280 0 0 480c0,440 360,800 800,800l160 0 0 -1600 -160 0c-1146,0 -2080,-934 -2080,-2080 0,-1146 934,-2080 2080,-2080l160 0 0 -640zm1280 4800l0 1600 160 0c440,0 800,-360 800,-800 0,-440 -360,-800 -800,-800l-160 0zm-1280 -1280l0 -1600 -160 0c-440,0 -800,360 -800,800 0,440 360,800 800,800l160 0z"/>
</svg>
