<?xml version="1.0" encoding="UTF-8"?>
<!DOCTYPE svg PUBLIC "-//W3C//DTD SVG 1.1//EN" "http://www.w3.org/Graphics/SVG/1.1/DTD/svg11.dtd">
<svg xmlns="http://www.w3.org/2000/svg" xml:space="preserve" width="1024px" height="1024px" shape-rendering="geometricPrecision" text-rendering="geometricPrecision" image-rendering="optimizeQuality" fill-rule="nonzero" clip-rule="evenodd" viewBox="0 0 10240 10240" xmlns:xlink="http://www.w3.org/1999/xlink">
	<title>symbol_euro icon</title>
	<desc>symbol_euro icon from the IconExperience.com O-Collection. Copyright by INCORS GmbH (www.incors.com).</desc>
	<path id="curve0" fill="#252525" d="M5600 1280c630,0 1224,166 1743,457l-316 1325c-399,-315 -892,-502 -1427,-502 -1007,0 -1869,662 -2225,1600l3391 0 -229 960 -3337 0c0,131 9,259 27,384l3219 0 -214 896 -2711 0c415,765 1191,1280 2079,1280 529,0 1019,-183 1415,-493l463 1235c-549,342 -1192,538 -1878,538 -1602,0 -2965,-1069 -3470,-2560l-1353 0 213 -896 948 0c-12,-126 -18,-254 -18,-384l-838 0 228 -960 726 0c408,-1656 1849,-2880 3564,-2880z"/>
</svg>
