<?xml version="1.0" encoding="UTF-8"?>
<!DOCTYPE svg PUBLIC "-//W3C//DTD SVG 1.1//EN" "http://www.w3.org/Graphics/SVG/1.1/DTD/svg11.dtd">
<svg xmlns="http://www.w3.org/2000/svg" xml:space="preserve" width="1024px" height="1024px" shape-rendering="geometricPrecision" text-rendering="geometricPrecision" image-rendering="optimizeQuality" fill-rule="nonzero" clip-rule="evenodd" viewBox="0 0 10240 10240" xmlns:xlink="http://www.w3.org/1999/xlink">
	<title>table_tennis_racket icon</title>
	<desc>table_tennis_racket icon from the IconExperience.com O-Collection. Copyright by INCORS GmbH (www.incors.com).</desc>
	<path id="curve1" fill="#252525" d="M2285 9505c-252,325 -881,-265 -1083,-467 -207,-207 -761,-792 -486,-1067l1832 -1580c282,-248 230,-818 131,-1164 -72,-250 -125,-490 -157,-720l3211 3211c-230,-32 -470,-85 -720,-157 -325,-93 -988,-218 -1221,65l-1507 1879z"/>
	<path id="curve0" fill="#FAD200" d="M2484 4016c-9,-814 277,-1507 910,-2140 1394,-1394 3653,-1789 5206,-236 1553,1553 1158,3812 -236,5206 -633,633 -1326,919 -2140,910l-3740 -3740z"/>
</svg>
