<?xml version="1.0" encoding="UTF-8"?>
<!DOCTYPE svg PUBLIC "-//W3C//DTD SVG 1.1//EN" "http://www.w3.org/Graphics/SVG/1.1/DTD/svg11.dtd">
<svg xmlns="http://www.w3.org/2000/svg" xml:space="preserve" width="1024px" height="1024px" shape-rendering="geometricPrecision" text-rendering="geometricPrecision" image-rendering="optimizeQuality" fill-rule="nonzero" clip-rule="evenodd" viewBox="0 0 10240 10240" xmlns:xlink="http://www.w3.org/1999/xlink">
	<title>tablet_computer icon</title>
	<desc>tablet_computer icon from the IconExperience.com O-Collection. Copyright by INCORS GmbH (www.incors.com).</desc>
	<path id="curve1" fill="#252525" d="M1920 640l6400 0c353,0 640,288 640,640l0 7680c0,352 -288,640 -640,640l-6400 0c-352,0 -640,-287 -640,-640l0 -7680c0,-353 288,-640 640,-640zm2880 8000c-176,0 -320,144 -320,320l0 0c0,176 144,320 320,320l640 0c176,0 320,-144 320,-320l0 0c0,-176 -144,-320 -320,-320l-640 0zm-2880 -7360l0 7040 6400 0 0 -7040 -6400 0z"/>
	<path id="curve0" fill="#FAD200" d="M2240,1600 8000,1600 8000,8000 2240,8000z"/>
</svg>
