<?xml version="1.0" encoding="UTF-8"?>
<!DOCTYPE svg PUBLIC "-//W3C//DTD SVG 1.1//EN" "http://www.w3.org/Graphics/SVG/1.1/DTD/svg11.dtd">
<svg xmlns="http://www.w3.org/2000/svg" xml:space="preserve" width="1024px" height="1024px" shape-rendering="geometricPrecision" text-rendering="geometricPrecision" image-rendering="optimizeQuality" fill-rule="nonzero" clip-rule="evenodd" viewBox="0 0 10240 10240" xmlns:xlink="http://www.w3.org/1999/xlink">
	<title>telescope icon</title>
	<desc>telescope icon from the IconExperience.com O-Collection. Copyright by INCORS GmbH (www.incors.com).</desc>
	<path id="curve3" fill="#FAD200" d="M3544 8929c-111,20 -226,31 -344,31 -1060,0 -1920,-860 -1920,-1920 0,-118 11,-233 31,-344l2233 2233z"/>
	<path id="curve2" fill="#252525" d="M2146 5534l94 93 1694 -1693c125,-125 327,-125 452,0l1920 1920c125,125 125,327 0,452l-1693 1694 93 94c125,125 125,327 0,452l-320 320c-125,125 -327,125 -452,0l-2560 -2560c-125,-125 -125,-327 0,-452l320 -320c125,-125 327,-125 452,0z"/>
	<path id="curve1" fill="#252525" d="M6626 2334l1280 1280c125,125 125,327 0,452l-1467 1468 -1733 -1733 1468 -1467c125,-125 327,-125 452,0z"/>
	<path id="curve0" fill="#252525" d="M9130 2203l-1091 1091 -1093 -1093 1091 -1091c-64,-121 -45,-274 57,-376 125,-125 327,-125 452,0l960 960c125,125 125,327 0,452 -102,102 -255,121 -376,57z"/>
</svg>
