<?xml version="1.0" encoding="UTF-8"?>
<!DOCTYPE svg PUBLIC "-//W3C//DTD SVG 1.1//EN" "http://www.w3.org/Graphics/SVG/1.1/DTD/svg11.dtd">
<svg xmlns="http://www.w3.org/2000/svg" xml:space="preserve" width="1024px" height="1024px" shape-rendering="geometricPrecision" text-rendering="geometricPrecision" image-rendering="optimizeQuality" fill-rule="nonzero" clip-rule="evenodd" viewBox="0 0 10240 10240" xmlns:xlink="http://www.w3.org/1999/xlink">
	<title>tool_tip icon</title>
	<desc>tool_tip icon from the IconExperience.com O-Collection. Copyright by INCORS GmbH (www.incors.com).</desc>
	<path id="curve1" fill="#FAD200" d="M4766 5120l4834 0 0 3200 -7680 0 0 -1931 264 -264 374 901 2 4 0 650 6400 0 0 -1920 -5053 0 -132 -319 523 0c204,0 385,-121 463,-310 2,-4 3,-7 5,-11z"/>
	<path id="curve0" fill="#252525" d="M1591 1975l2835 2835c53,54 68,129 40,199 -29,69 -93,112 -168,112l-1003 0 567 1364c39,92 -6,199 -98,238l-673 278c-92,39 -199,-6 -237,-98l-558 -1342 -705 705c-54,53 -129,68 -199,39 -69,-28 -112,-93 -112,-168l0 -4034c0,-75 43,-139 112,-168 70,-28 145,-13 199,40z"/>
</svg>
