<?xml version="1.0" encoding="UTF-8"?>
<!DOCTYPE svg PUBLIC "-//W3C//DTD SVG 1.1//EN" "http://www.w3.org/Graphics/SVG/1.1/DTD/svg11.dtd">
<svg xmlns="http://www.w3.org/2000/svg" xml:space="preserve" width="1024px" height="1024px" shape-rendering="geometricPrecision" text-rendering="geometricPrecision" image-rendering="optimizeQuality" fill-rule="nonzero" clip-rule="evenodd" viewBox="0 0 10240 10240" xmlns:xlink="http://www.w3.org/1999/xlink">
	<title>torpedo icon</title>
	<desc>torpedo icon from the IconExperience.com O-Collection. Copyright by INCORS GmbH (www.incors.com).</desc>
	<path id="curve3" fill="#252525" d="M8640 3840l960 0c176,0 320,115 320,256l0 2048c0,141 -144,256 -320,256l-960 0c-176,0 -320,-115 -320,-256l0 -2048c0,-141 144,-256 320,-256z"/>
	<path id="curve2" fill="#252525" d="M3520 3840l2916 0c416,0 772,84 1145,270l419 210 0 1600 -419 210c-373,186 -729,270 -1145,270l-2916 0 0 -2560z"/>
	<path id="curve1" fill="#FAD200" d="M2560,3840 3200,3840 3200,6400 2560,6400z"/>
	<path id="curve0" fill="#252525" d="M2240 6400c-707,0 -1920,-573 -1920,-1280 0,-707 1213,-1280 1920,-1280l0 2560z"/>
</svg>
