<?xml version="1.0" encoding="UTF-8"?>
<!DOCTYPE svg PUBLIC "-//W3C//DTD SVG 1.1//EN" "http://www.w3.org/Graphics/SVG/1.1/DTD/svg11.dtd">
<svg xmlns="http://www.w3.org/2000/svg" xml:space="preserve" width="1024px" height="1024px" shape-rendering="geometricPrecision" text-rendering="geometricPrecision" image-rendering="optimizeQuality" fill-rule="nonzero" clip-rule="evenodd" viewBox="0 0 10240 10240" xmlns:xlink="http://www.w3.org/1999/xlink">
	<title>tram icon</title>
	<desc>tram icon from the IconExperience.com O-Collection. Copyright by INCORS GmbH (www.incors.com).</desc>
	<path id="curve1" fill="#252525" d="M4745 8000c-132,373 -487,640 -905,640 -418,0 -773,-267 -905,-640l1810 0zm-1920 0c-132,373 -487,640 -905,640 -418,0 -773,-267 -905,-640l1810 0zm6400 0c-132,373 -487,640 -905,640 -418,0 -773,-267 -905,-640l1810 0zm-1920 0c-132,373 -487,640 -905,640 -418,0 -773,-267 -905,-640l1810 0z"/>
	<path id="curve0" fill="#252525" d="M1443 3201l2621 -1 -1041 -694c-148,-98 -187,-296 -89,-443 25,-39 57,-70 94,-93l1915 -1276c112,-75 255,-70 360,4l1914 1276c148,98 187,296 89,443 -25,39 -57,70 -94,93l-1036 690 2622 0c290,0 536,185 615,464l458 1604c35,120 50,226 50,351l0 1421c0,352 -288,640 -640,640l-8321 1c-352,0 -640,-288 -640,-640l0 -1421c0,-125 15,-232 49,-352l458 -1603c80,-279 326,-464 616,-464zm6877 959l0 1600 961 0 0 -141c0,-63 -8,-115 -25,-176l-367 -1283 -569 0zm-3840 0l0 1600 1280 0 0 -1600 -1280 0zm-1920 0l0 1600 1280 0 0 -1600 -1280 0zm-1208 0l-367 1284c-18,61 -25,113 -25,176l0 140 960 0 0 -1600 -568 0zm5048 0l0 1600 1280 0 0 -1600 -1280 0zm-1280 -2815l-1343 895 1343 895 1343 -895 -1343 -895z"/>
</svg>
