<?xml version="1.0" encoding="UTF-8"?>
<!DOCTYPE svg PUBLIC "-//W3C//DTD SVG 1.1//EN" "http://www.w3.org/Graphics/SVG/1.1/DTD/svg11.dtd">
<svg xmlns="http://www.w3.org/2000/svg" xml:space="preserve" width="1024px" height="1024px" shape-rendering="geometricPrecision" text-rendering="geometricPrecision" image-rendering="optimizeQuality" fill-rule="nonzero" clip-rule="evenodd" viewBox="0 0 10240 10240" xmlns:xlink="http://www.w3.org/1999/xlink">
	<title>typewriter icon</title>
	<desc>typewriter icon from the IconExperience.com O-Collection. Copyright by INCORS GmbH (www.incors.com).</desc>
	<path id="curve1" fill="#252525" d="M1920 3200l640 0 0 1600 1294 0c115,-642 832,-960 1426,-960 594,0 1311,318 1426,960l1294 0 0 -1600 640 0c176,0 320,144 320,320l0 1280c0,176 -144,320 -320,320l-77 0c29,52 56,107 79,165l866 2166c64,159 92,305 92,476l0 393c0,705 -575,1280 -1280,1280l-6080 0c-705,0 -1280,-575 -1280,-1280l0 -393c0,-171 28,-317 92,-476l866 -2166c23,-58 50,-113 79,-165l-77 0c-176,0 -320,-144 -320,-320l0 -107 -320 107 -330 1037c-43,172 -216,276 -387,233 -172,-43 -276,-216 -233,-388l320 -1280c26,-102 98,-181 189,-218l761 -467 0 -197c0,-176 144,-320 320,-320zm960 2200c-199,0 -360,161 -360,360 0,199 161,360 360,360 199,0 360,-161 360,-360 0,-199 -161,-360 -360,-360zm3840 1920c-199,0 -360,161 -360,360 0,199 161,360 360,360 199,0 360,-161 360,-360 0,-199 -161,-360 -360,-360zm-960 0c-199,0 -360,161 -360,360 0,199 161,360 360,360 199,0 360,-161 360,-360 0,-199 -161,-360 -360,-360zm-960 0c-199,0 -360,161 -360,360 0,199 161,360 360,360 199,0 360,-161 360,-360 0,-199 -161,-360 -360,-360zm-960 0c-199,0 -360,161 -360,360 0,199 161,360 360,360 199,0 360,-161 360,-360 0,-199 -161,-360 -360,-360zm3360 -960c-199,0 -360,161 -360,360 0,199 161,360 360,360 199,0 360,-161 360,-360 0,-199 -161,-360 -360,-360zm-960 0c-199,0 -360,161 -360,360 0,199 161,360 360,360 199,0 360,-161 360,-360 0,-199 -161,-360 -360,-360zm-960 0c-199,0 -360,161 -360,360 0,199 161,360 360,360 199,0 360,-161 360,-360 0,-199 -161,-360 -360,-360zm-960 0c-199,0 -360,161 -360,360 0,199 161,360 360,360 199,0 360,-161 360,-360 0,-199 -161,-360 -360,-360zm-960 0c-199,0 -360,161 -360,360 0,199 161,360 360,360 199,0 360,-161 360,-360 0,-199 -161,-360 -360,-360zm4320 -960c-199,0 -360,161 -360,360 0,199 161,360 360,360 199,0 360,-161 360,-360 0,-199 -161,-360 -360,-360zm-960 0c-199,0 -360,161 -360,360 0,199 161,360 360,360 199,0 360,-161 360,-360 0,-199 -161,-360 -360,-360zm-960 0c-199,0 -360,161 -360,360 0,199 161,360 360,360 199,0 360,-161 360,-360 0,-199 -161,-360 -360,-360zm-960 0c-199,0 -360,161 -360,360 0,199 161,360 360,360 199,0 360,-161 360,-360 0,-199 -161,-360 -360,-360zm-960 0c-199,0 -360,161 -360,360 0,199 161,360 360,360 199,0 360,-161 360,-360 0,-199 -161,-360 -360,-360zm690 -600l1500 0c-146,-231 -496,-320 -750,-320 -254,0 -604,89 -750,320z"/>
	<path id="curve0" fill="#FAD200" d="M2880,1280 7680,1280 7680,4480 7040,4480 7040,1920 3520,1920 3520,4480 2880,4480z"/>
</svg>
