<?xml version="1.0" encoding="UTF-8"?>
<!DOCTYPE svg PUBLIC "-//W3C//DTD SVG 1.1//EN" "http://www.w3.org/Graphics/SVG/1.1/DTD/svg11.dtd">
<svg xmlns="http://www.w3.org/2000/svg" xml:space="preserve" width="1024px" height="1024px" shape-rendering="geometricPrecision" text-rendering="geometricPrecision" image-rendering="optimizeQuality" fill-rule="nonzero" clip-rule="evenodd" viewBox="0 0 10240 10240" xmlns:xlink="http://www.w3.org/1999/xlink">
	<title>videotape icon</title>
	<desc>videotape icon from the IconExperience.com O-Collection. Copyright by INCORS GmbH (www.incors.com).</desc>
	<path id="curve3" fill="#252525" d="M7040 5440c177,0 320,143 320,320 0,177 -143,320 -320,320l0 -640zm-3840 640c-177,0 -320,-143 -320,-320 0,-177 143,-320 320,-320l0 640z"/>
	<path id="curve2" fill="#FAD200" d="M1920 6720c-201,-267 -320,-600 -320,-960 0,-360 119,-693 320,-960l1280 0 0 320 0 0c-353,0 -640,287 -640,640 0,353 287,640 640,640l0 0 0 320 -1280 0zm6400 -1920c201,267 320,600 320,960 0,360 -119,693 -320,960l-1280 0 0 -320c353,0 640,-287 640,-640 0,-353 -287,-640 -640,-640l0 -320 1280 0z"/>
	<path id="curve1" fill="#252525" d="M9600 3520l0 4160c0,352 -288,640 -640,640l-7680 0c-352,0 -640,-287 -640,-640l0 -4160 8960 0zm-5440 1280c-176,0 -320,144 -320,320l0 1280c0,176 144,320 320,320l1920 0c176,0 320,-144 320,-320l0 -1280c0,-176 -144,-320 -320,-320l-1920 0zm4961 -94c-42,-137 -163,-226 -306,-226l-1775 0c-176,0 -320,144 -320,320l0 1920c0,176 144,320 320,320l1775 0c143,0 264,-89 306,-226 103,-335 159,-688 159,-1054 0,-366 -56,-719 -159,-1054zm-5921 2334c176,0 320,-144 320,-320l0 -1920c0,-176 -144,-320 -320,-320l-1775 0c-143,0 -264,89 -306,226 -103,335 -159,688 -159,1054 0,366 56,719 159,1054 42,137 163,226 306,226l1775 0z"/>
	<path id="curve0" fill="#252525" d="M960 2560l8320 0c176,0 320,144 320,320l0 320 -8960 0 0 -320c0,-176 144,-320 320,-320z"/>
</svg>
