<?xml version="1.0" encoding="UTF-8"?>
<!DOCTYPE svg PUBLIC "-//W3C//DTD SVG 1.1//EN" "http://www.w3.org/Graphics/SVG/1.1/DTD/svg11.dtd">
<svg xmlns="http://www.w3.org/2000/svg" xml:space="preserve" width="1024px" height="1024px" shape-rendering="geometricPrecision" text-rendering="geometricPrecision" image-rendering="optimizeQuality" fill-rule="nonzero" clip-rule="evenodd" viewBox="0 0 10240 10240" xmlns:xlink="http://www.w3.org/1999/xlink">
	<title>wallet icon</title>
	<desc>wallet icon from the IconExperience.com O-Collection. Copyright by INCORS GmbH (www.incors.com).</desc>
	<path id="curve2" fill="#FAD200" d="M2333 2750l3988 -2040c314,-161 701,-35 862,278l967 1892 -359 0 -747 -1461 -2857 1461 -2027 0c48,-52 106,-96 173,-130z"/>
	<path id="curve1" fill="#252525" d="M1920 3200l245 0c-152,170 -245,394 -245,640l0 960 -640 0 0 -960c0,-353 288,-640 640,-640zm959 0l6081 0c353,0 640,288 640,640l0 5120c0,353 -287,640 -640,640l-6080 0 0 0c-352,0 -640,-287 -640,-640l0 -960 1600 0c529,0 960,-431 960,-960 0,-427 0,-853 0,-1280 0,-529 -431,-960 -960,-960l-1600 0 0 -960c0,-352 287,-640 639,-640zm-714 6400l-245 0c-352,0 -640,-287 -640,-640l0 -960 640 0 0 960c0,246 93,470 245,640l0 0z"/>
	<path id="curve0" fill="#252525" d="M1280 5120l2240 0c353,0 640,287 640,640 0,427 0,853 0,1280 0,353 -287,640 -640,640 -747,0 -1493,0 -2240,0 -176,0 -320,-144 -320,-320l0 -1920c0,-176 144,-320 320,-320zm1600 640c-353,0 -640,287 -640,640 0,353 287,640 640,640 353,0 640,-287 640,-640 0,-353 -287,-640 -640,-640z"/>
</svg>
