<?xml version="1.0" encoding="UTF-8"?>
<!DOCTYPE svg PUBLIC "-//W3C//DTD SVG 1.1//EN" "http://www.w3.org/Graphics/SVG/1.1/DTD/svg11.dtd">
<svg xmlns="http://www.w3.org/2000/svg" xml:space="preserve" width="1024px" height="1024px" shape-rendering="geometricPrecision" text-rendering="geometricPrecision" image-rendering="optimizeQuality" fill-rule="nonzero" clip-rule="evenodd" viewBox="0 0 10240 10240" xmlns:xlink="http://www.w3.org/1999/xlink">
	<title>wheel icon</title>
	<desc>wheel icon from the IconExperience.com O-Collection. Copyright by INCORS GmbH (www.incors.com).</desc>
	<path id="curve2" fill="#252525" d="M5120 640c2474,0 4480,2006 4480,4480 0,2474 -2006,4480 -4480,4480 -2474,0 -4480,-2006 -4480,-4480 0,-2474 2006,-4480 4480,-4480zm0 1280c-1767,0 -3200,1433 -3200,3200 0,1767 1433,3200 3200,3200 1767,0 3200,-1433 3200,-3200 0,-1767 -1433,-3200 -3200,-3200z"/>
	<path id="curve1" fill="#FAD200" d="M6318 7315l-595 -819c-76,-105 -200,-152 -327,-125 -181,40 -370,40 -552,0 -127,-27 -250,20 -327,125l-595 819c-60,83 -77,180 -48,278 29,98 95,171 190,208 676,265 1436,265 2112,0 96,-37 162,-110 191,-208 28,-98 12,-195 -49,-278zm-2302 -1545c-94,-161 -152,-339 -170,-524 -12,-129 -95,-233 -219,-273l-963 -313c-98,-32 -195,-18 -279,40 -85,57 -133,142 -140,245 -44,727 189,1446 654,2009 65,79 154,120 256,116 103,-3 189,-49 249,-131l595 -819c77,-105 83,-238 17,-350zm147 -1498c122,-138 274,-249 445,-324 120,-52 192,-163 192,-293l0 -1013c0,-102 -43,-190 -124,-253 -80,-62 -176,-82 -275,-57 -716,184 -1324,636 -1710,1243 -55,86 -66,183 -32,280 35,96 105,164 202,196l964 313c123,40 251,5 338,-92zm1469 -324c172,75 323,186 446,324 86,97 214,132 338,92l963 -313c97,-32 168,-100 202,-196 35,-97 24,-194 -31,-280 -387,-607 -995,-1059 -1710,-1243 -99,-25 -195,-5 -276,57 -81,63 -124,151 -124,253l0 1013c0,130 73,241 192,293zm1710 3006c465,-563 698,-1282 653,-2009 -6,-103 -55,-188 -139,-245 -85,-58 -182,-72 -279,-40l-963 313c-124,40 -207,144 -220,273 -18,185 -75,363 -170,524 -66,112 -59,245 17,350l595 819c60,82 147,128 249,131 102,4 192,-37 257,-116z"/>
	<path id="curve0" fill="#252525" d="M5120 4272c469,0 850,380 850,850 0,469 -381,849 -850,849 -469,0 -849,-380 -849,-849 0,-470 380,-850 849,-850z"/>
</svg>
