<?xml version="1.0" encoding="UTF-8"?>
<!DOCTYPE svg PUBLIC "-//W3C//DTD SVG 1.1//EN" "http://www.w3.org/Graphics/SVG/1.1/DTD/svg11.dtd">
<svg xmlns="http://www.w3.org/2000/svg" xml:space="preserve" width="1024px" height="1024px" shape-rendering="geometricPrecision" text-rendering="geometricPrecision" image-rendering="optimizeQuality" fill-rule="nonzero" clip-rule="evenodd" viewBox="0 0 10240 10240" xmlns:xlink="http://www.w3.org/1999/xlink">
	<title>window_gear icon</title>
	<desc>window_gear icon from the IconExperience.com O-Collection. Copyright by INCORS GmbH (www.incors.com).</desc>
	<path id="curve1" fill="#252525" d="M1280 1280l7680 0c353,0 640,288 640,640l0 6720c0,176 -144,320 -320,320l-8320 0c-176,0 -320,-144 -320,-320l0 -6720c0,-353 288,-640 640,-640zm0 1920l0 5120 7680 0 0 -5120 -7680 0z"/>
	<path id="curve0" fill="#FAD200" d="M6136 4398c55,41 108,86 157,133 21,20 49,27 77,20l440 -120c68,-18 137,8 176,66 64,96 118,190 168,294 31,63 18,136 -33,185l-327 317c-20,21 -29,48 -22,76 16,68 27,136 35,205 3,29 19,52 46,64l413 191c64,30 101,94 93,164 -13,115 -32,221 -61,333 -17,68 -74,116 -144,121l-455 33c-29,2 -53,18 -66,44 -31,61 -66,121 -104,178 -17,24 -19,53 -6,79l194 412c30,63 16,136 -35,185 -84,79 -167,149 -261,216 -57,41 -131,41 -188,0l-370 -267c-23,-17 -52,-21 -78,-9 -63,27 -128,50 -193,69 -28,8 -48,28 -56,56l-116 440c-18,69 -75,116 -146,120 -115,7 -224,6 -339,-2 -71,-6 -127,-53 -144,-122l-112 -442c-7,-28 -26,-49 -54,-57 -65,-20 -128,-44 -190,-71 -27,-12 -55,-9 -79,8l-372 262c-58,41 -132,40 -189,-2 -93,-68 -176,-139 -259,-220 -50,-50 -63,-122 -32,-186l199 -410c12,-26 11,-55 -5,-79 -37,-56 -70,-115 -100,-175 -13,-26 -37,-42 -66,-45l-454 -38c-70,-5 -127,-53 -143,-122 -28,-113 -46,-220 -57,-336 -7,-70 30,-134 94,-163l416 -186c27,-12 44,-35 47,-64 8,-67 20,-133 36,-198 7,-29 -1,-56 -21,-77l-324 -321c-50,-50 -62,-123 -31,-186 51,-104 106,-198 172,-294 39,-58 109,-83 177,-64l438 125c28,8 56,1 77,-19 49,-46 102,-89 156,-129 23,-18 35,-44 32,-73l-41 -455c-7,-70 31,-133 95,-162 106,-46 208,-83 320,-114 68,-20 137,6 177,64l256 377c16,24 42,37 71,36 68,-4 136,-4 205,0 28,2 54,-10 71,-34l260 -375c41,-58 110,-83 178,-63 111,33 212,70 317,118 65,29 102,93 94,163l-46 453c-3,29 8,55 32,73zm-1016 722c-353,0 -640,287 -640,640 0,353 287,640 640,640 353,0 640,-287 640,-640 0,-353 -287,-640 -640,-640z"/>
</svg>
