<?xml version="1.0" encoding="UTF-8"?>
<!DOCTYPE svg PUBLIC "-//W3C//DTD SVG 1.1//EN" "http://www.w3.org/Graphics/SVG/1.1/DTD/svg11.dtd">
<svg xmlns="http://www.w3.org/2000/svg" xml:space="preserve" width="1024px" height="1024px" shape-rendering="geometricPrecision" text-rendering="geometricPrecision" image-rendering="optimizeQuality" fill-rule="nonzero" clip-rule="evenodd" viewBox="0 0 10240 10240" xmlns:xlink="http://www.w3.org/1999/xlink">
	<title>window_cd icon</title>
	<desc>window_cd icon from the IconExperience.com O-Collection. Copyright by INCORS GmbH (www.incors.com).</desc>
	<path id="curve3" fill="#FAD200" d="M6400 5760c353,0 640,287 640,640 0,353 -287,640 -640,640 -353,0 -640,-287 -640,-640 0,-353 287,-640 640,-640zm0 320c-177,0 -320,143 -320,320 0,177 143,320 320,320 177,0 320,-143 320,-320 0,-177 -143,-320 -320,-320z"/>
	<path id="curve2" fill="#FAD200" d="M6400 3840c497,0 961,142 1354,387l-839 1363c-149,-95 -326,-150 -515,-150 -530,0 -960,430 -960,960 0,140 30,274 84,394l-1471 631c-137,-314 -213,-661 -213,-1025 0,-1414 1146,-2560 2560,-2560zm889 2198l1471 -631c129,306 200,641 200,993 0,1414 -1146,2560 -2560,2560 -487,0 -942,-136 -1330,-372l839 -1363c143,86 311,135 491,135 530,0 960,-430 960,-960 0,-128 -25,-250 -71,-362z"/>
	<path id="curve1" fill="#FAD200" d="M6400 2880c1944,0 3520,1576 3520,3520 0,1944 -1576,3520 -3520,3520 -1944,0 -3520,-1576 -3520,-3520 0,-1944 1576,-3520 3520,-3520zm0 640c-1591,0 -2880,1289 -2880,2880 0,1591 1289,2880 2880,2880 1591,0 2880,-1289 2880,-2880 0,-1591 -1289,-2880 -2880,-2880z"/>
	<path id="curve0" fill="#252525" d="M1280 640l7040 0c352,0 640,288 640,640l0 2258c-196,-176 -411,-331 -640,-464l0 -514 -1919 0 -1 0 -1 0 -5119 0 0 4480 1333 0c37,220 93,434 166,640l-1819 0c-176,0 -320,-144 -320,-320l0 -6080c0,-353 288,-640 640,-640z"/>
</svg>
