<?xml version="1.0" encoding="UTF-8"?>
<!DOCTYPE svg PUBLIC "-//W3C//DTD SVG 1.1//EN" "http://www.w3.org/Graphics/SVG/1.1/DTD/svg11.dtd">
<svg xmlns="http://www.w3.org/2000/svg" xml:space="preserve" width="1024px" height="1024px" shape-rendering="geometricPrecision" text-rendering="geometricPrecision" image-rendering="optimizeQuality" fill-rule="nonzero" clip-rule="evenodd" viewBox="0 0 10240 10240" xmlns:xlink="http://www.w3.org/1999/xlink">
	<title>window_star icon</title>
	<desc>window_star icon from the IconExperience.com O-Collection. Copyright by INCORS GmbH (www.incors.com).</desc>
	<path id="curve1" fill="#252525" d="M1280 1280l7680 0c353,0 640,288 640,640l0 6720c0,176 -144,320 -320,320l-8320 0c-176,0 -320,-144 -320,-320l0 -6720c0,-353 288,-640 640,-640zm0 1920l0 5120 7680 0 0 -5120 -7680 0z"/>
	<path id="curve0" fill="#FAD200" d="M5422 3937l344 1074c22,67 82,111 153,111l1123 -2c140,0 259,86 302,220 44,133 -2,274 -115,356l-912 666c-57,42 -80,112 -58,179l349 1078c43,133 -2,274 -116,356 -113,83 -261,82 -374,-1l-903 -665c-57,-42 -133,-42 -190,0l-903 665c-113,83 -261,84 -374,1 -114,-82 -159,-223 -116,-356l349 -1078c22,-67 -1,-137 -58,-179l-912 -666c-113,-82 -159,-223 -115,-356 43,-134 162,-220 302,-220l1123 2c71,0 131,-44 153,-111l344 -1074c42,-134 162,-221 302,-221 140,0 260,87 302,221z"/>
</svg>
