<?xml version="1.0" encoding="UTF-8"?>
<!DOCTYPE svg PUBLIC "-//W3C//DTD SVG 1.1//EN" "http://www.w3.org/Graphics/SVG/1.1/DTD/svg11.dtd">
<svg xmlns="http://www.w3.org/2000/svg" xml:space="preserve" width="1024px" height="1024px" shape-rendering="geometricPrecision" text-rendering="geometricPrecision" image-rendering="optimizeQuality" fill-rule="nonzero" clip-rule="evenodd" viewBox="0 0 10240 10240" xmlns:xlink="http://www.w3.org/1999/xlink">
	<title>workstation_network icon</title>
	<desc>workstation_network icon from the IconExperience.com O-Collection. Copyright by INCORS GmbH (www.incors.com).</desc>
	<path id="curve4" fill="#FAD200" d="M5440 8640c176,0 320,144 320,320l1280 0 0 640 -1280 0c0,176 -144,320 -320,320l-640 0c-176,0 -320,-144 -320,-320l-1280 0 0 -640 1280 0c0,-176 144,-320 320,-320l0 -640 640 0 0 640z"/>
	<path id="curve3" fill="#252525" d="M7680 1280l1600 0c176,0 321,144 320,320l0 5440c176,0 320,144 320,320l0 320 -2880 0 0 -320c0,-176 144,-320 320,-320l0 -5440c0,-176 144,-320 320,-320zm800 640c-265,0 -480,215 -480,480 0,265 215,480 480,480 265,0 480,-215 480,-480 0,-265 -215,-480 -480,-480z"/>
	<path id="curve2" fill="#252525" d="M2240 7040l640 0c176,0 320,-144 320,-320l0 -640 1280 0 0 640c0,176 144,320 320,320l640 0c176,0 320,144 320,320l0 320 -3840 0 0 -320c0,-176 144,-320 320,-320z"/>
	<path id="curve1" fill="#252525" d="M1280 640l5120 0c353,0 640,288 640,640l0 3840c0,352 -288,640 -640,640l-5120 0c-352,0 -640,-287 -640,-640l0 -3840c0,-353 287,-640 640,-640zm0 640l0 3840 5120 0 0 -3840 -5120 0z"/>
	<path id="curve0" fill="#FAD200" d="M1600,1600 6080,1600 6080,4800 1600,4800z"/>
</svg>
