<?xml version="1.0" encoding="UTF-8"?>
<!DOCTYPE svg PUBLIC "-//W3C//DTD SVG 1.1//EN" "http://www.w3.org/Graphics/SVG/1.1/DTD/svg11.dtd">
<svg xmlns="http://www.w3.org/2000/svg" xml:space="preserve" width="1024px" height="1024px" shape-rendering="geometricPrecision" text-rendering="geometricPrecision" image-rendering="optimizeQuality" fill-rule="nonzero" clip-rule="evenodd" viewBox="0 0 10240 10240" xmlns:xlink="http://www.w3.org/1999/xlink">
	<title>workplace icon</title>
	<desc>workplace icon from the IconExperience.com O-Collection. Copyright by INCORS GmbH (www.incors.com).</desc>
	<path id="curve1" fill="#252525" d="M3360 7040l480 0c176,0 320,-144 320,-320l0 -320 -1600 0c-352,0 -640,-287 -640,-640l0 -3840c0,-352 288,-640 640,-640l5120 0c353,0 640,288 640,640l0 3840c0,352 -288,640 -640,640l-1600 0 0 320c0,176 144,320 320,320l480 0c88,0 160,72 160,160l0 160 -3840 0 0 -160c0,-88 72,-160 160,-160zm-800 -5120l0 3840 5120 0 0 -3840 -5120 0z"/>
	<path id="curve0" fill="#FAD200" d="M2505 7680l5230 0c176,0 328,63 452,187l999 999c63,63 94,138 94,227l0 187c0,176 -144,320 -320,320l-7680 0c-176,0 -320,-144 -320,-320l0 -187c0,-89 31,-164 94,-227l999 -999c124,-124 276,-187 452,-187zm5175 320l-960 0c-88,0 -160,72 -160,160 0,88 72,160 160,160l960 0c88,0 160,-72 160,-160 0,-88 -72,-160 -160,-160zm-4480 0l-640 0c-88,0 -160,72 -160,160 0,88 72,160 160,160l640 0c88,0 160,-72 160,-160 0,-88 -72,-160 -160,-160zm960 0l-320 0c-88,0 -160,72 -160,160 0,88 72,160 160,160l320 0c88,0 160,-72 160,-160 0,-88 -72,-160 -160,-160zm-1600 640l-640 0c-88,0 -160,72 -160,160 0,88 72,160 160,160l640 0c88,0 160,-72 160,-160 0,-88 -72,-160 -160,-160zm4480 0l-3840 0c-88,0 -160,72 -160,160 0,88 72,160 160,160l3840 0c88,0 160,-72 160,-160 0,-88 -72,-160 -160,-160zm1280 0l-640 0c-88,0 -160,72 -160,160 0,88 72,160 160,160l640 0c88,0 160,-72 160,-160 0,-88 -72,-160 -160,-160zm-3200 -640l-320 0c-88,0 -160,72 -160,160 0,88 72,160 160,160l320 0c88,0 160,-72 160,-160 0,-88 -72,-160 -160,-160zm960 0l-320 0c-88,0 -160,72 -160,160 0,88 72,160 160,160l320 0c88,0 160,-72 160,-160 0,-88 -72,-160 -160,-160z"/>
</svg>
