<?xml version="1.0" encoding="UTF-8"?>
<!DOCTYPE svg PUBLIC "-//W3C//DTD SVG 1.1//EN" "http://www.w3.org/Graphics/SVG/1.1/DTD/svg11.dtd">
<svg xmlns="http://www.w3.org/2000/svg" xml:space="preserve" width="1024px" height="1024px" shape-rendering="geometricPrecision" text-rendering="geometricPrecision" image-rendering="optimizeQuality" fill-rule="nonzero" clip-rule="evenodd" viewBox="0 0 10240 10240" xmlns:xlink="http://www.w3.org/1999/xlink">
	<title>worm icon</title>
	<desc>worm icon from the IconExperience.com O-Collection. Copyright by INCORS GmbH (www.incors.com).</desc>
	<path id="curve1" fill="#FAD200" d="M965 7558c-209,-449 -325,-950 -325,-1478 0,-903 340,-1726 899,-2349 85,-95 211,-130 333,-92 122,38 206,138 222,265 38,295 150,580 332,824 151,203 345,373 568,496 146,80 206,256 139,408 -60,137 -93,289 -93,448 0,21 1,42 2,62 -153,-40 -312,-62 -482,-62 -843,0 -1533,652 -1595,1478z"/>
	<path id="curve0" fill="#252525" d="M2090 2020c-420,-254 -570,-440 -570,-760 0,-640 739,-620 1040,-510 740,270 1280,530 1920,530 1280,0 1600,-320 3200,-320 960,0 1920,656 1920,1920 0,1600 -960,2560 -2560,2560 -1225,0 -1600,-640 -2560,-640 -457,0 -842,145 -1119,332 -55,-76 -126,-141 -213,-189 -182,-100 -341,-239 -465,-406 -147,-197 -240,-430 -271,-674 -27,-206 -147,-380 -323,-478 550,-367 1409,-505 1751,-505 1600,0 2027,640 2880,640 960,0 960,-320 960,-640 0,-554 -1199,-149 -2144,-30 -591,-221 -1356,-341 -1988,-273 -788,-227 -1134,-361 -1458,-557zm-810 5660c0,-707 573,-1280 1280,-1280 824,0 1280,640 1920,640 1280,0 2560,-960 3520,-960 960,0 1600,320 1600,960 0,640 -1280,640 -1600,640 -1280,0 -1600,1280 -4160,1280 -619,0 -2560,-384 -2560,-1280z"/>
</svg>
