<svg width="600pt" height="770pt" viewBox="0.00 0.00 600.00 770.00" 
    xmlns="http://www.w3.org/2000/svg" 
    xmlns:xlink="http://www.w3.org/1999/xlink">
    <g id="graph1" class="graph" transform="scale(1 1) rotate(0) translate(4 766)">
        <title>G</title>
        <polygon fill="white" stroke="white" points="-4,5 -4,-766 597,-766 597,5 -4,5"></polygon>
        <g id="graph2" class="cluster">
            <title>cluster_1</title>
        </g>
        <g id="graph3" class="cluster">
            <title>cluster_2</title>
            <polygon fill="yellow" stroke="yellow" points="28,-566 240,-566 252,-578 252,-734 240,-746 28,-746 16,-734 16,-578 28,-566"></polygon>
            <path fill="yellow" stroke="yellow" d="M240,-566C246,-566 252,-572 252,-578"></path>
            <path fill="yellow" stroke="yellow" d="M252,-734C252,-740 246,-746 240,-746"></path>
            <path fill="yellow" stroke="yellow" d="M28,-746C22,-746 16,-740 16,-734"></path>
            <path fill="yellow" stroke="yellow" d="M16,-578C16,-572 22,-566 28,-566"></path>
            <polyline fill="none" stroke="black" points="28,-566 240,-566 "></polyline>
            <path fill="none" stroke="black" d="M240,-566C246,-566 252,-572 252,-578"></path>
            <polyline fill="none" stroke="black" points="252,-578 252,-734 "></polyline>
            <path fill="none" stroke="black" d="M252,-734C252,-740 246,-746 240,-746"></path>
            <polyline fill="none" stroke="black" points="240,-746 28,-746 "></polyline>
            <path fill="none" stroke="black" d="M28,-746C22,-746 16,-740 16,-734"></path>
            <polyline fill="none" stroke="black" points="16,-734 16,-578 "></polyline>
            <path fill="none" stroke="black" d="M16,-578C16,-572 22,-566 28,-566"></path>
            <text text-anchor="middle" x="134" y="-729.4" font-family="Times,serif" font-size="14.00">UX Component</text>
        </g>
        <g id="graph4" class="cluster">
            <title>cluster_4</title>
            <polygon fill="lightgray" stroke="lightgray" points="36,-574 232,-574 244,-586 244,-702 232,-714 36,-714 24,-702 24,-586 36,-574"></polygon>
            <path fill="lightgray" stroke="lightgray" d="M232,-574C238,-574 244,-580 244,-586"></path>
            <path fill="lightgray" stroke="lightgray" d="M244,-702C244,-708 238,-714 232,-714"></path>
            <path fill="lightgray" stroke="lightgray" d="M36,-714C30,-714 24,-708 24,-702"></path>
            <path fill="lightgray" stroke="lightgray" d="M24,-586C24,-580 30,-574 36,-574"></path>
            <polyline fill="none" stroke="gray" points="36,-574 232,-574 "></polyline>
            <path fill="none" stroke="gray" d="M232,-574C238,-574 244,-580 244,-586"></path>
            <polyline fill="none" stroke="gray" points="244,-586 244,-702 "></polyline>
            <path fill="none" stroke="gray" d="M244,-702C244,-708 238,-714 232,-714"></path>
            <polyline fill="none" stroke="gray" points="232,-714 36,-714 "></polyline>
            <path fill="none" stroke="gray" d="M36,-714C30,-714 24,-708 24,-702"></path>
            <polyline fill="none" stroke="gray" points="24,-702 24,-586 "></polyline>
            <path fill="none" stroke="gray" d="M24,-586C24,-580 30,-574 36,-574"></path>
            <text text-anchor="middle" x="134" y="-697.4" font-family="Times,serif" font-size="14.00">REST Action Scripting Genie</text>
        </g>
        <g id="graph5" class="cluster">
            <title>cluster_3</title>
            <polygon fill="lime" stroke="lime" points="40,-272 236,-272 248,-284 248,-474 236,-486 40,-486 28,-474 28,-284 40,-272"></polygon>
            <path fill="lime" stroke="lime" d="M236,-272C242,-272 248,-278 248,-284"></path>
            <path fill="lime" stroke="lime" d="M248,-474C248,-480 242,-486 236,-486"></path>
            <path fill="lime" stroke="lime" d="M40,-486C34,-486 28,-480 28,-474"></path>
            <path fill="lime" stroke="lime" d="M28,-284C28,-278 34,-272 40,-272"></path>
            <polyline fill="none" stroke="black" points="40,-272 236,-272 "></polyline>
            <path fill="none" stroke="black" d="M236,-272C242,-272 248,-278 248,-284"></path>
            <polyline fill="none" stroke="black" points="248,-284 248,-474 "></polyline>
            <path fill="none" stroke="black" d="M248,-474C248,-480 242,-486 236,-486"></path>
            <polyline fill="none" stroke="black" points="236,-486 40,-486 "></polyline>
            <path fill="none" stroke="black" d="M40,-486C34,-486 28,-480 28,-474"></path>
            <polyline fill="none" stroke="black" points="28,-474 28,-284 "></polyline>
            <path fill="none" stroke="black" d="M28,-284C28,-278 34,-272 40,-272"></path>
            <text text-anchor="middle" x="138" y="-469.4" font-family="Times,serif" font-size="14.00">Project Settings/Profile</text>
        </g>
        <g id="graph6" class="cluster">
            <title>cluster_5</title>
            <polygon fill="lightgray" stroke="lightgray" points="48,-280 228,-280 240,-292 240,-442 228,-454 48,-454 36,-442 36,-292 48,-280"></polygon>
            <path fill="lightgray" stroke="lightgray" d="M228,-280C234,-280 240,-286 240,-292"></path>
            <path fill="lightgray" stroke="lightgray" d="M240,-442C240,-448 234,-454 228,-454"></path>
            <path fill="lightgray" stroke="lightgray" d="M48,-454C42,-454 36,-448 36,-442"></path>
            <path fill="lightgray" stroke="lightgray" d="M36,-292C36,-286 42,-280 48,-280"></path>
            <polyline fill="none" stroke="gray" points="48,-280 228,-280 "></polyline>
            <path fill="none" stroke="gray" d="M228,-280C234,-280 240,-286 240,-292"></path>
            <polyline fill="none" stroke="gray" points="240,-292 240,-442 "></polyline>
            <path fill="none" stroke="gray" d="M240,-442C240,-448 234,-454 228,-454"></path>
            <polyline fill="none" stroke="gray" points="228,-454 48,-454 "></polyline>
            <path fill="none" stroke="gray" d="M48,-454C42,-454 36,-448 36,-442"></path>
            <polyline fill="none" stroke="gray" points="36,-442 36,-292 "></polyline>
            <path fill="none" stroke="gray" d="M36,-292C36,-286 42,-280 48,-280"></path>
            <text text-anchor="start" x="71.5098" y="-437.4" font-family="Times,serif" font-size="14.00">Named Resource</text>
            <text text-anchor="middle" x="138" y="-420.6" font-family="Times,serif" font-size="14.00">Client Application keys</text>
            <text text-anchor="start" x="71.5098" y="-403.8" font-family="Times,serif" font-size="14.00">for specific provider</text>
        </g>
        <g id="graph7" class="cluster">
            <title>cluster_0</title>
            <polygon fill="cyan" stroke="cyan" points="280,-8 572,-8 584,-20 584,-546 572,-558 280,-558 268,-546 268,-20 280,-8"></polygon>
            <path fill="cyan" stroke="cyan" d="M572,-8C578,-8 584,-14 584,-20"></path>
            <path fill="cyan" stroke="cyan" d="M584,-546C584,-552 578,-558 572,-558"></path>
            <path fill="cyan" stroke="cyan" d="M280,-558C274,-558 268,-552 268,-546"></path>
            <path fill="cyan" stroke="cyan" d="M268,-20C268,-14 274,-8 280,-8"></path>
            <polyline fill="none" stroke="black" points="280,-8 572,-8 "></polyline>
            <path fill="none" stroke="black" d="M572,-8C578,-8 584,-14 584,-20"></path>
            <polyline fill="none" stroke="black" points="584,-20 584,-546 "></polyline>
            <path fill="none" stroke="black" d="M584,-546C584,-552 578,-558 572,-558"></path>
            <polyline fill="none" stroke="black" points="572,-558 280,-558 "></polyline>
            <path fill="none" stroke="black" d="M280,-558C274,-558 268,-552 268,-546"></path>
            <polyline fill="none" stroke="black" points="268,-546 268,-20 "></polyline>
            <path fill="none" stroke="black" d="M268,-20C268,-14 274,-8 280,-8"></path>
            <text text-anchor="middle" x="426" y="-541.4" font-family="Times,serif" font-size="14.00">Definition</text>
        </g>
        <g id="graph8" class="cluster">
            <title>cluster_6</title>
            <polygon fill="lightgray" stroke="lightgray" points="288,-16 564,-16 576,-28 576,-188 564,-200 288,-200 276,-188 276,-28 288,-16"></polygon>
            <path fill="lightgray" stroke="lightgray" d="M564,-16C570,-16 576,-22 576,-28"></path>
            <path fill="lightgray" stroke="lightgray" d="M576,-188C576,-194 570,-200 564,-200"></path>
            <path fill="lightgray" stroke="lightgray" d="M288,-200C282,-200 276,-194 276,-188"></path>
            <path fill="lightgray" stroke="lightgray" d="M276,-28C276,-22 282,-16 288,-16"></path>
            <polyline fill="none" stroke="gray" points="288,-16 564,-16 "></polyline>
            <path fill="none" stroke="gray" d="M564,-16C570,-16 576,-22 576,-28"></path>
            <polyline fill="none" stroke="gray" points="576,-28 576,-188 "></polyline>
            <path fill="none" stroke="gray" d="M576,-188C576,-194 570,-200 564,-200"></path>
            <polyline fill="none" stroke="gray" points="564,-200 288,-200 "></polyline>
            <path fill="none" stroke="gray" d="M288,-200C282,-200 276,-194 276,-188"></path>
            <polyline fill="none" stroke="gray" points="276,-188 276,-28 "></polyline>
            <path fill="none" stroke="gray" d="M276,-28C276,-22 282,-16 288,-16"></path>
            <text text-anchor="start" x="311.903" y="-183.4" font-family="Times,serif" font-size="14.00">Provider</text>
            <text text-anchor="start" x="311.903" y="-166.6" font-family="Times,serif" font-size="14.00">oAuth Provider Definition</text>
            <text text-anchor="start" x="311.903" y="-149.8" font-family="Times,serif" font-size="14.00">Defines Endpoints Provider Defines</text>
            <text text-anchor="start" x="311.903" y="-133" font-family="Times,serif" font-size="14.00">API Provider Definition</text>
            <text text-anchor="start" x="311.903" y="-116.2" font-family="Times,serif" font-size="14.00">Definition of fields required for provider</text>
        </g>
        <g id="graph9" class="cluster">
            <title>cluster_7</title>
            <polygon fill="lightgray" stroke="lightgray" points="293,-208 547,-208 559,-220 559,-514 547,-526 293,-526 281,-514 281,-220 293,-208"></polygon>
            <path fill="lightgray" stroke="lightgray" d="M547,-208C553,-208 559,-214 559,-220"></path>
            <path fill="lightgray" stroke="lightgray" d="M559,-514C559,-520 553,-526 547,-526"></path>
            <path fill="lightgray" stroke="lightgray" d="M293,-526C287,-526 281,-520 281,-514"></path>
            <path fill="lightgray" stroke="lightgray" d="M281,-220C281,-214 287,-208 293,-208"></path>
            <polyline fill="none" stroke="gray" points="293,-208 547,-208 "></polyline>
            <path fill="none" stroke="gray" d="M547,-208C553,-208 559,-214 559,-220"></path>
            <polyline fill="none" stroke="gray" points="559,-220 559,-514 "></polyline>
            <path fill="none" stroke="gray" d="M559,-514C559,-520 553,-526 547,-526"></path>
            <polyline fill="none" stroke="gray" points="547,-526 293,-526 "></polyline>
            <path fill="none" stroke="gray" d="M293,-526C287,-526 281,-520 281,-514"></path>
            <polyline fill="none" stroke="gray" points="281,-514 281,-220 "></polyline>
            <path fill="none" stroke="gray" d="M281,-220C281,-214 287,-208 293,-208"></path>
            <text text-anchor="start" x="327.48" y="-509.4" font-family="Times,serif" font-size="14.00">REST API Definition</text>
            <text text-anchor="start" x="327.48" y="-492.6" font-family="Times,serif" font-size="14.00">Endpoint for resource</text>
            <text text-anchor="start" x="327.48" y="-475.8" font-family="Times,serif" font-size="14.00">plus what Providers are expected</text>
        </g>
        <!-- REST Genie -->
        <g id="node4" class="node">
            <title>REST Genie</title>
            <polygon fill="white" stroke="lightgray" points="31.92,-582.4 31.92,-681.6 236.08,-681.6 236.08,-582.4 31.92,-582.4"></polygon>
            <text text-anchor="middle" x="134" y="-665" font-family="Times,serif" font-size="14.00">Example:</text>
            <polyline fill="none" stroke="lightgray" points="31.92,-656.8 236.08,-656.8 "></polyline>
            <text text-anchor="start" x="39.92" y="-640.2" font-family="Times,serif" font-size="14.00">Rest Service:MyRESTApi</text>
            <polyline fill="none" stroke="lightgray" points="31.92,-632 236.08,-632 "></polyline>
            <text text-anchor="start" x="39.92" y="-615.4" font-family="Times,serif" font-size="14.00">Action: AddUserAction</text>
            <polyline fill="none" stroke="lightgray" points="31.92,-607.2 236.08,-607.2 "></polyline>
            <text text-anchor="start" x="39.92" y="-590.6" font-family="Times,serif" font-size="14.00">Named Resource: MyRestNamed</text>
        </g>
        <!-- Named Resource -->
        <g id="node7" class="node">
            <title>Named Resource</title>
            <polygon fill="white" stroke="lightgray" points="44.1422,-288.4 44.1422,-387.6 231.858,-387.6 231.858,-288.4 44.1422,-288.4"></polygon>
            <text text-anchor="start" x="52.1422" y="-371" font-family="Times,serif" font-size="14.00">Example: 'MyRestNamed'</text>
            <polyline fill="none" stroke="lightgray" points="44.1422,-362.8 231.858,-362.8 "></polyline>
            <text text-anchor="start" x="52.1422" y="-346.2" font-family="Times,serif" font-size="14.00">Provider:RestAuth</text>
            <polyline fill="none" stroke="lightgray" points="44.1422,-338 231.858,-338 "></polyline>
            <text text-anchor="start" x="52.1422" y="-321.4" font-family="Times,serif" font-size="14.00">client_id="571s2121ads4"</text>
            <polyline fill="none" stroke="lightgray" points="44.1422,-313.2 231.858,-313.2 "></polyline>
            <text text-anchor="start" x="52.1422" y="-296.6" font-family="Times,serif" font-size="14.00">client_secret="68ha896sd898"</text>
        </g>
        <!-- REST Genie&#45;&gt;Named Resource -->
        <g id="edge16" class="edge">
            <title>REST Genie:named-&gt;Named Resource</title>
            <path fill="none" stroke="black" d="M134,-581C134,-518.429 135.353,-446.771 136.486,-397.767"></path>
            <polygon fill="black" stroke="black" points="139.987,-397.745 136.723,-387.666 132.989,-397.581 139.987,-397.745"></polygon>
        </g>
        <!-- REST API Definition -->
        <g id="node12" class="node">
            <title>REST API Definition</title>
            <polygon fill="white" stroke="lightgray" points="289.434,-217.2 289.434,-458.8 550.566,-458.8 550.566,-217.2 289.434,-217.2"></polygon>
            <text text-anchor="start" x="297.434" y="-442.2" font-family="Times,serif" font-size="14.00">Example: MyRESTApi</text>
            <polyline fill="none" stroke="lightgray" points="289.434,-434 550.566,-434 "></polyline>
            <text text-anchor="start" x="297.434" y="-417.4" font-family="Times,serif" font-size="14.00">Resource</text>
            <text text-anchor="start" x="297.434" y="-400.6" font-family="Times,serif" font-size="14.00">Example:</text>
            <text text-anchor="start" x="297.434" y="-383.8" font-family="Times,serif" font-size="14.00">https://api.restful.com/v3/</text>
            <polyline fill="none" stroke="lightgray" points="289.434,-375.6 550.566,-375.6 "></polyline>
            <text text-anchor="start" x="297.434" y="-359" font-family="Times,serif" font-size="14.00">Provider:RestAuth</text>
            <polyline fill="none" stroke="lightgray" points="289.434,-350.8 550.566,-350.8 "></polyline>
            <text text-anchor="start" x="297.434" y="-334.2" font-family="Times,serif" font-size="14.00">Schemas</text>
            <text text-anchor="start" x="297.434" y="-317.4" font-family="Times,serif" font-size="14.00">Info record</text>
            <text text-anchor="start" x="297.434" y="-300.6" font-family="Times,serif" font-size="14.00">{ "name" : "string"</text>
            <text text-anchor="start" x="297.434" y="-283.8" font-family="Times,serif" font-size="14.00"> , "enabled" : "boolean" }</text>
            <polyline fill="none" stroke="lightgray" points="289.434,-275.6 550.566,-275.6 "></polyline>
            <text text-anchor="start" x="297.434" y="-259" font-family="Times,serif" font-size="14.00">Actions</text>
            <text text-anchor="start" x="297.434" y="-242.2" font-family="Times,serif" font-size="14.00">Example: AddUserAction</text>
            <text text-anchor="start" x="297.434" y="-225.4" font-family="Times,serif" font-size="14.00">/AddUser?name=username&amp;enabled=value</text>
        </g>
        <!-- REST Genie&#45;&gt;REST API Definition -->
        <g id="edge14" class="edge">
            <title>REST Genie:api-&gt;REST API Definition</title>
            <path fill="none" stroke="black" d="M237,-644C323.872,-644 370.529,-551.895 394.936,-468.914"></path>
            <polygon fill="black" stroke="black" points="398.357,-469.683 397.732,-459.106 391.625,-467.764 398.357,-469.683"></polygon>
        </g>
        <!-- Provider Type -->
        <g id="node10" class="node">
            <title>Provider Type</title>
            <polygon fill="white" stroke="lightgray" points="283.804,-24.8 283.804,-99.2 568.196,-99.2 568.196,-24.8 283.804,-24.8"></polygon>
            <text text-anchor="start" x="291.804" y="-82.6" font-family="Times,serif" font-size="14.00">Example: RestAuth</text>
            <polyline fill="none" stroke="lightgray" points="283.804,-74.4 568.196,-74.4 "></polyline>
            <text text-anchor="start" x="291.804" y="-57.8" font-family="Times,serif" font-size="14.00">auth=https://api.restful.com/oauth2/authenticate</text>
            <polyline fill="none" stroke="lightgray" points="283.804,-49.6 568.196,-49.6 "></polyline>
            <text text-anchor="start" x="291.804" y="-33" font-family="Times,serif" font-size="14.00">getToken=https://api.restful.com/oauth2/token</text>
        </g>
        <!-- Named Resource&#45;&gt;Provider Type -->
        <g id="edge10" class="edge">
            <title>Named Resource:ref-&gt;Provider Type</title>
            <path fill="none" stroke="black" d="M233,-350C299.071,-350 242.48,-264.336 277,-208 301.165,-168.562 338.471,-132.276 369.707,-105.867"></path>
            <polygon fill="black" stroke="black" points="372.063,-108.46 377.506,-99.3699 367.583,-103.082 372.063,-108.46"></polygon>
        </g>
        <!-- REST API Definition&#45;&gt;Provider Type -->
        <g id="edge12" class="edge">
            <title>REST API Definition:ref-&gt;Provider Type</title>
            <path fill="none" stroke="black" d="M552,-363C584.667,-363 562.076,-246.732 551,-216 535.787,-173.789 503.484,-134.768 475.528,-106.698"></path>
            <polygon fill="black" stroke="black" points="477.735,-103.96 468.153,-99.4404 472.826,-108.949 477.735,-103.96"></polygon>
        </g>
    </g>
</svg>