<?xml version="1.0" encoding="UTF-8"?>
<!DOCTYPE svg PUBLIC "-//W3C//DTD SVG 1.1//EN" "http://www.w3.org/Graphics/SVG/1.1/DTD/svg11.dtd">
<svg xmlns="http://www.w3.org/2000/svg" xml:space="preserve" width="1024px" height="1024px" shape-rendering="geometricPrecision" text-rendering="geometricPrecision" image-rendering="optimizeQuality" fill-rule="nonzero" clip-rule="evenodd" viewBox="0 0 10240 10240" xmlns:xlink="http://www.w3.org/1999/xlink">
	<title>3D_glasses icon</title>
	<desc>3D_glasses icon from the IconExperience.com O-Collection. Copyright by INCORS GmbH (www.incors.com).</desc>
	<path id="curve2" fill="#3E9BD5" d="M6669 6080c-89,-175 -174,-356 -261,-531 -39,-78 -85,-152 -137,-222 -131,-175 -191,-356 -191,-575l0 -592 2560 0 0 1920 -1971 0z"/>
	<path id="curve1" fill="#3E9BD5" d="M3571 6080c89,-175 174,-356 261,-531 39,-78 85,-152 137,-222 131,-175 191,-356 191,-575l0 -592 -2560 0 0 1920 1971 0z"/>
	<path id="curve0" fill="#252525" d="M960 3200l8320 0c176,0 320,144 320,320l0 3200c0,176 -144,320 -320,320l-2804 0c-249,0 -462,-132 -573,-354l-354 -707c-83,-167 -243,-266 -429,-266 -186,0 -346,99 -429,266l-354 707c-111,222 -324,354 -573,354l-2804 0c-176,0 -320,-144 -320,-320l0 -3200c0,-176 144,-320 320,-320zm5162 2492c120,240 249,708 547,708l1971 0c176,0 320,-144 320,-320l0 -1920c0,-176 -144,-320 -320,-320l-2560 0c-176,0 -320,144 -320,320l0 592c0,288 83,536 255,767 41,54 76,113 107,173zm-2551 708c123,0 229,-65 285,-175 90,-177 174,-356 262,-533 31,-60 67,-119 107,-173 172,-231 255,-479 255,-767l0 -592c0,-176 -144,-320 -320,-320l-2560 0c-176,0 -320,144 -320,320l0 1920c0,176 144,320 320,320l1971 0z"/>
</svg>
