<?xml version="1.0" encoding="UTF-8"?>
<!DOCTYPE svg PUBLIC "-//W3C//DTD SVG 1.1//EN" "http://www.w3.org/Graphics/SVG/1.1/DTD/svg11.dtd">
<svg xmlns="http://www.w3.org/2000/svg" xml:space="preserve" width="1024px" height="1024px" shape-rendering="geometricPrecision" text-rendering="geometricPrecision" image-rendering="optimizeQuality" fill-rule="nonzero" clip-rule="evenodd" viewBox="0 0 10240 10240" xmlns:xlink="http://www.w3.org/1999/xlink">
	<title>about icon</title>
	<desc>about icon from the IconExperience.com O-Collection. Copyright by INCORS GmbH (www.incors.com).</desc>
	<path id="curve1" fill="#3E9BD5" d="M4700 6720l853 0c118,0 213,96 213,214l0 853c0,117 -95,213 -213,213l-853 0c-117,0 -213,-96 -213,-213l0 -853c0,-118 96,-214 213,-214zm-220 -4480l1280 0c88,0 160,72 160,160l0 1059c0,273 -20,505 -68,773l-309 1736c-13,77 -79,132 -157,132l-532 0c-78,0 -144,-55 -157,-132l-309 -1736c-48,-268 -68,-500 -68,-773l0 -1059c0,-88 72,-160 160,-160z"/>
	<path id="curve0" fill="#252525" d="M5120 640c2474,0 4480,2006 4480,4480 0,2474 -2006,4480 -4480,4480 -2474,0 -4480,-2006 -4480,-4480 0,-2474 2006,-4480 4480,-4480zm0 640c-2121,0 -3840,1719 -3840,3840 0,2121 1719,3840 3840,3840 2121,0 3840,-1719 3840,-3840 0,-2121 -1719,-3840 -3840,-3840z"/>
</svg>
