<?xml version="1.0" encoding="UTF-8"?>
<!DOCTYPE svg PUBLIC "-//W3C//DTD SVG 1.1//EN" "http://www.w3.org/Graphics/SVG/1.1/DTD/svg11.dtd">
<svg xmlns="http://www.w3.org/2000/svg" xml:space="preserve" width="1024px" height="1024px" shape-rendering="geometricPrecision" text-rendering="geometricPrecision" image-rendering="optimizeQuality" fill-rule="nonzero" clip-rule="evenodd" viewBox="0 0 10240 10240" xmlns:xlink="http://www.w3.org/1999/xlink">
	<title>adhesive_tape icon</title>
	<desc>adhesive_tape icon from the IconExperience.com O-Collection. Copyright by INCORS GmbH (www.incors.com).</desc>
	<path id="curve1" fill="#252525" d="M640 6080l1038 259c144,36 242,162 242,311l0 390c0,352 287,640 640,640l1280 0c705,0 1280,-575 1280,-1280l0 -640c0,-884 716,-1600 1600,-1600 884,0 1600,716 1600,1600 0,1067 0,2133 0,3200 0,352 -288,640 -640,640l-6400 0c-352,0 -640,-287 -640,-640l0 -2880zm6080 -960c-353,0 -640,287 -640,640 0,353 287,640 640,640 353,0 640,-287 640,-640 0,-353 -287,-640 -640,-640z"/>
	<path id="curve0" fill="#3E9BD5" d="M6720 2880c1591,0 2880,1289 2880,2880 0,853 -371,1619 -960,2146l0 -2146c0,-1060 -860,-1920 -1920,-1920 -1060,0 -1920,860 -1920,1920l0 640c0,377 -220,705 -538,862 -268,-438 -422,-952 -422,-1502 0,-374 71,-732 201,-1060l-1889 1071c-297,168 -619,211 -949,126l-563 -145 0 -658 721 185c169,44 323,23 476,-63l3608 -2039c384,-190 817,-297 1275,-297z"/>
</svg>
