<?xml version="1.0" encoding="UTF-8"?>
<!DOCTYPE svg PUBLIC "-//W3C//DTD SVG 1.1//EN" "http://www.w3.org/Graphics/SVG/1.1/DTD/svg11.dtd">
<svg xmlns="http://www.w3.org/2000/svg" xml:space="preserve" width="1024px" height="1024px" shape-rendering="geometricPrecision" text-rendering="geometricPrecision" image-rendering="optimizeQuality" fill-rule="nonzero" clip-rule="evenodd" viewBox="0 0 10240 10240" xmlns:xlink="http://www.w3.org/1999/xlink">
	<title>airbrush icon</title>
	<desc>airbrush icon from the IconExperience.com O-Collection. Copyright by INCORS GmbH (www.incors.com).</desc>
	<path id="curve2" fill="#3E9BD5" d="M2240 8960c177,0 320,143 320,320 0,177 -143,320 -320,320 -177,0 -320,-143 -320,-320 0,-177 143,-320 320,-320zm320 -960c177,0 320,143 320,320 0,177 -143,320 -320,320 -177,0 -320,-143 -320,-320 0,-177 143,-320 320,-320zm320 -960c177,0 320,143 320,320 0,177 -143,320 -320,320 -177,0 -320,-143 -320,-320 0,-177 143,-320 320,-320zm-960 320c177,0 320,143 320,320 0,177 -143,320 -320,320 -177,0 -320,-143 -320,-320 0,-177 143,-320 320,-320zm-960 320c177,0 320,143 320,320 0,177 -143,320 -320,320 -177,0 -320,-143 -320,-320 0,-177 143,-320 320,-320zm640 640c177,0 320,143 320,320 0,177 -143,320 -320,320 -177,0 -320,-143 -320,-320 0,-177 143,-320 320,-320z"/>
	<path id="curve1" fill="#3E9BD5" d="M4508 3863c316,-316 701,-444 859,-286 158,158 30,543 -286,859 -316,316 -701,444 -859,286 -158,-158 -30,-543 286,-859z"/>
	<path id="curve0" fill="#252525" d="M3701 5259l303 -303c187,180 455,182 689,104 230,-76 444,-228 614,-398 170,-170 322,-384 398,-614 78,-234 76,-502 -104,-689l799 -799c640,-640 2880,-2240 3200,-1920 320,320 -1280,2560 -1920,3200l0 3200c0,352 -288,640 -640,640l-320 0c-352,0 -640,-287 -640,-640l0 -187c0,-133 -75,-246 -198,-296 -91,-38 -189,-33 -271,12 -127,68 -276,46 -378,-56l-113 -113 -139 139c-343,343 -718,555 -1189,673l-277 69c-36,-290 -266,-521 -556,-556l69 -277c118,-471 330,-846 673,-1189z"/>
</svg>
