<?xml version="1.0" encoding="UTF-8"?>
<!DOCTYPE svg PUBLIC "-//W3C//DTD SVG 1.1//EN" "http://www.w3.org/Graphics/SVG/1.1/DTD/svg11.dtd">
<svg xmlns="http://www.w3.org/2000/svg" xml:space="preserve" width="1024px" height="1024px" shape-rendering="geometricPrecision" text-rendering="geometricPrecision" image-rendering="optimizeQuality" fill-rule="nonzero" clip-rule="evenodd" viewBox="0 0 10240 10240" xmlns:xlink="http://www.w3.org/1999/xlink">
	<title>ammunition_box_open icon</title>
	<desc>ammunition_box_open icon from the IconExperience.com O-Collection. Copyright by INCORS GmbH (www.incors.com).</desc>
	<path id="curve0" fill="#252525" d="M966 1540c28,-148 158,-260 314,-260l3520 1c51,0 102,12 150,38l4774 2546c153,64 230,234 181,391l-306 1224 1 1804c0,249 -132,462 -354,573l-3200 1600c-186,93 -389,98 -572,0l-4480 -2400c-219,-117 -354,-324 -354,-573l0 -1768c0,-249 132,-462 354,-573l855 -428 -1019 -543c-139,-62 -218,-217 -180,-370l316 -1262zm983 1506l161 -642 -619 -330 -161 642 619 330zm702 -1076l131 70 2166 0 -225 -120 -2166 0c30,16 65,32 94,50zm40 744l-161 642 1819 970 161 -642 -1819 -970zm3007 -274l-2166 0c550,293 1100,587 1650,880l2166 0 -1650 -880zm234 1280l225 120 2166 0 -225 -120 -2166 0zm3259 760l-2862 0 -160 640 2862 0 160 -640zm-4100 -486l-161 642 619 330 161 -642 -619 -330zm-291 2893l0 1483 640 343 0 -1483 -640 -343zm-640 1140l0 -1483 -1600 -857 0 1483 1600 857zm-2240 -1200l0 -1483 -640 -342 0 1482 640 343zm7040 -1031l-2880 1440 0 1488 2880 -1440 0 -1488z"/>
</svg>
