<?xml version="1.0" encoding="UTF-8"?>
<!DOCTYPE svg PUBLIC "-//W3C//DTD SVG 1.1//EN" "http://www.w3.org/Graphics/SVG/1.1/DTD/svg11.dtd">
<svg xmlns="http://www.w3.org/2000/svg" xml:space="preserve" width="1024px" height="1024px" shape-rendering="geometricPrecision" text-rendering="geometricPrecision" image-rendering="optimizeQuality" fill-rule="nonzero" clip-rule="evenodd" viewBox="0 0 10240 10240" xmlns:xlink="http://www.w3.org/1999/xlink">
	<title>atom icon</title>
	<desc>atom icon from the IconExperience.com O-Collection. Copyright by INCORS GmbH (www.incors.com).</desc>
	<path id="curve2" fill="#3E9BD5" d="M5120 1920c911,0 1733,381 2316,992l0 0c18,18 35,37 52,56l1 1c17,18 33,36 49,55l4 4c15,18 31,37 46,55l2 2c50,61 98,123 143,188 -207,203 -480,424 -580,502 -634,496 -1337,943 -2033,1345l0 0 0 0c-696,-402 -1399,-849 -2033,-1345 -100,-78 -373,-299 -580,-502 580,-819 1534,-1353 2613,-1353zm-1658 4064c-174,79 -348,154 -523,224 -117,48 -446,174 -726,251 -188,-407 -293,-861 -293,-1339 0,-82 3,-163 9,-244 481,398 1004,769 1533,1108zm4849 -1108c6,81 9,162 9,244 0,478 -105,932 -293,1339 -280,-77 -609,-203 -726,-251 -175,-70 -349,-145 -523,-224 529,-339 1052,-710 1533,-1108zm-1384 2885c-514,353 -1137,559 -1807,559 -670,0 -1293,-206 -1807,-559 614,-228 1225,-511 1807,-815 582,304 1193,587 1807,815z"/>
	<path id="curve1" fill="#252525" d="M7573 2595c1038,-328 1790,-366 1981,-35 354,612 -1345,2255 -3794,3669 -2449,1413 -4721,2063 -5074,1451 -191,-331 218,-963 1021,-1697 30,121 67,240 110,358 -163,190 -232,337 -183,422 177,306 1809,-305 3646,-1366 1837,-1060 3182,-2168 3006,-2474 -50,-85 -211,-99 -459,-53 -80,-96 -165,-188 -254,-275z"/>
	<path id="curve0" fill="#252525" d="M2667 2595c-1038,-328 -1790,-366 -1981,-35 -354,612 1345,2255 3794,3669 2449,1413 4721,2063 5074,1451 191,-331 -218,-963 -1021,-1697 -30,121 -67,240 -110,358 163,190 232,337 183,422 -177,306 -1809,-305 -3646,-1366 -1837,-1060 -3182,-2168 -3006,-2474 50,-85 211,-99 459,-53 80,-96 165,-188 254,-275z"/>
</svg>
