<?xml version="1.0" encoding="UTF-8"?>
<!DOCTYPE svg PUBLIC "-//W3C//DTD SVG 1.1//EN" "http://www.w3.org/Graphics/SVG/1.1/DTD/svg11.dtd">
<svg xmlns="http://www.w3.org/2000/svg" xml:space="preserve" width="1024px" height="1024px" shape-rendering="geometricPrecision" text-rendering="geometricPrecision" image-rendering="optimizeQuality" fill-rule="nonzero" clip-rule="evenodd" viewBox="0 0 10240 10240" xmlns:xlink="http://www.w3.org/1999/xlink">
	<title>balloons icon</title>
	<desc>balloons icon from the IconExperience.com O-Collection. Copyright by INCORS GmbH (www.incors.com).</desc>
	<path id="curve3" fill="#3E9BD5" d="M6116 1280c1217,0 2204,1146 2204,2560 0,1241 -760,2275 -1769,2510l160 479c17,51 9,101 -22,145 -31,43 -76,66 -129,66l-836 0c-54,0 -99,-23 -130,-66 -31,-44 -39,-94 -22,-145l156 -468c-129,-27 -254,-67 -375,-118 821,-564 1367,-1573 1367,-2723 0,-866 -310,-1652 -813,-2228 68,-8 138,-12 209,-12z"/>
	<path id="curve2" fill="#252525" d="M5760 6559c-88,0 -159,-71 -159,-159 0,-88 71,-159 159,-159l730 -2c39,0 75,14 103,37l0 0c236,198 393,489 440,821 44,304 -5,644 -170,974 -117,232 -190,452 -198,683 -8,231 50,480 198,775 39,78 7,174 -72,213 -78,40 -174,8 -213,-71 -173,-345 -241,-644 -232,-927 10,-283 96,-544 232,-815 134,-269 174,-543 139,-787 -34,-233 -135,-438 -288,-584l-669 1z"/>
	<path id="curve1" fill="#252525" d="M3840 640c1414,0 2560,1289 2560,2880 0,1432 -929,2620 -2146,2842l156 467c17,51 9,101 -22,145 -31,43 -77,66 -130,66l-836 0c-53,0 -99,-23 -130,-66 -31,-44 -39,-94 -22,-145l156 -467c-1217,-222 -2146,-1410 -2146,-2842 0,-1591 1146,-2880 2560,-2880zm0 640c-1060,0 -1920,1003 -1920,2240 0,310 54,605 151,873 37,100 112,170 215,199 102,29 203,8 286,-59l4 -2c109,-88 148,-229 100,-361 -73,-198 -116,-417 -116,-650 0,-884 573,-1600 1280,-1600 38,0 75,2 112,6 160,19 308,-83 347,-240l0 -1c23,-92 7,-181 -48,-260 -55,-78 -132,-124 -227,-135 -61,-7 -122,-10 -184,-10z"/>
	<path id="curve0" fill="#252525" d="M3520 6560c-88,0 -160,-72 -160,-160 0,-88 72,-160 160,-160l640 0c33,0 63,10 88,26 317,173 434,473 434,818 0,425 -188,924 -379,1307 -94,187 -104,365 -63,528 53,214 194,408 353,568 63,62 63,164 0,226 -62,63 -164,63 -226,0 -195,-195 -367,-438 -437,-716 -58,-233 -44,-485 88,-748 174,-348 344,-796 344,-1165 0,-223 -66,-415 -243,-524l-599 0z"/>
</svg>
