<?xml version="1.0" encoding="UTF-8"?>
<!DOCTYPE svg PUBLIC "-//W3C//DTD SVG 1.1//EN" "http://www.w3.org/Graphics/SVG/1.1/DTD/svg11.dtd">
<svg xmlns="http://www.w3.org/2000/svg" xml:space="preserve" width="1024px" height="1024px" shape-rendering="geometricPrecision" text-rendering="geometricPrecision" image-rendering="optimizeQuality" fill-rule="nonzero" clip-rule="evenodd" viewBox="0 0 10240 10240" xmlns:xlink="http://www.w3.org/1999/xlink">
	<title>baseball_bat icon</title>
	<desc>baseball_bat icon from the IconExperience.com O-Collection. Copyright by INCORS GmbH (www.incors.com).</desc>
	<path id="curve1" fill="#252525" d="M3630 7250l-1638 1638c-83,83 -113,196 -83,309 29,107 1,225 -83,309 -125,125 -327,125 -452,0l-640 -640c-125,-125 -125,-327 0,-452 84,-84 202,-112 309,-83 113,30 226,0 309,-83l1638 -1638c100,-100 199,-204 297,-311l654 654c-107,98 -211,197 -311,297z"/>
	<path id="curve0" fill="#252525" d="M3708 5815c534,-642 1040,-1347 1530,-1981 273,-353 526,-638 842,-954l1787 -1787c250,-250 656,-250 906,0l374 374c250,250 250,656 0,906l-1787 1787c-316,316 -601,569 -954,842 -634,490 -1339,996 -1981,1530l-717 -717z"/>
</svg>
