<?xml version="1.0" encoding="UTF-8"?>
<!DOCTYPE svg PUBLIC "-//W3C//DTD SVG 1.1//EN" "http://www.w3.org/Graphics/SVG/1.1/DTD/svg11.dtd">
<svg xmlns="http://www.w3.org/2000/svg" xml:space="preserve" width="1024px" height="1024px" shape-rendering="geometricPrecision" text-rendering="geometricPrecision" image-rendering="optimizeQuality" fill-rule="nonzero" clip-rule="evenodd" viewBox="0 0 10240 10240" xmlns:xlink="http://www.w3.org/1999/xlink">
	<title>bear icon</title>
	<desc>bear icon from the IconExperience.com O-Collection. Copyright by INCORS GmbH (www.incors.com).</desc>
	<path id="curve0" fill="#252525" d="M6957 6431l-516 87c182,362 181,809 0,1179 -74,149 -130,302 -184,460 -49,142 -95,287 -161,422 -128,262 -475,357 -739,377 -277,20 -721,-29 -835,-336 -16,-43 -24,-88 -24,-133 0,-197 54,-329 146,-496 56,-102 94,-174 94,-294 0,-411 -431,-717 -761,-864 -202,-90 -350,-285 -520,-423 -192,-157 -380,-214 -628,-188 -166,17 -304,-34 -461,-82 -149,-46 -292,-77 -447,-95 -66,-8 -150,6 -215,17 -196,33 -384,73 -584,44 -287,-41 -561,-266 -725,-500 -36,-51 -59,-107 -70,-168 -45,-249 141,-485 296,-656 68,-75 140,-146 210,-218 23,-25 71,-73 95,-107 31,-294 167,-516 408,-686 89,-63 183,-113 279,-163 58,-31 123,-64 177,-103 65,-213 195,-436 437,-448 142,-7 262,65 353,167 123,-31 205,-100 311,-166 129,-79 258,-156 391,-228 177,-96 407,-212 606,-243 245,-40 472,-34 717,4 164,26 326,63 489,92 183,33 363,55 549,60 532,-43 1022,-76 1556,6 739,114 1386,420 1944,926 253,229 483,663 606,980 95,248 169,527 169,795 -1,338 -47,687 -104,1020 -67,397 -155,792 -248,1183 -41,172 -89,336 -157,498 -61,146 -135,287 -204,428 -138,282 -559,364 -839,378 -287,15 -811,-28 -915,-364 -46,-148 8,-335 89,-461 52,-81 122,-151 171,-233 54,-91 69,-189 69,-295 0,-126 -82,-184 -174,-256 -89,-68 -176,-131 -257,-208 -212,-201 -332,-438 -394,-709zm-3527 -1941c123,-253 119,-455 46,-602 -42,-86 -107,-152 -185,-197 -73,-43 -157,-67 -243,-73 -185,-12 -385,60 -507,214 -55,69 -43,170 26,225 69,55 169,43 224,-26 54,-68 147,-100 235,-94 39,3 75,13 105,30 25,15 46,35 59,62 32,65 26,170 -48,322 -38,80 -5,175 75,213 79,39 174,5 213,-74zm-523 2176c2,-42 5,-84 7,-125 1,-61 55,-108 115,-99 53,8 102,24 151,48 47,23 92,53 138,91 71,57 130,114 189,170 113,108 221,212 380,283 99,44 236,119 355,214 92,73 174,159 224,253 17,32 17,73 -5,105 -103,151 -239,291 -367,421 -75,78 -138,162 -194,254 -54,88 -96,174 -133,250 -78,159 -279,258 -505,298 -229,42 -585,35 -775,-114 -74,-59 -118,-134 -118,-228 0,-336 149,-445 371,-672 113,-241 141,-710 167,-1149z"/>
</svg>
