<?xml version="1.0" encoding="UTF-8"?>
<!DOCTYPE svg PUBLIC "-//W3C//DTD SVG 1.1//EN" "http://www.w3.org/Graphics/SVG/1.1/DTD/svg11.dtd">
<svg xmlns="http://www.w3.org/2000/svg" xml:space="preserve" width="1024px" height="1024px" shape-rendering="geometricPrecision" text-rendering="geometricPrecision" image-rendering="optimizeQuality" fill-rule="nonzero" clip-rule="evenodd" viewBox="0 0 10240 10240" xmlns:xlink="http://www.w3.org/1999/xlink">
	<title>bed_empty icon</title>
	<desc>bed_empty icon from the IconExperience.com O-Collection. Copyright by INCORS GmbH (www.incors.com).</desc>
	<path id="curve2" fill="#3E9BD5" d="M7942 5440c916,0 840,1260 291,1280l-908 0c-198,0 -605,0 -605,-400 0,-560 617,-880 1222,-880z"/>
	<path id="curve1" fill="#3E9BD5" d="M4480 4800c815,0 1920,384 1920,1152 0,384 -320,768 -640,768l-3520 0c-320,0 -640,-384 -640,-768 0,-603 960,-1152 2880,-1152z"/>
	<path id="curve0" fill="#252525" d="M9600 4160l0 4800 -640 0 0 -320c0,-176 -144,-320 -320,-320l-7040 0c-176,0 -320,144 -320,320l0 320 -640 0 0 -3520c0,-177 143,-320 320,-320 177,0 320,143 320,320l0 1600 7680 0 0 -2880c0,-177 143,-320 320,-320 177,0 320,143 320,320z"/>
</svg>
