<?xml version="1.0" encoding="UTF-8"?>
<!DOCTYPE svg PUBLIC "-//W3C//DTD SVG 1.1//EN" "http://www.w3.org/Graphics/SVG/1.1/DTD/svg11.dtd">
<svg xmlns="http://www.w3.org/2000/svg" xml:space="preserve" width="1024px" height="1024px" shape-rendering="geometricPrecision" text-rendering="geometricPrecision" image-rendering="optimizeQuality" fill-rule="nonzero" clip-rule="evenodd" viewBox="0 0 10240 10240" xmlns:xlink="http://www.w3.org/1999/xlink">
	<title>beer_glass icon</title>
	<desc>beer_glass icon from the IconExperience.com O-Collection. Copyright by INCORS GmbH (www.incors.com).</desc>
	<path id="curve2" fill="#3E9BD5" d="M3689 3520l-218 1763c-57,470 84,886 399,1237 347,388 735,532 1250,532 515,0 903,-144 1250,-532 315,-351 456,-767 399,-1237l-218 -1763 -2862 0z"/>
	<path id="curve1" fill="#252525" d="M3520 8959l1280 0 0 -962c-649,-62 -1209,-355 -1644,-842 -500,-560 -729,-1248 -637,-1996l297 -2669c37,-326 309,-570 637,-570l3335 0c327,0 599,244 636,570l297 2669c92,748 -137,1436 -637,1996 -435,487 -995,780 -1644,842l0 962 1280 0c176,0 320,144 320,320l0 321 -3840 0 0 -321c0,-176 144,-320 320,-320zm3237 -6398l-3274 0 -329 2676c-70,566 98,1068 477,1492 409,458 883,640 1489,640 606,0 1080,-182 1489,-640 379,-424 547,-926 477,-1492l-329 -2676z"/>
	<path id="curve0" fill="#252525" d="M4160 640l1920 0c529,0 960,431 960,960l0 33c-81,-21 -165,-33 -252,-33l-68 0 0 0c0,-353 -287,-640 -640,-640l-1920 0c-353,0 -640,287 -640,640l0 0 -67 0c-88,0 -172,12 -253,33l0 -33c0,-529 431,-960 960,-960z"/>
</svg>
