<?xml version="1.0" encoding="UTF-8"?>
<!DOCTYPE svg PUBLIC "-//W3C//DTD SVG 1.1//EN" "http://www.w3.org/Graphics/SVG/1.1/DTD/svg11.dtd">
<svg xmlns="http://www.w3.org/2000/svg" xml:space="preserve" width="1024px" height="1024px" shape-rendering="geometricPrecision" text-rendering="geometricPrecision" image-rendering="optimizeQuality" fill-rule="nonzero" clip-rule="evenodd" viewBox="0 0 10240 10240" xmlns:xlink="http://www.w3.org/1999/xlink">
	<title>beer_garden_table icon</title>
	<desc>beer_garden_table icon from the IconExperience.com O-Collection. Copyright by INCORS GmbH (www.incors.com).</desc>
	<path id="curve2" fill="#252525" d="M8320,3520 9600,3520 9600,5440 9280,5440 9280,4160 6400,7040 6400,8320 6080,8320 6080,7040 5440,7040 5440,8320 5120,8320 5120,6720z"/>
	<path id="curve1" fill="#252525" d="M5440,2560 8000,2560 8000,3387 7680,3707 7680,3200 4800,6080 4800,8320 4480,8320 4480,6080 2560,6080 2560,8320 2240,8320 2240,5760z"/>
	<path id="curve0" fill="#252525" d="M3840 3520l187 0 -2013 2014c-63,62 -94,138 -94,226l0 2560 -320 0 0 -1280 -640 0 0 1280 -320 0 0 -1600 3200 -3200z"/>
</svg>
