<?xml version="1.0" encoding="UTF-8"?>
<!DOCTYPE svg PUBLIC "-//W3C//DTD SVG 1.1//EN" "http://www.w3.org/Graphics/SVG/1.1/DTD/svg11.dtd">
<svg xmlns="http://www.w3.org/2000/svg" xml:space="preserve" width="1024px" height="1024px" shape-rendering="geometricPrecision" text-rendering="geometricPrecision" image-rendering="optimizeQuality" fill-rule="nonzero" clip-rule="evenodd" viewBox="0 0 10240 10240" xmlns:xlink="http://www.w3.org/1999/xlink">
	<title>beverage_can icon</title>
	<desc>beverage_can icon from the IconExperience.com O-Collection. Copyright by INCORS GmbH (www.incors.com).</desc>
	<path id="curve1" fill="#252525" d="M5212 1619l1095 -157c47,-7 81,-44 84,-90 4,-47 -25,-89 -70,-102 -241,-70 -548,-121 -892,-145 -35,-3 -65,11 -86,39l-224 298c-24,33 -26,74 -6,109 21,35 59,53 99,48z"/>
	<path id="curve0" fill="#252525" d="M7670 9016c-112,327 -1211,584 -2550,584 -1339,0 -2438,-257 -2550,-584 -17,-49 -41,-87 -77,-123l-66 -66c-124,-124 -187,-276 -187,-452l0 -5870c0,-176 63,-328 187,-452l39 -39c63,-63 94,-138 94,-227l0 -187c0,-530 1146,-960 2560,-960 1414,0 2560,430 2560,960l0 0 0 187c0,89 31,164 94,227l39 39c124,124 187,276 187,452l0 5870c0,176 -63,328 -187,452l-66 66c-36,36 -60,74 -77,123zm-4790 -6059l0 5043c0,1 0,2 0,4 1,175 144,318 320,318 176,0 320,-144 320,-320 0,-1464 0,-3907 0,-5045 0,-124 -66,-231 -178,-286 -214,-107 -462,50 -462,286zm2240 -1997c-1060,0 -1920,287 -1920,640 0,353 860,640 1920,640 1060,0 1920,-287 1920,-640 0,-353 -860,-640 -1920,-640z"/>
</svg>
