<?xml version="1.0" encoding="UTF-8"?>
<!DOCTYPE svg PUBLIC "-//W3C//DTD SVG 1.1//EN" "http://www.w3.org/Graphics/SVG/1.1/DTD/svg11.dtd">
<svg xmlns="http://www.w3.org/2000/svg" xml:space="preserve" width="1024px" height="1024px" shape-rendering="geometricPrecision" text-rendering="geometricPrecision" image-rendering="optimizeQuality" fill-rule="nonzero" clip-rule="evenodd" viewBox="0 0 10240 10240" xmlns:xlink="http://www.w3.org/1999/xlink">
	<title>bird icon</title>
	<desc>bird icon from the IconExperience.com O-Collection. Copyright by INCORS GmbH (www.incors.com).</desc>
	<path id="curve1" fill="#252525" d="M5216 9584c-71,53 -171,39 -223,-32 -53,-70 -39,-170 31,-223l200 -150 -439 73c-87,15 -170,-44 -184,-131 -15,-87 44,-169 131,-184l939 -156 -126 -1387c105,-32 208,-69 310,-110l138 1512 443 148c84,27 129,117 101,201 -27,83 -117,129 -201,101l-464 -155 -656 493zm-2533 -362c-70,53 -170,39 -223,-32 -52,-70 -38,-170 32,-223l200 -150 -440 74c-87,14 -169,-45 -183,-132 -15,-87 44,-169 131,-183l1005 -168 489 -977c105,29 212,53 321,71l-479 957 368 123c83,27 129,118 101,201 -27,84 -118,129 -201,101l-464 -154 -657 492z"/>
	<path id="curve0" fill="#252525" d="M1594 2918l-835 -201 624 -378 -624 -418 834 -200c208,-703 781,-1046 1508,-1046 784,0 1430,317 1700,1097 26,75 55,150 88,223 98,216 224,401 379,578 222,254 489,485 750,698 68,55 131,129 186,196 79,95 153,195 225,295 181,250 354,506 527,762 109,161 219,323 330,484 58,84 121,165 189,241 404,451 994,710 1548,924 130,49 372,149 356,324 -10,114 -126,183 -219,228 -112,53 -237,92 -356,129 -82,26 -406,118 -461,170 -9,9 -15,20 -19,32 -9,30 -6,72 -3,103 7,80 19,159 -13,236 -64,151 -247,172 -391,172 -459,0 -882,-169 -1281,-381 -147,-78 -290,-165 -437,-240 -32,-17 -166,-84 -201,-75 -290,139 -597,251 -914,308 -189,34 -365,45 -556,45 -969,0 -1816,-489 -2378,-1264 -260,-359 -452,-771 -554,-1202 -98,-411 -115,-847 -20,-1260 40,-172 63,-400 18,-580z"/>
</svg>
