<?xml version="1.0" encoding="UTF-8"?>
<!DOCTYPE svg PUBLIC "-//W3C//DTD SVG 1.1//EN" "http://www.w3.org/Graphics/SVG/1.1/DTD/svg11.dtd">
<svg xmlns="http://www.w3.org/2000/svg" xml:space="preserve" width="1024px" height="1024px" shape-rendering="geometricPrecision" text-rendering="geometricPrecision" image-rendering="optimizeQuality" fill-rule="nonzero" clip-rule="evenodd" viewBox="0 0 10240 10240" xmlns:xlink="http://www.w3.org/1999/xlink">
	<title>book_headphones icon</title>
	<desc>book_headphones icon from the IconExperience.com O-Collection. Copyright by INCORS GmbH (www.incors.com).</desc>
	<path id="curve1" fill="#3E9BD5" d="M8960 7360l-320 0c-9,0 -18,0 -27,1 -151,-908 -941,-1601 -1893,-1601 -952,0 -1742,693 -1893,1601 -9,-1 -18,-1 -27,-1l-320 0c-353,0 -640,287 -640,640l0 960c0,353 288,640 640,640l320 0c176,0 320,-144 320,-320l0 -1600c0,-884 716,-1600 1600,-1600 884,0 1600,716 1600,1600l0 0 0 1600c0,176 144,320 320,320l320 0c353,0 640,-287 640,-640l0 -960c0,-353 -287,-640 -640,-640z"/>
	<path id="curve0" fill="#252525" d="M7680 8960c116,0 226,-31 320,-86l0 -1194c0,-707 -573,-1280 -1280,-1280 -707,0 -1280,573 -1280,1280l0 1280 2240 0zm640 -2848l0 -2912c0,-353 -287,-640 -640,-640l0 0c-1921,2 -3204,0 -5120,0 -353,0 -640,-287 -640,-640 0,-353 287,-640 640,-640l4800 0c177,0 320,143 320,320l0 640 0 0c237,0 463,86 640,245l0 -1205c0,-362 -287,-645 -640,-640 -1920,0 -3200,0 -5120,0 -707,0 -1280,573 -1280,1280l0 5760c0,707 573,1280 1280,1280l960 0 0 -960c0,-529 431,-960 960,-960l93 0c278,-938 1147,-1600 2147,-1600 621,0 1190,255 1600,672z"/>
</svg>
