<?xml version="1.0" encoding="UTF-8"?>
<!DOCTYPE svg PUBLIC "-//W3C//DTD SVG 1.1//EN" "http://www.w3.org/Graphics/SVG/1.1/DTD/svg11.dtd">
<svg xmlns="http://www.w3.org/2000/svg" xml:space="preserve" width="1024px" height="1024px" shape-rendering="geometricPrecision" text-rendering="geometricPrecision" image-rendering="optimizeQuality" fill-rule="nonzero" clip-rule="evenodd" viewBox="0 0 10240 10240" xmlns:xlink="http://www.w3.org/1999/xlink">
	<title>bottle icon</title>
	<desc>bottle icon from the IconExperience.com O-Collection. Copyright by INCORS GmbH (www.incors.com).</desc>
	<path id="curve1" fill="#252525" d="M3200 3200l619 0c17,10 34,19 52,27 386,184 807,278 1234,278 428,0 849,-94 1235,-278 18,-8 35,-17 51,-27l649 0c353,0 640,287 640,640l0 5120c0,353 -287,640 -640,640l-3840 0c-353,0 -640,-287 -640,-640l0 -5120c0,-353 287,-640 640,-640zm0 1280l0 3840c0,177 143,320 320,320 177,0 320,-143 320,-320l0 -3840c0,-177 -143,-320 -320,-320 -177,0 -320,143 -320,320z"/>
	<path id="curve0" fill="#3E9BD5" d="M6217 2953c-332,159 -704,247 -1097,247 -393,0 -765,-88 -1097,-247 -115,-54 -183,-162 -183,-289l0 -1704c0,-176 144,-320 320,-320l1920 0c176,0 320,144 320,320l0 1704c0,127 -68,235 -183,289z"/>
</svg>
