<?xml version="1.0" encoding="UTF-8"?>
<!DOCTYPE svg PUBLIC "-//W3C//DTD SVG 1.1//EN" "http://www.w3.org/Graphics/SVG/1.1/DTD/svg11.dtd">
<svg xmlns="http://www.w3.org/2000/svg" xml:space="preserve" width="1024px" height="1024px" shape-rendering="geometricPrecision" text-rendering="geometricPrecision" image-rendering="optimizeQuality" fill-rule="nonzero" clip-rule="evenodd" viewBox="0 0 10240 10240" xmlns:xlink="http://www.w3.org/1999/xlink">
	<title>box_surprise icon</title>
	<desc>box_surprise icon from the IconExperience.com O-Collection. Copyright by INCORS GmbH (www.incors.com).</desc>
	<path id="curve1" fill="#3E9BD5" d="M3200 6652l640 304 0 640 -640 -304 0 -640zm-960 -1895l0 -160c0,-529 431,-756 960,-505l640 304c529,250 960,886 960,1415 0,475 -354,714 -824,559 -81,-27 -136,12 -136,94l0 332 -640 -304 0 -331c0,-399 292,-596 686,-466 158,52 274,-29 274,-188 0,-176 -144,-388 -320,-471l-640 -304c-176,-83 -320,-7 -320,168l0 160 -640 -303z"/>
	<path id="curve0" fill="#252525" d="M1634 1979l2240 -1120c186,-93 386,-93 572,0l3520 1760c222,111 354,324 354,572l0 4649c0,248 -132,461 -354,572l-2240 1120c-186,93 -386,93 -572,0l-3520 -1760c-222,-111 -354,-324 -354,-572l0 -4649c0,-248 132,-461 354,-572zm1285 72l-567 284 3088 1544 567 -283 -3088 -1545zm713 -356l3088 1544 528 -264c-1029,-515 -2059,-1029 -3088,-1544l-528 264zm3408 2097l0 604 -640 320 0 -604 -640 320 0 4368c161,-80 1920,-960 1920,-960l0 -4368 -640 320zm-1920 5008l0 -4368 -3200 -1600c0,1456 0,2912 0,4368l3200 1600z"/>
</svg>
