<?xml version="1.0" encoding="UTF-8"?>
<!DOCTYPE svg PUBLIC "-//W3C//DTD SVG 1.1//EN" "http://www.w3.org/Graphics/SVG/1.1/DTD/svg11.dtd">
<svg xmlns="http://www.w3.org/2000/svg" xml:space="preserve" width="1024px" height="1024px" shape-rendering="geometricPrecision" text-rendering="geometricPrecision" image-rendering="optimizeQuality" fill-rule="nonzero" clip-rule="evenodd" viewBox="0 0 10240 10240" xmlns:xlink="http://www.w3.org/1999/xlink">
	<title>briefcase2 icon</title>
	<desc>briefcase2 icon from the IconExperience.com O-Collection. Copyright by INCORS GmbH (www.incors.com).</desc>
	<path id="curve4" fill="#252525" d="M9600 6155c0,935 0,1870 0,2805 0,352 -288,640 -640,640 -2560,0 -5120,0 -7680,0 -353,0 -640,-287 -640,-640l0 -2805c170,152 394,245 640,245l2560 0c0,241 133,451 330,560 -6,25 -10,52 -10,80l0 1280c0,176 144,320 320,320l1280 0c176,0 320,-144 320,-320l0 -1280c0,-28 -4,-55 -10,-80 197,-109 330,-319 330,-560l2560 0c246,0 470,-93 640,-245z"/>
	<path id="curve3" fill="#252525" d="M9600 5440c0,352 -288,640 -640,640l-2560 0 0 -3520 2560 0c352,0 639,287 640,639 0,190 0,2241 0,2241zm-8960 1l0 -1281 0 -960c0,-353 287,-640 640,-640l2560 0 0 3520 -2560 0c-352,0 -639,-287 -640,-639z"/>
	<path id="curve2" fill="#3E9BD5" d="M4480,7040 5760,7040 5760,8320 4480,8320z"/>
	<path id="curve1" fill="#252525" d="M4160 2560l1920 0 0 3840c0,176 -144,320 -320,320l-1280 0c-176,0 -320,-144 -320,-320l0 -3840z"/>
	<path id="curve0" fill="#252525" d="M3840 1280l2560 0c353,0 640,288 640,640l0 320 -640 0 0 -320 -2560 0 0 320 -640 0 0 -320c0,-353 288,-640 640,-640z"/>
</svg>
