<?xml version="1.0" encoding="UTF-8"?>
<!DOCTYPE svg PUBLIC "-//W3C//DTD SVG 1.1//EN" "http://www.w3.org/Graphics/SVG/1.1/DTD/svg11.dtd">
<svg xmlns="http://www.w3.org/2000/svg" xml:space="preserve" width="1024px" height="1024px" shape-rendering="geometricPrecision" text-rendering="geometricPrecision" image-rendering="optimizeQuality" fill-rule="nonzero" clip-rule="evenodd" viewBox="0 0 10240 10240" xmlns:xlink="http://www.w3.org/1999/xlink">
	<title>businessmen icon</title>
	<desc>businessmen icon from the IconExperience.com O-Collection. Copyright by INCORS GmbH (www.incors.com).</desc>
	<path id="curve5" fill="#252525" d="M9600 7391c0,575 -1214,849 -2246,914l290 -283c79,-77 112,-179 92,-288l-302 -1615 52 -50c166,-162 255,-370 255,-602l0 -39c0,-30 -4,-59 -11,-86 178,-63 348,-145 505,-244 888,637 1365,873 1365,2293zm-3833 -2159c85,41 173,78 263,110 -7,27 -11,56 -11,86l0 39c0,232 89,440 255,602l52 50 -115 616c-271,-334 -657,-597 -1007,-851 222,-185 413,-405 563,-652z"/>
	<path id="curve4" fill="#3E9BD5" d="M6462 7133l210 -1124 -175 -170c-105,-102 -158,-227 -158,-372l0 -39c174,38 355,58 541,58 186,0 367,-20 541,-58l0 39c0,145 -53,270 -158,372l-175 170 333 1784 -541 527 -175 -170c-26,-354 -92,-700 -243,-1017z"/>
	<path id="curve3" fill="#252525" d="M6880 960c1202,0 2176,941 2176,2103 0,1161 -974,2103 -2176,2103 -346,0 -673,-78 -964,-217 147,-325 228,-685 228,-1063 0,-840 -400,-1587 -1021,-2063 396,-523 1035,-863 1757,-863z"/>
	<path id="curve2" fill="#252525" d="M6400 8591c0,630 -1313,928 -2413,995l332 -333c77,-76 108,-176 89,-283l-12 -63c17,-2 33,-4 49,-6 254,-32 1091,-177 1315,-379 -10,-1007 -235,-1217 -879,-1686 -213,98 -435,172 -664,221 129,-159 196,-349 196,-558l0 -70c0,-31 -4,-60 -12,-88 188,-67 366,-154 532,-259 955,704 1467,953 1467,2509zm-3347 995c-1100,-67 -2413,-364 -2413,-994 0,-1555 514,-1807 1467,-2510 166,105 344,192 532,259 -8,28 -12,57 -12,88l0 70c0,209 67,399 196,558 -229,-49 -451,-123 -664,-221 -644,469 -869,681 -879,1686 224,202 1062,347 1315,379 16,2 32,4 49,6l-12 63c-19,107 12,207 89,283l332 333z"/>
	<path id="curve1" fill="#3E9BD5" d="M2947 9027l353 -1939 -185 -184c-112,-112 -168,-248 -168,-405l0 -70c185,41 376,62 573,62 197,0 388,-21 573,-62l0 70c0,157 -56,293 -168,405l-185 184 353 1939 -573 573 -573 -573z"/>
	<path id="curve0" fill="#252525" d="M3520 1600c1272,0 2304,1023 2304,2286 0,1262 -1032,2285 -2304,2285 -1272,0 -2304,-1023 -2304,-2285 0,-1263 1032,-2286 2304,-2286z"/>
</svg>
