<?xml version="1.0" encoding="UTF-8"?>
<!DOCTYPE svg PUBLIC "-//W3C//DTD SVG 1.1//EN" "http://www.w3.org/Graphics/SVG/1.1/DTD/svg11.dtd">
<svg xmlns="http://www.w3.org/2000/svg" xml:space="preserve" width="1024px" height="1024px" shape-rendering="geometricPrecision" text-rendering="geometricPrecision" image-rendering="optimizeQuality" fill-rule="nonzero" clip-rule="evenodd" viewBox="0 0 10240 10240" xmlns:xlink="http://www.w3.org/1999/xlink">
	<title>cabinet_open icon</title>
	<desc>cabinet_open icon from the IconExperience.com O-Collection. Copyright by INCORS GmbH (www.incors.com).</desc>
	<path id="curve2" fill="#252525" d="M8000 8640l0 640 0 320 -5760 0 0 -320 0 -640c-176,0 -320,-144 -320,-320l0 -7040c0,-353 287,-640 640,-640l5120 0c353,0 640,287 640,640l0 7040c0,176 -144,320 -320,320l0 0zm-5120 -7360c-176,0 -320,144 -320,320l0 2799 -420 210 420 839 0 3192c0,176 144,320 320,320l4480 0c176,0 320,-144 320,-320l0 -3200 -830 0 -320 -640 1150 0 0 -3200c0,-176 -144,-320 -320,-320l-4480 0z"/>
	<path id="curve1" fill="#3E9BD5" d="M2880 1600l4480 0 0 2880 -990 0 -796 -1590 -2694 1349 0 -2639zm960 320l0 320c0,176 144,320 320,320l1920 0c176,0 320,-144 320,-320l0 -320 -2560 0z"/>
	<path id="curve0" fill="#3E9BD5" d="M2880 5760l4480 0 0 2880 -4480 0 0 -2880zm957 320l0 320c0,176 144,320 320,320l1920 0c176,0 320,-144 320,-320l0 -320 -2560 0z"/>
</svg>
