<?xml version="1.0" encoding="UTF-8"?>
<!DOCTYPE svg PUBLIC "-//W3C//DTD SVG 1.1//EN" "http://www.w3.org/Graphics/SVG/1.1/DTD/svg11.dtd">
<svg xmlns="http://www.w3.org/2000/svg" xml:space="preserve" width="1024px" height="1024px" shape-rendering="geometricPrecision" text-rendering="geometricPrecision" image-rendering="optimizeQuality" fill-rule="nonzero" clip-rule="evenodd" viewBox="0 0 10240 10240" xmlns:xlink="http://www.w3.org/1999/xlink">
	<title>cabinet_warning icon</title>
	<desc>cabinet_warning icon from the IconExperience.com O-Collection. Copyright by INCORS GmbH (www.incors.com).</desc>
	<path id="curve2" fill="#3E9BD5" d="M2880 1600l4480 0 0 6080 -4480 0 0 -6080zm2516 1114c-59,-101 -159,-159 -276,-159 -117,0 -217,58 -276,159l-1683 2885c-60,101 -60,218 -1,320 58,102 159,161 277,161l3366 0c118,0 219,-59 277,-161 59,-102 59,-219 -1,-320l-1683 -2885z"/>
	<path id="curve1" fill="#3E9BD5" d="M5120 5120c177,0 320,143 320,320 0,177 -143,320 -320,320 -177,0 -320,-143 -320,-320 0,-177 143,-320 320,-320zm-160 -1600l320 0c88,0 160,72 160,160l0 315c0,115 -13,213 -42,325l-135 514c-16,60 -81,88 -143,88 -62,0 -127,-28 -143,-88l-135 -514c-29,-112 -42,-210 -42,-325l0 -315c0,-88 72,-160 160,-160z"/>
	<path id="curve0" fill="#252525" d="M8000 8640l0 960 -5760 0 0 -960c-176,0 -320,-144 -320,-320l0 -7040c0,-353 287,-640 640,-640l5120 0c353,0 640,287 640,640l0 7040c0,176 -144,320 -320,320l0 0zm-5120 -7360c-176,0 -320,144 -320,320l0 6080c0,176 144,320 320,320l4480 0c176,0 320,-144 320,-320l0 -6080c0,-176 -144,-320 -320,-320l-4480 0z"/>
</svg>
