<?xml version="1.0" encoding="UTF-8"?>
<!DOCTYPE svg PUBLIC "-//W3C//DTD SVG 1.1//EN" "http://www.w3.org/Graphics/SVG/1.1/DTD/svg11.dtd">
<svg xmlns="http://www.w3.org/2000/svg" xml:space="preserve" width="1024px" height="1024px" shape-rendering="geometricPrecision" text-rendering="geometricPrecision" image-rendering="optimizeQuality" fill-rule="nonzero" clip-rule="evenodd" viewBox="0 0 10240 10240" xmlns:xlink="http://www.w3.org/1999/xlink">
	<title>cake icon</title>
	<desc>cake icon from the IconExperience.com O-Collection. Copyright by INCORS GmbH (www.incors.com).</desc>
	<path id="curve0" fill="#252525" d="M2441 2739c51,32 103,65 156,99 123,-30 250,-58 381,-84 67,-87 153,-162 237,-229 169,-134 354,-252 528,-381 65,-47 129,-96 191,-148 108,-92 257,-102 377,-27 248,157 524,325 748,515 29,25 57,50 84,76 364,1 719,17 1058,47 135,-100 277,-193 412,-293 65,-47 129,-96 191,-148 108,-92 257,-102 377,-27 248,157 524,325 748,515 117,100 227,215 291,351 850,291 1380,701 1380,1155l0 3840c0,884 -2006,1600 -4480,1600 -2474,0 -4480,-716 -4480,-1600l0 -3840c0,-314 254,-607 692,-854 174,-140 361,-260 541,-392 65,-47 129,-96 191,-148 108,-92 257,-102 377,-27zm4569 -329c-404,341 -970,620 -970,855 0,235 430,425 960,425 22,0 44,0 65,-1 10,-8 20,-16 30,-24 170,-134 354,-252 528,-381 65,-47 129,-96 191,-148 26,-22 54,-40 84,-52 -121,-179 -418,-378 -888,-674zm-2870 -170c-404,341 -970,620 -970,855 0,235 430,425 960,425 530,0 960,-190 960,-425 0,-235 -319,-458 -950,-855zm-1870 770c-404,341 -970,620 -970,855 0,235 430,425 960,425 27,0 54,-1 81,-2l4 -3c169,-134 354,-252 528,-381 65,-47 129,-96 191,-148 31,-27 66,-46 102,-59 -115,-183 -415,-384 -896,-687zm5750 370c-403,341 -970,620 -970,855 0,235 430,425 960,425 530,0 960,-190 960,-425 0,-235 -319,-458 -950,-855zm-1890 800c-404,341 -970,620 -970,855 0,235 430,425 960,425 530,0 960,-190 960,-425 0,-235 -319,-458 -950,-855zm-2860 -180c-404,341 -970,620 -970,855 0,235 430,425 960,425 530,0 960,-190 960,-425 0,-235 -319,-458 -950,-855zm5690 1251c-916,652 -2766,829 -3840,829 -1074,0 -2924,-177 -3840,-829l0 737c1074,564 2653,732 3840,732 1187,0 2765,-168 3840,-732l0 -737zm0 1600c-916,652 -2766,829 -3840,829 -1074,0 -2924,-177 -3840,-829l0 737c1074,564 2653,732 3840,732 1187,0 2766,-168 3840,-732l0 -737z"/>
</svg>
