<?xml version="1.0" encoding="UTF-8"?>
<!DOCTYPE svg PUBLIC "-//W3C//DTD SVG 1.1//EN" "http://www.w3.org/Graphics/SVG/1.1/DTD/svg11.dtd">
<svg xmlns="http://www.w3.org/2000/svg" xml:space="preserve" width="1024px" height="1024px" shape-rendering="geometricPrecision" text-rendering="geometricPrecision" image-rendering="optimizeQuality" fill-rule="nonzero" clip-rule="evenodd" viewBox="0 0 10240 10240" xmlns:xlink="http://www.w3.org/1999/xlink">
	<title>can_closed icon</title>
	<desc>can_closed icon from the IconExperience.com O-Collection. Copyright by INCORS GmbH (www.incors.com).</desc>
	<path id="curve1" fill="#252525" d="M8000 7991c205,148 320,314 320,489 0,619 -1433,1120 -3200,1120 -1767,0 -3200,-501 -3200,-1120 0,-175 115,-341 320,-489l0 9c0,530 1289,960 2880,960 1591,0 2880,-430 2880,-960l0 -9zm-4800 -4471c-176,0 -320,144 -320,320l0 3520c0,176 144,320 320,320l0 0c176,0 320,-144 320,-320l0 -3520c0,-176 -144,-320 -320,-320l0 0zm4800 4160c0,530 -1289,960 -2880,960 -1591,0 -2880,-430 -2880,-960l0 -5014c637,330 1690,545 2882,545 1189,0 2241,-215 2878,-543l0 5012z"/>
	<path id="curve0" fill="#252525" d="M5122 651c1767,0 3200,501 3200,1120 0,619 -1433,1120 -3200,1120 -1768,0 -3200,-501 -3200,-1120 0,-619 1432,-1120 3200,-1120zm0 640c1060,0 1920,215 1920,480 0,265 -860,480 -1920,480 -1061,0 -1920,-215 -1920,-480 0,-265 859,-480 1920,-480zm0 -320c-1414,0 -2560,358 -2560,800 0,442 1146,800 2560,800 1414,0 2560,-358 2560,-800 0,-442 -1146,-800 -2560,-800z"/>
</svg>
