<?xml version="1.0" encoding="UTF-8"?>
<!DOCTYPE svg PUBLIC "-//W3C//DTD SVG 1.1//EN" "http://www.w3.org/Graphics/SVG/1.1/DTD/svg11.dtd">
<svg xmlns="http://www.w3.org/2000/svg" xml:space="preserve" width="1024px" height="1024px" shape-rendering="geometricPrecision" text-rendering="geometricPrecision" image-rendering="optimizeQuality" fill-rule="nonzero" clip-rule="evenodd" viewBox="0 0 10240 10240" xmlns:xlink="http://www.w3.org/1999/xlink">
	<title>candle icon</title>
	<desc>candle icon from the IconExperience.com O-Collection. Copyright by INCORS GmbH (www.incors.com).</desc>
	<path id="curve1" fill="#252525" d="M3520 5120l1280 0 0 -320 640 0 0 320 1280 0c176,0 320,144 320,320 0,1280 0,2560 0,3840 0,176 -144,320 -320,320 -862,0 -2338,0 -3200,0 -176,0 -320,-144 -320,-320l0 -1307c-50,17 0,27 -160,27 -250,0 -480,-165 -480,-480 0,-430 640,-550 640,-1120l0 -960c0,-177 143,-320 320,-320z"/>
	<path id="curve0" fill="#3E9BD5" d="M4693 640c1147,560 1707,1520 1707,2560 0,701 -564,1271 -1263,1280 346,-9 623,-292 623,-640 0,-500 -793,-760 -453,-1373 -427,333 -827,780 -827,1373 0,348 277,631 623,640 -699,-9 -1263,-579 -1263,-1280 0,-1280 1440,-1440 853,-2560z"/>
</svg>
