<?xml version="1.0" encoding="UTF-8"?>
<!DOCTYPE svg PUBLIC "-//W3C//DTD SVG 1.1//EN" "http://www.w3.org/Graphics/SVG/1.1/DTD/svg11.dtd">
<svg xmlns="http://www.w3.org/2000/svg" xml:space="preserve" width="1024px" height="1024px" shape-rendering="geometricPrecision" text-rendering="geometricPrecision" image-rendering="optimizeQuality" fill-rule="nonzero" clip-rule="evenodd" viewBox="0 0 10240 10240" xmlns:xlink="http://www.w3.org/1999/xlink">
	<title>candle_holder icon</title>
	<desc>candle_holder icon from the IconExperience.com O-Collection. Copyright by INCORS GmbH (www.incors.com).</desc>
	<path id="curve2" fill="#252525" d="M7360 8000l0 0c0,-530 430,-960 960,-960 530,0 960,430 960,960 0,530 -430,960 -960,960l-320 0c-237,0 -444,129 -555,320 -117,204 -319,320 -554,320l-4971 0c-352,0 -640,-287 -640,-640l0 -320 1600 0 0 -320c0,-176 144,-320 320,-320l2560 0c176,0 320,144 320,320l0 320 640 0c353,0 640,-287 640,-640zm960 -640c-353,0 -640,287 -640,640 0,353 287,640 640,640 353,0 640,-287 640,-640 0,-353 -287,-640 -640,-640z"/>
	<path id="curve1" fill="#252525" d="M3520 3840l640 0 0 -320 640 0 0 320 640 0c176,0 320,144 320,320 0,1387 0,2133 0,3520 -853,0 -1707,0 -2560,0l0 -987c-50,17 0,27 -160,27 -250,0 -480,-165 -480,-480 0,-430 640,-550 640,-1120l0 -960c0,-177 143,-320 320,-320z"/>
	<path id="curve0" fill="#3E9BD5" d="M4160 320c860,420 1280,1140 1280,1920 0,526 -423,953 -947,960 259,-7 467,-219 467,-480 0,-375 -595,-570 -340,-1030 -320,250 -620,585 -620,1030 0,261 208,473 467,480 -524,-7 -947,-434 -947,-960 0,-960 1080,-1080 640,-1920z"/>
</svg>
