<?xml version="1.0" encoding="UTF-8"?>
<!DOCTYPE svg PUBLIC "-//W3C//DTD SVG 1.1//EN" "http://www.w3.org/Graphics/SVG/1.1/DTD/svg11.dtd">
<svg xmlns="http://www.w3.org/2000/svg" xml:space="preserve" width="1024px" height="1024px" shape-rendering="geometricPrecision" text-rendering="geometricPrecision" image-rendering="optimizeQuality" fill-rule="nonzero" clip-rule="evenodd" viewBox="0 0 10240 10240" xmlns:xlink="http://www.w3.org/1999/xlink">
	<title>car_compact icon</title>
	<desc>car_compact icon from the IconExperience.com O-Collection. Copyright by INCORS GmbH (www.incors.com).</desc>
	<path id="curve2" fill="#252525" d="M7360 8947l0 333c0,176 144,320 320,320l640 0c176,0 320,-144 320,-320l0 -1205c-113,158 -252,310 -414,471 -274,274 -541,371 -866,401z"/>
	<path id="curve1" fill="#252525" d="M2880 8947l0 333c0,176 -144,320 -320,320l-640 0c-176,0 -320,-144 -320,-320l0 -1205c113,158 252,310 414,471 274,274 541,371 866,401z"/>
	<path id="curve0" fill="#3E9BD5" d="M5120 2560c320,0 1600,0 2240,320 320,320 640,640 960,2240 320,960 320,1643 320,1920 0,640 -320,960 -640,1280 -320,320 -640,320 -960,320l-3840 0c-320,0 -640,0 -960,-320 -320,-320 -640,-640 -640,-1280 0,-280 0,-960 320,-1920 320,-1600 640,-1920 960,-2240 640,-320 1920,-320 2240,-320zm-1120 4480c-88,0 -160,74 -160,165l0 310c0,91 72,165 160,165l2240 0c88,0 160,-74 160,-165l0 -310c0,-91 -72,-165 -160,-165l-2240 0zm3360 -320c-353,0 -640,287 -640,640 0,353 287,320 640,320 353,0 640,33 640,-320 0,-353 -287,-640 -640,-640zm-4480 -1c-353,0 -640,287 -640,640 0,354 287,320 640,320 353,0 640,34 640,-320 0,-353 -287,-640 -640,-640zm4292 -3574c-523,-236 -1497,-265 -2052,-265 -555,0 -1529,29 -2052,265 -162,165 -272,299 -382,518 -172,346 -290,775 -380,1176 -20,89 -4,172 46,248 50,75 121,121 210,137 1025,181 4091,181 5116,0 89,-16 160,-62 210,-137 50,-76 66,-159 46,-248 -90,-401 -208,-830 -380,-1176 -110,-219 -220,-353 -382,-518z"/>
</svg>
