<?xml version="1.0" encoding="UTF-8"?>
<!DOCTYPE svg PUBLIC "-//W3C//DTD SVG 1.1//EN" "http://www.w3.org/Graphics/SVG/1.1/DTD/svg11.dtd">
<svg xmlns="http://www.w3.org/2000/svg" xml:space="preserve" width="1024px" height="1024px" shape-rendering="geometricPrecision" text-rendering="geometricPrecision" image-rendering="optimizeQuality" fill-rule="nonzero" clip-rule="evenodd" viewBox="0 0 10240 10240" xmlns:xlink="http://www.w3.org/1999/xlink">
	<title>castle icon</title>
	<desc>castle icon from the IconExperience.com O-Collection. Copyright by INCORS GmbH (www.incors.com).</desc>
	<path id="curve5" fill="#3E9BD5" d="M4160 8960l1920 0 0 -1280c0,-530 -430,-960 -960,-960 -530,0 -960,430 -960,960l0 1280z"/>
	<path id="curve4" fill="#252525" d="M3520 4480l320 0 0 -640 640 0 0 640 320 0 0 -640 640 0 0 640 320 0 0 -640 640 0 0 640 320 0 0 640c0,707 573,1280 1280,1280 110,0 218,-14 320,-40l0 2600 -6400 0 0 -2600c102,26 210,40 320,40 707,0 1280,-573 1280,-1280l0 -640zm2880 3200c0,-707 -573,-1280 -1280,-1280 -707,0 -1280,573 -1280,1280l0 1280 2560 0 0 -1280z"/>
	<path id="curve3" fill="#252525" d="M8960 5120c0,530 -430,960 -960,960 -530,0 -960,-430 -960,-960l0 -1600 1920 0 0 1600z"/>
	<path id="curve2" fill="#3E9BD5" d="M8294 1006l666 1554c177,0 320,143 320,320 0,177 -143,320 -320,320l-1920 0c-177,0 -320,-143 -320,-320 0,-177 143,-320 320,-320l666 -1554c51,-120 163,-194 294,-194 131,0 243,74 294,194z"/>
	<path id="curve1" fill="#252525" d="M3200 5120c0,530 -430,960 -960,960 -530,0 -960,-430 -960,-960l0 -1600 1920 0 0 1600z"/>
	<path id="curve0" fill="#3E9BD5" d="M2534 1006l666 1554c177,0 320,143 320,320 0,177 -143,320 -320,320l-1920 0c-177,0 -320,-143 -320,-320 0,-177 143,-320 320,-320l666 -1554c51,-120 163,-194 294,-194 131,0 243,74 294,194z"/>
</svg>
