<?xml version="1.0" encoding="UTF-8"?>
<!DOCTYPE svg PUBLIC "-//W3C//DTD SVG 1.1//EN" "http://www.w3.org/Graphics/SVG/1.1/DTD/svg11.dtd">
<svg xmlns="http://www.w3.org/2000/svg" xml:space="preserve" width="1024px" height="1024px" shape-rendering="geometricPrecision" text-rendering="geometricPrecision" image-rendering="optimizeQuality" fill-rule="nonzero" clip-rule="evenodd" viewBox="0 0 10240 10240" xmlns:xlink="http://www.w3.org/1999/xlink">
	<title>central_bank_dollar icon</title>
	<desc>central_bank_dollar icon from the IconExperience.com O-Collection. Copyright by INCORS GmbH (www.incors.com).</desc>
	<path id="curve2" fill="#252525" d="M640,8960 9600,8960 9600,9600 640,9600z"/>
	<path id="curve1" fill="#252525" d="M8320 4480c353,0 640,288 640,640l0 3840 -3200 0 0 -1920 -1280 0 0 1920 -3200 0 0 -3840c0,-353 287,-640 640,-640l1280 0 0 0c0,-353 287,-640 640,-640l282 0c167,96 358,153 561,159 55,96 159,161 277,161l320 0c118,0 222,-65 277,-161 204,-6 395,-63 561,-159l282 0c353,0 640,288 640,640l0 0 1280 0zm-2560 640c-427,0 -853,0 -1280,0l0 1280c427,0 853,0 1280,0l0 -1280zm-3840 0l0 1280 640 0 0 -1280 -640 0zm0 1920l0 1280 640 0 0 -1280 -640 0zm1280 0l0 1280 640 0 0 -1280 -640 0zm4480 -1920l0 1280 640 0 0 -1280 -640 0zm0 1920l0 1280 640 0 0 -1280 -640 0zm-1280 0l0 1280 640 0 0 -1280 -640 0zm0 -1920l0 1280 640 0 0 -1280 -640 0zm-3200 0l0 1280 640 0 0 -1280 -640 0z"/>
	<path id="curve0" fill="#3E9BD5" d="M5440 3680l-160 0 0 160 -160 0 -160 0 0 -160 -160 0 -80 0c-454,0 -835,-348 -876,-800l650 0c34,95 125,160 226,160l240 0 0 -480 -240 0c-485,0 -880,-395 -880,-880 0,-485 395,-880 880,-880l80 0 160 0 0 -160 320 0 0 160 160 0 80 0c454,0 835,348 876,800l-650 0c-34,-95 -124,-160 -226,-160l-240 0 0 480 240 0c485,0 880,395 880,880 0,485 -395,880 -880,880l-80 0zm-160 -640l240 0c132,0 240,-108 240,-240 0,-132 -108,-240 -240,-240l-240 0 0 480zm-320 -1600l-240 0c-132,0 -240,108 -240,240 0,132 108,240 240,240l240 0 0 -480z"/>
</svg>
