<?xml version="1.0" encoding="UTF-8"?>
<!DOCTYPE svg PUBLIC "-//W3C//DTD SVG 1.1//EN" "http://www.w3.org/Graphics/SVG/1.1/DTD/svg11.dtd">
<svg xmlns="http://www.w3.org/2000/svg" xml:space="preserve" width="1024px" height="1024px" shape-rendering="geometricPrecision" text-rendering="geometricPrecision" image-rendering="optimizeQuality" fill-rule="nonzero" clip-rule="evenodd" viewBox="0 0 10240 10240" xmlns:xlink="http://www.w3.org/1999/xlink">
	<title>chest_into icon</title>
	<desc>chest_into icon from the IconExperience.com O-Collection. Copyright by INCORS GmbH (www.incors.com).</desc>
	<path id="curve3" fill="#252525" d="M8960 4978l0 2626c0,249 -132,462 -354,573l-2687 1343 10 -3015 3031 -1527zm-3359 4542l-3967 -1983c-222,-111 -354,-324 -354,-573l0 -1876c62,12 124,21 188,27 -38,105 -39,224 3,335 71,188 248,310 449,310l736 0c91,0 177,-19 257,-54 30,60 79,110 144,142l640 320c213,107 463,-47 463,-286l0 -104 1441 720 0 3022z"/>
	<path id="curve2" fill="#252525" d="M3533 3433l2588 1297c15,9 43,14 56,15l2206 165 -2623 1312 -1600 -800 0 -104c0,-124 -66,-231 -177,-286l-145 -73 167 -142c304,-256 303,-713 4,-973l-476 -411z"/>
	<path id="curve1" fill="#252525" d="M1774 2200l95 -212c442,-987 1420,-1739 2185,-1681 127,10 240,42 338,91l3996 1998c-921,115 -1792,956 -2175,1764l-99 210 -4340 -2170zm7486 888c138,345 93,830 -140,1351l-92 206 -2595 -202 69 -147c350,-739 1273,-1653 2154,-1590 266,20 485,139 604,382z"/>
	<path id="curve0" fill="#3E9BD5" d="M2656 3200l-736 0c-148,0 -217,186 -106,280l426 360 -640 0c-176,0 -320,-144 -320,-320l0 -1280 -960 0 0 1280c0,705 575,1280 1280,1280l640 0 -426 360c-111,94 -42,280 106,280l736 0c81,0 150,-28 212,-80l930 -787c154,-129 153,-355 1,-487l-931 -806c-62,-53 -131,-80 -212,-80z"/>
</svg>
