<?xml version="1.0" encoding="UTF-8"?>
<!DOCTYPE svg PUBLIC "-//W3C//DTD SVG 1.1//EN" "http://www.w3.org/Graphics/SVG/1.1/DTD/svg11.dtd">
<svg xmlns="http://www.w3.org/2000/svg" xml:space="preserve" width="1024px" height="1024px" shape-rendering="geometricPrecision" text-rendering="geometricPrecision" image-rendering="optimizeQuality" fill-rule="nonzero" clip-rule="evenodd" viewBox="0 0 10240 10240" xmlns:xlink="http://www.w3.org/1999/xlink">
	<title>chocolate icon</title>
	<desc>chocolate icon from the IconExperience.com O-Collection. Copyright by INCORS GmbH (www.incors.com).</desc>
	<path id="curve1" fill="#3E9BD5" d="M5760 1920l3520 0c176,0 320,144 320,320l0 5120c0,176 -144,320 -320,320l-5440 0 0 -640 5120 0 0 -4480 -3200 0 0 -640zm-1920 4480c0,-1600 1920,-960 1920,-2560l0 -640 2560 0 0 3200 -4480 0z"/>
	<path id="curve0" fill="#252525" d="M960 1920l1280 0 0 1600 -1600 0 0 -1280c0,-176 144,-320 320,-320zm1600 0l1600 0 0 1600 -1600 0 0 -1600zm1920 0l960 0 0 1600 -960 0 0 -1600zm0 3004l0 -1084 960 0c0,595 -308,756 -783,994 -59,29 -119,59 -177,90zm-960 2756l-960 0 0 -1600 985 0c-17,103 -25,209 -25,320l0 1280zm-960 -1920l0 -1920 1600 0 0 1275c-237,166 -419,373 -528,645l-1072 0zm-320 1920l-1280 0c-176,0 -320,-144 -320,-320l0 -1280 1600 0 0 1600zm-1600 -1920l0 -1920 1600 0 0 1920 -1600 0z"/>
</svg>
