<?xml version="1.0" encoding="UTF-8"?>
<!DOCTYPE svg PUBLIC "-//W3C//DTD SVG 1.1//EN" "http://www.w3.org/Graphics/SVG/1.1/DTD/svg11.dtd">
<svg xmlns="http://www.w3.org/2000/svg" xml:space="preserve" width="1024px" height="1024px" shape-rendering="geometricPrecision" text-rendering="geometricPrecision" image-rendering="optimizeQuality" fill-rule="nonzero" clip-rule="evenodd" viewBox="0 0 10240 10240" xmlns:xlink="http://www.w3.org/1999/xlink">
	<title>cleaver icon</title>
	<desc>cleaver icon from the IconExperience.com O-Collection. Copyright by INCORS GmbH (www.incors.com).</desc>
	<path id="curve1" fill="#252525" d="M5042 3583c-1269,1148 -2829,2495 -3849,3257 -73,55 -115,129 -126,220 -10,90 14,172 73,242l1888 2250c100,118 266,149 401,73 1430,-798 2756,-1872 3735,-3308 91,-134 68,-314 -54,-421l-596 -521c-133,-117 -178,-271 -119,-470 -131,-20 -255,-82 -354,-181l-827 -827c-90,-89 -147,-199 -172,-314zm-3068 3231c125,-125 327,-125 452,0 125,125 125,327 0,452 -125,125 -327,125 -452,0 -125,-125 -125,-327 0,-452z"/>
	<path id="curve0" fill="#3E9BD5" d="M9280 1618c0,530 -430,960 -960,960 -209,0 -353,33 -507,187l-812 812c-124,124 -187,276 -187,452l0 243c0,132 -76,245 -198,295 -122,51 -255,24 -349,-69l-827 -827c-125,-125 -125,-328 0,-453l2240 -2240c602,-602 1600,-404 1600,640z"/>
</svg>
