<?xml version="1.0" encoding="UTF-8"?>
<!DOCTYPE svg PUBLIC "-//W3C//DTD SVG 1.1//EN" "http://www.w3.org/Graphics/SVG/1.1/DTD/svg11.dtd">
<svg xmlns="http://www.w3.org/2000/svg" xml:space="preserve" width="1024px" height="1024px" shape-rendering="geometricPrecision" text-rendering="geometricPrecision" image-rendering="optimizeQuality" fill-rule="nonzero" clip-rule="evenodd" viewBox="0 0 10240 10240" xmlns:xlink="http://www.w3.org/1999/xlink">
	<title>cloud_hail icon</title>
	<desc>cloud_hail icon from the IconExperience.com O-Collection. Copyright by INCORS GmbH (www.incors.com).</desc>
	<path id="curve1" fill="#3E9BD5" d="M7040 9600l1009 -733 -385 -1187 -1248 0 -385 1187 1009 733zm-3840 0l1009 -733 -385 -1187 -1248 0 -385 1187 1009 733zm1920 -1920l1009 -733 -385 -1187 -1248 0 -385 1187 1009 733z"/>
	<path id="curve0" fill="#252525" d="M1920 3039c0,-1325 1075,-2399 2400,-2399 777,0 1492,375 1937,982 100,-15 201,-22 303,-22 1149,0 2080,931 2080,2080 0,11 0,149 0,160 572,292 960,760 960,1440 0,972 -788,1760 -1760,1760l-1403 0c18,-61 18,-127 -3,-192l-146 -448 1552 0c619,0 1120,-501 1120,-1120 0,-593 -460,-1078 -1043,-1117 54,-151 83,-314 83,-483 0,-795 -645,-1440 -1440,-1440 -218,0 -425,49 -610,135 -262,-642 -893,-1095 -1630,-1095 -972,0 -1760,788 -1760,1760 0,168 23,330 67,483 -752,48 -1347,673 -1347,1437 0,795 645,1440 1440,1440l1232 0 -146 448c-21,65 -21,131 -3,192l-1083 0c-1149,0 -2080,-931 -2080,-2080 0,-861 525,-1606 1280,-1921z"/>
</svg>
