<?xml version="1.0" encoding="UTF-8"?>
<!DOCTYPE svg PUBLIC "-//W3C//DTD SVG 1.1//EN" "http://www.w3.org/Graphics/SVG/1.1/DTD/svg11.dtd">
<svg xmlns="http://www.w3.org/2000/svg" xml:space="preserve" width="1024px" height="1024px" shape-rendering="geometricPrecision" text-rendering="geometricPrecision" image-rendering="optimizeQuality" fill-rule="nonzero" clip-rule="evenodd" viewBox="0 0 10240 10240" xmlns:xlink="http://www.w3.org/1999/xlink">
	<title>cloud_snow icon</title>
	<desc>cloud_snow icon from the IconExperience.com O-Collection. Copyright by INCORS GmbH (www.incors.com).</desc>
	<path id="curve1" fill="#3E9BD5" d="M2359 8791l-129 0c-176,0 -320,-143 -320,-320l0 -320c0,-176 144,-320 320,-320l129 0 -64 -111c-88,-153 -36,-349 117,-437l277 -160c153,-88 349,-36 437,117l64 111 65 -111c88,-153 284,-205 437,-117l277 160c153,88 205,284 117,437l-64 111 128 0c177,0 320,144 320,320l0 320c0,177 -143,320 -320,320l-128 0 64 112c88,152 36,349 -117,437l-277 160c-153,88 -349,35 -437,-117l-60 -103 -5 -9 -5 9 -59 103c-88,152 -284,205 -437,117l-277 -160c-153,-88 -205,-285 -117,-437l64 -112zm-119 -320l673 0 -341 592 277 160 341 -592 342 592 277 -160 -342 -592 683 0 0 -320 -683 0 342 -591 -277 -160 -342 591 -341 -591 -277 160 341 591 -673 0 0 320zm1920 -1932l676 0 -342 591 278 160 341 -591 341 591 278 -160 -342 -591 683 0 0 -320 -683 0 342 -591 -278 -160 -341 591 -341 -591 -278 160 342 591 -676 0 0 320zm3840 1612l-675 0 341 -591 -277 -160 -341 591 -342 -591 -277 160 342 591 -683 0 0 320 683 0 -342 592 277 160 342 -592 341 592 277 -160 -341 -592 675 0 0 -320zm-2899 -791l-52 90c-88,153 -285,206 -437,117l-278 -160c-152,-88 -205,-284 -117,-437l65 -111 -129 0c-176,0 -320,-144 -320,-320l0 -320c0,-176 144,-320 320,-320l129 0 -65 -111c-88,-153 -35,-349 117,-438l278 -160c152,-88 349,-35 437,118l64 111 64 -111c88,-153 285,-206 437,-118l278 160c152,89 205,285 117,438l-65 111 129 0c176,0 320,144 320,320l0 320c0,176 -144,320 -320,320l-129 0 65 111c88,153 35,349 -117,437l-278 160c-152,89 -349,36 -437,-117l-52 -90 -12 -21 -12 21zm1942 1920l-60 103c-88,152 -284,205 -437,117l-277 -160c-153,-88 -205,-285 -117,-437l64 -112 -128 0c-177,0 -320,-143 -320,-320l0 -320c0,-176 143,-320 320,-320l128 0 -64 -111c-88,-153 -36,-349 117,-437l277 -160c153,-88 349,-36 437,117l65 111 64 -111c88,-153 284,-205 437,-117l277 160c153,88 205,284 117,437l-64 111 129 0c176,0 320,144 320,320l0 320c0,177 -144,320 -320,320l-129 0 64 112c88,152 36,349 -117,437l-277 160c-153,88 -349,35 -437,-117l-59 -103 -5 -9 -5 9z"/>
	<path id="curve0" fill="#252525" d="M1920 3039c0,-1325 1075,-2399 2400,-2399 777,0 1492,375 1937,982 100,-15 201,-22 303,-22 1149,0 2080,931 2080,2080 0,11 0,149 0,160 572,292 960,760 960,1440 0,909 -690,1658 -1575,1750 -12,-8 -25,-17 -39,-24l-277 -160c-212,-123 -467,-109 -661,13 -112,-70 -243,-104 -375,-98 26,-69 40,-144 40,-222l0 -139 1127 0c619,0 1120,-501 1120,-1120 0,-593 -460,-1078 -1043,-1117 54,-151 83,-314 83,-483 0,-795 -645,-1440 -1440,-1440 -218,0 -425,49 -610,135 -262,-642 -893,-1095 -1630,-1095 -972,0 -1760,788 -1760,1760 0,168 23,330 67,483 -752,48 -1347,673 -1347,1437 0,795 645,1440 1440,1440l793 0 0 139c0,78 14,153 40,222 -128,-4 -255,30 -363,98 -194,-122 -449,-136 -661,-13l-254 146c-935,-204 -1635,-1036 -1635,-2032 0,-861 525,-1606 1280,-1921z"/>
</svg>
