<?xml version="1.0" encoding="UTF-8"?>
<!DOCTYPE svg PUBLIC "-//W3C//DTD SVG 1.1//EN" "http://www.w3.org/Graphics/SVG/1.1/DTD/svg11.dtd">
<svg xmlns="http://www.w3.org/2000/svg" xml:space="preserve" width="1024px" height="1024px" shape-rendering="geometricPrecision" text-rendering="geometricPrecision" image-rendering="optimizeQuality" fill-rule="nonzero" clip-rule="evenodd" viewBox="0 0 10240 10240" xmlns:xlink="http://www.w3.org/1999/xlink">
	<title>coffin icon</title>
	<desc>coffin icon from the IconExperience.com O-Collection. Copyright by INCORS GmbH (www.incors.com).</desc>
	<path id="curve0" fill="#252525" d="M1987 3092l1439 -2302c60,-96 158,-150 271,-150l2846 0c113,0 211,54 271,150l1439 2302c45,72 59,149 42,233l-1204 6018c-30,151 -159,257 -313,257l-3316 0c-154,0 -283,-106 -313,-257l-1204 -6018c-17,-84 -3,-161 42,-233zm1533 108l0 640 1280 0 0 3520 640 0 0 -3520 1280 0 0 -640 -1280 0 0 -1280 -640 0 0 1280 -1280 0z"/>
</svg>
