<?xml version="1.0" encoding="UTF-8"?>
<!DOCTYPE svg PUBLIC "-//W3C//DTD SVG 1.1//EN" "http://www.w3.org/Graphics/SVG/1.1/DTD/svg11.dtd">
<svg xmlns="http://www.w3.org/2000/svg" xml:space="preserve" width="1024px" height="1024px" shape-rendering="geometricPrecision" text-rendering="geometricPrecision" image-rendering="optimizeQuality" fill-rule="nonzero" clip-rule="evenodd" viewBox="0 0 10240 10240" xmlns:xlink="http://www.w3.org/1999/xlink">
	<title>cooling_tower_smoke icon</title>
	<desc>cooling_tower_smoke icon from the IconExperience.com O-Collection. Copyright by INCORS GmbH (www.incors.com).</desc>
	<path id="curve1" fill="#252525" d="M7040 4480l0 1280c0,1624 693,2757 1280,3840 -2347,0 -4053,0 -6400,0 587,-1083 1280,-2215 1280,-3840l0 -1280 3840 0zm-3255 4293c441,-967 695,-1884 695,-3013l0 -320c0,-176 -144,-320 -320,-320l0 0c-176,0 -320,144 -320,320l0 320c0,1074 -252,1910 -636,2747 -47,102 -39,211 21,306 60,92 153,145 263,147 130,2 243,-68 297,-187z"/>
	<path id="curve0" fill="#252525" d="M7207 3367c-54,107 -121,207 -199,297 21,110 32,223 32,336 0,54 -3,107 -7,160l-313 0 -331 0c7,-52 11,-106 11,-160 0,-201 -53,-390 -146,-553 232,-107 405,-322 453,-580 371,-69 653,-395 653,-787 0,-442 -358,-799 -799,-800l-1 0 -2 0c-242,0 -459,109 -606,280 -187,-357 -561,-600 -992,-600 -384,0 -722,193 -924,487 -165,-291 -478,-487 -836,-487 -419,0 -775,268 -906,642 -18,-1 -36,-2 -54,-2 -127,0 -246,37 -345,101 -24,-236 -224,-421 -467,-421 -258,0 -468,210 -468,468 0,259 210,469 468,469 62,0 121,-12 174,-33 -1,18 -2,37 -2,56 0,353 287,640 640,640 164,0 313,-61 426,-162 148,99 326,159 517,162 6,0 11,0 17,0l0 0 0 0 1 0c5,0 10,0 15,0 74,365 397,640 784,640 -100,134 -160,300 -160,480 0,55 6,108 16,160l-336 0 -311 0c-6,-53 -9,-106 -9,-160 0,-27 1,-54 2,-81 -177,-118 -327,-275 -438,-459 -24,-7 -48,-15 -72,-23 -143,55 -296,83 -452,83 -504,0 -940,-292 -1149,-715 -447,-143 -771,-562 -771,-1057 0,-611 497,-1108 1108,-1108 224,0 433,67 608,182 296,-313 714,-502 1164,-502 309,0 605,89 857,249 269,-161 580,-249 903,-249 417,0 810,147 1120,402 152,-54 314,-82 480,-82 795,0 1440,645 1440,1440 0,555 -317,1048 -793,1287z"/>
</svg>
