<?xml version="1.0" encoding="UTF-8"?>
<!DOCTYPE svg PUBLIC "-//W3C//DTD SVG 1.1//EN" "http://www.w3.org/Graphics/SVG/1.1/DTD/svg11.dtd">
<svg xmlns="http://www.w3.org/2000/svg" xml:space="preserve" width="1024px" height="1024px" shape-rendering="geometricPrecision" text-rendering="geometricPrecision" image-rendering="optimizeQuality" fill-rule="nonzero" clip-rule="evenodd" viewBox="0 0 10240 10240" xmlns:xlink="http://www.w3.org/1999/xlink">
	<title>cpu2 icon</title>
	<desc>cpu2 icon from the IconExperience.com O-Collection. Copyright by INCORS GmbH (www.incors.com).</desc>
	<path id="curve2" fill="#252525" d="M3520 3200l3200 0c176,0 320,144 320,320l0 3200c0,176 -144,320 -320,320l-507 0c-89,0 -164,-31 -227,-94l-132 -132c-63,-63 -138,-94 -227,-94l-1014 0c-89,0 -164,31 -227,94l-132 132c-63,63 -138,94 -227,94l-507 0c-176,0 -320,-144 -320,-320l0 -3200c0,-176 144,-320 320,-320z"/>
	<path id="curve1" fill="#252525" d="M960 6400l960 0 0 640 -960 0c-176,0 -320,-144 -320,-320l0 0c0,-176 144,-320 320,-320zm5440 2880l0 -960 640 0 0 960c0,176 -144,320 -320,320l0 0c-176,0 -320,-144 -320,-320zm-3201 0l0 -960 640 0 0 960c0,176 -143,320 -320,320l0 0c-176,0 -320,-144 -320,-320zm1601 0l0 -960 640 0 0 960c0,176 -144,320 -320,320l0 0c-176,0 -320,-144 -320,-320zm3520 -2880l960 0c176,0 320,144 320,320l0 0c0,176 -144,320 -320,320l-960 0 0 -640zm0 -3201l960 0c176,0 320,144 320,320l0 0c0,177 -144,320 -320,320l-960 0 0 -640zm0 1601l960 0c176,0 320,144 320,320l0 0c0,176 -144,320 -320,320l-960 0 0 -640zm-1919 -2880l0 -960c0,-176 143,-320 320,-320l0 0c176,0 320,144 320,320l0 960 -640 0zm-3201 0l0 -960c0,-176 144,-320 320,-320l0 0c176,0 320,144 320,320l0 960 -640 0zm1601 0l0 -960c0,-176 143,-320 320,-320l0 0c176,0 320,144 320,320l0 960 -640 0zm-3841 1279l960 0 0 640 -960 0c-176,0 -320,-143 -320,-320l0 0c0,-176 144,-320 320,-320zm0 1601l960 0 0 640 -960 0c-176,0 -320,-144 -320,-320l0 0c0,-176 144,-320 320,-320z"/>
	<path id="curve0" fill="#3E9BD5" d="M1600 1280l1280 0 0 640c0,176 144,320 320,320l640 0c176,0 320,-144 320,-320l0 -640 321 0 0 640c0,176 143,320 320,320l640 0c176,0 320,-144 320,-320l0 -640 320 0 0 640c0,176 143,320 320,320l640 0c176,0 320,-144 320,-320l0 -640 1279 0c176,0 320,144 320,320l0 1279 -640 0c-176,0 -320,144 -320,320l0 640c0,177 144,320 320,320l640 0 0 321 -640 0c-176,0 -320,144 -320,320l0 640c0,176 144,320 320,320l640 0 0 320 -640 0c-176,0 -320,144 -320,320l0 640c0,176 144,320 320,320l640 0 0 1280c0,176 -144,320 -320,320l-1280 0 0 -640c0,-176 -144,-320 -320,-320l-640 0c-176,0 -320,144 -320,320l0 640 -320 0 0 -640c0,-176 -144,-320 -320,-320l-640 0c-176,0 -320,144 -320,320l0 640 -321 0 0 -640c0,-176 -143,-320 -320,-320l-640 0c-176,0 -320,144 -320,320l0 640 -1279 0c-176,0 -320,-144 -320,-320l0 -1280 640 0c176,0 320,-144 320,-320l0 -640c0,-176 -144,-320 -320,-320l-640 0 0 -320 640 0c176,0 320,-144 320,-320l0 -640c0,-176 -144,-320 -320,-320l-640 0 0 -321 640 0c176,0 320,-143 320,-320l0 -640c0,-176 -144,-320 -320,-320l-640 0 0 -1279c0,-176 144,-320 320,-320zm1920 1600c-353,0 -640,287 -640,640l0 3200c0,353 287,640 640,640l3200 0c353,0 640,-287 640,-640l0 -3200c0,-353 -287,-640 -640,-640l-3200 0z"/>
</svg>
