<?xml version="1.0" encoding="UTF-8"?>
<!DOCTYPE svg PUBLIC "-//W3C//DTD SVG 1.1//EN" "http://www.w3.org/Graphics/SVG/1.1/DTD/svg11.dtd">
<svg xmlns="http://www.w3.org/2000/svg" xml:space="preserve" width="1024px" height="1024px" shape-rendering="geometricPrecision" text-rendering="geometricPrecision" image-rendering="optimizeQuality" fill-rule="nonzero" clip-rule="evenodd" viewBox="0 0 10240 10240" xmlns:xlink="http://www.w3.org/1999/xlink">
	<title>crutch icon</title>
	<desc>crutch icon from the IconExperience.com O-Collection. Copyright by INCORS GmbH (www.incors.com).</desc>
	<path id="curve1" fill="#252525" d="M2768 7020c-42,-16 -81,-40 -114,-74 -125,-125 -125,-327 0,-452l1133 -1133c78,-78 132,-151 181,-249l454 -909c79,-157 175,-291 299,-415l1887 -1888c106,185 229,367 365,540l-1400 1400 827 827 1400 -1400c173,136 355,259 540,365l-1887 1887c-125,124 -259,220 -416,299l-909 454c-98,49 -171,103 -249,181l-1133 1133c-125,125 -327,125 -452,0 -34,-33 -58,-72 -74,-114l-1117 1117c16,98 -14,202 -89,277l-621 621c-62,62 -164,62 -226,0l-414 -414c-62,-62 -62,-164 0,-226l621 -621c75,-75 179,-105 277,-89l1117 -1117zm2030 -1295c15,-7 30,-15 45,-23l909 -454c71,-36 135,-77 194,-129l-825 -825c-52,59 -93,123 -129,194l-454 909c-8,15 -16,30 -23,45 149,16 267,134 283,283z"/>
	<path id="curve0" fill="#3E9BD5" d="M6790 1565c-157,-315 -30,-698 285,-855 315,-157 698,-30 855,285 127,253 325,515 562,752 238,238 500,436 753,563 315,157 442,540 285,855 -157,315 -540,442 -855,285 -387,-193 -765,-475 -1088,-798 -322,-322 -604,-700 -797,-1087z"/>
</svg>
