<?xml version="1.0" encoding="UTF-8"?>
<!DOCTYPE svg PUBLIC "-//W3C//DTD SVG 1.1//EN" "http://www.w3.org/Graphics/SVG/1.1/DTD/svg11.dtd">
<svg xmlns="http://www.w3.org/2000/svg" xml:space="preserve" width="1024px" height="1024px" shape-rendering="geometricPrecision" text-rendering="geometricPrecision" image-rendering="optimizeQuality" fill-rule="nonzero" clip-rule="evenodd" viewBox="0 0 10240 10240" xmlns:xlink="http://www.w3.org/1999/xlink">
	<title>denture icon</title>
	<desc>denture icon from the IconExperience.com O-Collection. Copyright by INCORS GmbH (www.incors.com).</desc>
	<path id="curve0" fill="#252525" d="M8960 7040l0 -545c100,-160 159,-360 159,-575l0 -322c0,-23 0,-45 -2,-67 18,-7 36,-16 53,-25 166,-93 269,-254 269,-544l0 -322c0,-215 -59,-415 -159,-575l0 -225c0,-640 -320,-1280 -960,-1280 -960,0 -1920,320 -3200,320 -1280,0 -2240,-320 -3200,-320 -640,0 -960,640 -960,1280l0 225c-100,160 -159,360 -159,575l0 322c0,290 103,451 269,544 17,9 35,18 53,25 -2,22 -2,44 -2,67l0 322c0,215 59,415 159,575l0 545c0,960 1920,1600 3840,1600 1920,0 3840,-640 3840,-1600zm-320 -3040c315,0 481,366 481,640l0 322c0,152 -41,229 -106,265 -53,29 -128,43 -215,49l0 -524c0,-257 -86,-492 -223,-664 -19,-24 -39,-46 -59,-67 39,-14 80,-21 122,-21zm-7039 0c42,0 83,7 123,21 -21,21 -41,43 -59,67 -138,172 -224,407 -224,664l0 524c-87,-6 -161,-20 -214,-49 -66,-36 -106,-113 -106,-265l0 -322c0,-274 165,-640 480,-640zm-160 1596c19,1 39,2 59,3 46,103 119,176 212,227 16,9 34,17 51,25 -1,21 -2,44 -2,67l0 322c0,104 14,205 40,299 -244,-85 -360,-378 -360,-619l0 -322 0 -2zm640 320c52,3 106,4 160,4 99,0 200,-3 298,-18 38,42 82,76 133,104 16,9 33,17 50,24 -1,10 -1,20 -1,30l0 500c0,92 11,181 32,266 -59,35 -124,54 -192,54l0 0c-315,0 -480,-366 -480,-640l0 -322 0 -2zm960 180c52,3 106,4 160,4 101,0 204,-3 303,-19 49,52 109,92 178,124 -1,11 -1,22 -1,33l0 500c0,136 24,267 68,385 -67,48 -145,77 -228,77 -315,0 -480,-366 -480,-640l0 -464zm960 189c101,10 208,13 320,13 202,0 443,-5 630,-88l10 -5c0,11 0,22 0,33l0 500c0,272 -163,640 -480,640 -315,0 -480,-366 -480,-640l0 -453zm320 -1965c352,0 641,288 641,640l-1 700c0,144 -53,220 -139,258 -134,60 -355,60 -501,60 -202,0 -384,-8 -501,-60 -86,-38 -139,-114 -139,-258l0 -700c0,-352 288,-640 640,-640zm-821 143c-87,145 -138,315 -138,497l0 700c0,41 2,79 7,115 -56,4 -112,5 -168,5 -154,0 -291,-7 -374,-53 -65,-36 -106,-113 -106,-265l0 -500c0,-274 165,-640 480,-640 117,0 221,58 299,141zm-900 -134c-123,169 -199,392 -199,633l0 500c0,48 3,92 9,133 -56,4 -113,5 -169,5 -154,0 -291,-7 -374,-53 -65,-36 -106,-113 -106,-265l0 -530c0,-274 165,-640 480,-640 133,0 247,74 328,174 11,14 21,28 31,43zm6201 1267l0 2 0 322c0,241 -116,534 -361,619 26,-94 40,-195 40,-299l0 -322c0,-23 -1,-46 -2,-67 18,-8 35,-16 52,-25 92,-52 165,-124 212,-227 19,-1 39,-2 59,-3zm-641 320l0 2 0 322c0,274 -164,640 -480,640l0 0c-68,0 -133,-19 -191,-54 20,-85 31,-174 31,-266l0 -500c0,-10 0,-20 0,-30 17,-7 33,-15 50,-24 50,-28 94,-62 132,-104 98,15 199,18 298,18 55,0 108,-1 160,-4zm-960 180l0 464c0,274 -164,640 -480,640 -83,0 -161,-29 -227,-77 43,-119 67,-249 67,-385l0 -500c0,-11 0,-22 0,-33 69,-32 129,-72 177,-124 100,16 202,19 303,19 55,0 108,-1 160,-4zm-960 189l0 453c0,274 -164,640 -480,640 -317,0 -480,-368 -480,-640l0 -500c0,-12 0,-22 1,-33l9 5c188,83 428,88 630,88 112,0 219,-3 320,-13zm-320 -1965c352,0 641,288 641,640l0 700c0,144 -54,220 -140,258 -117,52 -298,60 -501,60 -146,0 -366,0 -501,-60 -86,-38 -139,-114 -139,-258l-1 -700c0,-352 289,-640 641,-640zm821 143c78,-83 182,-141 299,-141 316,0 480,366 480,640l0 500c0,152 -40,229 -105,265 -84,46 -221,53 -375,53 -56,0 -112,-1 -168,-5 5,-36 7,-74 7,-115l0 -700c0,-182 -50,-352 -138,-497zm900 -134c10,-15 20,-29 31,-43 81,-100 196,-174 328,-174 316,0 480,366 480,640l0 530c0,152 -40,229 -105,265 -84,46 -221,53 -375,53 -56,0 -112,-1 -168,-5 5,-41 8,-85 8,-133l0 -500c0,-241 -76,-464 -199,-633z"/>
</svg>
