<?xml version="1.0" encoding="UTF-8"?>
<!DOCTYPE svg PUBLIC "-//W3C//DTD SVG 1.1//EN" "http://www.w3.org/Graphics/SVG/1.1/DTD/svg11.dtd">
<svg xmlns="http://www.w3.org/2000/svg" xml:space="preserve" width="1024px" height="1024px" shape-rendering="geometricPrecision" text-rendering="geometricPrecision" image-rendering="optimizeQuality" fill-rule="nonzero" clip-rule="evenodd" viewBox="0 0 10240 10240" xmlns:xlink="http://www.w3.org/1999/xlink">
	<title>desk_lamp icon</title>
	<desc>desk_lamp icon from the IconExperience.com O-Collection. Copyright by INCORS GmbH (www.incors.com).</desc>
	<path id="curve3" fill="#252525" d="M1920 4800c57,0 113,8 166,22l2096 -2096c-14,-53 -22,-109 -22,-166 0,-353 287,-640 640,-640 353,0 640,287 640,640 0,353 -287,640 -640,640 -57,0 -113,-8 -166,-22l-2096 2096c14,53 22,109 22,166 0,57 -8,113 -22,166l2418 2417 0 1 -6 1c-222,40 -421,158 -564,332l-1 1 -2299 -2300c-53,14 -109,22 -166,22 -353,0 -640,-287 -640,-640 0,-353 287,-640 640,-640z"/>
	<path id="curve2" fill="#252525" d="M5120 8000c530,0 960,430 960,960l-1920 0c0,-530 430,-960 960,-960zm-1600 960l3200 0c176,0 320,144 320,320l0 320 -3840 0 0 -320c0,-176 144,-320 320,-320z"/>
	<path id="curve1" fill="#3E9BD5" d="M8665 4330c50,403 -153,813 -538,1005 -384,193 -834,111 -1127,-171l1665 -834z"/>
	<path id="curve0" fill="#252525" d="M5623 1437l883 -442c162,-81 360,-15 441,147l442 882c768,-12 1502,320 2031,1155 51,81 65,171 39,264 -26,93 -84,163 -170,206l-3208 1607c-86,43 -177,47 -267,12 -90,-35 -154,-99 -188,-189 -352,-925 -177,-1711 292,-2318l-442 -883c-81,-162 -15,-360 147,-441z"/>
</svg>
