<?xml version="1.0" encoding="UTF-8"?>
<!DOCTYPE svg PUBLIC "-//W3C//DTD SVG 1.1//EN" "http://www.w3.org/Graphics/SVG/1.1/DTD/svg11.dtd">
<svg xmlns="http://www.w3.org/2000/svg" xml:space="preserve" width="1024px" height="1024px" shape-rendering="geometricPrecision" text-rendering="geometricPrecision" image-rendering="optimizeQuality" fill-rule="nonzero" clip-rule="evenodd" viewBox="0 0 10240 10240" xmlns:xlink="http://www.w3.org/1999/xlink">
	<title>document_zip icon</title>
	<desc>document_zip icon from the IconExperience.com O-Collection. Copyright by INCORS GmbH (www.incors.com).</desc>
	<path id="curve1" fill="#3E9BD5" d="M7525 5319l642 -161c107,-26 201,-38 311,-38l482 0c353,0 640,287 640,640l0 640c0,352 -287,640 -640,640l-482 0c-110,0 -204,-12 -311,-38l-642 -161c-228,-57 -399,-226 -460,-441l-25 0 0 320c0,176 -144,320 -320,320l0 0c-176,0 -320,-144 -320,-320l0 -320 -640 0 0 320c0,176 -144,320 -320,320l0 0c-176,0 -320,-144 -320,-320l0 -320 -640 0 0 320c0,176 -144,320 -320,320l0 0c-176,0 -320,-144 -320,-320l0 -320 -640 0 0 320c0,176 -144,320 -320,320l0 0c-176,0 -320,-144 -320,-320l0 -320 -640 0 0 -640 0 -320c0,-176 144,-320 320,-320l0 0c176,0 320,144 320,320l0 320 640 0 0 -320c0,-176 144,-320 320,-320l0 0c176,0 320,144 320,320l0 320 640 0 0 -320c0,-176 144,-320 320,-320l0 0c176,0 320,144 320,320l0 320 640 0 0 -320c0,-176 144,-320 320,-320l0 0c176,0 320,144 320,320l0 320 640 0 25 0c61,-215 232,-384 460,-441zm596 1012l259 64c13,4 25,5 38,5l382 0c88,0 160,-72 160,-160 0,-98 0,-222 0,-320 0,-88 -72,-160 -160,-160 -135,0 -318,0 -382,0 -13,0 -25,1 -38,5l-259 64c-72,18 -121,81 -121,156l0 190c0,75 49,138 121,156z"/>
	<path id="curve0" fill="#252525" d="M7040 1600l0 960 960 0 -960 -960zm-5760 -960l5230 0c352,0 656,126 905,375l1170 1170c249,249 375,553 375,905l0 1710 -482 0c-54,0 -106,2 -158,8l0 -1288c0,-176 -144,-320 -320,-320l-1600 0 0 -1600c0,-176 -144,-320 -320,-320l-4160 0 0 7680 6400 0 0 -1608c52,6 104,8 158,8l482 0 0 2240 -7680 0 0 -8960z"/>
</svg>
