<?xml version="1.0" encoding="UTF-8"?>
<!DOCTYPE svg PUBLIC "-//W3C//DTD SVG 1.1//EN" "http://www.w3.org/Graphics/SVG/1.1/DTD/svg11.dtd">
<svg xmlns="http://www.w3.org/2000/svg" xml:space="preserve" width="1024px" height="1024px" shape-rendering="geometricPrecision" text-rendering="geometricPrecision" image-rendering="optimizeQuality" fill-rule="nonzero" clip-rule="evenodd" viewBox="0 0 10240 10240" xmlns:xlink="http://www.w3.org/1999/xlink">
	<title>document_center_vertical icon</title>
	<desc>document_center_vertical icon from the IconExperience.com O-Collection. Copyright by INCORS GmbH (www.incors.com).</desc>
	<path id="curve2" fill="#252525" d="M1280 640l5230 0c352,0 656,126 905,375l1170 1170c249,249 375,553 375,905l0 1390 -640 0 0 -960c0,-176 -144,-320 -320,-320l-1600 0 0 -1600c0,-176 -144,-320 -320,-320l-4160 0 0 3200 -640 0 0 -3840zm5760 960l0 960 960 0 -960 -960zm1280 4160l640 0 0 3840 -7680 0 0 -3840 640 0 0 3200 6400 0 0 -3200z"/>
	<path id="curve1" fill="#252525" d="M3200 3840l0 2560 3784 0 0 -2560 -3784 0zm640 1920l0 -1280 2504 0 0 1280 -2504 0z"/>
	<path id="curve0" fill="#3E9BD5" d="M640 4800l0 640 2240 0 0 -640 -2240 0zm6720 0l0 640 2240 0 0 -640 -2240 0z"/>
</svg>
