<?xml version="1.0" encoding="UTF-8"?>
<!DOCTYPE svg PUBLIC "-//W3C//DTD SVG 1.1//EN" "http://www.w3.org/Graphics/SVG/1.1/DTD/svg11.dtd">
<svg xmlns="http://www.w3.org/2000/svg" xml:space="preserve" width="1024px" height="1024px" shape-rendering="geometricPrecision" text-rendering="geometricPrecision" image-rendering="optimizeQuality" fill-rule="nonzero" clip-rule="evenodd" viewBox="0 0 10240 10240" xmlns:xlink="http://www.w3.org/1999/xlink">
	<title>document_orientation_landscape icon</title>
	<desc>document_orientation_landscape icon from the IconExperience.com O-Collection. Copyright by INCORS GmbH (www.incors.com).</desc>
	<path id="curve2" fill="#3E9BD5" d="M1920 7040l5120 0 0 640 -5120 0 0 -640zm4480 -3840l-640 0 0 640 640 0 0 -640zm1920 1280l-2560 0 0 640 2560 0 0 -640zm-6400 1280l6400 0 0 640 -6400 0 0 -640z"/>
	<path id="curve1" fill="#3E9BD5" d="M3840 2560l-640 0 -1280 2560 640 0 228 -464 1441 0 251 464 640 0 -1280 -2560zm-320 640l466 960 -955 0 489 -960z"/>
	<path id="curve0" fill="#252525" d="M9600 8960l0 -5230c0,-352 -126,-656 -375,-905l-1170 -1170c-249,-249 -553,-375 -905,-375l-6510 0 0 7680 8960 0zm-640 -640l-7680 0 0 -6400 5440 0c176,0 320,144 320,320l0 1600 1600 0c176,0 320,144 320,320l0 4160zm-320 -5120l-960 0 0 -960 960 960z"/>
</svg>
