<?xml version="1.0" encoding="UTF-8"?>
<!DOCTYPE svg PUBLIC "-//W3C//DTD SVG 1.1//EN" "http://www.w3.org/Graphics/SVG/1.1/DTD/svg11.dtd">
<svg xmlns="http://www.w3.org/2000/svg" xml:space="preserve" width="1024px" height="1024px" shape-rendering="geometricPrecision" text-rendering="geometricPrecision" image-rendering="optimizeQuality" fill-rule="nonzero" clip-rule="evenodd" viewBox="0 0 10240 10240" xmlns:xlink="http://www.w3.org/1999/xlink">
	<title>dump_truck icon</title>
	<desc>dump_truck icon from the IconExperience.com O-Collection. Copyright by INCORS GmbH (www.incors.com).</desc>
	<path id="curve2" fill="#252525" d="M8320 7040c-530,0 -960,430 -960,960 0,530 430,960 960,960 530,0 960,-430 960,-960 0,-530 -430,-960 -960,-960zm-6400 640c-177,0 -320,143 -320,320 0,177 143,320 320,320 177,0 320,-143 320,-320 0,-177 -143,-320 -320,-320zm6400 0c177,0 320,143 320,320 0,177 -143,320 -320,320 -177,0 -320,-143 -320,-320 0,-177 143,-320 320,-320zm-4480 0c-177,0 -320,143 -320,320 0,177 143,320 320,320 177,0 320,-143 320,-320 0,-177 -143,-320 -320,-320zm-1920 -640c530,0 960,430 960,960 0,-530 430,-960 960,-960 530,0 960,430 960,960 0,530 -430,960 -960,960 -530,0 -960,-430 -960,-960 0,530 -430,960 -960,960 -530,0 -960,-430 -960,-960 0,-530 430,-960 960,-960z"/>
	<path id="curve1" fill="#3E9BD5" d="M2117 3840l2852 0c104,0 193,-21 286,-68l370 -184c93,-47 182,-68 286,-68l1129 0c88,0 160,72 160,160l0 0c0,88 -72,160 -160,160l0 0c-352,0 -640,288 -640,640l1 1921c0,176 -144,319 -320,319l-4481 0c-190,0 -353,73 -479,215 -59,67 -143,105 -237,105l-245 0c-114,0 -212,-55 -272,-152 -60,-97 -65,-209 -14,-311l1192 -2383c111,-222 323,-354 572,-354zm1723 2240l678 0 800 -1600 -678 0 -800 1600zm1920 -1280l-640 1280 640 0 0 -1280 0 0zm-3200 1280l687 0 800 -1600 -687 0 -800 1600zm-1318 0l678 0 800 -1600 -678 0 -800 1600z"/>
	<path id="curve0" fill="#252525" d="M6720 7040l0 -2560c0,-176 144,-320 320,-320l1524 0c249,0 452,137 573,354l715 1280c51,90 68,182 68,286l0 1920 -320 0c0,-707 -573,-1280 -1280,-1280 -707,0 -1280,573 -1280,1280 0,110 14,218 40,320l-40 0 -1960 0c26,-102 40,-210 40,-320 0,-382 -168,-725 -434,-960l2034 0zm640 -2240l0 1280 1920 0 -716 -1280c0,0 0,0 0,0l-1204 0z"/>
</svg>
