<?xml version="1.0" encoding="UTF-8"?>
<!DOCTYPE svg PUBLIC "-//W3C//DTD SVG 1.1//EN" "http://www.w3.org/Graphics/SVG/1.1/DTD/svg11.dtd">
<svg xmlns="http://www.w3.org/2000/svg" xml:space="preserve" width="1024px" height="1024px" shape-rendering="geometricPrecision" text-rendering="geometricPrecision" image-rendering="optimizeQuality" fill-rule="nonzero" clip-rule="evenodd" viewBox="0 0 10240 10240" xmlns:xlink="http://www.w3.org/1999/xlink">
	<title>easel icon</title>
	<desc>easel icon from the IconExperience.com O-Collection. Copyright by INCORS GmbH (www.incors.com).</desc>
	<path id="curve1" fill="#3E9BD5" d="M1920 1920l1920 0 0 320c0,116 31,226 86,320l-1366 0 0 3840 5120 0 0 -3840 -1366 0c55,-94 86,-204 86,-320l0 -320 1920 0 0 5120 -6400 0 0 -5120z"/>
	<path id="curve0" fill="#252525" d="M7983 9500c55,167 -36,347 -203,402 -167,56 -347,-35 -402,-202l-247 -740 -4003 0 -267 747c-59,167 -242,254 -408,194 -167,-59 -254,-242 -194,-409l761 -2132 680 0 -343 960 1443 0 0 -960 640 0 0 960 1477 0 -319 -960 671 0 714 2140zm-3183 -8860l640 0 0 960 640 0 0 640c0,176 -144,320 -320,320l-1280 0c-176,0 -320,-144 -320,-320l0 -640 640 0 0 -960z"/>
</svg>
