<?xml version="1.0" encoding="UTF-8"?>
<!DOCTYPE svg PUBLIC "-//W3C//DTD SVG 1.1//EN" "http://www.w3.org/Graphics/SVG/1.1/DTD/svg11.dtd">
<svg xmlns="http://www.w3.org/2000/svg" xml:space="preserve" width="1024px" height="1024px" shape-rendering="geometricPrecision" text-rendering="geometricPrecision" image-rendering="optimizeQuality" fill-rule="nonzero" clip-rule="evenodd" viewBox="0 0 10240 10240" xmlns:xlink="http://www.w3.org/1999/xlink">
	<title>electric_iron icon</title>
	<desc>electric_iron icon from the IconExperience.com O-Collection. Copyright by INCORS GmbH (www.incors.com).</desc>
	<path id="curve3" fill="#252525" d="M9600 8000l0 0c0,176 -144,320 -320,320l-8640 0c-176,0 -320,-144 -320,-320l0 0 9280 0z"/>
	<path id="curve2" fill="#252525" d="M6400 5120c1920,0 3200,1280 3200,2560l-9280 0 0 -18c0,-208 42,-386 135,-572l825 -1650c158,-315 320,-320 960,-320l4160 0z"/>
	<path id="curve1" fill="#3E9BD5" d="M4800 4480l1280 0c176,0 320,144 320,320l-1920 0c0,-176 144,-320 320,-320z"/>
	<path id="curve0" fill="#252525" d="M7040 1920c353,0 640,288 640,640l0 0c0,352 -288,640 -640,640l-2560 0c-352,0 -640,288 -640,640l0 960 -1600 0c-255,0 -491,-10 -697,40l1106 -2212c223,-445 648,-708 1145,-708l3246 0z"/>
</svg>
