<?xml version="1.0" encoding="UTF-8"?>
<!DOCTYPE svg PUBLIC "-//W3C//DTD SVG 1.1//EN" "http://www.w3.org/Graphics/SVG/1.1/DTD/svg11.dtd">
<svg xmlns="http://www.w3.org/2000/svg" xml:space="preserve" width="1024px" height="1024px" shape-rendering="geometricPrecision" text-rendering="geometricPrecision" image-rendering="optimizeQuality" fill-rule="nonzero" clip-rule="evenodd" viewBox="0 0 10240 10240" xmlns:xlink="http://www.w3.org/1999/xlink">
	<title>elements_hierarchy icon</title>
	<desc>elements_hierarchy icon from the IconExperience.com O-Collection. Copyright by INCORS GmbH (www.incors.com).</desc>
	<path id="curve4" fill="#252525" d="M8960 5770l-640 0 0 -650 -2880 0 0 650 -640 0 0 -650 -2880 0 0 650 -640 0 0 -970c0,-177 143,-320 320,-320l3200 0 0 -650 640 0 0 650 3200 0c177,0 320,143 320,320l0 970z"/>
	<path id="curve3" fill="#252525" d="M7680 6400l1920 0 0 1280 -1920 0 0 -1280zm0 -640c-353,0 -640,287 -640,640l0 1280c0,353 288,640 640,640l1920 0c352,0 640,-288 640,-640l0 -1280c0,-352 -287,-640 -640,-640l-1920 0z"/>
	<path id="curve2" fill="#252525" d="M4160 6400l1920 0 0 1280 -1920 0 0 -1280zm0 -640c-353,0 -640,287 -640,640l0 1280c0,352 288,640 640,640l1920 0c352,0 640,-288 640,-640l0 -1280c0,-352 -287,-640 -640,-640l-1920 0z"/>
	<path id="curve1" fill="#252525" d="M640 6400l1920 0 0 1280 -1920 0 0 -1280zm0 -640c-353,0 -640,287 -640,640l0 1280c0,352 288,640 640,640l1920 0c352,0 640,-288 640,-640l0 -1280c0,-352 -288,-640 -640,-640l-1920 0z"/>
	<path id="curve0" fill="#252525" d="M4160 1280l1920 0c353,0 640,288 640,640l0 1280c0,352 -288,640 -640,640l-1920 0c-352,0 -640,-288 -640,-640l0 -1280c0,-353 287,-640 640,-640zm0 640l0 1280 1920 0 0 -1280 -1920 0z"/>
</svg>
