<?xml version="1.0" encoding="UTF-8"?>
<!DOCTYPE svg PUBLIC "-//W3C//DTD SVG 1.1//EN" "http://www.w3.org/Graphics/SVG/1.1/DTD/svg11.dtd">
<svg xmlns="http://www.w3.org/2000/svg" xml:space="preserve" width="1024px" height="1024px" shape-rendering="geometricPrecision" text-rendering="geometricPrecision" image-rendering="optimizeQuality" fill-rule="nonzero" clip-rule="evenodd" viewBox="0 0 10240 10240" xmlns:xlink="http://www.w3.org/1999/xlink">
	<title>emergency_stop_button icon</title>
	<desc>emergency_stop_button icon from the IconExperience.com O-Collection. Copyright by INCORS GmbH (www.incors.com).</desc>
	<path id="curve1" fill="#252525" d="M1920 4480l6400 0c353,0 640,287 640,640l0 1280 -7680 0 0 640 7680 0 0 1280c0,353 -287,640 -640,640l-6400 0c-353,0 -640,-287 -640,-640l0 -3200c0,-353 287,-640 640,-640z"/>
	<path id="curve0" fill="#3E9BD5" d="M2701 2126c412,-278 1292,-526 2419,-526 1127,0 2007,248 2419,526 91,61 141,156 141,265l0 489c0,176 -144,320 -320,320l-960 0 0 960 -2560 0 0 -960 -960 0c-176,0 -320,-144 -320,-320l0 -489c0,-109 50,-204 141,-265z"/>
</svg>
