<?xml version="1.0" encoding="UTF-8"?>
<!DOCTYPE svg PUBLIC "-//W3C//DTD SVG 1.1//EN" "http://www.w3.org/Graphics/SVG/1.1/DTD/svg11.dtd">
<svg xmlns="http://www.w3.org/2000/svg" xml:space="preserve" width="1024px" height="1024px" shape-rendering="geometricPrecision" text-rendering="geometricPrecision" image-rendering="optimizeQuality" fill-rule="nonzero" clip-rule="evenodd" viewBox="0 0 10240 10240" xmlns:xlink="http://www.w3.org/1999/xlink">
	<title>emoticon_cool icon</title>
	<desc>emoticon_cool icon from the IconExperience.com O-Collection. Copyright by INCORS GmbH (www.incors.com).</desc>
	<path id="curve2" fill="#252525" d="M7515 6720c-517,772 -1397,1280 -2395,1280 -998,0 -1878,-508 -2395,-1280 -53,-79 -67,-168 -43,-260 24,-92 81,-161 166,-204l103 -52c132,-65 285,-35 383,75 409,462 1057,761 1786,761 729,0 1377,-299 1786,-761 98,-110 251,-140 383,-75l103 52c85,42 142,112 166,204 24,92 10,181 -43,260z"/>
	<path id="curve1" fill="#252525" d="M7680 3520l0 960c0,707 -573,1280 -1280,1280 -420,0 -793,-203 -1027,-516 -62,-83 -151,-128 -255,-128 -104,-1 -194,44 -256,127 -238,314 -614,517 -1022,517 -707,0 -1280,-573 -1280,-1280l0 -960c0,-176 144,-320 320,-320 1493,0 2987,0 4480,0 176,0 320,144 320,320z"/>
	<path id="curve0" fill="#3E9BD5" d="M5120 640c2474,0 4480,2006 4480,4480 0,2474 -2006,4480 -4480,4480 -2474,0 -4480,-2006 -4480,-4480 0,-2474 2006,-4480 4480,-4480zm0 640c-2121,0 -3840,1719 -3840,3840 0,2121 1719,3840 3840,3840 2121,0 3840,-1719 3840,-3840 0,-2121 -1719,-3840 -3840,-3840z"/>
</svg>
