<?xml version="1.0" encoding="UTF-8"?>
<!DOCTYPE svg PUBLIC "-//W3C//DTD SVG 1.1//EN" "http://www.w3.org/Graphics/SVG/1.1/DTD/svg11.dtd">
<svg xmlns="http://www.w3.org/2000/svg" xml:space="preserve" width="1024px" height="1024px" shape-rendering="geometricPrecision" text-rendering="geometricPrecision" image-rendering="optimizeQuality" fill-rule="nonzero" clip-rule="evenodd" viewBox="0 0 10240 10240" xmlns:xlink="http://www.w3.org/1999/xlink">
	<title>envelope2 icon</title>
	<desc>envelope2 icon from the IconExperience.com O-Collection. Copyright by INCORS GmbH (www.incors.com).</desc>
	<path id="curve0" fill="#252525" d="M1920 640l6400 0c353,0 640,287 640,640l0 7680c0,353 -287,640 -640,640l-6400 0c-353,0 -640,-287 -640,-640l0 -7680c0,-353 287,-640 640,-640zm231 640l1049 1280 3840 0 1049 -1280 -5938 0zm6169 240l-776 1358c-117,204 -319,322 -555,322l-3738 0c-236,0 -438,-118 -555,-322l-776 -1358 0 7134 768 -734c145,-139 299,-240 500,-240l3864 0c201,0 355,101 500,240l768 734 0 -7134zm-281 7440l-737 -840c-65,-81 -146,-120 -250,-120l-3864 0c-104,0 -185,39 -250,120l-737 840 5838 0z"/>
</svg>
