<?xml version="1.0" encoding="UTF-8"?>
<!DOCTYPE svg PUBLIC "-//W3C//DTD SVG 1.1//EN" "http://www.w3.org/Graphics/SVG/1.1/DTD/svg11.dtd">
<svg xmlns="http://www.w3.org/2000/svg" xml:space="preserve" width="1024px" height="1024px" shape-rendering="geometricPrecision" text-rendering="geometricPrecision" image-rendering="optimizeQuality" fill-rule="nonzero" clip-rule="evenodd" viewBox="0 0 10240 10240" xmlns:xlink="http://www.w3.org/1999/xlink">
	<title>factory icon</title>
	<desc>factory icon from the IconExperience.com O-Collection. Copyright by INCORS GmbH (www.incors.com).</desc>
	<path id="curve1" fill="#252525" d="M640 7040l0 -1600 1920 -960 0 960 1920 -960 0 960 1920 -960 0 960 0 960 1920 0 1280 0 0 3200 -8960 0 0 -2560zm640 0l0 640 4480 0 0 -640 -1280 0 0 640 -320 0 0 -640 -1280 0 0 640 -320 0 0 -640 -1280 0z"/>
	<path id="curve0" fill="#3E9BD5" d="M7360,640 8640,640 8960,6098 7040,6098z"/>
</svg>
