<?xml version="1.0" encoding="UTF-8"?>
<!DOCTYPE svg PUBLIC "-//W3C//DTD SVG 1.1//EN" "http://www.w3.org/Graphics/SVG/1.1/DTD/svg11.dtd">
<svg xmlns="http://www.w3.org/2000/svg" xml:space="preserve" width="1024px" height="1024px" shape-rendering="geometricPrecision" text-rendering="geometricPrecision" image-rendering="optimizeQuality" fill-rule="nonzero" clip-rule="evenodd" viewBox="0 0 10240 10240" xmlns:xlink="http://www.w3.org/1999/xlink">
	<title>fan icon</title>
	<desc>fan icon from the IconExperience.com O-Collection. Copyright by INCORS GmbH (www.incors.com).</desc>
	<path id="curve2" fill="#252525" d="M5120 4480c353,0 640,287 640,640 0,353 -287,640 -640,640 -353,0 -640,-287 -640,-640 0,-353 287,-640 640,-640z"/>
	<path id="curve1" fill="#3E9BD5" d="M4670 6767c2,-299 16,-556 42,-778 124,58 262,91 408,91 403,0 747,-248 890,-600 529,620 1558,114 1880,946 272,698 -119,1267 -772,1636 -960,545 -2454,75 -2448,-1295zm-309 -1060c-834,122 -900,1300 -1794,1162 -740,-115 -1037,-737 -1031,-1487 9,-1104 1163,-2162 2346,-1473 266,156 487,301 669,438 -237,175 -391,456 -391,773 0,221 75,425 201,587zm592 -1533c316,-784 -675,-1431 -108,-2137 470,-584 1157,-530 1804,-149 951,559 1291,2088 102,2767 -253,145 -477,259 -678,346 -59,-474 -463,-841 -953,-841 -57,0 -113,5 -167,14z"/>
	<path id="curve0" fill="#252525" d="M5120 640c2474,0 4480,2006 4480,4480 0,2474 -2006,4480 -4480,4480 -2474,0 -4480,-2006 -4480,-4480 0,-2474 2006,-4480 4480,-4480zm0 640c-2121,0 -3840,1719 -3840,3840 0,2121 1719,3840 3840,3840 2121,0 3840,-1719 3840,-3840 0,-2121 -1719,-3840 -3840,-3840z"/>
</svg>
