<?xml version="1.0" encoding="UTF-8"?>
<!DOCTYPE svg PUBLIC "-//W3C//DTD SVG 1.1//EN" "http://www.w3.org/Graphics/SVG/1.1/DTD/svg11.dtd">
<svg xmlns="http://www.w3.org/2000/svg" xml:space="preserve" width="1024px" height="1024px" shape-rendering="geometricPrecision" text-rendering="geometricPrecision" image-rendering="optimizeQuality" fill-rule="nonzero" clip-rule="evenodd" viewBox="0 0 10240 10240" xmlns:xlink="http://www.w3.org/1999/xlink">
	<title>fax_machine icon</title>
	<desc>fax_machine icon from the IconExperience.com O-Collection. Copyright by INCORS GmbH (www.incors.com).</desc>
	<path id="curve2" fill="#252525" d="M2594 3840l6046 0c529,0 960,431 960,960l0 3840c0,529 -431,960 -960,960l-6046 0c181,-187 286,-445 286,-719l0 -513c0,-245 -85,-484 -244,-671 -53,-62 -76,-125 -76,-207l0 -1540c0,-82 23,-145 76,-207 159,-187 244,-426 244,-671l0 -513c0,-274 -105,-532 -286,-719zm4446 2240l0 640 640 0 0 -640 -640 0zm0 960l0 640 640 0 0 -640 -640 0zm0 960l0 640 640 0 0 -640 -640 0zm-3200 -960l0 640 640 0 0 -640 -640 0zm1920 -960l0 640 640 0 0 -640 -640 0zm-960 0l0 640 640 0 0 -640 -640 0zm-960 0l0 640 640 0 0 -640 -640 0zm1920 1920l0 640 640 0 0 -640 -640 0zm-960 0l0 640 640 0 0 -640 -640 0zm-960 0l0 640 640 0 0 -640 -640 0zm1920 -960l0 640 640 0 0 -640 -640 0zm-960 0l0 640 640 0 0 -640 -640 0zm-960 -2560c-176,0 -320,144 -320,320l0 320c0,176 144,320 320,320l3840 0c176,0 320,-144 320,-320l0 -320c0,-176 -144,-320 -320,-320l-3840 0z"/>
	<path id="curve1" fill="#252525" d="M2392 5535c104,-122 168,-284 168,-463l0 -513c0,-335 -218,-616 -525,-676 -291,-57 -579,-57 -870,0 -307,60 -525,341 -525,676l0 513c0,179 64,341 168,463 102,121 152,257 152,415l0 1540c0,158 -50,294 -152,415 -104,122 -168,284 -168,463l0 513c0,335 218,616 525,676 291,57 579,57 870,0 307,-60 525,-341 525,-676l0 -513c0,-179 -64,-341 -168,-463 -102,-121 -152,-257 -152,-415l0 -1540c0,-158 50,-294 152,-415z"/>
	<path id="curve0" fill="#3E9BD5" d="M2560 640l3950 0c352,0 656,126 905,375l1170 1170c249,249 375,553 375,905l0 430 -640 0c176,0 -144,-320 -320,-320l-1600 0 0 -1600c0,-176 -144,-320 -320,-320l-2880 0 0 2240 -640 0 0 -2880zm4480 960l0 960 960 0 -960 -960z"/>
</svg>
