<?xml version="1.0" encoding="UTF-8"?>
<!DOCTYPE svg PUBLIC "-//W3C//DTD SVG 1.1//EN" "http://www.w3.org/Graphics/SVG/1.1/DTD/svg11.dtd">
<svg xmlns="http://www.w3.org/2000/svg" xml:space="preserve" width="1024px" height="1024px" shape-rendering="geometricPrecision" text-rendering="geometricPrecision" image-rendering="optimizeQuality" fill-rule="nonzero" clip-rule="evenodd" viewBox="0 0 10240 10240" xmlns:xlink="http://www.w3.org/1999/xlink">
	<title>fit_to_height icon</title>
	<desc>fit_to_height icon from the IconExperience.com O-Collection. Copyright by INCORS GmbH (www.incors.com).</desc>
	<path id="curve3" fill="#252525" d="M2560 8320l2187 0c94,157 158,320 373,320 215,0 279,-163 373,-320l2187 0 0 640 -5120 0 0 -640z"/>
	<path id="curve2" fill="#3E9BD5" d="M5120,8320 6080,6720 4160,6720z"/>
	<path id="curve1" fill="#3E9BD5" d="M5120,1920 6080,3520 4160,3520z"/>
	<path id="curve0" fill="#252525" d="M2560 1280l5120 0 0 640 -2187 0c-94,-157 -158,-320 -373,-320 -215,0 -279,163 -373,320l-2187 0 0 -640z"/>
</svg>
