<?xml version="1.0" encoding="UTF-8"?>
<!DOCTYPE svg PUBLIC "-//W3C//DTD SVG 1.1//EN" "http://www.w3.org/Graphics/SVG/1.1/DTD/svg11.dtd">
<svg xmlns="http://www.w3.org/2000/svg" xml:space="preserve" width="1024px" height="1024px" shape-rendering="geometricPrecision" text-rendering="geometricPrecision" image-rendering="optimizeQuality" fill-rule="nonzero" clip-rule="evenodd" viewBox="0 0 10240 10240" xmlns:xlink="http://www.w3.org/1999/xlink">
	<title>floppy_drive icon</title>
	<desc>floppy_drive icon from the IconExperience.com O-Collection. Copyright by INCORS GmbH (www.incors.com).</desc>
	<path id="curve2" fill="#3E9BD5" d="M5120,4480 7680,4480 7680,5120 5120,5120z"/>
	<path id="curve1" fill="#252525" d="M4480 4480l320 0 0 1920c0,176 144,320 320,320l2560 0c176,0 320,-144 320,-320l0 -1920 320 0c353,0 640,287 640,640l0 3840c0,353 -287,640 -640,640l-320 0 0 -1600c0,-176 -144,-320 -320,-320l-1920 0c-176,0 -320,144 -320,320l0 1600 -960 0c-353,0 -640,-287 -640,-640l0 -3840c0,-353 287,-640 640,-640zm2240 3520l960 0 0 1280 -960 0 0 -1280z"/>
	<path id="curve0" fill="#252525" d="M1920 640l5760 0c353,0 640,288 640,640l0 2880 -3840 0c-529,0 -960,431 -960,960l0 3840 -1600 0c-352,0 -640,-287 -640,-640l0 -7040c0,-353 288,-640 640,-640zm320 7040c-177,0 -320,143 -320,320 0,177 143,320 320,320 177,0 320,-143 320,-320 0,-177 -143,-320 -320,-320zm0 -6400c-177,0 -320,143 -320,320 0,177 143,320 320,320 177,0 320,-143 320,-320 0,-177 -143,-320 -320,-320zm5120 0c-177,0 -320,143 -320,320 0,177 143,320 320,320 177,0 320,-143 320,-320 0,-177 -143,-320 -320,-320z"/>
</svg>
