<?xml version="1.0" encoding="UTF-8"?>
<!DOCTYPE svg PUBLIC "-//W3C//DTD SVG 1.1//EN" "http://www.w3.org/Graphics/SVG/1.1/DTD/svg11.dtd">
<svg xmlns="http://www.w3.org/2000/svg" xml:space="preserve" width="1024px" height="1024px" shape-rendering="geometricPrecision" text-rendering="geometricPrecision" image-rendering="optimizeQuality" fill-rule="nonzero" clip-rule="evenodd" viewBox="0 0 10240 10240" xmlns:xlink="http://www.w3.org/1999/xlink">
	<title>folder_document2 icon</title>
	<desc>folder_document2 icon from the IconExperience.com O-Collection. Copyright by INCORS GmbH (www.incors.com).</desc>
	<path id="curve1" fill="#3E9BD5" d="M4480 3200l2670 0c352,0 656,126 905,375l1170 1170c249,249 375,553 375,905l0 3950 -5120 0 0 -6400zm640 640l0 5120 3840 0 0 -2880c0,-176 -144,-320 -320,-320l-1600 0 0 -1600c0,-176 -144,-320 -320,-320l-1600 0zm2560 320l0 960 960 0 -960 -960z"/>
	<path id="curve0" fill="#252525" d="M3630 1280c352,0 656,126 905,375l530 530c249,249 553,375 905,375l1710 0c353,0 640,288 640,640l0 187 -39 -38c-309,-310 -694,-469 -1131,-469l-2245 0c-103,-70 -201,-151 -292,-242l-531 -531c-129,-129 -270,-187 -452,-187l-2350 0 0 6080c0,176 144,320 320,320 176,0 320,-144 320,-320 0,-1173 0,-2347 0,-3520 0,-353 287,-640 640,-640l1600 0 0 5120 -2560 0c-529,0 -960,-431 -960,-960 0,-2027 0,-4053 0,-6080 0,-353 287,-640 640,-640 783,0 1567,0 2350,0z"/>
</svg>
