<?xml version="1.0" encoding="UTF-8"?>
<!DOCTYPE svg PUBLIC "-//W3C//DTD SVG 1.1//EN" "http://www.w3.org/Graphics/SVG/1.1/DTD/svg11.dtd">
<svg xmlns="http://www.w3.org/2000/svg" xml:space="preserve" width="1024px" height="1024px" shape-rendering="geometricPrecision" text-rendering="geometricPrecision" image-rendering="optimizeQuality" fill-rule="nonzero" clip-rule="evenodd" viewBox="0 0 10240 10240" xmlns:xlink="http://www.w3.org/1999/xlink">
	<title>folders2 icon</title>
	<desc>folders2 icon from the IconExperience.com O-Collection. Copyright by INCORS GmbH (www.incors.com).</desc>
	<path id="curve5" fill="#3E9BD5" d="M6535,2660 7783,2372 7926,2996 6679,3283z"/>
	<path id="curve4" fill="#3E9BD5" d="M3840,2560 5120,2560 5120,3200 3840,3200z"/>
	<path id="curve3" fill="#3E9BD5" d="M1280,2560 2560,2560 2560,3200 1280,3200z"/>
	<path id="curve2" fill="#252525" d="M6008 1796l1871 -431c172,-40 344,68 384,240l1652 7172c39,172 -69,344 -240,384l-1871 431c-172,39 -344,-68 -384,-240l-1652 -7172c-39,-172 68,-345 240,-384zm144 624l790 3430 1871 -431 -790 -3430 -1871 431zm2086 4775c-344,79 -559,422 -479,766 79,344 422,559 766,480 344,-80 558,-423 479,-767 -79,-343 -422,-558 -766,-479z"/>
	<path id="curve1" fill="#252525" d="M3520 1600l1920 0c176,0 320,144 320,320l0 7360c0,176 -144,320 -320,320l-1920 0c-176,0 -320,-144 -320,-320l0 -7360c0,-176 144,-320 320,-320zm0 640l0 3520 1920 0 0 -3520 -1920 0zm961 5122c-353,0 -639,286 -639,639 0,353 286,639 639,639 353,0 639,-286 639,-639 0,-353 -286,-639 -639,-639z"/>
	<path id="curve0" fill="#252525" d="M960 1600l1920 0c176,0 320,144 320,320l0 7360c0,176 -144,320 -320,320l-1920 0c-176,0 -320,-144 -320,-320l0 -7360c0,-176 144,-320 320,-320zm0 640l0 3520 1920 0 0 -3520 -1920 0zm961 5122c-353,0 -639,286 -639,639 0,353 286,639 639,639 353,0 639,-286 639,-639 0,-353 -286,-639 -639,-639z"/>
</svg>
