<?xml version="1.0" encoding="UTF-8"?>
<!DOCTYPE svg PUBLIC "-//W3C//DTD SVG 1.1//EN" "http://www.w3.org/Graphics/SVG/1.1/DTD/svg11.dtd">
<svg xmlns="http://www.w3.org/2000/svg" xml:space="preserve" width="1024px" height="1024px" shape-rendering="geometricPrecision" text-rendering="geometricPrecision" image-rendering="optimizeQuality" fill-rule="nonzero" clip-rule="evenodd" viewBox="0 0 10240 10240" xmlns:xlink="http://www.w3.org/1999/xlink">
	<title>folder_window icon</title>
	<desc>folder_window icon from the IconExperience.com O-Collection. Copyright by INCORS GmbH (www.incors.com).</desc>
	<path id="curve1" fill="#3E9BD5" d="M9600 9280c0,176 -144,320 -320,320l-5120 0c-176,0 -320,-144 -320,-320l0 -3520c0,-353 288,-640 640,-640l4480 0c352,0 640,288 640,640 0,1813 0,1707 0,3520zm-5121 -2880l1 2560 4481 0 -1 -2560 -4481 0z"/>
	<path id="curve0" fill="#252525" d="M3630 1280c352,0 656,126 905,375l530 530c249,249 553,375 905,375l1710 0c353,0 640,288 640,640l0 320 -640 0 0 -320 -1710 0c-522,0 -988,-193 -1357,-562l-531 -531c-129,-129 -270,-187 -452,-187l-2350 0 0 6080c0,176 144,320 320,320 176,0 320,-144 320,-320 0,-1173 0,-2347 0,-3520 0,-353 287,-640 640,-640l5760 0 0 0c353,0 640,287 640,640l0 320 -4480 0c-529,0 -960,431 -960,960l0 3200 -1920 0c-529,0 -960,-431 -960,-960 0,-2027 0,-4053 0,-6080 0,-353 287,-640 640,-640 783,0 1567,0 2350,0z"/>
</svg>
