<?xml version="1.0" encoding="UTF-8"?>
<!DOCTYPE svg PUBLIC "-//W3C//DTD SVG 1.1//EN" "http://www.w3.org/Graphics/SVG/1.1/DTD/svg11.dtd">
<svg xmlns="http://www.w3.org/2000/svg" xml:space="preserve" width="1024px" height="1024px" shape-rendering="geometricPrecision" text-rendering="geometricPrecision" image-rendering="optimizeQuality" fill-rule="nonzero" clip-rule="evenodd" viewBox="0 0 10240 10240" xmlns:xlink="http://www.w3.org/1999/xlink">
	<title>folder3_movie icon</title>
	<desc>folder3_movie icon from the IconExperience.com O-Collection. Copyright by INCORS GmbH (www.incors.com).</desc>
	<path id="curve1" fill="#3E9BD5" d="M6400 3200c-232,0 -461,25 -688,74 48,118 48,196 48,317 206,-46 420,-71 640,-71 1591,0 2880,1289 2880,2880 0,1591 -1289,2880 -2880,2880 -220,0 -434,-25 -640,-71 0,0 -2,299 -6,326 209,43 425,65 646,65 1767,0 3200,-1433 3200,-3200 0,-1812 -1475,-3200 -3200,-3200zm932 4915l-463 -637c-59,-82 -156,-119 -254,-97 -141,31 -289,31 -430,0 -98,-22 -195,15 -254,97l-171 235 0 842c478,141 995,120 1461,-62 153,-60 207,-246 111,-378zm-1572 -2469c73,-61 154,-111 242,-150 93,-40 149,-127 149,-228l0 -788c0,-163 -152,-281 -311,-241 -27,7 -53,15 -80,23l0 1384zm1038 -150c133,58 251,145 347,252 67,76 167,103 263,72l749 -244c155,-50 221,-232 133,-370 -301,-472 -774,-823 -1330,-967 -159,-40 -311,78 -311,241l0 788c0,101 56,188 149,228zm1330 2338c361,-438 542,-997 508,-1563 -10,-163 -170,-272 -326,-221l-748 243c-97,31 -162,112 -171,213 -14,144 -59,282 -132,407 -52,87 -47,190 13,272l462 637c96,131 290,138 394,12zm-1728 -2074c353,0 640,287 640,640 0,353 -287,640 -640,640 -355,0 -640,-287 -640,-641 1,-353 287,-639 640,-639z"/>
	<path id="curve0" fill="#252525" d="M1304 640l7336 0c176,0 320,144 320,320l0 1975c0,176 -63,328 -187,452l-225 225c-173,-134 -358,-251 -554,-351l326 -326c0,0 0,0 0,0 0,0 0,0 0,0l0 -1655 -640 0 0 1840c-397,-155 -828,-240 -1280,-240 -254,0 -508,27 -756,82 -48,10 -90,29 -126,56 -47,-37 -101,-69 -160,-92l-4172 -1669c-144,-57 -225,-205 -195,-358 29,-151 158,-259 313,-259zm-664 3818l0 45 0 45 0 45 0 45 0 46 0 45 0 45 0 45 0 45 0 46 0 45 0 45 0 45 0 45 0 30 0 2230c0,401 231,743 603,891l3758 1503c102,41 208,30 298,-32 78,-52 126,-129 138,-219l0 0 0 -1 1 -4 0 0 0 0 0 -1 0 -1 0 -2 0 -1 0 0 1 -4 0 -1 0 0 0 -5 0 0 0 -4 0 -1 0 0 0 -1 1 -4 0 -1 0 -4 0 0 0 -1 0 -4 0 -1 0 0 0 -5 0 -5927c0,-4 0,-8 0,-12l0 0c-1,-11 -1,-21 -3,-31l0 -1c0,-3 -1,-7 -1,-11l-1 0c-18,-110 -90,-200 -196,-242l-4197 -1669c-246,-98 -402,-336 -402,-594l0 3498z"/>
</svg>
