<?xml version="1.0" encoding="UTF-8"?>
<!DOCTYPE svg PUBLIC "-//W3C//DTD SVG 1.1//EN" "http://www.w3.org/Graphics/SVG/1.1/DTD/svg11.dtd">
<svg xmlns="http://www.w3.org/2000/svg" xml:space="preserve" width="1024px" height="1024px" shape-rendering="geometricPrecision" text-rendering="geometricPrecision" image-rendering="optimizeQuality" fill-rule="nonzero" clip-rule="evenodd" viewBox="0 0 10240 10240" xmlns:xlink="http://www.w3.org/1999/xlink">
	<title>football icon</title>
	<desc>football icon from the IconExperience.com O-Collection. Copyright by INCORS GmbH (www.incors.com).</desc>
	<path id="curve0" fill="#252525" d="M1783 8933c477,477 3486,805 5720,-1430 2235,-2234 1907,-5243 1430,-5720 -131,-131 -338,-138 -461,-15 123,-123 116,-330 -15,-461 -477,-477 -3486,-805 -5720,1430 -2235,2234 -1907,5243 -1430,5720 124,124 332,144 461,15 -129,129 -109,337 15,461zm5050 -5074l-419 419 140 140c58,58 58,153 0,212l-14 14c-59,58 -154,58 -212,0l-140 -140 -419 419 165 165c58,58 58,153 0,212l-14 14c-59,58 -154,58 -212,0l-165 -165 -409 409 160 160c58,58 58,153 0,212l-14 14c-59,58 -154,58 -212,0l-160 -160 -399 399 145 145c58,58 58,153 0,212l-14 14c-59,58 -154,58 -212,0l-145 -145 -424 424c-62,62 -164,62 -226,0l-226 -226c-62,-62 -62,-164 0,-226l424 -424 -151 -151c-59,-58 -59,-154 0,-212l14 -14c58,-59 154,-59 212,0l151 151 399 -399 -136 -136c-59,-58 -59,-154 0,-212l14 -14c58,-59 154,-59 212,0l136 136 409 -409 -131 -131c-59,-58 -59,-154 0,-212l14 -14c58,-59 154,-59 212,0l131 131 419 -419 -156 -156c-59,-58 -59,-154 0,-212l14 -14c58,-59 154,-59 212,0l156 156 419 -419c62,-62 164,-62 226,0l226 226c62,62 62,164 0,226zm-3633 4781l-1600 -1600c-5,-275 16,-554 56,-821 43,-289 109,-572 197,-846l3014 3014c-274,88 -557,154 -846,197 -267,40 -546,61 -821,56zm5187 -3773l-3014 -3014c274,-88 557,-154 846,-197 267,-40 546,-61 821,-56l1600 1600c5,275 -16,554 -56,821 -43,289 -109,572 -197,846z"/>
</svg>
