<?xml version="1.0" encoding="UTF-8"?>
<!DOCTYPE svg PUBLIC "-//W3C//DTD SVG 1.1//EN" "http://www.w3.org/Graphics/SVG/1.1/DTD/svg11.dtd">
<svg xmlns="http://www.w3.org/2000/svg" xml:space="preserve" width="1024px" height="1024px" shape-rendering="geometricPrecision" text-rendering="geometricPrecision" image-rendering="optimizeQuality" fill-rule="nonzero" clip-rule="evenodd" viewBox="0 0 10240 10240" xmlns:xlink="http://www.w3.org/1999/xlink">
	<title>senior_citizen icon</title>
	<desc>senior_citizen icon from the IconExperience.com O-Collection. Copyright by INCORS GmbH (www.incors.com).</desc>
	<path id="curve2" fill="#252525" d="M8320 8472c0,668 -1309,1002 -2486,1098l600 -3005 1 -24 432 -721c65,-108 61,-237 -6,-338 19,-14 36,-28 54,-42 848,659 1405,1771 1405,3032zm-3884 1100c-1185,-93 -2516,-427 -2516,-1099 0,-1262 557,-2374 1405,-3033 18,14 35,28 54,42 -67,101 -71,230 -6,338l421 702 3 29 604 3019 35 2z"/>
	<path id="curve1" fill="#3E9BD5" d="M5138 6058l344 560c59,96 161,145 274,142 113,-3 209,-58 267,-155l569 -950c-426,253 -923,400 -1454,403zm-36 0l-344 560c-59,96 -161,145 -274,142 -113,-3 -209,-58 -267,-155l-569 -950c426,253 923,400 1454,403z"/>
	<path id="curve0" fill="#252525" d="M5120 640c1414,0 2560,1141 2560,2549 0,1080 -673,2002 -1625,2374 16,-38 25,-79 25,-123l0 -640c0,-176 -144,-320 -320,-320l-1280 0c-176,0 -320,144 -320,320l0 640c0,44 9,85 25,123 -952,-372 -1625,-1294 -1625,-2374 0,-1408 1146,-2549 2560,-2549zm-640 4160l1280 0 0 320 -1280 0 0 -320zm2560 -1280l0 -640c0,-176 -144,-320 -320,-320l-3200 0c-176,0 -320,144 -320,320l0 640c0,176 144,320 320,320l960 0c176,0 320,-144 320,-320l0 -320c0,-176 144,-320 320,-320 176,0 320,144 320,320l0 320c0,176 144,320 320,320l960 0c176,0 320,-144 320,-320z"/>
</svg>
