<?xml version="1.0" encoding="UTF-8"?>
<!DOCTYPE svg PUBLIC "-//W3C//DTD SVG 1.1//EN" "http://www.w3.org/Graphics/SVG/1.1/DTD/svg11.dtd">
<svg xmlns="http://www.w3.org/2000/svg" xml:space="preserve" width="1024px" height="1024px" shape-rendering="geometricPrecision" text-rendering="geometricPrecision" image-rendering="optimizeQuality" fill-rule="nonzero" clip-rule="evenodd" viewBox="0 0 10240 10240" xmlns:xlink="http://www.w3.org/1999/xlink">
	<title>signboard_sold icon</title>
	<desc>signboard_sold icon from the IconExperience.com O-Collection. Copyright by INCORS GmbH (www.incors.com).</desc>
	<path id="curve2" fill="#252525" d="M4480,7360 5760,7360 5760,9920 4480,9920z"/>
	<path id="curve1" fill="#3E9BD5" d="M3178 2960c-28,-49 -81,-80 -138,-80l-320 0c-88,0 -160,72 -160,160 0,88 72,160 160,160l320 0c265,0 480,215 480,480 0,265 -215,480 -480,480l-320 0c-234,0 -435,-170 -473,-400l335 0c28,49 81,80 138,80l320 0c88,0 160,-72 160,-160 0,-88 -72,-160 -160,-160l-320 0c-265,0 -480,-215 -480,-480 0,-265 215,-480 480,-480l320 0c234,0 435,170 473,400l-335 0zm3622 -400l560 0c353,0 640,288 640,640l0 320c0,352 -288,640 -640,640l-560 0c-44,0 -80,-36 -80,-80l0 -1440c0,-44 36,-80 80,-80zm-2320 1600c353,0 640,-287 640,-640l0 -320c0,-353 -287,-640 -640,-640 -353,0 -640,287 -640,640l0 320c0,353 287,640 640,640zm320 -640c0,177 -143,320 -320,320 -177,0 -320,-143 -320,-320l0 -320c0,-177 143,-320 320,-320 177,0 320,143 320,320l0 320zm640 -960l320 0 0 1280 640 0 0 320 -960 0 0 -1600zm1600 320l0 960 320 0c176,0 320,-144 320,-320l0 -320c0,-176 -144,-320 -320,-320l-320 0z"/>
	<path id="curve0" fill="#252525" d="M960 640l8320 0c176,0 320,144 320,320l0 5760c0,176 -144,320 -320,320l-8320 0c-176,0 -320,-144 -320,-320l0 -5760c0,-176 144,-320 320,-320zm320 640l0 5120 7680 0 0 -5120 -7680 0z"/>
</svg>
