<?xml version="1.0" encoding="UTF-8"?>
<!DOCTYPE svg PUBLIC "-//W3C//DTD SVG 1.1//EN" "http://www.w3.org/Graphics/SVG/1.1/DTD/svg11.dtd">
<svg xmlns="http://www.w3.org/2000/svg" xml:space="preserve" width="1024px" height="1024px" shape-rendering="geometricPrecision" text-rendering="geometricPrecision" image-rendering="optimizeQuality" fill-rule="nonzero" clip-rule="evenodd" viewBox="0 0 10240 10240" xmlns:xlink="http://www.w3.org/1999/xlink">
	<title>sign_warning_radiation icon</title>
	<desc>sign_warning_radiation icon from the IconExperience.com O-Collection. Copyright by INCORS GmbH (www.incors.com).</desc>
	<path id="curve1" fill="#252525" d="M5680 1282l3846 6712c117,205 117,439 0,644 -117,205 -319,322 -554,322l-7691 0c-234,0 -436,-117 -553,-322 -117,-205 -117,-439 0,-644l3846 -6712c117,-205 318,-322 553,-322 235,0 436,117 553,322zm-554 308l-12 0 -3846 6730 6 10 7692 0 6 -10 -3846 -6730z"/>
	<path id="curve0" fill="#3E9BD5" d="M5533 6087c0,-222 -185,-403 -413,-403 -228,0 -413,181 -413,403 0,223 185,403 413,403 228,0 413,-180 413,-403zm478 -1508l-547 927c205,116 344,333 344,581l1094 0c81,0 144,-66 138,-145 -45,-552 -337,-1076 -832,-1406 -67,-45 -157,-25 -197,43zm-1235 2090l-547 926c-41,68 -13,154 60,188 511,239 1122,254 1663,0 72,-34 99,-120 59,-188l-547 -926c-211,119 -477,119 -688,0zm0 -1163l-547 -927c-41,-68 -131,-88 -197,-43 -467,313 -786,823 -832,1407 -6,78 57,144 138,144l1094 0c0,-248 139,-465 344,-581z"/>
</svg>
