<?xml version="1.0" encoding="UTF-8"?>
<!DOCTYPE svg PUBLIC "-//W3C//DTD SVG 1.1//EN" "http://www.w3.org/Graphics/SVG/1.1/DTD/svg11.dtd">
<svg xmlns="http://www.w3.org/2000/svg" xml:space="preserve" width="1024px" height="1024px" shape-rendering="geometricPrecision" text-rendering="geometricPrecision" image-rendering="optimizeQuality" fill-rule="nonzero" clip-rule="evenodd" viewBox="0 0 10240 10240" xmlns:xlink="http://www.w3.org/1999/xlink">
	<title>skin_cow icon</title>
	<desc>skin_cow icon from the IconExperience.com O-Collection. Copyright by INCORS GmbH (www.incors.com).</desc>
	<path id="curve0" fill="#252525" d="M6486 797c316,536 878,1035 1878,1113 154,11 275,127 293,280 61,507 286,1113 675,1465 128,115 142,311 31,443 -958,1138 -964,2481 -19,3621 60,73 84,158 70,251 -14,93 -61,168 -139,220 -443,294 -858,719 -1137,1164 -84,136 -253,188 -399,124 -629,-275 -1503,-518 -2619,-518 -1116,0 -1990,243 -2619,518 -146,64 -315,12 -399,-124 -279,-445 -694,-870 -1137,-1164 -78,-52 -125,-127 -139,-220 -14,-93 10,-178 70,-251 945,-1140 939,-2483 -19,-3621 -110,-132 -97,-328 31,-443 389,-352 614,-958 675,-1465 18,-153 139,-269 293,-280 1000,-78 1562,-577 1878,-1113 60,-100 160,-157 276,-157l2180 0c116,0 216,57 276,157zm1574 1722c-23,-4 -47,-7 -70,-11 -21,112 -75,218 -155,310 -109,126 -160,270 -155,436 0,4 0,8 0,11 0,318 -358,575 -800,575 -442,0 -800,-257 -800,-575 0,-3 0,-7 0,-11 5,-166 -46,-310 -155,-435 -105,-122 -165,-266 -165,-419 0,-309 246,-578 606,-711 -121,-123 -232,-259 -333,-409l-1826 0c-290,432 -665,750 -1103,961 717,21 1297,391 1369,861 36,238 187,423 413,505 279,102 490,285 573,506 79,210 245,354 465,401 460,99 796,405 796,766 0,438 -493,794 -1104,800 -146,1 -271,45 -386,135 -147,114 -357,185 -590,185 -442,0 -800,-256 -800,-571 0,-53 10,-104 29,-152 109,-285 8,-600 -248,-766 -89,-59 -165,-127 -224,-204 -67,23 -138,41 -211,56 9,34 14,69 14,106 0,315 -358,571 -800,571 -69,0 -136,-6 -201,-18 135,825 -66,1669 -603,2435 64,50 127,103 189,157 140,-328 567,-567 1072,-567 618,0 1120,358 1120,800 0,54 -8,107 -22,159 385,-58 775,-86 1165,-86 895,0 1793,146 2627,469 249,-344 560,-667 897,-932 -186,-265 -332,-540 -437,-820 -654,-36 -1167,-379 -1167,-797 0,-380 425,-699 995,-780 80,-533 300,-1058 661,-1549 -323,-387 -538,-894 -636,-1392zm-2460 4201c442,0 800,257 800,575 0,317 -358,574 -800,574 -442,0 -800,-257 -800,-574 0,-318 358,-575 800,-575z"/>
</svg>
