<?xml version="1.0" encoding="UTF-8"?>
<!DOCTYPE svg PUBLIC "-//W3C//DTD SVG 1.1//EN" "http://www.w3.org/Graphics/SVG/1.1/DTD/svg11.dtd">
<svg xmlns="http://www.w3.org/2000/svg" xml:space="preserve" width="1024px" height="1024px" shape-rendering="geometricPrecision" text-rendering="geometricPrecision" image-rendering="optimizeQuality" fill-rule="nonzero" clip-rule="evenodd" viewBox="0 0 10240 10240" xmlns:xlink="http://www.w3.org/1999/xlink">
	<title>small_truck icon</title>
	<desc>small_truck icon from the IconExperience.com O-Collection. Copyright by INCORS GmbH (www.incors.com).</desc>
	<path id="curve2" fill="#252525" d="M8000 7040c-530,0 -960,430 -960,960 0,530 430,960 960,960 530,0 960,-430 960,-960 0,-530 -430,-960 -960,-960zm-4480 0c530,0 960,430 960,960 0,530 -430,960 -960,960 -530,0 -960,-430 -960,-960 0,-530 430,-960 960,-960zm0 640c-177,0 -320,143 -320,320 0,177 143,320 320,320 177,0 320,-143 320,-320 0,-177 -143,-320 -320,-320zm4480 0c177,0 320,143 320,320 0,177 -143,320 -320,320 -177,0 -320,-143 -320,-320 0,-177 143,-320 320,-320z"/>
	<path id="curve1" fill="#252525" d="M6400 7040l0 -2560c0,-176 144,-320 320,-320l1844 0c249,0 452,137 573,354l715 1280c51,90 68,182 68,286l0 1600c0,176 -144,320 -320,320l-320 0c0,-707 -573,-1280 -1280,-1280 -707,0 -1280,573 -1280,1280l-1920 0c0,-382 -168,-725 -434,-960l2034 0zm2566 -1518l-314 -559c-58,-103 -160,-163 -279,-163l-1173 0c-88,0 -160,72 -160,160l0 640c0,88 72,160 160,160l1627 0c58,0 108,-29 138,-79 29,-51 30,-109 1,-159zm-6726 2478l-960 0 0 -960 1394 0c-266,235 -434,578 -434,960z"/>
	<path id="curve0" fill="#3E9BD5" d="M960 2560l5120 0c176,0 320,144 320,320l0 3840 -5440 0c-176,0 -320,-144 -320,-320l0 -3520c0,-176 144,-320 320,-320z"/>
</svg>
