<?xml version="1.0" encoding="UTF-8"?>
<!DOCTYPE svg PUBLIC "-//W3C//DTD SVG 1.1//EN" "http://www.w3.org/Graphics/SVG/1.1/DTD/svg11.dtd">
<svg xmlns="http://www.w3.org/2000/svg" xml:space="preserve" width="1024px" height="1024px" shape-rendering="geometricPrecision" text-rendering="geometricPrecision" image-rendering="optimizeQuality" fill-rule="nonzero" clip-rule="evenodd" viewBox="0 0 10240 10240" xmlns:xlink="http://www.w3.org/1999/xlink">
	<title>solar_panel icon</title>
	<desc>solar_panel icon from the IconExperience.com O-Collection. Copyright by INCORS GmbH (www.incors.com).</desc>
	<path id="curve1" fill="#3E9BD5" d="M6400 6720l320 -320 1280 0 320 320 0 1280 -320 320 -1280 0 -320 -320 0 -1280zm-4480 -4480l320 -320 1280 0 320 320 0 1280 -320 320 -1280 0 -320 -320 0 -1280zm2240 0l320 -320 1280 0 320 320 0 1280 -320 320 -1280 0 -320 -320 0 -1280zm2240 0l320 -320 1280 0 320 320 0 1280 -320 320 -1280 0 -320 -320 0 -1280zm-4480 2240l320 -320 1280 0 320 320 0 1280 -320 320 -1280 0 -320 -320 0 -1280zm2240 0l320 -320 1280 0 320 320 0 1280 -320 320 -1280 0 -320 -320 0 -1280zm2240 0l320 -320 1280 0 320 320 0 1280 -320 320 -1280 0 -320 -320 0 -1280zm-4480 2240l320 -320 1280 0 320 320 0 1280 -320 320 -1280 0 -320 -320 0 -1280zm2240 0l320 -320 1280 0 320 320 0 1280 -320 320 -1280 0 -320 -320 0 -1280z"/>
	<path id="curve0" fill="#252525" d="M1600 960l7040 0c353,0 640,287 640,640l0 7040c0,352 -287,640 -640,640l-7040 0c-352,0 -640,-288 -640,-640l0 -7040c0,-353 288,-640 640,-640zm0 640l0 7040 7040 0 0 -7040 -7040 0z"/>
</svg>
