<?xml version="1.0" encoding="UTF-8"?>
<!DOCTYPE svg PUBLIC "-//W3C//DTD SVG 1.1//EN" "http://www.w3.org/Graphics/SVG/1.1/DTD/svg11.dtd">
<svg xmlns="http://www.w3.org/2000/svg" xml:space="preserve" width="1024px" height="1024px" shape-rendering="geometricPrecision" text-rendering="geometricPrecision" image-rendering="optimizeQuality" fill-rule="nonzero" clip-rule="evenodd" viewBox="0 0 10240 10240" xmlns:xlink="http://www.w3.org/1999/xlink">
	<title>sort_up_down_question icon</title>
	<desc>sort_up_down_question icon from the IconExperience.com O-Collection. Copyright by INCORS GmbH (www.incors.com).</desc>
	<path id="curve1" fill="#3E9BD5" d="M7360 6720l960 0 0 960 -960 0 0 -960zm-1280 -1760l0 -320c0,-794 646,-1440 1440,-1440l640 0c794,0 1440,646 1440,1440 0,298 -94,585 -266,828 -171,242 -414,429 -695,529 -200,71 -319,242 -319,453l-960 0c0,-308 94,-594 261,-831 168,-238 408,-422 699,-526 195,-69 320,-246 320,-453 0,-264 -216,-480 -480,-480l-640 0c-264,0 -480,216 -480,480l0 320 -960 0z"/>
	<path id="curve0" fill="#252525" d="M5254 2747l-1826 -1826c-124,-124 -328,-124 -452,0l-1827 1826c-124,125 -187,277 -187,453l0 1159c0,66 38,122 99,147 61,26 127,13 174,-34l1327 -1327 0 3950 -1327 -1327c-47,-46 -113,-60 -174,-34 -61,25 -99,81 -99,147l0 1159c0,176 63,328 187,453l1827 1826c124,124 328,124 452,0l1826 -1826c125,-125 188,-277 188,-453l0 -1159c0,-66 -38,-122 -99,-147 -61,-26 -128,-12 -174,34l-1327 1327 0 -3950 1327 1327c46,46 113,60 174,34 61,-25 99,-81 99,-147l0 -1159c0,-176 -63,-328 -188,-453z"/>
</svg>
