<?xml version="1.0" encoding="UTF-8"?>
<!DOCTYPE svg PUBLIC "-//W3C//DTD SVG 1.1//EN" "http://www.w3.org/Graphics/SVG/1.1/DTD/svg11.dtd">
<svg xmlns="http://www.w3.org/2000/svg" xml:space="preserve" width="1024px" height="1024px" shape-rendering="geometricPrecision" text-rendering="geometricPrecision" image-rendering="optimizeQuality" fill-rule="nonzero" clip-rule="evenodd" viewBox="0 0 10240 10240" xmlns:xlink="http://www.w3.org/1999/xlink">
	<title>sort_19_descending icon</title>
	<desc>sort_19_descending icon from the IconExperience.com O-Collection. Copyright by INCORS GmbH (www.incors.com).</desc>
	<path id="curve2" fill="#3E9BD5" d="M7200 5760l1120 0c0,853 0,1707 0,2560l640 0 0 640 -1920 0 0 -640 640 0 0 -1920 -640 0 0 -480c0,-88 72,-160 160,-160z"/>
	<path id="curve1" fill="#3E9BD5" d="M8960 2560l0 160 0 1760c0,352 -288,640 -640,640l-1280 0c-352,0 -640,-288 -640,-640l0 -160 640 0c0,88 72,160 160,160l960 0c88,0 160,-72 160,-160l0 -480 -1280 0c-352,0 -640,-288 -640,-640l0 -640c0,-353 288,-640 640,-640 427,0 853,0 1280,0 353,0 640,287 640,640zm-640 160c0,-88 -72,-160 -160,-160l-960 0c-88,0 -160,72 -160,160l0 320c0,88 72,160 160,160l960 0c88,0 160,-72 160,-160l0 -320z"/>
	<path id="curve0" fill="#252525" d="M5253 7493l-1827 1826c-124,124 -328,124 -452,0l-1827 -1826c-124,-125 -187,-277 -187,-453l0 -1159c0,-142 172,-214 273,-113l1327 1327 0 -5495c0,-176 144,-320 320,-320l640 0c176,0 320,144 320,320l0 5495 1327 -1327c101,-101 273,-29 273,113l0 1159c0,176 -63,328 -187,453z"/>
</svg>
