<?xml version="1.0" encoding="UTF-8"?>
<!DOCTYPE svg PUBLIC "-//W3C//DTD SVG 1.1//EN" "http://www.w3.org/Graphics/SVG/1.1/DTD/svg11.dtd">
<svg xmlns="http://www.w3.org/2000/svg" xml:space="preserve" width="1024px" height="1024px" shape-rendering="geometricPrecision" text-rendering="geometricPrecision" image-rendering="optimizeQuality" fill-rule="nonzero" clip-rule="evenodd" viewBox="0 0 10240 10240" xmlns:xlink="http://www.w3.org/1999/xlink">
	<title>speech_balloon_question icon</title>
	<desc>speech_balloon_question icon from the IconExperience.com O-Collection. Copyright by INCORS GmbH (www.incors.com).</desc>
	<path id="curve1" fill="#3E9BD5" d="M4640 5440l640 0c88,0 160,72 160,160l0 640c0,88 -72,160 -160,160l-640 0c-88,0 -160,-72 -160,-160l0 -640c0,-88 72,-160 160,-160zm-1120 -2080l0 -160c0,-309 126,-589 328,-792 203,-202 483,-328 792,-328l960 0c309,0 589,126 792,328 202,203 328,483 328,792l0 244c0,213 -59,415 -167,589 -107,173 -261,315 -453,411l-572 287c-30,15 -53,35 -68,58 -13,22 -20,51 -20,87l0 84c0,88 -72,160 -160,160l-640 0c-88,0 -160,-72 -160,-160l0 -84c0,-213 59,-415 167,-589 107,-173 261,-315 453,-411l572 -287c30,-15 53,-35 68,-58 13,-22 20,-51 20,-87l0 -244c0,-44 -18,-84 -47,-113 -29,-29 -69,-47 -113,-47l-960 0c-44,0 -84,18 -113,47 -29,29 -47,69 -47,113l0 160c0,88 -72,160 -160,160l-640 0c-88,0 -160,-72 -160,-160z"/>
	<path id="curve0" fill="#252525" d="M5120 640c2474,0 4480,1576 4480,3520 0,911 -440,1740 -1162,2365 -108,93 -174,203 -206,341 -318,1393 -1486,2414 -3112,2414 213,-213 354,-475 449,-761 66,-198 37,-398 -84,-569 -120,-172 -298,-267 -507,-272 -2409,-59 -4338,-1611 -4338,-3518 0,-1944 2006,-3520 4480,-3520zm1119 7774c681,-300 1186,-886 1370,-1690 62,-271 200,-501 410,-683 556,-481 941,-1132 941,-1881 0,-1906 -2203,-2880 -3840,-2880 -1637,0 -3840,974 -3840,2880 0,217 33,431 96,638 452,1477 2191,2205 3617,2240 412,11 779,206 1016,544 175,248 253,539 230,832z"/>
</svg>
