<?xml version="1.0" encoding="UTF-8"?>
<!DOCTYPE svg PUBLIC "-//W3C//DTD SVG 1.1//EN" "http://www.w3.org/Graphics/SVG/1.1/DTD/svg11.dtd">
<svg xmlns="http://www.w3.org/2000/svg" xml:space="preserve" width="1024px" height="1024px" shape-rendering="geometricPrecision" text-rendering="geometricPrecision" image-rendering="optimizeQuality" fill-rule="nonzero" clip-rule="evenodd" viewBox="0 0 10240 10240" xmlns:xlink="http://www.w3.org/1999/xlink">
	<title>spreadsheed_data icon</title>
	<desc>spreadsheed_data icon from the IconExperience.com O-Collection. Copyright by INCORS GmbH (www.incors.com).</desc>
	<path id="curve4" fill="#3E9BD5" d="M5120 3840l3840 0c353,0 640,288 640,640l0 640c0,352 -288,640 -640,640l0 0c353,0 640,288 640,640l0 640c0,352 -288,640 -640,640l0 0c353,0 640,288 640,640l0 640c0,352 -288,640 -640,640l-3840 0c-352,0 -640,-287 -640,-640l0 -640c0,-353 288,-640 640,-640l0 0c-352,0 -640,-287 -640,-640l0 -640c0,-353 288,-640 640,-640l0 0c-352,0 -640,-287 -640,-640l0 -640c0,-353 288,-640 640,-640zm128 4480c-70,0 -128,72 -128,160l0 320c0,88 58,160 128,160l1792 0 0 -640 -1792 0zm0 -3840c-70,0 -128,72 -128,160l0 320c0,88 58,160 128,160l1792 0 0 -640 -1792 0zm0 1920c-70,0 -128,72 -128,160l0 320c0,88 58,160 128,160l1792 0 0 -640 -1792 0z"/>
	<path id="curve3" fill="#252525" d="M9280 2560l0 1015c-100,-36 -208,-55 -320,-55l-320 0 0 -320 -1280 0 0 320 -640 0 0 -320 -1280 0 0 320 -320 0c-112,0 -220,19 -320,55l0 -375 -1280 0 0 1280 640 0 0 640 -640 0 0 1280 640 0 0 640 -640 0 0 1280 640 0 0 640 -1280 0 0 -6400 6400 0z"/>
	<path id="curve2" fill="#252525" d="M2560 2560l0 640 -960 0 0 1280 960 0 0 640 -960 0 0 1280 960 0 0 640 -960 0 0 1280 960 0 0 640 -960 0c-352,0 -640,-287 -640,-640l0 -5760 1600 0z"/>
	<path id="curve1" fill="#252525" d="M8640 640c353,0 640,287 640,640l0 960 -640 0 0 -960 -1280 0 0 960 -640 0 0 -960 -1280 0 0 960 -640 0 0 -960 -1280 0 0 960 -640 0 0 -1600 5760 0z"/>
	<path id="curve0" fill="#252525" d="M1600 640l960 0 0 1600 -1600 0 0 -960c0,-353 287,-640 640,-640z"/>
</svg>
