<?xml version="1.0" encoding="UTF-8"?>
<!DOCTYPE svg PUBLIC "-//W3C//DTD SVG 1.1//EN" "http://www.w3.org/Graphics/SVG/1.1/DTD/svg11.dtd">
<svg xmlns="http://www.w3.org/2000/svg" xml:space="preserve" width="1024px" height="1024px" shape-rendering="geometricPrecision" text-rendering="geometricPrecision" image-rendering="optimizeQuality" fill-rule="nonzero" clip-rule="evenodd" viewBox="0 0 10240 10240" xmlns:xlink="http://www.w3.org/1999/xlink">
	<title>stockbroker2 icon</title>
	<desc>stockbroker2 icon from the IconExperience.com O-Collection. Copyright by INCORS GmbH (www.incors.com).</desc>
	<path id="curve3" fill="#252525" d="M8000 8640c0,650 -1316,881 -2417,930l403 -404c79,-79 110,-184 87,-293l-358 -1676 84 -83c184,-185 281,-418 281,-679l0 -116c0,-35 -5,-68 -15,-99 170,-68 330,-152 480,-253 947,721 1455,1078 1455,2673zm-3343 930c-1101,-49 -2417,-281 -2417,-930 0,-1594 509,-1953 1455,-2673 150,101 310,185 480,253 -10,31 -15,64 -15,99l0 116c0,261 97,494 281,679l84 83 -358 1676c-23,109 8,214 87,293l403 404z"/>
	<path id="curve2" fill="#3E9BD5" d="M5760 6319l0 116c0,176 -63,328 -187,453l-207 206 394 1846 -640 640 -640 -640 394 -1846 -207 -206c-124,-125 -187,-277 -187,-453l0 -116c205,53 419,81 640,81 221,0 435,-28 640,-81z"/>
	<path id="curve1" fill="#252525" d="M7267 3200c60,203 93,418 93,640 0,1237 -1003,2240 -2240,2240 -1237,0 -2240,-1003 -2240,-2240 0,-222 33,-437 93,-640l4294 0z"/>
	<path id="curve0" fill="#252525" d="M3200 2240l0 -640c0,-893 711,-1280 1920,-1280 1209,0 1920,387 1920,1280l0 640 640 0c176,0 320,144 320,320 0,176 -144,320 -320,320l-5120 0c-176,0 -320,-144 -320,-320 0,-176 144,-320 320,-320l640 0z"/>
</svg>
