<?xml version="1.0" encoding="UTF-8"?>
<!DOCTYPE svg PUBLIC "-//W3C//DTD SVG 1.1//EN" "http://www.w3.org/Graphics/SVG/1.1/DTD/svg11.dtd">
<svg xmlns="http://www.w3.org/2000/svg" xml:space="preserve" width="1024px" height="1024px" shape-rendering="geometricPrecision" text-rendering="geometricPrecision" image-rendering="optimizeQuality" fill-rule="nonzero" clip-rule="evenodd" viewBox="0 0 10240 10240" xmlns:xlink="http://www.w3.org/1999/xlink">
	<title>sword icon</title>
	<desc>sword icon from the IconExperience.com O-Collection. Copyright by INCORS GmbH (www.incors.com).</desc>
	<path id="curve1" fill="#252525" d="M6336 4869l-3289 3567c-306,332 -643,549 -1071,692l-689 229c-117,40 -239,11 -327,-77 -88,-88 -117,-210 -77,-327l229 -688c143,-429 360,-766 692,-1072l3567 -3289 965 965z"/>
	<path id="curve0" fill="#3E9BD5" d="M7831 4498c280,68 489,320 489,622 0,353 -287,640 -640,640 -302,0 -554,-209 -622,-489 -29,-120 -83,-216 -170,-303l-1616 -1616c-87,-87 -183,-141 -303,-170 -280,-68 -489,-320 -489,-622 0,-353 287,-640 640,-640 302,0 554,209 622,489 29,120 83,216 170,303l343 343 1195 -997c148,-123 226,-286 230,-478 11,-521 437,-940 960,-940 530,0 960,430 960,960 0,523 -419,949 -940,960 -192,4 -355,82 -478,230l-997 1195 343 343c87,87 183,141 303,170zm809 -3218c-177,0 -320,143 -320,320 0,177 143,320 320,320 177,0 320,-143 320,-320 0,-177 -143,-320 -320,-320z"/>
</svg>
