<?xml version="1.0" encoding="UTF-8"?>
<!DOCTYPE svg PUBLIC "-//W3C//DTD SVG 1.1//EN" "http://www.w3.org/Graphics/SVG/1.1/DTD/svg11.dtd">
<svg xmlns="http://www.w3.org/2000/svg" xml:space="preserve" width="1024px" height="1024px" shape-rendering="geometricPrecision" text-rendering="geometricPrecision" image-rendering="optimizeQuality" fill-rule="nonzero" clip-rule="evenodd" viewBox="0 0 10240 10240" xmlns:xlink="http://www.w3.org/1999/xlink">
	<title>symbol_at icon</title>
	<desc>symbol_at icon from the IconExperience.com O-Collection. Copyright by INCORS GmbH (www.incors.com).</desc>
	<path id="curve0" fill="#252525" d="M5120 640c2474,0 4480,2006 4480,4480 0,132 -6,263 -17,393 -94,1242 -789,2518 -2183,2418 -636,-45 -1160,-380 -1479,-861 -346,202 -736,290 -1121,290 -86,0 -173,-7 -262,-21 -969,-149 -1677,-995 -1677,-1972 0,-109 8,-223 27,-342 164,-1070 1097,-2145 2232,-2145 311,0 636,62 920,189l17 -100 1260 210 -442 2617c-70,416 182,829 615,860 705,51 830,-1034 830,-1536 0,-1767 -1433,-3200 -3200,-3200 -1767,0 -3200,1433 -3200,3200 0,1767 1433,3200 3200,3200 352,0 691,-57 1008,-162 559,364 1253,502 1907,364 -784,672 -1802,1078 -2915,1078 -2474,0 -4480,-2006 -4480,-4480 0,-2474 2006,-4480 4480,-4480zm656 3993c5,-111 -16,-212 -97,-294 -83,-83 -213,-140 -372,-166 -52,-9 -115,-13 -187,-13 -479,0 -900,619 -967,1055 -9,52 -12,103 -12,152 0,346 239,654 587,707 24,4 48,6 72,6 211,0 414,-50 562,-171 127,-102 228,-268 282,-515l132 -761z"/>
</svg>
