<?xml version="1.0" encoding="UTF-8"?>
<!DOCTYPE svg PUBLIC "-//W3C//DTD SVG 1.1//EN" "http://www.w3.org/Graphics/SVG/1.1/DTD/svg11.dtd">
<svg xmlns="http://www.w3.org/2000/svg" xml:space="preserve" width="1024px" height="1024px" shape-rendering="geometricPrecision" text-rendering="geometricPrecision" image-rendering="optimizeQuality" fill-rule="nonzero" clip-rule="evenodd" viewBox="0 0 10240 10240" xmlns:xlink="http://www.w3.org/1999/xlink">
	<title>symbol_copyright icon</title>
	<desc>symbol_copyright icon from the IconExperience.com O-Collection. Copyright by INCORS GmbH (www.incors.com).</desc>
	<path id="curve0" fill="#252525" d="M5120 640c2474,0 4480,2006 4480,4480 0,2474 -2006,4480 -4480,4480 -2474,0 -4480,-2006 -4480,-4480 0,-2474 2006,-4480 4480,-4480zm0 1920c1193,0 2195,816 2479,1920l-1370 0c-222,-383 -635,-640 -1109,-640 -707,0 -1280,573 -1280,1280 0,707 573,1280 1280,1280 474,0 887,-257 1109,-640l1370 0c-284,1104 -1286,1920 -2479,1920 -1414,0 -2560,-1146 -2560,-2560 0,-1414 1146,-2560 2560,-2560zm0 -640c-1767,0 -3200,1433 -3200,3200 0,1767 1433,3200 3200,3200 1767,0 3200,-1433 3200,-3200 0,-1767 -1433,-3200 -3200,-3200z"/>
</svg>
