<?xml version="1.0" encoding="UTF-8"?>
<!DOCTYPE svg PUBLIC "-//W3C//DTD SVG 1.1//EN" "http://www.w3.org/Graphics/SVG/1.1/DTD/svg11.dtd">
<svg xmlns="http://www.w3.org/2000/svg" xml:space="preserve" width="1024px" height="1024px" shape-rendering="geometricPrecision" text-rendering="geometricPrecision" image-rendering="optimizeQuality" fill-rule="nonzero" clip-rule="evenodd" viewBox="0 0 10240 10240" xmlns:xlink="http://www.w3.org/1999/xlink">
	<title>toaster icon</title>
	<desc>toaster icon from the IconExperience.com O-Collection. Copyright by INCORS GmbH (www.incors.com).</desc>
	<path id="curve2" fill="#252525" d="M8960 3840l320 0c176,0 320,144 320,320l0 640c0,176 -144,320 -320,320l-320 0 0 -1280z"/>
	<path id="curve1" fill="#252525" d="M8960 5440l0 3200c0,176 -144,320 -320,320l-1280 0c-176,0 -320,-144 -320,-320l0 0c0,-176 -144,-320 -320,-320l-3840 0c-176,0 -320,144 -320,320l0 0c0,176 -144,320 -320,320l-1280 0c-176,0 -320,-144 -320,-320l0 -4800c0,-705 575,-1280 1280,-1280 0,176 144,320 320,320 1920,0 3200,0 5120,0 176,0 320,-144 320,-320 595,0 1098,410 1240,962 -157,20 -280,155 -280,318l0 1280c0,176 144,320 320,320z"/>
	<path id="curve0" fill="#3E9BD5" d="M7040 640c353,0 640,345 640,640 0,295 -129,444 -320,554l0 726c-1920,0 -3200,0 -5120,0l0 -726c-191,-110 -320,-259 -320,-554 0,-295 287,-640 640,-640l4480 0z"/>
</svg>
