<?xml version="1.0" encoding="UTF-8"?>
<!DOCTYPE svg PUBLIC "-//W3C//DTD SVG 1.1//EN" "http://www.w3.org/Graphics/SVG/1.1/DTD/svg11.dtd">
<svg xmlns="http://www.w3.org/2000/svg" xml:space="preserve" width="1024px" height="1024px" shape-rendering="geometricPrecision" text-rendering="geometricPrecision" image-rendering="optimizeQuality" fill-rule="nonzero" clip-rule="evenodd" viewBox="0 0 10240 10240" xmlns:xlink="http://www.w3.org/1999/xlink">
	<title>tv icon</title>
	<desc>tv icon from the IconExperience.com O-Collection. Copyright by INCORS GmbH (www.incors.com).</desc>
	<path id="curve2" fill="#252525" d="M5117 3210l-1274 0 -3 -10c0,-119 32,-230 89,-325l-1926 -1926c-27,7 -54,11 -83,11 -177,0 -320,-143 -320,-320 0,-177 143,-320 320,-320 177,0 320,143 320,320 0,29 -4,56 -11,83l1926 1926c253,-150 578,-106 784,105l3701 -2115c1,-176 144,-319 320,-319 177,0 320,143 320,320 0,177 -143,320 -320,320 -59,0 -114,-16 -161,-44l-3702 2115c15,54 23,111 23,169l-3 10z"/>
	<path id="curve1" fill="#3E9BD5" d="M4480 3840c-586,0 -1656,-5 -2115,436 -419,402 -445,1263 -445,1804 0,541 26,1402 445,1804 459,441 1529,436 2115,436 586,0 1656,5 2115,-436 419,-403 445,-1263 445,-1804 0,-541 -26,-1401 -445,-1804 -459,-441 -1529,-436 -2115,-436z"/>
	<path id="curve0" fill="#252525" d="M1920 3200l6400 0c353,0 640,287 640,640l0 4480c0,353 -287,640 -640,640l0 480c0,88 -72,160 -160,160l-1307 0c-69,0 -128,-41 -151,-107 -44,-124 -163,-213 -302,-213l-2560 0c-139,0 -258,89 -302,213 -23,66 -82,107 -151,107l-1307 0c-88,0 -160,-72 -160,-160l0 -480c-353,0 -640,-287 -640,-640l0 -4480c0,-353 287,-640 640,-640zm6080 1280c-177,0 -320,143 -320,320 0,177 143,320 320,320 177,0 320,-143 320,-320 0,-177 -143,-320 -320,-320zm0 1280c-177,0 -320,143 -320,320 0,177 143,320 320,320 177,0 320,-143 320,-320 0,-177 -143,-320 -320,-320zm0 1280c-177,0 -320,143 -320,320 0,177 143,320 320,320 177,0 320,-143 320,-320 0,-177 -143,-320 -320,-320zm-3520 -3520c-711,0 -1795,5 -2337,525 -500,481 -543,1381 -543,2035 0,654 43,1554 543,2035 542,520 1626,525 2337,525 711,0 1795,-5 2337,-525 500,-481 543,-1381 543,-2035 0,-654 -43,-1554 -543,-2035 -542,-520 -1626,-525 -2337,-525z"/>
</svg>
