<?xml version="1.0" encoding="UTF-8"?>
<!DOCTYPE svg PUBLIC "-//W3C//DTD SVG 1.1//EN" "http://www.w3.org/Graphics/SVG/1.1/DTD/svg11.dtd">
<svg xmlns="http://www.w3.org/2000/svg" xml:space="preserve" width="1024px" height="1024px" shape-rendering="geometricPrecision" text-rendering="geometricPrecision" image-rendering="optimizeQuality" fill-rule="nonzero" clip-rule="evenodd" viewBox="0 0 10240 10240" xmlns:xlink="http://www.w3.org/1999/xlink">
	<title>umbrella_open icon</title>
	<desc>umbrella_open icon from the IconExperience.com O-Collection. Copyright by INCORS GmbH (www.incors.com).</desc>
	<path id="curve3" fill="#252525" d="M6080 8640c0,-177 143,-320 320,-320 177,0 320,143 320,320 0,530 -430,960 -960,960 -530,0 -960,-430 -960,-960l0 -640 640 0 0 640c0,177 143,320 320,320 177,0 320,-143 320,-320z"/>
	<path id="curve2" fill="#252525" d="M4800 7680l0 -2871c122,-12 233,-17 320,-17 87,0 198,5 320,17l0 2871 -640 0z"/>
	<path id="curve1" fill="#3E9BD5" d="M5120 1582c107,0 214,3 320,9l0 10c2096,113 3256,1341 3480,2928 19,135 -129,231 -245,157 -205,-131 -503,-214 -835,-214 -450,0 -839,152 -1017,371 -58,73 -164,80 -233,17 -245,-228 -811,-388 -1470,-388 -659,0 -1225,160 -1470,388 -69,63 -175,56 -233,-17 -178,-219 -567,-371 -1017,-371 -332,0 -630,83 -835,214 -116,74 -264,-22 -245,-157 224,-1587 1384,-2815 3480,-2928l0 -10c106,-6 213,-9 320,-9z"/>
	<path id="curve0" fill="#252525" d="M4800 1601l0 -321c0,-177 143,-320 320,-320 177,0 320,143 320,320l0 321c-104,-6 -211,-9 -320,-9 -109,0 -216,3 -320,9z"/>
</svg>
