<?xml version="1.0" encoding="UTF-8"?>
<!DOCTYPE svg PUBLIC "-//W3C//DTD SVG 1.1//EN" "http://www.w3.org/Graphics/SVG/1.1/DTD/svg11.dtd">
<svg xmlns="http://www.w3.org/2000/svg" xml:space="preserve" width="1024px" height="1024px" shape-rendering="geometricPrecision" text-rendering="geometricPrecision" image-rendering="optimizeQuality" fill-rule="nonzero" clip-rule="evenodd" viewBox="0 0 10240 10240" xmlns:xlink="http://www.w3.org/1999/xlink">
	<title>users2 icon</title>
	<desc>users2 icon from the IconExperience.com O-Collection. Copyright by INCORS GmbH (www.incors.com).</desc>
	<path id="curve3" fill="#3E9BD5" d="M9600 6922c0,544 -1152,758 -1920,758 -768,0 -1920,-214 -1920,-757 0,-1099 304,-1331 871,-1795 301,196 662,311 1049,311 387,0 748,-115 1049,-311 568,465 871,694 871,1794z"/>
	<path id="curve2" fill="#3E9BD5" d="M7680 1933c884,0 1600,714 1600,1594 0,880 -716,1593 -1600,1593 -884,0 -1600,-713 -1600,-1593 0,-880 716,-1594 1600,-1594z"/>
	<path id="curve1" fill="#252525" d="M4480 6922c0,544 -1152,758 -1920,758 -768,0 -1920,-214 -1920,-757 0,-1099 304,-1331 871,-1795 301,196 662,311 1049,311 387,0 748,-115 1049,-311 568,465 871,694 871,1794z"/>
	<path id="curve0" fill="#252525" d="M2560 1933c884,0 1600,714 1600,1594 0,880 -716,1593 -1600,1593 -884,0 -1600,-713 -1600,-1593 0,-880 716,-1594 1600,-1594z"/>
</svg>
