<?xml version="1.0" encoding="UTF-8"?>
<!DOCTYPE svg PUBLIC "-//W3C//DTD SVG 1.1//EN" "http://www.w3.org/Graphics/SVG/1.1/DTD/svg11.dtd">
<svg xmlns="http://www.w3.org/2000/svg" xml:space="preserve" width="1024px" height="1024px" shape-rendering="geometricPrecision" text-rendering="geometricPrecision" image-rendering="optimizeQuality" fill-rule="nonzero" clip-rule="evenodd" viewBox="0 0 10240 10240" xmlns:xlink="http://www.w3.org/1999/xlink">
	<title>user_headset icon</title>
	<desc>user_headset icon from the IconExperience.com O-Collection. Copyright by INCORS GmbH (www.incors.com).</desc>
	<path id="curve2" fill="#252525" d="M8320 8470c0,810 -1920,1130 -3200,1130 -1280,0 -3200,-320 -3200,-1129 0,-1760 582,-2029 1663,-2835 445,281 972,444 1537,444 138,0 274,-10 407,-29 75,19 153,29 233,29 298,0 568,-137 745,-354 52,-29 102,-59 152,-90 1082,807 1663,1074 1663,2834z"/>
	<path id="curve1" fill="#252525" d="M5024 5737c-840,-31 -1578,-466 -2022,-1115 122,-117 198,-281 198,-462l0 -1920c0,-54 -7,-108 -20,-160 398,-690 1135,-1120 1940,-1120 805,0 1542,430 1940,1120 -13,52 -20,106 -20,160l0 1920c0,14 0,28 1,43 -74,72 -164,133 -250,182 -90,52 -186,95 -284,132 -178,-221 -451,-357 -747,-357 -530,0 -960,430 -960,960 0,235 84,450 224,617z"/>
	<path id="curve0" fill="#3E9BD5" d="M5760 4480c276,0 511,175 601,420 220,-60 419,-140 589,-237 188,-107 338,-234 438,-373 -18,-40 -28,-84 -28,-130l0 -1920c0,-66 20,-127 54,-177 -419,-843 -1289,-1423 -2294,-1423 -1005,0 -1875,580 -2294,1423 34,50 54,111 54,177l0 1920c0,176 -144,320 -320,320l-320 0c-352,0 -640,-287 -640,-640l0 -1280c0,-353 287,-640 640,-640l300 0c471,-948 1449,-1600 2580,-1600 1131,0 2109,652 2580,1600l300 0c353,0 640,287 640,640l0 1280c0,352 -288,640 -640,640l-320 0c-11,0 -23,-1 -34,-2 -127,176 -311,333 -539,463 -205,117 -447,213 -715,281 -49,305 -313,538 -632,538 -353,0 -640,-287 -640,-640 0,-353 287,-640 640,-640z"/>
</svg>
