<?xml version="1.0" encoding="UTF-8"?>
<!DOCTYPE svg PUBLIC "-//W3C//DTD SVG 1.1//EN" "http://www.w3.org/Graphics/SVG/1.1/DTD/svg11.dtd">
<svg xmlns="http://www.w3.org/2000/svg" xml:space="preserve" width="1024px" height="1024px" shape-rendering="geometricPrecision" text-rendering="geometricPrecision" image-rendering="optimizeQuality" fill-rule="nonzero" clip-rule="evenodd" viewBox="0 0 10240 10240" xmlns:xlink="http://www.w3.org/1999/xlink">
	<title>walkie_talkie icon</title>
	<desc>walkie_talkie icon from the IconExperience.com O-Collection. Copyright by INCORS GmbH (www.incors.com).</desc>
	<path id="curve2" fill="#252525" d="M3200 2240l1280 0 0 320 1920 0 0 -1280c0,-353 287,-640 640,-640 353,0 640,288 640,640l0 7680c0,352 -288,640 -640,640l-3840 0c-352,0 -640,-287 -640,-640l0 -5760c0,-353 288,-640 640,-640l0 -320zm640 960c-176,0 -320,144 -320,320l0 1920c0,176 144,320 320,320l2560 0c176,0 320,-144 320,-320l0 -1920c0,-176 -144,-320 -320,-320l-2560 0zm1280 2880c-884,0 -1600,716 -1600,1600 0,884 716,1600 1600,1600 884,0 1600,-716 1600,-1600 0,-884 -716,-1600 -1600,-1600z"/>
	<path id="curve1" fill="#252525" d="M5120 6400c707,0 1280,573 1280,1280 0,707 -573,1280 -1280,1280 -707,0 -1280,-573 -1280,-1280 0,-707 573,-1280 1280,-1280z"/>
	<path id="curve0" fill="#3E9BD5" d="M3840,3519 6400,3519 6400,5440 3840,5440z"/>
</svg>
