<?xml version="1.0" encoding="UTF-8"?>
<!DOCTYPE svg PUBLIC "-//W3C//DTD SVG 1.1//EN" "http://www.w3.org/Graphics/SVG/1.1/DTD/svg11.dtd">
<svg xmlns="http://www.w3.org/2000/svg" xml:space="preserve" width="1024px" height="1024px" shape-rendering="geometricPrecision" text-rendering="geometricPrecision" image-rendering="optimizeQuality" fill-rule="nonzero" clip-rule="evenodd" viewBox="0 0 10240 10240" xmlns:xlink="http://www.w3.org/1999/xlink">
	<title>whistle icon</title>
	<desc>whistle icon from the IconExperience.com O-Collection. Copyright by INCORS GmbH (www.incors.com).</desc>
	<path id="curve0" fill="#252525" d="M6080 3200c-1686,0 -3232,0 -5120,0 -176,0 -320,144 -320,320l0 1280c0,176 144,320 320,320l187 0c89,0 164,-31 227,-94l132 -132c63,-63 138,-94 227,-94l187 0c1000,0 1465,1090 1771,1882 370,958 1300,1638 2389,1638 1050,0 1953,-632 2347,-1537 101,-230 310,-373 560,-384 341,-14 613,-295 613,-639 0,-344 -272,-625 -613,-639 -250,-11 -459,-154 -560,-384 -394,-905 -1297,-1537 -2347,-1537zm0 640c1060,0 1920,860 1920,1920 0,1060 -860,1920 -1920,1920 -1060,0 -1920,-860 -1920,-1920 0,-1060 860,-1920 1920,-1920zm0 640c-707,0 -1280,573 -1280,1280 0,707 573,1280 1280,1280 707,0 1280,-573 1280,-1280 0,-707 -573,-1280 -1280,-1280zm2880 960c177,0 320,143 320,320 0,177 -143,320 -320,320 -177,0 -320,-143 -320,-320 0,-177 143,-320 320,-320z"/>
</svg>
