<?xml version="1.0" encoding="UTF-8"?>
<!DOCTYPE svg PUBLIC "-//W3C//DTD SVG 1.1//EN" "http://www.w3.org/Graphics/SVG/1.1/DTD/svg11.dtd">
<svg xmlns="http://www.w3.org/2000/svg" xml:space="preserve" width="1024px" height="1024px" shape-rendering="geometricPrecision" text-rendering="geometricPrecision" image-rendering="optimizeQuality" fill-rule="nonzero" clip-rule="evenodd" viewBox="0 0 10240 10240" xmlns:xlink="http://www.w3.org/1999/xlink">
	<title>wind_engine icon</title>
	<desc>wind_engine icon from the IconExperience.com O-Collection. Copyright by INCORS GmbH (www.incors.com).</desc>
	<path id="curve2" fill="#3E9BD5" d="M3200,9280 7040,9280 7040,9920 3200,9920z"/>
	<path id="curve1" fill="#252525" d="M5531 5398l229 3562 -1280 0 240 -3718 143 -157c83,19 169,28 257,28 18,0 36,0 53,-1l358 286z"/>
	<path id="curve0" fill="#252525" d="M5573 3707c133,134 200,318 185,506 240,27 483,49 724,75 95,11 167,43 228,104 240,240 993,1511 1444,2360 57,107 6,267 -118,373 -125,106 -281,123 -365,38l-2385 -2385c-181,49 -376,15 -531,-92 -144,194 -284,394 -427,589 -57,78 -121,123 -204,146 -328,88 -1805,104 -2766,70 -121,-4 -234,-128 -264,-288 -30,-161 34,-305 150,-336l3258 -873c49,-183 177,-333 345,-413 -96,-222 -199,-443 -297,-665 -38,-87 -46,-166 -24,-249 88,-328 813,-1615 1322,-2430 64,-103 228,-140 382,-85 154,55 246,182 216,297l-873 3258zm-453 133c-177,0 -320,143 -320,320 0,177 143,320 320,320 177,0 320,-143 320,-320 0,-177 -143,-320 -320,-320z"/>
</svg>
