<?xml version="1.0" encoding="UTF-8"?>
<!DOCTYPE svg PUBLIC "-//W3C//DTD SVG 1.1//EN" "http://www.w3.org/Graphics/SVG/1.1/DTD/svg11.dtd">
<svg xmlns="http://www.w3.org/2000/svg" xml:space="preserve" width="1024px" height="1024px" shape-rendering="geometricPrecision" text-rendering="geometricPrecision" image-rendering="optimizeQuality" fill-rule="nonzero" clip-rule="evenodd" viewBox="0 0 10240 10240" xmlns:xlink="http://www.w3.org/1999/xlink">
	<title>window_font icon</title>
	<desc>window_font icon from the IconExperience.com O-Collection. Copyright by INCORS GmbH (www.incors.com).</desc>
	<path id="curve2" fill="#252525" d="M1280 1280l7680 0c353,0 640,288 640,640l0 6720c0,176 -144,320 -320,320l-8320 0c-176,0 -320,-144 -320,-320l0 -6720c0,-353 288,-640 640,-640zm0 1920l0 5120 7680 0 0 -5120 -7680 0z"/>
	<path id="curve1" fill="#3E9BD5" d="M2880 6720l1129 -3200 682 0 849 2138 -451 591 -67 -169 -1239 0 -226 640 -677 0zm1888 -1280l-402 -1011 -357 1011 759 0z"/>
	<path id="curve0" fill="#3E9BD5" d="M5534 6720l866 0 0 -1137 -866 1137zm706 960l0 0c88,0 160,-72 160,-160l0 -480 -1110 0 -317 416c-30,39 -39,85 -28,133 11,49 41,85 85,107 53,26 90,81 90,144l0 160 -1120 0 0 -160c0,-88 72,-160 160,-160l162 0c52,0 96,-22 127,-63l2098 -2754c32,-41 76,-63 128,-63l205 0c88,0 160,72 160,160l0 2560c0,88 72,160 160,160l0 0c88,0 160,72 160,160l0 160 -1280 0 0 -160c0,-88 72,-160 160,-160z"/>
</svg>
