<?xml version="1.0" encoding="UTF-8"?>
<!DOCTYPE svg PUBLIC "-//W3C//DTD SVG 1.1//EN" "http://www.w3.org/Graphics/SVG/1.1/DTD/svg11.dtd">
<svg xmlns="http://www.w3.org/2000/svg" xml:space="preserve" width="1024px" height="1024px" shape-rendering="geometricPrecision" text-rendering="geometricPrecision" image-rendering="optimizeQuality" fill-rule="nonzero" clip-rule="evenodd" viewBox="0 0 10240 10240" xmlns:xlink="http://www.w3.org/1999/xlink">
	<title>wine_glass icon</title>
	<desc>wine_glass icon from the IconExperience.com O-Collection. Copyright by INCORS GmbH (www.incors.com).</desc>
	<path id="curve2" fill="#252525" d="M5120 6400c-250,0 -498,-39 -736,-115 -655,-210 -1186,-682 -1548,-1258 -402,-638 -596,-1396 -596,-2147l0 -1280c0,-176 144,-320 320,-320l5120 0c176,0 320,144 320,320l0 1280c0,751 -194,1509 -596,2147 -362,576 -893,1047 -1548,1258 -238,76 -486,115 -736,115zm2240 -4480c-1493,0 -2987,0 -4480,0l0 960c0,630 160,1270 497,1806 282,448 693,826 1203,989 175,56 356,85 540,85 184,0 365,-29 540,-85 510,-163 921,-542 1203,-989 337,-536 497,-1176 497,-1806l0 -960z"/>
	<path id="curve1" fill="#3E9BD5" d="M3200 2880c0,570 143,1151 448,1636 241,382 593,714 1029,854 144,46 293,70 443,70 150,0 299,-24 443,-70 437,-140 788,-472 1029,-854 305,-485 448,-1066 448,-1636l-3840 0z"/>
	<path id="curve0" fill="#252525" d="M3840 8960l320 0c353,0 640,-287 640,-640l0 -1619c106,13 213,19 320,19 107,0 214,-6 320,-19l0 1619c0,353 287,640 640,640l320 0c176,0 320,144 320,320l0 320 -3200 0 0 -320c0,-176 144,-320 320,-320z"/>
</svg>
