<?xml version="1.0" encoding="UTF-8"?>
<!DOCTYPE svg PUBLIC "-//W3C//DTD SVG 1.1//EN" "http://www.w3.org/Graphics/SVG/1.1/DTD/svg11.dtd">
<svg xmlns="http://www.w3.org/2000/svg" xml:space="preserve" width="1024px" height="1024px" shape-rendering="geometricPrecision" text-rendering="geometricPrecision" image-rendering="optimizeQuality" fill-rule="nonzero" clip-rule="evenodd" viewBox="0 0 10240 10240" xmlns:xlink="http://www.w3.org/1999/xlink">
	<title>woman icon</title>
	<desc>woman icon from the IconExperience.com O-Collection. Copyright by INCORS GmbH (www.incors.com).</desc>
	<path id="curve3" fill="#252525" d="M8320 8490c0,796 -1920,1110 -3200,1110 -1280,0 -3200,-314 -3200,-1109 0,-1641 1391,-1730 1926,-2255 63,811 609,1444 1274,1444 665,0 1211,-633 1274,-1444 535,525 1926,613 1926,2254z"/>
	<path id="curve2" fill="#252525" d="M6070 6083c-68,541 -467,957 -950,957 -483,0 -882,-416 -950,-957 283,195 606,317 950,317 344,0 667,-122 950,-317z"/>
	<path id="curve1" fill="#252525" d="M3201 3388c30,1053 691,2692 1919,2692 1008,0 1634,-1105 1842,-2083 -383,17 -790,-72 -1148,-198 -559,-196 -1114,-618 -1499,-1111 -200,248 -454,463 -729,581 -115,50 -248,93 -385,119z"/>
	<path id="curve0" fill="#3E9BD5" d="M7350 3599c-320,130 -841,105 -1430,-102 -717,-251 -1334,-875 -1608,-1398 -160,336 -481,717 -852,876 -214,92 -412,130 -572,120 -5,70 -8,143 -8,219 0,767 227,1543 667,2150 80,109 167,214 261,311 -437,116 -860,221 -1200,273 -96,14 -184,-11 -257,-74 -73,-63 -111,-146 -111,-243l0 -2691c0,-907 320,-1813 1280,-2116 640,-604 960,-604 1600,-604 1591,0 2880,1218 2880,2720l0 2691c0,97 -38,180 -111,243 -73,63 -161,88 -257,74 -340,-52 -763,-157 -1200,-273 94,-97 181,-202 261,-311 386,-532 608,-1194 657,-1865z"/>
</svg>
