<svg width="600pt" height="744pt" viewBox="0.00 0.00 600.00 744.00" 
    xmlns="http://www.w3.org/2000/svg" 
    xmlns:xlink="http://www.w3.org/1999/xlink">
    <g id="graph1" class="graph" transform="scale(1 1) rotate(0) translate(4 740)">
        <title>G</title>
        <polygon fill="white" stroke="white" points="-4,5 -4,-740 597,-740 597,5 -4,5"></polygon>
        <g id="graph2" class="cluster">
            <title>cluster_1</title>
        </g>
        <g id="graph3" class="cluster">
            <title>cluster_2</title>
            <polygon fill="yellow" stroke="yellow" points="28,-540 240,-540 252,-552 252,-708 240,-720 28,-720 16,-708 16,-552 28,-540"></polygon>
            <path fill="yellow" stroke="yellow" d="M240,-540C246,-540 252,-546 252,-552"></path>
            <path fill="yellow" stroke="yellow" d="M252,-708C252,-714 246,-720 240,-720"></path>
            <path fill="yellow" stroke="yellow" d="M28,-720C22,-720 16,-714 16,-708"></path>
            <path fill="yellow" stroke="yellow" d="M16,-552C16,-546 22,-540 28,-540"></path>
            <polyline fill="none" stroke="black" points="28,-540 240,-540 "></polyline>
            <path fill="none" stroke="black" d="M240,-540C246,-540 252,-546 252,-552"></path>
            <polyline fill="none" stroke="black" points="252,-552 252,-708 "></polyline>
            <path fill="none" stroke="black" d="M252,-708C252,-714 246,-720 240,-720"></path>
            <polyline fill="none" stroke="black" points="240,-720 28,-720 "></polyline>
            <path fill="none" stroke="black" d="M28,-720C22,-720 16,-714 16,-708"></path>
            <polyline fill="none" stroke="black" points="16,-708 16,-552 "></polyline>
            <path fill="none" stroke="black" d="M16,-552C16,-546 22,-540 28,-540"></path>
            <text text-anchor="middle" x="134" y="-703.4" font-family="Times,serif" font-size="14.00">UX Component</text>
        </g>
        <g id="graph4" class="cluster">
            <title>cluster_4</title>
            <polygon fill="lightgray" stroke="lightgray" points="36,-548 232,-548 244,-560 244,-676 232,-688 36,-688 24,-676 24,-560 36,-548"></polygon>
            <path fill="lightgray" stroke="lightgray" d="M232,-548C238,-548 244,-554 244,-560"></path>
            <path fill="lightgray" stroke="lightgray" d="M244,-676C244,-682 238,-688 232,-688"></path>
            <path fill="lightgray" stroke="lightgray" d="M36,-688C30,-688 24,-682 24,-676"></path>
            <path fill="lightgray" stroke="lightgray" d="M24,-560C24,-554 30,-548 36,-548"></path>
            <polyline fill="none" stroke="gray" points="36,-548 232,-548 "></polyline>
            <path fill="none" stroke="gray" d="M232,-548C238,-548 244,-554 244,-560"></path>
            <polyline fill="none" stroke="gray" points="244,-560 244,-676 "></polyline>
            <path fill="none" stroke="gray" d="M244,-676C244,-682 238,-688 232,-688"></path>
            <polyline fill="none" stroke="gray" points="232,-688 36,-688 "></polyline>
            <path fill="none" stroke="gray" d="M36,-688C30,-688 24,-682 24,-676"></path>
            <polyline fill="none" stroke="gray" points="24,-676 24,-560 "></polyline>
            <path fill="none" stroke="gray" d="M24,-560C24,-554 30,-548 36,-548"></path>
            <text text-anchor="middle" x="134" y="-671.4" font-family="Times,serif" font-size="14.00">REST Action Scripting Genie</text>
        </g>
        <g id="graph5" class="cluster">
            <title>cluster_3</title>
            <polygon fill="lime" stroke="lime" points="40,-271 236,-271 248,-283 248,-449 236,-461 40,-461 28,-449 28,-283 40,-271"></polygon>
            <path fill="lime" stroke="lime" d="M236,-271C242,-271 248,-277 248,-283"></path>
            <path fill="lime" stroke="lime" d="M248,-449C248,-455 242,-461 236,-461"></path>
            <path fill="lime" stroke="lime" d="M40,-461C34,-461 28,-455 28,-449"></path>
            <path fill="lime" stroke="lime" d="M28,-283C28,-277 34,-271 40,-271"></path>
            <polyline fill="none" stroke="black" points="40,-271 236,-271 "></polyline>
            <path fill="none" stroke="black" d="M236,-271C242,-271 248,-277 248,-283"></path>
            <polyline fill="none" stroke="black" points="248,-283 248,-449 "></polyline>
            <path fill="none" stroke="black" d="M248,-449C248,-455 242,-461 236,-461"></path>
            <polyline fill="none" stroke="black" points="236,-461 40,-461 "></polyline>
            <path fill="none" stroke="black" d="M40,-461C34,-461 28,-455 28,-449"></path>
            <polyline fill="none" stroke="black" points="28,-449 28,-283 "></polyline>
            <path fill="none" stroke="black" d="M28,-283C28,-277 34,-271 40,-271"></path>
            <text text-anchor="middle" x="138" y="-444.4" font-family="Times,serif" font-size="14.00">Project Settings/Profile</text>
        </g>
        <g id="graph6" class="cluster">
            <title>cluster_5</title>
            <polygon fill="lightgray" stroke="lightgray" points="48,-279 228,-279 240,-291 240,-417 228,-429 48,-429 36,-417 36,-291 48,-279"></polygon>
            <path fill="lightgray" stroke="lightgray" d="M228,-279C234,-279 240,-285 240,-291"></path>
            <path fill="lightgray" stroke="lightgray" d="M240,-417C240,-423 234,-429 228,-429"></path>
            <path fill="lightgray" stroke="lightgray" d="M48,-429C42,-429 36,-423 36,-417"></path>
            <path fill="lightgray" stroke="lightgray" d="M36,-291C36,-285 42,-279 48,-279"></path>
            <polyline fill="none" stroke="gray" points="48,-279 228,-279 "></polyline>
            <path fill="none" stroke="gray" d="M228,-279C234,-279 240,-285 240,-291"></path>
            <polyline fill="none" stroke="gray" points="240,-291 240,-417 "></polyline>
            <path fill="none" stroke="gray" d="M240,-417C240,-423 234,-429 228,-429"></path>
            <polyline fill="none" stroke="gray" points="228,-429 48,-429 "></polyline>
            <path fill="none" stroke="gray" d="M48,-429C42,-429 36,-423 36,-417"></path>
            <polyline fill="none" stroke="gray" points="36,-417 36,-291 "></polyline>
            <path fill="none" stroke="gray" d="M36,-291C36,-285 42,-279 48,-279"></path>
            <text text-anchor="start" x="71.5098" y="-412.4" font-family="Times,serif" font-size="14.00">Named Resource</text>
            <text text-anchor="middle" x="138" y="-395.6" font-family="Times,serif" font-size="14.00">Client Application keys</text>
            <text text-anchor="start" x="71.5098" y="-378.8" font-family="Times,serif" font-size="14.00">for specific provider</text>
        </g>
        <g id="graph7" class="cluster">
            <title>cluster_0</title>
            <polygon fill="cyan" stroke="cyan" points="280,-8 572,-8 584,-20 584,-520 572,-532 280,-532 268,-520 268,-20 280,-8"></polygon>
            <path fill="cyan" stroke="cyan" d="M572,-8C578,-8 584,-14 584,-20"></path>
            <path fill="cyan" stroke="cyan" d="M584,-520C584,-526 578,-532 572,-532"></path>
            <path fill="cyan" stroke="cyan" d="M280,-532C274,-532 268,-526 268,-520"></path>
            <path fill="cyan" stroke="cyan" d="M268,-20C268,-14 274,-8 280,-8"></path>
            <polyline fill="none" stroke="black" points="280,-8 572,-8 "></polyline>
            <path fill="none" stroke="black" d="M572,-8C578,-8 584,-14 584,-20"></path>
            <polyline fill="none" stroke="black" points="584,-20 584,-520 "></polyline>
            <path fill="none" stroke="black" d="M584,-520C584,-526 578,-532 572,-532"></path>
            <polyline fill="none" stroke="black" points="572,-532 280,-532 "></polyline>
            <path fill="none" stroke="black" d="M280,-532C274,-532 268,-526 268,-520"></path>
            <polyline fill="none" stroke="black" points="268,-520 268,-20 "></polyline>
            <path fill="none" stroke="black" d="M268,-20C268,-14 274,-8 280,-8"></path>
            <text text-anchor="middle" x="426" y="-515.4" font-family="Times,serif" font-size="14.00">Definition</text>
        </g>
        <g id="graph8" class="cluster">
            <title>cluster_6</title>
            <polygon fill="lightgray" stroke="lightgray" points="288,-16 564,-16 576,-28 576,-188 564,-200 288,-200 276,-188 276,-28 288,-16"></polygon>
            <path fill="lightgray" stroke="lightgray" d="M564,-16C570,-16 576,-22 576,-28"></path>
            <path fill="lightgray" stroke="lightgray" d="M576,-188C576,-194 570,-200 564,-200"></path>
            <path fill="lightgray" stroke="lightgray" d="M288,-200C282,-200 276,-194 276,-188"></path>
            <path fill="lightgray" stroke="lightgray" d="M276,-28C276,-22 282,-16 288,-16"></path>
            <polyline fill="none" stroke="gray" points="288,-16 564,-16 "></polyline>
            <path fill="none" stroke="gray" d="M564,-16C570,-16 576,-22 576,-28"></path>
            <polyline fill="none" stroke="gray" points="576,-28 576,-188 "></polyline>
            <path fill="none" stroke="gray" d="M576,-188C576,-194 570,-200 564,-200"></path>
            <polyline fill="none" stroke="gray" points="564,-200 288,-200 "></polyline>
            <path fill="none" stroke="gray" d="M288,-200C282,-200 276,-194 276,-188"></path>
            <polyline fill="none" stroke="gray" points="276,-188 276,-28 "></polyline>
            <path fill="none" stroke="gray" d="M276,-28C276,-22 282,-16 288,-16"></path>
            <text text-anchor="start" x="311.903" y="-183.4" font-family="Times,serif" font-size="14.00">Provider</text>
            <text text-anchor="start" x="311.903" y="-166.6" font-family="Times,serif" font-size="14.00">oAuth Provider Definition</text>
            <text text-anchor="start" x="311.903" y="-149.8" font-family="Times,serif" font-size="14.00">Defines Endpoints Provider Defines</text>
            <text text-anchor="start" x="311.903" y="-133" font-family="Times,serif" font-size="14.00">API Provider Definition</text>
            <text text-anchor="start" x="311.903" y="-116.2" font-family="Times,serif" font-size="14.00">Definition of fields required for provider</text>
        </g>
        <g id="graph9" class="cluster">
            <title>cluster_7</title>
            <polygon fill="lightgray" stroke="lightgray" points="293,-208 547,-208 559,-220 559,-488 547,-500 293,-500 281,-488 281,-220 293,-208"></polygon>
            <path fill="lightgray" stroke="lightgray" d="M547,-208C553,-208 559,-214 559,-220"></path>
            <path fill="lightgray" stroke="lightgray" d="M559,-488C559,-494 553,-500 547,-500"></path>
            <path fill="lightgray" stroke="lightgray" d="M293,-500C287,-500 281,-494 281,-488"></path>
            <path fill="lightgray" stroke="lightgray" d="M281,-220C281,-214 287,-208 293,-208"></path>
            <polyline fill="none" stroke="gray" points="293,-208 547,-208 "></polyline>
            <path fill="none" stroke="gray" d="M547,-208C553,-208 559,-214 559,-220"></path>
            <polyline fill="none" stroke="gray" points="559,-220 559,-488 "></polyline>
            <path fill="none" stroke="gray" d="M559,-488C559,-494 553,-500 547,-500"></path>
            <polyline fill="none" stroke="gray" points="547,-500 293,-500 "></polyline>
            <path fill="none" stroke="gray" d="M293,-500C287,-500 281,-494 281,-488"></path>
            <polyline fill="none" stroke="gray" points="281,-488 281,-220 "></polyline>
            <path fill="none" stroke="gray" d="M281,-220C281,-214 287,-208 293,-208"></path>
            <text text-anchor="start" x="327.48" y="-483.4" font-family="Times,serif" font-size="14.00">REST API Definition</text>
            <text text-anchor="start" x="327.48" y="-466.6" font-family="Times,serif" font-size="14.00">Endpoint for resource</text>
            <text text-anchor="start" x="327.48" y="-449.8" font-family="Times,serif" font-size="14.00">plus what Providers are expected</text>
        </g>
        <!-- REST Genie -->
        <g id="node4" class="node">
            <title>REST Genie</title>
            <polygon fill="white" stroke="lightgray" points="31.92,-556.4 31.92,-655.6 236.08,-655.6 236.08,-556.4 31.92,-556.4"></polygon>
            <text text-anchor="middle" x="134" y="-639" font-family="Times,serif" font-size="14.00">Example:</text>
            <polyline fill="none" stroke="lightgray" points="31.92,-630.8 236.08,-630.8 "></polyline>
            <text text-anchor="start" x="39.92" y="-614.2" font-family="Times,serif" font-size="14.00">Rest Service:MyRESTApi</text>
            <polyline fill="none" stroke="lightgray" points="31.92,-606 236.08,-606 "></polyline>
            <text text-anchor="start" x="39.92" y="-589.4" font-family="Times,serif" font-size="14.00">Action: AddUserAction</text>
            <polyline fill="none" stroke="lightgray" points="31.92,-581.2 236.08,-581.2 "></polyline>
            <text text-anchor="start" x="39.92" y="-564.6" font-family="Times,serif" font-size="14.00">Named Resource: MyRestNamed</text>
        </g>
        <!-- Named Resource -->
        <g id="node7" class="node">
            <title>Named Resource</title>
            <polygon fill="white" stroke="lightgray" points="44.1422,-287.8 44.1422,-362.2 231.858,-362.2 231.858,-287.8 44.1422,-287.8"></polygon>
            <text text-anchor="start" x="52.1422" y="-345.6" font-family="Times,serif" font-size="14.00">Example: 'MyRestNamed'</text>
            <polyline fill="none" stroke="lightgray" points="44.1422,-337.4 231.858,-337.4 "></polyline>
            <text text-anchor="start" x="52.1422" y="-320.8" font-family="Times,serif" font-size="14.00">client_id="571s2121ads4"</text>
            <polyline fill="none" stroke="lightgray" points="44.1422,-312.6 231.858,-312.6 "></polyline>
            <text text-anchor="start" x="52.1422" y="-296" font-family="Times,serif" font-size="14.00">client_secret="68ha896sd898"</text>
        </g>
        <!-- REST Genie&#45;&gt;Named Resource -->
        <g id="edge16" class="edge">
            <title>REST Genie-&gt;Named Resource</title>
            <path fill="none" stroke="black" d="M134.701,-556.083C135.443,-504.325 136.606,-423.257 137.334,-372.454"></path>
            <polygon fill="black" stroke="black" points="140.834,-372.453 137.478,-362.404 133.835,-372.353 140.834,-372.453"></polygon>
        </g>
        <!-- REST API Definition -->
        <g id="node12" class="node">
            <title>REST API Definition</title>
            <polygon fill="white" stroke="lightgray" points="289.434,-216.6 289.434,-433.4 550.566,-433.4 550.566,-216.6 289.434,-216.6"></polygon>
            <text text-anchor="start" x="297.434" y="-416.8" font-family="Times,serif" font-size="14.00">Example: MyRESTApi</text>
            <polyline fill="none" stroke="lightgray" points="289.434,-408.6 550.566,-408.6 "></polyline>
            <text text-anchor="start" x="297.434" y="-392" font-family="Times,serif" font-size="14.00">Resource</text>
            <text text-anchor="start" x="297.434" y="-375.2" font-family="Times,serif" font-size="14.00">Example:</text>
            <text text-anchor="start" x="297.434" y="-358.4" font-family="Times,serif" font-size="14.00">https://api.restful.com/v3/</text>
            <polyline fill="none" stroke="lightgray" points="289.434,-350.2 550.566,-350.2 "></polyline>
            <text text-anchor="start" x="297.434" y="-333.6" font-family="Times,serif" font-size="14.00">Schemas</text>
            <text text-anchor="start" x="297.434" y="-316.8" font-family="Times,serif" font-size="14.00">Info record</text>
            <text text-anchor="start" x="297.434" y="-300" font-family="Times,serif" font-size="14.00">{ "name" : "string"</text>
            <text text-anchor="start" x="297.434" y="-283.2" font-family="Times,serif" font-size="14.00"> , "enabled" : "boolean" }</text>
            <polyline fill="none" stroke="lightgray" points="289.434,-275 550.566,-275 "></polyline>
            <text text-anchor="start" x="297.434" y="-258.4" font-family="Times,serif" font-size="14.00">Actions</text>
            <text text-anchor="start" x="297.434" y="-241.6" font-family="Times,serif" font-size="14.00">Example: AddUserAction</text>
            <text text-anchor="start" x="297.434" y="-224.8" font-family="Times,serif" font-size="14.00">/AddUser?name=username&amp;enabled=value</text>
        </g>
        <!-- REST Genie&#45;&gt;REST API Definition -->
        <g id="edge14" class="edge">
            <title>REST Genie-&gt;REST API Definition</title>
            <path fill="none" stroke="black" d="M213.208,-556.326C223.913,-548.642 234.477,-540.434 244,-532 274.596,-504.902 304.698,-472.468 331.116,-441.443"></path>
            <polygon fill="black" stroke="black" points="333.971,-443.487 337.751,-433.589 328.624,-438.969 333.971,-443.487"></polygon>
        </g>
        <!-- Provider Type -->
        <g id="node10" class="node">
            <title>Provider Type</title>
            <polygon fill="white" stroke="lightgray" points="283.804,-24.8 283.804,-99.2 568.196,-99.2 568.196,-24.8 283.804,-24.8"></polygon>
            <text text-anchor="start" x="291.804" y="-82.6" font-family="Times,serif" font-size="14.00">Example: RestAuth</text>
            <polyline fill="none" stroke="lightgray" points="283.804,-74.4 568.196,-74.4 "></polyline>
            <text text-anchor="start" x="291.804" y="-57.8" font-family="Times,serif" font-size="14.00">auth=https://api.restful.com/oauth2/authenticate</text>
            <polyline fill="none" stroke="lightgray" points="283.804,-49.6 568.196,-49.6 "></polyline>
            <text text-anchor="start" x="291.804" y="-33" font-family="Times,serif" font-size="14.00">getToken=https://api.restful.com/oauth2/token</text>
        </g>
        <!-- Named Resource&#45;&gt;Provider Type -->
        <g id="edge10" class="edge">
            <title>Named Resource-&gt;Provider Type</title>
            <path fill="none" stroke="black" d="M178.045,-287.709C230.449,-240.218 322.182,-157.085 378.176,-106.341"></path>
            <polygon fill="black" stroke="black" points="380.772,-108.711 385.832,-99.4025 376.072,-103.524 380.772,-108.711"></polygon>
        </g>
        <!-- REST API Definition&#45;&gt;Provider Type -->
        <g id="edge12" class="edge">
            <title>REST API Definition-&gt;Provider Type</title>
            <path fill="none" stroke="black" d="M422.475,-216.334C423.333,-179.028 424.249,-139.152 424.933,-109.418"></path>
            <polygon fill="black" stroke="black" points="428.434,-109.422 425.164,-99.3445 421.435,-109.261 428.434,-109.422"></polygon>
        </g>
    </g>
</svg>