<svg width="630pt" height="702pt" viewBox="0.00 0.00 630.00 702.00" 
    xmlns="http://www.w3.org/2000/svg" 
    xmlns:xlink="http://www.w3.org/1999/xlink">
    <g id="graph1" class="graph" transform="scale(1 1) rotate(0) translate(4 698)">
        <title>G</title>
        <polygon fill="white" stroke="white" points="-4,5 -4,-698 627,-698 627,5 -4,5"></polygon>
        <g id="graph2" class="cluster">
            <title>cluster_1</title>
        </g>
        <g id="graph3" class="cluster">
            <title>cluster_2</title>
            <polygon fill="yellow" stroke="yellow" points="74,-536 270,-536 282,-548 282,-666 270,-678 74,-678 62,-666 62,-548 74,-536"></polygon>
            <path fill="yellow" stroke="yellow" d="M270,-536C276,-536 282,-542 282,-548"></path>
            <path fill="yellow" stroke="yellow" d="M282,-666C282,-672 276,-678 270,-678"></path>
            <path fill="yellow" stroke="yellow" d="M74,-678C68,-678 62,-672 62,-666"></path>
            <path fill="yellow" stroke="yellow" d="M62,-548C62,-542 68,-536 74,-536"></path>
            <polyline fill="none" stroke="black" points="74,-536 270,-536 "></polyline>
            <path fill="none" stroke="black" d="M270,-536C276,-536 282,-542 282,-548"></path>
            <polyline fill="none" stroke="black" points="282,-548 282,-666 "></polyline>
            <path fill="none" stroke="black" d="M282,-666C282,-672 276,-678 270,-678"></path>
            <polyline fill="none" stroke="black" points="270,-678 74,-678 "></polyline>
            <path fill="none" stroke="black" d="M74,-678C68,-678 62,-672 62,-666"></path>
            <polyline fill="none" stroke="black" points="62,-666 62,-548 "></polyline>
            <path fill="none" stroke="black" d="M62,-548C62,-542 68,-536 74,-536"></path>
            <text text-anchor="middle" x="172" y="-661.4" font-family="Times,serif" font-size="14.00">UX Component</text>
        </g>
        <g id="graph4" class="cluster">
            <title>cluster_3</title>
            <polygon fill="lime" stroke="lime" points="28,-295 286,-295 298,-307 298,-425 286,-437 28,-437 16,-425 16,-307 28,-295"></polygon>
            <path fill="lime" stroke="lime" d="M286,-295C292,-295 298,-301 298,-307"></path>
            <path fill="lime" stroke="lime" d="M298,-425C298,-431 292,-437 286,-437"></path>
            <path fill="lime" stroke="lime" d="M28,-437C22,-437 16,-431 16,-425"></path>
            <path fill="lime" stroke="lime" d="M16,-307C16,-301 22,-295 28,-295"></path>
            <polyline fill="none" stroke="black" points="28,-295 286,-295 "></polyline>
            <path fill="none" stroke="black" d="M286,-295C292,-295 298,-301 298,-307"></path>
            <polyline fill="none" stroke="black" points="298,-307 298,-425 "></polyline>
            <path fill="none" stroke="black" d="M298,-425C298,-431 292,-437 286,-437"></path>
            <polyline fill="none" stroke="black" points="286,-437 28,-437 "></polyline>
            <path fill="none" stroke="black" d="M28,-437C22,-437 16,-431 16,-425"></path>
            <polyline fill="none" stroke="black" points="16,-425 16,-307 "></polyline>
            <path fill="none" stroke="black" d="M16,-307C16,-301 22,-295 28,-295"></path>
            <text text-anchor="middle" x="157" y="-420.4" font-family="Times,serif" font-size="14.00">Project Settings/Profile</text>
        </g>
        <g id="graph5" class="cluster">
            <title>cluster_0</title>
            <polygon fill="cyan" stroke="cyan" points="326,-8 602,-8 614,-20 614,-516 602,-528 326,-528 314,-516 314,-20 326,-8"></polygon>
            <path fill="cyan" stroke="cyan" d="M602,-8C608,-8 614,-14 614,-20"></path>
            <path fill="cyan" stroke="cyan" d="M614,-516C614,-522 608,-528 602,-528"></path>
            <path fill="cyan" stroke="cyan" d="M326,-528C320,-528 314,-522 314,-516"></path>
            <path fill="cyan" stroke="cyan" d="M314,-20C314,-14 320,-8 326,-8"></path>
            <polyline fill="none" stroke="black" points="326,-8 602,-8 "></polyline>
            <path fill="none" stroke="black" d="M602,-8C608,-8 614,-14 614,-20"></path>
            <polyline fill="none" stroke="black" points="614,-20 614,-516 "></polyline>
            <path fill="none" stroke="black" d="M614,-516C614,-522 608,-528 602,-528"></path>
            <polyline fill="none" stroke="black" points="602,-528 326,-528 "></polyline>
            <path fill="none" stroke="black" d="M326,-528C320,-528 314,-522 314,-516"></path>
            <polyline fill="none" stroke="black" points="314,-516 314,-20 "></polyline>
            <path fill="none" stroke="black" d="M314,-20C314,-14 320,-8 326,-8"></path>
            <text text-anchor="middle" x="464" y="-511.4" font-family="Times,serif" font-size="14.00">Definition</text>
        </g>
        <!-- REST Genie -->
        <g id="node3" class="node">
            <title>REST Genie</title>
            <polygon fill="white" stroke="black" points="69.92,-545 69.92,-645 274.08,-645 274.08,-545 69.92,-545"></polygon>
            <text text-anchor="middle" x="172" y="-628.4" font-family="Times,serif" font-size="14.00">REST Action Scripting Genie</text>
            <polyline fill="none" stroke="black" points="69.92,-620.2 274.08,-620.2 "></polyline>
            <text text-anchor="start" x="77.92" y="-603.6" font-family="Times,serif" font-size="14.00">Example:</text>
            <text text-anchor="start" x="77.92" y="-586.8" font-family="Times,serif" font-size="14.00">Rest Service:MyRESTApi</text>
            <text text-anchor="start" x="77.92" y="-570" font-family="Times,serif" font-size="14.00">Action: AddUserAction</text>
            <text text-anchor="start" x="77.92" y="-553.2" font-family="Times,serif" font-size="14.00">Named Resource: MyRestNamed</text>
        </g>
        <!-- Named Resource -->
        <g id="node5" class="node">
            <title>Named Resource</title>
            <polygon fill="white" stroke="black" points="23.6209,-304 23.6209,-404 290.379,-404 290.379,-304 23.6209,-304"></polygon>
            <text text-anchor="start" x="31.6209" y="-387.4" font-family="Times,serif" font-size="14.00">Named Resource</text>
            <text text-anchor="start" x="31.6209" y="-370.6" font-family="Times,serif" font-size="14.00">Client Application keys for specific provider</text>
            <polyline fill="none" stroke="black" points="23.6209,-362.4 290.379,-362.4 "></polyline>
            <text text-anchor="start" x="31.6209" y="-345.8" font-family="Times,serif" font-size="14.00">Example: 'MyRestNamed'</text>
            <text text-anchor="start" x="31.6209" y="-329" font-family="Times,serif" font-size="14.00">client_id="571s2121ads4"</text>
            <text text-anchor="start" x="31.6209" y="-312.2" font-family="Times,serif" font-size="14.00">client_secret="68ha896sd898"</text>
        </g>
        <!-- REST Genie&#45;&gt;Named Resource -->
        <g id="edge12" class="edge">
            <title>REST Genie-&gt;Named Resource</title>
            <path fill="none" stroke="black" d="M168.91,-544.769C166.535,-506.931 163.246,-454.516 160.725,-414.358"></path>
            <polygon fill="black" stroke="black" points="164.205,-413.928 160.086,-404.167 157.219,-414.367 164.205,-413.928"></polygon>
        </g>
        <!-- REST Api Definition -->
        <g id="node8" class="node">
            <title>REST Api Definition</title>
            <polygon fill="white" stroke="black" points="327.434,-212.4 327.434,-495.6 588.566,-495.6 588.566,-212.4 327.434,-212.4"></polygon>
            <text text-anchor="start" x="335.434" y="-479" font-family="Times,serif" font-size="14.00">REST Api Definition</text>
            <text text-anchor="start" x="335.434" y="-446.2" font-family="Times,serif" font-size="14.00">Endpoint for resource</text>
            <text text-anchor="start" x="335.434" y="-429.4" font-family="Times,serif" font-size="14.00">plus what Providers are expected</text>
            <text text-anchor="start" x="335.434" y="-412.6" font-family="Times,serif" font-size="14.00">Example: MyRESTApi</text>
            <polyline fill="none" stroke="black" points="327.434,-404.4 588.566,-404.4 "></polyline>
            <text text-anchor="start" x="335.434" y="-387.8" font-family="Times,serif" font-size="14.00">Resource</text>
            <text text-anchor="start" x="335.434" y="-371" font-family="Times,serif" font-size="14.00">Example:</text>
            <text text-anchor="start" x="335.434" y="-354.2" font-family="Times,serif" font-size="14.00">https://api.restful.com/v3/</text>
            <polyline fill="none" stroke="black" points="327.434,-346 588.566,-346 "></polyline>
            <text text-anchor="start" x="335.434" y="-329.4" font-family="Times,serif" font-size="14.00">Schemas</text>
            <text text-anchor="start" x="335.434" y="-312.6" font-family="Times,serif" font-size="14.00">Info record</text>
            <text text-anchor="start" x="335.434" y="-295.8" font-family="Times,serif" font-size="14.00">{ "name" : "string"</text>
            <text text-anchor="start" x="335.434" y="-279" font-family="Times,serif" font-size="14.00"> , "enabled" : "boolean" }</text>
            <polyline fill="none" stroke="black" points="327.434,-270.8 588.566,-270.8 "></polyline>
            <text text-anchor="start" x="335.434" y="-254.2" font-family="Times,serif" font-size="14.00">Actions</text>
            <text text-anchor="start" x="335.434" y="-237.4" font-family="Times,serif" font-size="14.00">Example: AddUserAction</text>
            <text text-anchor="start" x="335.434" y="-220.6" font-family="Times,serif" font-size="14.00">/AddUser?name=username&amp;enabled=value</text>
        </g>
        <!-- REST Genie&#45;&gt;REST Api Definition -->
        <g id="edge10" class="edge">
            <title>REST Genie-&gt;REST Api Definition</title>
            <path fill="none" stroke="black" d="M274.281,-546.702C283.951,-540.872 293.358,-534.616 302,-528 312.236,-520.164 322.341,-511.597 332.19,-502.603"></path>
            <polygon fill="black" stroke="black" points="334.73,-505.02 339.669,-495.646 329.963,-499.894 334.73,-505.02"></polygon>
        </g>
        <!-- Provider Type -->
        <g id="node7" class="node">
            <title>Provider Type</title>
            <polygon fill="white" stroke="black" points="321.804,-16.8 321.804,-175.2 606.196,-175.2 606.196,-16.8 321.804,-16.8"></polygon>
            <text text-anchor="middle" x="464" y="-158.6" font-family="Times,serif" font-size="14.00">Provider</text>
            <polyline fill="none" stroke="black" points="321.804,-150.4 606.196,-150.4 "></polyline>
            <text text-anchor="start" x="329.804" y="-133.8" font-family="Times,serif" font-size="14.00">oAuth Provider Definition</text>
            <text text-anchor="start" x="329.804" y="-117" font-family="Times,serif" font-size="14.00">Defines Endpoints Provider Defines</text>
            <text text-anchor="start" x="329.804" y="-100.2" font-family="Times,serif" font-size="14.00">Example: RestAuth</text>
            <text text-anchor="middle" x="464" y="-83.4" font-family="Times,serif" font-size="14.00">auth=https://api.restful.com/oauth2/authenticate</text>
            <text text-anchor="start" x="329.804" y="-66.6" font-family="Times,serif" font-size="14.00">getToken=https://api.restful.com/oauth2/token</text>
            <polyline fill="none" stroke="black" points="321.804,-58.4 606.196,-58.4 "></polyline>
            <text text-anchor="start" x="329.804" y="-41.8" font-family="Times,serif" font-size="14.00">API Provider Definition</text>
            <text text-anchor="start" x="329.804" y="-25" font-family="Times,serif" font-size="14.00">Definition of fields required for provider</text>
        </g>
        <!-- Named Resource&#45;&gt;Provider Type -->
        <g id="edge6" class="edge">
            <title>Named Resource-&gt;Provider Type</title>
            <path fill="none" stroke="black" d="M207.512,-303.999C236.777,-276.238 274.707,-241.308 310,-212 322.117,-201.937 335.002,-191.676 347.959,-181.631"></path>
            <polygon fill="black" stroke="black" points="350.248,-184.286 356.03,-175.408 345.973,-178.742 350.248,-184.286"></polygon>
        </g>
        <!-- REST Api Definition&#45;&gt;Provider Type -->
        <g id="edge8" class="edge">
            <title>REST Api Definition-&gt;Provider Type</title>
            <path fill="none" stroke="black" d="M461.298,-212.269C461.512,-203.166 461.723,-194.151 461.928,-185.408"></path>
            <polygon fill="black" stroke="black" points="465.43,-185.362 462.165,-175.283 458.432,-185.198 465.43,-185.362"></polygon>
        </g>
    </g>
</svg>