<?xml version="1.0" encoding="UTF-8" standalone="no"?>
<svg
   xmlns:dc="http://purl.org/dc/elements/1.1/"
   xmlns:cc="http://creativecommons.org/ns#"
   xmlns:rdf="http://www.w3.org/1999/02/22-rdf-syntax-ns#"
   xmlns:svg="http://www.w3.org/2000/svg"
   xmlns="http://www.w3.org/2000/svg"
   version="1.1"
   id="svg2"
   viewBox="0 0 31.954411 31.92808"
   height="9.0108137mm"
   width="9.0182447mm">
  <defs
     id="defs4" />
  <metadata
     id="metadata7">
    <rdf:RDF>
      <cc:Work
         rdf:about="">
        <dc:format>image/svg+xml</dc:format>
        <dc:type
           rdf:resource="http://purl.org/dc/dcmitype/StillImage" />
        <dc:title></dc:title>
      </cc:Work>
    </rdf:RDF>
  </metadata>
  <g
     transform="translate(-64.019649,-197.92002)"
     id="layer1">
    <g
       transform="matrix(0.20513005,0,0,0.24193038,27.535205,142.60545)"
       id="g4188">
      <g
         transform="matrix(0.66562959,0,0,0.76567202,59.545113,84.573111)"
         id="g4234">
        <rect
           ry="12.270924"
           y="253.35344"
           x="179.3996"
           height="92.408028"
           width="230.72725"
           id="rect4136"
           style="fill:#c9d3f3;fill-opacity:1;stroke:#000000;stroke-width:3.30132413;stroke-miterlimit:4;stroke-dasharray:none;stroke-opacity:1" />
        <path
           id="rect4140"
           d="m 223.56385,189.57384 123.43564,0 c 13.99906,10.95639 9.9224,7.80272 22.74123,17.54733 l 0,71.77791 c 0,0.92236 -0.78719,1.6649 -1.76502,1.6649 l -144.41185,0 c -0.97783,0 -1.76502,-0.74254 -1.76502,-1.6649 l 0,-87.66034 c 0,-0.92237 0.78719,-1.6649 1.76502,-1.6649 z"
           style="fill:#f6f6f6;fill-opacity:1;stroke:#000000;stroke-width:2.83698106;stroke-miterlimit:4;stroke-dasharray:none;stroke-opacity:1" />
        <path
           id="path4180"
           d="m 347.81721,191.28189 c 0,8.4627 0,16.50227 0,16.50227 l 21.15676,0.42314"
           style="fill:none;fill-rule:evenodd;stroke:#000000;stroke-width:2.5;stroke-linecap:butt;stroke-linejoin:miter;stroke-miterlimit:4;stroke-dasharray:none;stroke-opacity:1" />
        <rect
           ry="8.8858385"
           y="305.95154"
           x="226.37738"
           height="53.315048"
           width="141.75032"
           id="rect4182"
           style="fill:#e7e7e7;fill-opacity:1;stroke:#000000;stroke-width:2.5;stroke-miterlimit:4;stroke-dasharray:none;stroke-opacity:1" />
        <ellipse
           ry="5.0185499"
           rx="6.4029775"
           cy="273.44861"
           cx="389.5433"
           id="path4184"
           style="fill:#ddfa3e;fill-opacity:1;stroke:#96acfb;stroke-width:2.5;stroke-miterlimit:4;stroke-dasharray:none;stroke-opacity:1" />
        <path
           id="path4186"
           d="m 332.26263,210.28411 -74.7591,0 c -11.42152,0 -11.42152,0 -11.42152,0 m 20.0742,11.76764 c 66.45252,-0.69222 66.45252,-1.03832 66.45252,-1.03832 l 0,0 0,0 m -87.21894,15.2287 c 87.56505,-1.03832 87.56505,-0.69221 87.56505,-0.69221 l 0,0"
           style="fill:none;fill-rule:evenodd;stroke:#000000;stroke-width:2.5;stroke-linecap:butt;stroke-linejoin:miter;stroke-miterlimit:4;stroke-dasharray:none;stroke-opacity:1" />
      </g>
    </g>
  </g>
</svg>
