<?xml version="1.0" encoding="UTF-8"?>
<!DOCTYPE svg PUBLIC "-//W3C//DTD SVG 1.1//EN" "http://www.w3.org/Graphics/SVG/1.1/DTD/svg11.dtd">
<svg xmlns="http://www.w3.org/2000/svg" xml:space="preserve" width="1024px" height="1024px" shape-rendering="geometricPrecision" text-rendering="geometricPrecision" image-rendering="optimizeQuality" fill-rule="nonzero" clip-rule="evenodd" viewBox="0 0 10240 10240" xmlns:xlink="http://www.w3.org/1999/xlink">
	<title>film icon</title>
	<desc>film icon from the IconExperience.com O-Collection. Copyright by INCORS GmbH (www.incors.com).</desc>
	<path id="curve0" fill="#252525" d="M1280 1280l640 0 0 640 640 0 0 -640 640 0 0 1600c0,176 144,320 320,320l3200 0c176,0 320,-144 320,-320l0 -1600 640 0 0 640 640 0 0 -640 640 0 0 7680 -1920 0 0 -1600c0,-176 -144,-320 -320,-320l-3200 0c-176,0 -320,144 -320,320l0 1600 -1920 0 0 -7680zm2240 2560c-176,0 -320,144 -320,320l0 1920c0,176 144,320 320,320l3200 0c176,0 320,-144 320,-320l0 -1920c0,-176 -144,-320 -320,-320l-3200 0zm4160 3840l0 640 640 0 0 -640 -640 0zm0 -1280l0 640 640 0 0 -640 -640 0zm0 -1280l0 640 640 0 0 -640 -640 0zm0 -1280l0 640 640 0 0 -640 -640 0zm0 -1280l0 640 640 0 0 -640 -640 0zm-5760 5120l0 640 640 0 0 -640 -640 0zm0 -1280l0 640 640 0 0 -640 -640 0zm0 -1280l0 640 640 0 0 -640 -640 0zm0 -1280l0 640 640 0 0 -640 -640 0zm0 -1280l0 640 640 0 0 -640 -640 0z"/>
</svg>
