<?xml version="1.0" encoding="UTF-8"?>
<!DOCTYPE svg PUBLIC "-//W3C//DTD SVG 1.1//EN" "http://www.w3.org/Graphics/SVG/1.1/DTD/svg11.dtd">
<svg xmlns="http://www.w3.org/2000/svg" xml:space="preserve" width="1024px" height="1024px" shape-rendering="geometricPrecision" text-rendering="geometricPrecision" image-rendering="optimizeQuality" fill-rule="nonzero" clip-rule="evenodd" viewBox="0 0 10240 10240" xmlns:xlink="http://www.w3.org/1999/xlink">
	<title>arrow_spread icon</title>
	<desc>arrow_spread icon from the IconExperience.com O-Collection. Copyright by INCORS GmbH (www.incors.com).</desc>
	<path id="curve3" fill="#FFFFFF" d="M5760 6400l0 1280 687 -687c47,-46 113,-60 174,-34 61,25 100,82 99,147l-7 839c-1,176 -63,328 -187,453l-1187 1186c-124,124 -328,124 -452,0l-1186 -1186c-125,-125 -189,-277 -188,-453l7 -839c1,-66 38,-122 99,-147 61,-26 127,-12 174,34l687 687 0 -1280 1280 0z"/>
	<path id="curve2" fill="#FFFFFF" d="M8398 6533l1186 -1187c124,-124 124,-328 0,-452l-1186 -1187c-125,-124 -277,-186 -453,-187l-839 -7c-65,-1 -122,38 -147,99 -26,61 -12,128 34,174l687 694 -1280 0 0 1280 1280 0 -687 680c-46,47 -60,113 -34,174 25,61 81,98 147,99l839 7c176,1 328,-63 453,-187z"/>
	<path id="curve1" fill="#FFFFFF" d="M1842 3701l-1186 1186c-124,124 -124,328 0,452l1186 1187c125,124 277,186 453,187l839 7c65,1 122,-38 147,-99 26,-61 12,-127 -34,-174l-687 -687 1280 0 0 -1280 -1280 0 687 -687c46,-47 60,-113 34,-174 -25,-61 -81,-98 -147,-99l-839 -7c-176,-1 -328,63 -453,188z"/>
	<path id="curve0" fill="#FFFFFF" d="M6539 1842l-1186 -1186c-124,-124 -328,-124 -452,0l-1187 1186c-124,125 -186,277 -187,453l-7 839c-1,65 38,122 99,147 61,26 127,12 174,-34l687 -687 0 1280 1280 0 0 -1280 687 687c47,46 113,60 174,34 61,-25 98,-81 99,-147l7 -839c1,-176 -63,-328 -188,-453z"/>
</svg>
