<?xml version="1.0" encoding="UTF-8"?>
<!DOCTYPE svg PUBLIC "-//W3C//DTD SVG 1.1//EN" "http://www.w3.org/Graphics/SVG/1.1/DTD/svg11.dtd">
<svg xmlns="http://www.w3.org/2000/svg" xml:space="preserve" width="1024px" height="1024px" shape-rendering="geometricPrecision" text-rendering="geometricPrecision" image-rendering="optimizeQuality" fill-rule="nonzero" clip-rule="evenodd" viewBox="0 0 10240 10240" xmlns:xlink="http://www.w3.org/1999/xlink">
	<title>arrow_join2 icon</title>
	<desc>arrow_join2 icon from the IconExperience.com O-Collection. Copyright by INCORS GmbH (www.incors.com).</desc>
	<path id="curve3" fill="#FFFFFF" d="M8188 9092l-1253 -1252 -5 -5 -226 -226 0 971c0,66 -38,123 -99,148 -61,25 -127,12 -174,-35l-598 -588c-126,-123 -188,-276 -188,-452l0 -1678c0,-176 145,-320 320,-320l1678 0c176,0 327,64 453,188l597 588c47,46 60,113 35,174 -25,61 -82,99 -148,99l-971 0 226 226 4 4 1254 1253 -905 905z"/>
	<path id="curve2" fill="#FFFFFF" d="M1150 8187l1213 -1206c12,-18 26,-35 42,-51l226 -226 -971 0c-66,0 -123,-38 -148,-99 -25,-61 -12,-127 35,-174l588 -598c123,-126 276,-188 452,-188l1678 0c176,0 320,145 320,320l0 1678c0,176 -64,327 -188,453l-588 597c-46,47 -113,60 -174,35 -61,-25 -99,-82 -99,-148l0 -965 -1486 1477 -900 -905z"/>
	<path id="curve1" fill="#FFFFFF" d="M9090 2052l-1213 1207c-12,18 -26,35 -42,51l-226 226 971 0c66,0 123,38 148,99 25,61 12,127 -35,174l-588 598c-123,126 -276,188 -452,188l-1678 0c-176,0 -320,-145 -320,-320l0 -1678c0,-176 64,-327 188,-453l588 -597c46,-47 113,-60 174,-35 61,25 99,82 99,148l0 965 1486 -1478 900 905z"/>
	<path id="curve0" fill="#FFFFFF" d="M4595 2587l0 1678c0,176 -145,320 -320,320l-1678 0c-176,0 -327,-64 -453,-188l-597 -588c-47,-46 -60,-113 -35,-174 25,-61 82,-99 148,-99l965 0 -1477 -1486 905 -900 1206 1213c18,12 35,26 51,42l226 226 0 -971c0,-66 38,-123 99,-148 61,-25 127,-12 174,35l598 588c126,123 188,276 188,452z"/>
</svg>
