<?xml version="1.0" encoding="UTF-8"?>
<!DOCTYPE svg PUBLIC "-//W3C//DTD SVG 1.1//EN" "http://www.w3.org/Graphics/SVG/1.1/DTD/svg11.dtd">
<svg xmlns="http://www.w3.org/2000/svg" xml:space="preserve" width="1024px" height="1024px" shape-rendering="geometricPrecision" text-rendering="geometricPrecision" image-rendering="optimizeQuality" fill-rule="nonzero" clip-rule="evenodd" viewBox="0 0 10240 10240" xmlns:xlink="http://www.w3.org/1999/xlink">
	<title>arrow_fork2 icon</title>
	<desc>arrow_fork2 icon from the IconExperience.com O-Collection. Copyright by INCORS GmbH (www.incors.com).</desc>
	<path id="curve0" fill="#FFFFFF" d="M2880 5760l0 320c0,387 529,623 1058,858 183,81 366,162 542,251l0 -4629 -687 687c-47,46 -113,60 -174,34 -61,-25 -100,-82 -99,-147l7 -839c1,-176 63,-328 187,-453l1187 -1186c124,-124 328,-124 452,0l1186 1186c125,125 189,277 188,453l-7 839c-1,66 -38,122 -99,147 -61,26 -127,12 -174,-34l-687 -687 0 3349c176,-89 359,-170 542,-251 529,-235 1058,-470 1058,-858l0 0 0 -320 -687 687c-47,46 -113,60 -174,34 -61,-25 -100,-82 -99,-147l7 -839c1,-176 63,-328 187,-453l1187 -1186c124,-124 328,-124 452,0l1186 1186c125,125 189,277 188,453l-7 839c-1,66 -38,122 -99,147 -61,26 -127,12 -174,-34l-687 -687 0 320c0,3 0,6 0,8 -4,1206 -913,1610 -1822,2015 -529,235 -1058,469 -1058,857l0 1920 -1280 0 0 -640c0,-388 -529,-622 -1058,-857 -909,-405 -1817,-809 -1822,-2014 0,-3 0,-6 0,-9l0 -320 -687 687c-47,46 -113,60 -174,34 -61,-25 -100,-82 -99,-147l7 -839c1,-176 63,-328 187,-453l1187 -1186c124,-124 328,-124 452,0l1186 1186c125,125 189,277 188,453l-7 839c-1,66 -38,122 -99,147 -61,26 -127,12 -174,-34l-687 -687z"/>
</svg>
