<?xml version="1.0" encoding="UTF-8"?>
<!DOCTYPE svg PUBLIC "-//W3C//DTD SVG 1.1//EN" "http://www.w3.org/Graphics/SVG/1.1/DTD/svg11.dtd">
<svg xmlns="http://www.w3.org/2000/svg" xml:space="preserve" width="1024px" height="1024px" shape-rendering="geometricPrecision" text-rendering="geometricPrecision" image-rendering="optimizeQuality" fill-rule="nonzero" clip-rule="evenodd" viewBox="0 0 10240 10240" xmlns:xlink="http://www.w3.org/1999/xlink">
	<title>arrow_shuffle icon</title>
	<desc>arrow_shuffle icon from the IconExperience.com O-Collection. Copyright by INCORS GmbH (www.incors.com).</desc>
	<path id="curve1" fill="#FFFFFF" d="M6720 7680c-804,0 -1426,-432 -1980,-1024 247,-336 469,-703 687,-1062l31 -51c416,490 835,857 1262,857l640 0 -687 -687c-46,-47 -60,-113 -34,-174 25,-61 82,-100 147,-99l839 7c176,1 328,63 453,187l1186 1187c124,124 124,328 0,452l-1186 1186c-125,125 -277,189 -453,188l-839 -7c-66,-1 -122,-38 -147,-99 -26,-61 -12,-127 34,-174l687 -687 -640 0zm-3228 -2598c-518,-669 -1038,-1242 -1572,-1242l-640 0 0 -1280 640 0c955,0 1653,610 2286,1373 -158,239 -308,486 -456,730 -87,143 -173,284 -258,419z"/>
	<path id="curve0" fill="#FFFFFF" d="M8078 4619l1186 -1186c124,-124 124,-328 0,-452l-1186 -1187c-125,-124 -277,-186 -453,-187l-839 -7c-65,-1 -122,38 -147,99 -26,61 -12,127 34,174l687 687 -640 0c-1317,0 -1997,1119 -2677,2238 -491,810 -983,1619 -1586,1619l-1280 0 0 1280 1280 0c1317,0 1997,-1119 2676,-2239 492,-809 984,-1618 1587,-1618l640 0 -687 687c-46,47 -60,113 -34,174 25,61 81,98 147,99l839 7c176,1 328,-63 453,-188z"/>
</svg>
