<?xml version="1.0" encoding="UTF-8"?>
<!DOCTYPE svg PUBLIC "-//W3C//DTD SVG 1.1//EN" "http://www.w3.org/Graphics/SVG/1.1/DTD/svg11.dtd">
<svg xmlns="http://www.w3.org/2000/svg" xml:space="preserve" width="1024px" height="1024px" shape-rendering="geometricPrecision" text-rendering="geometricPrecision" image-rendering="optimizeQuality" fill-rule="nonzero" clip-rule="evenodd" viewBox="0 0 10240 10240" xmlns:xlink="http://www.w3.org/1999/xlink">
	<title>arrow_down_right icon</title>
	<desc>arrow_down_right icon from the IconExperience.com O-Collection. Copyright by INCORS GmbH (www.incors.com).</desc>
	<path id="curve0" fill="#FFFFFF" d="M2713 6400l2330 0 -3621 -3620c-124,-125 -124,-328 0,-453l905 -905c125,-124 328,-124 453,0l3620 3621 0 -2329c0,-67 38,-123 99,-148 61,-26 128,-12 174,34l1460 1460c124,124 187,276 187,452l0 3488c0,176 -144,320 -320,320l-3488 0c-176,0 -328,-63 -452,-187l-1460 -1460c-46,-46 -60,-113 -34,-174 25,-61 81,-99 147,-99z"/>
</svg>
