<?xml version="1.0" encoding="UTF-8"?>
<!DOCTYPE svg PUBLIC "-//W3C//DTD SVG 1.1//EN" "http://www.w3.org/Graphics/SVG/1.1/DTD/svg11.dtd">
<svg xmlns="http://www.w3.org/2000/svg" xml:space="preserve" width="1024px" height="1024px" shape-rendering="geometricPrecision" text-rendering="geometricPrecision" image-rendering="optimizeQuality" fill-rule="nonzero" clip-rule="evenodd" viewBox="0 0 10240 10240" xmlns:xlink="http://www.w3.org/1999/xlink">
	<title>arrow_u_turn icon</title>
	<desc>arrow_u_turn icon from the IconExperience.com O-Collection. Copyright by INCORS GmbH (www.incors.com).</desc>
	<path id="curve0" fill="#FFFFFF" d="M7118 8459l1186 -1186c124,-124 124,-328 0,-452l-1186 -1187c-125,-124 -277,-186 -453,-187l-839 -7c-65,-1 -122,38 -147,99 -26,61 -12,127 34,174l687 687c-533,0 -1067,0 -1600,0 -442,0 -842,-179 -1131,-469 -290,-289 -469,-689 -469,-1131 0,-442 179,-842 469,-1131 291,-291 691,-471 1131,-471l2880 -1 0 -1275 -2880 1c-797,0 -1517,321 -2036,841 -522,521 -844,1241 -844,2036 0,795 322,1515 844,2036 521,522 1241,844 2036,844l1600 0 -687 687c-46,47 -60,113 -34,174 25,61 81,98 147,99l839 7c176,1 328,-63 453,-188z"/>
</svg>
