<?xml version="1.0" encoding="UTF-8"?>
<!DOCTYPE svg PUBLIC "-//W3C//DTD SVG 1.1//EN" "http://www.w3.org/Graphics/SVG/1.1/DTD/svg11.dtd">
<svg xmlns="http://www.w3.org/2000/svg" xml:space="preserve" width="1024px" height="1024px" shape-rendering="geometricPrecision" text-rendering="geometricPrecision" image-rendering="optimizeQuality" fill-rule="nonzero" clip-rule="evenodd" viewBox="0 0 10240 10240" xmlns:xlink="http://www.w3.org/1999/xlink">
	<title>arrow_join icon</title>
	<desc>arrow_join icon from the IconExperience.com O-Collection. Copyright by INCORS GmbH (www.incors.com).</desc>
	<path id="curve3" fill="#FFFFFF" d="M3701 7282l1186 -1186c124,-124 328,-124 452,0l1187 1186c124,125 186,277 187,453l7 839c1,65 -38,122 -99,147 -61,26 -127,12 -174,-34l-687 -687 -9 1600 -1275 0 4 -1600 -687 687c-47,46 -113,60 -174,34 -61,-25 -98,-81 -99,-147l-7 -839c-1,-176 63,-328 188,-453z"/>
	<path id="curve2" fill="#FFFFFF" d="M7282 6539l-1186 -1186c-124,-124 -124,-328 0,-452l1186 -1187c125,-124 277,-186 453,-187l839 -7c65,-1 122,38 147,99 26,61 12,128 -34,174l-684 684 1597 3 0 1280 -1600 0 687 687c46,47 60,113 34,174 -25,61 -81,98 -147,99l-839 7c-176,1 -328,-63 -453,-188z"/>
	<path id="curve1" fill="#FFFFFF" d="M2958 3701l1186 1186c124,124 124,328 0,452l-1186 1187c-125,124 -277,186 -453,187l-839 7c-65,1 -122,-38 -147,-99 -26,-61 -12,-127 34,-174l684 -684 -1597 -3 0 -1278 1600 -2 -687 -687c-46,-47 -60,-113 -34,-174 25,-61 81,-98 147,-99l839 -7c176,-1 328,63 453,188z"/>
	<path id="curve0" fill="#FFFFFF" d="M6539 2958l-1186 1186c-124,124 -328,124 -452,0l-1187 -1186c-124,-125 -186,-277 -187,-453l-7 -839c-1,-65 38,-122 99,-147 61,-26 127,-12 174,34l684 684 5 -1597 1276 0 2 1600 687 -687c47,-46 113,-60 174,-34 61,25 98,81 99,147l7 839c1,176 -63,328 -188,453z"/>
</svg>
