<?xml version="1.0" encoding="UTF-8"?>
<!DOCTYPE svg PUBLIC "-//W3C//DTD SVG 1.1//EN" "http://www.w3.org/Graphics/SVG/1.1/DTD/svg11.dtd">
<svg xmlns="http://www.w3.org/2000/svg" xml:space="preserve" width="1024px" height="1024px" shape-rendering="geometricPrecision" text-rendering="geometricPrecision" image-rendering="optimizeQuality" fill-rule="nonzero" clip-rule="evenodd" viewBox="0 0 10240 10240" xmlns:xlink="http://www.w3.org/1999/xlink">
	<title>arrow_loop icon</title>
	<desc>arrow_loop icon from the IconExperience.com O-Collection. Copyright by INCORS GmbH (www.incors.com).</desc>
	<path id="curve0" fill="#FFFFFF" d="M640 5120l3200 0c530,0 960,-430 960,-960 0,-530 -430,-960 -960,-960 -530,0 -960,430 -960,960 0,246 92,470 244,640l-1431 0c-61,-203 -93,-418 -93,-640 0,-618 251,-1179 656,-1584 405,-405 966,-656 1584,-656 1237,0 2240,1003 2240,2240 0,1237 -1003,2240 -2240,2240l-3200 0 0 -1280zm7758 2059l1186 -1186c124,-124 124,-328 0,-452l-1186 -1187c-125,-124 -277,-186 -453,-187l-839 -7c-65,-1 -122,38 -147,99 -26,61 -12,127 34,174l687 687 -1466 0c-220,543 -622,996 -1134,1280l2600 0 -687 687c-46,47 -60,113 -34,174 25,61 81,98 147,99l839 7c176,1 328,-63 453,-188z"/>
</svg>
