<?xml version="1.0" encoding="UTF-8"?>
<!DOCTYPE svg PUBLIC "-//W3C//DTD SVG 1.1//EN" "http://www.w3.org/Graphics/SVG/1.1/DTD/svg11.dtd">
<svg xmlns="http://www.w3.org/2000/svg" xml:space="preserve" width="1024px" height="1024px" shape-rendering="geometricPrecision" text-rendering="geometricPrecision" image-rendering="optimizeQuality" fill-rule="nonzero" clip-rule="evenodd" viewBox="0 0 10240 10240" xmlns:xlink="http://www.w3.org/1999/xlink">
	<title>auction_hammer icon</title>
	<desc>auction_hammer icon from the IconExperience.com O-Collection. Copyright by INCORS GmbH (www.incors.com).</desc>
	<path id="curve2" fill="#FFFFFF" d="M6400 7680l0 0 2560 0c353,0 640,288 640,640l0 640 -3840 0 0 -640c0,-352 287,-640 640,-640zm0 -320l0 0c0,-176 144,-320 320,-320l1920 0c176,0 320,144 320,320l0 0 -2560 0z"/>
	<path id="curve1" fill="#FFFFFF" d="M4640 4062l898 898 -449 449c-449,0 -886,436 -1122,673 -677,677 -898,1346 -1795,2244l-449 449c-247,247 -650,247 -898,0l0 0c-247,-248 -247,-651 0,-898l449 -449c898,-897 1567,-1118 2244,-1795 237,-236 673,-673 673,-1122l449 -449z"/>
	<path id="curve0" fill="#FFFFFF" d="M5762 1145l60 61c82,82 112,193 82,306 -28,106 -1,223 82,307 83,83 201,110 307,82 113,-30 224,0 306,82l1018 1018c83,82 112,193 82,306 -28,106 -1,224 82,307 84,83 201,110 307,82 113,-30 224,0 307,82l60 60c247,247 247,650 0,898l-898 897c-247,247 -650,247 -898,0l-60 -60c-82,-82 -112,-194 -82,-306 29,-106 1,-224 -82,-307 -83,-83 -201,-110 -307,-82 -112,30 -224,0 -306,-82l-1018 -1018c-82,-82 -112,-194 -82,-306 28,-106 1,-224 -82,-307 -83,-83 -201,-111 -307,-82 -112,30 -224,0 -306,-82l-60 -61c-247,-247 -247,-650 0,-897l897 -898c248,-247 651,-247 898,0z"/>
</svg>
