<?xml version="1.0" encoding="UTF-8"?>
<!DOCTYPE svg PUBLIC "-//W3C//DTD SVG 1.1//EN" "http://www.w3.org/Graphics/SVG/1.1/DTD/svg11.dtd">
<svg xmlns="http://www.w3.org/2000/svg" xml:space="preserve" width="1024px" height="1024px" shape-rendering="geometricPrecision" text-rendering="geometricPrecision" image-rendering="optimizeQuality" fill-rule="nonzero" clip-rule="evenodd" viewBox="0 0 10240 10240" xmlns:xlink="http://www.w3.org/1999/xlink">
	<title>audio_cassette icon</title>
	<desc>audio_cassette icon from the IconExperience.com O-Collection. Copyright by INCORS GmbH (www.incors.com).</desc>
	<path id="curve2" fill="#FFFFFF" d="M3200 3840c-1060,0 -1920,860 -1920,1920 0,350 94,678 257,960l3326 0c163,-282 257,-610 257,-960 0,-1060 -860,-1920 -1920,-1920zm3840 1280c353,0 640,287 640,640 0,353 -287,640 -640,640 -353,0 -640,-287 -640,-640 0,-353 287,-640 640,-640zm-3840 0c353,0 640,287 640,640 0,353 -287,640 -640,640 -353,0 -640,-287 -640,-640 0,-353 287,-640 640,-640zm5001 100c-204,-437 -647,-740 -1161,-740 -707,0 -1280,573 -1280,1280 0,382 168,725 433,960l1694 0c203,-180 349,-423 406,-699l404 699 263 0 0 -185 -759 -1315z"/>
	<path id="curve1" fill="#FFFFFF" d="M1280,2880 8960,2880 8960,3520 1280,3520z"/>
	<path id="curve0" fill="#FFFFFF" d="M960 1920l8320 0c353,0 640,288 640,640l0 5760c0,352 -288,640 -640,640l-960 0 -560 -1399c-49,-124 -163,-201 -297,-201l-4686 0c-134,0 -248,77 -297,201l-560 1399 -960 0c-352,0 -640,-288 -640,-640l0 -5760c0,-353 288,-640 640,-640zm6925 7040l-5530 0 389 -1079c44,-124 147,-201 267,-201l4218 0c120,0 223,77 267,201l389 1079zm-6925 -6400l0 4480 8320 0 0 -4480 -8320 0z"/>
</svg>
