<?xml version="1.0" encoding="UTF-8"?>
<!DOCTYPE svg PUBLIC "-//W3C//DTD SVG 1.1//EN" "http://www.w3.org/Graphics/SVG/1.1/DTD/svg11.dtd">
<svg xmlns="http://www.w3.org/2000/svg" xml:space="preserve" width="1024px" height="1024px" shape-rendering="geometricPrecision" text-rendering="geometricPrecision" image-rendering="optimizeQuality" fill-rule="nonzero" clip-rule="evenodd" viewBox="0 0 10240 10240" xmlns:xlink="http://www.w3.org/1999/xlink">
	<title>backpack icon</title>
	<desc>backpack icon from the IconExperience.com O-Collection. Copyright by INCORS GmbH (www.incors.com).</desc>
	<path id="curve2" fill="#FFFFFF" d="M5120 3520c1060,0 1920,860 1920,1920l0 3200c0,352 -288,640 -640,640l-2560 0c-352,0 -640,-288 -640,-640l0 -3200c0,-1060 860,-1920 1920,-1920zm1280 1920c0,-176 -144,-320 -320,-320l-1920 0c-176,0 -320,144 -320,320 0,176 144,320 320,320l1920 0c176,0 320,-144 320,-320z"/>
	<path id="curve1" fill="#FFFFFF" d="M8320 4800l0 4160c0,352 -288,640 -640,640l-1280 0c529,0 960,-431 960,-960l0 -3200c0,-1237 -1003,-2240 -2240,-2240 -1237,0 -2240,1003 -2240,2240l0 3200c0,529 431,960 960,960l-1280 0c-352,0 -640,-287 -640,-640l0 -4160c0,-1767 1433,-3200 3200,-3200 1767,0 3200,1433 3200,3200z"/>
	<path id="curve0" fill="#FFFFFF" d="M6720 640l640 0c176,0 320,144 320,320l0 1424c-354,-375 -791,-673 -1280,-864l0 -560c0,-176 144,-320 320,-320zm-3840 0l640 0c176,0 320,144 320,320l0 560c-489,191 -926,489 -1280,864l0 -1424c0,-176 144,-320 320,-320z"/>
</svg>
