<?xml version="1.0" encoding="UTF-8"?>
<!DOCTYPE svg PUBLIC "-//W3C//DTD SVG 1.1//EN" "http://www.w3.org/Graphics/SVG/1.1/DTD/svg11.dtd">
<svg xmlns="http://www.w3.org/2000/svg" xml:space="preserve" width="1024px" height="1024px" shape-rendering="geometricPrecision" text-rendering="geometricPrecision" image-rendering="optimizeQuality" fill-rule="nonzero" clip-rule="evenodd" viewBox="0 0 10240 10240" xmlns:xlink="http://www.w3.org/1999/xlink">
	<title>bacon icon</title>
	<desc>bacon icon from the IconExperience.com O-Collection. Copyright by INCORS GmbH (www.incors.com).</desc>
	<path id="curve2" fill="#FFFFFF" d="M8570 6454c-406,92 -895,266 -1210,266 -39,0 -75,-3 -109,-8 -36,53 -80,100 -131,141 -154,123 -348,168 -540,125 -143,-32 -284,-71 -424,-109 -203,-55 -508,-149 -715,-149l-1 0 0 0 -1 0c-169,0 -370,81 -527,140 -244,91 -487,180 -752,180 -257,0 -431,-77 -645,-206 -107,-64 -186,-114 -315,-114 -129,0 -208,50 -315,114 -114,68 -216,122 -325,157 0,5 0,10 0,16l0 33 0 1280 0 593c0,101 42,187 120,250 79,63 172,85 270,63 406,-92 895,-266 1210,-266 427,0 853,320 1280,320 427,0 533,-320 960,-320 427,0 533,320 960,320 349,0 911,-214 1338,-292 153,-28 262,-159 262,-315l0 -33 0 -1280 0 -593c0,-101 -42,-187 -120,-250 -79,-63 -172,-85 -270,-63zm70 1599c-122,27 -263,62 -404,97 -341,85 -683,170 -876,170 -375,0 -524,-113 -672,-226 -62,-47 -124,-94 -288,-94 -89,0 -213,63 -336,125 -193,97 -386,195 -624,195 -264,0 -507,-91 -751,-181 -187,-70 -374,-139 -529,-139 -221,0 -465,73 -709,146 -188,57 -376,113 -571,146l0 -652c127,-28 258,-67 389,-106 289,-87 579,-174 891,-174 264,0 507,91 751,181 187,70 374,139 529,139 89,0 213,-62 336,-125 193,-97 386,-195 624,-195 375,0 524,113 673,226 61,47 123,94 287,94 121,0 422,-75 724,-150 194,-48 389,-97 556,-130l0 653z"/>
	<path id="curve1" fill="#FFFFFF" d="M7040 5570l0 510 0 273c0,101 -42,187 -120,250 -79,63 -172,85 -270,62 -406,-91 -895,-265 -1210,-265 -427,0 -853,320 -1280,320 -427,0 -533,-320 -960,-320 -427,0 -533,320 -960,320 -349,0 -911,-214 -1338,-292 -153,-28 -262,-159 -262,-315l0 -353 0 -1280 0 -273c0,-101 42,-187 120,-250 79,-63 172,-85 270,-63 406,92 895,266 1210,266 427,0 533,-320 960,-320 427,0 533,320 960,320 26,0 52,-1 77,-3 98,126 206,225 371,307 140,70 302,121 451,165 180,52 361,99 542,146 124,32 247,63 370,97 -172,-42 -348,-72 -531,-72 -264,0 -507,91 -751,181 -187,70 -374,139 -529,139 -89,0 -213,-63 -336,-125 -193,-97 -386,-195 -624,-195 -375,0 -524,113 -673,226 -61,47 -123,94 -287,94 -121,0 -422,-75 -724,-150 -194,-48 -389,-97 -556,-130l0 653c122,27 263,62 404,97 341,85 683,170 876,170 375,0 524,-113 672,-226 62,-47 124,-94 288,-94 89,0 213,63 336,125 193,97 386,195 624,195 264,0 507,-91 751,-181 187,-70 374,-139 529,-139 221,0 465,73 709,146 188,57 376,113 571,146l0 -499c57,56 110,115 158,166 53,58 107,115 162,171z"/>
	<path id="curve0" fill="#FFFFFF" d="M9255 3394c-154,12 -307,23 -496,-72 -381,-191 -620,-668 -1001,-859 -382,-191 -1479,-383 -1860,-574 -382,-191 -334,-525 -715,-716 -308,-154 -709,-122 -1053,-204 -147,-35 -293,33 -361,168 -378,756 -470,939 -848,1694 -48,95 -47,198 2,292 49,94 133,153 238,168 298,44 619,43 875,171 382,191 334,525 715,716 382,191 1479,383 1861,574 381,191 619,668 1001,859 305,153 518,31 787,74 140,22 273,-46 336,-173 372,-742 457,-913 829,-1655 53,-106 46,-224 -20,-322 -66,-98 -172,-150 -290,-141zm-549 1463l-19 0c-217,0 -433,0 -644,-105 -244,-123 -418,-310 -591,-497 -136,-147 -273,-294 -410,-363 -251,-125 -553,-193 -856,-260 -341,-76 -682,-152 -1004,-313 -211,-106 -340,-279 -470,-452 -85,-113 -170,-226 -245,-264 -138,-69 -336,-90 -534,-111 -151,-16 -302,-32 -450,-68l297 -593c70,10 144,18 218,26 255,27 510,54 754,176 211,105 340,278 470,452 85,113 170,226 245,264 251,125 554,193 856,260 342,76 683,152 1004,313 244,123 418,310 592,498 136,146 272,293 409,362 76,38 217,38 359,38 111,0 221,0 331,14l-312 623z"/>
</svg>
