<?xml version="1.0" encoding="UTF-8"?>
<!DOCTYPE svg PUBLIC "-//W3C//DTD SVG 1.1//EN" "http://www.w3.org/Graphics/SVG/1.1/DTD/svg11.dtd">
<svg xmlns="http://www.w3.org/2000/svg" xml:space="preserve" width="1024px" height="1024px" shape-rendering="geometricPrecision" text-rendering="geometricPrecision" image-rendering="optimizeQuality" fill-rule="nonzero" clip-rule="evenodd" viewBox="0 0 10240 10240" xmlns:xlink="http://www.w3.org/1999/xlink">
	<title>bags icon</title>
	<desc>bags icon from the IconExperience.com O-Collection. Copyright by INCORS GmbH (www.incors.com).</desc>
	<path id="curve2" fill="#FFFFFF" d="M4818 1623c-18,-126 -44,-252 -77,-378 -41,-155 81,-302 239,-287 686,66 1816,0 2026,0 680,0 1342,67 2027,1 158,-15 280,133 239,287 -264,993 -13,1999 -13,2913 0,914 -262,1882 13,2913 41,155 -81,302 -239,287 -460,-44 -911,-30 -1363,-15 28,-312 56,-626 56,-945 0,-218 -13,-438 -31,-658 270,-10 546,-27 820,-50 2,-53 5,-107 9,-160 10,-161 25,-323 40,-484 -308,28 -619,47 -921,58 -38,-516 -49,-1031 85,-1536 7,-24 11,-47 14,-70 277,-11 560,-29 840,-53 -18,-213 -39,-425 -52,-636 -449,39 -904,60 -1326,67 -14,0 -34,2 -54,4 -500,48 -1004,22 -1507,6 15,-202 46,-402 98,-598 98,-367 -199,-725 -578,-688 -115,11 -230,18 -345,22l0 0z"/>
	<path id="curve1" fill="#FFFFFF" d="M2693 8303c-448,-15 -1098,-29 -1553,15 -158,15 -280,-133 -239,-287 274,-1032 13,-1999 13,-2913 0,-914 251,-1920 -13,-2913 -41,-155 81,-302 239,-287 686,66 1816,0 2026,0 680,0 1342,67 2027,1 158,-15 280,133 239,287 -60,224 -93,449 -109,673 -57,0 -113,-1 -169,-1 -161,0 -325,10 -485,15 -260,9 -519,15 -778,14 -243,0 -492,-4 -734,-27 -379,-37 -676,321 -578,688 23,87 42,175 57,264 -324,-9 -660,-27 -993,-56 -14,211 -35,424 -53,636 368,31 741,50 1099,59 4,531 -72,1068 -99,1599 -320,-9 -652,-28 -980,-56 20,214 39,429 48,644 312,25 626,41 931,50 26,538 107,1064 104,1595z"/>
	<path id="curve0" fill="#FFFFFF" d="M5154 9598c-211,0 -1341,-66 -2027,0 -158,15 -280,-133 -239,-287 275,-1032 13,-1999 13,-2913 0,-914 251,-1920 -13,-2913 -41,-155 81,-302 239,-287 686,66 1816,0 2027,0 679,0 1342,67 2027,1 157,-15 279,133 238,287 -264,993 -13,1999 -13,2913 0,914 -261,1882 13,2913 41,155 -81,302 -238,287 -685,-66 -1348,-1 -2027,-1zm1508 -1667c2,-53 5,-107 9,-160 10,-161 25,-323 40,-484 -543,49 -1097,71 -1591,71 -478,1 -1005,-19 -1523,-64 20,214 39,429 49,644 500,40 1008,58 1474,58 482,-1 1016,-20 1542,-65zm67 -2245c-18,-213 -38,-425 -52,-636 -532,47 -1073,68 -1557,68 -468,1 -983,-19 -1490,-62 -14,211 -35,424 -52,636 522,44 1055,64 1542,64 503,-1 1062,-22 1609,-70z"/>
</svg>
