<?xml version="1.0" encoding="UTF-8"?>
<!DOCTYPE svg PUBLIC "-//W3C//DTD SVG 1.1//EN" "http://www.w3.org/Graphics/SVG/1.1/DTD/svg11.dtd">
<svg xmlns="http://www.w3.org/2000/svg" xml:space="preserve" width="1024px" height="1024px" shape-rendering="geometricPrecision" text-rendering="geometricPrecision" image-rendering="optimizeQuality" fill-rule="nonzero" clip-rule="evenodd" viewBox="0 0 10240 10240" xmlns:xlink="http://www.w3.org/1999/xlink">
	<title>barrel icon</title>
	<desc>barrel icon from the IconExperience.com O-Collection. Copyright by INCORS GmbH (www.incors.com).</desc>
	<path id="curve0" fill="#FFFFFF" d="M1920 1280l6400 0c177,0 320,143 320,320 0,177 -143,320 -320,320l0 1920c177,0 320,143 320,320 0,177 -143,320 -320,320l0 1920c177,0 320,143 320,320 0,177 -143,320 -320,320l0 1920c177,0 320,143 320,320 0,177 -143,320 -320,320l-6400 0c-177,0 -320,-143 -320,-320 0,-177 143,-320 320,-320l0 0 640 0 0 0c1564,0 3129,0 4693,0 59,0 107,-72 107,-160l0 0c0,-88 -48,-160 -107,-160l-853 0 0 -1600 -3840 0 0 1600 -640 0 0 -1600 0 0c-177,0 -320,-143 -320,-320 0,-177 143,-320 320,-320l0 0 0 0 640 0 0 0c1561,0 3123,0 4684,0 64,0 116,-72 116,-160l0 0c0,-88 -52,-160 -116,-160l-844 0 0 -1600 -3840 0 0 1600 -640 0 0 -1600c-177,0 -320,-143 -320,-320 0,-177 143,-320 320,-320l640 0 0 0c1566,0 3132,0 4698,0 56,0 102,-72 102,-160l0 0c0,-88 -46,-160 -102,-160l-858 0 0 -1600 -3840 0 0 1600 -640 0 0 -1600 0 0c-177,0 -320,-143 -320,-320 0,-177 143,-320 320,-320l0 0 0 0z"/>
</svg>
