<?xml version="1.0" encoding="UTF-8"?>
<!DOCTYPE svg PUBLIC "-//W3C//DTD SVG 1.1//EN" "http://www.w3.org/Graphics/SVG/1.1/DTD/svg11.dtd">
<svg xmlns="http://www.w3.org/2000/svg" xml:space="preserve" width="1024px" height="1024px" shape-rendering="geometricPrecision" text-rendering="geometricPrecision" image-rendering="optimizeQuality" fill-rule="nonzero" clip-rule="evenodd" viewBox="0 0 10240 10240" xmlns:xlink="http://www.w3.org/1999/xlink">
	<title>basketball icon</title>
	<desc>basketball icon from the IconExperience.com O-Collection. Copyright by INCORS GmbH (www.incors.com).</desc>
	<path id="curve0" fill="#FFFFFF" d="M5120 640c2474,0 4480,2006 4480,4480 0,2474 -2006,4480 -4480,4480 -2474,0 -4480,-2006 -4480,-4480 0,-2474 2006,-4480 4480,-4480zm-3062 2163c154,987 2003,1941 3481,2703 200,103 395,203 576,299 27,-61 53,-123 78,-185 -473,-333 -739,-882 -1046,-1511 -380,-782 -829,-1705 -1830,-2380 -492,263 -923,630 -1259,1074zm4623 3300c319,153 645,270 978,344 336,74 680,105 1033,85 142,-361 232,-749 259,-1157 18,-265 9,-525 -26,-779 -166,296 -388,595 -653,833 -327,293 -720,495 -1161,495 -110,0 -222,-13 -336,-40 -31,74 -62,146 -94,219zm1684 1072c-286,-8 -567,-44 -844,-106 -385,-85 -759,-219 -1120,-392 -35,65 -71,129 -108,192 165,127 301,279 408,445 165,255 260,542 287,820 11,116 10,231 -2,343 559,-312 1034,-760 1379,-1302zm-2529 -795c-188,-100 -385,-202 -590,-307 -1357,-700 -3000,-1547 -3602,-2588 -198,422 -323,887 -355,1380 -5,72 -8,145 -9,216 414,1564 1794,1491 2957,1428 511,-27 986,-52 1375,40 38,9 75,19 111,29 39,-65 77,-131 113,-198zm1315 -4520c160,403 231,851 231,1323 1,673 -144,1395 -379,2093 36,5 72,8 108,8 267,0 518,-135 736,-330 240,-215 439,-502 579,-778 120,-237 194,-455 211,-600 -312,-707 -831,-1307 -1486,-1716zm-1210 5544c-325,440 -699,810 -1109,1071 -241,153 -494,269 -756,341 252,71 516,117 789,135 431,29 850,-14 1246,-120 74,-40 131,-103 171,-181 64,-126 87,-286 71,-456 -18,-182 -80,-369 -187,-535 -60,-93 -135,-180 -225,-255zm-3271 673c651,302 1274,204 1819,-142 306,-195 591,-466 846,-788 -291,-41 -666,-21 -1065,0 -887,47 -1878,100 -2624,-389 241,510 592,960 1024,1319zm3758 -3092c197,-609 317,-1229 317,-1802 -1,-704 -187,-1335 -646,-1777 -233,-61 -475,-101 -724,-117 -475,-32 -936,24 -1366,155 906,727 1340,1618 1713,2385 230,473 435,892 706,1156z"/>
</svg>
