<?xml version="1.0" encoding="UTF-8"?>
<!DOCTYPE svg PUBLIC "-//W3C//DTD SVG 1.1//EN" "http://www.w3.org/Graphics/SVG/1.1/DTD/svg11.dtd">
<svg xmlns="http://www.w3.org/2000/svg" xml:space="preserve" width="1024px" height="1024px" shape-rendering="geometricPrecision" text-rendering="geometricPrecision" image-rendering="optimizeQuality" fill-rule="nonzero" clip-rule="evenodd" viewBox="0 0 10240 10240" xmlns:xlink="http://www.w3.org/1999/xlink">
	<title>basketball_hoop icon</title>
	<desc>basketball_hoop icon from the IconExperience.com O-Collection. Copyright by INCORS GmbH (www.incors.com).</desc>
	<path id="curve2" fill="#FFFFFF" d="M640 640l8960 0 0 6400 -2012 0c59,-216 127,-430 204,-640l1168 0 0 -5120 -7680 0 0 5120 1168 0c77,210 145,424 204,640l-2012 0 0 -6400z"/>
	<path id="curve1" fill="#FFFFFF" d="M6679 8731c-240,116 -527,179 -790,217 -3,146 -6,292 -7,439 132,-19 787,-148 787,-273 1,0 8,-350 10,-383zm-1571 1029c-461,-1 -813,-24 -1261,-158 -307,-91 -596,-243 -596,-488 0,-743 -101,-1466 -290,-2158 -112,-410 -255,-809 -428,-1197 122,42 254,80 395,112 53,129 102,259 149,390 234,120 790,173 1077,196 -19,-140 -39,-280 -61,-418 107,9 216,16 327,22 21,138 41,277 59,418 426,21 856,21 1282,0 19,-141 38,-280 59,-418 111,-6 221,-13 327,-22 -22,138 -42,278 -61,418 289,-23 841,-75 1077,-196 47,-132 96,-261 149,-390 141,-32 273,-70 395,-112 -173,387 -316,787 -428,1197 -190,694 -290,1417 -290,2158 0,278 -373,421 -591,487 -455,136 -821,160 -1290,159zm454 -337c1,-147 3,-293 7,-439 -298,23 -600,23 -897,-1 3,146 5,293 6,440 293,23 591,23 884,0zm-1204 -36c-1,-148 -3,-295 -7,-440 -263,-39 -550,-103 -789,-220 6,128 9,258 9,387 0,125 655,254 787,273zm-824 -1057c145,160 582,256 806,292 -8,-218 -19,-434 -33,-648 -282,-39 -587,-104 -847,-222 31,191 56,384 74,578zm-154 -1000c167,175 651,278 903,317 -24,-289 -53,-578 -87,-866 -327,-24 -679,-61 -996,-145 70,229 130,460 180,694zm3660 -694c-317,84 -669,121 -996,145 -34,288 -63,577 -86,867 253,-39 728,-140 901,-314 50,-235 111,-468 181,-698zm-260 1117c-260,118 -565,182 -846,221 -14,214 -26,430 -34,649 227,-36 650,-128 805,-284 18,-197 43,-392 75,-586zm-2118 909c303,26 613,26 916,0 9,-219 20,-437 34,-653 -326,26 -658,26 -983,0 13,216 25,433 33,653zm973 -975c23,-296 51,-592 86,-886 -400,18 -802,18 -1202,0 35,294 63,590 87,885 339,30 689,30 1029,1z"/>
	<path id="curve0" fill="#FFFFFF" d="M5120 3840c628,0 3194,51 3200,960 6,907 -2579,960 -3200,960 -631,0 -3200,-44 -3200,-960 0,-916 2569,-960 3200,-960zm1968 819c-497,-111 -1192,-179 -1968,-179 -776,0 -1471,68 -1968,179 -366,81 -442,135 -442,141 0,6 76,60 442,141 497,111 1192,179 1968,179 776,0 1471,-68 1968,-179 366,-81 462,-130 462,-136 0,-6 -96,-65 -462,-146z"/>
</svg>
