<?xml version="1.0" encoding="UTF-8"?>
<!DOCTYPE svg PUBLIC "-//W3C//DTD SVG 1.1//EN" "http://www.w3.org/Graphics/SVG/1.1/DTD/svg11.dtd">
<svg xmlns="http://www.w3.org/2000/svg" xml:space="preserve" width="1024px" height="1024px" shape-rendering="geometricPrecision" text-rendering="geometricPrecision" image-rendering="optimizeQuality" fill-rule="nonzero" clip-rule="evenodd" viewBox="0 0 10240 10240" xmlns:xlink="http://www.w3.org/1999/xlink">
	<title>battery_status2 icon</title>
	<desc>battery_status2 icon from the IconExperience.com O-Collection. Copyright by INCORS GmbH (www.incors.com).</desc>
	<path id="curve3" fill="#FFFFFF" d="M3520,7680 6720,7680 6720,8640 3520,8640z"/>
	<path id="curve2" fill="#FFFFFF" d="M3520,6400 6720,6400 6720,7360 3520,7360z"/>
	<path id="curve1" fill="#FFFFFF" d="M6400 1610l-2561 0 0 -10 0 -320c0,-177 143,-320 320,-320l1921 0c177,0 320,143 320,320l0 320 0 10z"/>
	<path id="curve0" fill="#FFFFFF" d="M2880 1600l4480 0c177,0 320,143 320,320l0 7360c0,177 -143,320 -320,320l-4480 0c-177,0 -320,-143 -320,-320l0 -7360c0,-177 143,-320 320,-320zm320 640l0 6720 3840 0 0 -6720 -3840 0z"/>
</svg>
