<?xml version="1.0" encoding="UTF-8"?>
<!DOCTYPE svg PUBLIC "-//W3C//DTD SVG 1.1//EN" "http://www.w3.org/Graphics/SVG/1.1/DTD/svg11.dtd">
<svg xmlns="http://www.w3.org/2000/svg" xml:space="preserve" width="1024px" height="1024px" shape-rendering="geometricPrecision" text-rendering="geometricPrecision" image-rendering="optimizeQuality" fill-rule="nonzero" clip-rule="evenodd" viewBox="0 0 10240 10240" xmlns:xlink="http://www.w3.org/1999/xlink">
	<title>bicyclist icon</title>
	<desc>bicyclist icon from the IconExperience.com O-Collection. Copyright by INCORS GmbH (www.incors.com).</desc>
	<path id="curve2" fill="#FFFFFF" d="M8320 8790c0,743 -1615,1074 -2870,1123l0 -3532c440,-50 850,-200 1207,-425 1082,807 1663,1074 1663,2834zm-3530 1123c-1255,-49 -2870,-380 -2870,-1122 0,-1760 582,-2029 1663,-2835 357,226 767,375 1207,425l0 3532z"/>
	<path id="curve1" fill="#FFFFFF" d="M3200 3520l-254 0c-137,0 -266,-27 -385,-78 0,26 -1,52 -1,78 0,1414 1146,2560 2560,2560 1414,0 2560,-1146 2560,-2560 0,-26 -1,-52 -1,-78 -118,51 -248,78 -385,78l-254 0 0 320c0,176 -144,320 -320,320l-960 0c-176,0 -320,-144 -320,-320 0,-176 -144,-320 -320,-320 -176,0 -320,144 -320,320 0,176 -144,320 -320,320l-960 0c-176,0 -320,-144 -320,-320l0 -320z"/>
	<path id="curve0" fill="#FFFFFF" d="M5626 362c115,19 228,45 338,76 70,20 116,81 116,154l0 688c0,176 144,320 320,320 176,0 320,-144 320,-320l0 -199c0,-63 33,-116 89,-144 56,-28 119,-21 169,17 514,396 810,888 941,1464 44,197 1,384 -124,541 -126,158 -299,241 -501,241l-4348 0c-202,0 -375,-83 -501,-241 -125,-157 -168,-344 -124,-541 131,-576 427,-1068 941,-1464 50,-38 113,-45 169,-17 56,28 89,81 89,144l0 199c0,176 144,320 320,320 176,0 320,-144 320,-320l0 -688c0,-73 46,-134 116,-154 110,-32 223,-57 338,-76 48,-8 92,4 129,35 38,32 57,74 57,123l0 1080c0,176 144,320 320,320 176,0 320,-144 320,-320l0 -1080c0,-49 19,-91 57,-122 37,-32 81,-44 129,-36z"/>
</svg>
