<?xml version="1.0" encoding="UTF-8"?>
<!DOCTYPE svg PUBLIC "-//W3C//DTD SVG 1.1//EN" "http://www.w3.org/Graphics/SVG/1.1/DTD/svg11.dtd">
<svg xmlns="http://www.w3.org/2000/svg" xml:space="preserve" width="1024px" height="1024px" shape-rendering="geometricPrecision" text-rendering="geometricPrecision" image-rendering="optimizeQuality" fill-rule="nonzero" clip-rule="evenodd" viewBox="0 0 10240 10240" xmlns:xlink="http://www.w3.org/1999/xlink">
	<title>billboard_empty icon</title>
	<desc>billboard_empty icon from the IconExperience.com O-Collection. Copyright by INCORS GmbH (www.incors.com).</desc>
	<path id="curve1" fill="#FFFFFF" d="M3840 6720l2560 0 0 320c0,176 -144,320 -320,320l-640 0 0 2240 -640 0 0 -2240 -640 0c-176,0 -320,-144 -320,-320l0 -320z"/>
	<path id="curve0" fill="#FFFFFF" d="M960 640l8320 0c176,0 320,144 320,320l0 5120c0,176 -144,320 -320,320l-8320 0c-176,0 -320,-144 -320,-320l0 -5120c0,-176 144,-320 320,-320zm320 640l0 4480 7680 0 0 -4480 -7680 0z"/>
</svg>
