<?xml version="1.0" encoding="UTF-8"?>
<!DOCTYPE svg PUBLIC "-//W3C//DTD SVG 1.1//EN" "http://www.w3.org/Graphics/SVG/1.1/DTD/svg11.dtd">
<svg xmlns="http://www.w3.org/2000/svg" xml:space="preserve" width="1024px" height="1024px" shape-rendering="geometricPrecision" text-rendering="geometricPrecision" image-rendering="optimizeQuality" fill-rule="nonzero" clip-rule="evenodd" viewBox="0 0 10240 10240" xmlns:xlink="http://www.w3.org/1999/xlink">
	<title>bomb2 icon</title>
	<desc>bomb2 icon from the IconExperience.com O-Collection. Copyright by INCORS GmbH (www.incors.com).</desc>
	<path id="curve0" fill="#FFFFFF" d="M7680 2560l1920 0 0 2560 0 2560 -1920 0 -992 -992c-768,585 -1864,992 -2848,992 -1745,0 -3200,-960 -3200,-2560 0,-1600 1455,-2560 3200,-2560 984,0 2080,407 2848,992l992 -992zm-3840 640c-1178,0 -2560,557 -2560,1920 0,95 7,186 20,273 13,93 60,167 138,219 78,52 165,67 256,45l1 -1c161,-40 264,-195 238,-359 -8,-57 -13,-115 -13,-177 0,-969 1131,-1280 1920,-1280 21,0 41,0 62,1 151,4 282,-95 318,-243 25,-97 5,-191 -55,-271 -61,-80 -146,-123 -247,-126 -26,-1 -52,-1 -78,-1zm3200 2560l0 320 640 640 0 -960 -640 0zm0 -1600l0 320 640 0 0 -960 -640 640z"/>
</svg>
