<?xml version="1.0" encoding="UTF-8"?>
<!DOCTYPE svg PUBLIC "-//W3C//DTD SVG 1.1//EN" "http://www.w3.org/Graphics/SVG/1.1/DTD/svg11.dtd">
<svg xmlns="http://www.w3.org/2000/svg" xml:space="preserve" width="1024px" height="1024px" shape-rendering="geometricPrecision" text-rendering="geometricPrecision" image-rendering="optimizeQuality" fill-rule="nonzero" clip-rule="evenodd" viewBox="0 0 10240 10240" xmlns:xlink="http://www.w3.org/1999/xlink">
	<title>bone icon</title>
	<desc>bone icon from the IconExperience.com O-Collection. Copyright by INCORS GmbH (www.incors.com).</desc>
	<path id="curve0" fill="#FFFFFF" d="M4691 7264c-429,429 215,1072 -643,1930 -643,643 -1287,429 -1715,0 -215,-214 -215,-643 -429,-858 -215,-214 -644,-214 -858,-429 -429,-428 -643,-1072 0,-1715 858,-858 1501,-214 1930,-643l2573 -2573c429,-429 -215,-1072 643,-1930 643,-643 1287,-429 1715,0 215,214 215,643 429,858 215,214 644,214 858,429 429,428 643,1072 0,1715 -858,858 -1501,214 -1930,643l-2573 2573zm4061 -4468c-46,-27 -143,-55 -189,-71 -256,-85 -484,-173 -679,-369 -196,-195 -284,-423 -369,-679 -16,-47 -44,-143 -71,-189 -282,-277 -513,-276 -799,11 -517,516 -160,846 -355,1456 -57,180 -155,339 -289,473l-2573 2573c-134,134 -293,232 -473,289 -610,195 -940,-162 -1456,355 -287,286 -288,517 -11,799 46,26 143,55 189,71 256,85 484,173 679,369 196,195 284,423 369,679 16,46 45,143 71,189 282,277 513,276 799,-11 517,-516 160,-846 355,-1456 57,-180 155,-339 289,-473l2573 -2573c134,-134 293,-232 473,-289 610,-195 940,162 1456,-355 287,-286 288,-517 11,-799z"/>
</svg>
