<?xml version="1.0" encoding="UTF-8"?>
<!DOCTYPE svg PUBLIC "-//W3C//DTD SVG 1.1//EN" "http://www.w3.org/Graphics/SVG/1.1/DTD/svg11.dtd">
<svg xmlns="http://www.w3.org/2000/svg" xml:space="preserve" width="1024px" height="1024px" shape-rendering="geometricPrecision" text-rendering="geometricPrecision" image-rendering="optimizeQuality" fill-rule="nonzero" clip-rule="evenodd" viewBox="0 0 10240 10240" xmlns:xlink="http://www.w3.org/1999/xlink">
	<title>book_bookmark icon</title>
	<desc>book_bookmark icon from the IconExperience.com O-Collection. Copyright by INCORS GmbH (www.incors.com).</desc>
	<path id="curve1" fill="#FFFFFF" d="M5120 1600c320,0 640,320 640,640l0 3840c0,62 -33,115 -88,143 -56,28 -118,22 -168,-15l-832 -624c-116,-87 -269,-87 -384,0l-832 624c-50,37 -112,43 -168,15 -55,-28 -88,-81 -88,-143l0 -3520c0,-176 -144,-360 -320,-346l-320 26 0 -346c0,-176 144,-322 320,-320l2240 26z"/>
	<path id="curve0" fill="#FFFFFF" d="M8320 9600c353,0 640,-287 640,-640 0,-1920 0,-3840 0,-5760 0,-353 -287,-640 -640,-640l0 0c-747,1 -1493,1 -2240,1l0 3493c0,184 -101,348 -265,430 -164,81 -356,64 -503,-46l-832 -624c0,0 0,0 0,0 0,0 0,0 0,0l-832 624c-147,110 -339,127 -503,46 -164,-82 -265,-246 -265,-430l0 -3494 -320 0c-353,0 -640,-287 -640,-640 0,-353 287,-640 640,-640l5440 0c177,0 320,143 320,320l0 640 0 0c237,0 463,86 640,245l0 -1205c0,-362 -287,-645 -640,-640 -1920,0 -3840,0 -5760,0 -707,0 -1280,573 -1280,1280l0 6400c0,707 573,1280 1280,1280l5760 0z"/>
</svg>
