<?xml version="1.0" encoding="UTF-8"?>
<!DOCTYPE svg PUBLIC "-//W3C//DTD SVG 1.1//EN" "http://www.w3.org/Graphics/SVG/1.1/DTD/svg11.dtd">
<svg xmlns="http://www.w3.org/2000/svg" xml:space="preserve" width="1024px" height="1024px" shape-rendering="geometricPrecision" text-rendering="geometricPrecision" image-rendering="optimizeQuality" fill-rule="nonzero" clip-rule="evenodd" viewBox="0 0 10240 10240" xmlns:xlink="http://www.w3.org/1999/xlink">
	<title>bowl icon</title>
	<desc>bowl icon from the IconExperience.com O-Collection. Copyright by INCORS GmbH (www.incors.com).</desc>
	<path id="curve0" fill="#FFFFFF" d="M7360 8000c1280,-640 2240,-1920 2240,-4160 0,-707 -2006,-1280 -4480,-1280 -2474,0 -4480,573 -4480,1280 0,2240 960,3520 2240,4160 640,320 1920,320 2240,320 320,0 1600,0 2240,-320zm-2240 -5120c2121,0 3840,430 3840,960 0,530 -1719,960 -3840,960 -2121,0 -3840,-430 -3840,-960 0,-530 1719,-960 3840,-960z"/>
</svg>
