<?xml version="1.0" encoding="UTF-8"?>
<!DOCTYPE svg PUBLIC "-//W3C//DTD SVG 1.1//EN" "http://www.w3.org/Graphics/SVG/1.1/DTD/svg11.dtd">
<svg xmlns="http://www.w3.org/2000/svg" xml:space="preserve" width="1024px" height="1024px" shape-rendering="geometricPrecision" text-rendering="geometricPrecision" image-rendering="optimizeQuality" fill-rule="nonzero" clip-rule="evenodd" viewBox="0 0 10240 10240" xmlns:xlink="http://www.w3.org/1999/xlink">
	<title>box_open icon</title>
	<desc>box_open icon from the IconExperience.com O-Collection. Copyright by INCORS GmbH (www.incors.com).</desc>
	<path id="curve0" fill="#FFFFFF" d="M8881 3268l855 1710c78,157 15,349 -143,427l-633 312 0 1567c0,249 -132,462 -354,573l-3200 1600c-186,93 -386,93 -572,0l-3200 -1600c-222,-111 -354,-324 -354,-573l0 -2484 -571 286c-96,48 -208,28 -282,-50 -74,-78 -87,-191 -34,-284l695 -1216c131,-229 303,-391 539,-509l2213 -1107 994 -497c186,-93 386,-93 572,0l3200 1600c91,46 228,151 275,245zm-429 568l-2904 1428 570 1140 2904 -1428 -570 -1140zm-6532 40l0 3408 2880 1440 0 -3408 -2880 -1440zm3520 4848l2880 -1440 0 -1252 -2205 1084c-157,77 -347,13 -425,-144l-250 -499 0 2251zm2472 -5332l-2792 -1396 0 2768 2792 -1372z"/>
</svg>
