<?xml version="1.0" encoding="UTF-8"?>
<!DOCTYPE svg PUBLIC "-//W3C//DTD SVG 1.1//EN" "http://www.w3.org/Graphics/SVG/1.1/DTD/svg11.dtd">
<svg xmlns="http://www.w3.org/2000/svg" xml:space="preserve" width="1024px" height="1024px" shape-rendering="geometricPrecision" text-rendering="geometricPrecision" image-rendering="optimizeQuality" fill-rule="nonzero" clip-rule="evenodd" viewBox="0 0 10240 10240" xmlns:xlink="http://www.w3.org/1999/xlink">
	<title>boxing_glove icon</title>
	<desc>boxing_glove icon from the IconExperience.com O-Collection. Copyright by INCORS GmbH (www.incors.com).</desc>
	<path id="curve0" fill="#FFFFFF" d="M640 4480c0,-1920 1600,-3840 3520,-3840 640,0 1280,320 1600,960l1 0c54,109 93,279 134,460 77,334 161,702 392,933 62,63 164,63 226,0 63,-62 63,-164 0,-226 -167,-167 -240,-487 -306,-778 -30,-130 -58,-254 -95,-366 1723,240 1615,2271 1864,3300 -273,536 -767,1162 -1329,1724 -548,548 -1157,1032 -1684,1308 -1196,-390 -4323,-1364 -4323,-3475zm7540 736c529,304 1018,820 1326,1571 71,173 66,350 -15,519 -395,826 -1358,1789 -2184,2185 -170,81 -348,86 -523,13 -743,-310 -1243,-809 -1546,-1337 529,-302 1112,-770 1635,-1294 531,-531 1006,-1123 1307,-1657z"/>
</svg>
