<?xml version="1.0" encoding="UTF-8"?>
<!DOCTYPE svg PUBLIC "-//W3C//DTD SVG 1.1//EN" "http://www.w3.org/Graphics/SVG/1.1/DTD/svg11.dtd">
<svg xmlns="http://www.w3.org/2000/svg" xml:space="preserve" width="1024px" height="1024px" shape-rendering="geometricPrecision" text-rendering="geometricPrecision" image-rendering="optimizeQuality" fill-rule="nonzero" clip-rule="evenodd" viewBox="0 0 10240 10240" xmlns:xlink="http://www.w3.org/1999/xlink">
	<title>boy icon</title>
	<desc>boy icon from the IconExperience.com O-Collection. Copyright by INCORS GmbH (www.incors.com).</desc>
	<path id="curve1" fill="#FFFFFF" d="M7680 8645c0,685 -1536,955 -2560,955 -1024,0 -2560,-270 -2560,-954 0,-983 378,-1858 967,-2426 456,302 1004,479 1593,479 589,0 1137,-177 1593,-479 589,568 967,1443 967,2425z"/>
	<path id="curve0" fill="#FFFFFF" d="M6391 1617c770,442 1289,1272 1289,2223 0,1414 -1146,2560 -2560,2560 -1414,0 -2560,-1146 -2560,-2560 0,-755 327,-1434 847,-1903 628,-517 1802,-431 1919,351 125,842 -730,871 -640,161 -843,1386 2431,1768 1721,-822l-16 -10z"/>
</svg>
