<?xml version="1.0" encoding="UTF-8"?>
<!DOCTYPE svg PUBLIC "-//W3C//DTD SVG 1.1//EN" "http://www.w3.org/Graphics/SVG/1.1/DTD/svg11.dtd">
<svg xmlns="http://www.w3.org/2000/svg" xml:space="preserve" width="1024px" height="1024px" shape-rendering="geometricPrecision" text-rendering="geometricPrecision" image-rendering="optimizeQuality" fill-rule="nonzero" clip-rule="evenodd" viewBox="0 0 10240 10240" xmlns:xlink="http://www.w3.org/1999/xlink">
	<title>breakfast_egg icon</title>
	<desc>breakfast_egg icon from the IconExperience.com O-Collection. Copyright by INCORS GmbH (www.incors.com).</desc>
	<path id="curve2" fill="#FFFFFF" d="M7680 640c707,0 1280,860 1280,1920 0,751 -287,1400 -705,1716 -166,125 -255,304 -255,511l0 822c0,104 21,193 68,286l184 370c47,93 68,182 68,286l0 2729c0,176 -144,320 -320,320l-640 0c-176,0 -320,-144 -320,-320l0 -2729c0,-104 21,-193 68,-286l184 -370c47,-93 68,-182 68,-286l0 -822c0,-207 -89,-386 -254,-511 -419,-316 -706,-965 -706,-1716 0,-1060 573,-1920 1280,-1920z"/>
	<path id="curve1" fill="#FFFFFF" d="M1920 9600c-177,0 -320,-143 -320,-320 0,-177 143,-320 320,-320l1280 0 0 -1626c-991,-159 -1775,-1046 -1917,-2169 -22,-175 90,-365 280,-365l3914 0c190,0 302,190 280,365 -142,1123 -926,2010 -1917,2169l0 1626 1280 0c177,0 320,143 320,320 0,177 -143,320 -320,320l-3200 0z"/>
	<path id="curve0" fill="#FFFFFF" d="M3520 640c1237,0 2240,1433 2240,3200 0,219 -15,433 -45,640l-645 0c33,-205 50,-419 50,-640 0,-1414 -716,-2560 -1600,-2560 -884,0 -1600,1146 -1600,2560 0,221 18,435 50,640l-645 0c-30,-207 -45,-421 -45,-640 0,-1767 1003,-3200 2240,-3200z"/>
</svg>
