<?xml version="1.0" encoding="UTF-8"?>
<!DOCTYPE svg PUBLIC "-//W3C//DTD SVG 1.1//EN" "http://www.w3.org/Graphics/SVG/1.1/DTD/svg11.dtd">
<svg xmlns="http://www.w3.org/2000/svg" xml:space="preserve" width="1024px" height="1024px" shape-rendering="geometricPrecision" text-rendering="geometricPrecision" image-rendering="optimizeQuality" fill-rule="nonzero" clip-rule="evenodd" viewBox="0 0 10240 10240" xmlns:xlink="http://www.w3.org/1999/xlink">
	<title>bridge icon</title>
	<desc>bridge icon from the IconExperience.com O-Collection. Copyright by INCORS GmbH (www.incors.com).</desc>
	<path id="curve1" fill="#FFFFFF" d="M1760 7680c218,394 639,660 1120,660 481,0 897,-264 1117,-654 218,394 640,654 1123,654 483,0 903,-262 1120,-659 219,393 638,659 1120,659 482,0 902,-266 1120,-660 218,394 638,660 1120,660l0 640c-410,0 -799,-130 -1120,-360 -321,230 -710,360 -1120,360 -408,0 -797,-129 -1117,-358 -321,233 -711,358 -1123,358 -411,0 -805,-124 -1126,-356 -320,228 -707,356 -1114,356 -410,0 -799,-130 -1120,-360 -321,230 -710,360 -1120,360l0 -640c482,0 902,-266 1120,-660z"/>
	<path id="curve0" fill="#FFFFFF" d="M7360 1280l640 0 0 640c0,637 190,1209 497,1619 288,384 678,621 1103,621l0 640c-223,0 -438,-41 -640,-118l0 1718 640 0 0 640 -1600 0 0 736c-173,155 -400,244 -640,244l0 -980 -4480 0 0 980c-240,0 -467,-90 -640,-245l0 -735 -1600 0 0 -640 640 0 0 -1718c-202,77 -417,118 -640,118l0 -640c425,0 815,-237 1103,-621 307,-410 497,-982 497,-1619l0 -640 640 0 0 640c0,1179 1148,1920 2240,1920 1092,0 2239,-740 2240,-1918l0 -642zm-2560 3184l0 1936 640 0 0 -1936c-212,21 -428,21 -640,0zm-320 1936l0 -1984c-224,-45 -439,-114 -640,-203l0 2187 640 0zm1280 -1984l0 1984 640 0 0 -2187c-201,89 -416,158 -640,203zm-4160 1984l640 0 0 -2462c-184,241 -400,441 -640,587l0 1875zm7040 -1875c-240,-146 -456,-346 -640,-587l0 2462 640 0 0 -1875zm-1920 -477l0 2352 640 0 0 -2871c-186,204 -403,378 -640,519zm-3200 2352l0 -2352c-237,-141 -454,-315 -640,-519l0 2871 640 0z"/>
</svg>
