<?xml version="1.0" encoding="UTF-8"?>
<!DOCTYPE svg PUBLIC "-//W3C//DTD SVG 1.1//EN" "http://www.w3.org/Graphics/SVG/1.1/DTD/svg11.dtd">
<svg xmlns="http://www.w3.org/2000/svg" xml:space="preserve" width="1024px" height="1024px" shape-rendering="geometricPrecision" text-rendering="geometricPrecision" image-rendering="optimizeQuality" fill-rule="nonzero" clip-rule="evenodd" viewBox="0 0 10240 10240" xmlns:xlink="http://www.w3.org/1999/xlink">
	<title>briefcase2_document icon</title>
	<desc>briefcase2_document icon from the IconExperience.com O-Collection. Copyright by INCORS GmbH (www.incors.com).</desc>
	<path id="curve3" fill="#FFFFFF" d="M4480 3200l2670 0c352,0 656,126 905,375l1170 1170c249,249 375,553 375,905l0 3950 -5120 0 0 -6400zm640 640l0 5120 3840 0 0 -2880c0,-176 -144,-320 -320,-320l-1600 0 0 -1600c0,-176 -144,-320 -320,-320l-1600 0zm2560 320l0 960 960 0 -960 -960z"/>
	<path id="curve2" fill="#FFFFFF" d="M3840,5760 4160,5760 4160,6720 3840,6720z"/>
	<path id="curve1" fill="#FFFFFF" d="M1280 1920l1920 0 0 2880 -1920 0c-352,0 -639,-287 -640,-639l0 -1601c0,-353 288,-640 640,-640zm4480 0l1920 0c352,0 640,287 640,639l0 828 -39 -38c-309,-310 -694,-469 -1131,-469l-1390 0 0 -960zm-1600 5760l-2880 0c-352,0 -640,-287 -640,-640l0 -2165c170,152 394,245 640,245l1920 0c0,241 133,450 330,560 -6,25 -10,52 -10,80l0 960c0,176 144,320 320,320l320 0 0 640zm-640 -5760l1920 0 0 960 -960 0c-176,0 -320,144 -320,320l0 2240 -320 0c-176,0 -320,-144 -320,-320l0 -3200z"/>
	<path id="curve0" fill="#FFFFFF" d="M3200 640l2560 0c353,0 640,288 640,640l0 320 -640 0 0 -320 -2560 0 0 320 -640 0 0 -320c0,-353 288,-640 640,-640z"/>
</svg>
