<?xml version="1.0" encoding="UTF-8"?>
<!DOCTYPE svg PUBLIC "-//W3C//DTD SVG 1.1//EN" "http://www.w3.org/Graphics/SVG/1.1/DTD/svg11.dtd">
<svg xmlns="http://www.w3.org/2000/svg" xml:space="preserve" width="1024px" height="1024px" shape-rendering="geometricPrecision" text-rendering="geometricPrecision" image-rendering="optimizeQuality" fill-rule="nonzero" clip-rule="evenodd" viewBox="0 0 10240 10240" xmlns:xlink="http://www.w3.org/1999/xlink">
	<title>building_brick icon</title>
	<desc>building_brick icon from the IconExperience.com O-Collection. Copyright by INCORS GmbH (www.incors.com).</desc>
	<path id="curve0" fill="#FFFFFF" d="M1600 4480c0,-268 790,-320 960,-320 530,0 960,143 960,320 0,177 -430,320 -960,320 -170,0 -960,-52 -960,-320zm960 -960c0,-177 430,-320 960,-320 530,0 960,143 960,320 0,177 -430,320 -960,320 -170,0 -960,-52 -960,-320zm960 -960l0 0c0,-177 430,-320 960,-320 530,0 960,143 960,320 0,177 -430,320 -960,320 -530,0 -960,-143 -960,-320zm960 -960l0 0c0,-177 430,-320 960,-320 530,0 960,143 960,320l0 0c0,177 -430,320 -960,320 -530,0 -960,-143 -960,-320zm2240 0l0 0c0,-177 430,-320 960,-320 530,0 960,143 960,320l0 0c0,177 -430,320 -960,320 -530,0 -960,-143 -960,-320l0 0zm2494 640l66 0c176,0 320,144 320,320l0 2295c0,176 -63,328 -187,452l-3466 3466c-124,124 -276,187 -452,187l-4535 0c-176,0 -320,-144 -320,-320l0 -2295c0,-176 63,-328 187,-452l86 -86c-47,47 -60,113 -35,174 26,61 82,99 148,99l387 0 4082 0c176,0 328,-63 452,-187l3380 -3380c110,-110 43,-273 -113,-273zm-5374 2240c1,-177 430,-320 960,-320 530,0 960,143 960,320 0,177 -430,320 -960,320 -530,0 -959,-143 -960,-320zm1920 -1280c530,0 960,143 960,320 0,177 -430,320 -960,320 -530,0 -960,-143 -960,-320 0,-177 430,-320 960,-320zm960 -960c530,0 960,143 960,320 0,177 -430,320 -960,320 -530,0 -960,-143 -960,-320 0,-177 430,-320 960,-320zm1920 -217l0 537c0,139 -267,258 -640,302l0 -302c0,-118 -64,-229 -176,-324 324,-18 611,-97 816,-213zm-960 960l0 537c0,139 -267,258 -640,302l0 -302c0,-118 -64,-229 -176,-324 324,-18 611,-97 816,-213zm-960 960l0 537c0,139 -267,258 -640,302l0 -302c0,-118 -64,-229 -176,-324 324,-18 611,-97 816,-213zm-960 960l0 537c0,177 -430,320 -960,320 -530,0 -960,-143 -960,-320l0 -537c235,133 578,217 960,217 382,0 725,-84 960,-217zm-2240 0l0 537c0,177 -430,320 -960,320 -530,0 -960,-143 -960,-320l0 -537c235,133 578,217 960,217 382,0 725,-84 960,-217z"/>
</svg>
