<?xml version="1.0" encoding="UTF-8"?>
<!DOCTYPE svg PUBLIC "-//W3C//DTD SVG 1.1//EN" "http://www.w3.org/Graphics/SVG/1.1/DTD/svg11.dtd">
<svg xmlns="http://www.w3.org/2000/svg" xml:space="preserve" width="1024px" height="1024px" shape-rendering="geometricPrecision" text-rendering="geometricPrecision" image-rendering="optimizeQuality" fill-rule="nonzero" clip-rule="evenodd" viewBox="0 0 10240 10240" xmlns:xlink="http://www.w3.org/1999/xlink">
	<title>businesspeople icon</title>
	<desc>businesspeople icon from the IconExperience.com O-Collection. Copyright by INCORS GmbH (www.incors.com).</desc>
	<path id="curve6" fill="#FFFFFF" d="M9600 7440c0,631 -1523,880 -2538,880 -111,0 -227,-3 -347,-9 -23,-556 -129,-1099 -484,-1552 -136,-173 -303,-326 -481,-469l461 0c212,0 392,122 471,319l380 950 380 -950c79,-197 259,-319 471,-319l672 0 -418 -558c474,352 1433,494 1433,1708zm-4183 -1402c198,-107 393,-196 540,-306l-340 454c-66,-50 -133,-99 -200,-148z"/>
	<path id="curve5" fill="#FFFFFF" d="M7868 5594c-186,423 -478,696 -806,696 -329,0 -621,-274 -807,-699 241,163 516,257 807,257 289,0 567,-93 806,-254z"/>
	<path id="curve4" fill="#FFFFFF" d="M7062 5528c695,0 1281,-698 1464,-1651 -312,13 -647,-64 -913,-157 -443,-156 -884,-491 -1189,-882 -108,134 -236,256 -375,350 62,222 95,456 95,698 0,333 -63,652 -178,944 277,431 666,698 1096,698z"/>
	<path id="curve3" fill="#FFFFFF" d="M5163 1854c154,-184 360,-330 630,-415 508,-479 761,-479 1269,-479 1262,0 2284,966 2284,2157 0,643 -297,1219 -769,1614 125,-257 213,-532 263,-794l76 -398 -404 18c-261,11 -550,-54 -794,-139 -397,-140 -783,-446 -1042,-777l-249 -319 -253 315c-67,84 -147,166 -236,236 -170,-401 -439,-750 -775,-1019z"/>
	<path id="curve2" fill="#FFFFFF" d="M6400 8591c0,630 -1313,928 -2413,995l332 -333c77,-76 108,-176 89,-283l-12 -63c17,-2 33,-4 49,-6 254,-32 1091,-177 1315,-379 -10,-1007 -235,-1217 -879,-1686 -213,98 -435,172 -664,221 129,-159 196,-349 196,-558l0 -70c0,-31 -4,-60 -12,-88 188,-67 366,-154 532,-259 955,704 1467,953 1467,2509zm-3347 995c-1100,-67 -2413,-364 -2413,-994 0,-1555 514,-1807 1467,-2510 166,105 344,192 532,259 -8,28 -12,57 -12,88l0 70c0,209 67,399 196,558 -229,-49 -451,-123 -664,-221 -644,469 -869,681 -879,1686 224,202 1062,347 1315,379 16,2 32,4 49,6l-12 63c-19,107 12,207 89,283l332 333z"/>
	<path id="curve1" fill="#FFFFFF" d="M2947 9027l353 -1939 -185 -184c-112,-112 -168,-248 -168,-405l0 -70c185,41 376,62 573,62 197,0 388,-21 573,-62l0 70c0,157 -56,293 -168,405l-185 184 353 1939 -573 573 -573 -573z"/>
	<path id="curve0" fill="#FFFFFF" d="M3520 1600c1272,0 2304,1023 2304,2286 0,1262 -1032,2285 -2304,2285 -1272,0 -2304,-1023 -2304,-2285 0,-1263 1032,-2286 2304,-2286z"/>
</svg>
