<?xml version="1.0" encoding="UTF-8"?>
<!DOCTYPE svg PUBLIC "-//W3C//DTD SVG 1.1//EN" "http://www.w3.org/Graphics/SVG/1.1/DTD/svg11.dtd">
<svg xmlns="http://www.w3.org/2000/svg" xml:space="preserve" width="1024px" height="1024px" shape-rendering="geometricPrecision" text-rendering="geometricPrecision" image-rendering="optimizeQuality" fill-rule="nonzero" clip-rule="evenodd" viewBox="0 0 10240 10240" xmlns:xlink="http://www.w3.org/1999/xlink">
	<title>cake_slice icon</title>
	<desc>cake_slice icon from the IconExperience.com O-Collection. Copyright by INCORS GmbH (www.incors.com).</desc>
	<path id="curve1" fill="#FFFFFF" d="M8960 4429c0,-525 -474,-1013 -1287,-1419 -65,646 -610,1150 -1273,1150 -582,0 -1073,-388 -1228,-919l-3446 1097c-270,86 -446,327 -446,610l0 3372c0,353 287,640 640,640l6400 0c353,0 640,-287 640,-640l0 -3891zm-640 691l0 640 -6400 0 0 -640 6400 0zm-6400 2560l6400 0 0 640 -6400 0 0 -640z"/>
	<path id="curve0" fill="#FFFFFF" d="M6400 1920c530,0 960,430 960,960 0,530 -430,960 -960,960 -530,0 -960,-430 -960,-960 0,-530 430,-960 960,-960zm-332 337c-172,0 -311,139 -311,311 0,173 139,312 311,312 173,0 312,-139 312,-312 0,-172 -139,-311 -312,-311z"/>
</svg>
