<?xml version="1.0" encoding="UTF-8"?>
<!DOCTYPE svg PUBLIC "-//W3C//DTD SVG 1.1//EN" "http://www.w3.org/Graphics/SVG/1.1/DTD/svg11.dtd">
<svg xmlns="http://www.w3.org/2000/svg" xml:space="preserve" width="1024px" height="1024px" shape-rendering="geometricPrecision" text-rendering="geometricPrecision" image-rendering="optimizeQuality" fill-rule="nonzero" clip-rule="evenodd" viewBox="0 0 10240 10240" xmlns:xlink="http://www.w3.org/1999/xlink">
	<title>caliper icon</title>
	<desc>caliper icon from the IconExperience.com O-Collection. Copyright by INCORS GmbH (www.incors.com).</desc>
	<path id="curve1" fill="#FFFFFF" d="M8653 6604l-991 198c-93,19 -179,-1 -255,-58l-1695 -1272 -453 453c-226,226 0,453 -226,679 -125,124 -328,124 -453,0l-226 -226 2036 -2037 2263 2263zm-5431 -1358c-124,-124 -124,-328 0,-452l453 -453 -226 -226 452 -453 227 226 452 -452 226 226 -1584 1584z"/>
	<path id="curve0" fill="#FFFFFF" d="M5485 2983l-452 452 226 227 -2037 2037 -225 -227 -2264 2263c-124,125 -124,328 0,453l679 679c125,124 328,124 453,0l2263 -2263 -227 -226 2489 -2490 227 227 452 -453 2263 2263 202 -1010c16,-81 3,-157 -39,-227l-1274 -2123c-14,-24 -29,-43 -48,-62l-1104 -1104c-124,-124 -328,-124 -452,0l-1358 1358 226 226z"/>
</svg>
