<?xml version="1.0" encoding="UTF-8"?>
<!DOCTYPE svg PUBLIC "-//W3C//DTD SVG 1.1//EN" "http://www.w3.org/Graphics/SVG/1.1/DTD/svg11.dtd">
<svg xmlns="http://www.w3.org/2000/svg" xml:space="preserve" width="1024px" height="1024px" shape-rendering="geometricPrecision" text-rendering="geometricPrecision" image-rendering="optimizeQuality" fill-rule="nonzero" clip-rule="evenodd" viewBox="0 0 10240 10240" xmlns:xlink="http://www.w3.org/1999/xlink">
	<title>can_open icon</title>
	<desc>can_open icon from the IconExperience.com O-Collection. Copyright by INCORS GmbH (www.incors.com).</desc>
	<path id="curve0" fill="#FFFFFF" d="M7040 2021c612,281 1355,1128 1912,2256 782,1585 900,3125 263,3439 -637,314 -1851,-846 -2569,-2301 -718,-1455 -843,-2619 -515,-3190 59,-104 144,-196 252,-249l7 -3 1 -1 0 -1 0 0 0 -1 0 0c5,-17 9,-32 9,-50l0 0c0,-353 -1003,-640 -2240,-640 -109,0 -215,2 -320,7l0 1266c105,5 211,7 320,7 698,0 1322,-91 1733,-235 -401,649 -238,1999 466,3356 204,394 436,753 681,1066l0 933c0,530 -1289,960 -2880,960 -1591,0 -2880,-430 -2880,-960l0 -5760c0,-530 1289,-960 2880,-960 1591,0 2880,430 2880,960l0 101zm-4800 1179c-176,0 -320,144 -320,320l0 3840c0,176 144,320 320,320 176,0 320,-144 320,-320l0 -3840c0,-176 -144,-320 -320,-320zm6138 1360c-469,-950 -1109,-1593 -1429,-1436 -319,158 -198,1057 271,2008 469,951 1109,1594 1428,1436 320,-158 199,-1057 -270,-2008zm287 -141c-626,-1268 -1521,-2105 -1999,-1869 -478,236 -358,1455 267,2723 626,1268 1520,2105 1999,1869 478,-236 358,-1455 -267,-2723zm-1625 3581c0,530 -1289,960 -2880,960 -1591,0 -2880,-430 -2880,-960l0 -9c-205,148 -320,314 -320,489 0,619 1433,1120 3200,1120 1767,0 3200,-501 3200,-1120 0,-175 -115,-341 -320,-489l0 9z"/>
</svg>
