<?xml version="1.0" encoding="UTF-8"?>
<!DOCTYPE svg PUBLIC "-//W3C//DTD SVG 1.1//EN" "http://www.w3.org/Graphics/SVG/1.1/DTD/svg11.dtd">
<svg xmlns="http://www.w3.org/2000/svg" xml:space="preserve" width="1024px" height="1024px" shape-rendering="geometricPrecision" text-rendering="geometricPrecision" image-rendering="optimizeQuality" fill-rule="nonzero" clip-rule="evenodd" viewBox="0 0 10240 10240" xmlns:xlink="http://www.w3.org/1999/xlink">
	<title>car_sedan2 icon</title>
	<desc>car_sedan2 icon from the IconExperience.com O-Collection. Copyright by INCORS GmbH (www.incors.com).</desc>
	<path id="curve1" fill="#FFFFFF" d="M8000 6720c-530,0 -960,430 -960,960 0,530 430,960 960,960 530,0 960,-430 960,-960 0,-530 -430,-960 -960,-960zm-5440 0c530,0 960,430 960,960 0,530 -430,960 -960,960 -530,0 -960,-430 -960,-960 0,-530 430,-960 960,-960zm0 640c-177,0 -320,143 -320,320 0,177 143,320 320,320 177,0 320,-143 320,-320 0,-177 -143,-320 -320,-320zm5440 0c177,0 320,143 320,320 0,177 -143,320 -320,320 -177,0 -320,-143 -320,-320 0,-177 143,-320 320,-320z"/>
	<path id="curve0" fill="#FFFFFF" d="M7360 5440c1450,130 2560,640 2560,1280 0,247 0,640 0,960 0,260 -353,309 -680,318 26,-101 40,-208 40,-318 0,-707 -573,-1280 -1280,-1280 -707,0 -1280,573 -1280,1280 0,110 14,218 40,320l-2920 0 -40 0c26,-102 40,-210 40,-320 0,-707 -573,-1280 -1280,-1280 -707,0 -1280,573 -1280,1280 0,66 5,131 15,194 -510,-122 -975,-362 -975,-834 0,-1600 150,-1448 960,-1600 640,-320 1280,-1280 2560,-1280 1920,0 2240,0 3520,1280zm-1079 -308c-212,-230 -416,-425 -737,-526 -211,-68 -456,-95 -678,-109 -83,-5 -167,-9 -252,-11 -110,-4 -190,101 -158,206l191 634c20,69 81,114 153,114l1114 0c335,0 578,-80 367,-308zm-2616 -641c-452,42 -923,336 -1086,532 -115,139 -15,417 320,417l781 0c88,0 160,-72 160,-160l0 -630c0,-95 -80,-168 -175,-159z"/>
</svg>
