<?xml version="1.0" encoding="UTF-8"?>
<!DOCTYPE svg PUBLIC "-//W3C//DTD SVG 1.1//EN" "http://www.w3.org/Graphics/SVG/1.1/DTD/svg11.dtd">
<svg xmlns="http://www.w3.org/2000/svg" xml:space="preserve" width="1024px" height="1024px" shape-rendering="geometricPrecision" text-rendering="geometricPrecision" image-rendering="optimizeQuality" fill-rule="nonzero" clip-rule="evenodd" viewBox="0 0 10240 10240" xmlns:xlink="http://www.w3.org/1999/xlink">
	<title>cargo_container icon</title>
	<desc>cargo_container icon from the IconExperience.com O-Collection. Copyright by INCORS GmbH (www.incors.com).</desc>
	<path id="curve0" fill="#FFFFFF" d="M827 4293l3786 -3146c135,-112 276,-187 452,-187l4215 0c176,0 320,144 320,320l0 3895c0,176 -75,317 -187,452l-3146 3786c-112,135 -276,187 -452,187l-4855 0c-176,0 -320,-144 -320,-320l0 -4535c0,-176 52,-340 187,-452zm4933 827l-960 0 0 1600 320 0 0 320 -320 0 0 1920 960 0 0 -3840zm-1280 3840l0 -1920 -320 0 0 -320 320 0 0 -1600 -640 0 0 3840 640 0zm-1280 0l0 -3840 -640 0 0 1600 320 0 0 320 -320 0 0 1920 640 0zm-960 0l0 -1920 -320 0 0 -320 320 0 0 -1600 -960 0 0 3840 960 0zm-581 -4480l4101 0 2880 -2880 -3575 0 -3406 2880z"/>
</svg>
