<?xml version="1.0" encoding="UTF-8"?>
<!DOCTYPE svg PUBLIC "-//W3C//DTD SVG 1.1//EN" "http://www.w3.org/Graphics/SVG/1.1/DTD/svg11.dtd">
<svg xmlns="http://www.w3.org/2000/svg" xml:space="preserve" width="1024px" height="1024px" shape-rendering="geometricPrecision" text-rendering="geometricPrecision" image-rendering="optimizeQuality" fill-rule="nonzero" clip-rule="evenodd" viewBox="0 0 10240 10240" xmlns:xlink="http://www.w3.org/1999/xlink">
	<title>chart_column_stacked icon</title>
	<desc>chart_column_stacked icon from the IconExperience.com O-Collection. Copyright by INCORS GmbH (www.incors.com).</desc>
	<path id="curve2" fill="#FFFFFF" d="M8000 1280l1280 0 0 3200 -1280 0 0 -3200zm-6400 0l1280 0 0 1920 -1280 0 0 -1920zm1600 0l1280 0 0 4160 -1280 0 0 -4160zm1600 0l1280 0 0 5440 -1280 0 0 -5440zm1600 0l1280 0 0 2240 -1280 0 0 -2240z"/>
	<path id="curve1" fill="#FFFFFF" d="M8000 4800l1280 0 0 3840 -1280 0 0 -3840zm-1600 -960l1280 0 0 4800 -1280 0 0 -4800zm-3200 1920l1280 0 0 2880 -1280 0 0 -2880zm1600 1280l1280 0 0 1600 -1280 0 0 -1600zm-3200 -3520l1280 0 0 5120 -1280 0 0 -5120z"/>
	<path id="curve0" fill="#FFFFFF" d="M640,1280 1280,1280 1280,8960 9600,8960 9600,9600 640,9600z"/>
</svg>
