<?xml version="1.0" encoding="UTF-8"?>
<!DOCTYPE svg PUBLIC "-//W3C//DTD SVG 1.1//EN" "http://www.w3.org/Graphics/SVG/1.1/DTD/svg11.dtd">
<svg xmlns="http://www.w3.org/2000/svg" xml:space="preserve" width="1024px" height="1024px" shape-rendering="geometricPrecision" text-rendering="geometricPrecision" image-rendering="optimizeQuality" fill-rule="nonzero" clip-rule="evenodd" viewBox="0 0 10240 10240" xmlns:xlink="http://www.w3.org/1999/xlink">
	<title>chart_line icon</title>
	<desc>chart_line icon from the IconExperience.com O-Collection. Copyright by INCORS GmbH (www.incors.com).</desc>
	<path id="curve2" fill="#FFFFFF" d="M1600,7164 2560,6684 3776,7292 5056,6012 6336,6652 7616,5372 8960,6044 8960,6756 7744,6148 6464,7428 5184,6788 3904,8068 2560,7396 1600,7876z"/>
	<path id="curve1" fill="#FFFFFF" d="M1600,5047 2473,3301 3840,4667 5056,3452 6258,4052 7537,1492 8960,2204 8960,2916 7823,2347 6543,4908 5184,4228 3840,5573 2647,4379 1600,6472z"/>
	<path id="curve0" fill="#FFFFFF" d="M1280,8960 9600,8960 9600,9600 640,9600 640,1280 1280,1280z"/>
</svg>
