<?xml version="1.0" encoding="UTF-8"?>
<!DOCTYPE svg PUBLIC "-//W3C//DTD SVG 1.1//EN" "http://www.w3.org/Graphics/SVG/1.1/DTD/svg11.dtd">
<svg xmlns="http://www.w3.org/2000/svg" xml:space="preserve" width="1024px" height="1024px" shape-rendering="geometricPrecision" text-rendering="geometricPrecision" image-rendering="optimizeQuality" fill-rule="nonzero" clip-rule="evenodd" viewBox="0 0 10240 10240" xmlns:xlink="http://www.w3.org/1999/xlink">
	<title>chess_piece_rook icon</title>
	<desc>chess_piece_rook icon from the IconExperience.com O-Collection. Copyright by INCORS GmbH (www.incors.com).</desc>
	<path id="curve2" fill="#FFFFFF" d="M3520 2240l320 0 0 640 640 0 0 -640 1280 0 0 640 640 0 0 -640 320 0c176,0 320,144 320,320l0 1280c0,352 -287,640 -640,640 -1280,0 -1280,0 -2560,0 -353,0 -640,-287 -640,-640l0 -1280c0,-176 144,-320 320,-320z"/>
	<path id="curve1" fill="#FFFFFF" d="M2880 8320l4480 0c176,0 320,144 320,320l0 640c0,176 -144,320 -320,320l-4480 0c-176,0 -320,-144 -320,-320l0 -640c0,-176 144,-320 320,-320z"/>
	<path id="curve0" fill="#FFFFFF" d="M3840 4800l2560 0c0,1225 0,2156 561,2795 53,61 79,130 79,211l0 194 -3840 0 0 -194c0,-81 26,-150 80,-211 560,-639 560,-1570 560,-2795z"/>
</svg>
