<?xml version="1.0" encoding="UTF-8"?>
<!DOCTYPE svg PUBLIC "-//W3C//DTD SVG 1.1//EN" "http://www.w3.org/Graphics/SVG/1.1/DTD/svg11.dtd">
<svg xmlns="http://www.w3.org/2000/svg" xml:space="preserve" width="1024px" height="1024px" shape-rendering="geometricPrecision" text-rendering="geometricPrecision" image-rendering="optimizeQuality" fill-rule="nonzero" clip-rule="evenodd" viewBox="0 0 10240 10240" xmlns:xlink="http://www.w3.org/1999/xlink">
	<title>chess_piece_queen icon</title>
	<desc>chess_piece_queen icon from the IconExperience.com O-Collection. Copyright by INCORS GmbH (www.incors.com).</desc>
	<path id="curve2" fill="#FFFFFF" d="M2880 8320l4480 0c176,0 320,144 320,320l0 640c0,176 -144,320 -320,320l-4480 0c-176,0 -320,-144 -320,-320l0 -640c0,-176 144,-320 320,-320z"/>
	<path id="curve1" fill="#FFFFFF" d="M4160 4160l1920 0c0,1225 320,2796 881,3435 53,61 79,130 79,211l0 194 -3840 0 0 -194c0,-81 26,-150 79,-211 561,-639 881,-2210 881,-3435z"/>
	<path id="curve0" fill="#FFFFFF" d="M5102 942c353,0 640,286 640,640 0,244 -136,455 -336,563 101,29 223,46 354,46 325,0 593,-104 635,-238 245,32 325,99 325,238 0,263 -155,667 -351,1009l351 0 0 640 -960 0 -14 0 -15 0 -16 0 -16 0 -16 0 -17 0 -18 0 -18 0 -19 0 -19 0 -19 0 -20 0 -20 0 -20 0 -21 0 -21 0 -22 0 -21 0 -22 0 -23 0 -22 0 -23 0 -22 0 -23 0 -23 0 -24 0 -23 0 -23 0 -24 0 -23 0 -23 0 -24 0 -23 0 -24 0 -23 0 -23 0 -23 0 -23 0 -23 0 -23 0 -22 0 -22 0 -22 0 -22 0 -22 0 -21 0 -21 0 -20 0 -21 0 -20 0 -19 0 -19 0 -19 0 -18 0 -18 0 -17 0 -17 0 -16 0 -16 0 -15 0 -14 0 -14 0 -13 0 -13 0 -960 0 0 -640 404 0c-220,-398 -404,-861 -404,-1009 0,-138 81,-206 325,-240 39,135 308,240 635,240 121,0 234,-14 331,-39 -207,-106 -349,-322 -349,-570 0,-354 286,-640 640,-640z"/>
</svg>
