<?xml version="1.0" encoding="UTF-8"?>
<!DOCTYPE svg PUBLIC "-//W3C//DTD SVG 1.1//EN" "http://www.w3.org/Graphics/SVG/1.1/DTD/svg11.dtd">
<svg xmlns="http://www.w3.org/2000/svg" xml:space="preserve" width="1024px" height="1024px" shape-rendering="geometricPrecision" text-rendering="geometricPrecision" image-rendering="optimizeQuality" fill-rule="nonzero" clip-rule="evenodd" viewBox="0 0 10240 10240" xmlns:xlink="http://www.w3.org/1999/xlink">
	<title>chess_piece_knight icon</title>
	<desc>chess_piece_knight icon from the IconExperience.com O-Collection. Copyright by INCORS GmbH (www.incors.com).</desc>
	<path id="curve1" fill="#FFFFFF" d="M2880 8320l4480 0c176,0 320,144 320,320l0 640c0,176 -144,320 -320,320l-4480 0c-176,0 -320,-144 -320,-320l0 -640c0,-176 144,-320 320,-320z"/>
	<path id="curve0" fill="#FFFFFF" d="M4480 4800l-803 1365c-83,140 -265,181 -410,109l-830 -415c-121,-61 -189,-184 -175,-318l280 -2797c12,-126 -8,-237 -65,-350l-237 -474 1920 0c1920,0 2880,960 2880,2560 0,1225 -640,1920 -79,3115 34,73 79,130 79,211l0 194 -3840 0 0 -194c0,-81 11,-168 79,-211 881,-555 1521,-1835 1201,-2795z"/>
</svg>
