<?xml version="1.0" encoding="UTF-8"?>
<!DOCTYPE svg PUBLIC "-//W3C//DTD SVG 1.1//EN" "http://www.w3.org/Graphics/SVG/1.1/DTD/svg11.dtd">
<svg xmlns="http://www.w3.org/2000/svg" xml:space="preserve" width="1024px" height="1024px" shape-rendering="geometricPrecision" text-rendering="geometricPrecision" image-rendering="optimizeQuality" fill-rule="nonzero" clip-rule="evenodd" viewBox="0 0 10240 10240" xmlns:xlink="http://www.w3.org/1999/xlink">
	<title>clipboard_empty icon</title>
	<desc>clipboard_empty icon from the IconExperience.com O-Collection. Copyright by INCORS GmbH (www.incors.com).</desc>
	<path id="curve1" fill="#FFFFFF" d="M2560 1920l0 0 0 320c0,242 69,471 243,646 265,269 678,314 1037,314l2560 0c359,0 772,-45 1037,-314 174,-175 243,-404 243,-646l0 -320 0 0c353,0 640,288 640,640l0 6400c0,352 -288,640 -640,640l-5120 0c-352,0 -640,-287 -640,-640l0 -6400c0,-353 288,-640 640,-640zm1281 0l2558 0c1,0 1,1 1,1l0 319c0,-1 -1,0 -1,0l-2559 0c1,0 0,-1 0,-1l0 -319c0,1 0,0 1,0z"/>
	<path id="curve0" fill="#FFFFFF" d="M3840 1600c-175,0 -320,145 -320,320l0 320c0,175 145,320 320,320l2560 0c175,0 320,-145 320,-320l0 -320c0,-176 -145,-320 -320,-320l-2560 0zm2560 -640c529,0 960,431 960,960l0 320c0,529 -431,640 -960,640l-2560 0c-529,0 -960,-111 -960,-640l0 -320c0,-529 431,-960 960,-960 0,-177 573,-640 1280,-640 707,0 1280,463 1280,640zm-1280 -320c-177,0 -320,143 -320,320 0,177 143,320 320,320 177,0 320,-143 320,-320 0,-177 -143,-320 -320,-320z"/>
</svg>
