<?xml version="1.0" encoding="UTF-8"?>
<!DOCTYPE svg PUBLIC "-//W3C//DTD SVG 1.1//EN" "http://www.w3.org/Graphics/SVG/1.1/DTD/svg11.dtd">
<svg xmlns="http://www.w3.org/2000/svg" xml:space="preserve" width="1024px" height="1024px" shape-rendering="geometricPrecision" text-rendering="geometricPrecision" image-rendering="optimizeQuality" fill-rule="nonzero" clip-rule="evenodd" viewBox="0 0 10240 10240" xmlns:xlink="http://www.w3.org/1999/xlink">
	<title>close icon</title>
	<desc>close icon from the IconExperience.com O-Collection. Copyright by INCORS GmbH (www.incors.com).</desc>
	<path id="curve0" fill="#FFFFFF" d="M1920 1280l6400 0c353,0 640,287 640,640l0 6400c0,353 -287,640 -640,640l-6400 0c-353,0 -640,-287 -640,-640l0 -6400c0,-353 287,-640 640,-640zm485 5198c-125,124 -125,328 0,452l905 905c124,125 328,125 452,0l1358 -1357 1358 1357c124,125 328,125 452,0l905 -905c125,-124 125,-328 0,-452l-1357 -1358 1357 -1358c125,-124 125,-328 0,-452l-905 -905c-124,-125 -328,-125 -452,0l-1358 1357 -1358 -1357c-124,-125 -328,-125 -452,0l-905 905c-125,124 -125,328 0,452l1357 1358 -1357 1358z"/>
</svg>
