<?xml version="1.0" encoding="UTF-8"?>
<!DOCTYPE svg PUBLIC "-//W3C//DTD SVG 1.1//EN" "http://www.w3.org/Graphics/SVG/1.1/DTD/svg11.dtd">
<svg xmlns="http://www.w3.org/2000/svg" xml:space="preserve" width="1024px" height="1024px" shape-rendering="geometricPrecision" text-rendering="geometricPrecision" image-rendering="optimizeQuality" fill-rule="nonzero" clip-rule="evenodd" viewBox="0 0 10240 10240" xmlns:xlink="http://www.w3.org/1999/xlink">
	<title>clown icon</title>
	<desc>clown icon from the IconExperience.com O-Collection. Copyright by INCORS GmbH (www.incors.com).</desc>
	<path id="curve2" fill="#FFFFFF" d="M8320 8470c0,810 -1920,1130 -3200,1130 -1280,0 -3200,-320 -3200,-1129 0,-1760 582,-2029 1663,-2835 445,281 972,444 1537,444 565,0 1092,-163 1537,-444 1082,807 1663,1074 1663,2834z"/>
	<path id="curve1" fill="#FFFFFF" d="M5120 640c654,0 1251,246 1704,649 -67,143 -104,303 -104,471 0,338 152,651 402,860 -54,132 -82,274 -82,420 0,397 206,745 517,944 -331,1030 -1297,1776 -2437,1776 -1140,0 -2106,-746 -2437,-1776 311,-199 517,-547 517,-944 0,-146 -28,-288 -82,-420 250,-209 402,-522 402,-860 0,-168 -37,-328 -104,-471 453,-403 1050,-649 1704,-649zm0 2240c-353,0 -640,287 -640,640 0,353 287,640 640,640 353,0 640,-287 640,-640 0,-353 -287,-640 -640,-640zm-960 -960l0 320 -320 0 0 320 320 0 0 320 320 0 0 -320 320 0 0 -320 -320 0 0 -320 -320 0zm1600 0l0 320 -320 0 0 320 320 0 0 320 320 0 0 -320 320 0 0 -320 -320 0 0 -320 -320 0z"/>
	<path id="curve0" fill="#FFFFFF" d="M2400 960c-387,0 -710,275 -784,640 -5,0 -11,0 -16,0 -353,0 -640,287 -640,640 0,250 144,467 353,572 -21,72 -33,149 -33,228 0,442 358,800 800,800 442,0 800,-358 800,-800 0,-203 -76,-389 -201,-530 304,-113 521,-406 521,-750 0,-442 -358,-800 -800,-800zm5440 0c387,0 710,275 784,640 5,0 11,0 16,0 353,0 640,287 640,640 0,250 -144,467 -353,572 21,72 33,149 33,228 0,442 -358,800 -800,800 -442,0 -800,-358 -800,-800 0,-203 76,-389 201,-530 -304,-113 -521,-406 -521,-750 0,-442 358,-800 800,-800z"/>
</svg>
