<?xml version="1.0" encoding="UTF-8"?>
<!DOCTYPE svg PUBLIC "-//W3C//DTD SVG 1.1//EN" "http://www.w3.org/Graphics/SVG/1.1/DTD/svg11.dtd">
<svg xmlns="http://www.w3.org/2000/svg" xml:space="preserve" width="1024px" height="1024px" shape-rendering="geometricPrecision" text-rendering="geometricPrecision" image-rendering="optimizeQuality" fill-rule="nonzero" clip-rule="evenodd" viewBox="0 0 10240 10240" xmlns:xlink="http://www.w3.org/1999/xlink">
	<title>codes_of_law icon</title>
	<desc>codes_of_law icon from the IconExperience.com O-Collection. Copyright by INCORS GmbH (www.incors.com).</desc>
	<path id="curve0" fill="#FFFFFF" d="M2560 640c-707,0 -1280,573 -1280,1280l0 6400c0,707 573,1280 1280,1280 2027,0 4053,0 6080,0 177,0 320,-143 320,-320l0 -6720c0,-353 -287,-640 -640,-640l-5760 0c-176,0 -320,-144 -320,-320 0,-176 144,-320 320,-320l5440 0c176,0 320,144 320,320 246,0 470,92 640,245l0 -565c0,-362 -287,-645 -640,-640 -1921,-1 -3844,0 -5760,0zm1920 2240l1280 0c705,0 1280,575 1280,1280l-960 0c0,-176 -144,-320 -320,-320l-1280 0c-176,0 -320,144 -320,320 0,176 144,320 320,320l1280 0c705,0 1280,575 1280,1280 0,302 -106,581 -282,800 176,219 282,498 282,800 0,705 -575,1280 -1280,1280l-1280 0c-705,0 -1280,-575 -1280,-1280l960 0c0,176 144,320 320,320l1280 0c176,0 320,-144 320,-320 0,-176 -144,-320 -320,-320l-1280 0c-705,0 -1280,-575 -1280,-1280 0,-302 106,-581 282,-800 -176,-219 -282,-498 -282,-800 0,-705 575,-1280 1280,-1280zm0 2560l1280 0c176,0 320,144 320,320 0,176 -144,320 -320,320l-1280 0c-176,0 -320,-144 -320,-320 0,-176 144,-320 320,-320z"/>
</svg>
