<?xml version="1.0" encoding="UTF-8"?>
<!DOCTYPE svg PUBLIC "-//W3C//DTD SVG 1.1//EN" "http://www.w3.org/Graphics/SVG/1.1/DTD/svg11.dtd">
<svg xmlns="http://www.w3.org/2000/svg" xml:space="preserve" width="1024px" height="1024px" shape-rendering="geometricPrecision" text-rendering="geometricPrecision" image-rendering="optimizeQuality" fill-rule="nonzero" clip-rule="evenodd" viewBox="0 0 10240 10240" xmlns:xlink="http://www.w3.org/1999/xlink">
	<title>compress icon</title>
	<desc>compress icon from the IconExperience.com O-Collection. Copyright by INCORS GmbH (www.incors.com).</desc>
	<path id="curve2" fill="#FFFFFF" d="M5034 8960l726 0 0 -1600 1280 0 0 1600 726 0c110,-191 317,-320 554,-320 353,0 640,287 640,640 0,353 -287,640 -640,640 -237,0 -444,-129 -554,-320l-726 0 0 0c0,176 -144,320 -320,320l-640 0c-176,0 -320,-144 -320,-320l0 0 -726 0c-110,191 -317,320 -554,320 -353,0 -640,-287 -640,-640 0,-353 287,-640 640,-640 237,0 444,129 554,320z"/>
	<path id="curve1" fill="#FFFFFF" d="M4480,2240 8320,2240 8320,5440 4480,5440z"/>
	<path id="curve0" fill="#FFFFFF" d="M2560 640l4480 0c555,0 1030,357 1206,853 36,101 22,204 -40,291 -61,88 -154,136 -261,136l-4105 0c-352,0 -640,288 -640,640l0 2560c0,352 288,640 640,640l4105 0c107,0 200,48 261,136 62,87 76,190 40,291 -176,496 -651,853 -1206,853l-4480 0c-705,0 -1280,-575 -1280,-1280l0 -3840c0,-705 575,-1280 1280,-1280z"/>
</svg>
