<?xml version="1.0" encoding="UTF-8"?>
<!DOCTYPE svg PUBLIC "-//W3C//DTD SVG 1.1//EN" "http://www.w3.org/Graphics/SVG/1.1/DTD/svg11.dtd">
<svg xmlns="http://www.w3.org/2000/svg" xml:space="preserve" width="1024px" height="1024px" shape-rendering="geometricPrecision" text-rendering="geometricPrecision" image-rendering="optimizeQuality" fill-rule="nonzero" clip-rule="evenodd" viewBox="0 0 10240 10240" xmlns:xlink="http://www.w3.org/1999/xlink">
	<title>contrast_low icon</title>
	<desc>contrast_low icon from the IconExperience.com O-Collection. Copyright by INCORS GmbH (www.incors.com).</desc>
	<path id="curve0" fill="#FFFFFF" d="M5120 1280c2121,0 3840,1719 3840,3840 0,2121 -1719,3840 -3840,3840 -2121,0 -3840,-1719 -3840,-3840 0,-2121 1719,-3840 3840,-3840zm640 1920l640 0 0 -640 -640 0 0 640zm640 -1013l0 373 640 0 0 640 640 0 0 0c-330,-439 -770,-791 -1280,-1013zm1280 1013l0 640 -640 0 0 640 640 0 0 -640 373 0c-99,-228 -225,-443 -373,-640zm-1280 4853l0 -373 -640 0 0 -640 -640 0 0 -640 640 0 0 -640 -640 0 0 -640 640 0 0 640 640 0 0 -640 640 0 0 640 640 0 0 -640 640 0c0,-215 -21,-429 -64,-640l-576 0 0 640 -640 0 0 -640 -640 0 0 640 -640 0 0 -640 -640 0 0 -640 640 0 0 -640 -640 0 0 -640 640 0 0 -576c-216,-44 -420,-61 -640,-64 -1767,0 -3200,1433 -3200,3200 0,1767 1433,3200 3200,3200l0 -640 640 0 0 576c223,-45 437,-114 640,-203zm640 -373l0 -640 -640 0 0 640 640 0zm640 -640l0 -640 -640 0 0 640 640 0zm0 -640l373 0c89,-203 158,-417 203,-640l-576 0 0 640zm-1280 640l0 -640 -640 0 0 640 640 0zm0 -640l640 0 0 -640 -640 0 0 640zm0 -3200l0 640 640 0 0 -640 -640 0zm0 640l-640 0 0 640 640 0 0 -640z"/>
</svg>
