<?xml version="1.0" encoding="UTF-8"?>
<!DOCTYPE svg PUBLIC "-//W3C//DTD SVG 1.1//EN" "http://www.w3.org/Graphics/SVG/1.1/DTD/svg11.dtd">
<svg xmlns="http://www.w3.org/2000/svg" xml:space="preserve" width="1024px" height="1024px" shape-rendering="geometricPrecision" text-rendering="geometricPrecision" image-rendering="optimizeQuality" fill-rule="nonzero" clip-rule="evenodd" viewBox="0 0 10240 10240" xmlns:xlink="http://www.w3.org/1999/xlink">
	<title>cooling_tower icon</title>
	<desc>cooling_tower icon from the IconExperience.com O-Collection. Copyright by INCORS GmbH (www.incors.com).</desc>
	<path id="curve0" fill="#FFFFFF" d="M2880 1280l4480 0c176,0 320,144 320,320l0 1600c0,1920 640,5120 1280,6400 -2560,0 -5120,0 -7680,0 640,-1280 1280,-4480 1280,-6400l0 -1600c0,-176 144,-320 320,-320zm320 960l0 960c0,977 -133,2010 -301,2972 -122,697 -273,1396 -461,2079 -27,98 -55,198 -85,299 -29,100 -12,198 51,282 62,83 152,128 256,128 144,0 266,-91 307,-230 30,-102 59,-205 88,-309 194,-704 348,-1420 474,-2139 177,-1011 311,-2054 311,-3082l0 -960c0,-176 -144,-320 -320,-320l0 0c-176,0 -320,144 -320,320z"/>
</svg>
