<?xml version="1.0" encoding="UTF-8"?>
<!DOCTYPE svg PUBLIC "-//W3C//DTD SVG 1.1//EN" "http://www.w3.org/Graphics/SVG/1.1/DTD/svg11.dtd">
<svg xmlns="http://www.w3.org/2000/svg" xml:space="preserve" width="1024px" height="1024px" shape-rendering="geometricPrecision" text-rendering="geometricPrecision" image-rendering="optimizeQuality" fill-rule="nonzero" clip-rule="evenodd" viewBox="0 0 10240 10240" xmlns:xlink="http://www.w3.org/1999/xlink">
	<title>courthouse icon</title>
	<desc>courthouse icon from the IconExperience.com O-Collection. Copyright by INCORS GmbH (www.incors.com).</desc>
	<path id="curve3" fill="#FFFFFF" d="M640,8960 1280,8960 1280,8320 8960,8320 8960,8960 9600,8960 9600,9600 640,9600z"/>
	<path id="curve2" fill="#FFFFFF" d="M4480 7200c0,88 72,160 160,160l960 0c88,0 160,-72 160,-160 0,-88 -72,-160 -160,-160l-800 0c-529,0 -960,-431 -960,-960 0,-222 76,-426 202,-589 -130,-147 -202,-334 -202,-531 0,-441 359,-800 800,-800l960 0c441,0 800,359 800,800l-640 0c0,-88 -72,-160 -160,-160l-960 0c-88,0 -160,72 -160,160 0,88 72,160 160,160l800 0c529,0 960,431 960,960 0,222 -76,426 -202,589 130,147 202,334 202,531 0,441 -359,800 -800,800l-960 0c-441,0 -800,-359 -800,-800l640 0zm320 -1440c-176,0 -320,144 -320,320 0,176 144,320 320,320l640 0c176,0 320,-144 320,-320 0,-176 -144,-320 -320,-320l-640 0z"/>
	<path id="curve1" fill="#FFFFFF" d="M3200 4320l0 160c0,177 -143,320 -320,320 320,960 320,2560 320,3200l-1600 0c0,-640 0,-2240 320,-3200 -177,0 -320,-143 -320,-320l0 -160c0,-88 72,-160 160,-160l1280 0c88,0 160,72 160,160zm5440 0l0 160c0,177 -143,320 -320,320 320,960 320,2560 320,3200l-1600 0c0,-640 0,-2240 320,-3200 -177,0 -320,-143 -320,-320l0 -160c0,-88 72,-160 160,-160l1280 0c88,0 160,72 160,160z"/>
	<path id="curve0" fill="#FFFFFF" d="M5120,640 9920,2880 9600,3520 8960,3520 8960,3840 1280,3840 1280,3520 640,3520 320,2880z"/>
</svg>
