<?xml version="1.0" encoding="UTF-8"?>
<!DOCTYPE svg PUBLIC "-//W3C//DTD SVG 1.1//EN" "http://www.w3.org/Graphics/SVG/1.1/DTD/svg11.dtd">
<svg xmlns="http://www.w3.org/2000/svg" xml:space="preserve" width="1024px" height="1024px" shape-rendering="geometricPrecision" text-rendering="geometricPrecision" image-rendering="optimizeQuality" fill-rule="nonzero" clip-rule="evenodd" viewBox="0 0 10240 10240" xmlns:xlink="http://www.w3.org/1999/xlink">
	<title>crown icon</title>
	<desc>crown icon from the IconExperience.com O-Collection. Copyright by INCORS GmbH (www.incors.com).</desc>
	<path id="curve1" fill="#FFFFFF" d="M8123 7845c156,280 156,670 0,950 -58,105 -160,165 -280,165l-5446 0c-120,0 -222,-60 -280,-165 -156,-280 -156,-670 0,-950 58,-105 160,-165 280,-165l5446 0c120,0 222,60 280,165z"/>
	<path id="curve0" fill="#FFFFFF" d="M2176 4288c448,518 896,832 1344,832 679,0 1038,-480 1303,-1327 -385,-125 -663,-487 -663,-913 0,-530 430,-960 960,-960 530,0 960,430 960,960 0,426 -278,788 -663,913 265,847 624,1327 1303,1327 448,0 896,-314 1344,-832 -233,-175 -384,-454 -384,-768 0,-530 430,-960 960,-960 530,0 960,430 960,960 0,530 -430,960 -960,960 -6,0 -12,0 -17,0 -41,1033 -155,1753 -342,2627 -31,149 -160,253 -313,253l-5678 0c-153,0 -282,-105 -313,-255 -196,-937 -315,-1617 -358,-2625 -7,0 -13,0 -19,0 -530,0 -960,-430 -960,-960 0,-530 430,-960 960,-960 530,0 960,430 960,960 0,314 -151,593 -384,768z"/>
</svg>
