<?xml version="1.0" encoding="UTF-8"?>
<!DOCTYPE svg PUBLIC "-//W3C//DTD SVG 1.1//EN" "http://www.w3.org/Graphics/SVG/1.1/DTD/svg11.dtd">
<svg xmlns="http://www.w3.org/2000/svg" xml:space="preserve" width="1024px" height="1024px" shape-rendering="geometricPrecision" text-rendering="geometricPrecision" image-rendering="optimizeQuality" fill-rule="nonzero" clip-rule="evenodd" viewBox="0 0 10240 10240" xmlns:xlink="http://www.w3.org/1999/xlink">
	<title>cube_molecule2 icon</title>
	<desc>cube_molecule2 icon from the IconExperience.com O-Collection. Copyright by INCORS GmbH (www.incors.com).</desc>
	<path id="curve1" fill="#FFFFFF" d="M7297 2881l-2 3c-146,160 -231,365 -243,581l-1 4 -1248 -555 -7 8 -138 -62c-165,-73 -241,-268 -168,-433 73,-165 268,-241 433,-167l153 67 -1 11 1222 543zm-2497 2814l3 1 5 2c5,1 10,3 14,4l5 2c6,2 12,4 19,6l1 0 4 1 1 1c5,1 9,2 14,4l5 1 5 1c4,1 9,3 13,4l10 2 11 3c5,1 9,2 14,3l9 2 13 2 11 2c5,1 10,2 14,2l8 2c5,0 11,1 16,2l7 1c6,1 13,1 19,2l4 0c7,1 14,2 21,2l2 0c7,1 15,1 23,2l0 0c8,0 16,0 24,1l0 0 1 0c8,0 16,0 24,0 8,0 16,0 24,0l1 0 0 0c8,-1 16,-1 24,-1l0 0c8,-1 16,-1 23,-2l2 0c7,0 14,-1 20,-2l6 0c6,-1 12,-2 18,-2l7 -1c5,-1 11,-2 16,-2l8 -2c4,0 9,-1 14,-2l12 -2 10 -2c5,-1 9,-2 14,-3l9 -2c5,-1 10,-2 15,-3l2 -1 5 -1c6,-2 12,-3 18,-5l3 0c6,-2 12,-4 18,-6l4 -1c13,-4 26,-8 39,-12l5 -2 3 -1 0 2038 10 3 0 104c0,58 -52,99 -99,122 -69,35 -155,48 -231,48 -76,0 -162,-13 -231,-48 -47,-23 -99,-64 -99,-122l0 -101 10 -3 0 -2041zm-2880 -1280l3 1c102,36 209,54 317,54 108,0 215,-18 317,-54l3 -1 0 2040 10 3 0 102c0,58 -52,99 -99,122 -69,35 -155,48 -231,48 -76,0 -162,-13 -231,-48 -47,-23 -99,-64 -99,-122l0 -102 10 -3 0 -2040zm5760 0l3 1c102,36 209,54 317,54 108,0 215,-18 317,-54l3 -1 0 2037 10 4 0 104c0,58 -52,99 -99,122 -69,35 -155,48 -231,48 -76,0 -162,-13 -231,-48 -47,-23 -99,-64 -99,-122l0 -90 0 -11 10 -3 0 -2041zm-3249 3570l-2 3c-150,158 -239,359 -256,576l0 3 -1235 -548 -7 7 -104 -46c-165,-73 -240,-268 -167,-433 73,-165 268,-241 433,-167l105 46 -1 11 1234 548zm2716 -4445c165,-74 360,2 433,167 73,165 -2,360 -167,433l-104 46 -7 -7 -1235 551c-16,-225 -110,-428 -256,-582l1232 -551 -1 -11 105 -46zm-1080 5027l0 -3c-17,-216 -107,-418 -256,-576l-2 -2 1234 -549 -1 -11 105 -46c165,-74 360,2 433,167 73,165 -2,360 -167,433l-104 46 -7 -7 -1235 548zm-2870 -4970l1232 551c-146,154 -240,357 -256,582l-1235 -551 -7 7 -104 -46c-165,-73 -240,-268 -167,-433 73,-165 268,-241 433,-167l105 46 -1 11zm1603 -462l3 1c102,36 209,54 317,54 108,0 215,-18 317,-54l3 -1 0 425c-102,-26 -209,-40 -320,-40 -110,0 -218,14 -320,40l0 -425zm-1613 4152l0 -3c-17,-216 -107,-418 -256,-576l-2 -2 1234 -549 -1 -11 105 -46c70,-31 144,-36 213,-18l0 642 -51 22 -7 -7 -1235 548zm4124 -581l-2 2c-149,158 -239,360 -256,576l0 3 -1235 -548 -7 7 -51 -22 0 -642c69,-18 143,-13 213,18l105 46 -1 11 1234 549zm-4124 -3259l0 -3c-17,-216 -107,-418 -256,-576l-2 -2 1234 -549 -1 -11 105 -46c165,-74 360,2 433,167 73,165 -2,360 -167,433l-104 46 -7 -7 -1235 548z"/>
	<path id="curve0" fill="#FFFFFF" d="M2560 6455c373,132 640,487 640,905 0,26 -1,51 -3,77l-108 -48c-161,-71 -349,1 -420,162 -71,161 1,349 162,420l107 48c-175,185 -423,301 -698,301 -530,0 -960,-430 -960,-960 0,-418 267,-774 640,-905l0 105c0,88 143,160 320,160 177,0 320,-72 320,-160l0 -105zm3450 -735c45,111 70,233 70,360 0,26 -1,51 -3,77l-108 -48c-69,-30 -142,-35 -209,-17l0 -183c91,-53 175,-117 250,-189zm2310 732c381,131 640,493 640,908 0,530 -430,960 -960,960 -275,0 -523,-116 -698,-301l107 -48c161,-71 233,-259 162,-420 -71,-161 -259,-233 -420,-162l-108 48c-2,-26 -3,-51 -3,-77 0,-425 271,-774 640,-904l0 104c0,88 143,160 320,160 177,0 320,-72 320,-160l0 -108zm-2880 1281c377,131 640,490 640,907 0,530 -430,960 -960,960 -530,0 -960,-430 -960,-960 0,-425 271,-774 640,-904l0 104c0,88 143,160 320,160 177,0 320,-72 320,-160l0 -107zm-320 -3893c530,0 960,430 960,960 0,530 -430,960 -960,960 -530,0 -960,-430 -960,-960 0,-530 430,-960 960,-960zm2880 -1280c530,0 960,430 960,960 0,530 -430,960 -960,960 -275,0 -523,-116 -698,-301l107 -48c161,-71 233,-259 162,-420 -71,-161 -259,-233 -420,-162l-108 48c-2,-26 -3,-51 -3,-77 0,-530 430,-960 960,-960zm-5760 0c530,0 960,430 960,960 0,26 -1,51 -3,77l-108 -48c-161,-71 -349,1 -420,162 -71,161 1,349 162,420l107 48c-175,185 -423,301 -698,301 -530,0 -960,-430 -960,-960 0,-530 430,-960 960,-960zm2880 -1280c530,0 960,430 960,960 0,33 -2,66 -5,98l-156 -69c-161,-71 -349,1 -420,162 -71,161 2,349 163,420l141 63c-174,177 -416,286 -683,286 -275,0 -523,-116 -698,-301l107 -48c161,-71 233,-259 162,-420 -71,-161 -259,-233 -420,-162l-108 48c-2,-26 -3,-51 -3,-77 0,-530 430,-960 960,-960zm640 5433l58 26c-18,19 -38,38 -58,56l0 -82zm-1280 82c-20,-18 -40,-37 -58,-56l58 -26 0 82zm0 -703c-67,-18 -140,-13 -209,17l-108 48c-2,-26 -3,-51 -3,-77 0,-127 25,-249 70,-360 75,72 159,136 250,189l0 183z"/>
</svg>
