<?xml version="1.0" encoding="UTF-8"?>
<!DOCTYPE svg PUBLIC "-//W3C//DTD SVG 1.1//EN" "http://www.w3.org/Graphics/SVG/1.1/DTD/svg11.dtd">
<svg xmlns="http://www.w3.org/2000/svg" xml:space="preserve" width="1024px" height="1024px" shape-rendering="geometricPrecision" text-rendering="geometricPrecision" image-rendering="optimizeQuality" fill-rule="nonzero" clip-rule="evenodd" viewBox="0 0 10240 10240" xmlns:xlink="http://www.w3.org/1999/xlink">
	<title>currency_euro icon</title>
	<desc>currency_euro icon from the IconExperience.com O-Collection. Copyright by INCORS GmbH (www.incors.com).</desc>
	<path id="curve0" fill="#FFFFFF" d="M5120 640c2474,0 4480,2006 4480,4480 0,2474 -2006,4480 -4480,4480 -2474,0 -4480,-2006 -4480,-4480 0,-2474 2006,-4480 4480,-4480zm-3543 4800l-137 640 779 0c388,1298 1540,2240 2901,2240 517,0 1003,-136 1429,-375l-275 -1375c-309,293 -713,470 -1154,470 -651,0 -1220,-386 -1524,-960l2073 0 137 -640 -2422 0c-16,-104 -24,-211 -24,-320l2514 0 137 -640 -2551 0c242,-746 894,-1280 1660,-1280 407,0 781,151 1079,403l288 -1342c-411,-218 -875,-341 -1367,-341 -1471,0 -2697,1099 -2979,2560l-358 0 -137 640 434 0c0,108 5,215 15,320l-518 0z"/>
</svg>
