<?xml version="1.0" encoding="UTF-8"?>
<!DOCTYPE svg PUBLIC "-//W3C//DTD SVG 1.1//EN" "http://www.w3.org/Graphics/SVG/1.1/DTD/svg11.dtd">
<svg xmlns="http://www.w3.org/2000/svg" xml:space="preserve" width="1024px" height="1024px" shape-rendering="geometricPrecision" text-rendering="geometricPrecision" image-rendering="optimizeQuality" fill-rule="nonzero" clip-rule="evenodd" viewBox="0 0 10240 10240" xmlns:xlink="http://www.w3.org/1999/xlink">
	<title>data_table icon</title>
	<desc>data_table icon from the IconExperience.com O-Collection. Copyright by INCORS GmbH (www.incors.com).</desc>
	<path id="curve1" fill="#FFFFFF" d="M9600 7040l-3520 0 0 -1600 -55 0c36,-100 55,-208 55,-320l0 -1280 -245 0c-176,-196 -432,-320 -715,-320l960 0 0 -1280 -1280 0 0 1280 -320 0 0 -1280 -1280 0 0 1280 -320 0 0 -2240c0,-353 287,-640 640,-640l5440 0c353,0 640,287 640,640 0,2471 0,3204 0,5760zm-3200 -4800l0 1280 1280 0 0 -1280 -1280 0zm1600 0l0 1280 1280 0 0 -1280 -1280 0zm-1600 1600l0 1280 1280 0 0 -1280 -1280 0zm1600 0l0 1280 1280 0 0 -1280 -1280 0zm-1600 1600l0 1280 1280 0 0 -1280 -1280 0zm1600 0l0 1280 1280 0 0 -1280 -1280 0z"/>
	<path id="curve0" fill="#FFFFFF" d="M1280 3840l3840 0c353,0 640,288 640,640l0 640c0,352 -288,640 -640,640l0 0c353,0 640,288 640,640l0 640c0,352 -288,640 -640,640l0 0c353,0 640,288 640,640l0 640c0,352 -288,640 -640,640l-3840 0c-352,0 -640,-287 -640,-640l0 -640c0,-353 287,-640 640,-640l0 0c-352,0 -640,-287 -640,-640l0 -640c0,-353 287,-640 640,-640l0 0c-352,0 -640,-287 -640,-640l0 -640c0,-353 288,-640 640,-640zm128 4480c-71,0 -128,72 -128,160l0 320c0,88 58,160 128,160l1792 0 0 -640 -1792 0zm0 -3840c-71,0 -128,72 -128,160l0 320c0,88 58,160 128,160l1792 0 0 -640 -1792 0zm0 1920c-71,0 -128,72 -128,160l0 320c0,88 58,160 128,160l1792 0 0 -640 -1792 0z"/>
</svg>
