<?xml version="1.0" encoding="UTF-8"?>
<!DOCTYPE svg PUBLIC "-//W3C//DTD SVG 1.1//EN" "http://www.w3.org/Graphics/SVG/1.1/DTD/svg11.dtd">
<svg xmlns="http://www.w3.org/2000/svg" xml:space="preserve" width="1024px" height="1024px" shape-rendering="geometricPrecision" text-rendering="geometricPrecision" image-rendering="optimizeQuality" fill-rule="nonzero" clip-rule="evenodd" viewBox="0 0 10240 10240" xmlns:xlink="http://www.w3.org/1999/xlink">
	<title>diamond_ring icon</title>
	<desc>diamond_ring icon from the IconExperience.com O-Collection. Copyright by INCORS GmbH (www.incors.com).</desc>
	<path id="curve1" fill="#FFFFFF" d="M6491 2837c1263,534 2149,1785 2149,3243 0,1944 -1576,3520 -3520,3520 -1944,0 -3520,-1576 -3520,-3520 0,-1458 886,-2709 2149,-3243l975 1033c-1226,191 -2164,1251 -2164,2530 0,1414 1146,2560 2560,2560 1414,0 2560,-1146 2560,-2560 0,-1279 -938,-2339 -2164,-2530l975 -1033z"/>
	<path id="curve0" fill="#FFFFFF" d="M4103 320l2034 0c50,0 93,16 129,47l1039 913 -4370 0 1039 -913c36,-31 79,-47 129,-47zm3114 1280l-1951 2069c-38,40 -87,64 -146,64 -59,0 -108,-24 -146,-64l-1951 -2069 4194 0z"/>
</svg>
