<?xml version="1.0" encoding="UTF-8"?>
<!DOCTYPE svg PUBLIC "-//W3C//DTD SVG 1.1//EN" "http://www.w3.org/Graphics/SVG/1.1/DTD/svg11.dtd">
<svg xmlns="http://www.w3.org/2000/svg" xml:space="preserve" width="1024px" height="1024px" shape-rendering="geometricPrecision" text-rendering="geometricPrecision" image-rendering="optimizeQuality" fill-rule="nonzero" clip-rule="evenodd" viewBox="0 0 10240 10240" xmlns:xlink="http://www.w3.org/1999/xlink">
	<title>dice icon</title>
	<desc>dice icon from the IconExperience.com O-Collection. Copyright by INCORS GmbH (www.incors.com).</desc>
	<path id="curve3" fill="#FFFFFF" d="M7166 2586c91,-342 442,-544 784,-453 341,92 544,443 452,784 -91,341 -442,544 -783,453 -342,-92 -544,-443 -453,-784zm-2473 -663c92,-341 443,-544 784,-452 341,91 544,442 453,783 -92,342 -443,545 -784,453 -342,-91 -544,-442 -453,-784zm2027 2803c154,-124 362,-175 567,-120 342,91 544,442 453,784 -92,341 -443,544 -784,452 -89,-23 -169,-65 -236,-119l0 -997z"/>
	<path id="curve2" fill="#FFFFFF" d="M3271 3520l743 -2773c92,-340 444,-543 784,-452l4328 1159c340,92 543,444 452,784l-1159 4328c-92,340 -444,543 -784,452l-915 -245 0 -663 1080 290 1160 -4327 -4327 -1160 -699 2607 -663 0z"/>
	<path id="curve1" fill="#FFFFFF" d="M4800 4800c354,0 640,287 640,640 0,353 -286,640 -640,640 -353,0 -640,-287 -640,-640 0,-353 287,-640 640,-640zm-1280 1280c353,0 640,287 640,640 0,353 -287,640 -640,640 -353,0 -640,-287 -640,-640 0,-353 287,-640 640,-640zm-1280 1280c354,0 640,287 640,640 0,353 -286,640 -640,640 -353,0 -640,-287 -640,-640 0,-353 287,-640 640,-640z"/>
	<path id="curve0" fill="#FFFFFF" d="M1280 3840l4480 0c353,0 640,288 640,640l0 4480c0,352 -288,640 -640,640l-4480 0c-352,0 -640,-287 -640,-640l0 -4480c0,-353 288,-640 640,-640zm0 640l0 4480 4480 0 0 -4480 -4480 0z"/>
</svg>
