<?xml version="1.0" encoding="UTF-8"?>
<!DOCTYPE svg PUBLIC "-//W3C//DTD SVG 1.1//EN" "http://www.w3.org/Graphics/SVG/1.1/DTD/svg11.dtd">
<svg xmlns="http://www.w3.org/2000/svg" xml:space="preserve" width="1024px" height="1024px" shape-rendering="geometricPrecision" text-rendering="geometricPrecision" image-rendering="optimizeQuality" fill-rule="nonzero" clip-rule="evenodd" viewBox="0 0 10240 10240" xmlns:xlink="http://www.w3.org/1999/xlink">
	<title>die icon</title>
	<desc>die icon from the IconExperience.com O-Collection. Copyright by INCORS GmbH (www.incors.com).</desc>
	<path id="curve1" fill="#FFFFFF" d="M4755 3197c202,-100 528,-100 730,0 201,101 201,264 0,364 -202,101 -528,101 -730,0 -201,-100 -201,-263 0,-364zm1209 4188c-217,109 -393,406 -393,663 0,257 176,377 393,269 217,-109 392,-405 392,-663 0,-257 -175,-377 -392,-269zm916 -1545c-217,109 -393,405 -393,662 0,257 176,378 393,269 217,-108 393,-405 393,-662 0,-257 -176,-378 -393,-269zm916 -1546c-217,109 -392,406 -392,663 0,257 175,377 392,269 217,-109 393,-405 393,-663 0,-257 -176,-377 -393,-269zm-3520 3091c217,109 393,406 393,663 0,257 -176,377 -393,269 -217,-109 -392,-405 -392,-663 0,-257 175,-377 392,-269zm-1832 -917c217,108 392,405 392,662 0,257 -175,378 -392,269 -217,-109 -393,-405 -393,-662 0,-258 176,-378 393,-269zm916 -628c217,109 393,405 393,662 0,257 -176,378 -393,269 -217,-108 -393,-405 -393,-662 0,-257 176,-378 393,-269zm916 -628c217,109 393,405 393,663 0,257 -176,377 -393,269 -217,-109 -392,-406 -392,-663 0,-257 175,-377 392,-269zm-1832 -918c217,109 392,406 392,663 0,257 -175,377 -392,269 -217,-109 -393,-405 -393,-663 0,-257 176,-377 393,-269z"/>
	<path id="curve0" fill="#FFFFFF" d="M1634 3023l3200 -1600c186,-93 386,-93 572,0l3200 1600c222,111 354,324 354,573l0 3688c0,249 -132,462 -354,573l-3200 1600c-186,93 -386,93 -572,0l-3200 -1600c-222,-111 -354,-324 -354,-573l0 -3688c0,-249 132,-462 354,-573zm286 853l0 3408 2880 1440 0 -3408 -2880 -1440zm3520 4848l2880 -1440 0 -3408 -2880 1440 0 3408zm-320 -3960l2768 -1384 -2768 -1384 -2768 1384 2768 1384z"/>
</svg>
