<?xml version="1.0" encoding="UTF-8"?>
<!DOCTYPE svg PUBLIC "-//W3C//DTD SVG 1.1//EN" "http://www.w3.org/Graphics/SVG/1.1/DTD/svg11.dtd">
<svg xmlns="http://www.w3.org/2000/svg" xml:space="preserve" width="1024px" height="1024px" shape-rendering="geometricPrecision" text-rendering="geometricPrecision" image-rendering="optimizeQuality" fill-rule="nonzero" clip-rule="evenodd" viewBox="0 0 10240 10240" xmlns:xlink="http://www.w3.org/1999/xlink">
	<title>disinfection icon</title>
	<desc>disinfection icon from the IconExperience.com O-Collection. Copyright by INCORS GmbH (www.incors.com).</desc>
	<path id="curve2" fill="#FFFFFF" d="M3520,5760 7360,5760 7360,8639 3520,8639z"/>
	<path id="curve1" fill="#FFFFFF" d="M4425 3200l2935 0c529,0 960,431 960,960l0 4480c0,529 -431,960 -960,960l-3840 0c-529,0 -960,-431 -960,-960l0 -3575c0,-258 99,-496 281,-679l905 -905c183,-182 421,-281 679,-281zm2935 640l-2935 0c-94,0 -159,27 -226,94l-905 905c-67,67 -94,131 -94,226l0 3575c0,176 144,320 320,320l3840 0c176,0 320,-144 320,-320l0 -4480c0,-176 -144,-320 -320,-320z"/>
	<path id="curve0" fill="#FFFFFF" d="M5120 640l1280 0c176,0 320,144 320,320l0 960 320 0 0 960 -2560 0 0 -960 320 0 0 -320 -2240 0c-176,0 -320,144 -320,320l0 320 -640 0 0 -320c0,-529 431,-960 960,-960l2240 0c0,-176 144,-320 320,-320z"/>
</svg>
