<?xml version="1.0" encoding="UTF-8"?>
<!DOCTYPE svg PUBLIC "-//W3C//DTD SVG 1.1//EN" "http://www.w3.org/Graphics/SVG/1.1/DTD/svg11.dtd">
<svg xmlns="http://www.w3.org/2000/svg" xml:space="preserve" width="1024px" height="1024px" shape-rendering="geometricPrecision" text-rendering="geometricPrecision" image-rendering="optimizeQuality" fill-rule="nonzero" clip-rule="evenodd" viewBox="0 0 10240 10240" xmlns:xlink="http://www.w3.org/1999/xlink">
	<title>dna icon</title>
	<desc>dna icon from the IconExperience.com O-Collection. Copyright by INCORS GmbH (www.incors.com).</desc>
	<path id="curve2" fill="#FFFFFF" d="M7050 8960c0,243 -103,457 -258,640l-3592 0 0 0 320 0c0,-226 175,-428 335,-568 29,-24 58,-48 88,-72l3107 0zm-2705 -3200c-253,-122 -504,-271 -715,-456 -63,-55 -122,-114 -177,-178l-4 -4 1 -2 3590 0 0 0c0,240 -204,455 -491,640l-2204 0zm1991 2181c93,62 182,129 266,203 60,53 118,109 171,169l4 5 -1 2 -1522 0c45,-14 89,-28 133,-40 314,-92 636,-204 949,-339zm-2888 -6661c-127,-150 -219,-320 -248,-510l0 -130 3115 0c-369,292 -877,499 -1328,640l-1539 0zm2434 2560c255,125 506,277 720,464 60,53 118,109 171,169l4 5 -1 2 -3576 0c0,-236 213,-452 509,-640l2173 0z"/>
	<path id="curve1" fill="#FFFFFF" d="M1920 9600c0,-711 347,-1298 885,-1769 567,-496 1356,-856 2138,-1084 653,-190 1258,-459 1661,-811 268,-235 436,-508 436,-816 0,-300 -175,-572 -445,-809 -415,-363 -1029,-637 -1652,-819 -100,-28 -198,-59 -296,-91 304,-112 581,-195 740,-241 373,-109 757,-247 1125,-419 341,174 657,377 923,610 538,471 885,1058 885,1769 0,723 -343,1309 -876,1776 -555,485 -1331,839 -2147,1076 -623,182 -1237,457 -1652,819 -270,237 -445,509 -445,809l-1280 0zm810 -7243c-500,-462 -810,-1030 -810,-1717l1280 0c0,308 168,581 436,816 83,72 174,141 272,206 -422,186 -828,416 -1178,695z"/>
	<path id="curve0" fill="#FFFFFF" d="M1920 4480c0,-720 356,-1305 885,-1769 567,-496 1356,-856 2138,-1083 653,-191 1258,-460 1661,-812 64,-56 123,-115 175,-176l1445 0c-137,436 -411,813 -780,1136 -555,485 -1331,839 -2147,1076 -623,182 -1237,457 -1652,819 -270,237 -445,509 -445,809 0,333 195,605 436,816 403,352 1008,621 1661,811 101,30 202,61 302,95 -303,110 -582,190 -746,238 -374,109 -759,250 -1126,425 -348,-174 -665,-376 -931,-609 -539,-472 -876,-1059 -876,-1776zm5589 2778c495,459 811,1024 811,1702 0,218 -31,432 -96,640l-1445 0c164,-192 261,-406 261,-640 0,-300 -175,-572 -445,-809 -82,-72 -173,-141 -270,-206 424,-182 832,-408 1184,-687z"/>
</svg>
