<?xml version="1.0" encoding="UTF-8"?>
<!DOCTYPE svg PUBLIC "-//W3C//DTD SVG 1.1//EN" "http://www.w3.org/Graphics/SVG/1.1/DTD/svg11.dtd">
<svg xmlns="http://www.w3.org/2000/svg" xml:space="preserve" width="1024px" height="1024px" shape-rendering="geometricPrecision" text-rendering="geometricPrecision" image-rendering="optimizeQuality" fill-rule="nonzero" clip-rule="evenodd" viewBox="0 0 10240 10240" xmlns:xlink="http://www.w3.org/1999/xlink">
	<title>document_empty_landscape icon</title>
	<desc>document_empty_landscape icon from the IconExperience.com O-Collection. Copyright by INCORS GmbH (www.incors.com).</desc>
	<path id="curve0" fill="#FFFFFF" d="M9600 8960l0 -5230c0,-352 -126,-656 -375,-905l-1170 -1170c-249,-249 -553,-375 -905,-375l-6510 0 0 7680 8960 0zm-640 -640l-7680 0 0 -6400 5440 0c176,0 320,144 320,320l0 1600 1600 0c176,0 320,144 320,320l0 4160zm-320 -5120l-960 0 0 -960 960 960z"/>
</svg>
