<?xml version="1.0" encoding="UTF-8"?>
<!DOCTYPE svg PUBLIC "-//W3C//DTD SVG 1.1//EN" "http://www.w3.org/Graphics/SVG/1.1/DTD/svg11.dtd">
<svg xmlns="http://www.w3.org/2000/svg" xml:space="preserve" width="1024px" height="1024px" shape-rendering="geometricPrecision" text-rendering="geometricPrecision" image-rendering="optimizeQuality" fill-rule="nonzero" clip-rule="evenodd" viewBox="0 0 10240 10240" xmlns:xlink="http://www.w3.org/1999/xlink">
	<title>dude1 icon</title>
	<desc>dude1 icon from the IconExperience.com O-Collection. Copyright by INCORS GmbH (www.incors.com).</desc>
	<path id="curve3" fill="#FFFFFF" d="M5995 6371c-134,519 -425,1084 -875,1309 -450,-225 -741,-790 -875,-1309 75,19 154,29 235,29l1280 0c81,0 160,-10 235,-29z"/>
	<path id="curve2" fill="#FFFFFF" d="M8320 8470c0,622 -1134,956 -2240,1076 5,-1668 254,-2359 309,-3381 169,-147 286,-352 321,-584 70,-47 139,-97 205,-149 848,660 1405,1774 1405,3038zm-4160 1076c-1106,-120 -2240,-453 -2240,-1075 0,-1264 557,-2379 1405,-3039 66,52 135,102 205,149 35,232 152,437 321,584"/>
	<path id="curve1" fill="#FFFFFF" d="M4480,4800 5760,4800 5760,5120 4480,5120z"/>
	<path id="curve0" fill="#FFFFFF" d="M6400 5396l0 44c0,353 -287,640 -640,640l-1280 0c-353,0 -640,-287 -640,-640l0 -44c-110,-63 -215,-135 -316,-215l-197 -156 -199 154c-156,122 -300,255 -433,397 -658,-240 -1021,-605 -775,-1096 588,-1176 320,-2560 640,-3200 484,-967 1280,-1600 2560,-960 1280,-640 2056,-49 2560,960 320,640 74,2068 640,3200 246,491 -117,856 -775,1096 -133,-142 -277,-275 -433,-397l-199 -154 -197 156c-100,80 -206,152 -316,215zm-1920 -916c-176,0 -320,144 -320,320l0 640c0,176 144,320 320,320l1280 0c176,0 320,-144 320,-320l0 -640c0,-176 -144,-320 -320,-320l-1280 0zm0 320l1280 0 0 320 -1280 0 0 -320zm2560 -1600l0 -640c0,-176 -144,-320 -320,-320l-3200 0c-176,0 -320,144 -320,320l0 640c0,176 144,320 320,320l960 0c176,0 320,-144 320,-320l0 -320c0,-176 144,-320 320,-320l0 0c176,0 320,144 320,320l0 320c0,176 144,320 320,320l960 0c176,0 320,-144 320,-320z"/>
</svg>
