<?xml version="1.0" encoding="UTF-8"?>
<!DOCTYPE svg PUBLIC "-//W3C//DTD SVG 1.1//EN" "http://www.w3.org/Graphics/SVG/1.1/DTD/svg11.dtd">
<svg xmlns="http://www.w3.org/2000/svg" xml:space="preserve" width="1024px" height="1024px" shape-rendering="geometricPrecision" text-rendering="geometricPrecision" image-rendering="optimizeQuality" fill-rule="nonzero" clip-rule="evenodd" viewBox="0 0 10240 10240" xmlns:xlink="http://www.w3.org/1999/xlink">
	<title>ear icon</title>
	<desc>ear icon from the IconExperience.com O-Collection. Copyright by INCORS GmbH (www.incors.com).</desc>
	<path id="curve0" fill="#FFFFFF" d="M5760 8000c0,884 -716,1600 -1600,1600 -746,0 -1372,-510 -1550,-1200 -25,-99 -5,-195 57,-276 63,-81 151,-124 253,-124l0 0c148,0 273,97 310,240 107,414 483,720 930,720 530,0 960,-430 960,-960 0,-321 73,-625 221,-910 347,-665 1010,-1051 1528,-1563 586,-580 811,-1181 811,-2007 0,-1237 -1003,-2240 -2240,-2240 -1142,0 -2085,855 -2223,1960 -20,161 -155,280 -317,280l0 0c-95,0 -177,-37 -240,-108 -63,-71 -90,-157 -78,-252 177,-1420 1389,-2520 2858,-2520 1591,0 2880,1289 2880,2880 0,2880 -2560,2880 -2560,4480l0 0zm1280 -4480c0,177 -143,320 -320,320 -177,0 -320,-143 -320,-320 0,-265 -107,-505 -281,-679 -174,-174 -414,-281 -679,-281 -265,0 -505,107 -679,281 -174,174 -281,414 -281,679l-1 0 0 365c225,60 427,178 587,338 230,230 374,546 374,897 0,352 -144,673 -376,905 -231,231 -551,375 -904,375 -177,0 -320,-143 -320,-320 0,-177 143,-320 320,-320 176,0 336,-72 452,-188 116,-116 188,-276 188,-452 0,-173 -72,-330 -187,-445 -119,-119 -282,-193 -458,-196l0 0c-174,-3 -314,-145 -314,-319l0 -640 -1 0c0,-442 179,-842 468,-1132 290,-289 690,-468 1132,-468 442,0 842,179 1132,468 289,290 468,690 468,1132z"/>
</svg>
