<?xml version="1.0" encoding="UTF-8"?>
<!DOCTYPE svg PUBLIC "-//W3C//DTD SVG 1.1//EN" "http://www.w3.org/Graphics/SVG/1.1/DTD/svg11.dtd">
<svg xmlns="http://www.w3.org/2000/svg" xml:space="preserve" width="1024px" height="1024px" shape-rendering="geometricPrecision" text-rendering="geometricPrecision" image-rendering="optimizeQuality" fill-rule="nonzero" clip-rule="evenodd" viewBox="0 0 10240 10240" xmlns:xlink="http://www.w3.org/1999/xlink">
	<title>easel_empty icon</title>
	<desc>easel_empty icon from the IconExperience.com O-Collection. Copyright by INCORS GmbH (www.incors.com).</desc>
	<path id="curve0" fill="#FFFFFF" d="M5440 4374l0 2346 -640 0 0 -2346 -853 2346 -679 0 1396 -3840 912 0 1396 3840 -679 0 -853 -2346zm-660 -1814l-300 0c-176,0 -320,-144 -320,-320l0 -640 640 0 0 -960 640 0 0 960 640 0 0 640c0,176 -144,320 -320,320l-300 0 -680 0zm2900 4480l0 640 -359 0 659 1811c60,166 -26,349 -191,409 -166,60 -349,-26 -409,-191l-272 -749 -3976 0 -272 749c-60,165 -243,251 -409,191 -165,-60 -251,-243 -191,-409l659 -1811 -359 0 0 -640 5120 0zm-2240 640l0 640 1435 0 -233 -640 -1202 0zm-2075 640l1435 0 0 -640 -1202 0 -233 640z"/>
</svg>
