<?xml version="1.0" encoding="UTF-8"?>
<!DOCTYPE svg PUBLIC "-//W3C//DTD SVG 1.1//EN" "http://www.w3.org/Graphics/SVG/1.1/DTD/svg11.dtd">
<svg xmlns="http://www.w3.org/2000/svg" xml:space="preserve" width="1024px" height="1024px" shape-rendering="geometricPrecision" text-rendering="geometricPrecision" image-rendering="optimizeQuality" fill-rule="nonzero" clip-rule="evenodd" viewBox="0 0 10240 10240" xmlns:xlink="http://www.w3.org/1999/xlink">
	<title>environment icon</title>
	<desc>environment icon from the IconExperience.com O-Collection. Copyright by INCORS GmbH (www.incors.com).</desc>
	<path id="curve0" fill="#FFFFFF" d="M5120 640c2474,0 4480,2006 4480,4480 0,2474 -2006,4480 -4480,4480 -2474,0 -4480,-2006 -4480,-4480 0,-2474 2006,-4480 4480,-4480zm1606 991c189,267 356,580 495,929l761 0c-349,-389 -776,-707 -1256,-929zm-175 929c-284,-635 -672,-1079 -1111,-1227l0 1227 1111 0zm1895 640l-1013 0c134,491 217,1031 240,1600l1274 0c-48,-579 -225,-1122 -501,-1600zm-1413 1600c-24,-579 -112,-1122 -250,-1600l-1343 0 0 1600 1593 0zm1914 640l-1274 0c-23,569 -106,1109 -240,1600l1013 0c276,-478 453,-1021 501,-1600zm-2164 1600c138,-478 226,-1021 250,-1600l-1593 0 0 1600 1343 0zm1199 640l-761 0c-139,349 -306,662 -495,929 480,-222 907,-540 1256,-929zm-2542 1227c439,-148 827,-592 1111,-1227l-1111 0 0 1227zm-1926 -298c-189,-267 -356,-580 -495,-929l-761 0c349,389 776,707 1256,929zm175 -929c284,635 672,1079 1111,1227l0 -1227 -1111 0zm-1895 -640l1013 0c-134,-491 -217,-1031 -240,-1600l-1274 0c48,579 225,1122 501,1600zm1413 -1600c24,579 112,1122 250,1600l1343 0 0 -1600 -1593 0zm-1914 -640l1274 0c23,-569 106,-1109 240,-1600l-1013 0c-276,478 -453,1021 -501,1600zm2164 -1600c-138,478 -226,1021 -250,1600l1593 0 0 -1600 -1343 0zm-1199 -640l761 0c139,-349 306,-662 495,-929 -480,222 -907,540 -1256,929zm2542 -1227c-439,148 -827,592 -1111,1227l1111 0 0 -1227z"/>
</svg>
