<?xml version="1.0" encoding="UTF-8"?>
<!DOCTYPE svg PUBLIC "-//W3C//DTD SVG 1.1//EN" "http://www.w3.org/Graphics/SVG/1.1/DTD/svg11.dtd">
<svg xmlns="http://www.w3.org/2000/svg" xml:space="preserve" width="1024px" height="1024px" shape-rendering="geometricPrecision" text-rendering="geometricPrecision" image-rendering="optimizeQuality" fill-rule="nonzero" clip-rule="evenodd" viewBox="0 0 10240 10240" xmlns:xlink="http://www.w3.org/1999/xlink">
	<title>excavator icon</title>
	<desc>excavator icon from the IconExperience.com O-Collection. Copyright by INCORS GmbH (www.incors.com).</desc>
	<path id="curve4" fill="#FFFFFF" d="M5120 8000c177,0 320,143 320,320 0,177 -143,320 -320,320 -177,0 -320,-143 -320,-320 0,-177 143,-320 320,-320zm-3533 -3c177,0 320,143 320,320 0,177 -143,320 -320,320 -177,0 -320,-143 -320,-320 0,-177 143,-320 320,-320z"/>
	<path id="curve3" fill="#FFFFFF" d="M5120 7040c707,0 1280,573 1280,1280 0,707 -573,1280 -1280,1280l-2 0 -3516 0 -2 0c-707,9 -1280,-573 -1280,-1280 0,-707 573,-1280 1280,-1280l3520 0zm3 1920c352,-2 637,-287 637,-640 0,-354 -286,-640 -640,-640l-3520 0c-354,0 -640,286 -640,640 0,348 279,644 632,640l6 0 3525 0z"/>
	<path id="curve2" fill="#FFFFFF" d="M320 5120c0,-320 320,-640 960,-640l676 0c43,155 126,294 245,414l905 905c185,184 418,281 679,281l802 0c213,0 405,-64 576,-192l170 -128 427 0c176,0 320,144 320,320l0 320c0,176 -144,320 -320,320 -1813,0 -3307,0 -5120,0 -176,0 -320,-144 -320,-320l0 -1280z"/>
	<path id="curve1" fill="#FFFFFF" d="M7046 6960l-6 0c-198,0 -360,162 -360,360l0 0c0,198 162,360 360,360 455,0 910,0 1365,0 1171,0 2341,-1716 715,-2632l0 -1528 -1 0c0,-230 -166,-433 -400,-473l-1920 -320 0 2c-130,-22 -267,10 -377,98l-641 513 384 864c6,13 11,26 16,38l669 -535 1310 219 0 1251 -792 1584c-63,125 -182,199 -322,199z"/>
	<path id="curve0" fill="#FFFFFF" d="M2880 1920l1504 0c259,0 480,144 585,380l904 2034c123,276 41,591 -201,772l-701 526c-116,87 -240,128 -384,128l-802 0c-176,0 -328,-63 -452,-187l-906 -906c-124,-124 -187,-276 -187,-452l0 -1655c0,-353 287,-640 640,-640zm0 640l0 1600 320 320 2037 0 -853 -1920 -1504 0z"/>
</svg>
