<?xml version="1.0" encoding="UTF-8"?>
<!DOCTYPE svg PUBLIC "-//W3C//DTD SVG 1.1//EN" "http://www.w3.org/Graphics/SVG/1.1/DTD/svg11.dtd">
<svg xmlns="http://www.w3.org/2000/svg" xml:space="preserve" width="1024px" height="1024px" shape-rendering="geometricPrecision" text-rendering="geometricPrecision" image-rendering="optimizeQuality" fill-rule="nonzero" clip-rule="evenodd" viewBox="0 0 10240 10240" xmlns:xlink="http://www.w3.org/1999/xlink">
	<title>firewall2 icon</title>
	<desc>firewall2 icon from the IconExperience.com O-Collection. Copyright by INCORS GmbH (www.incors.com).</desc>
	<path id="curve1" fill="#FFFFFF" d="M4160 5120l2560 0c176,0 320,144 320,320l0 640c0,176 -144,320 -320,320l-2560 0c-176,0 -320,-144 -320,-320l0 -640c0,-176 144,-320 320,-320zm-320 1600l640 0c176,0 320,144 320,320l0 640c0,176 -144,320 -320,320l-640 0 0 -1280zm1600 0l2560 0c176,0 320,144 320,320l0 640c0,176 -144,320 -320,320l-2560 0c-176,0 -320,-144 -320,-320l0 -640c0,-176 144,-320 320,-320zm1280 1600l2560 0c176,0 320,144 320,320l0 640c0,176 -144,320 -320,320l-2560 0c-176,0 -320,-144 -320,-320l0 -640c0,-176 144,-320 320,-320zm-2880 0l1920 0c176,0 320,144 320,320l0 640c0,176 -144,320 -320,320l-1920 0 0 -1280zm5120 -1600l640 0 0 1280 -640 0c-176,0 -320,-144 -320,-320l0 -640c0,-176 144,-320 320,-320zm-1280 -1600l1920 0 0 1280 -1920 0c-176,0 -320,-144 -320,-320l0 -640c0,-176 144,-320 320,-320z"/>
	<path id="curve0" fill="#FFFFFF" d="M3520 320c785,545 589,1119 480,1717 -284,1554 1680,1963 1440,0 524,546 960,1827 960,2644 0,40 -1,79 -2,119l-1596 0c-50,-133 -133,-266 -255,-393 -550,-576 -1310,-1041 -1109,-1997 -1281,1138 619,2181 0,2933 -331,402 -1227,492 -1497,-324 -516,1080 332,2134 1579,2134l0 0 0 527 0 0c-1920,0 -2880,-1644 -2880,-2999 0,-817 262,-1362 785,-1908 -523,1091 236,1936 786,1363 524,-545 -525,-1090 262,-2180 487,-676 1309,-546 1047,-1636zm28 5946c-128,-6 -256,-33 -382,-84 98,99 252,168 432,204 -21,-38 -38,-78 -50,-120z"/>
</svg>
