<?xml version="1.0" encoding="UTF-8"?>
<!DOCTYPE svg PUBLIC "-//W3C//DTD SVG 1.1//EN" "http://www.w3.org/Graphics/SVG/1.1/DTD/svg11.dtd">
<svg xmlns="http://www.w3.org/2000/svg" xml:space="preserve" width="1024px" height="1024px" shape-rendering="geometricPrecision" text-rendering="geometricPrecision" image-rendering="optimizeQuality" fill-rule="nonzero" clip-rule="evenodd" viewBox="0 0 10240 10240" xmlns:xlink="http://www.w3.org/1999/xlink">
	<title>fit_to_size icon</title>
	<desc>fit_to_size icon from the IconExperience.com O-Collection. Copyright by INCORS GmbH (www.incors.com).</desc>
	<path id="curve4" fill="#FFFFFF" d="M640 8320l640 0 0 -6400 -640 0 0 -640 640 0 0 -640 640 0 0 640 6400 0 0 -640 640 0 0 640 640 0 0 640 -640 0 0 6400 640 0 0 640 -640 0 0 640 -640 0 0 -640 -6400 0 0 640 -640 0 0 -640 -640 0 0 -640zm1280 -6400l0 2827c-157,94 -320,158 -320,373 0,215 163,279 320,373l0 2827 2827 0c94,157 158,320 373,320 215,0 279,-163 373,-320l2827 0 0 -2827c157,-94 320,-158 320,-373 0,-215 -163,-279 -320,-373l0 -2827 -2827 0c-94,-157 -158,-320 -373,-320 -215,0 -279,163 -373,320l-2827 0z"/>
	<path id="curve3" fill="#FFFFFF" d="M8320,5120 6720,4160 6720,6080z"/>
	<path id="curve2" fill="#FFFFFF" d="M5120,8320 6080,6720 4160,6720z"/>
	<path id="curve1" fill="#FFFFFF" d="M1920,5120 3520,4160 3520,6080z"/>
	<path id="curve0" fill="#FFFFFF" d="M5120,1920 6080,3520 4160,3520z"/>
</svg>
