<?xml version="1.0" encoding="UTF-8"?>
<!DOCTYPE svg PUBLIC "-//W3C//DTD SVG 1.1//EN" "http://www.w3.org/Graphics/SVG/1.1/DTD/svg11.dtd">
<svg xmlns="http://www.w3.org/2000/svg" xml:space="preserve" width="1024px" height="1024px" shape-rendering="geometricPrecision" text-rendering="geometricPrecision" image-rendering="optimizeQuality" fill-rule="nonzero" clip-rule="evenodd" viewBox="0 0 10240 10240" xmlns:xlink="http://www.w3.org/1999/xlink">
	<title>flashlight icon</title>
	<desc>flashlight icon from the IconExperience.com O-Collection. Copyright by INCORS GmbH (www.incors.com).</desc>
	<path id="curve2" fill="#FFFFFF" d="M7389 6258c250,249 199,705 -113,1018 -313,312 -769,363 -1018,113l0 0 1131 -1131 0 0zm113 1697c-125,-125 -125,-328 0,-453 125,-125 328,-125 453,0l678 679c125,125 125,327 0,452 -125,125 -327,125 -452,0l-679 -678zm603 -653c-163,-67 -241,-254 -174,-416 67,-163 254,-241 417,-174l874 362c163,67 241,253 174,416 -67,163 -254,241 -416,174l-875 -362zm305 -838c-176,0 -320,-143 -320,-320 0,-176 144,-320 320,-320l934 0c177,0 320,144 320,320 0,177 -143,320 -320,320l-934 0zm-1698 1884c-67,-163 11,-350 174,-417 162,-67 349,11 416,174l362 875c67,162 -11,349 -174,416 -163,67 -349,-11 -416,-174l-362 -874zm-888 62c0,-176 144,-320 320,-320 177,0 320,144 320,320l0 934c0,177 -143,320 -320,320 -176,0 -320,-143 -320,-320l0 -934z"/>
	<path id="curve1" fill="#FFFFFF" d="M4314 3635c191,192 191,502 0,694 -192,192 -503,192 -695,0 -191,-192 -191,-502 0,-694 192,-192 503,-192 695,0z"/>
	<path id="curve0" fill="#FFFFFF" d="M2411 827l2980 2980c125,125 277,188 453,188l375 0c176,0 328,63 452,187l944 944c125,125 125,328 0,453l-2036 2036c-125,125 -328,125 -453,0l-944 -944c-124,-124 -187,-276 -187,-452l0 -375c0,-176 -63,-328 -188,-453l-2980 -2980c-249,-249 -249,-656 0,-905l679 -679c249,-249 656,-249 905,0zm2129 2582c-317,-317 -830,-317 -1147,0 -317,316 -317,830 0,1146 317,317 830,317 1147,0 317,-316 317,-830 0,-1146z"/>
</svg>
