<?xml version="1.0" encoding="UTF-8"?>
<!DOCTYPE svg PUBLIC "-//W3C//DTD SVG 1.1//EN" "http://www.w3.org/Graphics/SVG/1.1/DTD/svg11.dtd">
<svg xmlns="http://www.w3.org/2000/svg" xml:space="preserve" width="1024px" height="1024px" shape-rendering="geometricPrecision" text-rendering="geometricPrecision" image-rendering="optimizeQuality" fill-rule="nonzero" clip-rule="evenodd" viewBox="0 0 10240 10240" xmlns:xlink="http://www.w3.org/1999/xlink">
	<title>folder3_music icon</title>
	<desc>folder3_music icon from the IconExperience.com O-Collection. Copyright by INCORS GmbH (www.incors.com).</desc>
	<path id="curve1" fill="#FFFFFF" d="M8960 4418l-3200 702 0 3440c0,530 -537,1113 -1200,1301 -663,188 -1200,-89 -1200,-619 0,-530 537,-1113 1200,-1301 202,-57 393,-72 560,-48l0 -3474c0,-153 104,-281 253,-313l3840 -823c200,-43 387,108 387,313l0 4324c0,530 -537,1113 -1200,1301 -663,188 -1200,-89 -1200,-619 0,-530 537,-1113 1200,-1301 202,-57 393,-72 560,-48l0 -2835z"/>
	<path id="curve0" fill="#FFFFFF" d="M1304 640l7336 0c176,0 320,144 320,320l0 1975c0,26 -1,51 -4,76l-906 194 270 -270c0,0 0,0 0,0 0,0 0,0 0,0l0 -1655 -640 0 0 2004 -1920 412 0 -176c0,-264 -157,-496 -402,-594l-4172 -1669c-144,-57 -225,-205 -195,-358 29,-151 158,-259 313,-259zm6376 4386l0 2269c-159,109 -306,239 -429,385l-1171 0 0 -2303 1600 -351zm-7040 -568l0 45 0 45 0 45 0 45 0 46 0 45 0 45 0 45 0 45 0 46 0 45 0 45 0 45 0 45 0 30 0 2230c0,401 231,743 603,891l1828 731c146,-645 796,-1167 1402,-1339 106,-30 216,-52 327,-63l0 -3151c0,-304 209,-563 506,-626l134 -29 0 -244c0,-134 -77,-248 -201,-297l-4197 -1669c-246,-98 -402,-336 -402,-594l0 3498z"/>
</svg>
