<?xml version="1.0" encoding="UTF-8"?>
<!DOCTYPE svg PUBLIC "-//W3C//DTD SVG 1.1//EN" "http://www.w3.org/Graphics/SVG/1.1/DTD/svg11.dtd">
<svg xmlns="http://www.w3.org/2000/svg" xml:space="preserve" width="1024px" height="1024px" shape-rendering="geometricPrecision" text-rendering="geometricPrecision" image-rendering="optimizeQuality" fill-rule="nonzero" clip-rule="evenodd" viewBox="0 0 10240 10240" xmlns:xlink="http://www.w3.org/1999/xlink">
	<title>folder3 icon</title>
	<desc>folder3 icon from the IconExperience.com O-Collection. Copyright by INCORS GmbH (www.incors.com).</desc>
	<path id="curve0" fill="#FFFFFF" d="M1944 640l7336 0c176,0 320,144 320,320l0 1975c0,176 -63,328 -187,452l-906 906c-124,124 -187,276 -187,452l0 2615c0,176 -144,320 -320,320l-1600 0 0 -4160c0,-264 -157,-496 -402,-594l-4172 -1669c-144,-57 -225,-205 -195,-358 29,-151 158,-259 313,-259zm6376 2935l640 -640c0,0 0,0 0,0 0,0 0,0 0,0l0 -1655 -640 0 0 2295zm-7040 883l0 45 0 45 0 45 0 45 0 46 0 45 0 45 0 45 0 45 0 46 0 45 0 45 0 45 0 45 0 30 0 2230c0,401 231,743 603,891l3758 1503c102,41 208,30 298,-32 91,-61 141,-155 141,-265l0 -5927c0,-134 -77,-248 -201,-297l-4197 -1669c-246,-98 -402,-336 -402,-594l0 3498z"/>
</svg>
