<?xml version="1.0" encoding="UTF-8"?>
<!DOCTYPE svg PUBLIC "-//W3C//DTD SVG 1.1//EN" "http://www.w3.org/Graphics/SVG/1.1/DTD/svg11.dtd">
<svg xmlns="http://www.w3.org/2000/svg" xml:space="preserve" width="1024px" height="1024px" shape-rendering="geometricPrecision" text-rendering="geometricPrecision" image-rendering="optimizeQuality" fill-rule="nonzero" clip-rule="evenodd" viewBox="0 0 10240 10240" xmlns:xlink="http://www.w3.org/1999/xlink">
	<title>folder_shared icon</title>
	<desc>folder_shared icon from the IconExperience.com O-Collection. Copyright by INCORS GmbH (www.incors.com).</desc>
	<path id="curve2" fill="#FFFFFF" d="M8960 6080l640 0 0 3840 -640 0c-352,0 -640,-287 -640,-640l0 -2560c0,-353 288,-640 640,-640z"/>
	<path id="curve1" fill="#FFFFFF" d="M3224 6971c105,-509 556,-891 1096,-891l1191 0c514,0 972,108 1431,338l199 99c282,141 544,203 859,203l0 640c-416,0 -773,-84 -1145,-270l-199 -100c-372,-186 -728,-270 -1145,-270l-1191 0c-265,0 -480,215 -480,480 0,265 215,480 480,480l1440 0c176,0 320,144 320,320 0,176 -144,320 -320,320l-1440 0c-422,0 -790,-234 -981,-580l-1340 -657c-237,-119 -526,-23 -644,215 -119,237 -22,525 215,643l2067 1053c377,191 739,278 1161,278l1467 0c111,0 209,8 317,-20l1418 -365 0 393c0,86 11,169 32,248l-1290 344c-173,45 -305,40 -477,40l-1467 0c-522,0 -986,-111 -1451,-348l-2068 -1052c-549,-280 -772,-949 -497,-1501 276,-551 946,-774 1499,-503l943 463z"/>
	<path id="curve0" fill="#FFFFFF" d="M2990 640c352,0 656,126 905,375l530 530c249,249 553,375 905,375l1710 0c353,0 640,288 640,640l0 320 -640 0 0 -320 -1710 0c-522,0 -988,-193 -1357,-562l-531 -531c-129,-129 -270,-187 -452,-187l-1709 0 -1 4884 1 0c-249,93 -473,254 -641,474l0 -5358c0,-353 287,-640 640,-640 783,0 927,0 1710,0zm4692 2560c352,1 638,288 638,640l0 2165c-119,107 -211,242 -265,395l-55 0c-264,0 -480,-51 -716,-169l-198 -99c-503,-252 -1013,-372 -1575,-372l-1191 0c-544,0 -1029,305 -1274,767l-624 -306c-162,-80 -332,-126 -502,-142l0 -2239c0,-353 287,-640 640,-640l5122 0z"/>
</svg>
