<?xml version="1.0" encoding="UTF-8"?>
<!DOCTYPE svg PUBLIC "-//W3C//DTD SVG 1.1//EN" "http://www.w3.org/Graphics/SVG/1.1/DTD/svg11.dtd">
<svg xmlns="http://www.w3.org/2000/svg" xml:space="preserve" width="1024px" height="1024px" shape-rendering="geometricPrecision" text-rendering="geometricPrecision" image-rendering="optimizeQuality" fill-rule="nonzero" clip-rule="evenodd" viewBox="0 0 10240 10240" xmlns:xlink="http://www.w3.org/1999/xlink">
	<title>folder_zip icon</title>
	<desc>folder_zip icon from the IconExperience.com O-Collection. Copyright by INCORS GmbH (www.incors.com).</desc>
	<path id="curve0" fill="#FFFFFF" d="M3630 1280c352,0 656,126 905,375l530 530c249,249 553,375 905,375l1710 0c353,0 640,288 640,640l0 320 -640 0 0 -320 -1710 0c-522,0 -988,-193 -1357,-562l-531 -531c-129,-129 -270,-187 -452,-187l-2349 0c-1,0 -1,0 -1,1l0 6079c0,176 144,320 320,320l0 0c176,0 320,-144 320,-320l0 -1920 640 0 0 320c0,176 144,320 320,320l0 0c176,0 320,-144 320,-320l0 -320 640 0 0 320c0,176 144,320 320,320l0 0c176,0 320,-144 320,-320l0 -320 640 0 0 320c0,176 144,320 320,320l0 0c176,0 320,-144 320,-320l0 -320 640 0 0 320c0,176 144,320 320,320l0 0c176,0 320,-144 320,-320l0 -320 25 0c61,215 232,384 460,441l642 161c107,26 201,38 311,38l482 0c353,0 640,-287 640,-640l0 -640c0,-352 -287,-640 -640,-640l-482 0c-110,0 -204,12 -311,38l-642 161c-228,57 -399,226 -460,441l-665 0 0 -320c0,-176 -144,-320 -320,-320l0 0c-176,0 -320,144 -320,320l0 320 -640 0 0 -320c0,-176 -144,-320 -320,-320l0 0c-176,0 -320,144 -320,320l0 320 -640 0 0 -320c0,-176 -144,-320 -320,-320l0 0c-176,0 -320,144 -320,320l0 320 -640 0 0 -320c0,-176 -144,-320 -320,-320l0 0c-176,0 -320,144 -320,320l0 -640c0,-353 287,-640 640,-640l5120 0 640 0 0 0c353,0 640,287 640,640l0 0 0 0c529,0 960,431 960,960l0 640c0,529 -431,960 -960,960l0 0 0 640c0,705 -575,1280 -1280,1280l-6080 0c-529,0 -960,-431 -960,-960 0,-2027 0,-4053 0,-6080 0,-353 287,-640 640,-640 783,0 1567,0 2350,0zm4491 4731l259 64c13,4 25,5 38,5l382 0c88,0 160,-72 160,-160 0,-98 0,-222 0,-320 0,-88 -72,-160 -160,-160 -135,0 -318,0 -382,0 -13,0 -25,1 -38,5l-259 64c-72,18 -121,81 -121,156l0 190c0,75 49,138 121,156z"/>
</svg>
