<?xml version="1.0" encoding="UTF-8"?>
<!DOCTYPE svg PUBLIC "-//W3C//DTD SVG 1.1//EN" "http://www.w3.org/Graphics/SVG/1.1/DTD/svg11.dtd">
<svg xmlns="http://www.w3.org/2000/svg" xml:space="preserve" width="1024px" height="1024px" shape-rendering="geometricPrecision" text-rendering="geometricPrecision" image-rendering="optimizeQuality" fill-rule="nonzero" clip-rule="evenodd" viewBox="0 0 10240 10240" xmlns:xlink="http://www.w3.org/1999/xlink">
	<title>font_style_subscript icon</title>
	<desc>font_style_subscript icon from the IconExperience.com O-Collection. Copyright by INCORS GmbH (www.incors.com).</desc>
	<path id="curve1" fill="#FFFFFF" d="M6722 9119c1,-140 61,-279 179,-374l748 -598c315,-252 977,-679 978,-1085 0,-230 -303,-344 -499,-346 -314,-2 -448,203 -448,509l-960 0c0,-861 561,-1472 1416,-1465 734,6 1449,512 1447,1302 -1,732 -540,1218 -1002,1577l1019 0 0 960 -2880 0 2 -480z"/>
	<path id="curve0" fill="#FFFFFF" d="M6442 3458l-1712 2207 1859 2397c39,49 45,112 17,168 -27,57 -81,90 -143,90l-1871 0 -960 -1238 -961 1238 -1870 0c-63,0 -117,-33 -144,-90 -28,-56 -21,-119 17,-168l1859 -2397 -1712 -2207c-38,-49 -45,-112 -17,-168 27,-57 81,-90 144,-90l1871 0 813 1048 813 -1048 1871 0c62,0 116,33 143,90 28,56 21,119 -17,168z"/>
</svg>
