<?xml version="1.0" encoding="UTF-8"?>
<!DOCTYPE svg PUBLIC "-//W3C//DTD SVG 1.1//EN" "http://www.w3.org/Graphics/SVG/1.1/DTD/svg11.dtd">
<svg xmlns="http://www.w3.org/2000/svg" xml:space="preserve" width="1024px" height="1024px" shape-rendering="geometricPrecision" text-rendering="geometricPrecision" image-rendering="optimizeQuality" fill-rule="nonzero" clip-rule="evenodd" viewBox="0 0 10240 10240" xmlns:xlink="http://www.w3.org/1999/xlink">
	<title>selection_view icon</title>
	<desc>selection_view icon from the IconExperience.com O-Collection. Copyright by INCORS GmbH (www.incors.com).</desc>
	<path id="curve2" fill="#FFFFFF" d="M4480 2560c1060,0 1920,860 1920,1920 0,415 -131,799 -355,1113l261 261 3 11 -443 442 -12 -1 -261 -261c-314,224 -698,355 -1113,355 -1060,0 -1920,-860 -1920,-1920 0,-1060 860,-1920 1920,-1920zm0 640c-707,0 -1280,573 -1280,1280 0,707 573,1280 1280,1280 707,0 1280,-573 1280,-1280 0,-707 -573,-1280 -1280,-1280z"/>
	<path id="curve1" fill="#FFFFFF" d="M5854 6306l452 -452c125,-125 328,-125 453,0l1147 1147c125,125 125,328 0,453l-452 452c-125,125 -328,125 -453,0l-1147 -1147c-125,-125 -125,-328 0,-453z"/>
	<path id="curve0" fill="#FFFFFF" d="M1280 1280l640 0 0 640 -640 0 0 -640zm7040 0l640 0 0 640 -640 0 0 -640zm0 7040l640 0 0 640 -640 0 0 -640zm-1920 640l1280 0 0 -640 -1280 0 0 640zm-1920 0l1280 0 0 -640 -1280 0 0 640zm-1920 0l1280 0 0 -640 -1280 0 0 640zm-1280 -640l640 0 0 640 -640 0 0 -640zm5120 -6400l1280 0 0 -640 -1280 0 0 640zm-1920 0l1280 0 0 -640 -1280 0 0 640zm3840 2560l640 0 0 1280 -640 0 0 -1280zm0 -1920l640 0 0 1280 -640 0 0 -1280zm0 3840l640 0 0 1280 -640 0 0 -1280zm-7040 -1920l640 0 0 1280 -640 0 0 -1280zm1280 -2560l1280 0 0 -640 -1280 0 0 640zm-1280 640l640 0 0 1280 -640 0 0 -1280zm0 3840l640 0 0 1280 -640 0 0 -1280z"/>
</svg>
