<?xml version="1.0" encoding="UTF-8"?>
<!DOCTYPE svg PUBLIC "-//W3C//DTD SVG 1.1//EN" "http://www.w3.org/Graphics/SVG/1.1/DTD/svg11.dtd">
<svg xmlns="http://www.w3.org/2000/svg" xml:space="preserve" width="1024px" height="1024px" shape-rendering="geometricPrecision" text-rendering="geometricPrecision" image-rendering="optimizeQuality" fill-rule="nonzero" clip-rule="evenodd" viewBox="0 0 10240 10240" xmlns:xlink="http://www.w3.org/1999/xlink">
	<title>server_mail icon</title>
	<desc>server_mail icon from the IconExperience.com O-Collection. Copyright by INCORS GmbH (www.incors.com).</desc>
	<path id="curve4" fill="#FFFFFF" d="M3200 4480l5760 0c353,0 640,288 640,640l0 3840c0,352 -288,640 -640,640l-5760 0c-352,0 -640,-287 -640,-640l0 -3840c0,-352 287,-640 640,-640zm4157 2588l1603 1446 0 -3095 -2728 2325c-106,99 -269,98 -373,0l-2659 -2318 0 3088 1576 -1424 169 161 -1682 1709 5634 0 -1709 -1734 169 -158zm-3884 -1948l2607 1920 2607 -1920 -5214 0z"/>
	<path id="curve3" fill="#FFFFFF" d="M1600,5440 2240,5440 2240,6080 1600,6080z"/>
	<path id="curve2" fill="#FFFFFF" d="M1600 3840l2560 0 0 320 -960 0c-284,0 -539,124 -715,320l-885 0 0 -640z"/>
	<path id="curve1" fill="#FFFFFF" d="M1600,2240 4160,2240 4160,2880 1600,2880z"/>
	<path id="curve0" fill="#FFFFFF" d="M960 640l3840 0c176,0 320,144 320,320l0 3200 -640 0 0 -640 -3200 0 0 1280 1015 0c-36,100 -55,208 -55,320l-960 0 0 1280 960 0 0 640 -1600 0 0 -6080c0,-176 144,-320 320,-320zm3200 320c-177,0 -320,143 -320,320 0,177 143,320 320,320 177,0 320,-143 320,-320 0,-177 -143,-320 -320,-320zm-2880 960l0 1280 3200 0 0 -1280 -3200 0z"/>
</svg>
