<?xml version="1.0" encoding="UTF-8"?>
<!DOCTYPE svg PUBLIC "-//W3C//DTD SVG 1.1//EN" "http://www.w3.org/Graphics/SVG/1.1/DTD/svg11.dtd">
<svg xmlns="http://www.w3.org/2000/svg" xml:space="preserve" width="1024px" height="1024px" shape-rendering="geometricPrecision" text-rendering="geometricPrecision" image-rendering="optimizeQuality" fill-rule="nonzero" clip-rule="evenodd" viewBox="0 0 10240 10240" xmlns:xlink="http://www.w3.org/1999/xlink">
	<title>server_cloud icon</title>
	<desc>server_cloud icon from the IconExperience.com O-Collection. Copyright by INCORS GmbH (www.incors.com).</desc>
	<path id="curve4" fill="#FFFFFF" d="M1600,8000 4160,8000 4160,8640 1600,8640z"/>
	<path id="curve3" fill="#FFFFFF" d="M1600,6400 4160,6400 4160,7040 1600,7040z"/>
	<path id="curve2" fill="#FFFFFF" d="M1600,4800 4160,4800 4160,5440 1600,5440z"/>
	<path id="curve1" fill="#FFFFFF" d="M960 3200l3840 0c176,0 320,144 320,320l0 6080 -4480 0 0 -6080c0,-176 144,-320 320,-320zm3200 320c-177,0 -320,143 -320,320 0,177 143,320 320,320 177,0 320,-143 320,-320 0,-177 -143,-320 -320,-320zm-2880 960l0 1280 3200 0 0 -1280 -3200 0zm0 3200l0 1280 3200 0 0 -1280 -3200 0zm0 -1600l0 1280 3200 0 0 -1280 -3200 0z"/>
	<path id="curve0" fill="#FFFFFF" d="M9253 2852c408,293 667,771 667,1300 0,883 -716,1598 -1599,1600l-2881 5 0 -640 2880 -5c530,-1 960,-430 960,-960 0,-467 -333,-856 -775,-942 73,-148 113,-314 113,-490 0,-619 -501,-1120 -1120,-1120 -344,0 -651,155 -857,399 -173,-600 -727,-1039 -1383,-1039 -795,0 -1440,645 -1440,1440 0,67 5,133 14,197 -211,52 -401,148 -556,283l-814 0c169,-300 419,-547 729,-717 118,-1037 999,-1843 2067,-1843 636,0 1220,289 1606,758 200,-77 414,-118 634,-118 972,0 1760,788 1760,1760 0,44 -2,88 -5,132z"/>
</svg>
