<?xml version="1.0" encoding="UTF-8"?>
<!DOCTYPE svg PUBLIC "-//W3C//DTD SVG 1.1//EN" "http://www.w3.org/Graphics/SVG/1.1/DTD/svg11.dtd">
<svg xmlns="http://www.w3.org/2000/svg" xml:space="preserve" width="1024px" height="1024px" shape-rendering="geometricPrecision" text-rendering="geometricPrecision" image-rendering="optimizeQuality" fill-rule="nonzero" clip-rule="evenodd" viewBox="0 0 10240 10240" xmlns:xlink="http://www.w3.org/1999/xlink">
	<title>service_bell icon</title>
	<desc>service_bell icon from the IconExperience.com O-Collection. Copyright by INCORS GmbH (www.incors.com).</desc>
	<path id="curve2" fill="#FFFFFF" d="M1600 8320l7040 0c136,272 272,545 408,817 52,102 46,214 -14,311 -60,97 -158,152 -272,152l-7284 0c-114,0 -212,-55 -272,-152 -60,-97 -65,-209 -14,-311 136,-272 272,-545 408,-817z"/>
	<path id="curve1" fill="#FFFFFF" d="M4800 3200l640 0c149,0 275,155 310,363 1365,189 2417,998 2555,2236 23,213 88,390 207,568 113,171 227,341 341,512 73,110 107,223 107,355l0 126 0 320c0,176 -144,320 -320,320l-7040 0c-176,0 -320,-144 -320,-320 0,-149 0,-297 0,-446 0,-132 34,-245 107,-355 114,-171 228,-341 341,-512 119,-178 184,-355 207,-568 138,-1238 1190,-2047 2555,-2236 35,-208 161,-363 310,-363zm3520 4034c0,0 -312,-468 -341,-512 -175,-262 -276,-538 -310,-852 -138,-1235 -1461,-1710 -2549,-1710 -1088,0 -2411,475 -2549,1710 -34,314 -135,590 -310,852 -114,171 -227,341 -341,512 0,42 0,84 0,126l6400 0c0,-42 0,-84 0,-126z"/>
	<path id="curve0" fill="#FFFFFF" d="M4480,2560 5760,2560 5760,2880 5440,2880 5440,3200 4800,3200 4800,2880 4480,2880z"/>
</svg>
