<?xml version="1.0" encoding="UTF-8"?>
<!DOCTYPE svg PUBLIC "-//W3C//DTD SVG 1.1//EN" "http://www.w3.org/Graphics/SVG/1.1/DTD/svg11.dtd">
<svg xmlns="http://www.w3.org/2000/svg" xml:space="preserve" width="1024px" height="1024px" shape-rendering="geometricPrecision" text-rendering="geometricPrecision" image-rendering="optimizeQuality" fill-rule="nonzero" clip-rule="evenodd" viewBox="0 0 10240 10240" xmlns:xlink="http://www.w3.org/1999/xlink">
	<title>server_out icon</title>
	<desc>server_out icon from the IconExperience.com O-Collection. Copyright by INCORS GmbH (www.incors.com).</desc>
	<path id="curve5" fill="#FFFFFF" d="M2250 7350l4480 0 0 10 -330 0c-173,0 -315,138 -320,310 -172,5 -310,147 -310,320 0,173 138,315 310,320l0 320 -3830 0 0 -1280z"/>
	<path id="curve4" fill="#FFFFFF" d="M2240 5120l4480 0 0 1280 -4480 0 0 -1280zm3830 330c-177,0 -320,143 -320,320 0,177 143,320 320,320 177,0 320,-143 320,-320 0,-177 -143,-320 -320,-320z"/>
	<path id="curve3" fill="#FFFFFF" d="M2240 2880l4480 0 0 1280 -4480 0 0 -1280zm3840 320c-177,0 -320,143 -320,320 0,177 143,320 320,320 177,0 320,-143 320,-320 0,-177 -143,-320 -320,-320z"/>
	<path id="curve2" fill="#FFFFFF" d="M6400 1280c177,0 320,143 320,320 0,177 -143,320 -320,320 -177,0 -320,-143 -320,-320 0,-177 143,-320 320,-320z"/>
	<path id="curve1" fill="#FFFFFF" d="M1600 640l5760 0c176,0 320,144 320,320l0 4366 -482 557c-103,119 -158,263 -158,421l0 -1504 -5120 0 0 1920 5120 0 0 320 0 320 122 0c-77,-86 -122,-199 -122,-320l-5120 0 0 1920 4480 0 640 0 640 0 0 0 0 640 -6400 0 0 -8640c0,-176 144,-320 320,-320zm320 1920l0 1920 5120 0 0 -1920 -5120 0zm4480 -1600c-353,0 -640,287 -640,640 0,353 287,640 640,640 353,0 640,-287 640,-640 0,-353 -287,-640 -640,-640z"/>
	<path id="curve0" fill="#FFFFFF" d="M7360 6304l0 736c0,68 40,126 103,150 64,24 133,8 177,-44l360 -426 0 640c0,176 -144,320 -320,320l-1280 0 0 960 1280 0c705,0 1280,-575 1280,-1280l0 -320 0 -320 360 426c44,52 113,68 177,44 63,-24 103,-82 103,-150l0 -736c0,-81 -28,-150 -80,-212l-787 -930c-129,-154 -355,-153 -487,-1l-806 931c-53,62 -80,131 -80,212z"/>
</svg>
