<?xml version="1.0" encoding="UTF-8"?>
<!DOCTYPE svg PUBLIC "-//W3C//DTD SVG 1.1//EN" "http://www.w3.org/Graphics/SVG/1.1/DTD/svg11.dtd">
<svg xmlns="http://www.w3.org/2000/svg" xml:space="preserve" width="1024px" height="1024px" shape-rendering="geometricPrecision" text-rendering="geometricPrecision" image-rendering="optimizeQuality" fill-rule="nonzero" clip-rule="evenodd" viewBox="0 0 10240 10240" xmlns:xlink="http://www.w3.org/1999/xlink">
	<title>server_earth icon</title>
	<desc>server_earth icon from the IconExperience.com O-Collection. Copyright by INCORS GmbH (www.incors.com).</desc>
	<path id="curve4" fill="#FFFFFF" d="M6071 311c2121,0 3840,1719 3840,3840 0,2121 -1719,3840 -3840,3840 -215,0 -426,-18 -631,-52l0 -650c204,41 415,62 631,62 1768,0 3200,-1432 3200,-3200 0,-195 -17,-385 -51,-570 -10,-5 -20,-6 -29,-3 -56,17 -60,193 -120,294 -49,82 -158,91 -176,115 -118,160 276,289 105,511 -73,95 -296,310 -356,588 -127,591 -43,235 -233,708 -29,70 -79,343 -119,404 -182,276 -695,591 -820,432 -73,-92 -117,-231 -140,-364 -23,-132 -162,-302 -148,-407 22,-164 35,-217 39,-404 0,-8 -113,-463 -132,-503 -83,-179 -221,-259 -415,-192 -152,52 -279,-24 -399,-72 -238,-97 -350,-409 -400,-665 0,-1 37,-401 38,-422 8,-106 57,-206 113,-287 430,-615 330,-351 884,-550 91,-33 227,-39 276,-22 247,86 235,340 489,383 29,5 161,-76 191,-71 156,28 304,175 440,105 82,-41 124,-195 52,-250 -71,-53 -179,-14 -256,-69 -113,-80 -207,33 -302,-76 -42,-49 -118,-202 -174,-283 -60,-86 -240,-51 -211,-11 93,124 229,144 247,213 19,75 -175,174 -123,38 27,-71 -112,-116 -273,-201 -85,-44 -167,-158 -295,-97 -62,31 -182,180 -229,251 -81,121 -265,88 -389,28 -122,-60 -125,-355 34,-484 152,-123 277,-48 425,-90 60,-17 90,-82 181,-143 107,-72 -66,-186 -9,-302 47,-95 204,-114 287,-155 78,-39 166,-103 251,-53 117,70 244,77 360,149 118,73 214,124 317,139 -494,-441 -1126,-731 -1824,-797 95,103 185,243 146,330 -53,118 -130,267 -361,353 -171,63 -396,66 -567,140 -178,77 -355,71 -457,95 -160,37 8,-527 -39,-590 -69,-94 -496,-14 -533,83 -85,226 115,417 106,461 -18,86 -16,427 -97,515 -124,134 -438,254 -480,260 -158,23 -222,153 -314,267l-1334 0c525,-1496 1949,-2569 3624,-2569z"/>
	<path id="curve3" fill="#FFFFFF" d="M1600,8000 4160,8000 4160,8640 1600,8640z"/>
	<path id="curve2" fill="#FFFFFF" d="M1600,6400 4160,6400 4160,7040 1600,7040z"/>
	<path id="curve1" fill="#FFFFFF" d="M1600,4800 4160,4800 4160,5440 1600,5440z"/>
	<path id="curve0" fill="#FFFFFF" d="M960 3200l3840 0c176,0 320,144 320,320l0 6080 -4480 0 0 -6080c0,-176 144,-320 320,-320zm3200 320c-177,0 -320,143 -320,320 0,177 143,320 320,320 177,0 320,-143 320,-320 0,-177 -143,-320 -320,-320zm-2880 960l0 1280 3200 0 0 -1280 -3200 0zm0 3200l0 1280 3200 0 0 -1280 -3200 0zm0 -1600l0 1280 3200 0 0 -1280 -3200 0z"/>
</svg>
