<?xml version="1.0" encoding="UTF-8"?>
<!DOCTYPE svg PUBLIC "-//W3C//DTD SVG 1.1//EN" "http://www.w3.org/Graphics/SVG/1.1/DTD/svg11.dtd">
<svg xmlns="http://www.w3.org/2000/svg" xml:space="preserve" width="1024px" height="1024px" shape-rendering="geometricPrecision" text-rendering="geometricPrecision" image-rendering="optimizeQuality" fill-rule="nonzero" clip-rule="evenodd" viewBox="0 0 10240 10240" xmlns:xlink="http://www.w3.org/1999/xlink">
	<title>sewing_machine icon</title>
	<desc>sewing_machine icon from the IconExperience.com O-Collection. Copyright by INCORS GmbH (www.incors.com).</desc>
	<path id="curve2" fill="#FFFFFF" d="M640,8320 9600,8320 9600,9600 640,9600z"/>
	<path id="curve1" fill="#FFFFFF" d="M1691,5760 1920,7360 2149,5760z"/>
	<path id="curve0" fill="#FFFFFF" d="M1600 1280l6080 0c1058,0 1920,863 1920,1920l0 4800 -3840 0c320,0 640,-640 640,-1280l0 -1600c0,-705 -575,-1280 -1280,-1280l-1920 0 0 320c0,352 -288,1280 -640,1280l-1280 0c-352,0 -640,-927 -640,-1280l0 -1920c0,-529 431,-960 960,-960zm6080 960c-530,0 -960,430 -960,960 0,530 430,960 960,960 530,0 960,-430 960,-960 0,-530 -430,-960 -960,-960z"/>
</svg>
