<?xml version="1.0" encoding="UTF-8"?>
<!DOCTYPE svg PUBLIC "-//W3C//DTD SVG 1.1//EN" "http://www.w3.org/Graphics/SVG/1.1/DTD/svg11.dtd">
<svg xmlns="http://www.w3.org/2000/svg" xml:space="preserve" width="1024px" height="1024px" shape-rendering="geometricPrecision" text-rendering="geometricPrecision" image-rendering="optimizeQuality" fill-rule="nonzero" clip-rule="evenodd" viewBox="0 0 10240 10240" xmlns:xlink="http://www.w3.org/1999/xlink">
	<title>shape_octagon icon</title>
	<desc>shape_octagon icon from the IconExperience.com O-Collection. Copyright by INCORS GmbH (www.incors.com).</desc>
	<path id="curve0" fill="#FFFFFF" d="M3662 1280l2916 0c88,0 164,31 226,94l2062 2062c63,62 94,138 94,226l0 2916c0,88 -31,164 -94,226l-2062 2062c-62,63 -138,94 -226,94l-2916 0c-88,0 -164,-31 -226,-94l-2062 -2062c-63,-62 -94,-138 -94,-226l0 -2916c0,-88 31,-164 94,-226l2062 -2062c62,-63 138,-94 226,-94zm133 640l-1875 1875 0 2650 1875 1875 2650 0 1875 -1875 0 -2650 -1875 -1875 -2650 0z"/>
</svg>
