<?xml version="1.0" encoding="UTF-8"?>
<!DOCTYPE svg PUBLIC "-//W3C//DTD SVG 1.1//EN" "http://www.w3.org/Graphics/SVG/1.1/DTD/svg11.dtd">
<svg xmlns="http://www.w3.org/2000/svg" xml:space="preserve" width="1024px" height="1024px" shape-rendering="geometricPrecision" text-rendering="geometricPrecision" image-rendering="optimizeQuality" fill-rule="nonzero" clip-rule="evenodd" viewBox="0 0 10240 10240" xmlns:xlink="http://www.w3.org/1999/xlink">
	<title>ship2 icon</title>
	<desc>ship2 icon from the IconExperience.com O-Collection. Copyright by INCORS GmbH (www.incors.com).</desc>
	<path id="curve2" fill="#FFFFFF" d="M1760 8300c218,394 639,660 1120,660 481,0 897,-264 1117,-654 218,394 640,654 1123,654 483,0 903,-262 1120,-659 219,393 638,659 1120,659 482,0 902,-266 1120,-660 218,394 638,660 1120,660l0 640c-410,0 -799,-130 -1120,-360 -321,230 -710,360 -1120,360 -408,0 -797,-129 -1117,-358 -321,233 -711,358 -1123,358 -411,0 -805,-124 -1126,-356 -320,228 -707,356 -1114,356 -410,0 -799,-130 -1120,-360 -321,230 -710,360 -1120,360l0 -640c482,0 902,-266 1120,-660z"/>
	<path id="curve1" fill="#FFFFFF" d="M960 7360c0,-922 2654,-1548 3999,-1597l0 2864c-286,-47 -539,-217 -683,-476 -57,-104 -159,-164 -278,-165 -120,0 -222,60 -280,163 -171,304 -489,491 -838,491 -350,0 -671,-190 -840,-495 -58,-105 -161,-165 -280,-165 -119,0 -222,60 -280,165 -116,208 -302,363 -520,440l0 -1225zm4319 -1597c1344,46 4001,650 4001,1597l0 1225c-218,-77 -404,-232 -520,-440 -58,-105 -161,-165 -280,-165 -119,0 -222,60 -280,165 -169,305 -490,495 -840,495 -350,0 -670,-190 -840,-495 -58,-104 -161,-165 -281,-164 -119,0 -222,61 -279,166 -143,261 -394,433 -681,480l0 -2864z"/>
	<path id="curve0" fill="#FFFFFF" d="M2560 3200l2399 0 0 -960 -1119 0 0 -320 2560 0 0 320 -1121 0 0 960 2401 0c176,0 320,144 320,320l0 320 -320 0 0 640 49 0c158,0 290,112 316,267l218 1309c-421,-168 -850,-281 -1137,-349 -629,-148 -1359,-267 -2006,-267 -647,0 -1381,124 -2009,275 -284,69 -714,183 -1136,353l220 -1321c26,-155 158,-267 316,-267l49 0 0 -640 -320 0 0 -320c0,-176 144,-320 320,-320zm4480 640l-640 0 0 640 640 0 0 -640zm-3840 0l0 640 640 0 0 -640 -640 0zm2237 0l-637 0 0 640 637 0 0 -640z"/>
</svg>
