<?xml version="1.0" encoding="UTF-8"?>
<!DOCTYPE svg PUBLIC "-//W3C//DTD SVG 1.1//EN" "http://www.w3.org/Graphics/SVG/1.1/DTD/svg11.dtd">
<svg xmlns="http://www.w3.org/2000/svg" xml:space="preserve" width="1024px" height="1024px" shape-rendering="geometricPrecision" text-rendering="geometricPrecision" image-rendering="optimizeQuality" fill-rule="nonzero" clip-rule="evenodd" viewBox="0 0 10240 10240" xmlns:xlink="http://www.w3.org/1999/xlink">
	<title>sickle icon</title>
	<desc>sickle icon from the IconExperience.com O-Collection. Copyright by INCORS GmbH (www.incors.com).</desc>
	<path id="curve1" fill="#FFFFFF" d="M3700 6540l-1780 1780c-249,249 -656,249 -905,0l-55 -55c-249,-249 -249,-656 0,-905l1762 -1762c122,-122 319,-126 445,-8l525 490c66,62 100,139 101,229 2,90 -30,168 -93,231z"/>
	<path id="curve0" fill="#FFFFFF" d="M8553 2327c1250,1250 1351,3175 226,4299 -1124,1125 -3008,981 -4299,-226l-1328 -1241 437 -467c241,-258 647,-272 905,-31l860 804c653,610 1807,969 2520,256 701,-701 448,-1879 -194,-2521 -495,-495 -1466,-1251 -2153,-1685 -60,-38 -87,-108 -69,-176 18,-69 76,-116 146,-119 1395,-72 2572,730 2949,1107z"/>
</svg>
