<?xml version="1.0" encoding="UTF-8"?>
<!DOCTYPE svg PUBLIC "-//W3C//DTD SVG 1.1//EN" "http://www.w3.org/Graphics/SVG/1.1/DTD/svg11.dtd">
<svg xmlns="http://www.w3.org/2000/svg" xml:space="preserve" width="1024px" height="1024px" shape-rendering="geometricPrecision" text-rendering="geometricPrecision" image-rendering="optimizeQuality" fill-rule="nonzero" clip-rule="evenodd" viewBox="0 0 10240 10240" xmlns:xlink="http://www.w3.org/1999/xlink">
	<title>signboard_for_rent icon</title>
	<desc>signboard_for_rent icon from the IconExperience.com O-Collection. Copyright by INCORS GmbH (www.incors.com).</desc>
	<path id="curve2" fill="#FFFFFF" d="M4480,7360 5760,7360 5760,9920 4480,9920z"/>
	<path id="curve1" fill="#FFFFFF" d="M2240 4160l800 0c265,0 480,274 480,480 0,206 -66,278 -170,366 105,115 170,267 170,434l0 320 -320 0 0 -320c0,-176 -144,-320 -320,-320l-320 0 0 640 -320 0 0 -1600zm800 640c88,0 160,-72 160,-160 0,-88 -72,-160 -160,-160l-480 0 0 320 480 0zm3360 -640l320 0 0 1600 -276 0c-28,0 -52,-14 -68,-37l-616 -969 0 1006 -320 0 0 -1600 276 0c28,0 52,13 68,37l616 969 0 -1006zm960 1600l0 -1280 -320 0 0 -320 960 0 0 320 -320 0 0 1280 -320 0zm-2240 -1600l0 320 -960 0 0 320 640 0 0 320 -640 0 0 320 960 0 0 320c-400,0 -800,0 -1200,0 -44,0 -80,-36 -80,-80l0 -1440c0,-44 36,-80 80,-80 400,0 800,0 1200,0zm960 -2240l800 0c265,0 480,274 480,480 0,206 -66,278 -170,366 105,115 170,267 170,434l0 320 -320 0 0 -320c0,-176 -144,-320 -320,-320l-320 0 0 640 -320 0 0 -1600zm800 640c88,0 160,-72 160,-160 0,-88 -72,-160 -160,-160l-480 0 0 320 480 0zm-1760 960c353,0 640,-287 640,-640l0 -320c0,-353 -287,-640 -640,-640 -353,0 -640,287 -640,640l0 320c0,353 287,640 640,640zm320 -640c0,177 -143,320 -320,320 -177,0 -320,-143 -320,-320l0 -320c0,-177 143,-320 320,-320 177,0 320,143 320,320l0 320zm-1280 -960l0 320 -960 0 0 320 640 0 0 320 -640 0 0 640 -320 0 0 -1520c0,-44 36,-80 80,-80 400,0 800,0 1200,0z"/>
	<path id="curve0" fill="#FFFFFF" d="M960 640l8320 0c176,0 320,144 320,320l0 5760c0,176 -144,320 -320,320l-8320 0c-176,0 -320,-144 -320,-320l0 -5760c0,-176 144,-320 320,-320zm320 640l0 5120 7680 0 0 -5120 -7680 0z"/>
</svg>
