<?xml version="1.0" encoding="UTF-8"?>
<!DOCTYPE svg PUBLIC "-//W3C//DTD SVG 1.1//EN" "http://www.w3.org/Graphics/SVG/1.1/DTD/svg11.dtd">
<svg xmlns="http://www.w3.org/2000/svg" xml:space="preserve" width="1024px" height="1024px" shape-rendering="geometricPrecision" text-rendering="geometricPrecision" image-rendering="optimizeQuality" fill-rule="nonzero" clip-rule="evenodd" viewBox="0 0 10240 10240" xmlns:xlink="http://www.w3.org/1999/xlink">
	<title>signal_flag_checkered icon</title>
	<desc>signal_flag_checkered icon from the IconExperience.com O-Collection. Copyright by INCORS GmbH (www.incors.com).</desc>
	<path id="curve1" fill="#FFFFFF" d="M3520 2092c103,17 210,31 320,42l0 1280c418,40 873,34 1280,-18l0 -1280c305,-40 583,-105 800,-196 138,-58 301,-106 480,-143l0 1280c-179,37 -342,85 -480,143 -217,91 -495,156 -800,196l0 1280c305,-40 583,-105 800,-196 138,-58 301,-106 480,-143l0 1280c-179,37 -342,85 -480,143 -217,91 -495,156 -800,196l0 -1280c-407,52 -862,58 -1280,18l0 1280c-110,-11 -217,-25 -320,-42l0 -1280c103,17 210,31 320,42l0 -1280c-110,-11 -217,-25 -320,-42l0 -1280zm4160 -407c487,19 953,97 1280,235l0 1280c-327,-138 -793,-216 -1280,-235l0 1280c409,17 900,75 1280,235l0 1280c-327,-137 -793,-216 -1280,-235l0 -1280c-440,-18 -897,13 -1280,92l0 -1280c383,-79 840,-110 1280,-92l0 -1280z"/>
	<path id="curve0" fill="#FFFFFF" d="M2720 640c442,0 800,448 800,800 0,352 -126,494 -320,640l0 7520 -960 0 0 -7520c-194,-146 -320,-288 -320,-640 0,-352 358,-800 800,-800z"/>
</svg>
