<?xml version="1.0" encoding="UTF-8"?>
<!DOCTYPE svg PUBLIC "-//W3C//DTD SVG 1.1//EN" "http://www.w3.org/Graphics/SVG/1.1/DTD/svg11.dtd">
<svg xmlns="http://www.w3.org/2000/svg" xml:space="preserve" width="1024px" height="1024px" shape-rendering="geometricPrecision" text-rendering="geometricPrecision" image-rendering="optimizeQuality" fill-rule="nonzero" clip-rule="evenodd" viewBox="0 0 10240 10240" xmlns:xlink="http://www.w3.org/1999/xlink">
	<title>snowflake icon</title>
	<desc>snowflake icon from the IconExperience.com O-Collection. Copyright by INCORS GmbH (www.incors.com).</desc>
	<path id="curve0" fill="#FFFFFF" d="M4960 640l320 0c88,0 160,72 160,160l0 615 650 -375c76,-44 174,-18 219,59l160 277c44,76 17,174 -59,218l-970 560 0 861 863 -498c102,-59 218,-59 320,0 102,59 160,160 160,277l0 997 745 -431 0 -1120c0,-88 72,-160 160,-160l320 0c89,0 160,72 160,160l0 750 533 -307c77,-44 175,-18 219,58l160 278c44,76 18,174 -59,218l-533 308 650 375c77,44 103,142 59,219l-160 277c-44,76 -142,102 -219,58l-970 -560 -745 431 863 498c101,59 160,160 160,277 0,117 -59,218 -160,277l-863 498 745 431 970 -560c77,-44 175,-18 219,58l160 277c44,77 18,175 -59,219l-650 375 533 308c77,44 103,142 59,218l-160 278c-44,76 -142,102 -219,58l-533 -307 0 750c0,88 -71,160 -160,160l-320 0c-88,0 -160,-72 -160,-160l0 -1120 -745 -430 0 996c0,117 -58,218 -160,277 -102,59 -218,59 -320,0l-863 -498 0 861 970 560c76,44 103,142 59,218l-160 277c-45,77 -143,103 -219,59l-650 -375 0 615c0,88 -72,160 -160,160l-320 0c-88,0 -160,-72 -160,-160l0 -615 -650 375c-76,44 -174,18 -219,-59l-160 -277c-44,-76 -17,-174 59,-218l970 -560 0 -861 -863 498c-102,59 -218,59 -320,0 -102,-59 -160,-160 -160,-277l0 -997 -745 431 0 1120c0,88 -72,160 -160,160l-320 0c-89,0 -160,-72 -160,-160l0 -750 -533 307c-77,44 -175,18 -219,-58l-160 -278c-44,-76 -18,-174 59,-218l533 -308 -650 -375c-77,-44 -103,-142 -59,-219l160 -277c44,-76 142,-102 219,-58l970 560 745 -431 -863 -498c-101,-59 -160,-160 -160,-277 0,-118 59,-218 160,-277l863 -498 -745 -431 -970 560c-77,44 -175,18 -219,-58l-160 -277c-44,-77 -18,-175 59,-219l650 -375 -533 -308c-77,-44 -103,-142 -59,-218l160 -278c44,-76 142,-102 219,-58l533 307 0 -750c0,-88 71,-160 160,-160l320 0c88,0 160,72 160,160l0 1120 745 430 0 -996c0,-117 58,-218 160,-277 102,-59 218,-59 320,0l863 498 0 -861 -970 -560c-76,-44 -103,-142 -59,-218l160 -277c45,-77 143,-103 219,-59l650 375 0 -615c0,-88 72,-160 160,-160zm-800 4295l-383 -221 -703 406 703 406 383 -221 0 -370zm308 931l-371 214 0 811 703 -405 0 -428 -332 -192zm972 188l0 432 703 405 0 -811 -374 -216 -329 190zm632 -754l391 226 703 -406 -703 -406 -391 226 0 360zm-332 -908l403 -232 0 -811 -703 405 0 465 300 173zm-940 -177l0 -461 0 0 -703 -405 0 811 399 230 304 -175z"/>
</svg>
