<?xml version="1.0" encoding="UTF-8"?>
<!DOCTYPE svg PUBLIC "-//W3C//DTD SVG 1.1//EN" "http://www.w3.org/Graphics/SVG/1.1/DTD/svg11.dtd">
<svg xmlns="http://www.w3.org/2000/svg" xml:space="preserve" width="1024px" height="1024px" shape-rendering="geometricPrecision" text-rendering="geometricPrecision" image-rendering="optimizeQuality" fill-rule="nonzero" clip-rule="evenodd" viewBox="0 0 10240 10240" xmlns:xlink="http://www.w3.org/1999/xlink">
	<title>spirit_level icon</title>
	<desc>spirit_level icon from the IconExperience.com O-Collection. Copyright by INCORS GmbH (www.incors.com).</desc>
	<path id="curve3" fill="#FFFFFF" d="M6720,3831 7040,3831 7040,6409 6720,6409z"/>
	<path id="curve2" fill="#FFFFFF" d="M3200,3831 3520,3831 3520,6409 3200,6409z"/>
	<path id="curve1" fill="#FFFFFF" d="M640 3840l140 0c298,0 549,196 621,485l398 1590c72,289 323,485 621,485l5400 0c298,0 549,-196 621,-485l398 -1590c72,-289 323,-485 621,-485l140 0 0 3840 -8960 0 0 -3840z"/>
	<path id="curve0" fill="#FFFFFF" d="M1498 3840l7244 0c-100,113 -175,251 -214,407l-397 1591c-37,146 -160,242 -311,242l-460 0 0 -2240 -960 0 0 2240 -2560 0 0 -2240 -960 0 0 2240 -460 0c-151,0 -274,-96 -311,-242l-397 -1591c-39,-156 -114,-294 -214,-407zm3622 320c-640,0 -960,0 -960,320 0,320 320,640 960,640 640,0 960,-320 960,-640 0,-320 -320,-320 -960,-320z"/>
</svg>
