<?xml version="1.0" encoding="UTF-8"?>
<!DOCTYPE svg PUBLIC "-//W3C//DTD SVG 1.1//EN" "http://www.w3.org/Graphics/SVG/1.1/DTD/svg11.dtd">
<svg xmlns="http://www.w3.org/2000/svg" xml:space="preserve" width="1024px" height="1024px" shape-rendering="geometricPrecision" text-rendering="geometricPrecision" image-rendering="optimizeQuality" fill-rule="nonzero" clip-rule="evenodd" viewBox="0 0 10240 10240" xmlns:xlink="http://www.w3.org/1999/xlink">
	<title>sponge icon</title>
	<desc>sponge icon from the IconExperience.com O-Collection. Copyright by INCORS GmbH (www.incors.com).</desc>
	<path id="curve0" fill="#FFFFFF" d="M4480 8320c-177,0 -320,143 -320,320 0,177 143,320 320,320 177,0 320,-143 320,-320 0,-177 -143,-320 -320,-320zm0 -7680l1920 0c1410,0 2560,1150 2560,2560l0 3200c0,520 -157,1004 -425,1409 68,-245 105,-503 105,-769l0 -3200c0,-1587 -1293,-2880 -2880,-2880l-1920 0c-266,0 -524,37 -769,105 405,-268 889,-425 1409,-425zm-640 640l0 0c0,177 143,320 320,320 177,0 320,-143 320,-320l1280 0c1410,0 2560,1150 2560,2560l0 1920c-177,0 -320,143 -320,320 0,177 143,320 320,320l0 640c0,1410 -1150,2560 -2560,2560l-1920 0c-1410,0 -2560,-1150 -2560,-2560l0 -3200c0,-1410 1150,-2560 2560,-2560zm512 3584c-247,0 -448,201 -448,448 0,47 7,91 20,134 -27,-4 -55,-6 -84,-6 -353,0 -640,287 -640,640 0,353 287,640 640,640 353,0 640,-287 640,-640 0,-117 -32,-227 -87,-322 228,-21 407,-212 407,-446 0,-247 -201,-448 -448,-448zm2202 1152c-297,0 -538,241 -538,538 0,296 241,537 538,537 297,0 537,-241 537,-537 0,-297 -240,-538 -537,-538zm-634 2304c-265,0 -480,215 -480,480 0,265 215,480 480,480 265,0 480,-215 480,-480 0,-265 -215,-480 -480,-480zm160 -3520c-177,0 -320,143 -320,320 0,177 143,320 320,320 177,0 320,-143 320,-320 0,-177 -143,-320 -320,-320zm-3840 1280c-353,0 -640,287 -640,640 0,353 287,640 640,640 353,0 640,-287 640,-640 0,-353 -287,-640 -640,-640zm800 1600c-265,0 -480,215 -480,480 0,265 215,480 480,480 265,0 480,-215 480,-480 0,-265 -215,-480 -480,-480zm1760 -960c-353,0 -640,287 -640,640 0,353 287,640 640,640 353,0 640,-287 640,-640 0,-353 -287,-640 -640,-640zm2400 -2880c-265,0 -480,215 -480,480 0,265 215,480 480,480 265,0 480,-215 480,-480 0,-265 -215,-480 -480,-480zm-1600 -320c-265,0 -480,215 -480,480 0,265 215,480 480,480 265,0 480,-215 480,-480 0,-265 -215,-480 -480,-480zm1280 -1600c-265,0 -480,215 -480,480 0,265 215,480 480,480 265,0 480,-215 480,-480 0,-265 -215,-480 -480,-480zm-2560 640c-265,0 -480,215 -480,480 0,265 215,480 480,480 241,0 440,-177 475,-409 95,57 206,89 325,89 353,0 640,-287 640,-640 0,-353 -287,-640 -640,-640 -353,0 -640,287 -640,640 0,9 0,18 1,28 -51,-18 -105,-28 -161,-28zm-1600 -320c-265,0 -480,215 -480,480 0,265 215,480 480,480 265,0 480,-215 480,-480 0,-265 -215,-480 -480,-480zm-640 1600c-265,0 -480,215 -480,480 0,209 134,387 321,453 -1,9 -1,18 -1,27 0,177 143,320 320,320 177,0 320,-143 320,-320 0,-82 -31,-156 -81,-213 51,-76 81,-168 81,-267 0,-265 -215,-480 -480,-480zm1440 320c-177,0 -320,143 -320,320 0,177 143,320 320,320 177,0 320,-143 320,-320 0,-177 -143,-320 -320,-320zm3840 3520c-177,0 -320,143 -320,320 0,177 143,320 320,320 177,0 320,-143 320,-320 0,-177 -143,-320 -320,-320z"/>
</svg>
