<?xml version="1.0" encoding="UTF-8"?>
<!DOCTYPE svg PUBLIC "-//W3C//DTD SVG 1.1//EN" "http://www.w3.org/Graphics/SVG/1.1/DTD/svg11.dtd">
<svg xmlns="http://www.w3.org/2000/svg" xml:space="preserve" width="1024px" height="1024px" shape-rendering="geometricPrecision" text-rendering="geometricPrecision" image-rendering="optimizeQuality" fill-rule="nonzero" clip-rule="evenodd" viewBox="0 0 10240 10240" xmlns:xlink="http://www.w3.org/1999/xlink">
	<title>star_and_crescent icon</title>
	<desc>star_and_crescent icon from the IconExperience.com O-Collection. Copyright by INCORS GmbH (www.incors.com).</desc>
	<path id="curve1" fill="#FFFFFF" d="M7691 3171l-11 1444 1383 479c34,11 55,42 55,78 -1,35 -24,65 -58,74l-1380 389 -2 1436c0,35 -22,65 -55,76 -33,10 -68,-1 -89,-30l-862 -1168 -1387 386c-34,9 -68,-4 -88,-33 -20,-29 -19,-66 2,-94l867 -1135 -855 -1167c-21,-29 -21,-66 0,-94 21,-29 57,-40 90,-28l1381 484 865 -1147c21,-28 56,-38 89,-27 34,12 55,42 55,77z"/>
	<path id="curve0" fill="#FFFFFF" d="M4480 1280c625,0 1215,149 1736,414 50,26 76,81 62,136 -14,55 -63,92 -119,91 -27,-1 -53,-1 -79,-1 -1767,0 -3200,1433 -3200,3200 0,1767 1433,3200 3200,3200 26,0 53,0 79,-1 57,-1 105,36 119,91 14,55 -11,110 -62,136 -521,265 -1111,414 -1736,414 -2121,0 -3840,-1719 -3840,-3840 0,-2121 1719,-3840 3840,-3840z"/>
</svg>
