<?xml version="1.0" encoding="UTF-8"?>
<!DOCTYPE svg PUBLIC "-//W3C//DTD SVG 1.1//EN" "http://www.w3.org/Graphics/SVG/1.1/DTD/svg11.dtd">
<svg xmlns="http://www.w3.org/2000/svg" xml:space="preserve" width="1024px" height="1024px" shape-rendering="geometricPrecision" text-rendering="geometricPrecision" image-rendering="optimizeQuality" fill-rule="nonzero" clip-rule="evenodd" viewBox="0 0 10240 10240" xmlns:xlink="http://www.w3.org/1999/xlink">
	<title>step icon</title>
	<desc>step icon from the IconExperience.com O-Collection. Copyright by INCORS GmbH (www.incors.com).</desc>
	<path id="curve1" fill="#FFFFFF" d="M8952 2880c72,-1065 -365,-1797 -1317,-2180 -589,-237 -1424,249 -1746,1352 -266,915 54,1562 -49,2455 -35,310 151,594 449,685l1253 383c319,98 658,-64 781,-374 336,-840 556,-1227 629,-2321zm-3445 2965c-196,795 28,1544 792,1778 769,235 1347,-278 1589,-1067 52,-169 -44,-349 -212,-400l-1764 -540c-88,-27 -172,-17 -252,28 -79,45 -131,113 -153,201z"/>
	<path id="curve0" fill="#FFFFFF" d="M1288 4799c-72,-1065 365,-1798 1317,-2180 589,-237 1424,249 1746,1352 266,915 -54,1561 49,2455 35,309 -151,594 -449,685l-1253 383c-319,98 -658,-64 -781,-374 -336,-840 -556,-1228 -629,-2321zm3445 2965c196,795 -28,1544 -792,1777 -769,235 -1347,-277 -1589,-1067 -52,-168 44,-348 212,-400l1764 -539c88,-27 172,-18 252,27 79,45 131,113 153,202z"/>
</svg>
