<?xml version="1.0" encoding="UTF-8"?>
<!DOCTYPE svg PUBLIC "-//W3C//DTD SVG 1.1//EN" "http://www.w3.org/Graphics/SVG/1.1/DTD/svg11.dtd">
<svg xmlns="http://www.w3.org/2000/svg" xml:space="preserve" width="1024px" height="1024px" shape-rendering="geometricPrecision" text-rendering="geometricPrecision" image-rendering="optimizeQuality" fill-rule="nonzero" clip-rule="evenodd" viewBox="0 0 10240 10240" xmlns:xlink="http://www.w3.org/1999/xlink">
	<title>stock_ticker icon</title>
	<desc>stock_ticker icon from the IconExperience.com O-Collection. Copyright by INCORS GmbH (www.incors.com).</desc>
	<path id="curve3" fill="#FFFFFF" d="M1280 7040l6400 0 0 960 0 0c353,0 640,288 640,640l0 960 -7680 0 0 -960c0,-353 287,-640 640,-640l0 0 0 -960z"/>
	<path id="curve2" fill="#FFFFFF" d="M4480 1920c1060,0 1920,860 1920,1920 0,502 -193,959 -508,1301 -189,-131 -403,-229 -633,-286 305,-234 501,-601 501,-1015 0,-707 -573,-1280 -1280,-1280 -707,0 -1280,573 -1280,1280 0,46 3,92 7,137 -190,168 -364,355 -518,556 -83,-215 -129,-449 -129,-693 0,-1060 860,-1920 1920,-1920zm3840 5760c707,0 1280,-573 1280,-1280l-640 0c0,353 -287,640 -640,640l-320 0 0 640 320 0zm-1920 -960l-640 0c0,-530 -430,-960 -960,-960l-320 0c-276,0 -538,-58 -775,-163 76,-205 178,-397 312,-563 144,55 300,86 463,86 110,0 207,0 320,0 884,0 1600,716 1600,1600z"/>
	<path id="curve1" fill="#FFFFFF" d="M4480 3200c353,0 640,287 640,640 0,353 -287,640 -640,640 -90,0 -176,-19 -253,-52 -523,329 -1027,1031 -1027,2292l-960 0c0,-1291 792,-2290 1602,-2826 -1,-18 -2,-36 -2,-54 0,-353 287,-640 640,-640z"/>
	<path id="curve0" fill="#FFFFFF" d="M4480 640c1767,0 3200,1433 3200,3200l0 2880 -640 0 0 -2880c0,-1414 -1146,-2560 -2560,-2560 -1414,0 -2560,1146 -2560,2560l0 2880 -640 0 0 -2880c0,-1767 1433,-3200 3200,-3200z"/>
</svg>
