<?xml version="1.0" encoding="UTF-8"?>
<!DOCTYPE svg PUBLIC "-//W3C//DTD SVG 1.1//EN" "http://www.w3.org/Graphics/SVG/1.1/DTD/svg11.dtd">
<svg xmlns="http://www.w3.org/2000/svg" xml:space="preserve" width="1024px" height="1024px" shape-rendering="geometricPrecision" text-rendering="geometricPrecision" image-rendering="optimizeQuality" fill-rule="nonzero" clip-rule="evenodd" viewBox="0 0 10240 10240" xmlns:xlink="http://www.w3.org/1999/xlink">
	<title>sun_dimmed icon</title>
	<desc>sun_dimmed icon from the IconExperience.com O-Collection. Copyright by INCORS GmbH (www.incors.com).</desc>
	<path id="curve1" fill="#FFFFFF" d="M5120 2560c1414,0 2560,1146 2560,2560 0,1414 -1146,2560 -2560,2560 -1414,0 -2560,-1146 -2560,-2560 0,-1414 1146,-2560 2560,-2560zm4 640l-4 640 -640 0 0 640 640 0 0 -640 640 0 0 -531c-199,-70 -413,-109 -636,-109zm1276 2560l0 640 151 0c165,-185 295,-402 380,-640l-531 0zm0 0l0 -640 -640 0 0 -640 -640 0 0 640 -640 0 0 -640 -640 0 0 640 640 0 0 640 640 0 0 -640 640 0 0 640 640 0zm-1280 0l0 640 -640 0 0 531c200,70 416,109 640,109l0 -640 640 0 0 -640 -640 0zm-1280 791l0 -151 -151 0c48,53 98,103 151,151zm-531 -791l531 0 0 -640 -640 0c0,224 39,440 109,640zm531 0l0 640 640 0 0 -640 -640 0zm2560 640l-640 0 0 531c238,-85 455,-215 640,-380l0 -151zm0 -1280l640 0c0,-224 -39,-440 -109,-640l-531 0 0 640zm-3091 -640l531 0 0 -640 -151 0c-165,185 -295,402 -380,640zm531 -791l0 151 640 0 0 -531c-238,85 -455,215 -640,380zm2560 0l0 151 151 0c-48,-53 -98,-103 -151,-151zm0 151l-640 0 0 640 640 0 0 -640z"/>
	<path id="curve0" fill="#FFFFFF" d="M9000 7360c-88,153 -285,205 -437,117l-555 -320c-152,-88 -205,-284 -117,-437 88,-153 285,-205 437,-117l555 320c152,88 205,284 117,437zm-1640 1640c-153,88 -349,35 -437,-117l-320 -555c-88,-152 -36,-349 117,-437 153,-88 349,-35 437,117l320 555c88,152 36,349 -117,437zm-2240 600c-176,0 -320,-144 -320,-320l0 -640c0,-176 144,-320 320,-320 176,0 320,144 320,320l0 640c0,176 -144,320 -320,320zm-2240 -600c-153,-88 -205,-285 -117,-437l320 -555c88,-152 284,-205 437,-117 153,88 205,285 117,437l-320 555c-88,152 -284,205 -437,117zm-1640 -1640c-88,-153 -35,-349 117,-437l555 -320c152,-88 349,-36 437,117 88,153 35,349 -117,437l-555 320c-152,88 -349,36 -437,-117zm-600 -2240c0,-176 144,-320 320,-320l640 0c176,0 320,144 320,320 0,176 -144,320 -320,320l-640 0c-176,0 -320,-144 -320,-320zm600 -2240c88,-153 285,-205 437,-117l555 320c152,88 205,284 117,437 -88,153 -285,205 -437,117l-555 -320c-152,-88 -205,-284 -117,-437zm1640 -1640c153,-88 349,-35 437,117l320 555c88,152 36,349 -117,437 -153,88 -349,35 -437,-117l-320 -555c-88,-152 -36,-349 117,-437zm2240 -600c176,0 320,144 320,320l0 640c0,176 -144,320 -320,320 -176,0 -320,-144 -320,-320l0 -640c0,-176 144,-320 320,-320zm2240 600c153,88 205,285 117,437l-320 555c-88,152 -284,205 -437,117 -153,-88 -205,-285 -117,-437l320 -555c88,-152 284,-205 437,-117zm1640 1640c88,153 35,349 -117,437l-555 320c-152,88 -349,36 -437,-117 -88,-153 -35,-349 117,-437l555 -320c152,-88 349,-36 437,117zm600 2240c0,176 -144,320 -320,320l-640 0c-176,0 -320,-144 -320,-320 0,-176 144,-320 320,-320l640 0c176,0 320,144 320,320z"/>
</svg>
