<?xml version="1.0" encoding="UTF-8"?>
<!DOCTYPE svg PUBLIC "-//W3C//DTD SVG 1.1//EN" "http://www.w3.org/Graphics/SVG/1.1/DTD/svg11.dtd">
<svg xmlns="http://www.w3.org/2000/svg" xml:space="preserve" width="1024px" height="1024px" shape-rendering="geometricPrecision" text-rendering="geometricPrecision" image-rendering="optimizeQuality" fill-rule="nonzero" clip-rule="evenodd" viewBox="0 0 10240 10240" xmlns:xlink="http://www.w3.org/1999/xlink">
	<title>sun_half icon</title>
	<desc>sun_half icon from the IconExperience.com O-Collection. Copyright by INCORS GmbH (www.incors.com).</desc>
	<path id="curve2" fill="#FFFFFF" d="M5120 2560c3,0 7,0 10,0l0 635 -10 5c-1060,0 -1920,860 -1920,1920 0,1060 860,1920 1920,1920l10 6 0 634c-3,0 -7,0 -10,0 -1414,0 -2560,-1146 -2560,-2560 0,-1414 1146,-2560 2560,-2560z"/>
	<path id="curve1" fill="#FFFFFF" d="M5120 2560c1414,0 2560,1146 2560,2560 0,1414 -1146,2560 -2560,2560l0 -640 0 -3840 0 -640z"/>
	<path id="curve0" fill="#FFFFFF" d="M5120 9600l0 0c-176,0 -320,-144 -320,-320l0 -640c0,-176 144,-320 320,-320l0 0c176,0 320,144 320,320l0 640c0,176 -144,320 -320,320zm0 -8960l0 0c176,0 320,144 320,320l0 640c0,176 -144,320 -320,320l0 0c-176,0 -320,-144 -320,-320l0 -640c0,-176 144,-320 320,-320zm-2240 600l0 0c153,-88 349,-35 437,117l320 555c88,152 36,349 -117,437l0 0c-153,88 -349,35 -437,-117l-320 -555c-88,-152 -36,-349 117,-437zm-1640 1640l0 0c88,-153 285,-205 437,-117l555 320c152,88 205,284 117,437l0 0c-88,153 -285,205 -437,117l-555 -320c-152,-88 -205,-284 -117,-437zm-600 2240l0 0c0,-176 144,-320 320,-320l640 0c176,0 320,144 320,320l0 0c0,176 -144,320 -320,320l-640 0c-176,0 -320,-144 -320,-320zm600 2240l0 0c-88,-153 -35,-349 117,-437l555 -320c152,-88 349,-36 437,117l0 0c88,153 35,349 -117,437l-555 320c-152,88 -349,36 -437,-117zm1640 1640l0 0c-153,-88 -205,-285 -117,-437l320 -555c88,-152 284,-205 437,-117l0 0c153,88 205,285 117,437l-320 555c-88,152 -284,205 -437,117z"/>
</svg>
