<?xml version="1.0" encoding="UTF-8"?>
<!DOCTYPE svg PUBLIC "-//W3C//DTD SVG 1.1//EN" "http://www.w3.org/Graphics/SVG/1.1/DTD/svg11.dtd">
<svg xmlns="http://www.w3.org/2000/svg" xml:space="preserve" width="1024px" height="1024px" shape-rendering="geometricPrecision" text-rendering="geometricPrecision" image-rendering="optimizeQuality" fill-rule="nonzero" clip-rule="evenodd" viewBox="0 0 10240 10240" xmlns:xlink="http://www.w3.org/1999/xlink">
	<title>symbol_male icon</title>
	<desc>symbol_male icon from the IconExperience.com O-Collection. Copyright by INCORS GmbH (www.incors.com).</desc>
	<path id="curve0" fill="#FFFFFF" d="M4160 3200c564,0 1089,162 1533,442l1082 -1082 -1269 0c-66,0 -122,-38 -148,-99 -25,-61 -12,-127 35,-174l913 -913c63,-63 138,-94 227,-94l2107 0c176,0 320,144 320,320l0 2107c0,89 -31,164 -94,227l-913 913c-47,47 -113,60 -174,35 -61,-26 -99,-82 -99,-148l0 -1269 -1082 1082c280,444 442,969 442,1533 0,1591 -1289,2880 -2880,2880 -1591,0 -2880,-1289 -2880,-2880 0,-1591 1289,-2880 2880,-2880zm0 1280c-884,0 -1600,716 -1600,1600 0,884 716,1600 1600,1600 884,0 1600,-716 1600,-1600 0,-884 -716,-1600 -1600,-1600z"/>
</svg>
