<?xml version="1.0" encoding="UTF-8"?>
<!DOCTYPE svg PUBLIC "-//W3C//DTD SVG 1.1//EN" "http://www.w3.org/Graphics/SVG/1.1/DTD/svg11.dtd">
<svg xmlns="http://www.w3.org/2000/svg" xml:space="preserve" width="1024px" height="1024px" shape-rendering="geometricPrecision" text-rendering="geometricPrecision" image-rendering="optimizeQuality" fill-rule="nonzero" clip-rule="evenodd" viewBox="0 0 10240 10240" xmlns:xlink="http://www.w3.org/1999/xlink">
	<title>symbol_yen icon</title>
	<desc>symbol_yen icon from the IconExperience.com O-Collection. Copyright by INCORS GmbH (www.incors.com).</desc>
	<path id="curve0" fill="#FFFFFF" d="M2560 6720l1920 0 0 -640 -1920 0 0 -960 1890 0c-4,-13 -9,-26 -14,-39 -28,-68 -76,-136 -143,-203l-1491 -1491c-182,-182 -321,-390 -418,-623 -96,-232 -144,-477 -144,-734l0 -750 1280 0 0 750c0,95 15,178 44,249 28,68 76,136 143,203l1413 1413 1413 -1413c67,-67 115,-135 143,-203 29,-71 44,-154 44,-249l0 -750 1280 0 0 750c0,257 -48,502 -144,734 -97,233 -236,441 -418,623l-1491 1491c-67,67 -115,135 -143,203 -5,13 -10,26 -14,39l1890 0 0 960 -1920 0 0 640 1920 0 0 960 -1920 0 0 1280 -1280 0 0 -1280 -1920 0 0 -960z"/>
</svg>
