<?xml version="1.0" encoding="UTF-8"?>
<!DOCTYPE svg PUBLIC "-//W3C//DTD SVG 1.1//EN" "http://www.w3.org/Graphics/SVG/1.1/DTD/svg11.dtd">
<svg xmlns="http://www.w3.org/2000/svg" xml:space="preserve" width="1024px" height="1024px" shape-rendering="geometricPrecision" text-rendering="geometricPrecision" image-rendering="optimizeQuality" fill-rule="nonzero" clip-rule="evenodd" viewBox="0 0 10240 10240" xmlns:xlink="http://www.w3.org/1999/xlink">
	<title>table_selection_range icon</title>
	<desc>table_selection_range icon from the IconExperience.com O-Collection. Copyright by INCORS GmbH (www.incors.com).</desc>
	<path id="curve1" fill="#FFFFFF" d="M9280 9280c-2773,0 -5547,0 -8320,0 0,-2556 0,-4889 0,-7360 0,-353 287,-640 640,-640l7040 0c353,0 640,287 640,640 0,2471 0,4804 0,7360zm-8000 -6400l0 6080 4480 0 0 -1280 320 0 0 1280 1280 0 0 -1280 320 0 0 1280 1280 0 0 -1600 0 -4480 -6080 0 0 1280 -320 0 0 -1280 -1280 0z"/>
	<path id="curve0" fill="#FFFFFF" d="M4480 2880l1280 0 0 1280 -1280 0 0 -1280zm1600 0l1280 0 0 1280 -1280 0 0 -1280zm1600 0l1280 0 0 1280 -1280 0 0 -1280zm-6400 4800l1280 0 0 1280 -1280 0 0 -1280zm1600 0l1280 0 0 1280 -1280 0 0 -1280zm-1600 -1600l1280 0 0 1280 -1280 0 0 -1280zm1600 0l1280 0 0 1280 -1280 0 0 -1280zm1600 0l1280 0 0 1280 -1280 0 0 -1280zm1600 0l1280 0 0 1280 -1280 0 0 -1280zm1600 0l1280 0 0 1280 -1280 0 0 -1280zm-6400 -1600l1280 0 0 1280 -1280 0 0 -1280zm1600 0l1280 0 0 1280 -1280 0 0 -1280zm1600 0l1280 0 0 1280 -1280 0 0 -1280zm1600 0l1280 0 0 1280 -1280 0 0 -1280zm1600 0l1280 0 0 1280 -1280 0 0 -1280z"/>
</svg>
