<?xml version="1.0" encoding="UTF-8"?>
<!DOCTYPE svg PUBLIC "-//W3C//DTD SVG 1.1//EN" "http://www.w3.org/Graphics/SVG/1.1/DTD/svg11.dtd">
<svg xmlns="http://www.w3.org/2000/svg" xml:space="preserve" width="1024px" height="1024px" shape-rendering="geometricPrecision" text-rendering="geometricPrecision" image-rendering="optimizeQuality" fill-rule="nonzero" clip-rule="evenodd" viewBox="0 0 10240 10240" xmlns:xlink="http://www.w3.org/1999/xlink">
	<title>temple icon</title>
	<desc>temple icon from the IconExperience.com O-Collection. Copyright by INCORS GmbH (www.incors.com).</desc>
	<path id="curve2" fill="#FFFFFF" d="M640,8960 960,8960 960,8320 9280,8320 9280,8960 9600,8960 9600,9600 640,9600z"/>
	<path id="curve1" fill="#FFFFFF" d="M7040 4640l0 160c0,177 -143,320 -320,320 320,960 320,2240 320,2880l-1600 0c0,-640 0,-1920 320,-2880 -177,0 -320,-143 -320,-320l0 -160c0,-88 72,-160 160,-160l1280 0c88,0 160,72 160,160zm-4160 0l0 160c0,177 -143,320 -320,320 320,960 320,2240 320,2880l-1600 0c0,-640 0,-1920 320,-2880 -177,0 -320,-143 -320,-320l0 -160c0,-88 72,-160 160,-160l1280 0c88,0 160,72 160,160zm1920 0l0 160c0,177 -143,320 -320,320 320,960 320,2240 320,2880l-1600 0c0,-640 0,-1920 320,-2880 -177,0 -320,-143 -320,-320l0 -160c0,-88 72,-160 160,-160l1280 0c88,0 160,72 160,160zm4160 0l0 160c0,177 -143,320 -320,320 320,960 320,2240 320,2880l-1600 0c0,-640 0,-1920 320,-2880 -177,0 -320,-143 -320,-320l0 -160c0,-88 72,-160 160,-160l1280 0c88,0 160,72 160,160z"/>
	<path id="curve0" fill="#FFFFFF" d="M5120,640 9920,3200 9600,3840 9280,3840 9280,4160 960,4160 960,3840 640,3840 320,3200z"/>
</svg>
