<?xml version="1.0" encoding="UTF-8"?>
<!DOCTYPE svg PUBLIC "-//W3C//DTD SVG 1.1//EN" "http://www.w3.org/Graphics/SVG/1.1/DTD/svg11.dtd">
<svg xmlns="http://www.w3.org/2000/svg" xml:space="preserve" width="1024px" height="1024px" shape-rendering="geometricPrecision" text-rendering="geometricPrecision" image-rendering="optimizeQuality" fill-rule="nonzero" clip-rule="evenodd" viewBox="0 0 10240 10240" xmlns:xlink="http://www.w3.org/1999/xlink">
	<title>tennis_ball icon</title>
	<desc>tennis_ball icon from the IconExperience.com O-Collection. Copyright by INCORS GmbH (www.incors.com).</desc>
	<path id="curve0" fill="#FFFFFF" d="M7749 1492c67,49 108,113 125,194l21 101c32,155 170,262 328,255 96,-4 185,33 251,108 1507,1702 1500,4261 -11,5953 -66,73 -153,110 -250,106 -160,-6 -299,105 -327,263l-14 76c-16,85 -59,153 -129,203 -1564,1119 -3700,1139 -5254,-4 -65,-48 -106,-111 -123,-191l-22 -102c-32,-154 -168,-260 -326,-254 -96,4 -185,-34 -250,-109 -1487,-1696 -1516,-4266 5,-5950 66,-72 153,-109 248,-105 160,7 298,-102 328,-258l18 -90c16,-82 58,-148 126,-197 1568,-1136 3692,-1135 5256,1zm-1 1336c-1334,1309 -3683,1341 -5097,139 -55,-46 -107,-94 -158,-144 -141,-136 -367,-116 -482,42 -975,1342 -976,3165 1,4509 115,159 340,178 481,42 51,-49 104,-97 158,-143 1369,-1163 3569,-1163 4938,0 55,46 107,94 158,144 141,136 367,116 482,-42 974,-1341 976,-3162 2,-4506 -115,-160 -343,-179 -483,-41zm-530 -925c-1272,-831 -2922,-832 -4195,0 -176,115 -196,361 -42,503 1144,1059 3134,1059 4279,0 154,-142 133,-388 -42,-503zm41 5931c-27,-25 -54,-50 -83,-74 -1130,-960 -2982,-960 -4112,0 -29,25 -57,49 -84,74 -153,142 -133,388 42,503 1272,831 2922,832 4195,0 176,-115 196,-361 42,-503z"/>
</svg>
