<?xml version="1.0" encoding="UTF-8"?>
<!DOCTYPE svg PUBLIC "-//W3C//DTD SVG 1.1//EN" "http://www.w3.org/Graphics/SVG/1.1/DTD/svg11.dtd">
<svg xmlns="http://www.w3.org/2000/svg" xml:space="preserve" width="1024px" height="1024px" shape-rendering="geometricPrecision" text-rendering="geometricPrecision" image-rendering="optimizeQuality" fill-rule="nonzero" clip-rule="evenodd" viewBox="0 0 10240 10240" xmlns:xlink="http://www.w3.org/1999/xlink">
	<title>timer icon</title>
	<desc>timer icon from the IconExperience.com O-Collection. Copyright by INCORS GmbH (www.incors.com).</desc>
	<path id="curve1" fill="#FFFFFF" d="M4618 2737l236 -355c61,-91 156,-142 266,-142 110,0 205,51 266,142l236 355c96,143 154,281 189,449l214 1029c232,231 375,551 375,905 0,347 -138,661 -362,892l-233 1401c-26,155 -158,267 -316,267l-738 0c-158,0 -290,-112 -316,-267l-233 -1401c-224,-231 -362,-545 -362,-892 0,-354 143,-674 375,-905l214 -1029c35,-168 93,-306 189,-449zm503 1794c-353,0 -640,287 -640,640 0,354 287,640 640,640 354,0 640,-286 640,-640 0,-353 -286,-640 -640,-640z"/>
	<path id="curve0" fill="#FFFFFF" d="M5120 640c2474,0 4480,2006 4480,4480 0,2474 -2006,4480 -4480,4480 -2474,0 -4480,-2006 -4480,-4480 0,-2474 2006,-4480 4480,-4480zm2190 1326l-313 543 -554 -320 313 -543c-405,-192 -848,-314 -1316,-353l0 627 -640 0 0 -627c-468,39 -911,161 -1316,353l313 543 -554 320 -313 -543c-376,261 -703,588 -964,964l543 313 -320 554 -544 -314c-191,405 -313,849 -352,1317l627 0 0 640 -627 0c39,468 161,911 353,1316l543 -313 320 554 -543 313c261,376 588,703 964,964l313 -543 554 320 -314 544c405,191 849,313 1317,352l0 -627 640 0 0 627c468,-39 911,-161 1316,-353l-313 -543 554 -320 313 543c376,-261 703,-588 964,-964l-543 -313 320 -554 544 314c191,-405 313,-849 352,-1317l-627 0 0 -640 627 0c-39,-468 -161,-911 -353,-1316l-543 313 -320 -554 543 -313c-261,-376 -588,-703 -964,-964z"/>
</svg>
