<?xml version="1.0" encoding="UTF-8"?>
<!DOCTYPE svg PUBLIC "-//W3C//DTD SVG 1.1//EN" "http://www.w3.org/Graphics/SVG/1.1/DTD/svg11.dtd">
<svg xmlns="http://www.w3.org/2000/svg" xml:space="preserve" width="1024px" height="1024px" shape-rendering="geometricPrecision" text-rendering="geometricPrecision" image-rendering="optimizeQuality" fill-rule="nonzero" clip-rule="evenodd" viewBox="0 0 10240 10240" xmlns:xlink="http://www.w3.org/1999/xlink">
	<title>toolbox icon</title>
	<desc>toolbox icon from the IconExperience.com O-Collection. Copyright by INCORS GmbH (www.incors.com).</desc>
	<path id="curve3" fill="#FFFFFF" d="M1280 5760l7680 0 0 -906 468 -468c115,-115 172,-265 172,-416l0 -3010 -640 0 0 2126 468 468c115,115 172,265 172,416l0 4350c0,352 -288,640 -640,640l-7680 0c-352,0 -640,-288 -640,-640l0 -4813c0,-224 131,-423 338,-512 98,-41 202,-54 302,-39l0 -1996 -640 0 0 2558c11,557 252,1127 640,1527l0 715z"/>
	<path id="curve2" fill="#FFFFFF" d="M1600 1280l1267 0 11 0c568,12 1150,262 1552,664 190,190 339,394 441,616l1050 0c-114,-127 -330,-224 -460,-248 -191,-36 -337,-186 -366,-379 -31,-208 79,-418 282,-489 702,-245 1425,-132 1961,399 25,5 56,6 81,7 193,11 349,44 493,188l379 379c43,43 79,91 106,143l243 0 0 -1280 -5773 0c-224,0 -423,131 -512,338 -89,210 -43,450 119,612l330 330 -1204 0 0 -1280z"/>
	<path id="curve1" fill="#FFFFFF" d="M8254 3212l0 0c-167,-167 -22,-401 -189,-569l-379 -379c-168,-167 -401,-22 -569,-189 -379,-379 -947,-569 -1635,-328 -55,19 -79,81 -70,138 8,58 51,102 108,112 477,89 1138,599 589,1146l-1067 1064 999 836 887 -883c209,-209 359,-399 568,-190l0 0c105,104 105,275 0,379l569 569c104,104 274,104 379,0l758 -758c104,-105 104,-275 0,-379l-569 -569c-104,104 -274,104 -379,0z"/>
	<path id="curve0" fill="#FFFFFF" d="M3702 5345l82 95 2233 0 -1312 -1098c-366,-306 501,-1169 -501,-2172 -357,-356 -866,-561 -1332,-570 -99,-2 -184,53 -222,144 -39,90 -20,190 50,259l835 836 -334 1002 -1002 334 -836 -835c-69,-70 -169,-89 -259,-50 -91,38 -146,123 -144,222 9,466 214,975 570,1332 1003,1002 1837,109 2172,501z"/>
</svg>
