<?xml version="1.0" encoding="UTF-8"?>
<!DOCTYPE svg PUBLIC "-//W3C//DTD SVG 1.1//EN" "http://www.w3.org/Graphics/SVG/1.1/DTD/svg11.dtd">
<svg xmlns="http://www.w3.org/2000/svg" xml:space="preserve" width="1024px" height="1024px" shape-rendering="geometricPrecision" text-rendering="geometricPrecision" image-rendering="optimizeQuality" fill-rule="nonzero" clip-rule="evenodd" viewBox="0 0 10240 10240" xmlns:xlink="http://www.w3.org/1999/xlink">
	<title>truck_trailer icon</title>
	<desc>truck_trailer icon from the IconExperience.com O-Collection. Copyright by INCORS GmbH (www.incors.com).</desc>
	<path id="curve2" fill="#FFFFFF" d="M4480 7040c530,0 960,430 960,960 0,530 -430,960 -960,960 -530,0 -960,-430 -960,-960 0,-530 430,-960 960,-960zm-2240 640c-177,0 -320,143 -320,320 0,177 143,320 320,320 177,0 320,-143 320,-320 0,-177 -143,-320 -320,-320zm2240 0c-177,0 -320,143 -320,320 0,177 143,320 320,320 177,0 320,-143 320,-320 0,-177 -143,-320 -320,-320zm-2240 -640c530,0 960,430 960,960 0,530 -430,960 -960,960 -530,0 -960,-430 -960,-960 0,-530 430,-960 960,-960z"/>
	<path id="curve1" fill="#FFFFFF" d="M7040 6080l0 960 1920 0c0,-177 143,-320 320,-320 177,0 320,143 320,320l0 640 -1280 0 0 960c0,176 -144,320 -320,320 -176,0 -320,-144 -320,-320l0 -960c-653,0 -1307,0 -1960,0 -142,-552 -644,-960 -1240,-960 -482,0 -902,266 -1120,660 -218,-394 -638,-660 -1120,-660 -596,0 -1098,408 -1240,960l-40 0c-176,0 -320,-144 -320,-320l0 -1280 6400 0z"/>
	<path id="curve0" fill="#FFFFFF" d="M960 2560l5760 0c176,0 320,144 320,320l0 2880 -6400 0 0 -2880c0,-176 144,-320 320,-320z"/>
</svg>
