<?xml version="1.0" encoding="UTF-8"?>
<!DOCTYPE svg PUBLIC "-//W3C//DTD SVG 1.1//EN" "http://www.w3.org/Graphics/SVG/1.1/DTD/svg11.dtd">
<svg xmlns="http://www.w3.org/2000/svg" xml:space="preserve" width="1024px" height="1024px" shape-rendering="geometricPrecision" text-rendering="geometricPrecision" image-rendering="optimizeQuality" fill-rule="nonzero" clip-rule="evenodd" viewBox="0 0 10240 10240" xmlns:xlink="http://www.w3.org/1999/xlink">
	<title>users4 icon</title>
	<desc>users4 icon from the IconExperience.com O-Collection. Copyright by INCORS GmbH (www.incors.com).</desc>
	<path id="curve7" fill="#FFFFFF" d="M9600 7115c0,405 -960,565 -1600,565 -546,0 -1325,-117 -1542,-402 166,-252 262,-554 262,-878 0,-93 -8,-184 -23,-273 105,-113 238,-211 397,-328 258,177 570,281 906,281 336,0 648,-104 906,-281 452,332 694,513 694,1316z"/>
	<path id="curve6" fill="#FFFFFF" d="M8000 3200c707,0 1280,573 1280,1280 0,707 -573,1280 -1280,1280 -707,0 -1280,-573 -1280,-1280 0,-707 573,-1280 1280,-1280z"/>
	<path id="curve5" fill="#FFFFFF" d="M6450 4880c-133,68 -305,120 -491,158 -244,-151 -531,-238 -839,-238 -308,0 -595,87 -839,238 -186,-38 -358,-90 -491,-158 32,-128 50,-262 50,-400 0,-257 -61,-500 -168,-715 116,-212 299,-347 542,-526 258,177 570,281 906,281 336,0 648,-104 906,-281 244,179 426,314 543,526 -108,215 -169,458 -169,715 0,138 18,272 50,400z"/>
	<path id="curve4" fill="#FFFFFF" d="M5120 640c707,0 1280,573 1280,1280 0,707 -573,1280 -1280,1280 -707,0 -1280,-573 -1280,-1280 0,-707 573,-1280 1280,-1280z"/>
	<path id="curve3" fill="#FFFFFF" d="M3782 7277c-217,286 -996,403 -1542,403 -640,0 -1600,-160 -1600,-565 0,-802 242,-984 694,-1316 258,177 570,281 906,281 336,0 648,-104 906,-281 159,117 292,215 397,328 -15,88 -23,180 -23,273 0,324 96,626 262,877z"/>
	<path id="curve2" fill="#FFFFFF" d="M2240 3200c707,0 1280,573 1280,1280 0,707 -573,1280 -1280,1280 -707,0 -1280,-573 -1280,-1280 0,-707 573,-1280 1280,-1280z"/>
	<path id="curve1" fill="#FFFFFF" d="M6720 9035c0,405 -960,565 -1600,565 -640,0 -1600,-160 -1600,-565 0,-802 242,-984 694,-1316 258,177 570,281 906,281 336,0 648,-104 906,-281 452,332 694,513 694,1316z"/>
	<path id="curve0" fill="#FFFFFF" d="M5120 5120c707,0 1280,573 1280,1280 0,707 -573,1280 -1280,1280 -707,0 -1280,-573 -1280,-1280 0,-707 573,-1280 1280,-1280z"/>
</svg>
