<?xml version="1.0" encoding="UTF-8"?>
<!DOCTYPE svg PUBLIC "-//W3C//DTD SVG 1.1//EN" "http://www.w3.org/Graphics/SVG/1.1/DTD/svg11.dtd">
<svg xmlns="http://www.w3.org/2000/svg" xml:space="preserve" width="1024px" height="1024px" shape-rendering="geometricPrecision" text-rendering="geometricPrecision" image-rendering="optimizeQuality" fill-rule="nonzero" clip-rule="evenodd" viewBox="0 0 10240 10240" xmlns:xlink="http://www.w3.org/1999/xlink">
	<title>users3 icon</title>
	<desc>users3 icon from the IconExperience.com O-Collection. Copyright by INCORS GmbH (www.incors.com).</desc>
	<path id="curve5" fill="#FFFFFF" d="M9612 6264c0,543 -1152,758 -1920,758 -392,0 -883,-56 -1271,-183 381,-349 619,-850 619,-1406 0,-306 -72,-595 -200,-851 256,127 546,198 852,198 387,0 748,-114 1049,-310 568,465 871,694 871,1794z"/>
	<path id="curve4" fill="#FFFFFF" d="M7680 1280c884,0 1600,713 1600,1593 0,880 -716,1594 -1600,1594 -884,0 -1600,-714 -1600,-1594 0,-880 716,-1593 1600,-1593z"/>
	<path id="curve3" fill="#FFFFFF" d="M3837 6856c-389,128 -883,184 -1277,184 -768,0 -1920,-214 -1920,-757 0,-1099 304,-1331 871,-1795 301,196 662,311 1049,311 295,0 575,-67 825,-185 -119,248 -185,526 -185,819 0,565 246,1073 637,1423z"/>
	<path id="curve2" fill="#FFFFFF" d="M2560 1293c884,0 1600,714 1600,1594 0,880 -716,1593 -1600,1593 -884,0 -1600,-713 -1600,-1593 0,-880 716,-1594 1600,-1594z"/>
	<path id="curve1" fill="#FFFFFF" d="M7040 8834c0,544 -1152,758 -1920,758 -768,0 -1920,-214 -1920,-757 0,-1099 304,-1331 871,-1795 301,196 662,311 1049,311 387,0 748,-115 1049,-311 568,465 871,694 871,1794z"/>
	<path id="curve0" fill="#FFFFFF" d="M5120 3840c884,0 1600,713 1600,1593 0,880 -716,1594 -1600,1594 -884,0 -1600,-714 -1600,-1594 0,-880 716,-1593 1600,-1593z"/>
</svg>
