<?xml version="1.0" encoding="UTF-8"?>
<!DOCTYPE svg PUBLIC "-//W3C//DTD SVG 1.1//EN" "http://www.w3.org/Graphics/SVG/1.1/DTD/svg11.dtd">
<svg xmlns="http://www.w3.org/2000/svg" xml:space="preserve" width="1024px" height="1024px" shape-rendering="geometricPrecision" text-rendering="geometricPrecision" image-rendering="optimizeQuality" fill-rule="nonzero" clip-rule="evenodd" viewBox="0 0 10240 10240" xmlns:xlink="http://www.w3.org/1999/xlink">
	<title>video_chat2 icon</title>
	<desc>video_chat2 icon from the IconExperience.com O-Collection. Copyright by INCORS GmbH (www.incors.com).</desc>
	<path id="curve3" fill="#FFFFFF" d="M3200 8960l640 0c176,0 320,-144 320,-320l0 -640 1920 0 0 640c0,176 144,320 320,320l640 0c176,0 320,144 320,320l0 320 -4480 0 0 -320c0,-176 144,-320 320,-320z"/>
	<path id="curve2" fill="#FFFFFF" d="M5130 1600c1060,0 1920,860 1920,1920 0,1060 -860,1920 -1920,1920 -1060,0 -1920,-860 -1920,-1920 0,-1060 860,-1920 1920,-1920z"/>
	<path id="curve1" fill="#FFFFFF" d="M2698 6720c204,-600 643,-859 1252,-1296 198,123 417,216 649,273 166,53 341,87 531,92 190,-5 365,-39 531,-92 232,-57 451,-150 649,-273 609,437 1048,696 1252,1296l-4864 0z"/>
	<path id="curve0" fill="#FFFFFF" d="M1280 640l7680 0c353,0 640,287 640,640l0 5760c0,352 -288,640 -640,640l-7680 0c-353,0 -640,-287 -640,-640l0 -5760c0,-353 287,-640 640,-640zm0 640l0 5760 7680 0 0 -5760 -7680 0z"/>
</svg>
