<?xml version="1.0" encoding="UTF-8"?>
<!DOCTYPE svg PUBLIC "-//W3C//DTD SVG 1.1//EN" "http://www.w3.org/Graphics/SVG/1.1/DTD/svg11.dtd">
<svg xmlns="http://www.w3.org/2000/svg" xml:space="preserve" width="1024px" height="1024px" shape-rendering="geometricPrecision" text-rendering="geometricPrecision" image-rendering="optimizeQuality" fill-rule="nonzero" clip-rule="evenodd" viewBox="0 0 10240 10240" xmlns:xlink="http://www.w3.org/1999/xlink">
	<title>water_tap icon</title>
	<desc>water_tap icon from the IconExperience.com O-Collection. Copyright by INCORS GmbH (www.incors.com).</desc>
	<path id="curve1" fill="#FFFFFF" d="M7360 6720c320,640 960,1280 960,1920 0,530 -430,960 -960,960 -530,0 -960,-430 -960,-960 0,-640 640,-1280 960,-1920z"/>
	<path id="curve0" fill="#FFFFFF" d="M640 1920l320 0c353,0 640,288 640,640l0 1920c0,352 -288,640 -640,640l-320 0 0 -3200zm5760 3840l1920 0c176,0 320,144 320,320 0,176 -144,320 -320,320l-1920 0c-176,0 -320,-144 -320,-320 0,-176 144,-320 320,-320zm-1600 -3808c390,79 729,301 960,608l640 0 640 0c705,0 1280,575 1280,1280l0 1600 -1920 0 0 -960 -640 0c-292,389 -757,640 -1280,640 -524,0 -988,-251 -1280,-640l-1280 0 0 -1920 1280 0c231,-307 570,-529 960,-608l0 -438c-97,-56 -178,-137 -234,-234l-726 0c-176,0 -320,-144 -320,-320 0,-176 144,-320 320,-320l726 0c110,-191 317,-320 554,-320 237,0 444,129 554,320l726 0c176,0 320,144 320,320 0,176 -144,320 -320,320l-726 0c-56,97 -137,178 -234,234l0 438z"/>
</svg>
