<?xml version="1.0" encoding="UTF-8"?>
<!DOCTYPE svg PUBLIC "-//W3C//DTD SVG 1.1//EN" "http://www.w3.org/Graphics/SVG/1.1/DTD/svg11.dtd">
<svg xmlns="http://www.w3.org/2000/svg" xml:space="preserve" width="1024px" height="1024px" shape-rendering="geometricPrecision" text-rendering="geometricPrecision" image-rendering="optimizeQuality" fill-rule="nonzero" clip-rule="evenodd" viewBox="0 0 10240 10240" xmlns:xlink="http://www.w3.org/1999/xlink">
	<title>water_fish icon</title>
	<desc>water_fish icon from the IconExperience.com O-Collection. Copyright by INCORS GmbH (www.incors.com).</desc>
	<path id="curve1" fill="#FFFFFF" d="M640 5120l3 0 0 -7c482,0 902,-266 1120,-660 218,394 639,660 1120,660 481,0 897,-264 1117,-654 218,394 637,661 1120,661 483,0 906,-269 1124,-666 218,393 637,659 1119,659 482,0 902,-266 1120,-660 218,394 638,660 1120,660l0 640 -3 0 0 3847 -8960 0 0 -4480zm4320 1280c-795,0 -1440,430 -1440,960 0,530 645,960 1440,960 438,0 830,-130 1094,-336 123,-96 292,-90 409,12 84,74 168,145 252,202 115,78 261,74 372,-11 111,-84 154,-223 110,-356l-157 -471 157 -471c44,-133 1,-272 -110,-356 -111,-85 -257,-89 -372,-11 -84,57 -168,128 -252,202 -117,102 -286,108 -409,12 -264,-206 -656,-336 -1094,-336z"/>
	<path id="curve0" fill="#FFFFFF" d="M4454 6694c50,0 98,12 141,33 -67,19 -115,80 -115,153 0,88 72,160 160,160 54,0 102,-27 131,-68 2,14 3,28 3,42 0,177 -143,320 -320,320 -177,0 -320,-143 -320,-320 0,-177 143,-320 320,-320z"/>
</svg>
