<?xml version="1.0" encoding="UTF-8"?>
<!DOCTYPE svg PUBLIC "-//W3C//DTD SVG 1.1//EN" "http://www.w3.org/Graphics/SVG/1.1/DTD/svg11.dtd">
<svg xmlns="http://www.w3.org/2000/svg" xml:space="preserve" width="1024px" height="1024px" shape-rendering="geometricPrecision" text-rendering="geometricPrecision" image-rendering="optimizeQuality" fill-rule="nonzero" clip-rule="evenodd" viewBox="0 0 10240 10240" xmlns:xlink="http://www.w3.org/1999/xlink">
	<title>web icon</title>
	<desc>web icon from the IconExperience.com O-Collection. Copyright by INCORS GmbH (www.incors.com).</desc>
	<path id="curve0" fill="#FFFFFF" d="M4361 7076c506,-45 1012,-48 1512,-9l-753 -1036 -759 1045zm5128 -3387c174,-52 358,44 414,217 58,176 -39,366 -215,423l-96 31c-1018,1340 -1531,3002 -1457,4680l16 21c108,150 75,360 -75,469 -149,108 -359,75 -468,-75l-67 -92c-1578,-553 -3306,-534 -4872,42l-37 50c-109,150 -319,183 -468,75 -150,-109 -183,-319 -75,-469l47 -63c48,-1678 -502,-3335 -1536,-4654l-48 -15c-176,-57 -273,-247 -215,-423 57,-176 246,-272 422,-215l43 14c1177,-343 2231,-979 3075,-1823 338,-338 642,-709 908,-1109l0 -7c0,-185 150,-335 335,-335 185,0 335,150 335,335l0 59c963,1401 2398,2414 4034,2864zm-886 992l-884 288c-380,771 -636,1590 -769,2439l557 767c85,-1232 461,-2433 1096,-3494zm-1706 555l-1234 401 771 1062c114,-503 269,-992 463,-1463zm-1442 -237l1277 -415c-454,-269 -881,-575 -1277,-913l0 1328zm2112 -686l903 -294c-1160,-465 -2197,-1203 -3015,-2148l0 933c625,611 1333,1114 2112,1509zm-1185 3454c-832,-120 -1686,-117 -2535,16l-555 763c1192,-291 2441,-302 3637,-25l-547 -754zm-3630 382l550 -757c-140,-837 -407,-1655 -799,-2429l-896 -291c649,1051 1043,2245 1145,3477zm1060 -1459l765 -1053 -1243 -404c201,474 361,961 478,1457zm-2011 -2660l891 289c773,-401 1477,-919 2093,-1535l0 -946c-805,956 -1830,1710 -2984,2192zm1718 558l1266 411 0 -1339c-397,347 -821,657 -1266,928z"/>
</svg>
