<?xml version="1.0" encoding="UTF-8"?>
<!DOCTYPE svg PUBLIC "-//W3C//DTD SVG 1.1//EN" "http://www.w3.org/Graphics/SVG/1.1/DTD/svg11.dtd">
<svg xmlns="http://www.w3.org/2000/svg" xml:space="preserve" width="1024px" height="1024px" shape-rendering="geometricPrecision" text-rendering="geometricPrecision" image-rendering="optimizeQuality" fill-rule="nonzero" clip-rule="evenodd" viewBox="0 0 10240 10240" xmlns:xlink="http://www.w3.org/1999/xlink">
	<title>weight2 icon</title>
	<desc>weight2 icon from the IconExperience.com O-Collection. Copyright by INCORS GmbH (www.incors.com).</desc>
	<path id="curve0" fill="#FFFFFF" d="M7680 4331l0 4309c0,176 -144,320 -320,320l-4480 0c-176,0 -320,-144 -320,-320l0 -4309c0,-314 222,-577 531,-631 287,-49 580,-81 823,-177 248,-99 403,-327 403,-595 0,-267 -154,-495 -402,-594l-235 -94c-245,-98 -480,-216 -480,-480l0 -160c0,-530 860,-960 1920,-960 1060,0 1920,430 1920,960l0 160c0,264 -235,382 -480,480l-235 94c-248,99 -402,327 -402,594 0,268 155,496 403,595 243,96 536,128 823,177 309,54 531,317 531,631z"/>
</svg>
