<?xml version="1.0" encoding="UTF-8"?>
<!DOCTYPE svg PUBLIC "-//W3C//DTD SVG 1.1//EN" "http://www.w3.org/Graphics/SVG/1.1/DTD/svg11.dtd">
<svg xmlns="http://www.w3.org/2000/svg" xml:space="preserve" width="1024px" height="1024px" shape-rendering="geometricPrecision" text-rendering="geometricPrecision" image-rendering="optimizeQuality" fill-rule="nonzero" clip-rule="evenodd" viewBox="0 0 10240 10240" xmlns:xlink="http://www.w3.org/1999/xlink">
	<title>whistle_noise icon</title>
	<desc>whistle_noise icon from the IconExperience.com O-Collection. Copyright by INCORS GmbH (www.incors.com).</desc>
	<path id="curve1" fill="#FFFFFF" d="M6080 3840l-5120 0c-176,0 -320,144 -320,320l0 1280c0,176 144,320 320,320l187 0c89,0 164,-31 227,-94l132 -132c63,-63 138,-94 227,-94l187 0c1000,0 1465,1090 1771,1882 370,958 1300,1638 2389,1638 1050,0 1953,-632 2347,-1537 101,-230 310,-373 560,-384 341,-14 613,-295 613,-639 0,-344 -272,-625 -613,-639 -250,-11 -459,-154 -560,-384 -394,-905 -1297,-1537 -2347,-1537zm2880 2240c177,0 320,143 320,320 0,177 -143,320 -320,320 -177,0 -320,-143 -320,-320 0,-177 143,-320 320,-320zm-2880 -1600c1060,0 1920,860 1920,1920 0,1060 -860,1920 -1920,1920 -1060,0 -1920,-860 -1920,-1920 0,-1060 860,-1920 1920,-1920zm0 640c-707,0 -1280,573 -1280,1280 0,707 573,1280 1280,1280 707,0 1280,-573 1280,-1280 0,-707 -573,-1280 -1280,-1280z"/>
	<path id="curve0" fill="#FFFFFF" d="M2708 2074l353 -353c70,-70 159,-102 257,-92 99,9 180,58 235,140l747 1121c80,120 65,277 -37,379l-7 7c-103,102 -259,118 -379,38l-1121 -748c-82,-55 -131,-136 -141,-234 -9,-99 22,-188 93,-258zm3285 816l747 -1121c56,-82 137,-131 235,-140 99,-10 188,22 258,92l353 353c70,70 102,159 92,258 -9,98 -58,179 -141,234l-1120 748c-121,80 -277,64 -379,-38l-7 -7c-102,-102 -118,-259 -38,-379zm-1145 -226l-265 -1321c-19,-98 4,-189 67,-266 63,-77 148,-117 247,-117l499 0c100,0 185,40 248,117 63,77 86,168 66,266l-264 1321c-28,141 -150,241 -294,241l-10 0c-145,0 -266,-100 -294,-241z"/>
</svg>
