<?xml version="1.0" encoding="UTF-8"?>
<!DOCTYPE svg PUBLIC "-//W3C//DTD SVG 1.1//EN" "http://www.w3.org/Graphics/SVG/1.1/DTD/svg11.dtd">
<svg xmlns="http://www.w3.org/2000/svg" xml:space="preserve" width="1024px" height="1024px" shape-rendering="geometricPrecision" text-rendering="geometricPrecision" image-rendering="optimizeQuality" fill-rule="nonzero" clip-rule="evenodd" viewBox="0 0 10240 10240" xmlns:xlink="http://www.w3.org/1999/xlink">
	<title>windup_key icon</title>
	<desc>windup_key icon from the IconExperience.com O-Collection. Copyright by INCORS GmbH (www.incors.com).</desc>
	<path id="curve0" fill="#FFFFFF" d="M6304 904c308,-179 674,-264 1056,-264 1237,0 2240,1003 2240,2240 0,1237 -1003,2240 -2240,2240l-960 0 0 960 -320 0 0 3520 -1920 0 0 -3520 -320 0 0 -960 -960 0c-1237,0 -2240,-1003 -2240,-2240 0,-1237 1003,-2240 2240,-2240 359,0 710,63 999,235 307,181 750,331 1235,331 485,0 890,-128 1190,-302zm1056 1016c-530,0 -960,430 -960,960 0,530 430,960 960,960 530,0 960,-430 960,-960 0,-530 -430,-960 -960,-960zm-4480 0c-530,0 -960,430 -960,960 0,530 430,960 960,960 530,0 960,-430 960,-960 0,-530 -430,-960 -960,-960z"/>
</svg>
