<?xml version="1.0" encoding="UTF-8"?>
<!DOCTYPE svg PUBLIC "-//W3C//DTD SVG 1.1//EN" "http://www.w3.org/Graphics/SVG/1.1/DTD/svg11.dtd">
<svg xmlns="http://www.w3.org/2000/svg" xml:space="preserve" width="1024px" height="1024px" shape-rendering="geometricPrecision" text-rendering="geometricPrecision" image-rendering="optimizeQuality" fill-rule="nonzero" clip-rule="evenodd" viewBox="0 0 10240 10240" xmlns:xlink="http://www.w3.org/1999/xlink">
	<title>window_explorer icon</title>
	<desc>window_explorer icon from the IconExperience.com O-Collection. Copyright by INCORS GmbH (www.incors.com).</desc>
	<path id="curve2" fill="#FFFFFF" d="M9600 8640c0,176 -144,320 -320,320l-8320 0c-176,0 -320,-144 -320,-320l0 -6720c0,-353 288,-640 640,-640l7680 0c353,0 640,288 640,640 0,2240 0,4480 0,6720zm-5760 -5440l0 5120 5120 0 0 -5120 -5120 0zm-2560 0l0 5120 1920 0 0 -5120 -1920 0z"/>
	<path id="curve1" fill="#FFFFFF" d="M6720 3520l1280 0 0 1280 -1280 0 0 -1280zm-1920 0l1280 0 0 1280 -1280 0 0 -1280zm1920 1600l1280 0 0 1280 -1280 0 0 -1280zm-1920 0l1280 0 0 1280 -1280 0 0 -1280zm1920 1600l1280 0 0 1280 -1280 0 0 -1280zm-1920 0l1280 0 0 1280 -1280 0 0 -1280z"/>
	<path id="curve0" fill="#FFFFFF" d="M1600 3840l1280 0 0 640 -1280 0 0 -640zm0 1920l1280 0 0 640 -1280 0 0 -640zm-5 -960l1280 0 0 640 -1280 0 0 -640z"/>
</svg>
