<?xml version="1.0" encoding="UTF-8"?>
<!DOCTYPE svg PUBLIC "-//W3C//DTD SVG 1.1//EN" "http://www.w3.org/Graphics/SVG/1.1/DTD/svg11.dtd">
<svg xmlns="http://www.w3.org/2000/svg" xml:space="preserve" width="1024px" height="1024px" shape-rendering="geometricPrecision" text-rendering="geometricPrecision" image-rendering="optimizeQuality" fill-rule="nonzero" clip-rule="evenodd" viewBox="0 0 10240 10240" xmlns:xlink="http://www.w3.org/1999/xlink">
	<title>airplane2_landing icon</title>
	<desc>airplane2_landing icon from the IconExperience.com O-Collection. Copyright by INCORS GmbH (www.incors.com).</desc>
	<path id="curve0" fill="#252525" d="M5991 5493l1858 728c62,25 101,82 99,149 -2,66 -43,122 -106,143l-633 210c-95,32 -184,40 -284,26l-3290 -472 49 147c38,114 131,192 250,209l1140 164 -2367 787c-651,217 -1561,63 -1723,-425 -162,-488 528,-1157 1179,-1374l4174 -1388c162,-54 283,-159 359,-312l1007 -2010c38,-76 98,-128 179,-155l648 -216c98,-32 196,-17 280,43 83,60 128,149 128,252l-1 1482c0,35 5,65 16,98l42 125c27,81 79,141 155,180l163 81c76,38 129,98 155,180l115 345c27,81 22,160 -17,237l-85 170c-32,64 -79,110 -143,141l-1641 790 -1036 -406c-141,-55 -279,-59 -423,-11l-247 82z"/>
</svg>
