<?xml version="1.0" encoding="UTF-8"?>
<!DOCTYPE svg PUBLIC "-//W3C//DTD SVG 1.1//EN" "http://www.w3.org/Graphics/SVG/1.1/DTD/svg11.dtd">
<svg xmlns="http://www.w3.org/2000/svg" xml:space="preserve" width="1024px" height="1024px" shape-rendering="geometricPrecision" text-rendering="geometricPrecision" image-rendering="optimizeQuality" fill-rule="nonzero" clip-rule="evenodd" viewBox="0 0 10240 10240" xmlns:xlink="http://www.w3.org/1999/xlink">
	<title>airship icon</title>
	<desc>airship icon from the IconExperience.com O-Collection. Copyright by INCORS GmbH (www.incors.com).</desc>
	<path id="curve1" fill="#252525" d="M9460 4480c177,0 320,143 320,320 0,177 -143,320 -320,320l-1780 0c-177,0 -320,-143 -320,-320 0,-177 143,-320 320,-320l1780 0zm-63 -554l324 -649c48,-95 47,-197 -2,-292 -50,-94 -133,-153 -238,-168l-1344 -192c-249,-35 -484,71 -620,274 650,267 1275,611 1880,1027zm-3 1742l327 655c48,95 47,197 -2,292 -50,94 -133,153 -238,168l-1344 192c-251,36 -487,-72 -623,-278 650,-268 1275,-614 1880,-1029z"/>
	<path id="curve0" fill="#252525" d="M5120 6987l0 53c0,352 -288,640 -640,640l-1920 0c-352,0 -640,-287 -640,-640l0 -292c-915,-300 -1600,-879 -1600,-1948 0,-1867 2089,-2240 3840,-2240 1882,0 3520,585 5011,1600l-1491 0c-353,0 -640,287 -640,640 0,353 287,640 640,640l1480 0c-1229,835 -2557,1382 -4040,1547z"/>
</svg>
