<?xml version="1.0" encoding="UTF-8"?>
<!DOCTYPE svg PUBLIC "-//W3C//DTD SVG 1.1//EN" "http://www.w3.org/Graphics/SVG/1.1/DTD/svg11.dtd">
<svg xmlns="http://www.w3.org/2000/svg" xml:space="preserve" width="1024px" height="1024px" shape-rendering="geometricPrecision" text-rendering="geometricPrecision" image-rendering="optimizeQuality" fill-rule="nonzero" clip-rule="evenodd" viewBox="0 0 10240 10240" xmlns:xlink="http://www.w3.org/1999/xlink">
	<title>arrow_through icon</title>
	<desc>arrow_through icon from the IconExperience.com O-Collection. Copyright by INCORS GmbH (www.incors.com).</desc>
	<path id="curve1" fill="#252525" d="M4480 9600l0 -6720 -687 687c-47,46 -113,60 -174,34 -61,-25 -100,-82 -99,-147l7 -839c1,-176 63,-328 187,-453l1187 -1186c124,-124 328,-124 452,0l1186 1186c125,125 189,277 188,453l-7 839c-1,66 -38,122 -99,147 -61,26 -127,12 -174,-34l-687 -687c0,2240 0,4480 0,6720l-1280 0z"/>
	<path id="curve0" fill="#A1C057" d="M1280 5120l2880 0 0 1280 -2880 0 0 -1280zm4800 0l2880 0 0 1280 -2880 0 0 -1280z"/>
</svg>
