<?xml version="1.0" encoding="UTF-8"?>
<!DOCTYPE svg PUBLIC "-//W3C//DTD SVG 1.1//EN" "http://www.w3.org/Graphics/SVG/1.1/DTD/svg11.dtd">
<svg xmlns="http://www.w3.org/2000/svg" xml:space="preserve" width="1024px" height="1024px" shape-rendering="geometricPrecision" text-rendering="geometricPrecision" image-rendering="optimizeQuality" fill-rule="nonzero" clip-rule="evenodd" viewBox="0 0 10240 10240" xmlns:xlink="http://www.w3.org/1999/xlink">
	<title>atom2 icon</title>
	<desc>atom2 icon from the IconExperience.com O-Collection. Copyright by INCORS GmbH (www.incors.com).</desc>
	<path id="curve3" fill="#A1C057" d="M2645 4463c94,-355 262,-679 487,-956 197,63 394,134 591,213 -364,226 -729,475 -1078,743zm1807 -1815c213,-57 437,-88 668,-88 137,0 272,11 403,32 11,51 22,103 32,156 -146,64 -292,131 -435,200 -219,-105 -442,-206 -668,-300zm2656 859c225,277 393,601 487,956 -194,-149 -393,-292 -594,-429 -12,-159 -26,-318 -44,-477 50,-17 101,-34 151,-50zm403 2528c-130,341 -331,646 -584,898 57,-435 90,-875 104,-1303 167,131 327,266 480,405zm-1988 1613c-131,21 -266,32 -403,32 -1091,0 -2023,-683 -2391,-1645 616,-561 1362,-1060 2071,-1469 105,-61 211,-121 320,-180 109,59 215,119 320,180 105,60 210,123 316,187 3,124 4,246 4,367 0,818 -59,1714 -237,2528z"/>
	<path id="curve2" fill="#252525" d="M3762 2579c283,-1356 785,-2259 1358,-2259 884,0 1600,2149 1600,4800 0,2651 -716,4800 -1600,4800 -573,0 -1075,-903 -1358,-2259 111,59 226,111 345,156 206,895 511,1463 853,1463 619,0 1120,-1862 1120,-4160 0,-2298 -501,-4160 -1120,-4160 -342,0 -647,568 -853,1463 -119,45 -234,97 -345,156z"/>
	<path id="curve1" fill="#252525" d="M2241 5025c-1034,-923 -1564,-1809 -1278,-2305 442,-765 2661,-311 4957,1014 2296,1326 3799,3021 3357,3786 -286,496 -1319,480 -2635,46 106,-66 209,-140 307,-221 878,270 1523,289 1694,-6 309,-536 -1053,-1902 -3043,-3050 -1990,-1149 -3853,-1646 -4163,-1110 -170,295 168,844 841,1470 -21,125 -33,251 -37,376z"/>
	<path id="curve0" fill="#252525" d="M7999 5025c1034,-923 1564,-1809 1278,-2305 -442,-765 -2661,-311 -4957,1014 -2296,1326 -3799,3021 -3357,3786 286,496 1319,480 2635,46 -106,-66 -209,-140 -307,-221 -878,270 -1523,289 -1694,-6 -309,-536 1053,-1902 3043,-3050 1990,-1149 3853,-1646 4163,-1110 170,295 -168,844 -841,1470 21,125 33,251 37,376z"/>
</svg>
