<?xml version="1.0" encoding="UTF-8"?>
<!DOCTYPE svg PUBLIC "-//W3C//DTD SVG 1.1//EN" "http://www.w3.org/Graphics/SVG/1.1/DTD/svg11.dtd">
<svg xmlns="http://www.w3.org/2000/svg" xml:space="preserve" width="1024px" height="1024px" shape-rendering="geometricPrecision" text-rendering="geometricPrecision" image-rendering="optimizeQuality" fill-rule="nonzero" clip-rule="evenodd" viewBox="0 0 10240 10240" xmlns:xlink="http://www.w3.org/1999/xlink">
	<title>bowling_pins icon</title>
	<desc>bowling_pins icon from the IconExperience.com O-Collection. Copyright by INCORS GmbH (www.incors.com).</desc>
	<path id="curve5" fill="#A1C057" d="M8194 3520c-41,190 -63,391 -34,617l-1600 0c29,-226 7,-427 -34,-617l1668 0z"/>
	<path id="curve4" fill="#252525" d="M7360 1280c589,0 1067,512 1067,1143 0,281 -76,527 -149,777l-1824 0c32,-147 53,-297 53,-457 0,-241 -57,-474 -160,-679 141,-456 541,-784 1013,-784zm860 3200c221,986 740,1223 740,2514 0,935 -251,1765 -640,2286l-1681 0c284,-607 401,-1326 401,-1966 0,-642 -110,-1082 -386,-1653 -118,-244 -223,-459 -300,-704 55,-141 106,-296 146,-477l1720 0z"/>
	<path id="curve3" fill="#A1C057" d="M5954 3840c-41,190 -63,391 -34,617l-1600 0c29,-226 7,-427 -34,-617l1668 0z"/>
	<path id="curve2" fill="#252525" d="M5120 1600c589,0 1067,512 1067,1143 0,281 -76,527 -149,777l-1836 0c-73,-250 -149,-496 -149,-777 0,-631 478,-1143 1067,-1143zm860 3200c221,986 740,1223 740,2514 0,935 -251,1765 -640,2286l-1920 0c-389,-521 -640,-1351 -640,-2286 0,-1291 518,-1528 740,-2514l1720 0z"/>
	<path id="curve1" fill="#A1C057" d="M3714 3520c-41,190 -63,391 -34,617l-1600 0c29,-226 7,-427 -34,-617l1668 0z"/>
	<path id="curve0" fill="#252525" d="M2880 1280c472,0 872,328 1013,784 -103,205 -160,438 -160,679 0,160 21,310 53,457l-1824 0c-73,-250 -149,-496 -149,-777 0,-631 478,-1143 1067,-1143zm860 3200c40,181 91,336 146,477 -77,245 -182,460 -300,704 -276,571 -386,1011 -386,1653 0,640 117,1359 401,1966l-1681 0c-389,-521 -640,-1351 -640,-2286 0,-1291 518,-1528 740,-2514l1720 0z"/>
</svg>
