<?xml version="1.0" encoding="UTF-8"?>
<!DOCTYPE svg PUBLIC "-//W3C//DTD SVG 1.1//EN" "http://www.w3.org/Graphics/SVG/1.1/DTD/svg11.dtd">
<svg xmlns="http://www.w3.org/2000/svg" xml:space="preserve" width="1024px" height="1024px" shape-rendering="geometricPrecision" text-rendering="geometricPrecision" image-rendering="optimizeQuality" fill-rule="nonzero" clip-rule="evenodd" viewBox="0 0 10240 10240" xmlns:xlink="http://www.w3.org/1999/xlink">
	<title>box_out icon</title>
	<desc>box_out icon from the IconExperience.com O-Collection. Copyright by INCORS GmbH (www.incors.com).</desc>
	<path id="curve1" fill="#252525" d="M8881 3663l855 1710c78,158 15,349 -143,428l-633 311 0 1568c0,248 -132,461 -354,572l-3200 1600c-186,93 -386,93 -572,0l-3200 -1600c-222,-111 -354,-324 -354,-572l0 -2484 -571 285c-96,48 -208,28 -282,-50 -74,-78 -87,-190 -34,-284l695 -1215c131,-229 303,-392 539,-510l1253 -626 0 603c0,195 116,368 296,443 180,75 385,34 523,-104l461 -460 0 722c0,264 216,480 480,480l480 0 0 679 2792 -1372 -564 -282c8,-34 12,-70 12,-106l0 -603 1246 623c91,45 228,151 275,244zm-429 569l-2904 1428 570 1140 2904 -1428 -570 -1140zm-6532 40l0 3408 2880 1440 0 -3408 -2880 -1440zm3520 4848l2880 -1440 0 -1253 -2205 1085c-157,77 -347,12 -425,-144l-250 -500 0 2252z"/>
	<path id="curve0" fill="#A1C057" d="M6853 1787l-1507 -1506c-124,-124 -328,-124 -452,0l-1507 1506c-124,125 -187,277 -187,453l0 1159c0,66 38,122 99,147 61,26 127,13 174,-34l1007 -1007 0 1495c0,88 72,160 160,160l960 0c88,0 160,-72 160,-160l0 -1495 1007 1007c47,47 113,60 174,34 61,-25 99,-81 99,-147l0 -1159c0,-176 -63,-328 -187,-453z"/>
</svg>
