<?xml version="1.0" encoding="UTF-8"?>
<!DOCTYPE svg PUBLIC "-//W3C//DTD SVG 1.1//EN" "http://www.w3.org/Graphics/SVG/1.1/DTD/svg11.dtd">
<svg xmlns="http://www.w3.org/2000/svg" xml:space="preserve" width="1024px" height="1024px" shape-rendering="geometricPrecision" text-rendering="geometricPrecision" image-rendering="optimizeQuality" fill-rule="nonzero" clip-rule="evenodd" viewBox="0 0 10240 10240" xmlns:xlink="http://www.w3.org/1999/xlink">
	<title>brickwall icon</title>
	<desc>brickwall icon from the IconExperience.com O-Collection. Copyright by INCORS GmbH (www.incors.com).</desc>
	<path id="curve0" fill="#A1C057" d="M960 1920l3840 0c176,0 320,144 320,320l0 1280c0,176 -144,320 -320,320l-3840 0c-176,0 -320,-144 -320,-320l0 -1280c0,-176 144,-320 320,-320zm-320 2560l1600 0c176,0 320,144 320,320l0 1280c0,176 -144,320 -320,320l-1600 0 0 -1920zm2880 0l3840 0c176,0 320,144 320,320l0 1280c0,176 -144,320 -320,320l-3840 0c-176,0 -320,-144 -320,-320l0 -1280c0,-176 144,-320 320,-320zm1920 2560l3840 0c176,0 320,144 320,320l0 1280c0,176 -144,320 -320,320l-3840 0c-176,0 -320,-144 -320,-320l0 -1280c0,-176 144,-320 320,-320zm-4800 0l3520 0c176,0 320,144 320,320l0 1280c0,176 -144,320 -320,320l-3520 0 0 -1920zm8000 -2560l960 0 0 1920 -960 0c-176,0 -320,-144 -320,-320l0 -1280c0,-176 144,-320 320,-320zm-2560 -2560l3520 0 0 1920 -3520 0c-176,0 -320,-144 -320,-320l0 -1280c0,-176 144,-320 320,-320z"/>
</svg>
