<?xml version="1.0" encoding="UTF-8"?>
<!DOCTYPE svg PUBLIC "-//W3C//DTD SVG 1.1//EN" "http://www.w3.org/Graphics/SVG/1.1/DTD/svg11.dtd">
<svg xmlns="http://www.w3.org/2000/svg" xml:space="preserve" width="1024px" height="1024px" shape-rendering="geometricPrecision" text-rendering="geometricPrecision" image-rendering="optimizeQuality" fill-rule="nonzero" clip-rule="evenodd" viewBox="0 0 10240 10240" xmlns:xlink="http://www.w3.org/1999/xlink">
	<title>brush icon</title>
	<desc>brush icon from the IconExperience.com O-Collection. Copyright by INCORS GmbH (www.incors.com).</desc>
	<path id="curve1" fill="#A1C057" d="M3200 7065c784,865 1,1895 -1045,1895 -784,0 -849,0 -1808,0 542,-199 691,-565 818,-958 103,-319 192,-656 466,-937 365,-373 1081,-539 1569,0z"/>
	<path id="curve0" fill="#252525" d="M8877 1423c-20,-20 -40,-40 -60,-60 -98,-98 -251,-111 -363,-29 -1362,983 -3061,2320 -4579,3838 -236,235 -471,471 -665,747 257,110 497,276 701,501 179,198 313,404 405,613 278,-195 515,-431 752,-668 1518,-1518 2855,-3217 3838,-4579 82,-112 69,-265 -29,-363zm-5838 4772c-48,91 -92,187 -130,289 198,75 377,199 528,366 133,146 238,310 308,486 104,-39 202,-83 295,-133 -79,-193 -199,-384 -366,-568 -184,-203 -401,-349 -635,-440z"/>
</svg>
