<?xml version="1.0" encoding="UTF-8"?>
<!DOCTYPE svg PUBLIC "-//W3C//DTD SVG 1.1//EN" "http://www.w3.org/Graphics/SVG/1.1/DTD/svg11.dtd">
<svg xmlns="http://www.w3.org/2000/svg" xml:space="preserve" width="1024px" height="1024px" shape-rendering="geometricPrecision" text-rendering="geometricPrecision" image-rendering="optimizeQuality" fill-rule="nonzero" clip-rule="evenodd" viewBox="0 0 10240 10240" xmlns:xlink="http://www.w3.org/1999/xlink">
	<title>bullets icon</title>
	<desc>bullets icon from the IconExperience.com O-Collection. Copyright by INCORS GmbH (www.incors.com).</desc>
	<path id="curve5" fill="#A1C057" d="M6388 3520l1612 0 0 482c0,110 12,204 38,311l206 821c53,214 76,401 76,621l0 2885c0,176 -144,320 -320,320l-1280 0 0 -2565c0,-241 -28,-465 -86,-698l-205 -822c-20,-79 -29,-151 -29,-233l0 -482c0,-214 4,-426 -12,-640z"/>
	<path id="curve4" fill="#252525" d="M7164 700c337,424 836,1333 836,2500l-1648 0c-40,-270 -105,-541 -193,-803 155,-778 502,-1376 757,-1697 32,-39 74,-60 124,-60 50,0 92,21 124,60z"/>
	<path id="curve3" fill="#A1C057" d="M4160 4642l0 -482 1920 0 0 482c0,110 12,204 38,311l206 821c53,214 76,401 76,621l0 2885c0,176 -144,320 -320,320l-1920 0c-176,0 -320,-144 -320,-320l0 -2885c0,-220 23,-407 76,-621l206 -821c26,-107 38,-201 38,-311zm320 0c0,134 -15,259 -48,388l-205 822c-46,183 -67,354 -67,543l0 2725c0,88 72,160 160,160 88,0 160,-72 160,-160l0 -2725c0,-160 19,-310 57,-466l206 -821c38,-154 57,-307 57,-466 0,-89 -70,-162 -160,-162 -90,0 -160,73 -160,162z"/>
	<path id="curve2" fill="#252525" d="M5244 1340c337,424 836,1333 836,2500l-1920 0c0,-1167 499,-2076 836,-2500 32,-39 74,-60 124,-60 50,0 92,21 124,60z"/>
	<path id="curve1" fill="#A1C057" d="M2240 4002l0 -482 1612 0c-16,214 -12,426 -12,640l0 482c0,82 -9,154 -29,233l-205 822c-58,233 -86,457 -86,698l0 2565 -1280 0c-176,0 -320,-144 -320,-320l0 -2885c0,-220 23,-407 76,-621l206 -821c26,-107 38,-201 38,-311zm320 0c0,134 -15,259 -48,388l-205 822c-46,183 -67,354 -67,543l0 2725c0,88 72,160 160,160 88,0 160,-72 160,-160l0 -2725c0,-160 19,-310 57,-466l206 -821c38,-154 57,-307 57,-466 0,-89 -70,-162 -160,-162 -90,0 -160,73 -160,162z"/>
	<path id="curve0" fill="#252525" d="M3324 700c255,321 602,919 757,1697 -88,262 -153,533 -193,803l-1648 0c0,-1167 499,-2076 836,-2500 32,-39 74,-60 124,-60 50,0 92,21 124,60z"/>
</svg>
