<?xml version="1.0" encoding="UTF-8"?>
<!DOCTYPE svg PUBLIC "-//W3C//DTD SVG 1.1//EN" "http://www.w3.org/Graphics/SVG/1.1/DTD/svg11.dtd">
<svg xmlns="http://www.w3.org/2000/svg" xml:space="preserve" width="1024px" height="1024px" shape-rendering="geometricPrecision" text-rendering="geometricPrecision" image-rendering="optimizeQuality" fill-rule="nonzero" clip-rule="evenodd" viewBox="0 0 10240 10240" xmlns:xlink="http://www.w3.org/1999/xlink">
	<title>bus icon</title>
	<desc>bus icon from the IconExperience.com O-Collection. Copyright by INCORS GmbH (www.incors.com).</desc>
	<path id="curve2" fill="#252525" d="M7360 8640l0 640c0,176 144,320 320,320l960 0c176,0 320,-144 320,-320l0 -726c-94,55 -203,86 -320,86l-1280 0zm-4480 0l0 640c0,176 -144,320 -320,320l-960 0c-176,0 -320,-144 -320,-320l0 -726c94,55 204,86 320,86l1280 0z"/>
	<path id="curve1" fill="#252525" d="M2880,1280 7360,1280 7360,1920 2880,1920z"/>
	<path id="curve0" fill="#A1C057" d="M1920 640l6400 0c353,0 640,287 640,640l0 6720c0,176 -144,320 -320,320l-1335 0c-88,0 -164,31 -226,94l-133 132c-62,63 -138,94 -226,94l-3200 0c-88,0 -164,-31 -226,-94l-133 -132c-62,-63 -138,-94 -226,-94l-1335 0c-176,0 -320,-144 -320,-320l0 -6720c0,-353 287,-640 640,-640zm-320 2560l0 640 0 640c0,705 575,1280 1280,1280l4480 0c705,0 1280,-575 1280,-1280l0 -640 0 -640c0,-353 -287,-640 -640,-640l-5760 0c-353,0 -640,287 -640,640zm2301 3840c-66,0 -123,38 -148,99 -25,61 -12,127 35,174l273 273c62,63 138,94 226,94l1655 0c88,0 164,-31 226,-94l273 -273c47,-47 60,-113 35,-174 -25,-61 -82,-99 -148,-99l-2427 0zm-1981 2c-176,0 -320,144 -320,320l0 0c0,176 144,320 320,320l1214 0c66,0 122,-38 148,-99 25,-61 12,-127 -35,-174l-273 -273c-63,-63 -138,-94 -227,-94l-827 0zm5573 0c-89,0 -164,31 -227,94l-273 273c-47,47 -60,113 -35,174 26,61 82,99 148,99l1214 0c176,0 320,-144 320,-320l0 0c0,-176 -144,-320 -320,-320l-827 0zm-4613 -6082c-176,0 -320,144 -320,320l0 640c0,176 144,320 320,320l4480 0c176,0 320,-144 320,-320l0 -640c0,-176 -144,-320 -320,-320l-4480 0z"/>
</svg>
