<?xml version="1.0" encoding="UTF-8"?>
<!DOCTYPE svg PUBLIC "-//W3C//DTD SVG 1.1//EN" "http://www.w3.org/Graphics/SVG/1.1/DTD/svg11.dtd">
<svg xmlns="http://www.w3.org/2000/svg" xml:space="preserve" width="1024px" height="1024px" shape-rendering="geometricPrecision" text-rendering="geometricPrecision" image-rendering="optimizeQuality" fill-rule="nonzero" clip-rule="evenodd" viewBox="0 0 10240 10240" xmlns:xlink="http://www.w3.org/1999/xlink">
	<title>caesar icon</title>
	<desc>caesar icon from the IconExperience.com O-Collection. Copyright by INCORS GmbH (www.incors.com).</desc>
	<path id="curve2" fill="#252525" d="M8320 8470c0,810 -1920,1130 -3200,1130 -1280,0 -3200,-320 -3200,-1129 0,-1264 557,-2379 1404,-3039 232,184 492,333 772,439l1012 1704 1030 -1701c282,-107 545,-257 778,-442 847,660 1404,1774 1404,3038zm-3579 -267l-1105 -1832c-85,-40 -168,-82 -250,-128 -538,585 -816,1389 -826,2184 85,89 344,194 438,227 416,149 883,222 1323,266l420 -717zm296 757c688,7 1558,-75 2206,-306 93,-33 352,-138 437,-228 -10,-794 -288,-1598 -826,-2183 -105,59 -211,112 -321,160l-1496 2557z"/>
	<path id="curve1" fill="#252525" d="M5120 640c476,0 923,130 1305,355 -118,29 -233,74 -341,136l-160 93 0 185c0,397 183,767 492,1008 -116,195 -180,420 -180,654l0 185 160 93c396,228 882,229 1279,0 -83,1334 -1195,2390 -2555,2390 -1359,0 -2471,-1055 -2555,-2388 396,227 881,225 1275,-2l160 -93 0 -185c0,-234 -64,-459 -180,-654 309,-241 492,-611 492,-1008l0 -185 -160 -93c-107,-61 -221,-107 -338,-135 383,-226 829,-356 1306,-356z"/>
	<path id="curve0" fill="#A1C057" d="M3032 1409c298,-172 663,-172 960,0 0,331 -172,653 -480,831 -307,178 -673,166 -960,0 0,-331 173,-654 480,-831zm514 1172c86,146 134,315 134,490 -287,166 -652,178 -960,0 -244,-141 -403,-373 -458,-629l130 75c355,205 783,227 1154,64zm-1372 424c-245,-68 -450,-230 -574,-445 78,-135 188,-249 320,-332l0 12c0,280 92,547 254,765zm-162 -1003c-125,-221 -156,-482 -92,-722 224,-60 465,-37 675,67 -142,146 -248,325 -307,520 -71,25 -141,57 -208,96l-68 39zm4679 579c-87,146 -135,315 -135,490 287,166 652,178 960,0 245,-141 403,-373 459,-629l-131 75c-355,205 -783,227 -1153,64zm1372 424c244,-68 449,-230 573,-445 -78,-135 -188,-249 -320,-332l0 12c0,280 -91,547 -253,765zm161 -1003c126,-221 156,-482 92,-722 -223,-60 -464,-37 -675,67 143,146 248,325 307,520 72,25 141,57 208,96l68 39zm-1020 -593c-298,-172 -663,-172 -960,0 0,331 172,653 480,831 308,178 673,166 960,0 0,-331 -172,-654 -480,-831z"/>
</svg>
