<?xml version="1.0" encoding="UTF-8"?>
<!DOCTYPE svg PUBLIC "-//W3C//DTD SVG 1.1//EN" "http://www.w3.org/Graphics/SVG/1.1/DTD/svg11.dtd">
<svg xmlns="http://www.w3.org/2000/svg" xml:space="preserve" width="1024px" height="1024px" shape-rendering="geometricPrecision" text-rendering="geometricPrecision" image-rendering="optimizeQuality" fill-rule="nonzero" clip-rule="evenodd" viewBox="0 0 10240 10240" xmlns:xlink="http://www.w3.org/1999/xlink">
	<title>car_convertible2 icon</title>
	<desc>car_convertible2 icon from the IconExperience.com O-Collection. Copyright by INCORS GmbH (www.incors.com).</desc>
	<path id="curve1" fill="#252525" d="M8000 6720c-530,0 -960,430 -960,960 0,530 430,960 960,960 530,0 960,-430 960,-960 0,-530 -430,-960 -960,-960zm0 640c177,0 320,143 320,320 0,177 -143,320 -320,320 -177,0 -320,-143 -320,-320 0,-177 143,-320 320,-320zm-5440 0c-177,0 -320,143 -320,320 0,177 143,320 320,320 177,0 320,-143 320,-320 0,-177 -143,-320 -320,-320zm0 -640c530,0 960,430 960,960 0,530 -430,960 -960,960 -530,0 -960,-430 -960,-960 0,-530 430,-960 960,-960z"/>
	<path id="curve0" fill="#A1C057" d="M7360 5440c1280,0 2560,640 2560,1280 0,247 0,640 0,960 0,260 -353,309 -680,318 26,-101 40,-208 40,-318 0,-707 -573,-1280 -1280,-1280 -707,0 -1280,573 -1280,1280 0,110 14,218 40,320l-2960 0c26,-102 40,-210 40,-320 0,-707 -573,-1280 -1280,-1280 -707,0 -1280,573 -1280,1280 0,66 5,131 15,194 -510,-122 -975,-362 -975,-834 0,-434 0,-640 0,-960 0,-895 1596,-960 2560,-960 640,0 268,320 960,320 1152,0 1404,0 2074,0 335,0 481,-160 392,-343 -148,-308 -164,-548 -481,-608 -38,-7 -65,-40 -65,-78l0 -168c0,-47 40,-83 87,-79 576,48 827,590 1513,1276z"/>
</svg>
