<?xml version="1.0" encoding="UTF-8"?>
<!DOCTYPE svg PUBLIC "-//W3C//DTD SVG 1.1//EN" "http://www.w3.org/Graphics/SVG/1.1/DTD/svg11.dtd">
<svg xmlns="http://www.w3.org/2000/svg" xml:space="preserve" width="1024px" height="1024px" shape-rendering="geometricPrecision" text-rendering="geometricPrecision" image-rendering="optimizeQuality" fill-rule="nonzero" clip-rule="evenodd" viewBox="0 0 10240 10240" xmlns:xlink="http://www.w3.org/1999/xlink">
	<title>carabiner icon</title>
	<desc>carabiner icon from the IconExperience.com O-Collection. Copyright by INCORS GmbH (www.incors.com).</desc>
	<path id="curve1" fill="#252525" d="M4206 7083l3407 -2273c445,-297 707,-779 707,-1315 0,-435 -176,-829 -461,-1114 -285,-285 -679,-461 -1114,-461 -534,0 -1018,258 -1314,702l-172 258 -534 -356 -527 -353 173 -259c528,-791 1422,-1272 2374,-1272 1576,0 2855,1279 2855,2855 0,951 -486,1852 -1277,2380l-3336 2224 -553 671c-415,504 -1017,830 -1677,830 -1169,0 -2117,-948 -2117,-2117 0,-633 285,-1230 773,-1632l257 -212c-12,322 139,643 426,835 120,79 251,129 385,149l-258 213c-195,160 -303,395 -303,647 0,462 375,837 837,837 283,0 516,-146 692,-360l619 -750c40,-50 87,-92 138,-127z"/>
	<path id="curve0" fill="#A1C057" d="M4018 2438l1065 710 -1922 2882c-196,294 -593,373 -887,177 -294,-196 -374,-593 -178,-887l1922 -2882z"/>
</svg>
