<?xml version="1.0" encoding="UTF-8"?>
<!DOCTYPE svg PUBLIC "-//W3C//DTD SVG 1.1//EN" "http://www.w3.org/Graphics/SVG/1.1/DTD/svg11.dtd">
<svg xmlns="http://www.w3.org/2000/svg" xml:space="preserve" width="1024px" height="1024px" shape-rendering="geometricPrecision" text-rendering="geometricPrecision" image-rendering="optimizeQuality" fill-rule="nonzero" clip-rule="evenodd" viewBox="0 0 10240 10240" xmlns:xlink="http://www.w3.org/1999/xlink">
	<title>cd_burn icon</title>
	<desc>cd_burn icon from the IconExperience.com O-Collection. Copyright by INCORS GmbH (www.incors.com).</desc>
	<path id="curve3" fill="#A1C057" d="M688 4465c309,1717 1115,2018 1872,655 320,1280 765,2117 1280,1280 464,1286 1701,264 1920,-640 640,1600 1600,0 1920,-1280 548,1645 1620,1397 1906,288 9,116 14,234 14,352 0,2474 -2006,4480 -4480,4480 -2474,0 -4480,-2006 -4480,-4480 0,-222 16,-441 48,-655z"/>
	<path id="curve2" fill="#252525" d="M5120 1600c677,0 1309,191 1845,522l-1006 1635c-244,-150 -531,-237 -839,-237 -884,0 -1600,716 -1600,1600 0,224 46,437 129,630l-489 210c-123,-291 -214,-615 -290,-918l-196 -786 -394 709c-89,161 -395,658 -640,689 -26,-174 -40,-353 -40,-534 0,-1944 1576,-3520 3520,-3520zm1471 2890l848 -364 -69 276c-45,179 -101,356 -165,529 -113,301 -266,631 -460,889 -59,79 -238,293 -351,291 -6,0 -11,-1 -16,-2 214,-272 342,-616 342,-989 0,-224 -46,-437 -129,-630zm1251 -536l514 -221c183,426 284,895 284,1387 0,66 -2,132 -6,198 -75,-26 -143,-77 -200,-130 -213,-202 -359,-536 -450,-809l-142 -425zm-3587 2571l26 -42c120,73 249,132 386,172 -67,26 -134,38 -198,29 -88,-13 -159,-79 -214,-159z"/>
	<path id="curve1" fill="#252525" d="M5120 3840c707,0 1280,573 1280,1280 0,277 -88,533 -237,743 -51,-92 -90,-182 -106,-222l-372 -930 -19 76c-112,-184 -315,-307 -546,-307 -353,0 -640,287 -640,640 0,353 287,640 640,640 122,0 236,-34 333,-94l-4 19c-42,175 -132,349 -236,495 -44,63 -108,141 -184,217 -664,-47 -1189,-601 -1189,-1277 0,-707 573,-1280 1280,-1280z"/>
	<path id="curve0" fill="#252525" d="M5120 640c2084,0 3836,1423 4336,3351l-180 697c-44,174 -151,434 -319,566 2,-45 3,-89 3,-134 0,-2121 -1719,-3840 -3840,-3840 -2121,0 -3840,1719 -3840,3840 0,71 2,142 6,212 -145,-274 -230,-627 -283,-923l-130 -719c597,-1773 2273,-3050 4247,-3050z"/>
</svg>
