<?xml version="1.0" encoding="UTF-8"?>
<!DOCTYPE svg PUBLIC "-//W3C//DTD SVG 1.1//EN" "http://www.w3.org/Graphics/SVG/1.1/DTD/svg11.dtd">
<svg xmlns="http://www.w3.org/2000/svg" xml:space="preserve" width="1024px" height="1024px" shape-rendering="geometricPrecision" text-rendering="geometricPrecision" image-rendering="optimizeQuality" fill-rule="nonzero" clip-rule="evenodd" viewBox="0 0 10240 10240" xmlns:xlink="http://www.w3.org/1999/xlink">
	<title>cd_music icon</title>
	<desc>cd_music icon from the IconExperience.com O-Collection. Copyright by INCORS GmbH (www.incors.com).</desc>
	<path id="curve3" fill="#A1C057" d="M8960 4418l-3200 702 0 3440c0,530 -537,1113 -1200,1301 -663,188 -1200,-89 -1200,-619 0,-530 537,-1113 1200,-1301 202,-57 393,-72 560,-48l0 -3474c0,-153 104,-281 253,-313l3840 -823c200,-43 387,108 387,313l0 4324c0,530 -537,1113 -1200,1301 -663,188 -1200,-89 -1200,-619 0,-530 537,-1113 1200,-1301 202,-57 393,-72 560,-48l0 -2835z"/>
	<path id="curve2" fill="#252525" d="M4480 3413c328,0 622,149 818,382 -188,43 -340,164 -425,325 -324,-354 -926,-130 -926,360 0,295 238,533 533,533 120,0 231,-39 320,-106l0 591c-101,32 -209,49 -320,49 -589,0 -1067,-478 -1067,-1067 0,-589 478,-1067 1067,-1067z"/>
	<path id="curve1" fill="#252525" d="M4480 1600c554,0 1071,156 1510,427l-791 1285c-209,-129 -455,-203 -719,-203 -757,0 -1371,614 -1371,1371 0,192 39,375 110,540l-1387 595c-149,-349 -232,-732 -232,-1135 0,-1591 1289,-2880 2880,-2880zm2648 1745c7,18 14,35 22,53l-289 62 267 -115zm162 1767c-164,732 -606,1359 -1210,1763l0 -1498 1210 -265zm-2490 2230c-105,12 -212,18 -320,18 -554,0 -1071,-156 -1510,-427l791 -1285c209,129 455,203 719,203 110,0 217,-13 320,-37l0 1528z"/>
	<path id="curve0" fill="#252525" d="M4480 640c1670,0 3090,1066 3619,2554l-632 136c-462,-1199 -1625,-2050 -2987,-2050 -1767,0 -3200,1433 -3200,3200 0,1720 1357,3123 3059,3197 -292,106 -584,288 -817,522 -1657,-425 -2882,-1929 -2882,-3719 0,-2121 1719,-3840 3840,-3840zm3818 4251c-146,1372 -1014,2528 -2218,3081l0 -720c803,-465 1385,-1268 1552,-2215l666 -146z"/>
</svg>
