<?xml version="1.0" encoding="UTF-8"?>
<!DOCTYPE svg PUBLIC "-//W3C//DTD SVG 1.1//EN" "http://www.w3.org/Graphics/SVG/1.1/DTD/svg11.dtd">
<svg xmlns="http://www.w3.org/2000/svg" xml:space="preserve" width="1024px" height="1024px" shape-rendering="geometricPrecision" text-rendering="geometricPrecision" image-rendering="optimizeQuality" fill-rule="nonzero" clip-rule="evenodd" viewBox="0 0 10240 10240" xmlns:xlink="http://www.w3.org/1999/xlink">
	<title>central_bank_pound icon</title>
	<desc>central_bank_pound icon from the IconExperience.com O-Collection. Copyright by INCORS GmbH (www.incors.com).</desc>
	<path id="curve2" fill="#252525" d="M640,8960 9600,8960 9600,9600 640,9600z"/>
	<path id="curve1" fill="#252525" d="M8320 4480c353,0 640,288 640,640l0 3840 -3200 0 0 -1920 -1280 0 0 1920 -3200 0 0 -3840c0,-353 287,-640 640,-640l1280 0 0 0c0,-300 209,-553 488,-622l44 88c79,157 271,222 428,144 193,-95 412,-194 492,-184 63,8 165,54 225,78 234,96 447,176 706,176 342,0 630,-137 901,-315 313,42 556,311 556,635l0 0 1280 0zm-640 2560l0 1280 640 0 0 -1280 -640 0zm0 -1920l0 1280 640 0 0 -1280 -640 0zm-1280 0l0 1280 640 0 0 -1280 -640 0zm-1920 0l0 1280 1280 0 0 -1280 -1280 0zm-1280 0l0 1280 640 0 0 -1280 -640 0zm-1280 0l0 1280 640 0 0 -1280 -640 0zm0 1920l0 1280 640 0 0 -1280 -640 0zm1280 0l0 1280 640 0 0 -1280 -640 0zm3200 0l0 1280 640 0 0 -1280 -640 0z"/>
	<path id="curve0" fill="#A1C057" d="M3760 2080l423 0c9,-93 14,-183 14,-267 0,-648 525,-1173 1173,-1173 648,0 1173,525 1173,1173l-640 0c0,-294 -238,-533 -533,-533 -295,0 -533,239 -533,533 0,84 -4,174 -12,267l855 0 -240 480 -687 0c-29,131 -64,262 -106,385 40,1 80,3 122,9 167,20 318,82 469,144 124,51 249,102 345,102 180,0 421,-181 662,-362l383 510c-328,246 -656,492 -1045,492 -214,0 -399,-76 -585,-152 -108,-44 -215,-88 -307,-99 -219,-28 -499,134 -696,227l-261 -581c110,-55 208,-224 288,-436 28,-76 54,-157 75,-239l-577 0 240 -480z"/>
</svg>
