<?xml version="1.0" encoding="UTF-8"?>
<!DOCTYPE svg PUBLIC "-//W3C//DTD SVG 1.1//EN" "http://www.w3.org/Graphics/SVG/1.1/DTD/svg11.dtd">
<svg xmlns="http://www.w3.org/2000/svg" xml:space="preserve" width="1024px" height="1024px" shape-rendering="geometricPrecision" text-rendering="geometricPrecision" image-rendering="optimizeQuality" fill-rule="nonzero" clip-rule="evenodd" viewBox="0 0 10240 10240" xmlns:xlink="http://www.w3.org/1999/xlink">
	<title>central_bank_yuan icon</title>
	<desc>central_bank_yuan icon from the IconExperience.com O-Collection. Copyright by INCORS GmbH (www.incors.com).</desc>
	<path id="curve2" fill="#252525" d="M640,8960 9600,8960 9600,9600 640,9600z"/>
	<path id="curve1" fill="#252525" d="M8320 4480c353,0 640,288 640,640l0 3840 -3200 0 0 -1920 -1280 0 0 1920 -3200 0 0 -3840c0,-353 287,-640 640,-640l1280 0 0 0c0,-144 48,-277 128,-384 54,40 120,64 192,64 349,0 668,-112 936,-320l660 0c44,45 93,87 149,126 261,180 511,194 815,194 205,0 395,-65 552,-175 120,189 164,495 408,495l1280 0zm-2560 640c-427,0 -853,0 -1280,0l0 1280c427,0 853,0 1280,0l0 -1280zm-3840 0l0 1280 640 0 0 -1280 -640 0zm0 1920l0 1280 640 0 0 -1280 -640 0zm1280 0l0 1280 640 0 0 -1280 -640 0zm4480 -1920l0 1280 640 0 0 -1280 -640 0zm0 1920l0 1280 640 0 0 -1280 -640 0zm-1280 0l0 1280 640 0 0 -1280 -640 0zm0 -1920l0 1280 640 0 0 -1280 -640 0zm-3200 0l0 1280 640 0 0 -1280 -640 0z"/>
	<path id="curve0" fill="#A1C057" d="M3520 1600l3200 0 0 640 -960 0 0 640c0,196 19,277 49,297 33,23 146,23 271,23 0,0 0,0 0,0l0 0 0 0c0,0 0,0 0,0l0 -320 640 0 0 320c0,353 -287,640 -640,640 -672,0 -960,-254 -960,-960l0 -640 -320 0 0 320c0,660 -607,1280 -1280,1280l0 -640c322,0 640,-332 640,-640l0 -320 -640 0 0 -640zm2560 1600l0 0 0 0c0,0 0,0 0,0 0,0 0,0 0,0zm-2240 -2560l2560 0 0 640 -2560 0 0 -640z"/>
</svg>
