<?xml version="1.0" encoding="UTF-8"?>
<!DOCTYPE svg PUBLIC "-//W3C//DTD SVG 1.1//EN" "http://www.w3.org/Graphics/SVG/1.1/DTD/svg11.dtd">
<svg xmlns="http://www.w3.org/2000/svg" xml:space="preserve" width="1024px" height="1024px" shape-rendering="geometricPrecision" text-rendering="geometricPrecision" image-rendering="optimizeQuality" fill-rule="nonzero" clip-rule="evenodd" viewBox="0 0 10240 10240" xmlns:xlink="http://www.w3.org/1999/xlink">
	<title>chart_hi_lo icon</title>
	<desc>chart_hi_lo icon from the IconExperience.com O-Collection. Copyright by INCORS GmbH (www.incors.com).</desc>
	<path id="curve2" fill="#A1C057" d="M1600 3520l960 0 0 1600 -960 0 0 -1600zm6400 -2240l960 0 0 2560 -960 0 0 -2560zm-1280 1280l960 0 0 1280 -960 0 0 -1280zm-1280 640l960 0 0 1920 -960 0 0 -1920zm-1280 -1280l960 0 0 3200 -960 0 0 -3200zm-1280 640l960 0 0 1920 -960 0 0 -1920z"/>
	<path id="curve1" fill="#252525" d="M1600 6400l960 0 0 1920 -960 0 0 -1920zm6400 0l960 0 0 640 -960 0 0 -640zm-1280 -640l960 0 0 1920 -960 0 0 -1920zm-1280 640l960 0 0 1920 -960 0 0 -1920zm-1280 640l960 0 0 1280 -960 0 0 -1280zm-1280 -1280l960 0 0 1920 -960 0 0 -1920z"/>
	<path id="curve0" fill="#252525" d="M640,1280 1280,1280 1280,8960 9600,8960 9600,9600 1280,9600 640,9600 640,8960z"/>
</svg>
