<?xml version="1.0" encoding="UTF-8"?>
<!DOCTYPE svg PUBLIC "-//W3C//DTD SVG 1.1//EN" "http://www.w3.org/Graphics/SVG/1.1/DTD/svg11.dtd">
<svg xmlns="http://www.w3.org/2000/svg" xml:space="preserve" width="1024px" height="1024px" shape-rendering="geometricPrecision" text-rendering="geometricPrecision" image-rendering="optimizeQuality" fill-rule="nonzero" clip-rule="evenodd" viewBox="0 0 10240 10240" xmlns:xlink="http://www.w3.org/1999/xlink">
	<title>chart_bubble icon</title>
	<desc>chart_bubble icon from the IconExperience.com O-Collection. Copyright by INCORS GmbH (www.incors.com).</desc>
	<path id="curve2" fill="#252525" d="M8320 1920c353,0 640,287 640,640 0,353 -287,640 -640,640 -353,0 -640,-287 -640,-640 0,-353 287,-640 640,-640zm-2560 3840c353,0 640,287 640,640 0,353 -287,640 -640,640 -353,0 -640,-287 -640,-640 0,-353 287,-640 640,-640zm-1600 -3200c884,0 1600,716 1600,1600 0,884 -716,1600 -1600,1600 -884,0 -1600,-716 -1600,-1600 0,-884 716,-1600 1600,-1600z"/>
	<path id="curve1" fill="#A1C057" d="M8320 6400c353,0 640,287 640,640 0,353 -287,640 -640,640 -353,0 -640,-287 -640,-640 0,-353 287,-640 640,-640zm-5760 -5120c353,0 640,287 640,640 0,353 -287,640 -640,640 -353,0 -640,-287 -640,-640 0,-353 287,-640 640,-640zm4800 2560c530,0 960,430 960,960 0,530 -430,960 -960,960 -530,0 -960,-430 -960,-960 0,-530 430,-960 960,-960zm-4480 2560c530,0 960,430 960,960 0,530 -430,960 -960,960 -530,0 -960,-430 -960,-960 0,-530 430,-960 960,-960z"/>
	<path id="curve0" fill="#252525" d="M640,1280 1280,1280 1280,8960 9600,8960 9600,9600 1280,9600 640,9600 640,8960z"/>
</svg>
