<?xml version="1.0" encoding="UTF-8"?>
<!DOCTYPE svg PUBLIC "-//W3C//DTD SVG 1.1//EN" "http://www.w3.org/Graphics/SVG/1.1/DTD/svg11.dtd">
<svg xmlns="http://www.w3.org/2000/svg" xml:space="preserve" width="1024px" height="1024px" shape-rendering="geometricPrecision" text-rendering="geometricPrecision" image-rendering="optimizeQuality" fill-rule="nonzero" clip-rule="evenodd" viewBox="0 0 10240 10240" xmlns:xlink="http://www.w3.org/1999/xlink">
	<title>chest_open_full icon</title>
	<desc>chest_open_full icon from the IconExperience.com O-Collection. Copyright by INCORS GmbH (www.incors.com).</desc>
	<path id="curve2" fill="#252525" d="M8960 4978l0 2626c0,249 -132,462 -354,573l-2687 1343 10 -3015 3031 -1527zm-3359 4542l-3967 -1983c-222,-111 -354,-324 -354,-573l0 -2606c0,-7 0,-13 1,-20l0 1 1599 799 0 424c0,124 66,231 177,286l640 320c213,107 463,-47 463,-286l0 -104 1441 720 0 3022z"/>
	<path id="curve1" fill="#A1C057" d="M1457 4072l1677 -839 1284 643c-42,15 -80,33 -113,55 -83,-46 -189,-73 -305,-73 -265,0 -480,143 -480,320 0,140 134,258 321,302 11,-132 142,-243 322,-284 21,123 147,226 318,266 14,-168 223,-302 479,-302 8,0 17,0 25,0l72 37c-153,53 -257,160 -257,283 0,140 134,258 321,302 14,-168 223,-302 479,-302 8,0 16,0 23,0l498 250c15,9 43,14 56,15l2206 165 -1026 513c-20,-124 -146,-226 -317,-267 50,-12 104,-18 160,-18 56,0 109,6 159,18 1,-6 1,-12 1,-18 0,-177 -215,-320 -480,-320 -265,0 -480,143 -480,320 0,58 23,113 64,160 -41,47 -64,102 -64,160 0,133 122,248 296,296l-617 308c-14,-168 -223,-302 -479,-302 -184,0 -343,69 -424,170l-1016 -508 0 -104c0,-124 -66,-231 -177,-286l-302 -151c85,-51 197,-81 319,-81 56,0 109,6 159,18 1,-6 1,-12 1,-18 0,-177 -215,-320 -480,-320 -201,0 -373,82 -445,199l0 0c-113,-13 -227,36 -297,133l-322 -161c80,-102 240,-171 424,-171 56,0 109,6 159,18 1,-6 1,-12 1,-18 0,-177 -215,-320 -480,-320 -257,0 -466,134 -479,303l-784 -391zm5822 1390l-556 278c29,-159 231,-282 477,-282 27,0 53,2 79,4zm-1251 626l-268 134 -142 -71c83,-44 188,-71 302,-71 37,0 73,3 108,8zm-2988 -2568c-265,0 -480,143 -480,320 0,140 134,258 321,302 14,-168 223,-302 479,-302 56,0 109,6 159,18 1,-6 1,-12 1,-18 0,-177 -215,-320 -480,-320zm1600 1280c-265,0 -480,143 -480,320 0,140 134,258 321,302 14,-168 223,-302 479,-302 56,0 109,6 159,18 1,-6 1,-12 1,-18 0,-177 -215,-320 -480,-320zm960 18c-265,0 -480,143 -480,320 0,55 21,106 57,151 -36,45 -57,96 -57,151 0,140 134,258 321,302 14,-168 223,-302 479,-302 56,0 109,6 159,18 1,-6 1,-12 1,-18 0,-130 -116,-241 -282,-292 39,-6 80,-10 122,-10 56,0 109,6 159,18 1,-6 1,-12 1,-18 0,-177 -215,-320 -480,-320z"/>
	<path id="curve0" fill="#252525" d="M1774 2200l95 -212c442,-987 1420,-1739 2185,-1681 127,10 240,42 338,91l3996 1998c-921,115 -1792,956 -2175,1764l-99 210 -4340 -2170zm7486 888c138,345 93,830 -140,1351l-92 206 -2595 -202 69 -147c350,-739 1273,-1653 2154,-1590 266,20 485,139 604,382z"/>
</svg>
