<?xml version="1.0" encoding="UTF-8"?>
<!DOCTYPE svg PUBLIC "-//W3C//DTD SVG 1.1//EN" "http://www.w3.org/Graphics/SVG/1.1/DTD/svg11.dtd">
<svg xmlns="http://www.w3.org/2000/svg" xml:space="preserve" width="1024px" height="1024px" shape-rendering="geometricPrecision" text-rendering="geometricPrecision" image-rendering="optimizeQuality" fill-rule="nonzero" clip-rule="evenodd" viewBox="0 0 10240 10240" xmlns:xlink="http://www.w3.org/1999/xlink">
	<title>cigarette_pack_empty icon</title>
	<desc>cigarette_pack_empty icon from the IconExperience.com O-Collection. Copyright by INCORS GmbH (www.incors.com).</desc>
	<path id="curve2" fill="#252525" d="M1920 3520l518 0c380,0 705,200 860,528l256 544c154,328 480,528 860,528l1412 0c380,0 706,-200 860,-528l256 -544c155,-328 480,-528 860,-528l518 0 0 5760c0,176 -144,320 -320,320l-5760 0c-176,0 -320,-144 -320,-320l0 -5760zm1280 2240l0 2560 3840 0 0 -2560 -3840 0z"/>
	<path id="curve1" fill="#252525" d="M6943 3520l-3646 0c119,107 218,238 290,392l256 544c106,225 326,344 571,344l1412 0c245,0 465,-119 571,-344l256 -544c72,-154 171,-285 290,-392z"/>
	<path id="curve0" fill="#252525" d="M2240 640l5760 0c176,0 320,144 320,320l0 2240 -518 0c-41,0 -82,2 -122,5l0 -1925 -5120 0 0 1925c-40,-3 -81,-5 -122,-5l-518 0 0 -2240c0,-176 144,-320 320,-320z"/>
</svg>
