<?xml version="1.0" encoding="UTF-8"?>
<!DOCTYPE svg PUBLIC "-//W3C//DTD SVG 1.1//EN" "http://www.w3.org/Graphics/SVG/1.1/DTD/svg11.dtd">
<svg xmlns="http://www.w3.org/2000/svg" xml:space="preserve" width="1024px" height="1024px" shape-rendering="geometricPrecision" text-rendering="geometricPrecision" image-rendering="optimizeQuality" fill-rule="nonzero" clip-rule="evenodd" viewBox="0 0 10240 10240" xmlns:xlink="http://www.w3.org/1999/xlink">
	<title>circus icon</title>
	<desc>circus icon from the IconExperience.com O-Collection. Copyright by INCORS GmbH (www.incors.com).</desc>
	<path id="curve2" fill="#252525" d="M8983 6503c64,1072 269,2176 617,3097l-2560 0c-320,-1 -640,-1600 -640,-1920 -640,320 -1920,320 -2560,0 0,320 -320,1919 -640,1920l-2560 0c348,-921 553,-2025 617,-3097 186,136 415,217 663,217 313,0 597,-129 800,-336 203,207 487,336 800,336 313,0 597,-129 800,-336 203,207 487,336 800,336 313,0 597,-129 800,-336 203,207 487,336 800,336 313,0 597,-129 800,-336 203,207 487,336 800,336 248,0 477,-81 663,-217z"/>
	<path id="curve1" fill="#A1C057" d="M7520 5600c0,442 -358,800 -800,800 -442,0 -800,-358 -800,-800 0,442 -358,800 -800,800 -442,0 -800,-358 -800,-800 0,442 -358,800 -800,800 -442,0 -800,-358 -800,-800 0,442 -358,800 -800,800 -442,0 -800,-358 -800,-800 1120,-480 3040,-1440 4000,-3360 960,1920 2880,2880 4000,3360 0,442 -358,800 -800,800 -442,0 -800,-358 -800,-800z"/>
	<path id="curve0" fill="#252525" d="M5120 1127l0 793c361,70 539,-317 808,-317 270,0 293,178 473,178 180,0 457,-243 617,-337 270,-158 559,-26 662,0 -53,-84 -269,-317 -674,-317 -269,0 -337,161 -606,161 -269,0 -371,-319 -640,-319 -306,0 -371,158 -640,158z"/>
</svg>
