<?xml version="1.0" encoding="UTF-8"?>
<!DOCTYPE svg PUBLIC "-//W3C//DTD SVG 1.1//EN" "http://www.w3.org/Graphics/SVG/1.1/DTD/svg11.dtd">
<svg xmlns="http://www.w3.org/2000/svg" xml:space="preserve" width="1024px" height="1024px" shape-rendering="geometricPrecision" text-rendering="geometricPrecision" image-rendering="optimizeQuality" fill-rule="nonzero" clip-rule="evenodd" viewBox="0 0 10240 10240" xmlns:xlink="http://www.w3.org/1999/xlink">
	<title>cloud_refresh icon</title>
	<desc>cloud_refresh icon from the IconExperience.com O-Collection. Copyright by INCORS GmbH (www.incors.com).</desc>
	<path id="curve2" fill="#252525" d="M1920 4319c0,-1325 1075,-2399 2400,-2399 531,0 1033,175 1440,480l0 26c-104,-36 -221,-36 -330,5 -149,56 -257,180 -295,329 -244,-128 -521,-200 -815,-200 -972,0 -1760,788 -1760,1760 0,168 23,330 67,483 -752,48 -1347,673 -1347,1437 0,661 445,1217 1052,1387 53,73 128,130 217,164 109,42 226,42 331,4l0 525 -160 0c-1149,0 -2080,-931 -2080,-2080 0,-861 525,-1606 1280,-1921zm6080 -860c394,379 640,911 640,1501 0,11 0,21 0,32 572,292 960,888 960,1568 0,972 -788,1760 -1760,1760l-1037 0 -3 0 -80 0 -2240 0 0 0 0 0 0 -517c99,29 208,27 310,-12 66,-25 124,-63 172,-111l2878 0c619,0 1120,-501 1120,-1120 0,-593 -460,-1078 -1043,-1117 54,-151 83,-314 83,-483 0,-302 -93,-581 -251,-813l95 -113c101,-119 156,-261 156,-418l0 -157z"/>
	<path id="curve1" fill="#A1C057" d="M4800 6624l0 736c0,68 -40,126 -103,150 -64,24 -133,8 -177,-44l-360 -426 0 1280c0,176 144,320 320,320l1920 0c-127,550 -686,960 -1280,960l-640 0c-705,0 -1280,-575 -1280,-1280l0 -1280 -360 426c-44,52 -113,68 -177,44 -63,-24 -103,-82 -103,-150l0 -736c0,-81 28,-150 80,-212l787 -930c129,-154 355,-153 487,-1l806 931c53,62 80,131 80,212z"/>
	<path id="curve0" fill="#A1C057" d="M5440 3616l0 -736c0,-68 40,-126 103,-150 64,-24 133,-8 177,44l360 426 0 -1280c0,-176 -144,-320 -320,-320l-640 0c-74,0 -142,25 -197,68 -196,-45 -398,-68 -603,-68 -164,0 -324,15 -480,42l0 -42c127,-550 686,-960 1280,-960l640 0c705,0 1280,575 1280,1280l0 1280 360 -426c44,-52 113,-68 177,-44 63,24 103,82 103,150l0 736c0,81 -28,150 -80,212l-787 930c-129,154 -355,153 -487,1l-806 -931c-53,-62 -80,-131 -80,-212z"/>
</svg>
