<?xml version="1.0" encoding="UTF-8"?>
<!DOCTYPE svg PUBLIC "-//W3C//DTD SVG 1.1//EN" "http://www.w3.org/Graphics/SVG/1.1/DTD/svg11.dtd">
<svg xmlns="http://www.w3.org/2000/svg" xml:space="preserve" width="1024px" height="1024px" shape-rendering="geometricPrecision" text-rendering="geometricPrecision" image-rendering="optimizeQuality" fill-rule="nonzero" clip-rule="evenodd" viewBox="0 0 10240 10240" xmlns:xlink="http://www.w3.org/1999/xlink">
	<title>coffee_machine icon</title>
	<desc>coffee_machine icon from the IconExperience.com O-Collection. Copyright by INCORS GmbH (www.incors.com).</desc>
	<path id="curve2" fill="#A1C057" d="M1760 5120c172,0 335,39 480,108l0 -108c0,-176 144,-320 320,-320l3840 0c176,0 320,144 320,320l0 1088c0,678 -339,1282 -866,1668 -115,84 -237,124 -379,124l-1990 0c-142,0 -264,-40 -379,-124 -141,-103 -269,-222 -380,-354 -165,-197 -415,-273 -662,-204 -97,27 -199,42 -304,42 -619,0 -1120,-501 -1120,-1120 0,-619 501,-1120 1120,-1120zm1431 1959c64,81 154,122 257,120 103,-2 190,-48 251,-131 86,-118 83,-274 -9,-389 -106,-132 -170,-294 -170,-471l0 -448c0,-176 -144,-320 -320,-320l0 0c-176,0 -320,144 -320,320l0 448c0,325 115,626 311,871zm-1431 -1319c-265,0 -480,215 -480,480 0,265 215,480 480,480 265,0 480,-215 480,-480 0,-265 -215,-480 -480,-480z"/>
	<path id="curve1" fill="#252525" d="M3200 3520l2560 0 0 0c0,353 -287,640 -640,640l0 0c-176,0 -320,144 -320,320l0 0 -640 0 0 0c0,-176 -144,-320 -320,-320l0 0c-353,0 -640,-287 -640,-640l0 0z"/>
	<path id="curve0" fill="#252525" d="M2560 8320l3840 0c353,0 640,-287 640,-640l0 -3840c0,-353 -288,-640 -640,-640l-3840 0c-352,0 -640,-287 -640,-640l0 -1280c0,-353 287,-640 640,-640l5120 0c705,0 1280,575 1280,1280l0 7680 -7040 0 0 -640c0,-353 287,-640 640,-640z"/>
</svg>
