<?xml version="1.0" encoding="UTF-8"?>
<!DOCTYPE svg PUBLIC "-//W3C//DTD SVG 1.1//EN" "http://www.w3.org/Graphics/SVG/1.1/DTD/svg11.dtd">
<svg xmlns="http://www.w3.org/2000/svg" xml:space="preserve" width="1024px" height="1024px" shape-rendering="geometricPrecision" text-rendering="geometricPrecision" image-rendering="optimizeQuality" fill-rule="nonzero" clip-rule="evenodd" viewBox="0 0 10240 10240" xmlns:xlink="http://www.w3.org/1999/xlink">
	<title>comb icon</title>
	<desc>comb icon from the IconExperience.com O-Collection. Copyright by INCORS GmbH (www.incors.com).</desc>
	<path id="curve0" fill="#252525" d="M3941 9371c-250,250 -1162,-256 -2037,-1131 -874,-875 -1584,-1584 -678,-2489l4525 -4525c905,-906 1614,-196 2489,678 875,875 1381,1787 1131,2037l0 0c-124,124 -328,124 -452,0l-1358 -1358c-124,-124 -328,-124 -452,0l0 0c-125,125 -125,328 0,453l1357 1357c125,125 125,328 0,453l0 0c-124,125 -328,125 -452,0l-1358 -1358c-125,-124 -328,-124 -452,0l0 0c-125,125 -125,328 0,453l1357 1357c125,125 125,328 0,453l0 0c-124,125 -328,125 -452,0l-1358 -1358c-125,-124 -328,-124 -453,0l0 0c-124,125 -124,328 0,453l1358 1358c125,124 125,327 0,452l0 0c-125,125 -328,125 -452,0l-1358 -1358c-125,-124 -328,-124 -453,0l0 0c-124,125 -124,328 0,453l1358 1358c125,124 125,328 0,452l0 0c-125,125 -328,125 -453,0l-1357 -1357c-125,-125 -328,-125 -453,0l0 0c-124,124 -124,327 0,452l1358 1358c125,124 125,328 0,452 -302,302 302,-301 0,0 -125,125 -328,125 -453,0l-1357 -1357c-125,-125 -328,-125 -453,0l0 0c-124,124 -124,328 0,452l1358 1358c124,125 124,328 0,452l0 0z"/>
</svg>
