<?xml version="1.0" encoding="UTF-8"?>
<!DOCTYPE svg PUBLIC "-//W3C//DTD SVG 1.1//EN" "http://www.w3.org/Graphics/SVG/1.1/DTD/svg11.dtd">
<svg xmlns="http://www.w3.org/2000/svg" xml:space="preserve" width="1024px" height="1024px" shape-rendering="geometricPrecision" text-rendering="geometricPrecision" image-rendering="optimizeQuality" fill-rule="nonzero" clip-rule="evenodd" viewBox="0 0 10240 10240" xmlns:xlink="http://www.w3.org/1999/xlink">
	<title>compact_camera icon</title>
	<desc>compact_camera icon from the IconExperience.com O-Collection. Copyright by INCORS GmbH (www.incors.com).</desc>
	<path id="curve1" fill="#A1C057" d="M7020 3809c704,0 1274,570 1274,1273 0,704 -570,1274 -1274,1274 -703,0 -1274,-570 -1274,-1274 0,-703 571,-1273 1274,-1273zm141 727c29,-113 -3,-224 -86,-306 -83,-82 -195,-111 -308,-80 -325,88 -583,341 -676,665 -32,113 -4,226 78,310 83,87 192,116 308,89 113,-29 197,-109 230,-222 31,-109 118,-195 227,-224 116,-32 198,-116 227,-232z"/>
	<path id="curve0" fill="#252525" d="M1280 1920l7680 0c353,0 640,287 640,640l0 5120c0,353 -287,640 -640,640l-7680 0c-353,0 -640,-287 -640,-640l0 -5120c0,-353 287,-640 640,-640zm320 640c-176,0 -320,144 -320,320l0 640c0,176 144,320 320,320l1920 0c176,0 320,-144 320,-320l0 -640c0,-176 -144,-320 -320,-320l-1920 0zm7040 0c-177,0 -320,143 -320,320 0,177 143,320 320,320 177,0 320,-143 320,-320 0,-177 -143,-320 -320,-320zm-1620 596c-1064,0 -1926,863 -1926,1926 0,1064 862,1927 1926,1927 1064,0 1926,-863 1926,-1927 0,-1063 -862,-1926 -1926,-1926z"/>
</svg>
