<?xml version="1.0" encoding="UTF-8"?>
<!DOCTYPE svg PUBLIC "-//W3C//DTD SVG 1.1//EN" "http://www.w3.org/Graphics/SVG/1.1/DTD/svg11.dtd">
<svg xmlns="http://www.w3.org/2000/svg" xml:space="preserve" width="1024px" height="1024px" shape-rendering="geometricPrecision" text-rendering="geometricPrecision" image-rendering="optimizeQuality" fill-rule="nonzero" clip-rule="evenodd" viewBox="0 0 10240 10240" xmlns:xlink="http://www.w3.org/1999/xlink">
	<title>console_network icon</title>
	<desc>console_network icon from the IconExperience.com O-Collection. Copyright by INCORS GmbH (www.incors.com).</desc>
	<path id="curve3" fill="#A1C057" d="M5440 8640c176,0 320,144 320,320l1280 0 0 640 -1280 0c0,176 -144,320 -320,320l-640 0c-176,0 -320,-144 -320,-320l-1280 0 0 -640 1280 0c0,-176 144,-320 320,-320l0 -640 640 0 0 640z"/>
	<path id="curve2" fill="#252525" d="M9600 7360c0,176 -144,320 -320,320l-8320 0c-176,0 -320,-144 -320,-320l0 -6080c0,-353 288,-640 640,-640l7680 0c353,0 640,288 640,640 0,1813 0,4267 0,6080zm-8320 -4800l0 4480 7680 0 0 -4480 -7680 0z"/>
	<path id="curve1" fill="#A1C057" d="M4480,5120 6400,5120 6400,5760 4480,5760z"/>
	<path id="curve0" fill="#A1C057" d="M2560 2880l640 0 0 320 640 0 0 640 -1120 0c-88,0 -160,72 -160,160 0,88 72,160 160,160l320 0c442,0 800,358 800,800 0,387 -275,710 -640,784l0 336 -640 0 0 -320 -640 0 0 -640 1120 0c88,0 160,-72 160,-160 0,-88 -72,-160 -160,-160l-320 0c-442,0 -800,-358 -800,-800 0,-387 275,-710 640,-784l0 -336z"/>
</svg>
