<?xml version="1.0" encoding="UTF-8"?>
<!DOCTYPE svg PUBLIC "-//W3C//DTD SVG 1.1//EN" "http://www.w3.org/Graphics/SVG/1.1/DTD/svg11.dtd">
<svg xmlns="http://www.w3.org/2000/svg" xml:space="preserve" width="1024px" height="1024px" shape-rendering="geometricPrecision" text-rendering="geometricPrecision" image-rendering="optimizeQuality" fill-rule="nonzero" clip-rule="evenodd" viewBox="0 0 10240 10240" xmlns:xlink="http://www.w3.org/1999/xlink">
	<title>control_panel icon</title>
	<desc>control_panel icon from the IconExperience.com O-Collection. Copyright by INCORS GmbH (www.incors.com).</desc>
	<path id="curve5" fill="#A1C057" d="M7680 6400c353,0 640,287 640,640 0,353 -287,640 -640,640 -353,0 -640,-287 -640,-640 0,-353 287,-640 640,-640z"/>
	<path id="curve4" fill="#A1C057" d="M5120 6400c353,0 640,287 640,640 0,353 -287,640 -640,640 -353,0 -640,-287 -640,-640 0,-353 287,-640 640,-640z"/>
	<path id="curve3" fill="#A1C057" d="M2560 6400c-353,0 -640,287 -640,640 0,353 287,640 640,640 353,0 640,-287 640,-640 0,-353 -287,-640 -640,-640z"/>
	<path id="curve2" fill="#A1C057" d="M8519 3103l-847 489c5,29 8,58 8,88 0,265 -215,480 -480,480 -265,0 -480,-215 -480,-480 0,-265 215,-480 480,-480 119,0 228,43 312,115l847 -489c32,42 61,87 88,134 27,47 51,95 72,143z"/>
	<path id="curve1" fill="#A1C057" d="M2463 2361l489 847c29,-5 58,-8 88,-8 265,0 480,215 480,480 0,265 -215,480 -480,480 -265,0 -480,-215 -480,-480 0,-119 43,-228 115,-312l-489 -847c42,-32 87,-61 134,-88 47,-27 95,-51 143,-72z"/>
	<path id="curve0" fill="#252525" d="M960 1280l8320 0c0,0 320,149 320,320l0 7040c0,177 -143,320 -320,320l-8320 0c-177,0 -320,-143 -320,-320l0 -7040c0,-177 143,-320 320,-320zm6240 640c-972,0 -1760,788 -1760,1760 0,972 788,1760 1760,1760 972,0 1760,-788 1760,-1760 0,-972 -788,-1760 -1760,-1760zm-4160 0c-972,0 -1760,788 -1760,1760 0,972 788,1760 1760,1760 972,0 1760,-788 1760,-1760 0,-972 -788,-1760 -1760,-1760zm4640 4160c-530,0 -960,430 -960,960 0,530 430,960 960,960 530,0 960,-430 960,-960 0,-530 -430,-960 -960,-960zm-2560 0c-530,0 -960,430 -960,960 0,530 430,960 960,960 530,0 960,-430 960,-960 0,-530 -430,-960 -960,-960zm-2560 0c-530,0 -960,430 -960,960 0,530 430,960 960,960 530,0 960,-430 960,-960 0,-530 -430,-960 -960,-960z"/>
</svg>
