<?xml version="1.0" encoding="UTF-8"?>
<!DOCTYPE svg PUBLIC "-//W3C//DTD SVG 1.1//EN" "http://www.w3.org/Graphics/SVG/1.1/DTD/svg11.dtd">
<svg xmlns="http://www.w3.org/2000/svg" xml:space="preserve" width="1024px" height="1024px" shape-rendering="geometricPrecision" text-rendering="geometricPrecision" image-rendering="optimizeQuality" fill-rule="nonzero" clip-rule="evenodd" viewBox="0 0 10240 10240" xmlns:xlink="http://www.w3.org/1999/xlink">
	<title>dagger icon</title>
	<desc>dagger icon from the IconExperience.com O-Collection. Copyright by INCORS GmbH (www.incors.com).</desc>
	<path id="curve1" fill="#252525" d="M6174 5098l-3265 3254c-914,911 -1991,928 -2257,928 -1,-264 13,-1335 926,-2246l3258 -3247 555 544 -3243 3233c-62,62 -63,163 -1,225 63,63 164,63 226,1l3246 -3235 555 543z"/>
	<path id="curve0" fill="#A1C057" d="M9280 952c426,418 427,1095 2,1514 -227,224 -531,329 -829,313l-1634 1611 538 527c125,124 127,326 3,452 -123,125 -325,127 -451,3l-2367 -2320c-126,-124 -127,-326 -4,-451 124,-126 326,-128 451,-4l545 534 2207 -2176c424,-419 1113,-420 1539,-3z"/>
</svg>
