<?xml version="1.0" encoding="UTF-8"?>
<!DOCTYPE svg PUBLIC "-//W3C//DTD SVG 1.1//EN" "http://www.w3.org/Graphics/SVG/1.1/DTD/svg11.dtd">
<svg xmlns="http://www.w3.org/2000/svg" xml:space="preserve" width="1024px" height="1024px" shape-rendering="geometricPrecision" text-rendering="geometricPrecision" image-rendering="optimizeQuality" fill-rule="nonzero" clip-rule="evenodd" viewBox="0 0 10240 10240" xmlns:xlink="http://www.w3.org/1999/xlink">
	<title>dart icon</title>
	<desc>dart icon from the IconExperience.com O-Collection. Copyright by INCORS GmbH (www.incors.com).</desc>
	<path id="curve3" fill="#252525" d="M1796 8670c-452,453 -684,684 -1476,1250 566,-792 797,-1024 1250,-1476l226 226z"/>
	<path id="curve2" fill="#A1C057" d="M1796 7313l1358 -1358 1131 1131 -1358 1358c-249,249 -655,249 -905,0l-226 -226c-249,-250 -249,-656 0,-905z"/>
	<path id="curve1" fill="#252525" d="M3380 5729c893,-893 3285,-2722 4812,-3900 114,-88 227,-112 279,-60 52,52 28,165 -60,279 -1178,1527 -3007,3919 -3900,4812l-1131 -1131z"/>
	<path id="curve0" fill="#252525" d="M5698 1601l689 -689c242,-242 573,-327 919,-236 345,91 608,333 730,671l59 163c-35,20 -68,42 -99,66 -665,513 -1332,1025 -1993,1544 -169,132 -338,265 -507,398l-138 -809c-74,-426 45,-814 340,-1108zm2941 2941l689 -689c242,-242 327,-573 236,-919 -91,-345 -333,-608 -670,-730l-164 -59c-20,35 -42,68 -66,99 -513,665 -1025,1332 -1544,1993 -132,169 -265,338 -398,507l809 138c426,74 814,-45 1108,-340z"/>
</svg>
