<?xml version="1.0" encoding="UTF-8"?>
<!DOCTYPE svg PUBLIC "-//W3C//DTD SVG 1.1//EN" "http://www.w3.org/Graphics/SVG/1.1/DTD/svg11.dtd">
<svg xmlns="http://www.w3.org/2000/svg" xml:space="preserve" width="1024px" height="1024px" shape-rendering="geometricPrecision" text-rendering="geometricPrecision" image-rendering="optimizeQuality" fill-rule="nonzero" clip-rule="evenodd" viewBox="0 0 10240 10240" xmlns:xlink="http://www.w3.org/1999/xlink">
	<title>data_shared icon</title>
	<desc>data_shared icon from the IconExperience.com O-Collection. Copyright by INCORS GmbH (www.incors.com).</desc>
	<path id="curve2" fill="#252525" d="M2080 1280c-88,0 -160,72 -160,160l0 640c0,88 72,160 160,160l2080 0 0 -960 -2080 0zm-160 -640l4480 0c353,0 640,288 640,640l0 960c0,352 -288,640 -640,640l0 0c353,0 640,288 640,640l0 960c0,352 -288,640 -640,640l0 0c353,0 640,288 640,640l0 349c-488,-236 -984,-349 -1529,-349l-3431 0c-88,0 -160,72 -160,160l0 159c-219,-20 -438,10 -640,85l0 -404c0,-353 287,-640 640,-640l0 0c-352,0 -640,-288 -640,-640l0 -960c0,-353 287,-640 640,-640l0 0c-352,0 -640,-288 -640,-640l0 -960c0,-353 288,-640 640,-640zm160 2880c-88,0 -160,72 -160,160l0 640c0,88 72,160 160,160l2080 0 0 -960 -2080 0z"/>
	<path id="curve1" fill="#252525" d="M8960 6080l640 0 0 3840 -640 0c-352,0 -640,-287 -640,-640l0 -2560c0,-353 288,-640 640,-640z"/>
	<path id="curve0" fill="#A1C057" d="M3224 6971c105,-509 556,-891 1096,-891l1191 0c514,0 972,108 1431,338l199 99c282,141 544,203 859,203l0 640c-416,0 -773,-84 -1145,-270l-199 -100c-372,-186 -728,-270 -1145,-270l-1191 0c-265,0 -480,215 -480,480 0,265 215,480 480,480l1440 0c176,0 320,144 320,320 0,176 -144,320 -320,320l-1440 0c-422,0 -790,-234 -981,-580l-1340 -657c-237,-119 -526,-23 -644,215 -119,237 -22,525 215,643l2067 1053c377,191 739,278 1161,278l1467 0c111,0 209,8 317,-20l1418 -365 0 393c0,86 11,169 32,248l-1290 344c-173,45 -305,40 -477,40l-1467 0c-522,0 -986,-111 -1451,-348l-2068 -1052c-549,-280 -772,-949 -497,-1501 276,-551 946,-774 1499,-503l943 463z"/>
</svg>
