<?xml version="1.0" encoding="UTF-8"?>
<!DOCTYPE svg PUBLIC "-//W3C//DTD SVG 1.1//EN" "http://www.w3.org/Graphics/SVG/1.1/DTD/svg11.dtd">
<svg xmlns="http://www.w3.org/2000/svg" xml:space="preserve" width="1024px" height="1024px" shape-rendering="geometricPrecision" text-rendering="geometricPrecision" image-rendering="optimizeQuality" fill-rule="nonzero" clip-rule="evenodd" viewBox="0 0 10240 10240" xmlns:xlink="http://www.w3.org/1999/xlink">
	<title>data_copy icon</title>
	<desc>data_copy icon from the IconExperience.com O-Collection. Copyright by INCORS GmbH (www.incors.com).</desc>
	<path id="curve1" fill="#A1C057" d="M3840 1280l4480 0c353,0 640,288 640,640l0 960c0,352 -288,640 -640,640l0 0c353,0 640,288 640,640l0 960c0,352 -288,640 -640,640l0 0c353,0 640,288 640,640l0 960c0,352 -288,640 -640,640l-960 0c0,-246 -93,-470 -245,-640 152,-170 245,-394 245,-640l0 -960c0,-246 -93,-470 -245,-640 152,-170 245,-394 245,-640l0 -960c0,-529 -431,-960 -960,-960l-320 0 0 -640 -2112 0c-71,0 -128,72 -128,160l0 480 -640 0 0 -640c0,-353 288,-640 640,-640z"/>
	<path id="curve0" fill="#252525" d="M1920 2880l4480 0c353,0 640,288 640,640l0 960c0,352 -288,640 -640,640l0 0c353,0 640,288 640,640l0 960c0,352 -288,640 -640,640l0 0c353,0 640,288 640,640l0 960c0,352 -288,640 -640,640l-4480 0c-352,0 -640,-287 -640,-640l0 -960c0,-352 287,-640 640,-640l0 0c-352,0 -640,-287 -640,-640l0 -960c0,-352 287,-640 640,-640l0 0c-352,0 -640,-287 -640,-640l0 -960c0,-352 288,-640 640,-640zm128 5120c-71,0 -128,72 -128,160l0 640c0,88 58,160 128,160l2112 0 0 -960 -2112 0zm0 -4480c-71,0 -128,72 -128,160l0 640c0,88 58,160 128,160l2112 0 0 -960 -2112 0zm0 2240c-71,0 -128,72 -128,160l0 640c0,88 58,160 128,160l2112 0 0 -960 -2112 0z"/>
</svg>
