<?xml version="1.0" encoding="UTF-8"?>
<!DOCTYPE svg PUBLIC "-//W3C//DTD SVG 1.1//EN" "http://www.w3.org/Graphics/SVG/1.1/DTD/svg11.dtd">
<svg xmlns="http://www.w3.org/2000/svg" xml:space="preserve" width="1024px" height="1024px" shape-rendering="geometricPrecision" text-rendering="geometricPrecision" image-rendering="optimizeQuality" fill-rule="nonzero" clip-rule="evenodd" viewBox="0 0 10240 10240" xmlns:xlink="http://www.w3.org/1999/xlink">
	<title>document_zoom_in icon</title>
	<desc>document_zoom_in icon from the IconExperience.com O-Collection. Copyright by INCORS GmbH (www.incors.com).</desc>
	<path id="curve2" fill="#A1C057" d="M4160,4160 4800,4160 4800,4800 5440,4800 5440,5440 4800,5440 4800,6080 4160,6080 4160,5440 3520,5440 3520,4800 4160,4800z"/>
	<path id="curve1" fill="#252525" d="M4480 3200c1060,0 1920,860 1920,1920 0,415 -131,799 -355,1112l261 262c125,-125 328,-125 453,0l1147 1147c125,125 125,328 0,453l-452 452c-125,125 -328,125 -453,0l-1147 -1147c-125,-125 -125,-328 0,-453l-262 -261c-313,224 -697,355 -1112,355 -1060,0 -1920,-860 -1920,-1920 0,-1060 860,-1920 1920,-1920zm0 640c-707,0 -1280,573 -1280,1280 0,707 573,1280 1280,1280 707,0 1280,-573 1280,-1280 0,-707 -573,-1280 -1280,-1280z"/>
	<path id="curve0" fill="#252525" d="M1280 640l5230 0c352,0 656,126 905,375l1170 1170c249,249 375,553 375,905l0 6510 -7680 0 0 -8960zm5760 960l0 960 960 0 -960 -960zm-5120 -320l0 7680 6400 0 0 -5440c0,-176 -144,-320 -320,-320l-1600 0 0 -1600c0,-176 -144,-320 -320,-320l-4160 0z"/>
</svg>
