<?xml version="1.0" encoding="UTF-8"?>
<!DOCTYPE svg PUBLIC "-//W3C//DTD SVG 1.1//EN" "http://www.w3.org/Graphics/SVG/1.1/DTD/svg11.dtd">
<svg xmlns="http://www.w3.org/2000/svg" xml:space="preserve" width="1024px" height="1024px" shape-rendering="geometricPrecision" text-rendering="geometricPrecision" image-rendering="optimizeQuality" fill-rule="nonzero" clip-rule="evenodd" viewBox="0 0 10240 10240" xmlns:xlink="http://www.w3.org/1999/xlink">
	<title>dog icon</title>
	<desc>dog icon from the IconExperience.com O-Collection. Copyright by INCORS GmbH (www.incors.com).</desc>
	<path id="curve0" fill="#252525" d="M8224 9124c-38,10 -78,16 -119,16l-209 0c-243,0 -443,-198 -443,-442 0,-159 106,-238 211,-342 29,-28 133,-129 133,-171 0,-114 -106,-570 -177,-915 107,106 227,197 362,264 141,70 287,126 433,185 7,2 14,5 22,8 0,122 0,243 0,365 -13,13 -26,25 -37,36 -156,153 -307,301 -307,540l0 30c0,158 48,304 131,426zm-3478 -2469c-27,144 -76,276 -106,416 -23,108 -17,203 4,311l191 977 -119 438c-54,199 -222,343 -432,343l-239 0c-244,0 -444,-198 -444,-442 0,-143 197,-300 288,-415 37,-46 46,-105 24,-160l-304 -757c-93,-230 -206,-438 -365,-629 -105,-126 -231,-238 -328,-368 -89,-120 -143,-243 -172,-389 -43,-215 -76,-429 -92,-647 -10,-131 -13,-264 -27,-394 -16,-145 -52,-271 -107,-406l-334 -831c-94,-60 -450,-70 -544,-74 -172,-6 -455,-5 -611,-65 -405,-156 -437,-592 -437,-966 0,-35 7,-70 23,-101 83,-168 579,-258 762,-319 185,-62 273,-114 391,-267 85,-110 156,-178 283,-241 208,-104 542,-150 773,-164 253,-15 696,-9 889,183 116,115 205,342 268,493 90,220 179,440 299,645 219,375 509,639 968,639 601,0 1229,10 1822,110 460,78 977,226 1317,564 464,462 609,937 609,1587 0,259 154,544 277,766 160,288 408,678 370,1019l-138 1236c-25,225 -214,393 -440,393l-209 0c-243,0 -443,-198 -443,-442 0,-159 106,-238 211,-342 29,-28 133,-129 133,-171 0,-172 0,-343 0,-514 0,-47 -5,-103 -36,-142 -38,-49 -130,-85 -186,-107 -140,-56 -275,-107 -410,-175 -201,-99 -348,-261 -477,-440 -145,-200 -321,-528 -537,-647 -145,-80 -300,-66 -453,-17 -169,55 -335,117 -501,178 -479,174 -899,294 -1411,334zm-1323 2485c-84,3 -174,0 -258,0 -244,0 -444,-198 -444,-442 0,-119 132,-242 209,-324 15,-17 49,-53 79,-91 37,-46 30,-101 24,-160l-142 -1301c37,39 73,79 107,120 137,164 234,346 314,544l267 666c-149,159 -298,312 -298,546 0,165 53,317 142,442zm4590 -6853c-167,-55 -257,-235 -202,-402 55,-167 235,-258 402,-203 414,138 807,381 1056,703 273,353 357,773 215,1200 -82,249 -245,509 -509,773 -101,-162 -223,-307 -362,-446 -16,-15 -32,-31 -49,-46 165,-172 266,-333 315,-481 75,-225 28,-425 -115,-610 -169,-218 -449,-387 -751,-488z"/>
</svg>
