<?xml version="1.0" encoding="UTF-8"?>
<!DOCTYPE svg PUBLIC "-//W3C//DTD SVG 1.1//EN" "http://www.w3.org/Graphics/SVG/1.1/DTD/svg11.dtd">
<svg xmlns="http://www.w3.org/2000/svg" xml:space="preserve" width="1024px" height="1024px" shape-rendering="geometricPrecision" text-rendering="geometricPrecision" image-rendering="optimizeQuality" fill-rule="nonzero" clip-rule="evenodd" viewBox="0 0 10240 10240" xmlns:xlink="http://www.w3.org/1999/xlink">
	<title>dumbbell icon</title>
	<desc>dumbbell icon from the IconExperience.com O-Collection. Copyright by INCORS GmbH (www.incors.com).</desc>
	<path id="curve1" fill="#252525" d="M8960 3840l-320 0 0 -320c0,-176 -144,-320 -320,-320l-320 0 0 -320c0,-176 -144,-320 -320,-320l-640 0c-176,0 -320,144 -320,320l0 4480c0,176 144,320 320,320l640 0c176,0 320,-144 320,-320l0 -320 320 0c176,0 320,-144 320,-320l0 -320 320 0c176,0 320,-144 320,-320l0 -1920c0,-176 -144,-320 -320,-320zm-6880 0c-88,0 -160,72 -160,160l0 320c0,88 72,160 160,160l0 0c88,0 160,-72 160,-160l0 -320c0,-88 -72,-160 -160,-160l0 0zm6720 640l0 0c88,0 160,72 160,160l0 0c0,88 -72,160 -160,160l0 0c-88,0 -160,-72 -160,-160l0 0c0,-88 72,-160 160,-160zm-640 -640l0 0c88,0 160,72 160,160l0 320c0,88 -72,160 -160,160l0 0c-88,0 -160,-72 -160,-160l0 -320c0,-88 72,-160 160,-160zm-800 -640l0 0c176,0 320,144 320,320l0 320c0,176 -144,320 -320,320l0 0c-176,0 -320,-144 -320,-320l0 -320c0,-176 144,-320 320,-320zm-4480 0c-176,0 -320,144 -320,320l0 320c0,176 144,320 320,320l0 0c176,0 320,-144 320,-320l0 -320c0,-176 -144,-320 -320,-320l0 0zm-1440 1280c-88,0 -160,72 -160,160l0 0c0,88 72,160 160,160l0 0c88,0 160,-72 160,-160l0 0c0,-88 -72,-160 -160,-160l0 0zm1120 -1920l640 0c176,0 320,144 320,320l0 4480c0,176 -144,320 -320,320l-640 0c-176,0 -320,-144 -320,-320l0 -320 -320 0c-176,0 -320,-144 -320,-320l0 -320 -320 0c-176,0 -320,-144 -320,-320l0 -1920c0,-176 144,-320 320,-320l320 0 0 -320c0,-176 144,-320 320,-320l320 0 0 -320c0,-176 144,-320 320,-320z"/>
	<path id="curve0" fill="#252525" d="M640 4480l0 0 0 1280 0 0c-176,0 -320,-144 -320,-320l0 -640c0,-176 144,-320 320,-320zm3200 0l2560 0 0 1280 -2560 0 0 -1280zm5760 0l0 0c176,0 320,144 320,320l0 640c0,176 -144,320 -320,320l0 0 0 -1280z"/>
</svg>
