<?xml version="1.0" encoding="UTF-8"?>
<!DOCTYPE svg PUBLIC "-//W3C//DTD SVG 1.1//EN" "http://www.w3.org/Graphics/SVG/1.1/DTD/svg11.dtd">
<svg xmlns="http://www.w3.org/2000/svg" xml:space="preserve" width="1024px" height="1024px" shape-rendering="geometricPrecision" text-rendering="geometricPrecision" image-rendering="optimizeQuality" fill-rule="nonzero" clip-rule="evenodd" viewBox="0 0 10240 10240" xmlns:xlink="http://www.w3.org/1999/xlink">
	<title>earth_network icon</title>
	<desc>earth_network icon from the IconExperience.com O-Collection. Copyright by INCORS GmbH (www.incors.com).</desc>
	<path id="curve1" fill="#A1C057" d="M5440 8640c176,0 320,144 320,320l1280 0 0 640 -1280 0c0,176 -144,320 -320,320l-640 0c-176,0 -320,-144 -320,-320l-1280 0 0 -640 1280 0c0,-176 144,-320 320,-320l0 -332c106,8 212,12 320,12 108,0 214,-4 320,-12l0 332z"/>
	<path id="curve0" fill="#252525" d="M5120 320c2121,0 3840,1719 3840,3840 0,2121 -1719,3840 -3840,3840 -2121,0 -3840,-1719 -3840,-3840 0,-2121 1719,-3840 3840,-3840zm840 2453c92,-33 227,-39 277,-22 247,86 235,340 489,383 29,5 161,-76 191,-71 156,28 304,174 440,105 82,-41 124,-195 51,-250 -70,-54 -178,-14 -255,-69 -113,-81 -207,32 -302,-76 -43,-49 -118,-202 -174,-283 -60,-86 -240,-51 -211,-11 93,124 229,144 246,213 20,75 -175,174 -123,38 28,-71 -111,-117 -273,-201 -84,-44 -166,-158 -294,-97 -63,30 -182,180 -229,251 -81,121 -266,88 -389,28 -122,-60 -125,-355 34,-484 152,-123 276,-48 424,-90 61,-17 91,-82 181,-143 107,-72 -66,-186 -8,-303 47,-94 204,-114 287,-154 78,-39 165,-104 251,-53 117,70 244,77 360,149 117,72 214,123 317,139 -495,-441 -1127,-731 -1824,-797 95,102 185,243 146,329 -53,119 -130,268 -361,353 -171,64 -396,67 -568,141 -177,77 -354,71 -456,95 -160,37 8,-527 -39,-591 -69,-93 -496,-13 -533,84 -86,226 115,417 106,461 -18,86 -16,427 -97,515 -124,133 -439,254 -481,260 -203,29 -250,237 -403,359 -64,51 -388,391 -439,496 -141,287 -4,470 60,527 110,99 155,109 277,147 49,15 511,253 636,382 128,132 192,269 321,346 155,95 439,201 477,274 170,331 112,795 -375,1124 -127,85 -385,225 -321,460 12,43 17,83 23,121 497,318 1088,502 1721,502 1767,0 3200,-1433 3200,-3200 0,-195 -17,-385 -51,-571 -10,-4 -20,-5 -30,-2 -55,17 -59,193 -119,293 -49,82 -158,92 -176,116 -118,160 276,289 105,511 -74,95 -297,310 -356,588 -127,591 -44,235 -233,707 -29,71 -79,344 -120,405 -182,276 -695,590 -819,432 -73,-92 -117,-232 -140,-364 -23,-133 -162,-302 -148,-408 22,-163 35,-216 38,-404 1,-8 -112,-462 -131,-502 -84,-179 -222,-259 -416,-192 -151,52 -278,-24 -398,-73 -239,-96 -350,-409 -400,-664 0,-1 36,-401 38,-423 7,-105 57,-205 113,-286 430,-616 329,-352 883,-550zm-2998 3750c-84,-115 -153,-222 -185,-300 -68,-168 -87,-476 -168,-569 -169,-195 -324,-352 -356,-550 -29,-181 -133,-444 -152,-587 -20,-158 -81,-328 -179,-470 -1,37 -2,75 -2,113 0,936 402,1778 1042,2363z"/>
</svg>
