<?xml version="1.0" encoding="UTF-8"?>
<!DOCTYPE svg PUBLIC "-//W3C//DTD SVG 1.1//EN" "http://www.w3.org/Graphics/SVG/1.1/DTD/svg11.dtd">
<svg xmlns="http://www.w3.org/2000/svg" xml:space="preserve" width="1024px" height="1024px" shape-rendering="geometricPrecision" text-rendering="geometricPrecision" image-rendering="optimizeQuality" fill-rule="nonzero" clip-rule="evenodd" viewBox="0 0 10240 10240" xmlns:xlink="http://www.w3.org/1999/xlink">
	<title>element_branch2 icon</title>
	<desc>element_branch2 icon from the IconExperience.com O-Collection. Copyright by INCORS GmbH (www.incors.com).</desc>
	<path id="curve4" fill="#252525" d="M5770,6415 5770,7472 5766,7473 4470,5745 4470,4688 4474,4687z"/>
	<path id="curve3" fill="#252525" d="M5503 3541l-1029 1372 -4 -1 0 -1057 970 -1293 0 638c0,120 22,235 63,341z"/>
	<path id="curve2" fill="#252525" d="M6400 5760l2880 0c352,0 640,288 640,640l0 1920c0,352 -288,640 -640,640l-2880 0c-352,0 -640,-287 -640,-640l0 -1920c0,-353 287,-640 640,-640zm0 640l0 1920 2880 0 0 -1920 -2880 0z"/>
	<path id="curve1" fill="#A1C057" d="M6400 640l2880 0c352,0 640,288 640,640l0 1920c0,352 -288,640 -640,640l-2880 0c-352,0 -640,-288 -640,-640l0 -1920c0,-353 287,-640 640,-640z"/>
	<path id="curve0" fill="#252525" d="M960 3200l2880 0c353,0 640,288 640,640l0 1920c0,352 -288,640 -640,640l-2880 0c-352,0 -640,-287 -640,-640l0 -1920c0,-353 288,-640 640,-640zm0 640l0 1920 2880 0 0 -1920 -2880 0z"/>
</svg>
