<?xml version="1.0" encoding="UTF-8"?>
<!DOCTYPE svg PUBLIC "-//W3C//DTD SVG 1.1//EN" "http://www.w3.org/Graphics/SVG/1.1/DTD/svg11.dtd">
<svg xmlns="http://www.w3.org/2000/svg" xml:space="preserve" width="1024px" height="1024px" shape-rendering="geometricPrecision" text-rendering="geometricPrecision" image-rendering="optimizeQuality" fill-rule="nonzero" clip-rule="evenodd" viewBox="0 0 10240 10240" xmlns:xlink="http://www.w3.org/1999/xlink">
	<title>engineer icon</title>
	<desc>engineer icon from the IconExperience.com O-Collection. Copyright by INCORS GmbH (www.incors.com).</desc>
	<path id="curve3" fill="#A1C057" d="M4480 9280l394 -2166 -207 -207c-124,-124 -187,-276 -187,-452l0 -126c206,46 420,71 640,71 220,0 434,-25 640,-71l0 126c0,176 -63,328 -187,452l-207 207 394 2166 -640 640 -640 -640z"/>
	<path id="curve2" fill="#252525" d="M8320 8790c0,717 -1502,1050 -2734,1117l400 -400c77,-77 108,-177 89,-284l-364 -2001 88 -88c184,-185 281,-418 281,-679l0 -52c0,-1 0,-2 0,-4l0 -70c0,-31 -4,-61 -12,-89 209,-72 406,-168 589,-284 1082,807 1663,1074 1663,2834zm-3666 1117c-1232,-67 -2734,-400 -2734,-1116 0,-1759 582,-2029 1663,-2835 183,116 381,212 589,284 -8,28 -12,58 -12,89l0 126c0,261 97,494 281,679l88 88 -364 2001c-19,107 12,207 89,284l400 400z"/>
	<path id="curve1" fill="#252525" d="M7677 3634c-66,1350 -1185,2425 -2557,2425 -1372,0 -2491,-1075 -2557,-2425l966 457c158,75 285,69 452,69l2278 0c167,0 294,6 452,-69l966 -457z"/>
	<path id="curve0" fill="#A1C057" d="M7655 2527l314 344c52,57 35,147 -21,202l-103 102c-87,85 -191,115 -302,168l-969 459c-101,47 -203,38 -315,38l-2278 0c-112,0 -214,9 -315,-38l-969 -459c-111,-53 -215,-83 -302,-168l-103 -102c-56,-55 -73,-145 -21,-202l314 -344c105,-752 536,-1399 1147,-1794 -1,55 5,110 19,165l374 1497c71,287 325,485 621,485l780 0c295,0 549,-198 621,-485l374 -1497c12,-48 18,-96 19,-144 593,396 1012,1034 1115,1773zm-3567 -1986l3 -5 1 -1 3 -4 1 -1 3 -5 1 0 2 -3 2 -2 2 -3 2 -2 3 -3 1 -1 3 -3 2 -3 1 0 2 -3 2 -2 1 0 2 -2 2 -2 1 -1 2 -2 2 -2 1 0 3 -3 0 0 2 -2 0 0 3 -2 1 -1 2 -1 2 -3 3 -1 0 -1 3 -2 3 -2 3 -2 0 0 2 -2 1 0 3 -2 1 -1 1 -1 4 -2 1 -1 2 -1 3 -2 0 0 3 -2 5 -3 0 0 6 -3 0 0 2 -1 5 -3 0 0 7 -3 0 0 6 -3 0 -1 1 0 5 -2 1 -1 1 0 6 -3 0 0 7 -2 1 0 0 -1c5,-1 9,-3 14,-4l0 -1 1 0c4,-1 9,-3 13,-4l1 0 1 0 1 -1 6 -1 0 0 8 -2c271,-64 556,-98 849,-98 293,0 577,34 849,98l7 2 1 0 6 1 1 1 0 0 1 0c4,1 9,3 13,4l2 1 6 2 1 0 0 0 7 2 0 1 7 2 0 0 6 3 1 0 1 1 6 2 0 1 6 2 2 1 5 3 1 0 6 3 1 1 5 3 1 0 0 1 5 2 1 1 1 0 4 3 1 1 1 0 5 3 0 1 1 0 5 4 0 0 3 2 3 2 0 0 1 1 5 3 0 0 0 0 1 1 5 4 0 0 4 4 1 0 0 1 1 0 4 4 0 0 1 0 5 5 0 0 0 0 5 5 0 0 0 0 3 3 0 1 3 2 3 3 1 1 0 1 2 2 2 2 1 1 2 2 1 1 1 2 0 0 3 3 0 0 2 2 0 1 2 2 0 1 2 2 0 0 2 3 0 0 2 3 0 0 2 3 0 0 2 2 0 1 2 3c39,58 52,130 31,200l-374 1283c-36,124 -161,208 -310,208l-780 0c-149,0 -275,-84 -311,-208l-374 -1283c-21,-74 -6,-148 37,-208z"/>
</svg>
