<?xml version="1.0" encoding="UTF-8"?>
<!DOCTYPE svg PUBLIC "-//W3C//DTD SVG 1.1//EN" "http://www.w3.org/Graphics/SVG/1.1/DTD/svg11.dtd">
<svg xmlns="http://www.w3.org/2000/svg" xml:space="preserve" width="1024px" height="1024px" shape-rendering="geometricPrecision" text-rendering="geometricPrecision" image-rendering="optimizeQuality" fill-rule="nonzero" clip-rule="evenodd" viewBox="0 0 10240 10240" xmlns:xlink="http://www.w3.org/1999/xlink">
	<title>eye_blind icon</title>
	<desc>eye_blind icon from the IconExperience.com O-Collection. Copyright by INCORS GmbH (www.incors.com).</desc>
	<path id="curve2" fill="#A1C057" d="M5120 3520c884,0 1600,716 1600,1600 0,206 -39,404 -110,585l-2075 -2075c181,-71 379,-110 585,-110zm585 3090c-181,71 -379,110 -585,110 -884,0 -1600,-716 -1600,-1600 0,-206 39,-404 110,-585l2075 2075z"/>
	<path id="curve1" fill="#252525" d="M3310 3310c1000,-1000 2620,-1000 3620,0 1000,1000 1000,2620 0,3620 -1000,1000 -2620,1000 -3620,0 -1000,-1000 -1000,-2620 0,-3620zm697 245l2678 2677c534,-749 465,-1797 -207,-2470 -673,-672 -1721,-741 -2471,-207zm2226 3130l-2678 -2678c-534,750 -465,1798 207,2471 673,672 1721,741 2471,207z"/>
	<path id="curve0" fill="#252525" d="M9854 5425c-842,1901 -2645,3215 -4734,3215 -2089,0 -3892,-1314 -4734,-3215 -88,-199 -88,-411 0,-610 842,-1901 2645,-3215 4734,-3215 2089,0 3892,1314 4734,3215 88,199 88,411 0,610zm-4734 2575c1578,0 2964,-894 3791,-2192 274,-430 274,-946 0,-1376 -827,-1298 -2213,-2192 -3791,-2192 -1578,0 -2964,894 -3791,2192 -274,429 -274,947 0,1376 825,1295 2209,2192 3791,2192z"/>
</svg>
