<?xml version="1.0" encoding="UTF-8"?>
<!DOCTYPE svg PUBLIC "-//W3C//DTD SVG 1.1//EN" "http://www.w3.org/Graphics/SVG/1.1/DTD/svg11.dtd">
<svg xmlns="http://www.w3.org/2000/svg" xml:space="preserve" width="1024px" height="1024px" shape-rendering="geometricPrecision" text-rendering="geometricPrecision" image-rendering="optimizeQuality" fill-rule="nonzero" clip-rule="evenodd" viewBox="0 0 10240 10240" xmlns:xlink="http://www.w3.org/1999/xlink">
	<title>eye_scan icon</title>
	<desc>eye_scan icon from the IconExperience.com O-Collection. Copyright by INCORS GmbH (www.incors.com).</desc>
	<path id="curve3" fill="#252525" d="M5120 4160c530,0 960,430 960,960 0,530 -430,960 -960,960 -530,0 -960,-430 -960,-960 0,-116 21,-228 59,-331 32,7 66,11 101,11 265,0 480,-215 480,-480 0,-35 -4,-69 -11,-101 103,-38 215,-59 331,-59z"/>
	<path id="curve2" fill="#A1C057" d="M5120 2560c1414,0 2560,1146 2560,2560 0,1414 -1146,2560 -2560,2560 -1414,0 -2560,-1146 -2560,-2560 0,-1414 1146,-2560 2560,-2560zm0 1280c-179,0 -349,37 -503,103 -82,-65 -185,-103 -297,-103 -265,0 -480,215 -480,480 0,112 38,215 103,297 -66,154 -103,324 -103,503 0,707 573,1280 1280,1280 707,0 1280,-573 1280,-1280 0,-707 -573,-1280 -1280,-1280z"/>
	<path id="curve1" fill="#252525" d="M8640 7179c-781,763 -1778,1275 -2880,1419l0 -648c1154,-180 2167,-837 2880,-1757l0 986zm-4160 1419c-1102,-144 -2099,-656 -2880,-1419l0 -986c711,918 1724,1577 2880,1757l0 648zm4160 -4551c-713,-920 -1726,-1577 -2880,-1757l0 -648c1102,144 2099,656 2880,1419l0 986zm-4160 -1757c-1154,180 -2167,837 -2880,1757l0 -986c781,-763 1778,-1275 2880,-1419l0 648z"/>
	<path id="curve0" fill="#252525" d="M960 640l8320 0c176,0 320,144 320,320l0 8320c0,176 -144,320 -320,320l-8320 0c-176,0 -320,-144 -320,-320l0 -8320c0,-176 144,-320 320,-320zm3840 7360l640 0 0 960 3520 0 0 -7680 -3520 0 0 960 -640 0 0 -960 -3520 0 0 3520 960 0 0 640 -960 0 0 3520 3520 0 0 -960zm3200 -2560l0 -640 960 0 0 640 -960 0z"/>
</svg>
