<?xml version="1.0" encoding="UTF-8"?>
<!DOCTYPE svg PUBLIC "-//W3C//DTD SVG 1.1//EN" "http://www.w3.org/Graphics/SVG/1.1/DTD/svg11.dtd">
<svg xmlns="http://www.w3.org/2000/svg" xml:space="preserve" width="1024px" height="1024px" shape-rendering="geometricPrecision" text-rendering="geometricPrecision" image-rendering="optimizeQuality" fill-rule="nonzero" clip-rule="evenodd" viewBox="0 0 10240 10240" xmlns:xlink="http://www.w3.org/1999/xlink">
	<title>feeding_bottle icon</title>
	<desc>feeding_bottle icon from the IconExperience.com O-Collection. Copyright by INCORS GmbH (www.incors.com).</desc>
	<path id="curve1" fill="#252525" d="M7360 4800l0 3840c0,529 -431,960 -960,960l-2560 0c-529,0 -960,-431 -960,-960l0 -3840c0,-529 431,-960 960,-960l2560 0c529,0 960,431 960,960zm-3840 0l0 320 800 0c88,0 160,72 160,160l0 320c0,88 -72,160 -160,160l-800 0 0 640 800 0c88,0 160,72 160,160l0 320c0,88 -72,160 -160,160l-800 0 0 640 800 0c88,0 160,72 160,160l0 320c0,88 -72,160 -160,160l-800 0 0 320c0,175 145,320 320,320l2560 0c176,0 320,-145 320,-320l0 -3840c0,-176 -144,-320 -320,-320l-2560 0c-176,0 -320,144 -320,320z"/>
	<path id="curve0" fill="#A1C057" d="M4693 1920c0,-96 -27,-179 -85,-256 -80,-107 -128,-240 -128,-384 0,-353 287,-640 640,-640 353,0 640,287 640,640 0,144 -48,277 -128,384 -58,77 -85,160 -85,256 0,18 0,34 2,50 384,102 531,346 531,590l0 0 0 0c353,0 640,288 640,640 0,176 -144,320 -320,320l-2560 0c-176,0 -320,-144 -320,-320l0 0c0,-353 287,-640 640,-640l0 0c0,-244 147,-488 531,-590 2,-16 2,-32 2,-50z"/>
</svg>
