<?xml version="1.0" encoding="UTF-8"?>
<!DOCTYPE svg PUBLIC "-//W3C//DTD SVG 1.1//EN" "http://www.w3.org/Graphics/SVG/1.1/DTD/svg11.dtd">
<svg xmlns="http://www.w3.org/2000/svg" xml:space="preserve" width="1024px" height="1024px" shape-rendering="geometricPrecision" text-rendering="geometricPrecision" image-rendering="optimizeQuality" fill-rule="nonzero" clip-rule="evenodd" viewBox="0 0 10240 10240" xmlns:xlink="http://www.w3.org/1999/xlink">
	<title>find_replace icon</title>
	<desc>find_replace icon from the IconExperience.com O-Collection. Copyright by INCORS GmbH (www.incors.com).</desc>
	<path id="curve3" fill="#A1C057" d="M6079 1148l-1186 1186c-124,124 -124,328 0,452l1186 1187c125,124 277,186 453,187l839 7c142,1 214,-172 113,-273l-686 -694 562 0c538,-2 960,426 960,963l0 957 1280 0 0 -957c0,-1241 -1002,-2241 -2243,-2238l-558 0 685 -685c101,-101 30,-272 -113,-273l-839 -7c-176,-1 -328,63 -453,188z"/>
	<path id="curve2" fill="#A1C057" d="M4161 9735l1186 -1186c124,-124 124,-328 0,-453l-1186 -1186c-125,-124 -277,-186 -453,-187l-839 -7c-142,-1 -214,172 -113,273l686 694 -562 0c-538,1 -960,-427 -960,-963l0 -240c-489,-191 -926,-489 -1280,-864l0 1104c0,1241 1002,2241 2243,2237l558 1 -685 685c-101,100 -30,272 113,273l839 7c176,1 328,-63 453,-188z"/>
	<path id="curve1" fill="#252525" d="M5666 6494l828 -828c124,-124 328,-124 452,0l1374 1374 1054 1054c124,124 124,328 0,452l-828 828c-124,124 -328,124 -452,0l-2428 -2428c-124,-124 -124,-328 0,-452z"/>
	<path id="curve0" fill="#252525" d="M3200 320c775,0 1479,307 1997,805l-453 453c-401,-383 -945,-618 -1544,-618 -1237,0 -2240,1003 -2240,2240 0,1237 1003,2240 2240,2240 930,0 1728,-567 2067,-1375l360 360c40,40 82,77 125,111 -65,124 -139,242 -221,355l549 549 -640 640 -549 -549c-475,345 -1059,549 -1691,549 -1591,0 -2880,-1289 -2880,-2880 0,-1591 1289,-2880 2880,-2880z"/>
</svg>
