<?xml version="1.0" encoding="UTF-8"?>
<!DOCTYPE svg PUBLIC "-//W3C//DTD SVG 1.1//EN" "http://www.w3.org/Graphics/SVG/1.1/DTD/svg11.dtd">
<svg xmlns="http://www.w3.org/2000/svg" xml:space="preserve" width="1024px" height="1024px" shape-rendering="geometricPrecision" text-rendering="geometricPrecision" image-rendering="optimizeQuality" fill-rule="nonzero" clip-rule="evenodd" viewBox="0 0 10240 10240" xmlns:xlink="http://www.w3.org/1999/xlink">
	<title>fire_extinguisher icon</title>
	<desc>fire_extinguisher icon from the IconExperience.com O-Collection. Copyright by INCORS GmbH (www.incors.com).</desc>
	<path id="curve3" fill="#A1C057" d="M5440 3200l640 0c881,0 1600,640 1600,1280l0 4480c0,352 -288,640 -640,640l-2560 0c-261,0 -487,-158 -586,-383 46,-26 88,-61 124,-102 92,-107 133,-244 113,-383l-291 -2035 0 -2217c0,-640 719,-1280 1600,-1280zm-640 1920c-176,0 -320,144 -320,320l0 1280c0,176 144,320 320,320l1920 0c176,0 320,-144 320,-320l0 -1280c0,-176 -144,-320 -320,-320l-1920 0z"/>
	<path id="curve2" fill="#252525" d="M6720 2442l0 496c-219,-42 -440,-58 -640,-58l-640 0c-200,0 -421,16 -640,58l0 -378 -320 0c-634,0 -1371,0 -1617,740 -131,392 37,759 226,1174 205,448 431,941 431,1606l0 320 -640 0 0 -320c0,-532 -194,-956 -371,-1341 -245,-535 -461,-1009 -251,-1639 393,-1180 1376,-1180 2222,-1180l245 0c175,196 431,320 715,320 157,0 310,-38 447,-110l833 312z"/>
	<path id="curve1" fill="#252525" d="M2880 6720l640 0 294 2057c7,48 -6,92 -38,128 -31,36 -72,55 -120,55l-911 0c-49,0 -90,-19 -121,-55 -32,-36 -45,-80 -38,-128l294 -2057z"/>
	<path id="curve0" fill="#252525" d="M6348 1280l1763 661c165,62 249,245 188,410 -62,165 -245,249 -410,188l-2041 -766c-111,92 -253,147 -408,147 -353,0 -640,-287 -640,-640 0,-353 287,-640 640,-640l2240 0c353,0 640,287 640,640 0,0 0,0 0,0 0,176 -144,320 -320,320l-86 0c-117,0 -218,-58 -277,-160 -55,-95 -159,-160 -277,-160l-1012 0zm-908 -320c-177,0 -320,143 -320,320 0,177 143,320 320,320 177,0 320,-143 320,-320 0,-177 -143,-320 -320,-320z"/>
</svg>
