<?xml version="1.0" encoding="UTF-8"?>
<!DOCTYPE svg PUBLIC "-//W3C//DTD SVG 1.1//EN" "http://www.w3.org/Graphics/SVG/1.1/DTD/svg11.dtd">
<svg xmlns="http://www.w3.org/2000/svg" xml:space="preserve" width="1024px" height="1024px" shape-rendering="geometricPrecision" text-rendering="geometricPrecision" image-rendering="optimizeQuality" fill-rule="nonzero" clip-rule="evenodd" viewBox="0 0 10240 10240" xmlns:xlink="http://www.w3.org/1999/xlink">
	<title>fire_truck icon</title>
	<desc>fire_truck icon from the IconExperience.com O-Collection. Copyright by INCORS GmbH (www.incors.com).</desc>
	<path id="curve2" fill="#252525" d="M8000 7040c-530,0 -960,430 -960,960 0,530 430,960 960,960 530,0 960,-430 960,-960 0,-530 -430,-960 -960,-960zm-6400 640c-177,0 -320,143 -320,320 0,177 143,320 320,320 177,0 320,-143 320,-320 0,-177 -143,-320 -320,-320zm6400 0c177,0 320,143 320,320 0,177 -143,320 -320,320 -177,0 -320,-143 -320,-320 0,-177 143,-320 320,-320zm-4480 0c-177,0 -320,143 -320,320 0,177 143,320 320,320 177,0 320,-143 320,-320 0,-177 -143,-320 -320,-320zm0 -640c530,0 960,430 960,960 0,530 -430,960 -960,960 -530,0 -960,-430 -960,-960 0,530 -430,960 -960,960 -530,0 -960,-430 -960,-960 0,-530 430,-960 960,-960 530,0 960,430 960,960 0,-530 430,-960 960,-960z"/>
	<path id="curve1" fill="#252525" d="M3520 6400l0 -1600c0,-353 -288,-640 -640,-640l-1280 0c-352,0 -640,288 -640,640l0 1600 -320 0c-176,0 -320,144 -320,320l0 1280 0 0 0 0c0,-707 573,-1280 1280,-1280 382,0 725,168 960,434 235,-266 578,-434 960,-434 707,0 1280,573 1280,1280 0,110 -14,218 -40,320l1960 0 40 0c-26,-102 -40,-210 -40,-320 0,-707 573,-1280 1280,-1280 707,0 1280,573 1280,1280l320 0 0 -1600c0,-104 -17,-196 -68,-286l-715 -1280c-121,-217 -324,-354 -573,-354l-2164 0c-176,0 -320,144 -320,320l0 1600 -2240 0zm3520 -1280l1204 0c0,0 0,0 0,0l716 1280 -1920 0 0 -1280z"/>
	<path id="curve0" fill="#A1C057" d="M320 3531l9204 -1189 164 1269 -5945 768c-157,-319 -485,-539 -863,-539l-35 0 -252 -194 -149 194 -403 0 179 -232 -1179 152 196 151c-106,44 -203,106 -286,183l-262 -202 60 464c-67,127 -106,271 -109,424l-156 20 -164 -1269zm7986 -623l-479 621 1100 -142 -621 -479zm-887 628l514 -666 -1180 152 666 514zm-1017 -382l-479 621 1100 -142 -621 -479zm-887 628l513 -666 -1179 152 666 514zm-1017 -382l-479 621 1100 -142 -621 -479zm-887 628l513 -666 -1179 152 666 514zm5047 -1252l665 514 -76 -590 -589 76z"/>
</svg>
