<?xml version="1.0" encoding="UTF-8"?>
<!DOCTYPE svg PUBLIC "-//W3C//DTD SVG 1.1//EN" "http://www.w3.org/Graphics/SVG/1.1/DTD/svg11.dtd">
<svg xmlns="http://www.w3.org/2000/svg" xml:space="preserve" width="1024px" height="1024px" shape-rendering="geometricPrecision" text-rendering="geometricPrecision" image-rendering="optimizeQuality" fill-rule="nonzero" clip-rule="evenodd" viewBox="0 0 10240 10240" xmlns:xlink="http://www.w3.org/1999/xlink">
	<title>folder_open icon</title>
	<desc>folder_open icon from the IconExperience.com O-Collection. Copyright by INCORS GmbH (www.incors.com).</desc>
	<path id="curve0" fill="#252525" d="M3630 1280c352,0 656,126 905,375l530 530c249,249 553,375 905,375l1710 0c353,0 640,288 640,640l0 640 -640 0 0 -640 -1710 0c-522,0 -988,-193 -1357,-562l-531 -531c-129,-129 -270,-187 -452,-187l-2350 1 0 6060c0,107 48,200 136,262 88,61 191,75 292,39 168,-60 303,-189 373,-364l1342 -3356c99,-248 327,-402 594,-402l5278 0c219,0 407,100 530,281 122,181 145,393 64,597l-1247 3117c-199,496 -654,805 -1189,805l-5853 0c-529,0 -960,-431 -960,-960l0 -6080c0,-353 287,-640 640,-640 783,0 1567,0 2350,0z"/>
</svg>
