<?xml version="1.0" encoding="UTF-8"?>
<!DOCTYPE svg PUBLIC "-//W3C//DTD SVG 1.1//EN" "http://www.w3.org/Graphics/SVG/1.1/DTD/svg11.dtd">
<svg xmlns="http://www.w3.org/2000/svg" xml:space="preserve" width="1024px" height="1024px" shape-rendering="geometricPrecision" text-rendering="geometricPrecision" image-rendering="optimizeQuality" fill-rule="nonzero" clip-rule="evenodd" viewBox="0 0 10240 10240" xmlns:xlink="http://www.w3.org/1999/xlink">
	<title>folder_into icon</title>
	<desc>folder_into icon from the IconExperience.com O-Collection. Copyright by INCORS GmbH (www.incors.com).</desc>
	<path id="curve1" fill="#252525" d="M3630 1280c29,0 58,1 86,3 -129,166 -196,365 -196,582l0 55 -2240 1 0 6060c0,107 48,200 136,262 88,61 191,75 292,39 168,-60 303,-189 373,-364l1342 -3356c99,-248 327,-402 594,-402l3986 0 -3 1440c-1,264 216,480 480,480l960 0c11,0 22,0 32,-1l-830 2076c-199,496 -654,805 -1189,805l-5853 0c-529,0 -960,-431 -960,-960l0 -6080c0,-353 287,-640 640,-640 783,0 1567,0 2350,0zm3024 1280l1026 0c24,0 48,1 72,4 75,88 136,190 178,299 42,107 65,222 71,337l-894 0c38,-109 37,-231 -10,-344 -75,-180 -248,-296 -443,-296z"/>
	<path id="curve0" fill="#A1C057" d="M4027 1413l500 -500c47,-47 113,-60 174,-35 61,26 99,82 99,148l0 928 495 -526c466,-497 1106,-788 1790,-788 1052,0 1961,687 2334,1647 123,316 182,652 178,996l3 2317c0,44 -16,82 -47,113 -31,31 -69,47 -113,47l-955 0c-88,0 -160,-72 -160,-160l-3 -2327c2,-183 -29,-360 -93,-526 -184,-472 -626,-827 -1144,-827 -335,0 -631,142 -860,383l-549 577 978 0c66,0 122,38 148,99 25,61 12,127 -35,174l-500 500c-124,124 -276,187 -452,187l-1655 0c-176,0 -320,-144 -320,-320l0 -1655c0,-176 63,-328 187,-452z"/>
</svg>
