<?xml version="1.0" encoding="UTF-8"?>
<!DOCTYPE svg PUBLIC "-//W3C//DTD SVG 1.1//EN" "http://www.w3.org/Graphics/SVG/1.1/DTD/svg11.dtd">
<svg xmlns="http://www.w3.org/2000/svg" xml:space="preserve" width="1024px" height="1024px" shape-rendering="geometricPrecision" text-rendering="geometricPrecision" image-rendering="optimizeQuality" fill-rule="nonzero" clip-rule="evenodd" viewBox="0 0 10240 10240" xmlns:xlink="http://www.w3.org/1999/xlink">
	<title>server_document icon</title>
	<desc>server_document icon from the IconExperience.com O-Collection. Copyright by INCORS GmbH (www.incors.com).</desc>
	<path id="curve4" fill="#252525" d="M4480 3200l2670 0c352,0 656,126 905,375l1170 1170c249,249 375,553 375,905l0 3950 -5120 0 0 -6400zm3200 960l0 960 960 0 -960 -960zm-2560 -320l0 5120 3840 0 0 -2880c0,-176 -144,-320 -320,-320l-1600 0 0 -1600c0,-176 -144,-320 -320,-320l-1600 0z"/>
	<path id="curve3" fill="#A1C057" d="M1600,5440 4160,5440 4160,6080 1600,6080z"/>
	<path id="curve2" fill="#A1C057" d="M1600,3840 4160,3840 4160,4480 1600,4480z"/>
	<path id="curve1" fill="#A1C057" d="M1600,2240 4160,2240 4160,2880 1600,2880z"/>
	<path id="curve0" fill="#252525" d="M960 640l3840 0c176,0 320,144 320,320l0 1920 -640 0 0 -960 -3200 0 0 1280 2880 0 0 320 -2880 0 0 1280 2880 0 0 320 -2880 0 0 1280 2880 0 0 640 -3520 0 0 -6080c0,-176 144,-320 320,-320zm3200 320c-177,0 -320,143 -320,320 0,177 143,320 320,320 177,0 320,-143 320,-320 0,-177 -143,-320 -320,-320z"/>
</svg>
