<?xml version="1.0" encoding="UTF-8"?>
<!DOCTYPE svg PUBLIC "-//W3C//DTD SVG 1.1//EN" "http://www.w3.org/Graphics/SVG/1.1/DTD/svg11.dtd">
<svg xmlns="http://www.w3.org/2000/svg" xml:space="preserve" width="1024px" height="1024px" shape-rendering="geometricPrecision" text-rendering="geometricPrecision" image-rendering="optimizeQuality" fill-rule="nonzero" clip-rule="evenodd" viewBox="0 0 10240 10240" xmlns:xlink="http://www.w3.org/1999/xlink">
	<title>server_into icon</title>
	<desc>server_into icon from the IconExperience.com O-Collection. Copyright by INCORS GmbH (www.incors.com).</desc>
	<path id="curve5" fill="#252525" d="M3979 7350l4031 0 0 1280 -4480 0 0 -901 449 -379zm3391 320c-177,0 -320,143 -320,320 0,177 143,320 320,320 177,0 320,-143 320,-320 0,-177 -143,-320 -320,-320z"/>
	<path id="curve4" fill="#252525" d="M3520 5120l4480 0 0 1280 -3470 0c-33,-118 -100,-228 -201,-316l-809 -699 0 -265zm3830 330c-177,0 -320,143 -320,320 0,177 143,320 320,320 177,0 320,-143 320,-320 0,-177 -143,-320 -320,-320z"/>
	<path id="curve3" fill="#252525" d="M3520 2880l4480 0 0 1280 -4480 0 0 -1280zm3840 320c-177,0 -320,143 -320,320 0,177 143,320 320,320 177,0 320,-143 320,-320 0,-177 -143,-320 -320,-320z"/>
	<path id="curve2" fill="#252525" d="M7680 1280c177,0 320,143 320,320 0,177 -143,320 -320,320 -177,0 -320,-143 -320,-320 0,-177 143,-320 320,-320z"/>
	<path id="curve1" fill="#252525" d="M2880 640l5760 0c176,0 320,144 320,320l0 8640 -6400 0 0 -1600 416 0c79,0 154,-14 224,-40l0 1000 5120 0 0 -1920 -3975 0c98,-90 161,-202 190,-320l3785 0 0 -1920 -5120 0 0 360c-70,-26 -145,-40 -224,-40l-416 0 0 -4160c0,-176 144,-320 320,-320zm320 1920l0 1920 5120 0 0 -1920 -5120 0zm4480 -1600c-353,0 -640,287 -640,640 0,353 287,640 640,640 353,0 640,-287 640,-640 0,-353 -287,-640 -640,-640z"/>
	<path id="curve0" fill="#A1C057" d="M2976 5440l-736 0c-68,0 -126,40 -150,103 -24,64 -8,133 44,177l426 360 -640 0c-176,0 -320,-144 -320,-320l0 -1280 -960 0 0 1280c0,705 575,1280 1280,1280l320 0 320 0 -426 360c-52,44 -68,113 -44,177 24,63 82,103 150,103l736 0c81,0 150,-28 212,-80l930 -787c154,-129 153,-355 1,-487l-931 -806c-62,-53 -131,-80 -212,-80z"/>
</svg>
