<?xml version="1.0" encoding="UTF-8"?>
<!DOCTYPE svg PUBLIC "-//W3C//DTD SVG 1.1//EN" "http://www.w3.org/Graphics/SVG/1.1/DTD/svg11.dtd">
<svg xmlns="http://www.w3.org/2000/svg" xml:space="preserve" width="1024px" height="1024px" shape-rendering="geometricPrecision" text-rendering="geometricPrecision" image-rendering="optimizeQuality" fill-rule="nonzero" clip-rule="evenodd" viewBox="0 0 10240 10240" xmlns:xlink="http://www.w3.org/1999/xlink">
	<title>set_square icon</title>
	<desc>set_square icon from the IconExperience.com O-Collection. Copyright by INCORS GmbH (www.incors.com).</desc>
	<path id="curve0" fill="#252525" d="M5233 2673l4734 4734c47,47 60,113 35,174 -26,61 -82,99 -148,99l-9468 0c-66,0 -122,-38 -148,-99 -25,-61 -12,-127 35,-174l4734 -4734c62,-62 164,-62 226,0zm-1393 4047l0 320 911 0 0 -320 -911 0zm1649 0l0 320 911 0 0 -320 -911 0zm-1649 -640l0 320 911 0 0 -320 -911 0zm1649 0l0 320 911 0 0 -320 -911 0zm-369 -1280c-1482,0 -2703,1120 -2862,2560l322 0c157,-1263 1235,-2240 2540,-2240 1305,0 2383,977 2540,2240l322 0c-159,-1440 -1380,-2560 -2862,-2560z"/>
</svg>
