<?xml version="1.0" encoding="UTF-8"?>
<!DOCTYPE svg PUBLIC "-//W3C//DTD SVG 1.1//EN" "http://www.w3.org/Graphics/SVG/1.1/DTD/svg11.dtd">
<svg xmlns="http://www.w3.org/2000/svg" xml:space="preserve" width="1024px" height="1024px" shape-rendering="geometricPrecision" text-rendering="geometricPrecision" image-rendering="optimizeQuality" fill-rule="nonzero" clip-rule="evenodd" viewBox="0 0 10240 10240" xmlns:xlink="http://www.w3.org/1999/xlink">
	<title>shape_hexagon icon</title>
	<desc>shape_hexagon icon from the IconExperience.com O-Collection. Copyright by INCORS GmbH (www.incors.com).</desc>
	<path id="curve0" fill="#252525" d="M5280 778l3520 2033c102,58 160,159 160,277l0 4064c0,118 -58,219 -160,277l-3520 2033c-102,58 -218,58 -320,0l-3520 -2033c-102,-58 -160,-159 -160,-277l0 -4064c0,-118 58,-219 160,-277l3520 -2033c102,-58 218,-58 320,0zm-160 647l-3200 1847 0 3696 3200 1847 3200 -1847 0 -3696 -3200 -1847z"/>
</svg>
