<?xml version="1.0" encoding="UTF-8"?>
<!DOCTYPE svg PUBLIC "-//W3C//DTD SVG 1.1//EN" "http://www.w3.org/Graphics/SVG/1.1/DTD/svg11.dtd">
<svg xmlns="http://www.w3.org/2000/svg" xml:space="preserve" width="1024px" height="1024px" shape-rendering="geometricPrecision" text-rendering="geometricPrecision" image-rendering="optimizeQuality" fill-rule="nonzero" clip-rule="evenodd" viewBox="0 0 10240 10240" xmlns:xlink="http://www.w3.org/1999/xlink">
	<title>shopping_basket_full icon</title>
	<desc>shopping_basket_full icon from the IconExperience.com O-Collection. Copyright by INCORS GmbH (www.incors.com).</desc>
	<path id="curve5" fill="#252525" d="M960 3200l8320 0c176,0 320,144 320,320l0 640c0,176 -144,320 -320,320l-28 0 -424 -911c-149,-319 -531,-458 -851,-309l-290 135c-320,149 -458,531 -309,851l109 234 -4734 0 109 -234c149,-320 11,-702 -309,-851l-290 -135c-320,-149 -702,-10 -851,309l-424 911 -28 0c-176,0 -320,-144 -320,-320l0 -640c0,-176 144,-320 320,-320z"/>
	<path id="curve4" fill="#252525" d="M2604 4800l5032 0 299 640 -895 0 0 960 960 0 0 -820 630 1352 -484 1590c-82,268 -327,438 -607,438l-4838 0c-280,0 -525,-169 -607,-438l-484 -1590 630 -1352 0 820 960 0 0 -960 -895 0 299 -640zm1236 2240l0 960 960 0 0 -960 -960 0zm-1528 0l292 960 596 0 0 -960 -888 0zm5324 960l292 -960 -888 0 0 960 596 0zm-3796 -2560l0 960 960 0 0 -960 -960 0zm1600 0l0 960 960 0 0 -960 -960 0zm0 1600l0 960 960 0 0 -960 -960 0z"/>
	<path id="curve3" fill="#252525" d="M9445 7165l290 -135c160,-74 230,-265 155,-425l-1352 -2900c-75,-160 -266,-230 -426,-155l-290 135c-159,75 -229,266 -154,425l1352 2901c75,159 266,229 425,154zm-8650 0l-290 -135c-160,-74 -230,-265 -155,-425l1352 -2900c75,-160 266,-230 426,-155l290 135c159,75 229,266 154,425l-1352 2901c-75,159 -266,229 -425,154z"/>
	<path id="curve2" fill="#A1C057" d="M5440 640l2560 0c176,0 320,144 320,320l0 1920 -1600 0 0 -320c0,-353 -287,-640 -640,-640l-960 0 0 -960c0,-176 144,-320 320,-320z"/>
	<path id="curve1" fill="#A1C057" d="M3520 2240l2560 0c176,0 320,144 320,320l0 320 -3200 0 0 -320c0,-176 144,-320 320,-320z"/>
	<path id="curve0" fill="#A1C057" d="M1742 2880l1827 -1827c124,-124 328,-124 452,0l867 867 -1368 0c-353,0 -640,287 -640,640l0 320 -1138 0z"/>
</svg>
