<?xml version="1.0" encoding="UTF-8"?>
<!DOCTYPE svg PUBLIC "-//W3C//DTD SVG 1.1//EN" "http://www.w3.org/Graphics/SVG/1.1/DTD/svg11.dtd">
<svg xmlns="http://www.w3.org/2000/svg" xml:space="preserve" width="1024px" height="1024px" shape-rendering="geometricPrecision" text-rendering="geometricPrecision" image-rendering="optimizeQuality" fill-rule="nonzero" clip-rule="evenodd" viewBox="0 0 10240 10240" xmlns:xlink="http://www.w3.org/1999/xlink">
	<title>shopping_basket icon</title>
	<desc>shopping_basket icon from the IconExperience.com O-Collection. Copyright by INCORS GmbH (www.incors.com).</desc>
	<path id="curve2" fill="#252525" d="M960 4800l2880 0 5440 0 -1134 3722c-82,268 -327,438 -607,438l-3699 0 -1139 0c-280,0 -525,-169 -607,-438l-1134 -3722zm2880 2240l0 960 960 0 0 -960 -960 0zm-1528 0l292 960 596 0 0 -960 -888 0zm5324 960l292 -960 -888 0 0 960 596 0zm-5396 -2560l0 960 960 0 0 -960 -960 0zm1600 0l0 960 960 0 0 -960 -960 0zm1600 0l0 960 960 0 0 -960 -960 0zm1600 0l0 960 960 0 0 -960 -960 0zm-1600 1600l0 960 960 0 0 -960 -960 0z"/>
	<path id="curve1" fill="#A1C057" d="M960 3200l327 0c-29,194 31,398 180,547l226 226c250,249 656,249 905,0l773 -773 3498 0 773 773c249,249 655,249 905,0l226 -226c149,-149 209,-353 180,-547l327 0c176,0 320,144 320,320l0 640c0,176 -144,320 -320,320l-8320 0c-176,0 -320,-144 -320,-320l0 -640c0,-176 144,-320 320,-320z"/>
	<path id="curve0" fill="#252525" d="M4409 805l226 226c125,125 125,328 0,453l-2263 2263c-124,124 -328,124 -452,0l-227 -227c-124,-124 -124,-328 0,-452l2263 -2263c125,-125 328,-125 453,0zm1422 0l-226 226c-125,125 -125,328 0,453l2263 2263c124,124 328,124 452,0l227 -227c124,-124 124,-328 0,-452l-2263 -2263c-125,-125 -328,-125 -453,0z"/>
</svg>
