<?xml version="1.0" encoding="UTF-8"?>
<!DOCTYPE svg PUBLIC "-//W3C//DTD SVG 1.1//EN" "http://www.w3.org/Graphics/SVG/1.1/DTD/svg11.dtd">
<svg xmlns="http://www.w3.org/2000/svg" xml:space="preserve" width="1024px" height="1024px" shape-rendering="geometricPrecision" text-rendering="geometricPrecision" image-rendering="optimizeQuality" fill-rule="nonzero" clip-rule="evenodd" viewBox="0 0 10240 10240" xmlns:xlink="http://www.w3.org/1999/xlink">
	<title>sign_warning_voltage icon</title>
	<desc>sign_warning_voltage icon from the IconExperience.com O-Collection. Copyright by INCORS GmbH (www.incors.com).</desc>
	<path id="curve1" fill="#252525" d="M5680 1282l3846 6712c117,205 117,439 0,644 -117,205 -319,322 -554,322l-7691 0c-234,0 -436,-117 -553,-322 -117,-205 -117,-439 0,-644l3846 -6712c117,-205 318,-322 553,-322 235,0 436,117 553,322zm-560 318l-3840 6720 7680 0 -3840 -6720z"/>
	<path id="curve0" fill="#A1C057" d="M4619 3840l1178 0c60,0 110,30 140,81 29,52 28,111 -2,161l-815 1358 701 0c57,0 106,27 136,76 30,48 33,104 7,156l-524 1048 228 0c67,0 125,39 149,102 24,63 9,131 -41,176l-926 847c-40,36 -91,50 -144,38 -52,-12 -92,-46 -113,-96l-344 -847c-20,-51 -15,-104 16,-149 31,-46 78,-71 133,-71l402 0 320 -640 -776 0c-48,0 -89,-19 -120,-55 -32,-36 -45,-80 -38,-128l274 -1920c12,-79 79,-137 159,-137z"/>
</svg>
