<?xml version="1.0" encoding="UTF-8"?>
<!DOCTYPE svg PUBLIC "-//W3C//DTD SVG 1.1//EN" "http://www.w3.org/Graphics/SVG/1.1/DTD/svg11.dtd">
<svg xmlns="http://www.w3.org/2000/svg" xml:space="preserve" width="1024px" height="1024px" shape-rendering="geometricPrecision" text-rendering="geometricPrecision" image-rendering="optimizeQuality" fill-rule="nonzero" clip-rule="evenodd" viewBox="0 0 10240 10240" xmlns:xlink="http://www.w3.org/1999/xlink">
	<title>sign_warning_flammable icon</title>
	<desc>sign_warning_flammable icon from the IconExperience.com O-Collection. Copyright by INCORS GmbH (www.incors.com).</desc>
	<path id="curve1" fill="#252525" d="M5680 1282l3846 6712c117,205 117,439 0,644 -117,205 -319,322 -554,322l-7691 0c-234,0 -436,-117 -553,-322 -117,-205 -117,-439 0,-644l3846 -6712c117,-205 318,-322 553,-322 235,0 436,117 553,322zm-560 318l-3840 6720 7680 0 -3840 -6720z"/>
	<path id="curve0" fill="#A1C057" d="M5106 3566c489,332 367,681 299,1046 -177,945 1045,1194 896,0 326,331 597,1111 597,1609 0,825 -597,1825 -1792,1825 -1194,0 -1792,-1000 -1792,-1825 0,-498 163,-830 489,-1161 -326,663 147,1178 489,829 325,-332 -327,-664 163,-1327 303,-411 814,-332 651,-996zm-51 1272c-797,682 386,1307 0,1757 -206,242 -763,296 -931,-194 -321,648 206,1279 982,1279 776,0 1141,-474 1077,-955 -63,537 -1025,639 -1297,373 651,255 1427,-491 859,-1063 -342,-345 -815,-624 -690,-1197z"/>
</svg>
