<?xml version="1.0" encoding="UTF-8"?>
<!DOCTYPE svg PUBLIC "-//W3C//DTD SVG 1.1//EN" "http://www.w3.org/Graphics/SVG/1.1/DTD/svg11.dtd">
<svg xmlns="http://www.w3.org/2000/svg" xml:space="preserve" width="1024px" height="1024px" shape-rendering="geometricPrecision" text-rendering="geometricPrecision" image-rendering="optimizeQuality" fill-rule="nonzero" clip-rule="evenodd" viewBox="0 0 10240 10240" xmlns:xlink="http://www.w3.org/1999/xlink">
	<title>signboard_for_sale icon</title>
	<desc>signboard_for_sale icon from the IconExperience.com O-Collection. Copyright by INCORS GmbH (www.incors.com).</desc>
	<path id="curve2" fill="#252525" d="M4480,7360 5760,7360 5760,9920 4480,9920z"/>
	<path id="curve1" fill="#A1C057" d="M4160 1920l0 320 -960 0 0 320 640 0 0 320 -640 0 0 640 -320 0 0 -1520c0,-44 36,-80 80,-80 400,0 800,0 1200,0zm960 1600c353,0 640,-287 640,-640l0 -320c0,-353 -287,-640 -640,-640 -353,0 -640,287 -640,640l0 320c0,353 287,640 640,640zm320 -640c0,177 -143,320 -320,320 -177,0 -320,-143 -320,-320l0 -320c0,-177 143,-320 320,-320 177,0 320,143 320,320l0 320zm640 -960l800 0c265,0 480,274 480,480 0,206 -66,278 -170,366 105,115 170,267 170,434l0 320 -320 0 0 -320c0,-176 -144,-320 -320,-320l-320 0 0 640 -320 0 0 -1600zm800 640c88,0 160,-72 160,-160 0,-88 -72,-160 -160,-160l-480 0 0 320 480 0zm1120 1600l0 320 -960 0 0 320 640 0 0 320 -640 0 0 320 960 0 0 320c-400,0 -800,0 -1200,0 -44,0 -80,-36 -80,-80l0 -1440c0,-44 36,-80 80,-80 400,0 800,0 1200,0zm-3833 960l626 0c-20,-222 -82,-437 -173,-640l-280 0c-91,203 -153,418 -173,640zm633 320l-640 0 0 320 -320 0 0 -480c0,-363 96,-708 257,-1031 28,-56 85,-88 143,-88l480 0c58,0 115,32 142,88 162,323 258,668 258,1031l0 480 -320 0 0 -320zm-1622 -880c-28,-49 -81,-80 -138,-80l-320 0c-88,0 -160,72 -160,160 0,88 72,160 160,160l320 0c265,0 480,215 480,480 0,265 -215,480 -480,480l-320 0c-234,0 -435,-170 -473,-400l335 0c28,49 81,80 138,80l320 0c88,0 160,-72 160,-160 0,-88 -72,-160 -160,-160l-320 0c-265,0 -480,-215 -480,-480 0,-265 215,-480 480,-480l320 0c234,0 435,170 473,400l-335 0zm2262 -400l320 0 0 1280 640 0 0 320 -960 0 0 -1600z"/>
	<path id="curve0" fill="#252525" d="M960 640l8320 0c176,0 320,144 320,320l0 5760c0,176 -144,320 -320,320l-8320 0c-176,0 -320,-144 -320,-320l0 -5760c0,-176 144,-320 320,-320zm320 640l0 5120 7680 0 0 -5120 -7680 0z"/>
</svg>
