<?xml version="1.0" encoding="UTF-8"?>
<!DOCTYPE svg PUBLIC "-//W3C//DTD SVG 1.1//EN" "http://www.w3.org/Graphics/SVG/1.1/DTD/svg11.dtd">
<svg xmlns="http://www.w3.org/2000/svg" xml:space="preserve" width="1024px" height="1024px" shape-rendering="geometricPrecision" text-rendering="geometricPrecision" image-rendering="optimizeQuality" fill-rule="nonzero" clip-rule="evenodd" viewBox="0 0 10240 10240" xmlns:xlink="http://www.w3.org/1999/xlink">
	<title>sign_warning_biohazard icon</title>
	<desc>sign_warning_biohazard icon from the IconExperience.com O-Collection. Copyright by INCORS GmbH (www.incors.com).</desc>
	<path id="curve1" fill="#252525" d="M5680 1282l3846 6712c117,205 117,439 0,644 -117,205 -319,322 -554,322l-7691 0c-234,0 -436,-117 -553,-322 -117,-205 -117,-439 0,-644l3846 -6712c117,-205 318,-322 553,-322 235,0 436,117 553,322zm-560 318l-3840 6720 7680 0 -3840 -6720z"/>
	<path id="curve0" fill="#A1C057" d="M5120 4800c183,0 357,37 516,103 -54,108 -141,197 -247,253 -86,-24 -176,-36 -269,-36 -93,0 -183,12 -268,36 -107,-57 -194,-145 -248,-253 159,-66 333,-103 516,-103zm1444 3050c-405,204 -902,207 -1324,-37 -42,-24 -82,-50 -120,-77 -38,27 -78,53 -120,77 -422,244 -919,241 -1324,37 -19,-10 -28,-32 -22,-52 7,-21 27,-33 48,-30 192,28 394,-6 576,-111 428,-248 575,-796 328,-1224 -248,-429 -796,-576 -1225,-328 -181,104 -312,263 -383,443 -8,20 -29,31 -50,26 -21,-4 -36,-23 -34,-45 25,-453 272,-884 694,-1128 42,-24 84,-46 127,-65 -5,-47 -7,-94 -7,-142 0,-488 251,-917 630,-1166 18,-11 41,-8 56,7 15,16 15,40 2,57 -120,152 -192,345 -192,554 0,495 401,896 896,896 495,0 896,-401 896,-896 0,-209 -71,-402 -191,-554 -14,-17 -13,-41 2,-57 14,-15 38,-18 56,-7 379,249 630,678 630,1166 0,48 -3,96 -7,143 42,19 85,40 126,64 422,244 669,676 694,1129 2,21 -13,40 -34,45 -21,4 -42,-7 -50,-27 -71,-180 -202,-338 -383,-443 -429,-247 -977,-100 -1225,328 -247,429 -100,977 328,1224 182,105 384,139 576,111 21,-3 41,10 48,30 6,21 -3,42 -22,52zm-1444 -2030c-177,0 -320,143 -320,320 0,177 143,320 320,320 177,0 320,-143 320,-320 0,-177 -143,-320 -320,-320zm1331 487c-45,365 -237,686 -516,899 -68,-99 -103,-217 -100,-336 132,-130 230,-295 276,-481 102,-62 221,-91 340,-82zm-2146 899c-279,-214 -471,-534 -516,-900 119,-8 238,21 340,83 46,186 144,351 277,481 2,119 -33,237 -101,336z"/>
</svg>
