<?xml version="1.0" encoding="UTF-8"?>
<!DOCTYPE svg PUBLIC "-//W3C//DTD SVG 1.1//EN" "http://www.w3.org/Graphics/SVG/1.1/DTD/svg11.dtd">
<svg xmlns="http://www.w3.org/2000/svg" xml:space="preserve" width="1024px" height="1024px" shape-rendering="geometricPrecision" text-rendering="geometricPrecision" image-rendering="optimizeQuality" fill-rule="nonzero" clip-rule="evenodd" viewBox="0 0 10240 10240" xmlns:xlink="http://www.w3.org/1999/xlink">
	<title>singer icon</title>
	<desc>singer icon from the IconExperience.com O-Collection. Copyright by INCORS GmbH (www.incors.com).</desc>
	<path id="curve2" fill="#A1C057" d="M3862 4926l-226 226 1131 1132 227 -226c249,-250 249,-656 0,-906l-227 -226c-249,-249 -655,-249 -905,0zm-662 2473l0 2201 -640 0 0 -1561 -508 508c-124,124 -328,124 -452,0l-227 -227c-124,-124 -124,-328 0,-452l1645 -1645c-56,-214 -1,-451 166,-618l226 -226 171 171 960 960 -226 226c-167,167 -404,222 -618,166l-497 497z"/>
	<path id="curve1" fill="#252525" d="M8960 8470c0,810 -1920,1130 -3200,1130 -705,0 -1605,-97 -2270,-320l30 0 0 -1749 289 -289c270,15 537,-84 732,-279l340 -340 339 -339c69,-69 125,-146 169,-228 121,16 245,24 371,24 565,0 1092,-163 1537,-444 1082,807 1663,1074 1663,2834z"/>
	<path id="curve0" fill="#252525" d="M5760 661c1414,0 2560,1142 2560,2550 0,1408 -1146,2549 -2560,2549 -91,0 -181,-5 -270,-14 43,-290 -47,-597 -270,-820l-226 -226c-365,-365 -955,-374 -1331,-26 -292,-414 -463,-919 -463,-1463 0,-1408 1146,-2550 2560,-2550z"/>
</svg>
