<?xml version="1.0" encoding="UTF-8"?>
<!DOCTYPE svg PUBLIC "-//W3C//DTD SVG 1.1//EN" "http://www.w3.org/Graphics/SVG/1.1/DTD/svg11.dtd">
<svg xmlns="http://www.w3.org/2000/svg" xml:space="preserve" width="1024px" height="1024px" shape-rendering="geometricPrecision" text-rendering="geometricPrecision" image-rendering="optimizeQuality" fill-rule="nonzero" clip-rule="evenodd" viewBox="0 0 10240 10240" xmlns:xlink="http://www.w3.org/1999/xlink">
	<title>sixpack_beer icon</title>
	<desc>sixpack_beer icon from the IconExperience.com O-Collection. Copyright by INCORS GmbH (www.incors.com).</desc>
	<path id="curve1" fill="#252525" d="M8750 3200l183 1062c111,647 347,858 347,1800l0 658 -640 0 0 -320 -1280 0 0 320 -640 0 0 -658c0,-942 242,-1185 347,-1800l183 -1062 -210 0 0 -320c0,-176 144,-320 320,-320l0 0 1280 0c176,0 320,144 320,320l0 320 -210 0zm-7150 -640l0 0 1280 0c176,0 320,144 320,320l0 320 -210 0 183 1062c111,647 347,858 347,1800l0 658 -640 0 0 -320 -1280 0 0 320 -640 0 0 -658c0,-942 242,-1185 347,-1800l183 -1062 -210 0 0 -320c0,-176 144,-320 320,-320zm2880 0l0 0 1280 0c176,0 320,144 320,320l0 320 -210 0 183 1062c111,647 347,858 347,1800l0 658 -640 0 0 -320 -1280 0 0 320 -640 0 0 -658c0,-942 242,-1185 347,-1800l183 -1062 -210 0 0 -320c0,-176 144,-320 320,-320z"/>
	<path id="curve0" fill="#A1C057" d="M9600 7040l0 2133c0,235 -144,427 -320,427l-8320 0c-176,0 -320,-192 -320,-427l0 -2133 8960 0zm-7680 -5760l6400 0c705,0 1280,575 1280,1280l0 3520 0 0 0 -18c0,-482 -58,-835 -203,-1290 -60,-189 -115,-368 -149,-564l-126 -732c94,-56 158,-159 158,-276l0 -320c0,-350 -283,-636 -632,-640 -3,0 -5,0 -8,0l-1280 0 0 0c-3,0 -5,0 -8,0 -233,3 -436,131 -546,320l-492 0c-110,-189 -313,-317 -546,-320 -3,0 -5,0 -8,0l-1280 0 0 0c-3,0 -5,0 -8,0 -233,3 -436,131 -546,320l-492 0c-110,-189 -313,-317 -546,-320 -3,0 -5,0 -8,0l-1280 0 0 0c-3,0 -5,0 -8,0 -349,4 -632,290 -632,640l0 320c0,117 63,220 158,276l-126 732c-30,174 -79,336 -132,504 -58,183 -112,361 -149,550 -52,264 -71,531 -71,800l0 -3502c0,-705 575,-1280 1280,-1280zm4840 2880l-8 48c-30,174 -79,336 -132,504 -21,67 -42,132 -61,198 -13,-45 -27,-91 -42,-138 -60,-189 -115,-368 -149,-564l-8 -48 400 0zm-2880 0l-8 48c-30,174 -79,336 -132,504 -21,67 -42,132 -61,198 -13,-45 -27,-91 -42,-138 -60,-189 -115,-368 -149,-564l-8 -48 400 0z"/>
</svg>
