<?xml version="1.0" encoding="UTF-8"?>
<!DOCTYPE svg PUBLIC "-//W3C//DTD SVG 1.1//EN" "http://www.w3.org/Graphics/SVG/1.1/DTD/svg11.dtd">
<svg xmlns="http://www.w3.org/2000/svg" xml:space="preserve" width="1024px" height="1024px" shape-rendering="geometricPrecision" text-rendering="geometricPrecision" image-rendering="optimizeQuality" fill-rule="nonzero" clip-rule="evenodd" viewBox="0 0 10240 10240" xmlns:xlink="http://www.w3.org/1999/xlink">
	<title>skull2 icon</title>
	<desc>skull2 icon from the IconExperience.com O-Collection. Copyright by INCORS GmbH (www.incors.com).</desc>
	<path id="curve4" fill="#252525" d="M8426 4591c299,-155 658,-148 952,27 331,196 513,562 465,945 -16,133 37,292 130,388 265,278 340,683 190,1036 -113,266 -333,460 -599,544 90,323 5,671 -231,918 -93,96 -146,255 -130,388 48,383 -134,749 -465,945 -330,196 -740,182 -1056,-36 -283,-195 -497,-474 -609,-799 0,0 0,-1 0,-1 -1,0 -2,-1 -3,-1l-1939 -625c453,-1 941,-63 1362,-236l777 251c201,65 346,206 415,404 69,201 200,366 366,480 108,75 242,79 355,12 113,-67 172,-186 156,-315 -40,-322 76,-672 302,-909 90,-95 114,-225 63,-345 -51,-120 -162,-194 -294,-197 -202,-4 -407,53 -583,174 -174,120 -376,149 -577,84l-320 -103c127,-161 207,-354 207,-580 0,-40 0,-80 0,-121l753 -242c201,-65 403,-36 577,84 176,121 381,178 584,174 131,-3 242,-77 293,-197 51,-120 27,-250 -63,-345 -226,-237 -342,-587 -302,-909 16,-129 -43,-248 -156,-315 -113,-67 -247,-63 -355,12 -166,114 -297,279 -366,480 -69,198 -214,339 -415,404l-538 174c4,-125 9,-250 16,-375 55,-65 205,-145 258,-172 322,-160 573,-466 700,-799 37,-100 64,-201 80,-302zm-3318 3729l-1938 625c-1,0 -2,1 -3,1 0,0 0,1 0,1 -112,325 -326,604 -609,799 -316,218 -726,232 -1056,36 -331,-196 -513,-562 -465,-945 16,-133 -37,-292 -130,-388 -236,-247 -321,-595 -231,-918 -266,-84 -486,-278 -599,-544 -150,-353 -75,-758 190,-1036 92,-96 146,-255 130,-388 -48,-383 134,-749 465,-945 294,-175 654,-182 952,-27 16,101 43,202 80,302 127,333 378,639 700,799 53,27 203,107 258,172 7,125 12,250 16,375l-538 -174c-201,-65 -346,-206 -415,-404 -69,-201 -200,-366 -366,-480 -108,-75 -242,-79 -355,-12 -113,67 -172,186 -156,315 40,322 -76,672 -302,909 -90,95 -114,225 -63,345 51,120 162,194 293,197 203,4 408,-53 584,-174 174,-120 376,-149 577,-84l753 242c0,41 0,81 0,121 0,226 80,419 207,580l-320 103c-201,65 -403,36 -577,-84 -176,-121 -381,-178 -583,-174 -132,3 -243,77 -294,197 -51,120 -27,250 63,345 226,237 342,587 302,909 -16,129 43,248 156,315 113,67 247,63 355,-12 166,-114 297,-279 366,-480 69,-198 214,-339 415,-404l777 -251c421,173 909,235 1361,236z"/>
	<path id="curve3" fill="#252525" d="M3168 5776c-68,-173 -278,-293 -431,-370 -250,-125 -446,-369 -544,-627 -136,-360 -90,-742 81,-1083 18,-36 47,-96 44,-138 -4,-74 -50,-206 -69,-281 -90,-366 -77,-739 58,-1093 193,-507 601,-888 1073,-1139 529,-281 1144,-405 1740,-405 596,0 1211,124 1740,405 472,251 880,632 1073,1139 135,354 148,727 58,1093 -19,77 -63,205 -66,282 -2,46 21,97 41,137 171,341 217,723 81,1083 -98,258 -294,502 -544,627 -153,77 -363,197 -431,370 -24,420 -32,843 -32,1264 0,365 -331,604 -634,734 -391,168 -863,226 -1286,226 -423,0 -895,-58 -1286,-226 -303,-130 -634,-369 -634,-734 0,-421 -8,-844 -32,-1264zm672 1249c45,76 258,168 330,194 294,105 639,141 950,141 311,0 656,-36 950,-141 72,-26 285,-118 330,-194 0,-87 0,-173 1,-260 -327,166 -767,275 -1281,275 -514,0 -954,-109 -1281,-275 1,87 1,173 1,260zm2585 -1130c4,-79 2,-197 23,-269 111,-384 426,-621 769,-792 103,-52 191,-176 231,-281 73,-192 35,-392 -54,-571 -174,-347 -110,-514 -25,-859 59,-239 54,-479 -34,-711 -136,-359 -443,-626 -775,-802 -435,-231 -950,-330 -1440,-330 -490,0 -1005,99 -1440,330 -332,176 -638,443 -775,802 -88,232 -93,472 -34,711 87,355 156,499 -25,859 -89,179 -127,379 -54,571 40,105 128,229 231,281 343,171 659,408 769,792 19,65 24,183 23,269 19,95 130,203 313,298 238,125 579,207 992,207 413,0 754,-82 992,-207 183,-95 294,-203 313,-298z"/>
	<path id="curve2" fill="#252525" d="M5414 4896c170,387 507,453 294,883 -55,110 -248,354 -328,292 -191,-146 -368,-136 -561,0 -81,58 -231,-182 -285,-292 -180,-362 138,-564 293,-883 86,-177 508,-180 587,0z"/>
	<path id="curve1" fill="#252525" d="M4000 3201c442,0 800,358 800,799 0,442 -358,800 -800,800 -441,0 -799,-358 -799,-800 0,-441 358,-799 799,-799z"/>
	<path id="curve0" fill="#252525" d="M6240 3201c441,0 799,358 799,800 0,442 -358,800 -799,800 -442,0 -800,-358 -800,-800 0,-442 358,-800 800,-800z"/>
</svg>
