<?xml version="1.0" encoding="UTF-8"?>
<!DOCTYPE svg PUBLIC "-//W3C//DTD SVG 1.1//EN" "http://www.w3.org/Graphics/SVG/1.1/DTD/svg11.dtd">
<svg xmlns="http://www.w3.org/2000/svg" xml:space="preserve" width="1024px" height="1024px" shape-rendering="geometricPrecision" text-rendering="geometricPrecision" image-rendering="optimizeQuality" fill-rule="nonzero" clip-rule="evenodd" viewBox="0 0 10240 10240" xmlns:xlink="http://www.w3.org/1999/xlink">
	<title>slider icon</title>
	<desc>slider icon from the IconExperience.com O-Collection. Copyright by INCORS GmbH (www.incors.com).</desc>
	<path id="curve1" fill="#252525" d="M960 5120l640 0 0 640 -640 0c-176,0 -320,-144 -320,-320l0 0c0,-176 144,-320 320,-320zm3840 0l4480 0c176,0 320,144 320,320l0 0c0,176 -144,320 -320,320l-4480 0 0 -640z"/>
	<path id="curve0" fill="#A1C057" d="M2240 3840l1920 0c176,0 320,144 320,320l0 2107c0,89 -31,164 -94,227l-960 960c-124,124 -328,124 -452,0l-960 -960c-63,-63 -94,-138 -94,-227l0 -2107c0,-176 144,-320 320,-320zm320 1280l0 1015 640 640 640 -640 0 -1015 -1280 0z"/>
</svg>
