<?xml version="1.0" encoding="UTF-8"?>
<!DOCTYPE svg PUBLIC "-//W3C//DTD SVG 1.1//EN" "http://www.w3.org/Graphics/SVG/1.1/DTD/svg11.dtd">
<svg xmlns="http://www.w3.org/2000/svg" xml:space="preserve" width="1024px" height="1024px" shape-rendering="geometricPrecision" text-rendering="geometricPrecision" image-rendering="optimizeQuality" fill-rule="nonzero" clip-rule="evenodd" viewBox="0 0 10240 10240" xmlns:xlink="http://www.w3.org/1999/xlink">
	<title>spam icon</title>
	<desc>spam icon from the IconExperience.com O-Collection. Copyright by INCORS GmbH (www.incors.com).</desc>
	<path id="curve1" fill="#252525" d="M1280 8960l7680 0c176,0 320,144 320,320l0 0c0,176 -144,320 -320,320l-7680 0c-176,0 -320,-144 -320,-320l0 0c0,-176 144,-320 320,-320zm0 -3520l7680 0 0 3200 -7680 0 0 -3200zm0 -960l7680 0c176,0 320,144 320,320l0 0c0,176 -144,320 -320,320l-7680 0c-176,0 -320,-144 -320,-320l0 0c0,-176 144,-320 320,-320z"/>
	<path id="curve0" fill="#A1C057" d="M5618 4160l-67 -181c-61,-165 24,-350 189,-411l1801 -666c165,-61 350,24 411,189l395 1069 -2729 0zm-921 -2103l1734 824c32,15 61,35 85,59l-887 328c-330,122 -500,491 -378,822l26 70 -477 0 0 -640c0,-353 -287,-640 -640,-640l-208 0 318 -671c76,-159 267,-227 427,-152zm-2457 1143l1920 0c176,0 320,144 320,320l0 640 -2560 0 0 -640c0,-176 144,-320 320,-320z"/>
</svg>
