<?xml version="1.0" encoding="UTF-8"?>
<!DOCTYPE svg PUBLIC "-//W3C//DTD SVG 1.1//EN" "http://www.w3.org/Graphics/SVG/1.1/DTD/svg11.dtd">
<svg xmlns="http://www.w3.org/2000/svg" xml:space="preserve" width="1024px" height="1024px" shape-rendering="geometricPrecision" text-rendering="geometricPrecision" image-rendering="optimizeQuality" fill-rule="nonzero" clip-rule="evenodd" viewBox="0 0 10240 10240" xmlns:xlink="http://www.w3.org/1999/xlink">
	<title>spreadsheed_sum icon</title>
	<desc>spreadsheed_sum icon from the IconExperience.com O-Collection. Copyright by INCORS GmbH (www.incors.com).</desc>
	<path id="curve5" fill="#A1C057" d="M4160 3840l5120 0c176,0 320,144 320,320l0 5120c0,176 -144,320 -320,320l-5120 0c-176,0 -320,-144 -320,-320l0 -5120c0,-176 144,-320 320,-320zm320 640l0 4480 4480 0 0 -4480 -4480 0z"/>
	<path id="curve4" fill="#A1C057" d="M7680 5760l0 -320 -1576 0 865 1081c96,120 91,289 -4,403l-861 1076 1576 0 0 -320 640 0 0 640c0,177 -143,320 -320,320l-2560 -2c-70,0 -140,-22 -199,-69 -137,-110 -160,-310 -50,-448l1121 -1401 -1101 -1376c-56,-58 -91,-137 -91,-224 0,-177 143,-320 320,-320l2560 0c177,0 320,143 320,320l0 640 -640 0z"/>
	<path id="curve3" fill="#252525" d="M8960,2560 8960,3520 8320,3520 8320,3200 7040,3200 7040,3520 6400,3520 6400,3200 5120,3200 5120,3520 4480,3520 4480,3200 3200,3200 3200,4480 3520,4480 3520,5120 3200,5120 3200,6400 3520,6400 3520,7040 3200,7040 3200,8320 3520,8320 3520,8960 2560,8960 2560,2560z"/>
	<path id="curve2" fill="#252525" d="M2240 2560l0 640 -960 0 0 1280 960 0 0 640 -960 0 0 1280 960 0 0 640 -960 0 0 1280 960 0 0 640 -960 0c-352,0 -640,-287 -640,-640l0 -5760 1600 0z"/>
	<path id="curve1" fill="#252525" d="M8320 640c353,0 640,287 640,640l0 960 -640 0 0 -960 -1280 0 0 960 -640 0 0 -960 -1280 0 0 960 -640 0 0 -960 -1280 0 0 960 -640 0 0 -1600 5760 0z"/>
	<path id="curve0" fill="#252525" d="M1280 640l960 0 0 1600 -1600 0 0 -960c0,-353 287,-640 640,-640z"/>
</svg>
