<?xml version="1.0" encoding="UTF-8"?>
<!DOCTYPE svg PUBLIC "-//W3C//DTD SVG 1.1//EN" "http://www.w3.org/Graphics/SVG/1.1/DTD/svg11.dtd">
<svg xmlns="http://www.w3.org/2000/svg" xml:space="preserve" width="1024px" height="1024px" shape-rendering="geometricPrecision" text-rendering="geometricPrecision" image-rendering="optimizeQuality" fill-rule="nonzero" clip-rule="evenodd" viewBox="0 0 10240 10240" xmlns:xlink="http://www.w3.org/1999/xlink">
	<title>spreadsheed_sort_descending icon</title>
	<desc>spreadsheed_sort_descending icon from the IconExperience.com O-Collection. Copyright by INCORS GmbH (www.incors.com).</desc>
	<path id="curve4" fill="#252525" d="M9280 2560l0 2294 -640 -640 0 -1014 -1280 0 0 405c-47,28 -92,62 -133,102l-507 507 0 -1014 -1280 0 0 1280 1014 0 -640 640 -374 0 0 374 -39 39c-184,185 -281,418 -281,679l0 1159c0,195 116,368 296,443 8,3 16,6 24,9l0 497 1280 0 0 640 -3840 0 0 -6400 6400 0zm0 5009l0 1391 -640 0 0 -640 0 -1280 0 0 0 -110 640 639zm-5760 -529l0 1280 1280 0 0 -1280 -1280 0zm0 -1920l0 1280 1280 0 0 -1280 -1280 0zm0 -1920l0 1280 1280 0 0 -1280 -1280 0z"/>
	<path id="curve3" fill="#252525" d="M2560 2560l0 640 -960 0 0 1280 960 0 0 640 -960 0 0 1280 960 0 0 640 -960 0 0 1280 960 0 0 640 -960 0c-352,0 -640,-287 -640,-640l0 -5760 1600 0z"/>
	<path id="curve2" fill="#252525" d="M8640 640c353,0 640,287 640,640l0 960 -640 0 0 -960 -1280 0 0 960 -640 0 0 -960 -1280 0 0 960 -640 0 0 -960 -1280 0 0 960 -640 0 0 -1600 5760 0z"/>
	<path id="curve1" fill="#252525" d="M1600 640l960 0 0 1600 -1600 0 0 -960c0,-353 287,-640 640,-640z"/>
	<path id="curve0" fill="#A1C057" d="M9733 5759l-1827 -1826c-124,-124 -328,-124 -452,0l-1827 1826c-124,125 -187,277 -187,453l0 1159c0,66 38,122 99,148 61,25 127,12 174,-35l1327 -1327 0 3443c0,176 144,320 320,320l640 0c176,0 320,-144 320,-320l0 -3443 1327 1327c47,46 113,60 174,34 61,-25 99,-81 99,-147l0 -1159c0,-176 -63,-328 -187,-453z"/>
</svg>
