<?xml version="1.0" encoding="UTF-8"?>
<!DOCTYPE svg PUBLIC "-//W3C//DTD SVG 1.1//EN" "http://www.w3.org/Graphics/SVG/1.1/DTD/svg11.dtd">
<svg xmlns="http://www.w3.org/2000/svg" xml:space="preserve" width="1024px" height="1024px" shape-rendering="geometricPrecision" text-rendering="geometricPrecision" image-rendering="optimizeQuality" fill-rule="nonzero" clip-rule="evenodd" viewBox="0 0 10240 10240" xmlns:xlink="http://www.w3.org/1999/xlink">
	<title>spy icon</title>
	<desc>spy icon from the IconExperience.com O-Collection. Copyright by INCORS GmbH (www.incors.com).</desc>
	<path id="curve1" fill="#A1C057" d="M2560 4480l1638 546c185,62 320,189 392,370l530 1324 530 -1324c72,-181 207,-308 392,-370l1638 -546 -265 1434c560,660 905,1562 905,2556 0,810 -1920,1130 -3200,1130 -1280,0 -3200,-320 -3200,-1129 0,-995 345,-1896 905,-2557l-265 -1434z"/>
	<path id="curve0" fill="#252525" d="M5120 640c1414,0 2560,1141 2560,2549 0,365 -77,712 -216,1026l-1524 508c-274,91 -480,285 -587,554l-185 461c-16,0 -32,1 -48,1 -16,0 -32,-1 -48,-1l-185 -461c-107,-269 -313,-463 -587,-554l-1524 -508c-139,-314 -216,-661 -216,-1026 0,-1408 1146,-2549 2560,-2549zm1920 2560l0 -640c0,-176 -144,-320 -320,-320l-3200 0c-176,0 -320,144 -320,320l0 640c0,176 144,320 320,320l960 0c176,0 320,-144 320,-320l0 -320c0,-176 144,-320 320,-320l0 0c176,0 320,144 320,320l0 320c0,176 144,320 320,320l960 0c176,0 320,-144 320,-320z"/>
</svg>
