<?xml version="1.0" encoding="UTF-8"?>
<!DOCTYPE svg PUBLIC "-//W3C//DTD SVG 1.1//EN" "http://www.w3.org/Graphics/SVG/1.1/DTD/svg11.dtd">
<svg xmlns="http://www.w3.org/2000/svg" xml:space="preserve" width="1024px" height="1024px" shape-rendering="geometricPrecision" text-rendering="geometricPrecision" image-rendering="optimizeQuality" fill-rule="nonzero" clip-rule="evenodd" viewBox="0 0 10240 10240" xmlns:xlink="http://www.w3.org/1999/xlink">
	<title>stockbroker icon</title>
	<desc>stockbroker icon from the IconExperience.com O-Collection. Copyright by INCORS GmbH (www.incors.com).</desc>
	<path id="curve2" fill="#252525" d="M8320 8470c0,716 -1502,1049 -2734,1117l400 -401c77,-76 108,-177 89,-283 28,-3 55,-7 83,-10 80,-10 161,-22 242,-35l0 -2616c-31,-23 -63,-47 -95,-71 -76,-44 -151,-88 -225,-133l0 -29c0,-31 -4,-61 -12,-89 209,-73 406,-168 589,-284 1082,807 1663,1074 1663,2834zm-3666 1117c-1232,-68 -2734,-401 -2734,-1116 0,-1760 582,-2029 1663,-2835 183,116 381,212 589,284l0 0c-8,28 -12,58 -12,89l0 29c-74,45 -149,89 -225,133 -32,24 -64,48 -95,71l0 2616c81,13 163,25 242,35 28,3 56,7 83,10 -19,106 12,207 89,283l400 401zm-1454 -868l0 -1993c-460,387 -635,735 -640,1701 85,89 344,194 438,227 66,24 133,45 202,65zm3840 -1994l0 1994c69,-20 136,-41 203,-65 93,-33 353,-139 437,-228 -5,-967 -180,-1314 -640,-1701z"/>
	<path id="curve1" fill="#A1C057" d="M4480 8960l394 -2166 -207 -207c-124,-124 -187,-276 -187,-452l0 -126c206,46 420,71 640,71 220,0 434,-25 640,-71l0 126c0,176 -63,328 -187,452l-207 207 394 2166 -640 640 -640 -640z"/>
	<path id="curve0" fill="#252525" d="M5120 661c1414,0 2560,1142 2560,2550 0,1408 -1146,2549 -2560,2549 -1414,0 -2560,-1141 -2560,-2549 0,-1408 1146,-2550 2560,-2550zm1920 2539l0 -640c0,-176 -144,-320 -320,-320l-3200 0c-176,0 -320,144 -320,320l0 640c0,176 144,320 320,320l960 0c176,0 320,-144 320,-320l0 -320c0,-176 144,-320 320,-320l0 0c176,0 320,144 320,320l0 320c0,176 144,320 320,320l960 0c176,0 320,-144 320,-320z"/>
</svg>
