<?xml version="1.0" encoding="UTF-8"?>
<!DOCTYPE svg PUBLIC "-//W3C//DTD SVG 1.1//EN" "http://www.w3.org/Graphics/SVG/1.1/DTD/svg11.dtd">
<svg xmlns="http://www.w3.org/2000/svg" xml:space="preserve" width="1024px" height="1024px" shape-rendering="geometricPrecision" text-rendering="geometricPrecision" image-rendering="optimizeQuality" fill-rule="nonzero" clip-rule="evenodd" viewBox="0 0 10240 10240" xmlns:xlink="http://www.w3.org/1999/xlink">
	<title>stroller icon</title>
	<desc>stroller icon from the IconExperience.com O-Collection. Copyright by INCORS GmbH (www.incors.com).</desc>
	<path id="curve2" fill="#252525" d="M6720 6400c884,0 1600,716 1600,1600 0,884 -716,1600 -1600,1600 -884,0 -1600,-716 -1600,-1600 0,-884 716,-1600 1600,-1600zm0 640c-530,0 -960,430 -960,960 0,530 430,960 960,960 530,0 960,-430 960,-960 0,-530 -430,-960 -960,-960zm-3840 0c-530,0 -960,430 -960,960 0,530 430,960 960,960 530,0 960,-430 960,-960 0,-530 -430,-960 -960,-960zm0 -640c884,0 1600,716 1600,1600 0,884 -716,1600 -1600,1600 -884,0 -1600,-716 -1600,-1600 0,-884 716,-1600 1600,-1600z"/>
	<path id="curve1" fill="#252525" d="M4223 6628l2102 -1527c371,-266 715,-513 715,-941 0,-406 113,-819 340,-1121 218,-290 531,-479 940,-479l960 0c177,0 320,143 320,320 0,177 -143,320 -320,320l-960 0c-186,0 -329,88 -430,222 -140,186 -210,459 -210,738 0,753 -473,1093 -982,1459l-2099 1526c-96,-193 -223,-368 -376,-517z"/>
	<path id="curve0" fill="#A1C057" d="M3520 1280l640 0c176,0 320,144 320,320l0 2240 2261 0c-14,106 -21,213 -21,320 0,265 -280,466 -581,682l-2171 1576c-309,-213 -618,-338 -1088,-338 -470,0 -1020,219 -1368,573 -506,-171 -872,-651 -872,-1213l0 -1280c0,-1586 1294,-2880 2880,-2880zm4520 2560l600 0c176,0 320,144 320,320l0 1280c0,562 -366,1042 -872,1213 -348,-354 -832,-573 -1368,-573 -40,0 -79,1 -118,4l282 -207c579,-415 1116,-801 1116,-1717 0,-113 13,-223 40,-320z"/>
</svg>
