<?xml version="1.0" encoding="UTF-8"?>
<!DOCTYPE svg PUBLIC "-//W3C//DTD SVG 1.1//EN" "http://www.w3.org/Graphics/SVG/1.1/DTD/svg11.dtd">
<svg xmlns="http://www.w3.org/2000/svg" xml:space="preserve" width="1024px" height="1024px" shape-rendering="geometricPrecision" text-rendering="geometricPrecision" image-rendering="optimizeQuality" fill-rule="nonzero" clip-rule="evenodd" viewBox="0 0 10240 10240" xmlns:xlink="http://www.w3.org/1999/xlink">
	<title>symbol_dollar_euro icon</title>
	<desc>symbol_dollar_euro icon from the IconExperience.com O-Collection. Copyright by INCORS GmbH (www.incors.com).</desc>
	<path id="curve1" fill="#A1C057" d="M4519 6710l518 0c-10,-106 -15,-212 -15,-320l-435 0 138 -640 358 0c281,-1461 1508,-2560 2979,-2560 491,0 956,123 1367,341l-288 1342c-298,-253 -673,-403 -1079,-403 -767,0 -1418,534 -1660,1280l2551 0 -137 640 -2514 0c0,109 8,216 24,320l2421 0 -137 640 -2073 0c304,573 873,960 1525,960 441,0 845,-178 1154,-471l275 1376c-426,239 -913,375 -1429,375 -1361,0 -2514,-942 -2901,-2240l-779 0 137 -640z"/>
	<path id="curve0" fill="#252525" d="M4480 3200l0 -160c0,-264 -216,-480 -480,-480l-480 0 0 960 480 0c576,0 1089,279 1410,708 -263,354 -463,762 -582,1202l-103 0c-153,0 -281,103 -313,253l-137 640c-13,59 -10,116 8,169 -37,41 -65,92 -77,151l-84 393c-41,3 -81,4 -122,4l-480 0 0 640 -640 0 0 -640 -480 0c-970,0 -1760,-790 -1760,-1760l0 -160 1280 0 0 160c0,264 216,480 480,480l480 0 0 -960 -480 0c-970,0 -1760,-790 -1760,-1760 0,-970 790,-1760 1760,-1760l480 0 0 -640 640 0 0 640 480 0c970,0 1760,790 1760,1760l0 160 -1280 0zm-1600 -640l-480 0c-264,0 -480,216 -480,480 0,264 216,480 480,480l480 0 0 -960zm640 3200l480 0c264,0 480,-216 480,-480 0,-264 -216,-480 -480,-480l-480 0 0 960z"/>
</svg>
