<?xml version="1.0" encoding="UTF-8"?>
<!DOCTYPE svg PUBLIC "-//W3C//DTD SVG 1.1//EN" "http://www.w3.org/Graphics/SVG/1.1/DTD/svg11.dtd">
<svg xmlns="http://www.w3.org/2000/svg" xml:space="preserve" width="1024px" height="1024px" shape-rendering="geometricPrecision" text-rendering="geometricPrecision" image-rendering="optimizeQuality" fill-rule="nonzero" clip-rule="evenodd" viewBox="0 0 10240 10240" xmlns:xlink="http://www.w3.org/1999/xlink">
	<title>paragraph icon</title>
	<desc>paragraph icon from the IconExperience.com O-Collection. Copyright by INCORS GmbH (www.incors.com).</desc>
	<path id="curve0" fill="#252525" d="M6400 2880c0,-175 -145,-320 -320,-320l-1920 0c-175,0 -320,145 -320,320 0,175 145,320 320,320l1600 0c1058,0 1920,862 1920,1920 0,443 -151,852 -405,1178 261,293 405,669 405,1062 0,882 -718,1600 -1600,1600l-1920 0c-882,0 -1600,-718 -1600,-1600l1280 0c0,175 145,320 320,320l1920 0c175,0 320,-145 320,-320 0,-175 -145,-320 -320,-320l-1600 0c-1058,0 -1920,-862 -1920,-1920 0,-443 151,-852 405,-1178 -261,-293 -405,-669 -405,-1062 0,-882 718,-1600 1600,-1600l1920 0c882,0 1600,718 1600,1600l-1280 0zm-640 2880c352,0 640,-288 640,-640l0 0c0,-352 -288,-640 -640,-640l-1280 0c-352,0 -640,288 -640,640 0,352 288,640 640,640l1280 0z"/>
</svg>
