<?xml version="1.0" encoding="UTF-8"?>
<!DOCTYPE svg PUBLIC "-//W3C//DTD SVG 1.1//EN" "http://www.w3.org/Graphics/SVG/1.1/DTD/svg11.dtd">
<svg xmlns="http://www.w3.org/2000/svg" xml:space="preserve" width="1024px" height="1024px" shape-rendering="geometricPrecision" text-rendering="geometricPrecision" image-rendering="optimizeQuality" fill-rule="nonzero" clip-rule="evenodd" viewBox="0 0 10240 10240" xmlns:xlink="http://www.w3.org/1999/xlink">
	<title>teacher icon</title>
	<desc>teacher icon from the IconExperience.com O-Collection. Copyright by INCORS GmbH (www.incors.com).</desc>
	<path id="curve3" fill="#A1C057" d="M9600 8829c0,543 -1152,758 -1920,758 -768,0 -1920,-215 -1920,-757 0,-1099 304,-1331 870,-1795 302,197 663,312 1050,312 387,0 748,-115 1050,-312 567,465 870,694 870,1794z"/>
	<path id="curve2" fill="#A1C057" d="M7680 3840c884,0 1600,713 1600,1593 0,880 -716,1594 -1600,1594 -884,0 -1600,-714 -1600,-1594 0,-880 716,-1593 1600,-1593z"/>
	<path id="curve1" fill="#252525" d="M1600 1600l6400 0 0 1947c-104,-18 -211,-27 -320,-27 -1058,0 -1920,854 -1920,1913 0,227 40,445 113,647l-4273 0 0 -4480zm4527 1647c-122,122 -339,281 -520,273 -94,-4 -167,-64 -168,-162 -2,-156 69,-399 248,-578 125,-125 305,-217 555,-221 88,-1 159,-74 157,-162 -1,-88 -74,-158 -162,-157 -346,6 -599,136 -777,314 -245,246 -342,586 -340,807 3,270 207,466 473,478 279,13 570,-176 760,-367 62,-62 62,-163 -1,-226 -62,-62 -163,-61 -225,1zm-3570 463c12,-65 31,-139 56,-219l478 -67c37,123 79,237 127,329 41,78 137,109 215,68 78,-41 109,-137 68,-215 -135,-259 -222,-760 -279,-1089 -10,-58 -18,-159 -49,-206 -49,-73 -148,-93 -221,-45 -142,94 -288,310 -411,557 -61,121 -117,252 -165,379 -86,13 -146,93 -134,179 5,36 21,67 44,91 -18,64 -33,124 -43,178 -17,86 40,170 127,186 86,17 170,-40 187,-126zm454 -597c-27,-122 -51,-243 -71,-355 -38,62 -77,133 -114,207 -31,61 -59,123 -86,186l271 -38zm1149 405c88,-3 168,-10 227,-30 65,-22 96,-71 93,-139 -1,-39 -29,-69 -73,-92 -62,-31 -148,-49 -247,-56l0 317zm328 273c213,-72 318,-227 311,-452 -4,-126 -56,-224 -142,-297 98,-85 145,-197 142,-326 -3,-161 -110,-284 -272,-365 -143,-72 -336,-111 -527,-111 -89,0 -160,71 -160,160l0 1280c0,88 71,160 160,160 172,0 343,0 488,-49zm-328 -910c113,-6 200,-26 258,-60 39,-22 63,-52 62,-98 0,-28 -38,-58 -95,-87 -62,-31 -140,-53 -225,-65l0 310z"/>
	<path id="curve0" fill="#252525" d="M960 640l7680 0c176,0 320,144 320,320l0 3047c-185,-164 -402,-294 -640,-378l0 -2349 -7040 0 0 5120 4743 0c95,161 212,307 348,433 -82,68 -165,136 -245,207l-5166 0c-176,0 -320,-144 -320,-320l0 -5760c0,-176 144,-320 320,-320z"/>
</svg>
