<?xml version="1.0" encoding="UTF-8"?>
<!DOCTYPE svg PUBLIC "-//W3C//DTD SVG 1.1//EN" "http://www.w3.org/Graphics/SVG/1.1/DTD/svg11.dtd">
<svg xmlns="http://www.w3.org/2000/svg" xml:space="preserve" width="1024px" height="1024px" shape-rendering="geometricPrecision" text-rendering="geometricPrecision" image-rendering="optimizeQuality" fill-rule="nonzero" clip-rule="evenodd" viewBox="0 0 10240 10240" xmlns:xlink="http://www.w3.org/1999/xlink">
	<title>text_speaker icon</title>
	<desc>text_speaker icon from the IconExperience.com O-Collection. Copyright by INCORS GmbH (www.incors.com).</desc>
	<path id="curve4" fill="#A1C057" d="M8000 4561c1104,284 1920,1286 1920,2479 0,1193 -816,2195 -1920,2479l0 -668c746,-264 1280,-975 1280,-1811 0,-836 -534,-1547 -1280,-1811l0 -668zm0 1370c383,222 640,635 640,1109 0,474 -257,887 -640,1109l0 -2218z"/>
	<path id="curve3" fill="#A1C057" d="M7360 4160l0 0c176,0 320,144 320,320l0 5120c0,176 -144,320 -320,320l0 0c-176,0 -320,-144 -320,-320l-1280 -1280 0 -2560 1280 -1280c0,-176 144,-320 320,-320z"/>
	<path id="curve2" fill="#A1C057" d="M4800 5760l640 0 0 2560 -640 0c-220,0 -320,-144 -320,-320l0 -1920c0,-176 100,-320 320,-320z"/>
	<path id="curve1" fill="#252525" d="M1280 640l7680 0 0 4004c-197,-131 -411,-239 -640,-320l0 -3044 -6400 0 0 7680 4027 0 640 640 -5307 0 0 -8960z"/>
	<path id="curve0" fill="#252525" d="M2560 2262l5120 0 0 640 -5120 0 0 -640zm0 1280l2560 0 0 640 -2560 0 0 -640zm0 1280l3685 0 -640 640 -49 0c-36,-14 -75,-22 -116,-22l-640 0c-64,0 -124,8 -180,22l-2060 0 0 -640zm0 1280l1280 0 0 640 -1280 0 0 -640zm0 1280l1600 0 0 618c0,7 0,15 0,22l-1600 0 0 -640zm3200 -3840l1920 0 0 384c-94,-55 -204,-86 -320,-86 -245,0 -459,139 -566,342l-1034 0 0 -640z"/>
</svg>
