<?xml version="1.0" encoding="UTF-8"?>
<!DOCTYPE svg PUBLIC "-//W3C//DTD SVG 1.1//EN" "http://www.w3.org/Graphics/SVG/1.1/DTD/svg11.dtd">
<svg xmlns="http://www.w3.org/2000/svg" xml:space="preserve" width="1024px" height="1024px" shape-rendering="geometricPrecision" text-rendering="geometricPrecision" image-rendering="optimizeQuality" fill-rule="nonzero" clip-rule="evenodd" viewBox="0 0 10240 10240" xmlns:xlink="http://www.w3.org/1999/xlink">
	<title>tractor icon</title>
	<desc>tractor icon from the IconExperience.com O-Collection. Copyright by INCORS GmbH (www.incors.com).</desc>
	<path id="curve3" fill="#252525" d="M2400 5440c1149,0 2080,931 2080,2080 0,1149 -931,2080 -2080,2080 -1149,0 -2080,-931 -2080,-2080 0,-1149 931,-2080 2080,-2080zm5920 3200c353,0 640,-287 640,-640 0,-353 -287,-640 -640,-640 -353,0 -640,287 -640,640 0,353 287,640 640,640zm-5920 -1920c-442,0 -800,358 -800,800 0,442 358,800 800,800 442,0 800,-358 800,-800 0,-442 -358,-800 -800,-800zm5920 2880c-884,0 -1600,-716 -1600,-1600 0,-884 716,-1600 1600,-1600 884,0 1600,716 1600,1600 0,884 -716,1600 -1600,1600z"/>
	<path id="curve2" fill="#252525" d="M5569 6400l1690 0c-518,344 -859,932 -859,1600 0,109 9,216 27,320l-1764 0c72,-202 117,-417 132,-640l283 0c192,0 367,-81 490,-229 124,-148 174,-333 140,-523 -32,-182 -79,-358 -139,-528z"/>
	<path id="curve1" fill="#252525" d="M2400 4480c1496,0 2740,1081 2993,2504 17,96 -7,186 -70,261 -63,76 -147,115 -245,115l-283 0c-83,-1251 -1123,-2240 -2395,-2240 -663,0 -1263,269 -1697,703l-213 -213c-67,-67 -99,-151 -93,-245 5,-95 47,-174 121,-233 518,-408 1171,-652 1882,-652z"/>
	<path id="curve0" fill="#A1C057" d="M1388 4315l532 -2395 -320 0 0 -320c0,-176 144,-320 320,-320l3520 0c176,0 320,144 320,320l0 320 -320 0 640 2240 2624 262c328,33 576,307 576,637l0 1021 -3843 0c-544,-1148 -1715,-1920 -3037,-1920 -347,0 -688,53 -1012,155zm3910 -563l-457 -1600c-40,-139 -163,-232 -308,-232l-1333 0c-176,0 -320,144 -320,320l0 1034c0,156 108,286 261,315 462,86 896,252 1287,482 103,61 205,89 324,89l238 0c104,0 193,-44 256,-127 62,-83 80,-181 52,-281z"/>
</svg>
