<?xml version="1.0" encoding="UTF-8"?>
<!DOCTYPE svg PUBLIC "-//W3C//DTD SVG 1.1//EN" "http://www.w3.org/Graphics/SVG/1.1/DTD/svg11.dtd">
<svg xmlns="http://www.w3.org/2000/svg" xml:space="preserve" width="1024px" height="1024px" shape-rendering="geometricPrecision" text-rendering="geometricPrecision" image-rendering="optimizeQuality" fill-rule="nonzero" clip-rule="evenodd" viewBox="0 0 10240 10240" xmlns:xlink="http://www.w3.org/1999/xlink">
	<title>truck_container icon</title>
	<desc>truck_container icon from the IconExperience.com O-Collection. Copyright by INCORS GmbH (www.incors.com).</desc>
	<path id="curve2" fill="#252525" d="M8320 7040c-530,0 -960,430 -960,960 0,530 430,960 960,960 530,0 960,-430 960,-960 0,-530 -430,-960 -960,-960zm-6400 0c530,0 960,430 960,960 0,-530 430,-960 960,-960 530,0 960,430 960,960 0,530 -430,960 -960,960 -530,0 -960,-430 -960,-960 0,530 -430,960 -960,960 -530,0 -960,-430 -960,-960 0,-530 430,-960 960,-960zm0 640c-177,0 -320,143 -320,320 0,177 143,320 320,320 177,0 320,-143 320,-320 0,-177 -143,-320 -320,-320zm1920 0c-177,0 -320,143 -320,320 0,177 143,320 320,320 177,0 320,-143 320,-320 0,-177 -143,-320 -320,-320zm4480 0c177,0 320,143 320,320 0,177 -143,320 -320,320 -177,0 -320,-143 -320,-320 0,-177 143,-320 320,-320z"/>
	<path id="curve1" fill="#252525" d="M6720 7040l0 -2560c0,-176 144,-320 320,-320l1524 0c249,0 452,137 573,354l715 1280c51,90 68,182 68,286l0 1920 -320 0c0,-707 -573,-1280 -1280,-1280 -707,0 -1280,573 -1280,1280 0,110 14,218 40,320l-2000 0c26,-102 40,-210 40,-320 0,-382 -168,-725 -434,-960l2034 0zm640 -2240l0 1280 1920 0 -716 -1280c0,0 0,0 0,0l-1204 0z"/>
	<path id="curve0" fill="#A1C057" d="M320 3520l6080 0 0 3200 -6080 0 0 -3200zm320 320l0 2560 640 0 0 -2560 -640 0zm960 0l0 2560 640 0 0 -2560 -640 0zm960 0l0 2560 640 0 0 -2560 -640 0zm960 0l0 2560 640 0 0 -2560 -640 0zm960 0l0 2560 633 0 0 -2560 -633 0zm953 0l0 2560 647 0 0 -2560 -647 0z"/>
</svg>
