<?xml version="1.0" encoding="UTF-8"?>
<!DOCTYPE svg PUBLIC "-//W3C//DTD SVG 1.1//EN" "http://www.w3.org/Graphics/SVG/1.1/DTD/svg11.dtd">
<svg xmlns="http://www.w3.org/2000/svg" xml:space="preserve" width="1024px" height="1024px" shape-rendering="geometricPrecision" text-rendering="geometricPrecision" image-rendering="optimizeQuality" fill-rule="nonzero" clip-rule="evenodd" viewBox="0 0 10240 10240" xmlns:xlink="http://www.w3.org/1999/xlink">
	<title>user_message icon</title>
	<desc>user_message icon from the IconExperience.com O-Collection. Copyright by INCORS GmbH (www.incors.com).</desc>
	<path id="curve2" fill="#252525" d="M9600 8596c0,720 -1728,1004 -2880,1004 -1152,0 -2880,-284 -2880,-1003 0,-1551 517,-1910 1476,-2616 403,265 885,419 1404,419 519,0 1001,-154 1404,-419 961,706 1476,1064 1476,2615z"/>
	<path id="curve1" fill="#252525" d="M6720 1600c1237,0 2240,1003 2240,2240 0,1237 -1003,2240 -2240,2240 -1237,0 -2240,-1003 -2240,-2240 0,-1237 1003,-2240 2240,-2240z"/>
	<path id="curve0" fill="#A1C057" d="M3360 640c-1502,0 -2720,957 -2720,2137 0,553 267,1057 706,1436 65,57 105,123 124,207 194,846 902,1466 1890,1466 -129,-129 -215,-289 -273,-462 -40,-121 -22,-242 51,-346 73,-104 181,-162 309,-165 312,-7 611,-57 888,-140 -77,-198 -130,-408 -157,-626 -251,79 -510,121 -747,126 -330,9 -627,167 -816,437 -53,75 -95,155 -125,238 -192,-163 -332,-390 -396,-670 -49,-217 -161,-403 -329,-549 -282,-243 -485,-572 -485,-952 0,-107 16,-212 47,-314 248,-810 1261,-1183 2033,-1183 564,0 1257,199 1686,623 163,-141 343,-261 537,-357 -492,-548 -1304,-906 -2223,-906z"/>
</svg>
