<?xml version="1.0" encoding="UTF-8"?>
<!DOCTYPE svg PUBLIC "-//W3C//DTD SVG 1.1//EN" "http://www.w3.org/Graphics/SVG/1.1/DTD/svg11.dtd">
<svg xmlns="http://www.w3.org/2000/svg" xml:space="preserve" width="1024px" height="1024px" shape-rendering="geometricPrecision" text-rendering="geometricPrecision" image-rendering="optimizeQuality" fill-rule="nonzero" clip-rule="evenodd" viewBox="0 0 10240 10240" xmlns:xlink="http://www.w3.org/1999/xlink">
	<title>users_relation icon</title>
	<desc>users_relation icon from the IconExperience.com O-Collection. Copyright by INCORS GmbH (www.incors.com).</desc>
	<path id="curve8" fill="#A1C057" d="M6446 1539c-56,227 -61,466 -15,696 -814,-417 -1808,-417 -2622,0 46,-230 41,-469 -15,-696 843,-343 1809,-343 2652,0z"/>
	<path id="curve7" fill="#A1C057" d="M7929 5439c219,4 442,-9 659,-36 -190,1100 -890,2025 -1848,2522 -127,-165 -296,-296 -464,-419 35,-36 68,-74 99,-113 776,-376 1358,-1092 1554,-1954z"/>
	<path id="curve6" fill="#A1C057" d="M3865 7393c31,39 64,77 99,113 -168,124 -336,254 -464,420 -958,-498 -1658,-1423 -1848,-2523 217,27 440,40 659,36 196,862 778,1578 1554,1954z"/>
	<path id="curve5" fill="#252525" d="M9600 4555c0,405 -960,565 -1600,565 -640,0 -1600,-160 -1600,-565 0,-802 242,-984 694,-1316 258,177 570,281 906,281 336,0 648,-104 906,-281 452,332 694,513 694,1316z"/>
	<path id="curve4" fill="#252525" d="M8000 640c707,0 1280,573 1280,1280 0,707 -573,1280 -1280,1280 -707,0 -1280,-573 -1280,-1280 0,-707 573,-1280 1280,-1280z"/>
	<path id="curve3" fill="#252525" d="M6720 9035c0,405 -960,565 -1600,565 -640,0 -1600,-160 -1600,-565 0,-802 242,-984 694,-1316 258,177 570,281 906,281 336,0 648,-104 906,-281 452,332 694,513 694,1316z"/>
	<path id="curve2" fill="#252525" d="M5120 5120c707,0 1280,573 1280,1280 0,707 -573,1280 -1280,1280 -707,0 -1280,-573 -1280,-1280 0,-707 573,-1280 1280,-1280z"/>
	<path id="curve1" fill="#252525" d="M3840 4555c0,405 -960,565 -1600,565 -640,0 -1600,-160 -1600,-565 0,-802 242,-984 694,-1316 258,177 570,281 906,281 336,0 648,-104 906,-281 452,332 694,513 694,1316z"/>
	<path id="curve0" fill="#252525" d="M2240 640c707,0 1280,573 1280,1280 0,707 -573,1280 -1280,1280 -707,0 -1280,-573 -1280,-1280 0,-707 573,-1280 1280,-1280z"/>
</svg>
