<?xml version="1.0" encoding="UTF-8"?>
<!DOCTYPE svg PUBLIC "-//W3C//DTD SVG 1.1//EN" "http://www.w3.org/Graphics/SVG/1.1/DTD/svg11.dtd">
<svg xmlns="http://www.w3.org/2000/svg" xml:space="preserve" width="1024px" height="1024px" shape-rendering="geometricPrecision" text-rendering="geometricPrecision" image-rendering="optimizeQuality" fill-rule="nonzero" clip-rule="evenodd" viewBox="0 0 10240 10240" xmlns:xlink="http://www.w3.org/1999/xlink">
	<title>user_headphones icon</title>
	<desc>user_headphones icon from the IconExperience.com O-Collection. Copyright by INCORS GmbH (www.incors.com).</desc>
	<path id="curve2" fill="#252525" d="M8320 8470c0,810 -1920,1130 -3200,1130 -1280,0 -3200,-320 -3200,-1129 0,-1760 582,-2029 1663,-2835 445,281 972,444 1537,444 565,0 1092,-163 1537,-444 1082,807 1663,1074 1663,2834z"/>
	<path id="curve1" fill="#252525" d="M7238 4638c-461,677 -1238,1122 -2118,1122 -880,0 -1657,-445 -2118,-1122 122,-117 198,-281 198,-464l0 -1928c0,-55 -7,-109 -20,-161 398,-693 1135,-1125 1940,-1125 805,0 1542,432 1940,1125 -13,52 -20,106 -20,161l0 1928c0,183 76,347 198,464z"/>
	<path id="curve0" fill="#A1C057" d="M5120 320c1131,0 2109,652 2580,1600l300 0c353,0 640,287 640,640l0 1280c0,352 -288,640 -640,640l-320 0c-176,0 -320,-144 -320,-320l0 -1920c0,-66 20,-127 54,-177 -419,-843 -1289,-1423 -2294,-1423 -1005,0 -1875,580 -2294,1423 34,50 54,111 54,177l0 1920c0,176 -144,320 -320,320l-320 0c-352,0 -640,-287 -640,-640l0 -1280c0,-353 287,-640 640,-640l300 0c471,-948 1449,-1600 2580,-1600z"/>
</svg>
