<?xml version="1.0" encoding="UTF-8"?>
<!DOCTYPE svg PUBLIC "-//W3C//DTD SVG 1.1//EN" "http://www.w3.org/Graphics/SVG/1.1/DTD/svg11.dtd">
<svg xmlns="http://www.w3.org/2000/svg" xml:space="preserve" width="1024px" height="1024px" shape-rendering="geometricPrecision" text-rendering="geometricPrecision" image-rendering="optimizeQuality" fill-rule="nonzero" clip-rule="evenodd" viewBox="0 0 10240 10240" xmlns:xlink="http://www.w3.org/1999/xlink">
	<title>vacuum_cleaner icon</title>
	<desc>vacuum_cleaner icon from the IconExperience.com O-Collection. Copyright by INCORS GmbH (www.incors.com).</desc>
	<path id="curve2" fill="#A1C057" d="M7040 3520l1280 0 0 750c744,265 1280,977 1280,1810l0 2880c0,353 -287,640 -640,640l-2560 0c-353,0 -640,-287 -640,-640l0 -2880c0,-833 536,-1545 1280,-1810l0 -750zm640 1600c-353,0 -640,287 -640,640 0,353 287,640 640,640 353,0 640,-287 640,-640 0,-353 -287,-640 -640,-640z"/>
	<path id="curve1" fill="#252525" d="M2560 3520l0 3840c0,264 108,504 282,678 174,174 414,282 678,282l0 0c264,0 504,-108 678,-282 174,-174 282,-414 282,-678l0 -4320c0,-485 198,-925 516,-1244 319,-318 759,-516 1244,-516l21 0 3 0 0 1c481,1 916,200 1229,518 314,317 507,754 507,1232l0 3 -1 0 0 166 -638 0 1 -166 -2 0 0 -3c0,-305 -123,-583 -322,-785 -198,-201 -472,-326 -774,-327l0 1 -3 0 -21 0c-308,0 -588,126 -791,329 -203,203 -329,483 -329,791l0 4320c0,441 -180,841 -469,1131 -290,289 -690,469 -1131,469l0 0c-441,0 -841,-180 -1131,-469 -289,-290 -469,-690 -469,-1131l0 -3840 640 0z"/>
	<path id="curve0" fill="#252525" d="M640 1280l3200 0 0 640c0,352 -288,640 -640,640l0 0 0 320c0,176 -144,320 -320,320l-1280 0c-176,0 -320,-144 -320,-320l0 -320c-352,0 -640,-287 -640,-640l0 -640z"/>
</svg>
