<?xml version="1.0" encoding="UTF-8"?>
<!DOCTYPE svg PUBLIC "-//W3C//DTD SVG 1.1//EN" "http://www.w3.org/Graphics/SVG/1.1/DTD/svg11.dtd">
<svg xmlns="http://www.w3.org/2000/svg" xml:space="preserve" width="1024px" height="1024px" shape-rendering="geometricPrecision" text-rendering="geometricPrecision" image-rendering="optimizeQuality" fill-rule="nonzero" clip-rule="evenodd" viewBox="0 0 10240 10240" xmlns:xlink="http://www.w3.org/1999/xlink">
	<title>vector_curve_quadratic icon</title>
	<desc>vector_curve_quadratic icon from the IconExperience.com O-Collection. Copyright by INCORS GmbH (www.incors.com).</desc>
	<path id="curve2" fill="#252525" d="M2254 6720c94,-1098 663,-2169 1480,-2986 817,-817 1888,-1386 2986,-1480l0 643c-924,94 -1831,587 -2534,1289 -702,703 -1195,1610 -1289,2534l-643 0z"/>
	<path id="curve1" fill="#A1C057" d="M1920 7040l1280 0 0 1280 -1280 0 0 -1280zm320 320l0 640 640 0 0 -640 -640 0z"/>
	<path id="curve0" fill="#A1C057" d="M7040 1920l1280 0 0 1280 -1280 0 0 -1280zm320 320l0 640 640 0 0 -640 -640 0z"/>
</svg>
