<?xml version="1.0" encoding="UTF-8"?>
<!DOCTYPE svg PUBLIC "-//W3C//DTD SVG 1.1//EN" "http://www.w3.org/Graphics/SVG/1.1/DTD/svg11.dtd">
<svg xmlns="http://www.w3.org/2000/svg" xml:space="preserve" width="1024px" height="1024px" shape-rendering="geometricPrecision" text-rendering="geometricPrecision" image-rendering="optimizeQuality" fill-rule="nonzero" clip-rule="evenodd" viewBox="0 0 10240 10240" xmlns:xlink="http://www.w3.org/1999/xlink">
	<title>vector_ellipse icon</title>
	<desc>vector_ellipse icon from the IconExperience.com O-Collection. Copyright by INCORS GmbH (www.incors.com).</desc>
	<path id="curve7" fill="#252525" d="M6080 2316c1136,184 2425,768 2967,1844l-753 0c-507,-670 -1411,-1048 -2214,-1195l0 -649z"/>
	<path id="curve6" fill="#252525" d="M9047 6080c-542,1076 -1831,1660 -2967,1844l0 -649c803,-147 1707,-525 2214,-1195l753 0z"/>
	<path id="curve5" fill="#252525" d="M4160 7924c-1136,-184 -2425,-768 -2967,-1844l753 0c507,670 1411,1048 2214,1195l0 649z"/>
	<path id="curve4" fill="#252525" d="M4160 2965c-803,147 -1707,525 -2214,1195l-753 0c542,-1076 1831,-1660 2967,-1844l0 649z"/>
	<path id="curve3" fill="#A1C057" d="M8320 4480l1280 0 0 1280 -1280 0 0 -1280zm320 320l0 640 640 0 0 -640 -640 0z"/>
	<path id="curve2" fill="#A1C057" d="M4480 7040l1280 0 0 1280 -1280 0 0 -1280zm320 320l0 640 640 0 0 -640 -640 0z"/>
	<path id="curve1" fill="#A1C057" d="M642 4472l1280 0 0 1280 -1280 0 0 -1280zm320 320l0 640 640 0 0 -640 -640 0z"/>
	<path id="curve0" fill="#A1C057" d="M4480 1920l1280 0 0 1280 -1280 0 0 -1280zm320 320l0 640 640 0 0 -640 -640 0z"/>
</svg>
