<?xml version="1.0" encoding="UTF-8"?>
<!DOCTYPE svg PUBLIC "-//W3C//DTD SVG 1.1//EN" "http://www.w3.org/Graphics/SVG/1.1/DTD/svg11.dtd">
<svg xmlns="http://www.w3.org/2000/svg" xml:space="preserve" width="1024px" height="1024px" shape-rendering="geometricPrecision" text-rendering="geometricPrecision" image-rendering="optimizeQuality" fill-rule="nonzero" clip-rule="evenodd" viewBox="0 0 10240 10240" xmlns:xlink="http://www.w3.org/1999/xlink">
	<title>violin icon</title>
	<desc>violin icon from the IconExperience.com O-Collection. Copyright by INCORS GmbH (www.incors.com).</desc>
	<path id="curve0" fill="#252525" d="M6295 4531c242,251 411,481 425,914 18,565 -546,1102 -1030,1338l-91 44 -82 -48c-273,-161 -597,-111 -839,132 -258,257 -283,697 -53,944l64 68 -24 96c-78,308 -241,591 -471,821 -337,337 -820,453 -1263,439 -314,-10 -601,-98 -860,-256 -179,-110 -321,-239 -468,-386 -147,-147 -276,-289 -386,-468 -158,-259 -246,-546 -256,-860 -14,-443 102,-926 439,-1263 230,-230 513,-393 821,-471l96 -24 68 64c247,230 687,205 945,-53 242,-242 292,-566 131,-839l-48 -82 44 -91c236,-484 773,-1048 1338,-1030 433,14 663,183 914,425l1999 -1818 -28 -28 0 -82c0,-66 17,-123 54,-178l112 -167 -119 -119c-63,-62 -63,-164 0,-226 62,-63 164,-63 226,0l74 73 75 -112 -55 -55c-63,-62 -63,-164 0,-226 62,-63 164,-63 226,0l21 20c54,-44 122,-67 197,-67l336 0c89,0 164,31 227,94l132 132c63,63 94,138 94,227l0 336c0,75 -23,143 -67,197l20 21c63,62 63,164 0,226 -62,63 -164,63 -226,0l-55 -55 -112 75 73 74c63,62 63,164 0,226 -62,63 -164,63 -226,0l-119 -119 -167 112c-55,37 -112,54 -178,54l-82 0 -28 -28 -1818 1999zm-3568 2509l-197 197c-97,230 -238,438 -414,615l-501 501c-20,19 -20,52 0,72l200 200c20,20 53,20 72,0l501 -501c177,-176 385,-317 615,-414l197 -197c-32,-113 -92,-214 -175,-298 -84,-83 -185,-143 -298,-175zm680 -847l640 640c62,63 164,63 226,0 63,-62 63,-164 0,-226l-640 -640c-62,-63 -164,-63 -226,0 -63,62 -63,164 0,226z"/>
</svg>
