<?xml version="1.0" encoding="UTF-8"?>
<!DOCTYPE svg PUBLIC "-//W3C//DTD SVG 1.1//EN" "http://www.w3.org/Graphics/SVG/1.1/DTD/svg11.dtd">
<svg xmlns="http://www.w3.org/2000/svg" xml:space="preserve" width="1024px" height="1024px" shape-rendering="geometricPrecision" text-rendering="geometricPrecision" image-rendering="optimizeQuality" fill-rule="nonzero" clip-rule="evenodd" viewBox="0 0 10240 10240" xmlns:xlink="http://www.w3.org/1999/xlink">
	<title>water icon</title>
	<desc>water icon from the IconExperience.com O-Collection. Copyright by INCORS GmbH (www.incors.com).</desc>
	<path id="curve0" fill="#252525" d="M1760 4460c218,394 639,660 1120,660 481,0 897,-264 1117,-654 218,394 637,661 1120,661 483,0 906,-269 1123,-666 219,393 638,659 1120,659 482,0 902,-266 1120,-660 218,394 638,660 1120,660l0 640c-410,0 -799,-130 -1120,-360 -321,230 -710,360 -1120,360 -408,0 -797,-129 -1117,-358 -321,233 -714,365 -1126,365 -411,0 -802,-131 -1123,-363 -320,228 -707,356 -1114,356 -410,0 -799,-130 -1120,-360 -321,230 -710,360 -1120,360l0 -640c482,0 902,-266 1120,-660z"/>
</svg>
