<?xml version="1.0" encoding="UTF-8"?>
<!DOCTYPE svg PUBLIC "-//W3C//DTD SVG 1.1//EN" "http://www.w3.org/Graphics/SVG/1.1/DTD/svg11.dtd">
<svg xmlns="http://www.w3.org/2000/svg" xml:space="preserve" width="1024px" height="1024px" shape-rendering="geometricPrecision" text-rendering="geometricPrecision" image-rendering="optimizeQuality" fill-rule="nonzero" clip-rule="evenodd" viewBox="0 0 10240 10240" xmlns:xlink="http://www.w3.org/1999/xlink">
	<title>webcam icon</title>
	<desc>webcam icon from the IconExperience.com O-Collection. Copyright by INCORS GmbH (www.incors.com).</desc>
	<path id="curve3" fill="#252525" d="M7132 7421c700,282 1267,692 1668,1135 154,170 202,450 121,696 -81,246 -268,382 -464,340 -917,-195 -2128,-383 -3337,-358 -1210,-25 -2420,163 -3337,358 -196,42 -383,-94 -464,-340 -81,-246 -33,-525 121,-696 398,-440 961,-848 1655,-1129 585,362 1275,572 2014,572 743,0 1436,-212 2023,-578z"/>
	<path id="curve2" fill="#252525" d="M5109 660c1939,0 3510,1571 3510,3509 0,1939 -1571,3510 -3510,3510 -1938,0 -3509,-1571 -3509,-3510 0,-1938 1571,-3509 3509,-3509zm11 940c-1414,0 -2560,1146 -2560,2560 0,1414 1146,2560 2560,2560 1414,0 2560,-1146 2560,-2560 0,-1414 -1146,-2560 -2560,-2560z"/>
	<path id="curve1" fill="#252525" d="M5120 1920c1237,0 2240,1003 2240,2240 0,1237 -1003,2240 -2240,2240 -1237,0 -2240,-1003 -2240,-2240 0,-1237 1003,-2240 2240,-2240zm0 640c-884,0 -1600,716 -1600,1600 0,884 716,1600 1600,1600 884,0 1600,-716 1600,-1600 0,-884 -716,-1600 -1600,-1600z"/>
	<path id="curve0" fill="#A1C057" d="M5120 2880c707,0 1280,573 1280,1280 0,707 -573,1280 -1280,1280 -707,0 -1280,-573 -1280,-1280 0,-707 573,-1280 1280,-1280zm-480 320c-265,0 -480,215 -480,480 0,265 215,480 480,480 265,0 480,-215 480,-480 0,-265 -215,-480 -480,-480z"/>
</svg>
