<?xml version="1.0" encoding="UTF-8"?>
<!DOCTYPE svg PUBLIC "-//W3C//DTD SVG 1.1//EN" "http://www.w3.org/Graphics/SVG/1.1/DTD/svg11.dtd">
<svg xmlns="http://www.w3.org/2000/svg" xml:space="preserve" width="1024px" height="1024px" shape-rendering="geometricPrecision" text-rendering="geometricPrecision" image-rendering="optimizeQuality" fill-rule="nonzero" clip-rule="evenodd" viewBox="0 0 10240 10240" xmlns:xlink="http://www.w3.org/1999/xlink">
	<title>windsock icon</title>
	<desc>windsock icon from the IconExperience.com O-Collection. Copyright by INCORS GmbH (www.incors.com).</desc>
	<path id="curve1" fill="#252525" d="M1280 4714l0 4246 -640 0 0 -4246c-191,-110 -320,-317 -320,-554 0,-353 287,-640 640,-640 143,0 275,47 381,126l899 -899 0 905 -507 508 507 507 0 906 -899 -899c-19,15 -40,28 -61,40z"/>
	<path id="curve0" fill="#A1C057" d="M3314 2057l5760 1047c308,56 526,318 526,630l0 852c0,312 -218,574 -526,630l-5760 1047c-193,35 -373,-13 -524,-138 -151,-126 -230,-295 -230,-492l0 -2946c0,-197 79,-366 230,-492 151,-125 331,-173 524,-138zm-114 630l0 2946 960 -174 0 -2598 -960 -174zm2240 2539l960 -175 0 -1782 -960 -175 0 2132zm2240 -407l960 -175 0 -968 -960 -175 0 1318z"/>
</svg>
