<?xml version="1.0" encoding="UTF-8"?>
<!DOCTYPE svg PUBLIC "-//W3C//DTD SVG 1.1//EN" "http://www.w3.org/Graphics/SVG/1.1/DTD/svg11.dtd">
<svg xmlns="http://www.w3.org/2000/svg" xml:space="preserve" width="1024px" height="1024px" shape-rendering="geometricPrecision" text-rendering="geometricPrecision" image-rendering="optimizeQuality" fill-rule="nonzero" clip-rule="evenodd" viewBox="0 0 10240 10240" xmlns:xlink="http://www.w3.org/1999/xlink">
	<title>window_close icon</title>
	<desc>window_close icon from the IconExperience.com O-Collection. Copyright by INCORS GmbH (www.incors.com).</desc>
	<path id="curve1" fill="#252525" d="M1280 1280l3125 0c-152,170 -245,394 -245,640l0 1280 -2880 0 0 5120 7680 0 0 -1600 0 0c246,0 470,-93 640,-245l0 2165c0,176 -144,320 -320,320l-8320 0c-176,0 -320,-144 -320,-320l0 -6720c0,-353 288,-640 640,-640z"/>
	<path id="curve0" fill="#A1C057" d="M5120 1280l3840 0c353,0 640,287 640,640l0 3840c0,353 -287,640 -640,640l-3840 0c-353,0 -640,-287 -640,-640l0 -3840c0,-353 287,-640 640,-640zm110 3691l679 679 1131 -1131 1131 1131 679 -679 -1131 -1131 1131 -1131 -679 -679 -1131 1131 -1131 -1131 -679 679 1131 1131 -1131 1131z"/>
</svg>
