<?xml version="1.0" encoding="UTF-8"?>
<!DOCTYPE svg PUBLIC "-//W3C//DTD SVG 1.1//EN" "http://www.w3.org/Graphics/SVG/1.1/DTD/svg11.dtd">
<svg xmlns="http://www.w3.org/2000/svg" xml:space="preserve" width="1024px" height="1024px" shape-rendering="geometricPrecision" text-rendering="geometricPrecision" image-rendering="optimizeQuality" fill-rule="nonzero" clip-rule="evenodd" viewBox="0 0 10240 10240" xmlns:xlink="http://www.w3.org/1999/xlink">
	<title>wind_engines icon</title>
	<desc>wind_engines icon from the IconExperience.com O-Collection. Copyright by INCORS GmbH (www.incors.com).</desc>
	<path id="curve6" fill="#A1C057" d="M2240,9280 8960,9280 8960,9920 2240,9920z"/>
	<path id="curve5" fill="#252525" d="M7596 5109l28 441c-37,-60 -75,-121 -113,-181 -104,-162 -243,-387 -379,-529 28,3 56,4 84,4l1 0 3 1 1 0 3 0 2 0 0 0 2 0 0 0 1 0 1 0c35,-1 67,-2 98,-5l268 269zm177 2750l71 1101 -1242 0 131 -2014 779 779c76,75 166,118 261,134z"/>
	<path id="curve4" fill="#252525" d="M7646 3403c134,118 218,377 218,482 0,104 0,35 -2,53 18,2 37,3 55,5l511 55c84,9 148,38 202,92 212,212 877,1335 1276,2085 50,95 5,236 -105,330 -110,94 -248,108 -322,34l-2048 -2048c-65,22 -103,34 -207,34 -104,0 -261,-43 -365,-115 -10,15 -21,30 -32,45l-132 181 -291 -31c-33,-110 -85,-221 -147,-316l126 -472 214 -57c39,-202 174,-369 355,-455 -8,-16 -16,-33 -23,-50l-208 -470c-17,-39 -28,-76 -31,-113l75 -278c190,-433 716,-1359 1103,-1977 57,-91 201,-123 338,-75 136,49 217,161 190,263l-750 2798zm-422 162c-176,0 -320,143 -320,320 0,176 144,320 320,320 177,0 320,-144 320,-320 0,-177 -143,-320 -320,-320z"/>
	<path id="curve3" fill="#252525" d="M5902 6114l183 2846 -1202 0 196 -2991 148 -203c87,24 176,38 257,38 37,0 71,-1 103,-4l315 314z"/>
	<path id="curve2" fill="#252525" d="M5906 4363c134,117 218,376 218,481 0,105 -1,36 -2,54 18,1 36,3 55,5l511 54c84,9 147,39 201,93 212,211 877,1335 1276,2085 51,95 6,236 -104,330 -110,93 -248,108 -323,33l-2048 -2048c-65,22 -102,34 -206,34 -104,0 -262,-42 -365,-114 -11,15 -21,30 -32,45l-303 415c-50,68 -107,109 -181,128 -289,78 -1595,92 -2443,63 -108,-4 -208,-113 -234,-256 -26,-142 30,-269 132,-296l2798 -750c40,-201 174,-369 355,-454 -7,-17 -15,-33 -23,-50l-208 -470c-34,-77 -40,-147 -21,-221 78,-289 718,-1427 1168,-2147 57,-91 202,-123 338,-75 136,48 218,161 191,262l-750 2799zm-422 161c-177,0 -320,143 -320,320 0,177 143,320 320,320 177,0 320,-143 320,-320 0,-177 -143,-320 -320,-320z"/>
	<path id="curve1" fill="#252525" d="M4334 6320l170 2640 -1242 0 170 -2607c195,-3 390,-8 584,-16 94,-5 206,-9 318,-17z"/>
	<path id="curve0" fill="#252525" d="M4306 3403c134,118 218,377 218,482 0,104 0,35 -2,53 18,2 37,3 55,5l148 16 88 198c-87,85 -157,186 -207,298l-434 117 -81 -81c-65,22 -103,34 -207,34 -104,0 -261,-43 -365,-115 -10,15 -21,30 -32,45l-272 373 -864 232c-530,21 -1253,20 -1791,1 -107,-4 -207,-113 -234,-255 -26,-142 31,-269 132,-296l2799 -750c39,-202 174,-369 355,-455 -8,-16 -16,-33 -23,-50l-208 -470c-34,-77 -41,-147 -21,-220 77,-290 718,-1428 1168,-2148 57,-91 201,-123 338,-75 136,49 217,161 190,263l-750 2798zm-422 162c-176,0 -320,143 -320,320 0,176 144,320 320,320 177,0 320,-144 320,-320 0,-177 -143,-320 -320,-320z"/>
</svg>
