<svg width="524pt" height="144pt" viewBox="0.00 0.00 524.00 144.00" 
    xmlns="http://www.w3.org/2000/svg" 
    xmlns:xlink="http://www.w3.org/1999/xlink">
    <g id="graph1" class="graph" transform="scale(1 1) rotate(0) translate(4 140)">
        <title>G</title>
        <polygon fill="white" stroke="white" points="-4,5 -4,-140 521,-140 521,5 -4,5"></polygon>
        <!-- im1 -->
        <g id="node1" class="node">
            <title>im1</title>
            <polygon fill="none" stroke="black" points="148.02,-136 -0.0204014,-136 -0.0204014,-100 154.02,-100 154.02,-130 148.02,-136"></polygon>
            <polyline fill="none" stroke="black" points="148.02,-136 148.02,-130 "></polyline>
            <polyline fill="none" stroke="black" points="154.02,-130 148.02,-130 "></polyline>
            <text text-anchor="middle" x="77" y="-113.8" font-family="Times,serif" font-size="14.00">Client Enqueues an Item</text>
        </g>
        <!-- q1 -->
        <g id="node2" class="node">
            <title>q1</title>
            <polygon fill="none" stroke="black" points="189.792,-6 189.792,-130 316.208,-130 316.208,-6 189.792,-6"></polygon>
            <text text-anchor="middle" x="253" y="-113.4" font-family="Times,serif" font-size="14.00">Newest Client Item</text>
            <polyline fill="none" stroke="black" points="189.792,-105.2 316.208,-105.2 "></polyline>
            <text text-anchor="middle" x="253" y="-88.6" font-family="Times,serif" font-size="14.00">Queued Client Item</text>
            <polyline fill="none" stroke="black" points="189.792,-80.4 316.208,-80.4 "></polyline>
            <text text-anchor="middle" x="253" y="-63.8" font-family="Times,serif" font-size="14.00">Queued Client Item</text>
            <polyline fill="none" stroke="black" points="189.792,-55.6 316.208,-55.6 "></polyline>
            <text text-anchor="middle" x="253" y="-39" font-family="Times,serif" font-size="14.00">Queued Client Item</text>
            <polyline fill="none" stroke="black" points="189.792,-30.8 316.208,-30.8 "></polyline>
            <text text-anchor="middle" x="253" y="-14.2" font-family="Times,serif" font-size="14.00">Oldest Client Item</text>
        </g>
        <!-- im1&#45;&gt;q1 -->
        <g id="edge2" class="edge">
            <title>im1-&gt;q1:m</title>
            <path fill="none" stroke="black" d="M154.212,-118C162.727,-118 171.375,-118 179.821,-118"></path>
            <polygon fill="black" stroke="black" points="180,-121.5 190,-118 180,-114.5 180,-121.5"></polygon>
        </g>
        <!-- im2 -->
        <g id="node3" class="node">
            <title>im2</title>
            <polygon fill="none" stroke="black" points="509.817,-36 352.183,-36 352.183,0 515.817,0 515.817,-30 509.817,-36"></polygon>
            <polyline fill="none" stroke="black" points="509.817,-36 509.817,-30 "></polyline>
            <polyline fill="none" stroke="black" points="515.817,-30 509.817,-30 "></polyline>
            <text text-anchor="middle" x="434" y="-13.8" font-family="Times,serif" font-size="14.00">Worker Dequeues an Item</text>
        </g>
        <!-- q1&#45;&gt;im2 -->
        <g id="edge4" class="edge">
            <title>q1:n-&gt;im2</title>
            <path fill="none" stroke="black" d="M316,-18C324.395,-18 333.128,-18 341.873,-18"></path>
            <polygon fill="black" stroke="black" points="342.123,-21.5001 352.123,-18 342.123,-14.5001 342.123,-21.5001"></polygon>
        </g>
    </g>
</svg>