<svg width="340pt" height="107pt" viewBox="0.00 0.00 340.00 107.00" 
    xmlns="http://www.w3.org/2000/svg" 
    xmlns:xlink="http://www.w3.org/1999/xlink">
    <g id="graph1" class="graph" transform="scale(1 1) rotate(0) translate(4 103)">
        <title>G</title>
        <polygon fill="white" stroke="white" points="-4,5 -4,-103 337,-103 337,5 -4,5"></polygon>
        <!-- q1 -->
        <g id="node1" class="node">
            <title>q1</title>
            <polygon fill="none" stroke="black" points="0.5424,-24.8 0.5424,-99.2 137.458,-99.2 137.458,-24.8 0.5424,-24.8"></polygon>
            <text text-anchor="middle" x="69" y="-82.6" font-family="Times,serif" font-size="14.00">Newest Client Item</text>
            <polyline fill="none" stroke="black" points="0.5424,-74.4 137.458,-74.4 "></polyline>
            <text text-anchor="middle" x="69" y="-57.8" font-family="Times,serif" font-size="14.00">Queued Client Item 4</text>
            <polyline fill="none" stroke="black" points="0.5424,-49.6 137.458,-49.6 "></polyline>
            <text text-anchor="middle" x="69" y="-33" font-family="Times,serif" font-size="14.00">Queued Client Item 3</text>
        </g>
        <!-- w1 -->
        <g id="node2" class="node">
            <title>w1</title>
            <polygon fill="none" stroke="black" points="174.449,-0.2 174.449,-49.8 331.551,-49.8 331.551,-0.2 174.449,-0.2"></polygon>
            <text text-anchor="middle" x="253" y="-33.2" font-family="Times,serif" font-size="14.00">Worker 1 Dequeues Item</text>
            <polyline fill="none" stroke="black" points="174.449,-25 331.551,-25 "></polyline>
            <text text-anchor="start" x="182.449" y="-8.4" font-family="Times,serif" font-size="14.00">Worker 2</text>
        </g>
        <!-- q1&#45;&gt;w1 -->
        <g id="edge2" class="edge">
            <title>q1:n-&gt;w1:n</title>
            <path fill="none" stroke="black" d="M138,-37C150,-37 155.25,-37 163.875,-37"></path>
            <polygon fill="black" stroke="black" points="164,-40.5001 174,-37 164,-33.5001 164,-40.5001"></polygon>
        </g>
    </g>
</svg>