<svg width="354pt" height="163pt" viewBox="0.00 0.00 354.00 163.00" 
    xmlns="http://www.w3.org/2000/svg" 
    xmlns:xlink="http://www.w3.org/1999/xlink">
    <g id="graph1" class="graph" transform="scale(1 1) rotate(0) translate(4 159)">
        <title>G</title>
        <polygon fill="white" stroke="white" points="-4,5 -4,-159 351,-159 351,5 -4,5"></polygon>
        <!-- q1 -->
        <g id="node1" class="node">
            <title>q1</title>
            <polygon fill="none" stroke="black" points="0.5424,-0.4 0.5424,-99.6 137.458,-99.6 137.458,-0.4 0.5424,-0.4"></polygon>
            <text text-anchor="middle" x="69" y="-83" font-family="Times,serif" font-size="14.00">Newest Client Item</text>
            <polyline fill="none" stroke="black" points="0.5424,-74.8 137.458,-74.8 "></polyline>
            <text text-anchor="middle" x="69" y="-58.2" font-family="Times,serif" font-size="14.00">Queued Client Item 4</text>
            <polyline fill="none" stroke="black" points="0.5424,-50 137.458,-50 "></polyline>
            <text text-anchor="middle" x="69" y="-33.4" font-family="Times,serif" font-size="14.00">Queued Client Item 3</text>
            <polyline fill="none" stroke="black" points="0.5424,-25.2 137.458,-25.2 "></polyline>
            <text text-anchor="middle" x="69" y="-8.6" font-family="Times,serif" font-size="14.00">Queued Client Item 2</text>
        </g>
        <!-- q2 -->
        <g id="node2" class="node">
            <title>q2</title>
            <polygon fill="none" stroke="black" stroke-dasharray="1,5" points="0.5424,-119 0.5424,-155 137.458,-155 137.458,-119 0.5424,-119"></polygon>
            <text text-anchor="middle" x="69" y="-132.9" font-family="Times,serif" font-size="14.00">Queued Client Item 1</text>
        </g>
        <!-- w1 -->
        <g id="node3" class="node">
            <title>w1</title>
            <polygon fill="none" stroke="black" points="174.444,-100.2 174.444,-149.8 345.556,-149.8 345.556,-100.2 174.444,-100.2"></polygon>
            <text text-anchor="middle" x="260" y="-133.2" font-family="Times,serif" font-size="14.00">Worker 1 Reschedules item</text>
            <polyline fill="none" stroke="black" points="174.444,-125 345.556,-125 "></polyline>
            <text text-anchor="start" x="182.444" y="-108.4" font-family="Times,serif" font-size="14.00">Worker 2</text>
        </g>
        <!-- q2&#45;&gt;w1 -->
        <g id="edge2" class="edge">
            <title>q2:n-&gt;w1:n</title>
            <path fill="none" stroke="black" d="M147.628,-137C156.523,-137 165.457,-137 174,-137"></path>
            <polygon fill="black" stroke="black" points="147.624,-133.5 137.624,-137 147.624,-140.5 147.624,-133.5"></polygon>
        </g>
    </g>
</svg>