<svg width="356pt" height="157pt" viewBox="0.00 0.00 356.00 157.00" 
    xmlns="http://www.w3.org/2000/svg" 
    xmlns:xlink="http://www.w3.org/1999/xlink">
    <g id="graph1" class="graph" transform="scale(1 1) rotate(0) translate(4 153)">
        <title>G</title>
        <polygon fill="white" stroke="white" points="-4,5 -4,-153 353,-153 353,5 -4,5"></polygon>
        <!-- q1 -->
        <g id="node1" class="node">
            <title>q1</title>
            <polygon fill="none" stroke="black" points="0.5424,-25 0.5424,-149 137.458,-149 137.458,-25 0.5424,-25"></polygon>
            <text text-anchor="middle" x="69" y="-132.4" font-family="Times,serif" font-size="14.00">Newest Client Item</text>
            <polyline fill="none" stroke="black" points="0.5424,-124.2 137.458,-124.2 "></polyline>
            <text text-anchor="middle" x="69" y="-107.6" font-family="Times,serif" font-size="14.00">Queued Client Item 4</text>
            <polyline fill="none" stroke="black" points="0.5424,-99.4 137.458,-99.4 "></polyline>
            <text text-anchor="middle" x="69" y="-82.8" font-family="Times,serif" font-size="14.00">Queued Client Item 3</text>
            <polyline fill="none" stroke="black" points="0.5424,-74.6 137.458,-74.6 "></polyline>
            <text text-anchor="middle" x="69" y="-58" font-family="Times,serif" font-size="14.00">Queued Client Item 2</text>
            <polyline fill="none" stroke="black" points="0.5424,-49.8 137.458,-49.8 "></polyline>
            <text text-anchor="middle" x="69" y="-33.2" font-family="Times,serif" font-size="14.00">Queued Client Item 1</text>
        </g>
        <!-- w1 -->
        <g id="node2" class="node">
            <title>w1</title>
            <polygon fill="none" stroke="black" points="174.092,-0.2 174.092,-49.8 347.908,-49.8 347.908,-0.2 174.092,-0.2"></polygon>
            <text text-anchor="middle" x="261" y="-33.2" font-family="Times,serif" font-size="14.00">Worker 1 Dequeues an Item</text>
            <polyline fill="none" stroke="black" points="174.092,-25 347.908,-25 "></polyline>
            <text text-anchor="start" x="182.092" y="-8.4" font-family="Times,serif" font-size="14.00">Worker 2</text>
        </g>
        <!-- q1&#45;&gt;w1 -->
        <g id="edge2" class="edge">
            <title>q1:n-&gt;w1:n</title>
            <path fill="none" stroke="black" d="M138,-37C150,-37 155.25,-37 163.875,-37"></path>
            <polygon fill="black" stroke="black" points="164,-40.5001 174,-37 164,-33.5001 164,-40.5001"></polygon>
        </g>
    </g>
</svg>