<svg width="344pt" height="156pt" viewBox="0.00 0.00 344.00 156.00" 
    xmlns="http://www.w3.org/2000/svg" 
    xmlns:xlink="http://www.w3.org/1999/xlink">
    <g id="graph1" class="graph" transform="scale(1 1) rotate(0) translate(4 152)">
        <title>G</title>
        <polygon fill="white" stroke="white" points="-4,5 -4,-152 341,-152 341,5 -4,5"></polygon>
        <!-- q1 -->
        <g id="node1" class="node">
            <title>q1</title>
            <polygon fill="none" stroke="black" points="0.5424,0.2 0.5424,-74.2 137.458,-74.2 137.458,0.2 0.5424,0.2"></polygon>
            <text text-anchor="middle" x="69" y="-57.6" font-family="Times,serif" font-size="14.00">Newest Client Item</text>
            <polyline fill="none" stroke="black" points="0.5424,-49.4 137.458,-49.4 "></polyline>
            <text text-anchor="middle" x="69" y="-32.8" font-family="Times,serif" font-size="14.00">Queued Client Item 4</text>
            <polyline fill="none" stroke="black" points="0.5424,-24.6 137.458,-24.6 "></polyline>
            <text text-anchor="middle" x="69" y="-8" font-family="Times,serif" font-size="14.00">Queued Client Item 3</text>
        </g>
        <!-- q2 -->
        <g id="node2" class="node">
            <title>q2</title>
            <polygon fill="none" stroke="black" stroke-dasharray="1,5" points="0.5424,-93 0.5424,-129 137.458,-129 137.458,-93 0.5424,-93"></polygon>
            <text text-anchor="middle" x="69" y="-106.9" font-family="Times,serif" font-size="14.00">Queued Client Item 2</text>
        </g>
        <!-- w1 -->
        <g id="node3" class="node">
            <title>w1</title>
            <polygon fill="none" stroke="black" points="174.106,-98.2 174.106,-147.8 335.894,-147.8 335.894,-98.2 174.106,-98.2"></polygon>
            <text text-anchor="start" x="182.106" y="-131.2" font-family="Times,serif" font-size="14.00">Worker 1</text>
            <polyline fill="none" stroke="black" points="174.106,-123 335.894,-123 "></polyline>
            <text text-anchor="start" x="182.106" y="-106.4" font-family="Times,serif" font-size="14.00">Worker 2 Completes Item</text>
        </g>
        <!-- q2&#45;&gt;w1 -->
        <g id="edge2" class="edge">
            <title>q2:n-&gt;w1:n</title>
            <path fill="none" stroke="black" d="M147.628,-111C156.523,-111 165.457,-111 174,-111"></path>
            <polygon fill="black" stroke="black" points="147.624,-107.5 137.624,-111 147.624,-114.5 147.624,-107.5"></polygon>
        </g>
    </g>
</svg>