<?xml version="1.0" encoding="UTF-8"?>
<!DOCTYPE svg PUBLIC "-//W3C//DTD SVG 1.1//EN" "http://www.w3.org/Graphics/SVG/1.1/DTD/svg11.dtd">
<svg xmlns="http://www.w3.org/2000/svg" xml:space="preserve" width="1024px" height="1024px" shape-rendering="geometricPrecision" text-rendering="geometricPrecision" image-rendering="optimizeQuality" fill-rule="nonzero" clip-rule="evenodd" viewBox="0 0 10240 10240" xmlns:xlink="http://www.w3.org/1999/xlink">
	<title>ammunition_box_closed icon</title>
	<desc>ammunition_box_closed icon from the IconExperience.com O-Collection. Copyright by INCORS GmbH (www.incors.com).</desc>
	<path id="curve0" fill="#252525" d="M994 3183l3200 -1600c186,-93 389,-98 572,0l4480 2400c222,111 354,324 354,573l0 2728c0,249 -132,462 -354,573l-3200 1600c-186,93 -389,98 -572,0l-4480 -2400c-219,-117 -354,-324 -354,-573l0 -2728c0,-249 132,-462 354,-573zm286 1276l635 340 0 -417 -635 -340 0 417zm422 -915l510 274 2778 -1389 -510 -273 -2778 1388zm3960 -755l-2762 1397 1629 873 2778 -1389 -1645 -881zm2333 1250l-2778 1389 548 293 2778 -1389 -548 -293zm965 797l-2880 1440 0 426 2883 -1440 -3 -426zm0 782l-2880 1440 0 1666 2880 -1440 0 -1666zm-3520 3095l0 -1664 -640 -342 0 1663 640 343zm-1280 -686l0 -1663 -1595 -855 0 1664 1595 854zm-2245 -1202l0 -1664 -635 -340 0 1663 635 341zm650 -2095l0 418 1595 854 0 -418 -1595 -854zm2235 1197l0 418 640 343 0 -418 -640 -343z"/>
</svg>
