<?xml version="1.0" encoding="UTF-8"?>
<!DOCTYPE svg PUBLIC "-//W3C//DTD SVG 1.1//EN" "http://www.w3.org/Graphics/SVG/1.1/DTD/svg11.dtd">
<svg xmlns="http://www.w3.org/2000/svg" xml:space="preserve" width="1024px" height="1024px" shape-rendering="geometricPrecision" text-rendering="geometricPrecision" image-rendering="optimizeQuality" fill-rule="nonzero" clip-rule="evenodd" viewBox="0 0 10240 10240" xmlns:xlink="http://www.w3.org/1999/xlink">
	<title>army_knife icon</title>
	<desc>army_knife icon from the IconExperience.com O-Collection. Copyright by INCORS GmbH (www.incors.com).</desc>
	<path id="curve2" fill="#252525" d="M2890 9280c-498,-498 -498,-1311 0,-1810l4526 -4525c498,-499 1312,-499 1810,0 499,498 499,1311 0,1810l-4525 4525c-499,499 -1312,499 -1811,0zm5430 -5749c-177,0 -320,143 -320,320 0,176 143,320 320,320 177,0 320,-144 320,-320 0,-177 -143,-320 -320,-320z"/>
	<path id="curve1" fill="#252525" d="M4933 3816l-1653 238c-633,91 -1480,540 -1640,1280 480,280 1220,294 1880,160l1122 -228 1207 -1207 -916 -243z"/>
	<path id="curve0" fill="#252525" d="M7420 2528l-4140 -1434c-992,-343 -2000,40 -2660,400 260,540 834,1067 1560,1260l3930 1043 1080 -1079c71,-72 149,-135 230,-190zm-3747 -501c-84,-27 -130,-117 -103,-201 27,-84 116,-130 200,-103l1233 396c84,27 130,117 103,200 -27,84 -117,131 -201,104l-1232 -396z"/>
</svg>
