<?xml version="1.0" encoding="UTF-8"?>
<!DOCTYPE svg PUBLIC "-//W3C//DTD SVG 1.1//EN" "http://www.w3.org/Graphics/SVG/1.1/DTD/svg11.dtd">
<svg xmlns="http://www.w3.org/2000/svg" xml:space="preserve" width="1024px" height="1024px" shape-rendering="geometricPrecision" text-rendering="geometricPrecision" image-rendering="optimizeQuality" fill-rule="nonzero" clip-rule="evenodd" viewBox="0 0 10240 10240" xmlns:xlink="http://www.w3.org/1999/xlink">
	<title>arrow_around icon</title>
	<desc>arrow_around icon from the IconExperience.com O-Collection. Copyright by INCORS GmbH (www.incors.com).</desc>
	<path id="curve1" fill="#252525" d="M5899 1842l-1186 -1186c-124,-124 -328,-124 -452,0l-1187 1186c-124,125 -186,277 -187,453l-7 839c-1,65 38,122 99,147 61,26 127,12 174,-34l687 -687c0,427 0,853 0,1280 0,343 305,640 640,640 707,0 1280,573 1280,1280 0,707 -573,1280 -1280,1280 -353,0 -640,287 -640,640 0,19 1,38 2,56l1 1864 1275 0 -1 -1360c1129,-289 1923,-1311 1923,-2480 0,-1169 -794,-2191 -1923,-2480 0,-240 3,-480 3,-720l687 687c47,46 113,60 174,34 61,-25 98,-81 99,-147l7 -839c1,-176 -63,-328 -188,-453z"/>
	<path id="curve0" fill="#252525" d="M4480 4800c530,0 960,430 960,960 0,530 -430,960 -960,960 -530,0 -960,-430 -960,-960 0,-530 430,-960 960,-960z"/>
</svg>
