<?xml version="1.0" encoding="UTF-8"?>
<!DOCTYPE svg PUBLIC "-//W3C//DTD SVG 1.1//EN" "http://www.w3.org/Graphics/SVG/1.1/DTD/svg11.dtd">
<svg xmlns="http://www.w3.org/2000/svg" xml:space="preserve" width="1024px" height="1024px" shape-rendering="geometricPrecision" text-rendering="geometricPrecision" image-rendering="optimizeQuality" fill-rule="nonzero" clip-rule="evenodd" viewBox="0 0 10240 10240" xmlns:xlink="http://www.w3.org/1999/xlink">
	<title>battery_charge icon</title>
	<desc>battery_charge icon from the IconExperience.com O-Collection. Copyright by INCORS GmbH (www.incors.com).</desc>
	<path id="curve1" fill="#252525" d="M6393 1290l-2547 0 -7 -10 0 -320c0,-177 143,-320 320,-320l1921 0c177,0 320,143 320,320l0 160 0 160 -7 10z"/>
	<path id="curve0" fill="#252525" d="M2880 1280l4480 0c177,0 320,143 320,320l0 7680c0,177 -143,320 -320,320l-4480 0c-177,0 -320,-143 -320,-320l0 -7680c0,-177 143,-320 320,-320zm3014 1280l-1363 0 -1024 2794 1362 3 -406 1109 -601 -220 541 2243 1863 -1362 -601 -221 991 -2704 -1367 11 605 -1653z"/>
</svg>
