<?xml version="1.0" encoding="UTF-8"?>
<!DOCTYPE svg PUBLIC "-//W3C//DTD SVG 1.1//EN" "http://www.w3.org/Graphics/SVG/1.1/DTD/svg11.dtd">
<svg xmlns="http://www.w3.org/2000/svg" xml:space="preserve" width="1024px" height="1024px" shape-rendering="geometricPrecision" text-rendering="geometricPrecision" image-rendering="optimizeQuality" fill-rule="nonzero" clip-rule="evenodd" viewBox="0 0 10240 10240" xmlns:xlink="http://www.w3.org/1999/xlink">
	<title>beaker icon</title>
	<desc>beaker icon from the IconExperience.com O-Collection. Copyright by INCORS GmbH (www.incors.com).</desc>
	<path id="curve1" fill="#252525" d="M7144 5440c139,291 216,616 216,960 0,1237 -1003,2240 -2240,2240 -1237,0 -2240,-1003 -2240,-2240 0,-344 77,-669 216,-960l4048 0zm-1224 320c-442,0 -800,358 -800,800 0,442 358,800 800,800 442,0 800,-358 800,-800 0,-442 -358,-800 -800,-800zm-1280 1600c-265,0 -480,215 -480,480 0,265 215,480 480,480 265,0 480,-215 480,-480 0,-265 -215,-480 -480,-480z"/>
	<path id="curve0" fill="#252525" d="M6400 3467c1130,493 1920,1621 1920,2933 0,1767 -1433,3200 -3200,3200 -1767,0 -3200,-1433 -3200,-3200 0,-1312 790,-2440 1920,-2933l0 -2187 -320 0c-176,0 -320,-144 -320,-320l0 0c0,-176 144,-320 320,-320l640 0c176,0 320,144 320,320l0 2925 -384 168c-932,407 -1536,1327 -1536,2347 0,1414 1146,2560 2560,2560 1414,0 2560,-1146 2560,-2560 0,-1020 -604,-1940 -1536,-2347l-384 -168 0 -2925c0,-176 144,-320 320,-320l640 0c176,0 320,144 320,320l0 0c0,176 -144,320 -320,320l-320 0 0 2187z"/>
</svg>
