<?xml version="1.0" encoding="UTF-8"?>
<!DOCTYPE svg PUBLIC "-//W3C//DTD SVG 1.1//EN" "http://www.w3.org/Graphics/SVG/1.1/DTD/svg11.dtd">
<svg xmlns="http://www.w3.org/2000/svg" xml:space="preserve" width="1024px" height="1024px" shape-rendering="geometricPrecision" text-rendering="geometricPrecision" image-rendering="optimizeQuality" fill-rule="nonzero" clip-rule="evenodd" viewBox="0 0 10240 10240" xmlns:xlink="http://www.w3.org/1999/xlink">
	<title>blood_bag icon</title>
	<desc>blood_bag icon from the IconExperience.com O-Collection. Copyright by INCORS GmbH (www.incors.com).</desc>
	<path id="curve2" fill="#252525" d="M7040 3145l0 375 320 0c176,0 320,144 320,320l0 3520c0,529 -431,960 -960,960 -1067,0 -2133,0 -3200,0 -529,0 -960,-431 -960,-960l0 -3520c0,-176 144,-320 320,-320l320 0 0 -375c100,36 208,55 320,55 112,0 220,-19 320,-55l0 375 960 0 0 -2880 640 0 0 2880 960 0 0 -375c100,36 208,55 320,55 112,0 220,-19 320,-55z"/>
	<path id="curve1" fill="#252525" d="M2880 1280l1280 0 0 960c0,352 -288,640 -640,640 -352,0 -640,-288 -640,-640l0 -960zm3200 0l1280 0 0 960c0,352 -288,640 -640,640 -352,0 -640,-288 -640,-640l0 -960z"/>
	<path id="curve0" fill="#252525" d="M7680 1952c729,149 1280,796 1280,1568l0 3840c0,1234 -1006,2240 -2240,2240l-3200 0c-1234,0 -2240,-1006 -2240,-2240l0 -3840c0,-772 551,-1419 1280,-1568l0 288c0,125 24,244 68,354 -407,111 -708,485 -708,926l0 3840c0,880 720,1600 1600,1600l3200 0c880,0 1600,-720 1600,-1600l0 -3840c0,-441 -301,-815 -708,-926 44,-110 68,-229 68,-354l0 -288z"/>
</svg>
