<?xml version="1.0" encoding="UTF-8"?>
<!DOCTYPE svg PUBLIC "-//W3C//DTD SVG 1.1//EN" "http://www.w3.org/Graphics/SVG/1.1/DTD/svg11.dtd">
<svg xmlns="http://www.w3.org/2000/svg" xml:space="preserve" width="1024px" height="1024px" shape-rendering="geometricPrecision" text-rendering="geometricPrecision" image-rendering="optimizeQuality" fill-rule="nonzero" clip-rule="evenodd" viewBox="0 0 10240 10240" xmlns:xlink="http://www.w3.org/1999/xlink">
	<title>boombox icon</title>
	<desc>boombox icon from the IconExperience.com O-Collection. Copyright by INCORS GmbH (www.incors.com).</desc>
	<path id="curve3" fill="#252525" d="M8000 5760c530,0 960,430 960,960 0,530 -430,960 -960,960 -530,0 -960,-430 -960,-960 0,-530 430,-960 960,-960zm-5760 0c530,0 960,430 960,960 0,530 -430,960 -960,960 -530,0 -960,-430 -960,-960 0,-530 430,-960 960,-960z"/>
	<path id="curve2" fill="#252525" d="M4480,6080 5760,6080 5760,7360 4480,7360z"/>
	<path id="curve1" fill="#252525" d="M640 3200l8960 0c176,0 320,144 320,320l0 5120c0,176 -144,320 -320,320l-8960 0c-176,0 -320,-144 -320,-320l0 -5120c0,-176 144,-320 320,-320zm7680 640l0 640 1280 0 0 -640 -1280 0zm-7680 0l0 640 1280 0 0 -640 -1280 0zm2240 0l0 640 4480 0 0 -640 -4480 0zm1280 1920l0 2560 1920 0 0 -2560 -1920 0zm-1920 -640c-884,0 -1600,716 -1600,1600 0,884 716,1600 1600,1600 884,0 1600,-716 1600,-1600 0,-884 -716,-1600 -1600,-1600zm5760 0c-884,0 -1600,716 -1600,1600 0,884 716,1600 1600,1600 884,0 1600,-716 1600,-1600 0,-884 -716,-1600 -1600,-1600z"/>
	<path id="curve0" fill="#252525" d="M2560 1280c1707,0 3413,0 5120,0 353,0 640,287 640,640l0 960 -640 0 0 -640 -5120 0 0 640 -640 0 0 -960c0,-353 287,-640 640,-640z"/>
</svg>
