<?xml version="1.0" encoding="UTF-8"?>
<!DOCTYPE svg PUBLIC "-//W3C//DTD SVG 1.1//EN" "http://www.w3.org/Graphics/SVG/1.1/DTD/svg11.dtd">
<svg xmlns="http://www.w3.org/2000/svg" xml:space="preserve" width="1024px" height="1024px" shape-rendering="geometricPrecision" text-rendering="geometricPrecision" image-rendering="optimizeQuality" fill-rule="nonzero" clip-rule="evenodd" viewBox="0 0 10240 10240" xmlns:xlink="http://www.w3.org/1999/xlink">
	<title>businesswomen icon</title>
	<desc>businesswomen icon from the IconExperience.com O-Collection. Copyright by INCORS GmbH (www.incors.com).</desc>
	<path id="curve7" fill="#252525" d="M9600 7402c0,658 -1589,918 -2648,918 -80,0 -162,-2 -247,-4 -56,-516 -271,-949 -703,-1290 -178,-141 -374,-251 -575,-356 -156,-82 -318,-157 -459,-261 -55,-40 -118,-94 -147,-158l-7 -15 388 -279c266,-147 530,-259 695,-421 52,671 505,1195 1055,1195 550,0 1002,-524 1054,-1195 443,434 1594,508 1594,1866z"/>
	<path id="curve6" fill="#252525" d="M7722 5503c-88,402 -399,698 -770,698 -372,0 -684,-297 -771,-700 228,144 487,226 771,226 290,0 547,-84 770,-224z"/>
	<path id="curve5" fill="#252525" d="M6083 5011c234,240 525,396 869,396 834,0 1352,-914 1524,-1724 -317,14 -654,-60 -950,-163 -462,-163 -922,-512 -1240,-921 -19,24 -39,47 -59,70 132,315 205,660 205,1027 0,472 -125,921 -349,1315z"/>
	<path id="curve4" fill="#252525" d="M5143 1400c134,-111 294,-200 485,-260 529,-500 794,-500 1324,-500 1316,0 2383,1008 2383,2251l0 2227c0,80 -31,149 -92,201 -60,52 -133,73 -212,61 -264,-40 -587,-119 -923,-207 352,-392 577,-934 681,-1423l87 -404 -413 17c-276,12 -572,-55 -831,-145 -417,-147 -823,-468 -1094,-816l-249 -318 -218 272c-227,-387 -547,-713 -928,-956z"/>
	<path id="curve3" fill="#252525" d="M6400 8601c0,716 -1728,999 -2880,999 -1152,0 -2880,-283 -2880,-998 0,-1378 1088,-1540 1626,-1938l-474 632 762 0c240,0 446,139 535,362l431 1078 431 -1078c89,-223 295,-362 535,-362l762 0 -474 -632c537,398 1626,560 1626,1937z"/>
	<path id="curve2" fill="#252525" d="M4465 6432c-208,522 -554,864 -945,864 -392,0 -739,-343 -947,-868 187,138 398,240 632,290 103,23 209,34 315,34 106,0 211,-11 315,-34 235,-50 445,-150 630,-286z"/>
	<path id="curve1" fill="#252525" d="M3520 6432c391,0 752,-195 1042,-524l249 -424c161,-275 274,-580 339,-893 -348,9 -718,-77 -1016,-181 -497,-175 -990,-545 -1339,-980 -179,215 -402,399 -643,502 -103,44 -214,81 -327,105 15,503 149,1013 404,1447l249 424c290,329 651,524 1042,524z"/>
	<path id="curve0" fill="#252525" d="M5527 4199c-288,117 -757,95 -1287,-91 -645,-227 -1200,-788 -1447,-1259 -144,302 -433,646 -767,789 -193,82 -371,117 -515,107 -4,63 -7,129 -7,198 0,596 152,1198 449,1703 -623,-447 -1025,-1154 -1025,-1950 0,-816 288,-1632 1152,-1904 576,-544 864,-544 1440,-544 1432,0 2592,1096 2592,2448 0,796 -402,1503 -1025,1950 254,-433 402,-937 440,-1447z"/>
</svg>
