<?xml version="1.0" encoding="UTF-8"?>
<!DOCTYPE svg PUBLIC "-//W3C//DTD SVG 1.1//EN" "http://www.w3.org/Graphics/SVG/1.1/DTD/svg11.dtd">
<svg xmlns="http://www.w3.org/2000/svg" xml:space="preserve" width="1024px" height="1024px" shape-rendering="geometricPrecision" text-rendering="geometricPrecision" image-rendering="optimizeQuality" fill-rule="nonzero" clip-rule="evenodd" viewBox="0 0 10240 10240" xmlns:xlink="http://www.w3.org/1999/xlink">
	<title>businessperson icon</title>
	<desc>businessperson icon from the IconExperience.com O-Collection. Copyright by INCORS GmbH (www.incors.com).</desc>
	<path id="curve2" fill="#252525" d="M4480 8960l394 -2166 -207 -207c-124,-125 -187,-276 -187,-452l0 -127c206,47 420,72 640,72 220,0 434,-25 640,-72l0 127c0,176 -63,327 -187,452l-207 207 394 2166 -640 640 -640 -640z"/>
	<path id="curve1" fill="#252525" d="M8320 8470c0,716 -1502,1049 -2734,1117l400 -401c77,-76 108,-177 89,-283l-364 -2001 88 -88c184,-185 281,-418 281,-679l0 -52c0,-1 0,-3 0,-4l0 -70c0,-31 -4,-61 -12,-89 208,-73 406,-168 589,-284 1082,807 1663,1074 1663,2834zm-3666 1117c-1232,-68 -2734,-401 -2734,-1116 0,-1760 582,-2029 1663,-2835 183,116 381,212 589,284 -8,28 -12,58 -12,89l0 126c0,261 97,494 281,679l88 88 -364 2001c-19,106 12,207 89,283l400 401z"/>
	<path id="curve0" fill="#252525" d="M5120 640c1414,0 2560,1146 2560,2560 0,1414 -1146,2560 -2560,2560 -1414,0 -2560,-1146 -2560,-2560 0,-1414 1146,-2560 2560,-2560z"/>
</svg>
