<?xml version="1.0" encoding="UTF-8"?>
<!DOCTYPE svg PUBLIC "-//W3C//DTD SVG 1.1//EN" "http://www.w3.org/Graphics/SVG/1.1/DTD/svg11.dtd">
<svg xmlns="http://www.w3.org/2000/svg" xml:space="preserve" width="1024px" height="1024px" shape-rendering="geometricPrecision" text-rendering="geometricPrecision" image-rendering="optimizeQuality" fill-rule="nonzero" clip-rule="evenodd" viewBox="0 0 10240 10240" xmlns:xlink="http://www.w3.org/1999/xlink">
	<title>businesspeople2 icon</title>
	<desc>businesspeople2 icon from the IconExperience.com O-Collection. Copyright by INCORS GmbH (www.incors.com).</desc>
	<path id="curve6" fill="#252525" d="M9600 7391c0,575 -1214,849 -2246,914l290 -283c79,-77 112,-179 92,-288l-302 -1615 52 -50c166,-162 255,-370 255,-602l0 -39c0,-30 -4,-59 -11,-86 178,-63 348,-145 505,-244 888,637 1365,873 1365,2293zm-3700 -2099c43,17 86,34 130,50 -7,27 -11,56 -11,86l0 39c0,232 89,440 255,602l52 50 -191 1022c-42,-40 -86,-78 -133,-115 -178,-141 -374,-251 -575,-356 -145,-76 -306,-153 -440,-247 -7,-5 -13,-9 -19,-14 -55,-40 -118,-94 -147,-158 -10,-23 -22,-43 -36,-62 163,-75 319,-165 466,-268 7,-5 15,-10 22,-15 243,-174 454,-381 627,-614z"/>
	<path id="curve5" fill="#252525" d="M6403 7453l269 -1444 -175 -170c-105,-102 -158,-227 -158,-372l0 -39c174,38 355,58 541,58 186,0 367,-20 541,-58l0 39c0,145 -53,270 -158,372l-175 170 333 1784 -541 527 -204 -199c-49,-244 -137,-467 -273,-668z"/>
	<path id="curve4" fill="#252525" d="M6880 960c1202,0 2176,941 2176,2103 0,1161 -974,2103 -2176,2103 -283,0 -553,-53 -801,-148 227,-396 353,-847 353,-1322 0,-883 -424,-1642 -1068,-2141 391,-368 926,-595 1516,-595z"/>
	<path id="curve3" fill="#252525" d="M6400 8601c0,716 -1728,999 -2880,999 -1152,0 -2880,-283 -2880,-998 0,-1378 1088,-1540 1626,-1938l-474 632 762 0c240,0 446,139 535,362l431 1078 431 -1078c89,-223 295,-362 535,-362l762 0 -474 -632c537,398 1626,560 1626,1937z"/>
	<path id="curve2" fill="#252525" d="M4465 6432c-208,522 -554,864 -945,864 -392,0 -739,-343 -947,-868 187,138 398,240 632,290 103,23 209,34 315,34 106,0 211,-11 315,-34 235,-50 445,-150 630,-286z"/>
	<path id="curve1" fill="#252525" d="M3520 6432c391,0 752,-195 1042,-524l249 -424c161,-275 274,-580 339,-893 -348,9 -718,-77 -1016,-181 -497,-175 -990,-545 -1339,-980 -179,215 -402,399 -643,502 -103,44 -214,81 -327,105 15,503 149,1013 404,1447l249 424c290,329 651,524 1042,524z"/>
	<path id="curve0" fill="#252525" d="M5527 4199c-288,117 -757,95 -1287,-91 -645,-227 -1200,-788 -1447,-1259 -144,302 -433,646 -767,789 -193,82 -371,117 -515,107 -4,63 -7,129 -7,198 0,596 152,1198 449,1703 -623,-447 -1025,-1154 -1025,-1950 0,-816 288,-1632 1152,-1904 576,-544 864,-544 1440,-544 1432,0 2592,1096 2592,2448 0,796 -402,1503 -1025,1950 254,-433 402,-937 440,-1447z"/>
</svg>
