<?xml version="1.0" encoding="UTF-8"?>
<!DOCTYPE svg PUBLIC "-//W3C//DTD SVG 1.1//EN" "http://www.w3.org/Graphics/SVG/1.1/DTD/svg11.dtd">
<svg xmlns="http://www.w3.org/2000/svg" xml:space="preserve" width="1024px" height="1024px" shape-rendering="geometricPrecision" text-rendering="geometricPrecision" image-rendering="optimizeQuality" fill-rule="nonzero" clip-rule="evenodd" viewBox="0 0 10240 10240" xmlns:xlink="http://www.w3.org/1999/xlink">
	<title>cabinet_flash icon</title>
	<desc>cabinet_flash icon from the IconExperience.com O-Collection. Copyright by INCORS GmbH (www.incors.com).</desc>
	<path id="curve1" fill="#252525" d="M2880 1600l4480 0 0 6080 -4480 0 0 -6080zm1739 960c-80,0 -147,58 -159,137l-274 1920c-7,48 6,92 38,128 31,36 72,55 120,55l776 0 -320 640 -402 0c-55,0 -102,25 -133,71 -31,45 -36,98 -16,149l344 847c21,50 61,84 113,96 53,12 104,-2 144,-38l926 -847c50,-45 65,-113 41,-176 -24,-63 -82,-102 -149,-102l-228 0 524 -1048c26,-52 23,-108 -7,-156 -30,-49 -79,-76 -136,-76l-701 0 815 -1358c30,-50 31,-109 2,-161 -30,-51 -80,-81 -140,-81l-1178 0z"/>
	<path id="curve0" fill="#252525" d="M8000 8640l0 960 -5760 0 0 -960c-176,0 -320,-144 -320,-320l0 -7040c0,-353 287,-640 640,-640l5120 0c353,0 640,287 640,640l0 7040c0,176 -144,320 -320,320l0 0zm-5120 -7360c-176,0 -320,144 -320,320l0 6080c0,176 144,320 320,320l4480 0c176,0 320,-144 320,-320l0 -6080c0,-176 -144,-320 -320,-320l-4480 0z"/>
</svg>
