<?xml version="1.0" encoding="UTF-8"?>
<!DOCTYPE svg PUBLIC "-//W3C//DTD SVG 1.1//EN" "http://www.w3.org/Graphics/SVG/1.1/DTD/svg11.dtd">
<svg xmlns="http://www.w3.org/2000/svg" xml:space="preserve" width="1024px" height="1024px" shape-rendering="geometricPrecision" text-rendering="geometricPrecision" image-rendering="optimizeQuality" fill-rule="nonzero" clip-rule="evenodd" viewBox="0 0 10240 10240" xmlns:xlink="http://www.w3.org/1999/xlink">
	<title>calendar_clock icon</title>
	<desc>calendar_clock icon from the IconExperience.com O-Collection. Copyright by INCORS GmbH (www.incors.com).</desc>
	<path id="curve5" fill="#252525" d="M2080 5760l1120 0 0 2880 -640 0 0 -2240 -640 0 0 -480c0,-88 72,-160 160,-160zm3680 2240l0 640 -1920 0c0,-320 0,-640 0,-960 0,-352 287,-640 640,-640l480 0c88,0 160,-72 160,-160l0 -320c0,-88 -72,-160 -160,-160l-320 0c-88,0 -160,72 -160,160l-640 0 0 -160c0,-338 264,-616 597,-638 363,370 816,652 1323,811l0 467c0,353 -287,640 -640,640l-480 0c-88,0 -160,72 -160,160l0 160 1280 0z"/>
	<path id="curve4" fill="#252525" d="M7040 6704l0 2257c0,352 -288,640 -640,640l-5120 -2c-352,0 -640,-287 -640,-640l0 -3200 640 0 0 1 0 3200 5120 0 0 -2256c105,11 212,16 320,16 108,0 215,-5 320,-16z"/>
	<path id="curve3" fill="#252525" d="M1280 3200l0 640c0,353 287,640 640,640l320 0c353,0 640,-287 640,-640l0 0c0,353 287,640 640,640l147 0c109,350 278,673 493,960l-3520 0 0 -1600c0,-353 287,-640 640,-640z"/>
	<path id="curve2" fill="#252525" d="M1920 2240l320 0c176,0 320,144 320,320l0 1280c0,176 -144,320 -320,320l-320 0c-176,0 -320,-144 -320,-320l0 -1280c0,-176 144,-320 320,-320zm1600 0l267 0c-172,392 -267,825 -267,1280 0,219 22,433 64,640l-64 0c-176,0 -320,-144 -320,-320l0 -1280c0,-176 144,-320 320,-320z"/>
	<path id="curve1" fill="#252525" d="M6049 1721l671 1159c116,0 226,31 320,85l877 -507c141,160 252,348 321,554l-878 508c0,353 -287,640 -640,640 -353,0 -640,-287 -640,-640 0,-116 31,-226 85,-320l-670 -1159c164,-136 351,-245 554,-320z"/>
	<path id="curve0" fill="#252525" d="M6720 640c1591,0 2880,1289 2880,2880 0,1591 -1289,2880 -2880,2880 -1591,0 -2880,-1289 -2880,-2880 0,-1591 1289,-2880 2880,-2880zm0 640c-1237,0 -2240,1003 -2240,2240 0,1237 1003,2240 2240,2240 1237,0 2240,-1003 2240,-2240 0,-1237 -1003,-2240 -2240,-2240z"/>
</svg>
