<?xml version="1.0" encoding="UTF-8"?>
<!DOCTYPE svg PUBLIC "-//W3C//DTD SVG 1.1//EN" "http://www.w3.org/Graphics/SVG/1.1/DTD/svg11.dtd">
<svg xmlns="http://www.w3.org/2000/svg" xml:space="preserve" width="1024px" height="1024px" shape-rendering="geometricPrecision" text-rendering="geometricPrecision" image-rendering="optimizeQuality" fill-rule="nonzero" clip-rule="evenodd" viewBox="0 0 10240 10240" xmlns:xlink="http://www.w3.org/1999/xlink">
	<title>camera icon</title>
	<desc>camera icon from the IconExperience.com O-Collection. Copyright by INCORS GmbH (www.incors.com).</desc>
	<path id="curve2" fill="#252525" d="M5120 3840c1060,0 1920,860 1920,1920 0,1060 -860,1920 -1920,1920 -1060,0 -1920,-860 -1920,-1920 0,-1060 860,-1920 1920,-1920zm0 320c-884,0 -1600,716 -1600,1600 0,37 1,74 4,110 7,102 56,187 141,244 85,57 182,70 279,38l0 0c140,-47 228,-178 218,-326 -1,-21 -2,-44 -2,-66 0,-530 430,-960 960,-960 22,0 45,1 66,2 148,10 279,-78 326,-218l0 0c32,-97 19,-194 -38,-279 -57,-85 -142,-134 -244,-141 -36,-3 -73,-4 -110,-4z"/>
	<path id="curve1" fill="#252525" d="M8957 2570l-1274 0 0 -10c2,-176 144,-320 320,-320l634 0c176,0 318,144 320,320l0 10z"/>
	<path id="curve0" fill="#252525" d="M9600 3200c0,1728 0,3456 0,5184 0,317 -288,576 -640,576l-7680 0c-352,0 -640,-259 -640,-576 0,-1728 0,-3456 0,-5184 0,-353 287,-640 640,-640l1280 0c353,0 640,-287 640,-640l0 -8c0,-353 287,-640 640,-640l2560 0c353,0 640,287 640,640l0 8c0,353 287,640 640,640l0 0 1280 0c353,0 640,287 640,640zm-5760 -1288l0 640 2560 0 0 -640 -2560 0zm4480 1288c-353,0 -640,287 -640,640 0,353 287,640 640,640 353,0 640,-287 640,-640 0,-353 -287,-640 -640,-640zm-3200 0c-1414,0 -2560,1146 -2560,2560 0,1414 1146,2560 2560,2560 1414,0 2560,-1146 2560,-2560 0,-1414 -1146,-2560 -2560,-2560z"/>
</svg>
