<?xml version="1.0" encoding="UTF-8"?>
<!DOCTYPE svg PUBLIC "-//W3C//DTD SVG 1.1//EN" "http://www.w3.org/Graphics/SVG/1.1/DTD/svg11.dtd">
<svg xmlns="http://www.w3.org/2000/svg" xml:space="preserve" width="1024px" height="1024px" shape-rendering="geometricPrecision" text-rendering="geometricPrecision" image-rendering="optimizeQuality" fill-rule="nonzero" clip-rule="evenodd" viewBox="0 0 10240 10240" xmlns:xlink="http://www.w3.org/1999/xlink">
	<title>cash_flow icon</title>
	<desc>cash_flow icon from the IconExperience.com O-Collection. Copyright by INCORS GmbH (www.incors.com).</desc>
	<path id="curve3" fill="#252525" d="M5760 1600l3520 0c176,0 320,144 320,320l0 1920c0,176 -144,320 -320,320l0 -1280c0,-349 -293,-633 -640,-640 -49,-96 -64,-205 -64,-320l-2112 0c0,115 -28,224 -77,320l-947 0 0 -320c0,-176 144,-320 320,-320z"/>
	<path id="curve2" fill="#252525" d="M4160 2560l4480 0c176,0 320,144 320,320l0 2560c0,176 -144,320 -320,320l-3 -1984c-1,-324 -306,-576 -637,-576l-197 0c-38,-99 -59,-207 -59,-320l-2688 0c0,113 -21,221 -59,320l0 0 -1157 0 0 -320c0,-176 144,-320 320,-320z"/>
	<path id="curve1" fill="#252525" d="M2560 3520l5440 0c176,0 320,144 320,320l0 3200c0,176 -144,320 -320,320l0 -2560c0,-353 -287,-640 -640,-640l-400 0c-31,-101 -48,-209 -48,-320l-3264 0c0,111 -17,219 -48,320l-1360 0 0 -320c0,-176 144,-320 320,-320z"/>
	<path id="curve0" fill="#252525" d="M960 4480l6400 0c176,0 320,144 320,320l0 3840c0,176 -144,320 -320,320l-6400 0c-176,0 -320,-144 -320,-320l0 -3840c0,-176 144,-320 320,-320zm3200 960c381,0 690,300 690,669 0,369 -309,669 -690,669 -381,0 -690,-300 -690,-669 0,-369 309,-669 690,-669zm-955 1708c94,-105 204,-194 328,-264 172,134 390,214 627,214 237,0 455,-80 627,-214 124,70 234,159 328,264 -139,496 -514,852 -955,852 -441,0 -816,-355 -955,-852zm2875 -2348l-3840 0c0,707 -573,1280 -1280,1280l0 1280c707,0 1280,573 1280,1280l3840 0c0,-707 573,-1280 1280,-1280l0 -1280c-707,0 -1280,-573 -1280,-1280zm-1920 320c-736,0 -1333,716 -1333,1600 0,884 597,1600 1333,1600 736,0 1333,-716 1333,-1600 0,-884 -597,-1600 -1333,-1600z"/>
</svg>
