<?xml version="1.0" encoding="UTF-8"?>
<!DOCTYPE svg PUBLIC "-//W3C//DTD SVG 1.1//EN" "http://www.w3.org/Graphics/SVG/1.1/DTD/svg11.dtd">
<svg xmlns="http://www.w3.org/2000/svg" xml:space="preserve" width="1024px" height="1024px" shape-rendering="geometricPrecision" text-rendering="geometricPrecision" image-rendering="optimizeQuality" fill-rule="nonzero" clip-rule="evenodd" viewBox="0 0 10240 10240" xmlns:xlink="http://www.w3.org/1999/xlink">
	<title>cd_window icon</title>
	<desc>cd_window icon from the IconExperience.com O-Collection. Copyright by INCORS GmbH (www.incors.com).</desc>
	<path id="curve3" fill="#252525" d="M9600 9280c0,176 -144,320 -320,320l-5120 0c-176,0 -320,-144 -320,-320l0 -3520c0,-353 288,-640 640,-640l4480 0c352,0 640,288 640,640l0 3520zm-5120 -2880l0 2560 4480 0 0 -2560 -4480 0z"/>
	<path id="curve2" fill="#252525" d="M5120 1600c677,0 1309,191 1845,522l-1006 1635c-244,-150 -531,-237 -839,-237 -884,0 -1600,716 -1600,1600 0,124 14,246 41,362 -27,88 -41,181 -41,278l0 46 -1636 701c-183,-426 -284,-895 -284,-1387 0,-1944 1576,-3520 3520,-3520zm1471 2890l1765 -757c143,332 236,691 270,1067l-1938 0c-22,-108 -55,-212 -97,-310zm-3071 3766c-84,-43 -165,-89 -245,-138l245 -398 0 536z"/>
	<path id="curve1" fill="#252525" d="M5120 3840c596,0 1098,408 1240,960l-686 0c-110,-191 -317,-320 -554,-320 -237,0 -444,129 -554,320l-86 0c-244,0 -468,92 -638,243 40,-671 597,-1203 1278,-1203z"/>
	<path id="curve0" fill="#252525" d="M5120 640c2449,0 4439,1965 4479,4404 -170,-151 -394,-244 -639,-244l-13 0c-163,-1971 -1814,-3520 -3827,-3520 -2121,0 -3840,1719 -3840,3840 0,1550 918,2885 2240,3492l0 668c0,9 0,17 1,26 -1685,-644 -2881,-2275 -2881,-4186 0,-2474 2006,-4480 4480,-4480z"/>
</svg>
