<?xml version="1.0" encoding="UTF-8"?>
<!DOCTYPE svg PUBLIC "-//W3C//DTD SVG 1.1//EN" "http://www.w3.org/Graphics/SVG/1.1/DTD/svg11.dtd">
<svg xmlns="http://www.w3.org/2000/svg" xml:space="preserve" width="1024px" height="1024px" shape-rendering="geometricPrecision" text-rendering="geometricPrecision" image-rendering="optimizeQuality" fill-rule="nonzero" clip-rule="evenodd" viewBox="0 0 10240 10240" xmlns:xlink="http://www.w3.org/1999/xlink">
	<title>central_bank_yen icon</title>
	<desc>central_bank_yen icon from the IconExperience.com O-Collection. Copyright by INCORS GmbH (www.incors.com).</desc>
	<path id="curve2" fill="#252525" d="M640,8960 9600,8960 9600,9600 640,9600z"/>
	<path id="curve1" fill="#252525" d="M8320 4480c353,0 640,288 640,640l0 3840 -3200 0 0 -1920 -1280 0 0 1920 -3200 0 0 -3840c0,-353 287,-640 640,-640l1280 0 0 0c0,-353 287,-640 640,-640l640 0c0,176 144,320 320,320l640 0c176,0 320,-144 320,-320l640 0c353,0 640,288 640,640l1280 0zm-2560 640c-427,0 -853,0 -1280,0l0 1280c427,0 853,0 1280,0l0 -1280zm-3840 0l0 1280 640 0 0 -1280 -640 0zm0 1920l0 1280 640 0 0 -1280 -640 0zm1280 0l0 1280 640 0 0 -1280 -640 0zm4480 -1920l0 1280 640 0 0 -1280 -640 0zm0 1920l0 1280 640 0 0 -1280 -640 0zm-1280 0l0 1280 640 0 0 -1280 -640 0zm0 -1920l0 1280 640 0 0 -1280 -640 0zm-3200 0l0 1280 640 0 0 -1280 -640 0z"/>
	<path id="curve0" fill="#252525" d="M4160,3200 4800,3200 4800,2880 4160,2880 4160,2560 4800,2560 4800,2372 3614,1186 4066,734 5120,1787 6174,734 6626,1186 5440,2372 5440,2560 6080,2560 6080,2880 5440,2880 5440,3200 6080,3200 6080,3520 5440,3520 5440,3840 4800,3840 4800,3520 4160,3520z"/>
</svg>
