<?xml version="1.0" encoding="UTF-8"?>
<!DOCTYPE svg PUBLIC "-//W3C//DTD SVG 1.1//EN" "http://www.w3.org/Graphics/SVG/1.1/DTD/svg11.dtd">
<svg xmlns="http://www.w3.org/2000/svg" xml:space="preserve" width="1024px" height="1024px" shape-rendering="geometricPrecision" text-rendering="geometricPrecision" image-rendering="optimizeQuality" fill-rule="nonzero" clip-rule="evenodd" viewBox="0 0 10240 10240" xmlns:xlink="http://www.w3.org/1999/xlink">
	<title>chainsaw icon</title>
	<desc>chainsaw icon from the IconExperience.com O-Collection. Copyright by INCORS GmbH (www.incors.com).</desc>
	<path id="curve2" fill="#252525" d="M2560 4541l0 -61 408 204c51,26 108,23 156,-7 49,-30 76,-79 76,-136l0 -61 408 204c51,26 108,23 156,-7 49,-30 76,-79 76,-136l0 -61 408 204c51,26 108,23 156,-7 49,-30 76,-79 76,-136l0 -61 408 204c51,26 108,23 156,-7 49,-30 76,-79 76,-136l0 -61 320 160 0 2240 -88 -44c-52,-26 -108,-23 -156,7 -49,30 -76,79 -76,136l0 61 -408 -204c-51,-26 -108,-23 -156,7 -49,30 -76,79 -76,136l0 61 -408 -204c-52,-26 -108,-23 -156,7 -49,30 -76,79 -76,136l0 61 -408 -204c-51,-26 -108,-23 -156,7 -49,30 -76,79 -76,136l0 61 -408 -204c-51,-26 -108,-23 -156,7 -49,30 -76,79 -76,136l0 61 -408 -204c-52,-26 -108,-23 -156,7 -49,30 -76,79 -76,136 0,35 0,59 0,61l-505 -253c-71,-35 -155,-14 -201,49l-107 148 -261 -502c-36,-70 -116,-103 -191,-78l-173 56 84 -559c11,-78 -34,-152 -109,-176l-173 -56 396 -403c56,-56 62,-142 16,-206l-107 -147 557 -93c78,-13 134,-79 134,-158l0 -182 408 204c51,26 108,23 156,-7 49,-30 76,-79 76,-136l0 -61 408 204c51,26 108,23 156,-7 49,-30 76,-79 76,-136zm-960 899c-177,0 -320,143 -320,320 0,177 143,320 320,320 177,0 320,-143 320,-320 0,-177 -143,-320 -320,-320z"/>
	<path id="curve1" fill="#252525" d="M7768 3840c156,0 290,49 410,148l1512 1260c151,126 230,295 230,492l0 980c0,352 -288,640 -640,640l-2880 0c-353,0 -640,-287 -640,-640l0 -2240c0,-236 129,-443 320,-554l0 1834c0,353 287,640 640,640 353,0 640,-287 640,-640l0 -1920 408 0z"/>
	<path id="curve0" fill="#252525" d="M7040 5760c0,177 -143,320 -320,320 -177,0 -320,-143 -320,-320l0 -1920c0,-353 144,-673 375,-905 232,-231 552,-375 905,-375l0 0c140,0 274,21 404,65 129,43 249,107 363,192l768 576c123,92 219,206 284,337 67,133 101,278 101,430l0 597 -640 -534 0 -63c0,-56 -10,-104 -31,-145 -21,-42 -53,-80 -96,-112l-768 -576c-60,-44 -119,-77 -181,-97 -60,-20 -127,-30 -204,-30l0 0c-176,0 -336,72 -452,188 -116,116 -188,276 -188,452l0 1920z"/>
</svg>
