<?xml version="1.0" encoding="UTF-8"?>
<!DOCTYPE svg PUBLIC "-//W3C//DTD SVG 1.1//EN" "http://www.w3.org/Graphics/SVG/1.1/DTD/svg11.dtd">
<svg xmlns="http://www.w3.org/2000/svg" xml:space="preserve" width="1024px" height="1024px" shape-rendering="geometricPrecision" text-rendering="geometricPrecision" image-rendering="optimizeQuality" fill-rule="nonzero" clip-rule="evenodd" viewBox="0 0 10240 10240" xmlns:xlink="http://www.w3.org/1999/xlink">
	<title>champagne_glass icon</title>
	<desc>champagne_glass icon from the IconExperience.com O-Collection. Copyright by INCORS GmbH (www.incors.com).</desc>
	<path id="curve2" fill="#252525" d="M4160 8960c353,0 640,-287 640,-640l0 -1642c105,27 211,42 320,42 109,0 215,-15 320,-42l0 1642c0,353 287,640 640,640l320 0c177,0 320,143 320,320l0 320 -320 0 -320 0 -1920 0 -320 0 -320 0 0 -320c0,-177 143,-320 320,-320l320 0z"/>
	<path id="curve1" fill="#252525" d="M6080 2560c0,1591 -430,2880 -960,2880 -530,0 -960,-1289 -960,-2880l1920 0z"/>
	<path id="curve0" fill="#252525" d="M7040 2560c0,2121 -860,3840 -1920,3840 -1060,0 -1920,-1719 -1920,-3840l0 -1600c0,-176 143,-320 319,-320l3198 0c179,0 323,141 323,320l0 1600zm-658 533c19,-181 28,-360 28,-533l-6 -1290 -2568 0 -6 1290c-1,184 9,375 30,566 107,1497 630,2634 1260,2634 634,0 1161,-1154 1262,-2667z"/>
</svg>
