<?xml version="1.0" encoding="UTF-8"?>
<!DOCTYPE svg PUBLIC "-//W3C//DTD SVG 1.1//EN" "http://www.w3.org/Graphics/SVG/1.1/DTD/svg11.dtd">
<svg xmlns="http://www.w3.org/2000/svg" xml:space="preserve" width="1024px" height="1024px" shape-rendering="geometricPrecision" text-rendering="geometricPrecision" image-rendering="optimizeQuality" fill-rule="nonzero" clip-rule="evenodd" viewBox="0 0 10240 10240" xmlns:xlink="http://www.w3.org/1999/xlink">
	<title>champagne_bottle icon</title>
	<desc>champagne_bottle icon from the IconExperience.com O-Collection. Copyright by INCORS GmbH (www.incors.com).</desc>
	<path id="curve1" fill="#252525" d="M6080 1920l0 187c0,294 -320,232 -320,773l0 640c0,1280 1600,1920 1600,3520l0 2240c0,176 -144,320 -320,320 -1280,0 -2560,0 -3840,0 -176,0 -320,-144 -320,-320l0 -2240c0,-1600 1600,-2240 1600,-3520l0 -640c0,-541 -320,-479 -320,-773l0 -187 1920 0zm-2240 4800l0 1920 2560 0 0 -1920 -2560 0z"/>
	<path id="curve0" fill="#252525" d="M4800 640l640 0c353,0 640,287 640,640l0 320 -1920 0 0 -320c0,-353 287,-640 640,-640z"/>
</svg>
