<?xml version="1.0" encoding="UTF-8"?>
<!DOCTYPE svg PUBLIC "-//W3C//DTD SVG 1.1//EN" "http://www.w3.org/Graphics/SVG/1.1/DTD/svg11.dtd">
<svg xmlns="http://www.w3.org/2000/svg" xml:space="preserve" width="1024px" height="1024px" shape-rendering="geometricPrecision" text-rendering="geometricPrecision" image-rendering="optimizeQuality" fill-rule="nonzero" clip-rule="evenodd" viewBox="0 0 10240 10240" xmlns:xlink="http://www.w3.org/1999/xlink">
	<title>chart_area icon</title>
	<desc>chart_area icon from the IconExperience.com O-Collection. Copyright by INCORS GmbH (www.incors.com).</desc>
	<path id="curve2" fill="#252525" d="M8960,8640 8960,4800 8000,5760 7040,4800 6080,6720 5120,5760 4160,7680 3200,6720 2240,7680 1600,7040 1600,8640z"/>
	<path id="curve1" fill="#252525" d="M8960 4479l0 -3199 -960 1920 -960 -960 -960 1920 -960 -960 -960 1920 -960 -960 -960 960 -640 -1280 0 2747 640 640 734 -733c124,-125 328,-125 452,0l646 646 762 -1523c47,-95 130,-156 235,-173 105,-17 202,15 277,90l646 646 762 -1523c47,-95 130,-156 235,-173 105,-17 202,15 277,90l734 733 734 -733c62,-63 143,-96 226,-95z"/>
	<path id="curve0" fill="#252525" d="M640,1280 1280,1280 1280,8960 9280,8960 9600,8960 9600,9600 1280,9600 640,9600 640,8960z"/>
</svg>
