<?xml version="1.0" encoding="UTF-8"?>
<!DOCTYPE svg PUBLIC "-//W3C//DTD SVG 1.1//EN" "http://www.w3.org/Graphics/SVG/1.1/DTD/svg11.dtd">
<svg xmlns="http://www.w3.org/2000/svg" xml:space="preserve" width="1024px" height="1024px" shape-rendering="geometricPrecision" text-rendering="geometricPrecision" image-rendering="optimizeQuality" fill-rule="nonzero" clip-rule="evenodd" viewBox="0 0 10240 10240" xmlns:xlink="http://www.w3.org/1999/xlink">
	<title>chart_gantt icon</title>
	<desc>chart_gantt icon from the IconExperience.com O-Collection. Copyright by INCORS GmbH (www.incors.com).</desc>
	<path id="curve2" fill="#252525" d="M1920 1280l7040 0 0 1280 -640 -320 0 -320 -5760 0 0 320 -640 320 0 -1280zm1280 3200l3840 0 0 1280 -640 -320 0 -320 -2560 0 0 320 -640 320 0 -1280z"/>
	<path id="curve1" fill="#252525" d="M1920 2560l2560 0 0 640 4480 0 0 640 -4480 0 0 -640 -2560 0 0 -640zm5120 5440l1920 0 0 640 -1920 0 0 -640zm0 -960l1920 0 0 640 -1920 0 0 -640 -1920 0 0 -640 -1920 0 0 -640 1920 0 0 640 1920 0 0 640z"/>
	<path id="curve0" fill="#252525" d="M640,1280 1280,1280 1280,8960 9600,8960 9600,9600 1280,9600 640,9600 640,8960z"/>
</svg>
