<?xml version="1.0" encoding="UTF-8"?>
<!DOCTYPE svg PUBLIC "-//W3C//DTD SVG 1.1//EN" "http://www.w3.org/Graphics/SVG/1.1/DTD/svg11.dtd">
<svg xmlns="http://www.w3.org/2000/svg" xml:space="preserve" width="1024px" height="1024px" shape-rendering="geometricPrecision" text-rendering="geometricPrecision" image-rendering="optimizeQuality" fill-rule="nonzero" clip-rule="evenodd" viewBox="0 0 10240 10240" xmlns:xlink="http://www.w3.org/1999/xlink">
	<title>chart_funnel icon</title>
	<desc>chart_funnel icon from the IconExperience.com O-Collection. Copyright by INCORS GmbH (www.incors.com).</desc>
	<path id="curve3" fill="#252525" d="M6770 6940l-370 740 0 1281c0,176 -572,319 -1277,319 -706,0 -1277,-143 -1277,-319l-6 -1281 -368 -736c409,158 994,257 1644,257 655,0 1244,-101 1654,-261z"/>
	<path id="curve2" fill="#252525" d="M7703 5075l-722 1443c-212,208 -969,363 -1865,363 -896,0 -1644,-154 -1856,-361l-723 -1445c583,258 1522,426 2583,426 1061,0 2000,-168 2583,-426z"/>
	<path id="curve1" fill="#252525" d="M8830 2819l-830 1661 -1 0c0,1 0,2 -1,3l-67 135c-286,322 -1436,563 -2811,563 -1375,0 -2525,-241 -2811,-563l-67 -135c-1,-1 -1,-2 -1,-3l-1 0 -830 -1661c687,416 2090,701 3710,701 1620,0 3023,-285 3710,-701z"/>
	<path id="curve0" fill="#252525" d="M5120 1280c2121,0 3840,430 3840,960 0,530 -1719,960 -3840,960 -2121,0 -3840,-430 -3840,-960 0,-530 1719,-960 3840,-960z"/>
</svg>
