<?xml version="1.0" encoding="UTF-8"?>
<!DOCTYPE svg PUBLIC "-//W3C//DTD SVG 1.1//EN" "http://www.w3.org/Graphics/SVG/1.1/DTD/svg11.dtd">
<svg xmlns="http://www.w3.org/2000/svg" xml:space="preserve" width="1024px" height="1024px" shape-rendering="geometricPrecision" text-rendering="geometricPrecision" image-rendering="optimizeQuality" fill-rule="nonzero" clip-rule="evenodd" viewBox="0 0 10240 10240" xmlns:xlink="http://www.w3.org/1999/xlink">
	<title>chart_column icon</title>
	<desc>chart_column icon from the IconExperience.com O-Collection. Copyright by INCORS GmbH (www.incors.com).</desc>
	<path id="curve2" fill="#252525" d="M2240 1280l1600 0 0 7360 -640 0 0 -5440 -960 0 0 -1920zm5120 2560l1600 0 0 4800 -640 0 0 -3200 -960 0 0 -1600zm-2560 -640l1600 0 0 5440 -640 0 0 -3840 -960 0 0 -1600z"/>
	<path id="curve1" fill="#252525" d="M1600 3520l1280 0 0 5120 -1280 0 0 -5120zm2560 1600l1280 0 0 3520 -1280 0 0 -3520zm2560 640l1280 0 0 2880 -1280 0 0 -2880z"/>
	<path id="curve0" fill="#252525" d="M1280,8960 9600,8960 9600,9600 1280,9600 640,9600 640,8960 640,1280 1280,1280z"/>
</svg>
