<?xml version="1.0" encoding="UTF-8"?>
<!DOCTYPE svg PUBLIC "-//W3C//DTD SVG 1.1//EN" "http://www.w3.org/Graphics/SVG/1.1/DTD/svg11.dtd">
<svg xmlns="http://www.w3.org/2000/svg" xml:space="preserve" width="1024px" height="1024px" shape-rendering="geometricPrecision" text-rendering="geometricPrecision" image-rendering="optimizeQuality" fill-rule="nonzero" clip-rule="evenodd" viewBox="0 0 10240 10240" xmlns:xlink="http://www.w3.org/1999/xlink">
	<title>chart_candlestick icon</title>
	<desc>chart_candlestick icon from the IconExperience.com O-Collection. Copyright by INCORS GmbH (www.incors.com).</desc>
	<path id="curve2" fill="#252525" d="M8960 7040l0 640 -320 0 0 -640 -320 0 0 -2560 320 0 0 -960 320 0 0 960 320 0 0 2560 -320 0zm-6400 0l0 1280 -320 0 0 -1280 -320 0 0 -2560 320 0 0 -1600 320 0 0 1600 320 0 0 2560 -320 0zm1280 -1920l0 960 -320 0 0 -960 -320 0 0 -2560 320 0 0 -1280 320 0 0 1280 320 0 0 2560 -320 0z"/>
	<path id="curve1" fill="#252525" d="M4800 3520l320 0 0 960 320 0 0 1920 -320 0 0 960 -320 0 0 -960 -320 0 0 -1920 320 0 0 -960zm2880 3840l0 1280 -320 0 0 -1280 -320 0 0 -640 320 0 0 -960 320 0 0 960 320 0 0 640 -320 0zm-1280 -320l0 640 -320 0 0 -640 -320 0 0 -1280 320 0 0 -960 320 0 0 960 320 0 0 1280 -320 0z"/>
	<path id="curve0" fill="#252525" d="M640,1280 1280,1280 1280,8960 9600,8960 9600,9600 1280,9600 640,9600 640,8960z"/>
</svg>
