<?xml version="1.0" encoding="UTF-8"?>
<!DOCTYPE svg PUBLIC "-//W3C//DTD SVG 1.1//EN" "http://www.w3.org/Graphics/SVG/1.1/DTD/svg11.dtd">
<svg xmlns="http://www.w3.org/2000/svg" xml:space="preserve" width="1024px" height="1024px" shape-rendering="geometricPrecision" text-rendering="geometricPrecision" image-rendering="optimizeQuality" fill-rule="nonzero" clip-rule="evenodd" viewBox="0 0 10240 10240" xmlns:xlink="http://www.w3.org/1999/xlink">
	<title>checkbook icon</title>
	<desc>checkbook icon from the IconExperience.com O-Collection. Copyright by INCORS GmbH (www.incors.com).</desc>
	<path id="curve1" fill="#252525" d="M1844 5440l76 0c-176,0 -320,-144 -320,-320l0 -3520c0,-176 144,-320 320,-320l6084 0c-217,139 -426,302 -612,458l-60 0c-215,0 -410,81 -562,234l-1644 1650c-157,158 -220,374 -189,579 -44,18 -83,46 -116,83 -471,524 -918,1135 -1173,1796l-1559 0 -401 1470 1101 770 4662 0 1101 -770 -401 -1470 -1572 0c149,-137 292,-275 428,-411l978 -978c41,-41 69,-91 83,-143 52,-14 102,-42 143,-83l308 -307c39,-40 80,-81 121,-123l0 1085c0,176 -144,320 -320,320l76 0c146,0 270,95 308,236l786 2880c27,99 8,196 -55,278 -62,82 -151,126 -254,126l-8122 0c-103,0 -192,-44 -254,-126 -63,-82 -82,-179 -55,-278l786 -2880c38,-141 162,-236 308,-236z"/>
	<path id="curve0" fill="#252525" d="M8292 3931l-307 308 -950 -950 325 -324 -452 -1 3 -6 -984 988c63,132 40,296 -70,405 -139,139 -365,139 -504,0 -139,-139 -138,-365 0,-504l1644 -1649c92,-93 205,-140 335,-140l179 0c336,-291 761,-612 1130,-748 178,-65 365,-24 499,110l319 319c135,135 176,323 110,501 -243,657 -1075,1490 -1277,1691zm-4367 3359c-92,93 -243,93 -335,0 -93,-92 -93,-243 0,-335l190 -191 335 336 -190 190zm3834 -2825l-978 978c-862,861 -1518,1306 -2094,1516 -120,44 -246,16 -336,-74l-337 -338c-91,-91 -118,-220 -72,-340 183,-480 524,-1050 1117,-1709 20,28 43,54 68,80 264,264 692,264 956,0 143,-144 212,-339 196,-533l530 -530 950 950z"/>
</svg>
