<?xml version="1.0" encoding="UTF-8"?>
<!DOCTYPE svg PUBLIC "-//W3C//DTD SVG 1.1//EN" "http://www.w3.org/Graphics/SVG/1.1/DTD/svg11.dtd">
<svg xmlns="http://www.w3.org/2000/svg" xml:space="preserve" width="1024px" height="1024px" shape-rendering="geometricPrecision" text-rendering="geometricPrecision" image-rendering="optimizeQuality" fill-rule="nonzero" clip-rule="evenodd" viewBox="0 0 10240 10240" xmlns:xlink="http://www.w3.org/1999/xlink">
	<title>chest_open icon</title>
	<desc>chest_open icon from the IconExperience.com O-Collection. Copyright by INCORS GmbH (www.incors.com).</desc>
	<path id="curve2" fill="#252525" d="M8960 4978l0 2626c0,249 -132,462 -354,573l-2687 1343 10 -3015 3031 -1527zm-3359 4542l-3967 -1983c-222,-111 -354,-324 -354,-573l0 -2606c0,-7 0,-13 1,-20l0 1 1599 799 0 424c0,124 66,231 177,286l640 320c213,107 463,-47 463,-286l0 -104 1441 720 0 3022z"/>
	<path id="curve1" fill="#252525" d="M1457 4072l1677 -839 2987 1497c15,9 43,14 56,15l2206 165 -2623 1312 -1600 -800 0 -104c0,-124 -66,-231 -177,-286l-640 -320c-143,-72 -312,-28 -405,100l-1481 -740z"/>
	<path id="curve0" fill="#252525" d="M1774 2200l95 -212c442,-987 1420,-1739 2185,-1681 127,10 240,42 338,91l3996 1998c-921,115 -1792,956 -2175,1764l-99 210 -4340 -2170zm7486 888c138,345 93,830 -140,1351l-92 206 -2595 -202 69 -147c350,-739 1273,-1653 2154,-1590 266,20 485,139 604,382z"/>
</svg>
