<?xml version="1.0" encoding="UTF-8"?>
<!DOCTYPE svg PUBLIC "-//W3C//DTD SVG 1.1//EN" "http://www.w3.org/Graphics/SVG/1.1/DTD/svg11.dtd">
<svg xmlns="http://www.w3.org/2000/svg" xml:space="preserve" width="1024px" height="1024px" shape-rendering="geometricPrecision" text-rendering="geometricPrecision" image-rendering="optimizeQuality" fill-rule="nonzero" clip-rule="evenodd" viewBox="0 0 10240 10240" xmlns:xlink="http://www.w3.org/1999/xlink">
	<title>cloud_rain icon</title>
	<desc>cloud_rain icon from the IconExperience.com O-Collection. Copyright by INCORS GmbH (www.incors.com).</desc>
	<path id="curve1" fill="#252525" d="M3200 8640c0,530 -430,960 -960,960 -530,0 -960,-430 -960,-960 0,-292 177,-610 372,-757l1548 -1163 0 1920zm2240 -1280c0,530 -430,960 -960,960 -530,0 -960,-430 -960,-960 0,-292 177,-610 372,-757l1548 -1163 0 1920zm1920 1280c0,530 -430,960 -960,960 -530,0 -960,-430 -960,-960 0,-292 177,-610 372,-757l1548 -1163 0 1920z"/>
	<path id="curve0" fill="#252525" d="M1920 3039c0,-1325 1075,-2399 2400,-2399 777,0 1492,375 1937,982 100,-15 201,-22 303,-22 1149,0 2080,931 2080,2080 0,11 0,149 0,160 572,292 960,760 960,1440 0,972 -788,1760 -1760,1760l-160 0 0 -320c0,-124 -66,-231 -177,-286 -38,-19 -78,-31 -118,-34l455 0c619,0 1120,-501 1120,-1120 0,-593 -460,-1078 -1043,-1117 54,-151 83,-314 83,-483 0,-795 -645,-1440 -1440,-1440 -218,0 -425,49 -610,135 -262,-642 -893,-1095 -1630,-1095 -972,0 -1760,788 -1760,1760 0,168 23,330 67,483 -752,48 -1347,673 -1347,1437 0,795 645,1440 1440,1440l452 0c-58,5 -114,27 -164,64l-709 533c-947,-195 -1659,-1033 -1659,-2037 0,-861 525,-1606 1280,-1921zm4482 4001l-642 0 0 -640 1572 0c-58,5 -114,27 -164,64l-766 576zm-2766 -640l-411 0c40,3 80,15 118,34 61,30 109,77 139,133 47,-62 99,-118 154,-167z"/>
</svg>
