<?xml version="1.0" encoding="UTF-8"?>
<!DOCTYPE svg PUBLIC "-//W3C//DTD SVG 1.1//EN" "http://www.w3.org/Graphics/SVG/1.1/DTD/svg11.dtd">
<svg xmlns="http://www.w3.org/2000/svg" xml:space="preserve" width="1024px" height="1024px" shape-rendering="geometricPrecision" text-rendering="geometricPrecision" image-rendering="optimizeQuality" fill-rule="nonzero" clip-rule="evenodd" viewBox="0 0 10240 10240" xmlns:xlink="http://www.w3.org/1999/xlink">
	<title>cloud_moon icon</title>
	<desc>cloud_moon icon from the IconExperience.com O-Collection. Copyright by INCORS GmbH (www.incors.com).</desc>
	<path id="curve1" fill="#252525" d="M1554 5742c1,-1277 1037,-2313 2315,-2313 749,0 1438,361 1867,947 97,-15 194,-22 293,-22 1107,0 2005,898 2005,2006 0,10 0,20 0,31 552,282 926,856 926,1512 0,937 -760,1697 -1697,1697 -1646,0 -3292,0 -4937,0 -1108,0 -2006,-898 -2006,-2006 0,-829 506,-1548 1234,-1852zm5783 1083c52,-145 80,-302 80,-465 0,-767 -622,-1389 -1388,-1389 -211,0 -410,47 -589,131 -253,-620 -861,-1056 -1571,-1056 -938,0 -1698,760 -1698,1697 0,161 23,318 65,466 -725,46 -1299,648 -1299,1385 0,767 622,1389 1389,1389 1640,0 3316,0 4937,0 596,0 1080,-484 1080,-1080 0,-572 -444,-1039 -1006,-1078z"/>
	<path id="curve0" fill="#252525" d="M7200 640c1325,0 2400,1075 2400,2400 0,1013 -628,1880 -1516,2232 -267,-504 -714,-897 -1254,-1096 -101,-320 -167,-728 -167,-1136 0,-880 306,-1760 611,-1760 -1013,0 -1834,788 -1834,1760 0,255 57,497 158,716 -233,-203 -499,-363 -786,-473 -8,-80 -12,-161 -12,-243 0,-1325 1075,-2400 2400,-2400z"/>
</svg>
