<?xml version="1.0" encoding="UTF-8"?>
<!DOCTYPE svg PUBLIC "-//W3C//DTD SVG 1.1//EN" "http://www.w3.org/Graphics/SVG/1.1/DTD/svg11.dtd">
<svg xmlns="http://www.w3.org/2000/svg" xml:space="preserve" width="1024px" height="1024px" shape-rendering="geometricPrecision" text-rendering="geometricPrecision" image-rendering="optimizeQuality" fill-rule="nonzero" clip-rule="evenodd" viewBox="0 0 10240 10240" xmlns:xlink="http://www.w3.org/1999/xlink">
	<title>cocktail2 icon</title>
	<desc>cocktail2 icon from the IconExperience.com O-Collection. Copyright by INCORS GmbH (www.incors.com).</desc>
	<path id="curve1" fill="#252525" d="M2505 3200l1338 1338c-2,-19 -3,-39 -3,-58 0,-353 287,-640 640,-640 353,0 640,287 640,640 0,353 -287,640 -640,640 -19,0 -39,-1 -58,-3l245 245c249,249 657,249 906,0l2162 -2162 -5230 0z"/>
	<path id="curve0" fill="#252525" d="M5627 6213c-109,138 -187,276 -187,452l0 1753c0,315 222,589 535,631l1705 231 0 320c-1493,0 -3627,0 -5120,0l0 -320 1705 -231c313,-42 535,-316 535,-631l0 -1753c0,-175 -62,-325 -184,-449l-3750 -3750c-93,-93 -120,-226 -69,-348 50,-123 163,-198 296,-198l8054 0c133,0 246,75 296,198 51,122 24,255 -69,348l-3747 3747zm3520 -3973l-8054 0c0,0 0,0 0,0l3348 3349c374,373 984,373 1358,0l3348 -3349c0,0 0,0 0,0z"/>
</svg>
