<?xml version="1.0" encoding="UTF-8"?>
<!DOCTYPE svg PUBLIC "-//W3C//DTD SVG 1.1//EN" "http://www.w3.org/Graphics/SVG/1.1/DTD/svg11.dtd">
<svg xmlns="http://www.w3.org/2000/svg" xml:space="preserve" width="1024px" height="1024px" shape-rendering="geometricPrecision" text-rendering="geometricPrecision" image-rendering="optimizeQuality" fill-rule="nonzero" clip-rule="evenodd" viewBox="0 0 10240 10240" xmlns:xlink="http://www.w3.org/1999/xlink">
	<title>code_beanshell icon</title>
	<desc>code_beanshell icon from the IconExperience.com O-Collection. Copyright by INCORS GmbH (www.incors.com).</desc>
	<path id="curve2" fill="#252525" d="M6091 6091c759,-758 1570,-957 2272,-664 56,23 92,72 98,132 6,60 -20,115 -71,148 -169,113 -324,240 -466,382 -335,335 -590,749 -764,1241 -141,399 -346,733 -614,1001 -195,195 -425,357 -690,484 -69,34 -151,14 -198,-48 -581,-782 -476,-1767 433,-2676zm3140 29c591,784 488,1774 -425,2686 -761,762 -1577,959 -2281,661 -56,-24 -91,-73 -97,-133 -5,-61 22,-115 73,-148 181,-118 347,-252 498,-403 335,-335 590,-749 764,-1241 141,-399 346,-733 614,-1001 187,-186 405,-342 655,-467 70,-35 152,-16 199,46z"/>
	<path id="curve1" fill="#252525" d="M2560 7680l1920 0 0 640 -1920 0 0 -640zm0 -5760l1920 0 0 640 -1920 0 0 -640zm1280 960l2560 0 0 640 -2560 0 0 -640zm1280 960l2560 0 0 640 -2560 0 0 -640zm0 960l1920 0 0 295c-234,81 -458,199 -669,345l-1251 0 0 -640zm-1280 960l1920 0 0 214c-126,136 -239,278 -339,426l-1581 0 0 -640zm0 960l1393 0c-104,207 -180,422 -221,640l-1172 0 0 -640z"/>
	<path id="curve0" fill="#252525" d="M8960 640l-7680 0 0 8960 4917 0c-49,-68 -80,-150 -87,-238 -14,-155 46,-302 160,-402l-11 0c-85,52 -173,100 -263,144 -207,100 -455,39 -593,-144l-3483 0 0 -7680 6400 0 0 3790c55,18 111,38 167,61 164,69 275,219 292,397 17,173 -58,337 -198,437 98,-65 201,-124 308,-178 23,-11 47,-21 71,-28l0 -5119zm-659 8960l659 0 0 -497c-202,193 -424,363 -659,497z"/>
</svg>
