<?xml version="1.0" encoding="UTF-8"?>
<!DOCTYPE svg PUBLIC "-//W3C//DTD SVG 1.1//EN" "http://www.w3.org/Graphics/SVG/1.1/DTD/svg11.dtd">
<svg xmlns="http://www.w3.org/2000/svg" xml:space="preserve" width="1024px" height="1024px" shape-rendering="geometricPrecision" text-rendering="geometricPrecision" image-rendering="optimizeQuality" fill-rule="nonzero" clip-rule="evenodd" viewBox="0 0 10240 10240" xmlns:xlink="http://www.w3.org/1999/xlink">
	<title>construction_barrier icon</title>
	<desc>construction_barrier icon from the IconExperience.com O-Collection. Copyright by INCORS GmbH (www.incors.com).</desc>
	<path id="curve1" fill="#252525" d="M2880 8960c176,0 320,144 320,320l0 320 -1600 0 0 -320c0,-176 144,-320 320,-320l0 -2240 960 0 0 640 4480 0 0 -640 960 0 0 2240c176,0 320,144 320,320l0 320 -1600 0 0 -320c0,-176 144,-320 320,-320l0 0 0 -640 -4480 0 0 640z"/>
	<path id="curve0" fill="#252525" d="M1600 4480l7040 0c176,0 320,144 320,320l0 1280c0,176 -144,320 -320,320l-7040 0c-176,0 -320,-144 -320,-320l0 -1280c0,-176 144,-320 320,-320zm0 -2240l640 1280 1280 0 -640 -1280 -1280 0zm0 2560l640 1280 1280 0 -640 -1280 -1280 0zm5120 0l640 1280 1280 0 -640 -1280 -1280 0zm-2560 0l640 1280 1280 0 -640 -1280 -1280 0zm2560 -2560l640 1280 1280 0 -640 -1280 -1280 0zm-2560 0l640 1280 1280 0 -640 -1280 -1280 0zm-2560 -320l7040 0c176,0 320,144 320,320l0 1280c0,176 -144,320 -320,320l-7040 0c-176,0 -320,-144 -320,-320l0 -1280c0,-176 144,-320 320,-320z"/>
</svg>
