<?xml version="1.0" encoding="UTF-8"?>
<!DOCTYPE svg PUBLIC "-//W3C//DTD SVG 1.1//EN" "http://www.w3.org/Graphics/SVG/1.1/DTD/svg11.dtd">
<svg xmlns="http://www.w3.org/2000/svg" xml:space="preserve" width="1024px" height="1024px" shape-rendering="geometricPrecision" text-rendering="geometricPrecision" image-rendering="optimizeQuality" fill-rule="nonzero" clip-rule="evenodd" viewBox="0 0 10240 10240" xmlns:xlink="http://www.w3.org/1999/xlink">
	<title>container_ship icon</title>
	<desc>container_ship icon from the IconExperience.com O-Collection. Copyright by INCORS GmbH (www.incors.com).</desc>
	<path id="curve3" fill="#252525" d="M1760 8320c218,394 639,660 1120,660 481,0 897,-264 1117,-654 218,394 640,654 1123,654 483,0 903,-262 1120,-659 219,393 638,659 1120,659 482,0 902,-266 1120,-660 218,394 638,660 1120,660l0 640c-410,0 -799,-130 -1120,-360 -321,230 -710,360 -1120,360 -408,0 -797,-129 -1117,-358 -321,233 -711,358 -1123,358 -411,0 -805,-124 -1126,-356 -320,228 -707,356 -1114,356 -410,0 -799,-130 -1120,-360 -321,230 -710,360 -1120,360l0 -640c482,0 902,-266 1120,-660z"/>
	<path id="curve2" fill="#252525" d="M5126 4634c78,1 151,15 220,40l3934 1406c-4,671 -860,1112 -1173,2223 -180,223 -453,357 -747,357 -350,0 -670,-189 -840,-495 -58,-104 -161,-165 -281,-164 -119,0 -222,61 -279,166 -169,308 -488,493 -840,493 -350,0 -674,-182 -844,-489 -57,-104 -159,-164 -278,-165 -120,0 -222,60 -280,163 -171,304 -489,491 -838,491 -293,0 -567,-134 -747,-357 -313,-1113 -1173,-1558 -1173,-2223 1253,-506 2704,-901 3957,-1406 65,-27 134,-39 209,-40zm1400 1451c-162,-31 -350,84 -419,258 -69,174 6,340 169,372 163,31 351,-84 420,-258 69,-174 -7,-340 -170,-372zm-2810 0c-163,32 -238,198 -169,372 69,174 257,289 419,258 163,-32 239,-198 170,-372 -69,-174 -257,-289 -420,-258z"/>
	<path id="curve1" fill="#252525" d="M1280 2880l2240 0 0 1280 -2240 0 0 -1280zm2560 0l2560 0 0 1280 -2560 0 0 -1280zm2880 0l2240 0 0 1280 -2240 0 0 -1280zm2240 1600l0 1146 -2240 -801 0 -345 2240 0zm-5120 255l0 -255 696 0c-231,89 -463,173 -696,255zm1915 -255l645 0 0 231 -645 -231zm-4475 1132l0 -1132 2240 0 0 365c-747,255 -1501,491 -2240,767z"/>
	<path id="curve0" fill="#252525" d="M2880 1920l960 0 0 -320 1119 0 0 -640 -1119 0 0 -320 2560 0 0 320 -1121 0 0 640 1121 0 0 320 960 0c176,0 320,144 320,320l0 320 -5120 0 0 -320c0,-176 144,-320 320,-320z"/>
</svg>
