<?xml version="1.0" encoding="UTF-8"?>
<!DOCTYPE svg PUBLIC "-//W3C//DTD SVG 1.1//EN" "http://www.w3.org/Graphics/SVG/1.1/DTD/svg11.dtd">
<svg xmlns="http://www.w3.org/2000/svg" xml:space="preserve" width="1024px" height="1024px" shape-rendering="geometricPrecision" text-rendering="geometricPrecision" image-rendering="optimizeQuality" fill-rule="nonzero" clip-rule="evenodd" viewBox="0 0 10240 10240" xmlns:xlink="http://www.w3.org/1999/xlink">
	<title>control_tower icon</title>
	<desc>control_tower icon from the IconExperience.com O-Collection. Copyright by INCORS GmbH (www.incors.com).</desc>
	<path id="curve2" fill="#252525" d="M6720 8960c0,353 -716,640 -1600,640 -884,0 -1600,-287 -1600,-640l0 -2 0 -2328c587,85 1184,90 1600,90 401,0 1003,-9 1600,-100l0 2340z"/>
	<path id="curve1" fill="#252525" d="M8320 5440c-173,477 -822,760 -1814,884l204 -1291c610,-67 1354,-185 1918,-441l-308 848zm-1558 -735l206 -1308c999,-139 1828,-388 2350,-701l-531 1459c-426,315 -1489,487 -2025,550zm-584 1654c-324,27 -677,41 -1058,41 -265,0 -647,-2 -1057,-34l-205 -1302c833,70 1691,70 2524,0l-204 1295zm-2372 -1620l-205 -1301c477,53 988,82 1519,82 531,0 1042,-29 1519,-82l-205 1301c-865,78 -1763,78 -2628,0zm-70 1595c-798,-94 -1610,-326 -1816,-894l-308 -848c564,256 1308,374 1918,441l206 1301zm-2283 -2179l-531 -1459c523,313 1351,562 2350,701l206 1308c-536,-63 -1599,-235 -2025,-550z"/>
	<path id="curve0" fill="#252525" d="M5120 640c1237,0 2240,267 2240,596 0,329 -1003,596 -2240,596 -1237,0 -2240,-267 -2240,-596 0,-329 1003,-596 2240,-596zm2278 178c1318,223 2202,633 2202,1102 0,707 -2006,1280 -4480,1280 -2474,0 -4480,-573 -4480,-1280 0,-469 884,-879 2202,-1102 -180,125 -282,267 -282,418 0,506 1146,916 2560,916 1414,0 2560,-410 2560,-916 0,-151 -102,-293 -282,-418z"/>
</svg>
