<?xml version="1.0" encoding="UTF-8"?>
<!DOCTYPE svg PUBLIC "-//W3C//DTD SVG 1.1//EN" "http://www.w3.org/Graphics/SVG/1.1/DTD/svg11.dtd">
<svg xmlns="http://www.w3.org/2000/svg" xml:space="preserve" width="1024px" height="1024px" shape-rendering="geometricPrecision" text-rendering="geometricPrecision" image-rendering="optimizeQuality" fill-rule="nonzero" clip-rule="evenodd" viewBox="0 0 10240 10240" xmlns:xlink="http://www.w3.org/1999/xlink">
	<title>cork_screwer icon</title>
	<desc>cork_screwer icon from the IconExperience.com O-Collection. Copyright by INCORS GmbH (www.incors.com).</desc>
	<path id="curve1" fill="#252525" d="M6064 4629l-227 226c-63,63 -10,183 45,306 152,342 310,697 -116,1123 -182,182 -473,258 -798,234 -279,-20 -596,-115 -883,-278 -455,-259 -661,-565 -705,-820 -21,-125 -7,-243 36,-345 47,-111 125,-202 225,-265 179,-111 427,-131 682,-12 160,74 230,264 155,425 -74,160 -265,229 -425,155 -9,-4 -17,-8 -24,-11 43,86 157,195 371,318 203,115 422,182 613,196 145,10 257,-5 301,-50 116,-116 50,-266 -14,-410 -147,-329 -288,-646 85,-1018l226 -227 453 453zm-3979 3972c-464,420 -1148,857 -1226,780 -72,-72 301,-669 692,-1126 106,92 230,180 376,263 52,29 105,57 158,83zm1755 -405c-23,32 -47,61 -74,88 -182,182 -474,259 -799,235 -279,-21 -596,-115 -883,-279 -455,-259 -661,-564 -704,-819 -22,-126 -7,-243 36,-346 46,-111 124,-201 225,-264 19,-12 39,-23 59,-32 2,17 5,35 8,53 57,336 311,729 862,1043 329,187 694,296 1018,320 85,6 170,6 252,1zm665 -678c-27,45 -60,87 -96,123 -182,182 -474,259 -799,235 -279,-21 -595,-115 -883,-279 -454,-259 -661,-564 -704,-819 -22,-126 -7,-243 36,-346 46,-111 124,-201 225,-264 30,-19 63,-35 97,-49 2,11 4,22 6,34 32,187 124,391 294,589 33,56 95,122 194,194 106,90 229,178 374,260 329,187 694,296 1017,320 82,6 162,6 239,2zm679 -679c-28,46 -60,87 -96,123 -182,183 -474,259 -799,235 -279,-21 -596,-115 -883,-279 -455,-259 -661,-564 -704,-819 -22,-125 -7,-243 36,-345 46,-112 124,-202 225,-265 30,-19 63,-35 97,-49 2,11 4,23 5,34 32,187 125,391 295,589 33,57 95,122 194,194 105,90 229,178 373,260 330,188 695,296 1018,320 81,6 161,7 239,2z"/>
	<path id="curve0" fill="#252525" d="M5377 690c994,625 1818,1450 2271,1902 452,453 1277,1277 1902,2271 81,128 62,290 -45,397l-774 774c-107,107 -269,125 -396,45 -994,-626 -1819,-1450 -2271,-1903 -453,-452 -1277,-1277 -1903,-2271 -80,-127 -62,-289 45,-396l774 -774c107,-107 269,-126 397,-45z"/>
</svg>
