<?xml version="1.0" encoding="UTF-8"?>
<!DOCTYPE svg PUBLIC "-//W3C//DTD SVG 1.1//EN" "http://www.w3.org/Graphics/SVG/1.1/DTD/svg11.dtd">
<svg xmlns="http://www.w3.org/2000/svg" xml:space="preserve" width="1024px" height="1024px" shape-rendering="geometricPrecision" text-rendering="geometricPrecision" image-rendering="optimizeQuality" fill-rule="nonzero" clip-rule="evenodd" viewBox="0 0 10240 10240" xmlns:xlink="http://www.w3.org/1999/xlink">
	<title>correction_fluid icon</title>
	<desc>correction_fluid icon from the IconExperience.com O-Collection. Copyright by INCORS GmbH (www.incors.com).</desc>
	<path id="curve2" fill="#252525" d="M3520 3200l1280 0c176,0 320,144 320,320l0 960 640 0c353,0 640,288 640,640l0 3840c0,352 -288,640 -640,640l-3200 0c-352,0 -640,-287 -640,-640l0 -3840c0,-353 288,-640 640,-640l640 0 0 -960c0,-176 144,-320 320,-320zm-640 2560l0 1600 2560 0 0 -1600 -2560 0z"/>
	<path id="curve1" fill="#252525" d="M7360 7040l640 0 243 1217c20,98 -3,189 -66,266 -63,77 -148,117 -247,117l-500 0c-99,0 -184,-40 -247,-117 -63,-77 -86,-168 -66,-266l243 -1217z"/>
	<path id="curve0" fill="#252525" d="M8960 1280l0 2560c0,176 -144,320 -320,320l-640 0 0 2560 -640 0 0 -2560 -640 0c-176,0 -320,-144 -320,-320 0,-853 0,-1707 0,-2560 0,-353 288,-640 640,-640 427,0 853,0 1280,0 353,0 640,287 640,640z"/>
</svg>
