<?xml version="1.0" encoding="UTF-8"?>
<!DOCTYPE svg PUBLIC "-//W3C//DTD SVG 1.1//EN" "http://www.w3.org/Graphics/SVG/1.1/DTD/svg11.dtd">
<svg xmlns="http://www.w3.org/2000/svg" xml:space="preserve" width="1024px" height="1024px" shape-rendering="geometricPrecision" text-rendering="geometricPrecision" image-rendering="optimizeQuality" fill-rule="nonzero" clip-rule="evenodd" viewBox="0 0 10240 10240" xmlns:xlink="http://www.w3.org/1999/xlink">
	<title>credit_card icon</title>
	<desc>credit_card icon from the IconExperience.com O-Collection. Copyright by INCORS GmbH (www.incors.com).</desc>
	<path id="curve2" fill="#252525" d="M6400 5440c127,0 249,25 360,70 -223,230 -360,544 -360,890 0,346 137,660 360,890 -111,45 -233,70 -360,70 -530,0 -960,-430 -960,-960 0,-530 430,-960 960,-960z"/>
	<path id="curve1" fill="#252525" d="M7680 5440c-530,0 -960,430 -960,960 0,530 430,960 960,960 530,0 960,-430 960,-960 0,-530 -430,-960 -960,-960z"/>
	<path id="curve0" fill="#252525" d="M1280 1920l7680 0c353,0 640,288 640,640l0 5120c0,352 -288,640 -640,640l-7680 0c-352,0 -640,-288 -640,-640l0 -5120c0,-353 288,-640 640,-640zm6080 640c-176,0 -320,144 -320,320l0 1280c0,176 144,320 320,320l1280 0c176,0 320,-144 320,-320l0 -1280c0,-176 -144,-320 -320,-320l-1280 0zm-1600 2560c-353,0 -640,287 -640,640l0 1280c0,353 287,640 640,640l2560 0c353,0 640,-287 640,-640l0 -1280c0,-353 -287,-640 -640,-640l-2560 0z"/>
</svg>
