<?xml version="1.0" encoding="UTF-8"?>
<!DOCTYPE svg PUBLIC "-//W3C//DTD SVG 1.1//EN" "http://www.w3.org/Graphics/SVG/1.1/DTD/svg11.dtd">
<svg xmlns="http://www.w3.org/2000/svg" xml:space="preserve" width="1024px" height="1024px" shape-rendering="geometricPrecision" text-rendering="geometricPrecision" image-rendering="optimizeQuality" fill-rule="nonzero" clip-rule="evenodd" viewBox="0 0 10240 10240" xmlns:xlink="http://www.w3.org/1999/xlink">
	<title>currency_dollar icon</title>
	<desc>currency_dollar icon from the IconExperience.com O-Collection. Copyright by INCORS GmbH (www.incors.com).</desc>
	<path id="curve0" fill="#252525" d="M5120 640c2474,0 4480,2006 4480,4480 0,2474 -2006,4480 -4480,4480 -2474,0 -4480,-2006 -4480,-4480 0,-2474 2006,-4480 4480,-4480zm-320 1280l0 320 -480 0c-970,0 -1760,790 -1760,1760 0,970 790,1760 1760,1760l480 0 0 960 -480 0c-203,0 -384,-130 -452,-320l-1301 0c82,903 845,1600 1753,1600l480 0 0 320 640 0 0 -320 480 0c970,0 1760,-790 1760,-1760 0,-970 -790,-1760 -1760,-1760l-480 0 0 -960 480 0c203,0 384,130 452,320l1301 0c-82,-903 -845,-1600 -1753,-1600l-480 0 0 -320 -640 0zm640 3840l0 960 480 0c264,0 480,-216 480,-480 0,-264 -216,-480 -480,-480l-480 0zm-640 -1280l-480 0c-264,0 -480,-216 -480,-480 0,-264 216,-480 480,-480l480 0 0 960z"/>
</svg>
