<?xml version="1.0" encoding="UTF-8"?>
<!DOCTYPE svg PUBLIC "-//W3C//DTD SVG 1.1//EN" "http://www.w3.org/Graphics/SVG/1.1/DTD/svg11.dtd">
<svg xmlns="http://www.w3.org/2000/svg" xml:space="preserve" width="1024px" height="1024px" shape-rendering="geometricPrecision" text-rendering="geometricPrecision" image-rendering="optimizeQuality" fill-rule="nonzero" clip-rule="evenodd" viewBox="0 0 10240 10240" xmlns:xlink="http://www.w3.org/1999/xlink">
	<title>data_scroll icon</title>
	<desc>data_scroll icon from the IconExperience.com O-Collection. Copyright by INCORS GmbH (www.incors.com).</desc>
	<path id="curve1" fill="#252525" d="M1280 640l4480 0c353,0 640,288 640,640l0 960c0,352 -288,640 -640,640l0 0c353,0 640,288 640,640l-1599 0c-707,0 -1280,573 -1280,1280l0 2560 -2241 0c-352,0 -640,-288 -640,-640l0 -960c0,-353 287,-640 640,-640l0 0c-352,0 -640,-288 -640,-640l0 -960c0,-353 287,-640 640,-640l0 0c-352,0 -640,-288 -640,-640l0 -960c0,-353 288,-640 640,-640zm128 5120c-71,0 -128,72 -128,160l0 640c0,88 58,160 128,160l2112 0 0 -960 -2112 0zm0 -4480c-71,0 -128,72 -128,160l0 640c0,88 58,160 128,160l2112 0 0 -960 -2112 0zm0 2240c-71,0 -128,72 -128,160l0 640c0,88 58,160 128,160l2112 0 0 -960 -2112 0z"/>
	<path id="curve0" fill="#252525" d="M4480 7360l-639 0 0 -1600 0 -960c0,-530 429,-960 960,-960l3840 0c530,0 960,430 960,960 0,530 -430,960 -960,960l0 -640c176,0 320,-143 320,-320 20,0 -35,-320 -320,-320 -177,0 -320,143 -320,320l0 3840c0,530 -430,960 -960,960l-3840 0c-13,0 -26,0 -38,-1 -522,-20 -933,-455 -923,-978 10,-522 438,-941 960,-941l640 0 320 0 2561 0c176,0 320,144 320,320l0 86c0,117 -59,218 -160,277 -96,55 -160,159 -160,277 0,177 143,320 320,320 176,0 320,-143 320,-320l0 -905 0 -2935c0,-112 19,-220 54,-320l-2934 0c-177,0 -320,143 -320,320l-1 2560zm1975 1600c-72,-206 -72,-434 0,-640l-2934 0c-177,0 -320,144 -320,320 0,177 143,320 320,320l2934 0z"/>
</svg>
