<?xml version="1.0" encoding="UTF-8"?>
<!DOCTYPE svg PUBLIC "-//W3C//DTD SVG 1.1//EN" "http://www.w3.org/Graphics/SVG/1.1/DTD/svg11.dtd">
<svg xmlns="http://www.w3.org/2000/svg" xml:space="preserve" width="1024px" height="1024px" shape-rendering="geometricPrecision" text-rendering="geometricPrecision" image-rendering="optimizeQuality" fill-rule="nonzero" clip-rule="evenodd" viewBox="0 0 10240 10240" xmlns:xlink="http://www.w3.org/1999/xlink">
	<title>data_network icon</title>
	<desc>data_network icon from the IconExperience.com O-Collection. Copyright by INCORS GmbH (www.incors.com).</desc>
	<path id="curve1" fill="#252525" d="M5440 8640c176,0 320,144 320,320l1280 0 0 640 -1280 0c0,176 -144,320 -320,320l-640 0c-176,0 -320,-144 -320,-320l-1280 0 0 -640 1280 0c0,-176 144,-320 320,-320l0 -640 640 0 0 640z"/>
	<path id="curve0" fill="#252525" d="M3200 960l3840 0c353,0 640,288 640,640l0 960c0,352 -288,640 -640,640l0 0c353,0 640,288 640,640l0 960c0,352 -288,640 -640,640l0 0c353,0 640,288 640,640l0 960c0,352 -288,640 -640,640l-3840 0c-352,0 -640,-287 -640,-640l0 -960c0,-352 287,-640 640,-640l0 0c-352,0 -640,-287 -640,-640l0 -960c0,-352 287,-640 640,-640l0 0c-352,0 -640,-287 -640,-640l0 -960c0,-352 288,-640 640,-640zm128 5120c-71,0 -128,72 -128,160l0 640c0,88 58,160 128,160l1792 0 0 -960 -1792 0zm0 -4480c-71,0 -128,72 -128,160l0 640c0,88 58,160 128,160l1792 0 0 -960 -1792 0zm0 2240c-71,0 -128,72 -128,160l0 640c0,88 58,160 128,160l1792 0 0 -960 -1792 0z"/>
</svg>
