<?xml version="1.0" encoding="UTF-8"?>
<!DOCTYPE svg PUBLIC "-//W3C//DTD SVG 1.1//EN" "http://www.w3.org/Graphics/SVG/1.1/DTD/svg11.dtd">
<svg xmlns="http://www.w3.org/2000/svg" xml:space="preserve" width="1024px" height="1024px" shape-rendering="geometricPrecision" text-rendering="geometricPrecision" image-rendering="optimizeQuality" fill-rule="nonzero" clip-rule="evenodd" viewBox="0 0 10240 10240" xmlns:xlink="http://www.w3.org/1999/xlink">
	<title>delivery_note icon</title>
	<desc>delivery_note icon from the IconExperience.com O-Collection. Copyright by INCORS GmbH (www.incors.com).</desc>
	<path id="curve2" fill="#252525" d="M1920 640l5230 0c352,0 656,126 905,375l1170 1170c249,249 375,553 375,905l0 6510 -4573 0 1280 -640 2653 0 0 -5440c0,-176 -144,-320 -320,-320l-1600 0 0 -1600c0,-176 -144,-320 -320,-320l-4160 0 0 2240 -640 320 0 -3200zm5760 960l0 960 960 0 -960 -960z"/>
	<path id="curve1" fill="#252525" d="M1893 5379l2957 -1476 960 480 -2957 1476c-84,41 -133,121 -133,214l0 812 -960 -480 0 -812c0,-93 49,-173 133,-214z"/>
	<path id="curve0" fill="#252525" d="M994 4661l2400 -1200c186,-93 386,-93 572,0l523 261 -715 358 -94 -47 -1987 994 94 47 -37 18c-192,96 -310,287 -310,501l0 20 -160 -80 0 2467 2080 1040 0 -2467 -320 -160 0 -290 422 -211 218 108 1987 -993 -218 -109 716 -358 201 101c222,111 354,324 354,572l0 2767c0,248 -132,461 -354,572l-2400 1200c-186,93 -386,93 -572,0l-2400 -1200c-222,-111 -354,-324 -354,-572l0 -2767c0,-248 132,-461 354,-572zm5086 872l-2080 1040 0 2467 2080 -1040 0 -2467z"/>
</svg>
