<?xml version="1.0" encoding="UTF-8"?>
<!DOCTYPE svg PUBLIC "-//W3C//DTD SVG 1.1//EN" "http://www.w3.org/Graphics/SVG/1.1/DTD/svg11.dtd">
<svg xmlns="http://www.w3.org/2000/svg" xml:space="preserve" width="1024px" height="1024px" shape-rendering="geometricPrecision" text-rendering="geometricPrecision" image-rendering="optimizeQuality" fill-rule="nonzero" clip-rule="evenodd" viewBox="0 0 10240 10240" xmlns:xlink="http://www.w3.org/1999/xlink">
	<title>desk icon</title>
	<desc>desk icon from the IconExperience.com O-Collection. Copyright by INCORS GmbH (www.incors.com).</desc>
	<path id="curve4" fill="#252525" d="M7360 8960c177,0 320,143 320,320 0,177 -143,320 -320,320 -177,0 -320,-143 -320,-320 0,-177 143,-320 320,-320zm-1280 0c177,0 320,143 320,320 0,177 -143,320 -320,320 -177,0 -320,-143 -320,-320 0,-177 143,-320 320,-320zm-1280 0c177,0 320,143 320,320 0,177 -143,320 -320,320 -177,0 -320,-143 -320,-320 0,-177 143,-320 320,-320z"/>
	<path id="curve3" fill="#252525" d="M4787 8640l973 -640 0 -320 640 0 0 320 973 640c-4,0 -9,0 -13,0 -170,0 -324,66 -438,174l-522 -174 0 86c-94,-55 -203,-86 -320,-86 -117,0 -226,31 -320,86l0 -86 -522 174c-114,-108 -268,-174 -438,-174 -4,0 -9,0 -13,0z"/>
	<path id="curve2" fill="#252525" d="M8000 4800l0 0c176,0 320,144 320,320l0 320 -640 0 0 -320c0,-176 144,-320 320,-320zm148 1920c-222,382 -636,640 -1108,640l-1920 0c-472,0 -886,-258 -1108,-640l4136 0zm-4308 -1280l0 -320c0,-176 144,-320 320,-320l0 0c176,0 320,144 320,320l0 320 -640 0z"/>
	<path id="curve1" fill="#252525" d="M4480 4480c0,-640 0,-1920 1600,-1920 1600,0 1600,1280 1600,1920l0 86c-191,111 -320,318 -320,554l0 320 -2560 0 0 -320c0,-236 -129,-443 -320,-554l0 -86z"/>
	<path id="curve0" fill="#252525" d="M8320 9600l0 -3200 -4480 0 0 2240c0,177 -143,320 -320,320l-1600 0 0 640 -640 0 0 -3200 -960 0 0 -640 9600 0 0 640 -960 0 0 3200 -640 0z"/>
</svg>
