<?xml version="1.0" encoding="UTF-8"?>
<!DOCTYPE svg PUBLIC "-//W3C//DTD SVG 1.1//EN" "http://www.w3.org/Graphics/SVG/1.1/DTD/svg11.dtd">
<svg xmlns="http://www.w3.org/2000/svg" xml:space="preserve" width="1024px" height="1024px" shape-rendering="geometricPrecision" text-rendering="geometricPrecision" image-rendering="optimizeQuality" fill-rule="nonzero" clip-rule="evenodd" viewBox="0 0 10240 10240" xmlns:xlink="http://www.w3.org/1999/xlink">
	<title>desktop icon</title>
	<desc>desktop icon from the IconExperience.com O-Collection. Copyright by INCORS GmbH (www.incors.com).</desc>
	<path id="curve2" fill="#252525" d="M8553 3739l508 508c128,128 128,338 0,466l-2271 2271c-44,44 -93,72 -154,87l-935 234c-59,15 -118,-2 -161,-45 -43,-43 -60,-102 -45,-161l234 -935c15,-61 43,-110 87,-154l2271 -2271c128,-128 338,-128 466,0z"/>
	<path id="curve1" fill="#252525" d="M1280 1280l1280 0 -1920 1920 0 -1280c0,-353 287,-640 640,-640zm7680 0l-1280 0 1920 1920 0 -1280c0,-353 -287,-640 -640,-640zm0 7680l-1280 0 1920 -1920 0 1280c0,353 -287,640 -640,640zm-7680 0l1280 0 -1920 -1920 0 1280c0,353 287,640 640,640z"/>
	<path id="curve0" fill="#252525" d="M3013 1280l4214 0 2373 2373 0 2934 -2373 2373 -4214 0 -2373 -2373 0 -2934 2373 -2373zm187 1280l0 5120 3840 0 0 -493 0 -14 2240 -2240c250,-250 250,-656 0,-906l-507 -507c-250,-250 -656,-250 -906,0l-827 827 0 -14 0 -1773 -3840 0z"/>
</svg>
