<?xml version="1.0" encoding="UTF-8"?>
<!DOCTYPE svg PUBLIC "-//W3C//DTD SVG 1.1//EN" "http://www.w3.org/Graphics/SVG/1.1/DTD/svg11.dtd">
<svg xmlns="http://www.w3.org/2000/svg" xml:space="preserve" width="1024px" height="1024px" shape-rendering="geometricPrecision" text-rendering="geometricPrecision" image-rendering="optimizeQuality" fill-rule="nonzero" clip-rule="evenodd" viewBox="0 0 10240 10240" xmlns:xlink="http://www.w3.org/1999/xlink">
	<title>devil icon</title>
	<desc>devil icon from the IconExperience.com O-Collection. Copyright by INCORS GmbH (www.incors.com).</desc>
	<path id="curve3" fill="#252525" d="M8320 8470c0,810 -1920,1130 -3200,1130 -1280,0 -3200,-320 -3200,-1129 0,-1760 582,-2029 1663,-2835 14,9 29,18 44,27 -38,81 -40,174 -2,261 24,55 47,111 70,167 148,367 274,742 408,1114 134,374 269,749 442,1107 82,170 227,438 368,557 120,103 294,103 414,0 141,-119 286,-387 368,-557 173,-358 308,-733 442,-1107 134,-372 260,-747 408,-1114 23,-56 46,-112 70,-167 38,-87 36,-180 -2,-261 15,-9 30,-18 44,-27 1082,807 1663,1074 1663,2834z"/>
	<path id="curve2" fill="#252525" d="M3919 5796c365,168 772,261 1201,261 429,0 836,-93 1201,-261 -27,63 -51,122 -72,175 -150,370 -278,751 -413,1126 -129,359 -263,732 -429,1075 -42,87 -187,368 -287,454 -100,-86 -245,-367 -287,-454 -166,-343 -300,-716 -429,-1075 -135,-375 -263,-756 -413,-1126 -21,-53 -45,-112 -72,-175z"/>
	<path id="curve1" fill="#252525" d="M5120 640c625,0 1197,224 1641,596 -11,4 -22,8 -33,11 -449,126 -336,796 -243,1125 93,328 297,789 687,826 136,13 263,-31 370,-113 45,-34 87,-70 128,-107 7,73 10,147 10,222 0,1414 -1146,2560 -2560,2560 -1414,0 -2560,-1146 -2560,-2560 0,-75 3,-149 10,-222 41,37 83,73 128,107 107,82 234,126 370,113 390,-37 594,-498 687,-826 93,-329 206,-999 -242,-1125 -12,-3 -23,-7 -34,-11 444,-372 1016,-596 1641,-596z"/>
	<path id="curve0" fill="#252525" d="M2892 2831c-393,-301 -652,-780 -652,-1323 0,-283 70,-550 193,-782 31,-60 91,-92 156,-85 65,7 117,51 136,115 91,308 381,710 702,800 271,75 -91,1615 -535,1275zm4456 0c393,-301 652,-780 652,-1323 0,-283 -70,-550 -193,-782 -31,-60 -90,-92 -156,-85 -65,7 -117,51 -136,115 -91,308 -381,710 -701,800 -272,75 91,1615 534,1275z"/>
</svg>
