<?xml version="1.0" encoding="UTF-8"?>
<!DOCTYPE svg PUBLIC "-//W3C//DTD SVG 1.1//EN" "http://www.w3.org/Graphics/SVG/1.1/DTD/svg11.dtd">
<svg xmlns="http://www.w3.org/2000/svg" xml:space="preserve" width="1024px" height="1024px" shape-rendering="geometricPrecision" text-rendering="geometricPrecision" image-rendering="optimizeQuality" fill-rule="nonzero" clip-rule="evenodd" viewBox="0 0 10240 10240" xmlns:xlink="http://www.w3.org/1999/xlink">
	<title>document_gear icon</title>
	<desc>document_gear icon from the IconExperience.com O-Collection. Copyright by INCORS GmbH (www.incors.com).</desc>
	<path id="curve1" fill="#252525" d="M1280 640l5230 0c352,0 656,126 905,375l1170 1170c249,249 375,553 375,905l0 6510 -7680 0 0 -8960zm5760 960l0 960 960 0 -960 -960zm-5120 -320l0 7680 6400 0 0 -5440c0,-176 -144,-320 -320,-320l-1600 0 0 -1600c0,-176 -144,-320 -320,-320l-4160 0z"/>
	<path id="curve0" fill="#252525" d="M6281 4198c63,48 123,99 180,153 24,23 56,31 88,22l502 -136c78,-22 157,8 202,75 73,110 134,217 192,336 35,72 20,155 -38,212l-373 362c-24,23 -33,55 -26,87 18,77 31,155 40,234 3,33 22,59 52,73l473 218c73,34 115,108 106,188 -15,131 -37,252 -69,380 -20,78 -85,132 -165,138l-520 38c-33,2 -60,20 -75,50 -36,70 -76,138 -120,203 -18,28 -21,61 -7,91l222 470c34,73 19,156 -40,212 -95,91 -191,170 -298,247 -66,47 -150,47 -215,0l-422 -305c-27,-20 -60,-24 -90,-11 -72,31 -146,57 -221,79 -32,9 -55,33 -63,65l-133 503c-21,78 -86,131 -166,136 -132,9 -257,8 -389,-2 -80,-7 -144,-61 -164,-139l-127 -505c-8,-32 -31,-56 -63,-66 -74,-22 -146,-49 -217,-81 -30,-13 -63,-10 -90,9l-425 300c-66,47 -151,46 -215,-2 -107,-79 -202,-159 -297,-252 -57,-56 -72,-139 -37,-212l228 -469c14,-30 12,-62 -6,-90 -42,-65 -80,-131 -114,-200 -15,-30 -42,-48 -75,-51l-520 -43c-80,-7 -144,-62 -163,-140 -31,-130 -52,-252 -65,-385 -8,-80 34,-153 108,-185l475 -213c31,-14 50,-40 54,-73 9,-77 23,-152 41,-227 8,-32 -1,-64 -25,-87l-370 -367c-57,-57 -71,-140 -35,-213 59,-119 121,-226 196,-336 46,-66 125,-95 203,-73l501 143c32,9 63,1 88,-22 56,-53 115,-102 178,-148 26,-20 40,-49 37,-82l-48 -520c-7,-80 36,-153 109,-185 121,-54 238,-96 366,-132 77,-21 157,7 202,74l292 431c19,28 48,42 81,40 78,-4 156,-4 234,1 33,3 63,-12 82,-39l298 -429c45,-66 125,-94 202,-71 127,37 243,80 363,134 74,33 116,106 108,186l-53 518c-4,33 9,63 36,83zm-1161 602c-530,0 -960,430 -960,960 0,530 430,960 960,960 530,0 960,-430 960,-960 0,-530 -430,-960 -960,-960z"/>
</svg>
