<?xml version="1.0" encoding="UTF-8"?>
<!DOCTYPE svg PUBLIC "-//W3C//DTD SVG 1.1//EN" "http://www.w3.org/Graphics/SVG/1.1/DTD/svg11.dtd">
<svg xmlns="http://www.w3.org/2000/svg" xml:space="preserve" width="1024px" height="1024px" shape-rendering="geometricPrecision" text-rendering="geometricPrecision" image-rendering="optimizeQuality" fill-rule="nonzero" clip-rule="evenodd" viewBox="0 0 10240 10240" xmlns:xlink="http://www.w3.org/1999/xlink">
	<title>document_chart icon</title>
	<desc>document_chart icon from the IconExperience.com O-Collection. Copyright by INCORS GmbH (www.incors.com).</desc>
	<path id="curve1" fill="#252525" d="M2560 3840l5032 0 -668 1671 -298 -297 -226 -227 -226 227 -478 478 -433 -217 -286 -143 -142 285 -497 996 -355 -178 -207 -103 -162 162 -640 640 -414 413 0 -3707zm5120 1499l0 2981 -4987 0 733 -734 478 -478 434 217 285 143 142 -285 498 -996 355 178 206 103 162 -162 414 -413 414 413 342 343 180 -450 344 -860z"/>
	<path id="curve0" fill="#252525" d="M1280 640l5230 0c352,0 656,126 905,375l1170 1170c249,249 375,553 375,905l0 6510 -7680 0 0 -8960zm5760 960l0 960 960 0 -960 -960zm-5120 -320l0 7680 6400 0 0 -5440c0,-176 -144,-320 -320,-320l-1600 0 0 -1600c0,-176 -144,-320 -320,-320l-4160 0z"/>
</svg>
