<?xml version="1.0" encoding="UTF-8"?>
<!DOCTYPE svg PUBLIC "-//W3C//DTD SVG 1.1//EN" "http://www.w3.org/Graphics/SVG/1.1/DTD/svg11.dtd">
<svg xmlns="http://www.w3.org/2000/svg" xml:space="preserve" width="1024px" height="1024px" shape-rendering="geometricPrecision" text-rendering="geometricPrecision" image-rendering="optimizeQuality" fill-rule="nonzero" clip-rule="evenodd" viewBox="0 0 10240 10240" xmlns:xlink="http://www.w3.org/1999/xlink">
	<title>document_notebook icon</title>
	<desc>document_notebook icon from the IconExperience.com O-Collection. Copyright by INCORS GmbH (www.incors.com).</desc>
	<path id="curve1" fill="#252525" d="M2240,7680 3520,7680 3520,6720 2240,6720 2240,6400 3520,6400 3520,5440 2240,5440 2240,5120 3520,5120 3520,4160 2240,4160 2240,3840 3520,3840 3520,2880 2240,2880 2240,2560 3520,2560 3520,1600 3840,1600 3840,2560 6080,2560 6080,2880 3840,2880 3840,3840 8000,3840 8000,4160 3840,4160 3840,5120 8000,5120 8000,5440 3840,5440 3840,6400 8000,6400 8000,6720 3840,6720 3840,7680 8000,7680 8000,8000 3840,8000 3840,8640 3520,8640 3520,8000 2240,8000z"/>
	<path id="curve0" fill="#252525" d="M1280 640l5230 0c352,0 656,126 905,375l1170 1170c249,249 375,553 375,905l0 6510 -7680 0 0 -8960zm640 640l0 7680 6400 0 0 -5440c0,-176 -144,-320 -320,-320l-1600 0 0 -1600c0,-176 -144,-320 -320,-320l-4160 0zm5120 320l0 960 960 0 -960 -960z"/>
</svg>
