<?xml version="1.0" encoding="UTF-8"?>
<!DOCTYPE svg PUBLIC "-//W3C//DTD SVG 1.1//EN" "http://www.w3.org/Graphics/SVG/1.1/DTD/svg11.dtd">
<svg xmlns="http://www.w3.org/2000/svg" xml:space="preserve" width="1024px" height="1024px" shape-rendering="geometricPrecision" text-rendering="geometricPrecision" image-rendering="optimizeQuality" fill-rule="nonzero" clip-rule="evenodd" viewBox="0 0 10240 10240" xmlns:xlink="http://www.w3.org/1999/xlink">
	<title>door_open icon</title>
	<desc>door_open icon from the IconExperience.com O-Collection. Copyright by INCORS GmbH (www.incors.com).</desc>
	<path id="curve1" fill="#252525" d="M1920 640l3520 0 0 640 -2880 0 0 7680 -640 0 0 -8320zm3520 8000l0 320 -2560 0 0 -320 2560 0zm1731 -8000l1149 0 0 8320 -320 0 0 -7514 -829 -806z"/>
	<path id="curve0" fill="#252525" d="M6400 320l1280 1280 0 7360 -1280 640 -640 0 0 -9280 640 0zm640 5120l320 0 0 -320 -480 0 -160 0 -160 0 0 0c-88,0 -160,143 -160,320 0,177 72,320 160,320l0 0 0 0 320 0 0 0c88,0 160,-143 160,-320z"/>
</svg>
