<?xml version="1.0" encoding="UTF-8"?>
<!DOCTYPE svg PUBLIC "-//W3C//DTD SVG 1.1//EN" "http://www.w3.org/Graphics/SVG/1.1/DTD/svg11.dtd">
<svg xmlns="http://www.w3.org/2000/svg" xml:space="preserve" width="1024px" height="1024px" shape-rendering="geometricPrecision" text-rendering="geometricPrecision" image-rendering="optimizeQuality" fill-rule="nonzero" clip-rule="evenodd" viewBox="0 0 10240 10240" xmlns:xlink="http://www.w3.org/1999/xlink">
	<title>download icon</title>
	<desc>download icon from the IconExperience.com O-Collection. Copyright by INCORS GmbH (www.incors.com).</desc>
	<path id="curve1" fill="#252525" d="M7173 7813l-1827 1826c-124,124 -328,124 -452,0l-1827 -1826c-124,-125 -187,-277 -187,-453l0 -1159c0,-142 172,-214 273,-113l1327 1327 0 -2135c0,-88 72,-160 160,-160l960 0c88,0 160,72 160,160l0 2135 1327 -1327c101,-101 273,-29 273,113l0 1159c0,176 -63,328 -187,453z"/>
	<path id="curve0" fill="#252525" d="M5120 320c2121,0 3840,1719 3840,3840 0,1137 -494,2159 -1280,2862l0 -821c0,-37 -4,-72 -11,-106 408,-537 651,-1208 651,-1935 0,-195 -17,-385 -51,-571 -10,-4 -20,-5 -30,-2 -55,17 -59,193 -119,293 -49,82 -158,92 -176,116 -118,160 276,289 105,511 -74,95 -297,310 -356,588 -127,590 -44,237 -232,704 -177,-113 -425,-112 -600,63l-469 469c-4,-19 -8,-38 -11,-56 -23,-133 -162,-302 -148,-408 22,-163 35,-216 38,-404 1,-8 -112,-462 -131,-502 -84,-179 -222,-259 -416,-192 -151,52 -278,-24 -398,-73 -239,-96 -350,-409 -400,-664 0,-1 36,-401 38,-423 7,-105 57,-205 113,-286 430,-616 329,-352 883,-550 92,-33 227,-39 277,-22 247,86 235,340 489,383 29,5 161,-76 191,-71 156,28 304,174 440,105 82,-41 124,-195 51,-250 -70,-54 -178,-14 -255,-69 -113,-81 -207,32 -302,-76 -43,-49 -118,-202 -174,-283 -60,-86 -240,-51 -211,-11 93,124 229,144 246,213 20,75 -175,174 -123,38 28,-71 -111,-117 -273,-201 -84,-44 -166,-158 -294,-97 -63,30 -182,180 -229,251 -81,121 -266,88 -389,28 -122,-60 -125,-355 34,-484 152,-123 276,-48 424,-90 61,-17 91,-82 181,-143 107,-72 -66,-186 -8,-303 47,-94 204,-114 287,-154 78,-39 165,-104 251,-53 117,70 244,77 360,149 117,72 214,123 317,139 -495,-441 -1127,-731 -1824,-797 95,102 185,243 146,329 -53,119 -130,268 -361,353 -171,64 -396,67 -568,141 -177,77 -354,71 -456,95 -160,37 8,-527 -39,-591 -69,-93 -496,-13 -533,84 -86,226 115,417 106,461 -18,86 -16,427 -97,515 -124,133 -439,254 -481,260 -203,29 -250,237 -403,359 -64,51 -388,391 -439,496 -141,287 -4,470 60,527 110,99 155,109 277,147 49,15 511,253 636,382 128,132 192,269 321,346 155,95 439,201 477,274 163,318 117,757 -318,1083l-375 -374c-207,-207 -516,-171 -689,10 -21,-94 -45,-177 -81,-218 -169,-195 -324,-352 -356,-550 -29,-181 -133,-444 -152,-587 -20,-158 -81,-328 -179,-470 -1,37 -2,75 -2,113 0,727 243,1398 651,1935 -7,34 -11,69 -11,106l0 821c-785,-703 -1280,-1725 -1280,-2862 0,-2121 1719,-3840 3840,-3840z"/>
</svg>
