<?xml version="1.0" encoding="UTF-8"?>
<!DOCTYPE svg PUBLIC "-//W3C//DTD SVG 1.1//EN" "http://www.w3.org/Graphics/SVG/1.1/DTD/svg11.dtd">
<svg xmlns="http://www.w3.org/2000/svg" xml:space="preserve" width="1024px" height="1024px" shape-rendering="geometricPrecision" text-rendering="geometricPrecision" image-rendering="optimizeQuality" fill-rule="nonzero" clip-rule="evenodd" viewBox="0 0 10240 10240" xmlns:xlink="http://www.w3.org/1999/xlink">
	<title>drum icon</title>
	<desc>drum icon from the IconExperience.com O-Collection. Copyright by INCORS GmbH (www.incors.com).</desc>
	<path id="curve2" fill="#252525" d="M1280 3840l7680 0c176,0 320,144 320,320l0 640c0,176 -144,320 -320,320l0 3200c176,0 320,144 320,320l0 640c0,176 -144,320 -320,320l-7680 0c-176,0 -320,-144 -320,-320l0 -640c0,-176 144,-320 320,-320l0 -3200c-176,0 -320,-144 -320,-320l0 -640c0,-176 144,-320 320,-320zm640 2434l317 -1154 -317 0 0 1154zm6400 -1154l-317 0 317 1154 0 -1154zm-1155 0l-1587 0 907 2474 680 -2474zm-2503 0l-1587 0 680 2474 907 -2474zm3559 3200l-637 -2318 -637 2318 1274 0zm-2151 0l-950 -2592 -950 2592 1900 0zm-2777 0l-637 -2318 -637 2318 1274 0z"/>
	<path id="curve1" fill="#252525" d="M3200 2240c156,0 299,55 410,148l123 -45 924 340 -826 305c-51,302 -314,532 -631,532 -353,0 -640,-287 -640,-640 0,-354 287,-640 640,-640zm2383 -579l3587 -1321c166,-61 350,24 410,190 61,165 -24,349 -190,410l-2883 1062 -924 -341z"/>
	<path id="curve0" fill="#252525" d="M7040 2240c-156,0 -299,55 -410,148l-5560 -2048c-166,-61 -350,24 -410,190 -61,165 24,349 190,410l5559 2048c51,302 314,532 631,532 353,0 640,-287 640,-640 0,-354 -287,-640 -640,-640z"/>
</svg>
