<?xml version="1.0" encoding="UTF-8"?>
<!DOCTYPE svg PUBLIC "-//W3C//DTD SVG 1.1//EN" "http://www.w3.org/Graphics/SVG/1.1/DTD/svg11.dtd">
<svg xmlns="http://www.w3.org/2000/svg" xml:space="preserve" width="1024px" height="1024px" shape-rendering="geometricPrecision" text-rendering="geometricPrecision" image-rendering="optimizeQuality" fill-rule="nonzero" clip-rule="evenodd" viewBox="0 0 10240 10240" xmlns:xlink="http://www.w3.org/1999/xlink">
	<title>dude6 icon</title>
	<desc>dude6 icon from the IconExperience.com O-Collection. Copyright by INCORS GmbH (www.incors.com).</desc>
	<path id="curve3" fill="#252525" d="M8320 8470c0,683 -1365,1017 -2560,1106l0 -2216c0,-814 1382,-1398 1996,-971 356,592 564,1308 564,2081zm-3840 1106c-1195,-89 -2560,-423 -2560,-1105 0,-773 208,-1490 564,-2082 614,-427 1996,157 1996,971l0 2216z"/>
	<path id="curve2" fill="#252525" d="M8008 6180c96,-192 115,-404 -8,-625 -115,-207 -392,-435 -640,-435l-109 0c-543,594 -1312,939 -2131,939 -819,0 -1588,-345 -2131,-939l-109 0c-248,0 -525,228 -640,435 -123,221 -104,433 -8,625 8,-7 16,-14 25,-21 430,-337 1071,-266 1543,-62 508,221 1000,670 1000,1263l0 2234c110,4 217,6 320,6 103,0 210,-2 320,-6l0 -2234c0,-79 9,-158 27,-235 111,-483 537,-839 973,-1028 472,-204 1113,-275 1543,62 9,7 17,14 25,21z"/>
	<path id="curve1" fill="#252525" d="M7238 4622c-461,674 -1238,1117 -2118,1117 -880,0 -1657,-443 -2118,-1117 122,-117 198,-281 198,-462l0 -1920c0,-54 -7,-108 -20,-160 398,-690 1135,-1120 1940,-1120 805,0 1542,430 1940,1120 -13,52 -20,106 -20,160l0 1920c0,181 76,345 198,462zm-518 -1422l0 -640c0,-176 -144,-320 -320,-320l-2560 0c-176,0 -320,144 -320,320l0 640c0,176 144,320 320,320l640 0c176,0 320,-144 320,-320l0 -320c0,-176 144,-320 320,-320l0 0c176,0 320,144 320,320l0 320c0,176 144,320 320,320l640 0c176,0 320,-144 320,-320z"/>
	<path id="curve0" fill="#252525" d="M5120 320c1131,0 2109,652 2580,1600l300 0c353,0 640,287 640,640l0 1280c0,352 -288,640 -640,640l-320 0c-176,0 -320,-144 -320,-320l0 -1920c0,-66 20,-127 54,-177 -419,-843 -1289,-1423 -2294,-1423 -1005,0 -1875,580 -2294,1423 34,50 54,111 54,177l0 1920c0,176 -144,320 -320,320l-320 0c-352,0 -640,-287 -640,-640l0 -1280c0,-353 287,-640 640,-640l300 0c471,-948 1449,-1600 2580,-1600z"/>
</svg>
