<?xml version="1.0" encoding="UTF-8"?>
<!DOCTYPE svg PUBLIC "-//W3C//DTD SVG 1.1//EN" "http://www.w3.org/Graphics/SVG/1.1/DTD/svg11.dtd">
<svg xmlns="http://www.w3.org/2000/svg" xml:space="preserve" width="1024px" height="1024px" shape-rendering="geometricPrecision" text-rendering="geometricPrecision" image-rendering="optimizeQuality" fill-rule="nonzero" clip-rule="evenodd" viewBox="0 0 10240 10240" xmlns:xlink="http://www.w3.org/1999/xlink">
	<title>dude4 icon</title>
	<desc>dude4 icon from the IconExperience.com O-Collection. Copyright by INCORS GmbH (www.incors.com).</desc>
	<path id="curve3" fill="#252525" d="M8320 8470c0,336 -331,588 -810,768 108,-332 170,-605 170,-768 0,-1678 -422,-1999 -1212,-2725 65,-34 128,-70 189,-109 1082,807 1663,1074 1663,2834zm-1140 874c-636,178 -1427,256 -2060,256 -633,0 -1424,-78 -2060,-256 -113,-379 -180,-693 -180,-873 0,-1633 351,-1982 1006,-2668 374,177 792,277 1234,277 442,0 860,-100 1234,-277 656,686 1006,1034 1006,2667 0,180 -67,494 -180,874zm-4450 -106c-479,-180 -810,-431 -810,-767 0,-1760 582,-2029 1663,-2835 61,39 124,75 189,109 -789,726 -1212,1049 -1212,2726 0,162 62,435 170,767z"/>
	<path id="curve2" fill="#252525" d="M7664 2906c11,93 16,188 16,283 0,1408 -1146,2550 -2560,2550 -1414,0 -2560,-1142 -2560,-2550 0,-26 1,-51 1,-77 74,485 375,728 623,728 355,0 640,-640 1920,-640 1280,0 1246,640 1920,640 282,0 631,-311 640,-934z"/>
	<path id="curve1" fill="#252525" d="M7024 3520c-674,0 -640,-640 -1920,-640 -1280,0 -1565,640 -1920,640 -285,0 -640,-320 -640,-960 0,-13 1,-26 1,-39 103,-329 1206,-589 2551,-589 1398,0 2534,280 2560,628l8 0c0,640 -354,960 -640,960z"/>
	<path id="curve0" fill="#252525" d="M2562 2058c112,-1531 786,-2058 2238,-2058 320,0 304,0 624,0 1470,0 2119,529 2225,2069 -655,-419 -2101,-457 -2553,-457 -447,0 -1872,37 -2534,446z"/>
</svg>
