<?xml version="1.0" encoding="UTF-8"?>
<!DOCTYPE svg PUBLIC "-//W3C//DTD SVG 1.1//EN" "http://www.w3.org/Graphics/SVG/1.1/DTD/svg11.dtd">
<svg xmlns="http://www.w3.org/2000/svg" xml:space="preserve" width="1024px" height="1024px" shape-rendering="geometricPrecision" text-rendering="geometricPrecision" image-rendering="optimizeQuality" fill-rule="nonzero" clip-rule="evenodd" viewBox="0 0 10240 10240" xmlns:xlink="http://www.w3.org/1999/xlink">
	<title>earth_link icon</title>
	<desc>earth_link icon from the IconExperience.com O-Collection. Copyright by INCORS GmbH (www.incors.com).</desc>
	<path id="curve1" fill="#252525" d="M5120 8000l2560 0c176,0 320,144 320,320 0,176 -144,320 -320,320l-2560 0c-176,0 -320,-144 -320,-320 0,-176 144,-320 320,-320zm-640 -960l640 0c472,0 886,258 1108,640l-1748 0c-353,0 -640,287 -640,640 0,352 287,640 640,640l1748 0c-222,382 -636,640 -1108,640l-640 0c-705,0 -1280,-575 -1280,-1280 0,-705 575,-1280 1280,-1280zm2092 1920c222,382 636,640 1108,640l640 0c705,0 1280,-575 1280,-1280 0,-705 -575,-1280 -1280,-1280l-640 0c-472,0 -886,258 -1108,640l1748 0c353,0 640,288 640,640 0,352 -288,640 -640,640l-1748 0z"/>
	<path id="curve0" fill="#252525" d="M4800 640c2297,0 4160,1862 4160,4160 0,696 -171,1352 -473,1929 -55,-6 -111,-9 -167,-9l-570 0c361,-552 570,-1212 570,-1920 0,-194 -16,-384 -46,-570 -34,-36 -68,-59 -95,-51 -60,19 -64,209 -129,318 -53,89 -172,99 -191,125 -128,174 299,313 114,554 -80,103 -321,336 -386,637 -137,640 -47,254 -252,766 -14,34 -32,111 -52,191 -351,91 -663,299 -883,591 -68,-90 -145,-173 -230,-247l0 0c-1,-7 -3,-15 -4,-23 -25,-144 -175,-327 -160,-441 23,-178 38,-235 41,-438 1,-9 -122,-501 -142,-544 -91,-194 -240,-281 -450,-209 -164,57 -302,-25 -432,-78 -258,-105 -379,-443 -433,-720 -1,-1 39,-434 41,-457 8,-115 61,-223 123,-311 465,-667 356,-381 956,-596 100,-36 246,-42 300,-23 267,93 254,368 530,414 31,6 174,-82 207,-76 168,30 329,188 477,114 88,-45 134,-212 55,-272 -76,-58 -193,-15 -276,-74 -123,-88 -225,35 -328,-83 -46,-53 -128,-219 -188,-306 -65,-93 -260,-55 -229,-13 101,135 248,157 267,231 21,82 -189,189 -133,42 29,-78 -121,-127 -296,-218 -91,-47 -181,-171 -319,-105 -68,33 -197,195 -248,271 -88,132 -288,96 -422,31 -132,-65 -135,-385 37,-524 165,-134 300,-52 460,-98 65,-18 98,-89 196,-155 116,-78 -71,-201 -9,-327 51,-103 221,-124 311,-168 84,-42 179,-112 272,-57 127,75 265,83 390,161 159,98 282,160 429,156 -566,-524 -1304,-865 -2121,-928 120,110 267,305 218,416 -58,129 -142,290 -392,383 -185,69 -428,71 -614,152 -193,84 -384,77 -495,103 -174,40 9,-571 -42,-640 -75,-101 -538,-14 -577,90 -93,245 124,452 114,500 -19,93 -17,463 -105,558 -134,145 -475,276 -520,282 -221,31 -272,257 -437,389 -70,55 -420,423 -476,537 -152,311 -4,509 65,571 119,107 168,118 301,160 52,16 552,273 689,413 138,143 207,291 346,375 169,102 477,218 517,297 185,358 122,861 -406,1217 -137,92 -417,244 -347,499 20,74 23,141 38,202l16 11 0 -1c-55,162 -85,336 -85,516 0,60 3,118 10,176 -1337,-692 -2250,-2087 -2250,-3696 0,-2298 1862,-4160 4160,-4160zm-2179 6924c-158,-195 -306,-399 -359,-529 -74,-183 -94,-515 -183,-617 -183,-210 -351,-381 -385,-595 -31,-196 -144,-481 -164,-636 -26,-197 -109,-411 -245,-577 -3,63 -5,126 -5,190 0,1121 524,2120 1341,2764z"/>
</svg>
