<?xml version="1.0" encoding="UTF-8"?>
<!DOCTYPE svg PUBLIC "-//W3C//DTD SVG 1.1//EN" "http://www.w3.org/Graphics/SVG/1.1/DTD/svg11.dtd">
<svg xmlns="http://www.w3.org/2000/svg" xml:space="preserve" width="1024px" height="1024px" shape-rendering="geometricPrecision" text-rendering="geometricPrecision" image-rendering="optimizeQuality" fill-rule="nonzero" clip-rule="evenodd" viewBox="0 0 10240 10240" xmlns:xlink="http://www.w3.org/1999/xlink">
	<title>earth_music icon</title>
	<desc>earth_music icon from the IconExperience.com O-Collection. Copyright by INCORS GmbH (www.incors.com).</desc>
	<path id="curve1" fill="#252525" d="M4480 320c1780,0 3277,1211 3712,2854l-2886 619c-297,63 -506,322 -506,626l0 326c-39,-16 -77,-34 -114,-49 -239,-96 -350,-409 -400,-664 0,-1 36,-401 38,-423 7,-105 57,-205 113,-286 430,-616 329,-352 883,-550 92,-33 227,-39 277,-22 247,86 235,340 489,383 29,5 161,-76 191,-71 156,28 304,174 440,105 82,-41 124,-195 51,-250 -70,-54 -178,-14 -255,-69 -113,-81 -207,32 -302,-76 -43,-49 -118,-202 -174,-283 -60,-86 -240,-51 -211,-11 93,124 229,144 246,213 20,75 -175,174 -123,38 28,-71 -111,-117 -273,-201 -84,-44 -166,-158 -294,-97 -63,30 -182,180 -229,251 -81,121 -266,88 -389,28 -122,-60 -125,-355 34,-484 152,-123 276,-48 424,-90 61,-17 91,-82 181,-143 107,-72 -66,-186 -8,-303 47,-94 204,-114 287,-154 78,-39 165,-104 251,-53 117,70 244,77 360,149 117,72 214,123 317,139 -494,-441 -1127,-731 -1824,-797 95,102 185,243 146,329 -53,119 -130,268 -361,353 -171,64 -396,67 -568,141 -177,77 -354,71 -456,95 -160,37 8,-527 -39,-591 -69,-93 -496,-13 -533,84 -86,226 115,417 106,461 -18,86 -16,427 -97,515 -124,133 -439,254 -481,260 -203,29 -250,237 -403,359 -64,51 -388,391 -439,496 -141,287 -4,470 60,527 110,99 155,109 277,147 49,15 511,253 636,382 128,132 192,269 321,346 155,95 439,201 477,274 170,331 112,795 -375,1124 -127,85 -385,225 -321,460 12,43 17,83 23,121 497,318 1088,502 1721,502 108,0 215,-5 320,-16l0 226c-111,11 -221,33 -327,63 -219,62 -442,169 -646,311 -1810,-310 -3187,-1886 -3187,-3784 0,-2121 1719,-3840 3840,-3840zm-2158 6203c-84,-115 -153,-222 -184,-300 -69,-168 -88,-476 -169,-569 -169,-195 -324,-352 -356,-550 -29,-181 -133,-444 -152,-587 -20,-158 -81,-328 -179,-470 -1,37 -2,75 -2,113 0,936 402,1778 1042,2363zm5926 -1621c-240,1225 -1063,2242 -2168,2750l0 -720c706,-409 1241,-1079 1473,-1878l695 -152zm-2168 1765l0 -1290 957 -210c-104,490 -36,183 -217,635 -29,71 -79,344 -120,405 -127,193 -415,404 -620,460z"/>
	<path id="curve0" fill="#252525" d="M8960 4418l-3200 702 0 3440c0,530 -537,1113 -1200,1301 -663,188 -1200,-89 -1200,-619 0,-530 537,-1113 1200,-1301 202,-57 393,-72 560,-48l0 -3474c0,-153 104,-281 253,-313l3840 -823c200,-43 387,108 387,313l0 4324c0,530 -537,1113 -1200,1301 -663,188 -1200,-89 -1200,-619 0,-530 537,-1113 1200,-1301 202,-57 393,-72 560,-48l0 -2835z"/>
</svg>
