<?xml version="1.0" encoding="UTF-8"?>
<!DOCTYPE svg PUBLIC "-//W3C//DTD SVG 1.1//EN" "http://www.w3.org/Graphics/SVG/1.1/DTD/svg11.dtd">
<svg xmlns="http://www.w3.org/2000/svg" xml:space="preserve" width="1024px" height="1024px" shape-rendering="geometricPrecision" text-rendering="geometricPrecision" image-rendering="optimizeQuality" fill-rule="nonzero" clip-rule="evenodd" viewBox="0 0 10240 10240" xmlns:xlink="http://www.w3.org/1999/xlink">
	<title>emoticon_angry icon</title>
	<desc>emoticon_angry icon from the IconExperience.com O-Collection. Copyright by INCORS GmbH (www.incors.com).</desc>
	<path id="curve2" fill="#252525" d="M7515 7040c-517,-772 -1397,-1280 -2395,-1280 -998,0 -1878,508 -2395,1280 -53,79 -67,168 -43,260 24,92 81,161 166,204l103 52c132,65 285,35 383,-75 409,-462 1057,-761 1786,-761 729,0 1377,299 1786,761 98,110 251,140 383,75l103 -52c85,-43 142,-112 166,-204 24,-92 10,-181 -43,-260z"/>
	<path id="curve1" fill="#252525" d="M7056 4274l-860 -430 860 -431c157,-79 221,-271 142,-429l-143 -286c-79,-158 -272,-222 -429,-143l-1502 752 -1502 -752c-158,-79 -351,-15 -429,143l-144 286c-79,158 -14,350 143,429l860 431 -860 430c-157,79 -222,272 -143,430l144 286c78,158 271,222 429,143l1502 -752 1502 752c157,79 350,15 429,-143l143 -286c79,-158 15,-351 -142,-430z"/>
	<path id="curve0" fill="#252525" d="M5120 640c2474,0 4480,2006 4480,4480 0,2474 -2006,4480 -4480,4480 -2474,0 -4480,-2006 -4480,-4480 0,-2474 2006,-4480 4480,-4480zm0 640c-2121,0 -3840,1719 -3840,3840 0,2121 1719,3840 3840,3840 2121,0 3840,-1719 3840,-3840 0,-2121 -1719,-3840 -3840,-3840z"/>
</svg>
