<?xml version="1.0" encoding="UTF-8"?>
<!DOCTYPE svg PUBLIC "-//W3C//DTD SVG 1.1//EN" "http://www.w3.org/Graphics/SVG/1.1/DTD/svg11.dtd">
<svg xmlns="http://www.w3.org/2000/svg" xml:space="preserve" width="1024px" height="1024px" shape-rendering="geometricPrecision" text-rendering="geometricPrecision" image-rendering="optimizeQuality" fill-rule="nonzero" clip-rule="evenodd" viewBox="0 0 10240 10240" xmlns:xlink="http://www.w3.org/1999/xlink">
	<title>film_cartridge icon</title>
	<desc>film_cartridge icon from the IconExperience.com O-Collection. Copyright by INCORS GmbH (www.incors.com).</desc>
	<path id="curve2" fill="#252525" d="M640 2880l4480 0 0 5120 -4480 0 0 -5120zm960 640c-177,0 -320,143 -320,320l0 3200c0,177 143,320 320,320 177,0 320,-143 320,-320l0 -3200c0,-177 -143,-320 -320,-320z"/>
	<path id="curve1" fill="#252525" d="M480 8320l4800 0c88,0 160,72 160,160l0 320c0,88 -72,160 -160,160l-4800 0c-88,0 -160,-72 -160,-160l0 -320c0,-88 72,-160 160,-160zm1440 -6400l0 -320c0,-176 144,-320 320,-320l1280 0c176,0 320,144 320,320l0 320 1440 0c88,0 160,72 160,160l0 320c0,88 -72,160 -160,160l-4800 0c-88,0 -160,-72 -160,-160l0 -320c0,-88 72,-160 160,-160l1440 0z"/>
	<path id="curve0" fill="#252525" d="M5440 2880l3840 0c353,0 640,288 640,640l0 1920c0,352 -288,640 -640,640l-320 0c-352,0 -640,288 -640,640l0 640c0,352 -288,640 -640,640l-2240 0 0 -5120zm1600 4160l0 640 640 0 0 -640 -640 0zm-1280 -3840l0 640 640 0 0 -640 -640 0zm1280 0l0 640 640 0 0 -640 -640 0zm1280 0l0 640 640 0 0 -640 -640 0zm-2560 3840l0 640 640 0 0 -640 -640 0z"/>
</svg>
