<?xml version="1.0" encoding="UTF-8"?>
<!DOCTYPE svg PUBLIC "-//W3C//DTD SVG 1.1//EN" "http://www.w3.org/Graphics/SVG/1.1/DTD/svg11.dtd">
<svg xmlns="http://www.w3.org/2000/svg" xml:space="preserve" width="1024px" height="1024px" shape-rendering="geometricPrecision" text-rendering="geometricPrecision" image-rendering="optimizeQuality" fill-rule="nonzero" clip-rule="evenodd" viewBox="0 0 10240 10240" xmlns:xlink="http://www.w3.org/1999/xlink">
	<title>filter_and_sort icon</title>
	<desc>filter_and_sort icon from the IconExperience.com O-Collection. Copyright by INCORS GmbH (www.incors.com).</desc>
	<path id="curve2" fill="#252525" d="M9093 6399l-1187 -1186c-124,-124 -328,-124 -452,0l-1187 1186c-124,125 -187,277 -187,453l0 839c0,66 38,122 99,148 61,25 127,12 174,-35l687 -687 0 2323c0,88 72,160 160,160l960 0c88,0 160,-72 160,-160l0 -2323 687 687c47,46 113,60 174,35 61,-26 99,-82 99,-148l0 -839c0,-176 -63,-328 -187,-453z"/>
	<path id="curve1" fill="#252525" d="M3973 8321l-1187 1186c-124,124 -328,124 -452,0l-1187 -1186c-124,-125 -187,-277 -187,-453l0 -839c0,-66 38,-122 99,-148 61,-25 127,-12 174,35l687 687 0 -2323c0,-88 72,-160 160,-160l960 0c88,0 160,72 160,160l0 2323 687 -687c47,-46 113,-60 174,-35 61,26 99,82 99,148l0 839c0,176 -63,328 -187,453z"/>
	<path id="curve0" fill="#252525" d="M2560 1280l1 0c25,-355 1161,-640 2559,-640 1398,0 2534,285 2559,640l1 0 0 12 0 550c0,265 -94,492 -281,679l-1319 1319c-187,187 -270,415 -281,679l-39 921c0,640 -1358,1280 -1358,640l39 -1561c7,-264 -94,-492 -281,-679l-1319 -1319c-187,-187 -281,-414 -281,-679l0 -550 0 -12zm2560 -320c-1060,0 -1920,143 -1920,320 0,177 860,320 1920,320 1060,0 1920,-143 1920,-320 0,-177 -860,-320 -1920,-320z"/>
</svg>
