<?xml version="1.0" encoding="UTF-8"?>
<!DOCTYPE svg PUBLIC "-//W3C//DTD SVG 1.1//EN" "http://www.w3.org/Graphics/SVG/1.1/DTD/svg11.dtd">
<svg xmlns="http://www.w3.org/2000/svg" xml:space="preserve" width="1024px" height="1024px" shape-rendering="geometricPrecision" text-rendering="geometricPrecision" image-rendering="optimizeQuality" fill-rule="nonzero" clip-rule="evenodd" viewBox="0 0 10240 10240" xmlns:xlink="http://www.w3.org/1999/xlink">
	<title>folder3_document icon</title>
	<desc>folder3_document icon from the IconExperience.com O-Collection. Copyright by INCORS GmbH (www.incors.com).</desc>
	<path id="curve1" fill="#252525" d="M5676 3200l1474 0c352,0 656,126 905,375l1170 1170c249,249 375,553 375,905l0 3950 -3858 0c12,-49 18,-100 18,-153l0 -487 3200 0 0 -2880c0,-176 -144,-320 -320,-320l-1600 0 0 -1600c0,-176 -144,-320 -320,-320l-960 0 0 -320c0,-116 -30,-225 -84,-320zm2004 960l0 960 960 0 -960 -960z"/>
	<path id="curve0" fill="#252525" d="M1304 640l7336 0c176,0 320,144 320,320l0 1975c0,176 -63,328 -187,452l-227 227 -265 -265c-64,-64 -131,-122 -202,-173l241 -241c0,0 0,0 0,0 0,0 0,0 0,0l0 -1655 -640 0 0 1687c-166,-58 -343,-87 -530,-87l-1907 0 -4057 -1623c-144,-57 -225,-205 -195,-358 29,-151 158,-259 313,-259zm-664 6710c0,401 231,743 603,891l3758 1503c102,41 208,30 298,-32 91,-61 141,-155 141,-265l0 -5927c0,-134 -77,-248 -201,-297l-4197 -1669c-246,-98 -402,-336 -402,-594 0,2130 0,4260 0,6390z"/>
</svg>
