<?xml version="1.0" encoding="UTF-8"?>
<!DOCTYPE svg PUBLIC "-//W3C//DTD SVG 1.1//EN" "http://www.w3.org/Graphics/SVG/1.1/DTD/svg11.dtd">
<svg xmlns="http://www.w3.org/2000/svg" xml:space="preserve" width="1024px" height="1024px" shape-rendering="geometricPrecision" text-rendering="geometricPrecision" image-rendering="optimizeQuality" fill-rule="nonzero" clip-rule="evenodd" viewBox="0 0 10240 10240" xmlns:xlink="http://www.w3.org/1999/xlink">
	<title>folder_music icon</title>
	<desc>folder_music icon from the IconExperience.com O-Collection. Copyright by INCORS GmbH (www.incors.com).</desc>
	<path id="curve1" fill="#252525" d="M3630 640c352,0 656,126 905,375l530 530c249,249 553,375 905,375l1710 0c353,0 640,288 640,640l0 320 -640 0 0 -320 -1710 0c-522,0 -988,-193 -1357,-562l-531 -531c-129,-129 -270,-187 -452,-187l-2350 0 0 6080c0,176 144,320 320,320 176,0 320,-144 320,-320 0,-1173 0,-2347 0,-3520 0,-353 287,-640 640,-640l5513 0 -2767 593c-297,63 -506,322 -506,626l0 3151c-111,11 -221,33 -327,63 -383,109 -783,357 -1062,687l-1811 0c-529,0 -960,-431 -960,-960 0,-2027 0,-4053 0,-6080 0,-353 287,-640 640,-640 783,0 1567,0 2350,0zm3283 7680l-833 0 0 -2943 2560 -561 0 2114c-111,11 -221,33 -327,63 -603,171 -1247,687 -1400,1327z"/>
	<path id="curve0" fill="#252525" d="M8960 4418l-3200 702 0 3440c0,530 -537,1113 -1200,1301 -663,188 -1200,-89 -1200,-619 0,-530 537,-1113 1200,-1301 202,-57 393,-72 560,-48l0 -3474c0,-153 104,-281 253,-313l3840 -823c200,-43 387,108 387,313l0 4324c0,530 -537,1113 -1200,1301 -663,188 -1200,-89 -1200,-619 0,-530 537,-1113 1200,-1301 202,-57 393,-72 560,-48l0 -2835z"/>
</svg>
