<?xml version="1.0" encoding="UTF-8"?>
<!DOCTYPE svg PUBLIC "-//W3C//DTD SVG 1.1//EN" "http://www.w3.org/Graphics/SVG/1.1/DTD/svg11.dtd">
<svg xmlns="http://www.w3.org/2000/svg" xml:space="preserve" width="1024px" height="1024px" shape-rendering="geometricPrecision" text-rendering="geometricPrecision" image-rendering="optimizeQuality" fill-rule="nonzero" clip-rule="evenodd" viewBox="0 0 10240 10240" xmlns:xlink="http://www.w3.org/1999/xlink">
	<title>fork_lift icon</title>
	<desc>fork_lift icon from the IconExperience.com O-Collection. Copyright by INCORS GmbH (www.incors.com).</desc>
	<path id="curve2" fill="#252525" d="M7680 1280l0 7360 1920 0 0 320 -640 320 -1600 0c-177,0 -320,-143 -320,-320l0 -7680 640 0z"/>
	<path id="curve1" fill="#252525" d="M5440 9600c-707,0 -1280,-573 -1280,-1280 0,-707 573,-1280 1280,-1280 707,0 1280,573 1280,1280 0,707 -573,1280 -1280,1280zm0 -640c353,0 640,-287 640,-640 0,-353 -287,-640 -640,-640 -353,0 -640,287 -640,640 0,353 287,640 640,640zm-3840 -640c-177,0 -320,143 -320,320 0,177 143,320 320,320 177,0 320,-143 320,-320 0,-177 -143,-320 -320,-320zm0 -640c530,0 960,430 960,960 0,530 -430,960 -960,960 -530,0 -960,-430 -960,-960 0,-530 430,-960 960,-960z"/>
	<path id="curve0" fill="#252525" d="M1920 5440l640 0 0 -2240c0,-353 287,-640 640,-640l1779 0c280,0 518,172 607,438l1068 3205c46,137 66,260 66,405l0 752c-292,-389 -757,-640 -1280,-640 -884,0 -1600,716 -1600,1600 0,228 48,444 133,640l-1133 0c26,-102 40,-210 40,-320 0,-707 -573,-1280 -1280,-1280 -382,0 -725,168 -960,433l0 -1073c0,-705 575,-1280 1280,-1280zm3814 63l-755 -2303 -1778 0 -1 2560c0,176 144,320 320,320l1928 0c173,0 325,-139 320,-312l-3 -86c-2,-64 -12,-118 -31,-179z"/>
</svg>
