<?xml version="1.0" encoding="UTF-8"?>
<!DOCTYPE svg PUBLIC "-//W3C//DTD SVG 1.1//EN" "http://www.w3.org/Graphics/SVG/1.1/DTD/svg11.dtd">
<svg xmlns="http://www.w3.org/2000/svg" xml:space="preserve" width="1024px" height="1024px" shape-rendering="geometricPrecision" text-rendering="geometricPrecision" image-rendering="optimizeQuality" fill-rule="nonzero" clip-rule="evenodd" viewBox="0 0 10240 10240" xmlns:xlink="http://www.w3.org/1999/xlink">
	<title>lightbulb_off icon</title>
	<desc>lightbulb_off icon from the IconExperience.com O-Collection. Copyright by INCORS GmbH (www.incors.com).</desc>
	<path id="curve1" fill="#252525" d="M6720 7533l0 1427c0,353 -287,640 -640,640l0 0 0 0 0 0c0,176 -216,320 -480,320l-960 0c-264,0 -480,-144 -480,-320l0 0 0 0 0 0c-353,0 -640,-287 -640,-640l0 -1427c139,49 286,78 427,98 382,53 787,49 1173,49 386,0 791,4 1173,-49 141,-20 288,-49 427,-98z"/>
	<path id="curve0" fill="#252525" d="M5120 320c1920,0 3200,1600 3200,2880 0,1600 -1280,2240 -1280,3200l0 320c0,640 -960,640 -1920,640 -960,0 -1920,0 -1920,-640l0 -320c0,-960 -1280,-1600 -1280,-3200 0,-1600 1280,-2880 3200,-2880zm-1280 6311c274,98 1061,89 1280,89 219,0 1006,9 1280,-89l0 -231c0,-1240 1280,-1846 1280,-3200 0,-540 -320,-1095 -693,-1467 -500,-501 -1159,-773 -1867,-773 -1346,0 -2560,810 -2560,2240 0,1354 1280,1961 1280,3200l0 231z"/>
</svg>
