<?xml version="1.0" encoding="UTF-8"?>
<!DOCTYPE svg PUBLIC "-//W3C//DTD SVG 1.1//EN" "http://www.w3.org/Graphics/SVG/1.1/DTD/svg11.dtd">
<svg xmlns="http://www.w3.org/2000/svg" xml:space="preserve" width="1024px" height="1024px" shape-rendering="geometricPrecision" text-rendering="geometricPrecision" image-rendering="optimizeQuality" fill-rule="nonzero" clip-rule="evenodd" viewBox="0 0 10240 10240" xmlns:xlink="http://www.w3.org/1999/xlink">
	<title>signal_strength_2 icon</title>
	<desc>signal_strength_2 icon from the IconExperience.com O-Collection. Copyright by INCORS GmbH (www.incors.com).</desc>
	<path id="curve0" fill="#252525" d="M1280 6400l1280 0 0 -960c0,-176 144,-320 320,-320l1280 0 0 -960c0,-176 144,-320 320,-320l1280 0 0 -960c0,-176 144,-320 320,-320l1280 0 0 -960c0,-176 144,-320 320,-320l1600 0c176,0 320,144 320,320l0 7680c0,176 -144,320 -320,320l-8000 0c-176,0 -320,-144 -320,-320l0 -2560c0,-176 144,-320 320,-320zm1280 640l-960 0 0 1920 960 0 0 -1920zm1600 -1280l-960 0 0 3200 960 0 0 -3200z"/>
</svg>
