<?xml version="1.0" encoding="UTF-8"?>
<!DOCTYPE svg PUBLIC "-//W3C//DTD SVG 1.1//EN" "http://www.w3.org/Graphics/SVG/1.1/DTD/svg11.dtd">
<svg xmlns="http://www.w3.org/2000/svg" xml:space="preserve" width="1024px" height="1024px" shape-rendering="geometricPrecision" text-rendering="geometricPrecision" image-rendering="optimizeQuality" fill-rule="nonzero" clip-rule="evenodd" viewBox="0 0 10240 10240" xmlns:xlink="http://www.w3.org/1999/xlink">
	<title>sign_warning_harmful icon</title>
	<desc>sign_warning_harmful icon from the IconExperience.com O-Collection. Copyright by INCORS GmbH (www.incors.com).</desc>
	<path id="curve1" fill="#252525" d="M5680 1282l3846 6712c117,205 117,439 0,644 -117,205 -319,322 -554,322l-7691 0c-234,0 -436,-117 -553,-322 -117,-205 -117,-439 0,-644l3846 -6712c117,-205 318,-322 553,-322 235,0 436,117 553,322zm-560 318l-3840 6720 7680 0 -3840 -6720z"/>
	<path id="curve0" fill="#252525" d="M6720,5440 6080,4800 5120,5760 4160,4800 3520,5440 4480,6400 3520,7360 4160,8000 5120,7040 6080,8000 6720,7360 5760,6400z"/>
</svg>
