<?xml version="1.0" encoding="UTF-8"?>
<!DOCTYPE svg PUBLIC "-//W3C//DTD SVG 1.1//EN" "http://www.w3.org/Graphics/SVG/1.1/DTD/svg11.dtd">
<svg xmlns="http://www.w3.org/2000/svg" xml:space="preserve" width="1024px" height="1024px" shape-rendering="geometricPrecision" text-rendering="geometricPrecision" image-rendering="optimizeQuality" fill-rule="nonzero" clip-rule="evenodd" viewBox="0 0 10240 10240" xmlns:xlink="http://www.w3.org/1999/xlink">
	<title>sledge icon</title>
	<desc>sledge icon from the IconExperience.com O-Collection. Copyright by INCORS GmbH (www.incors.com).</desc>
	<path id="curve1" fill="#252525" d="M7680 5440l640 0 0 1600 960 0c177,0 320,143 320,320 0,177 -143,320 -320,320l-5760 0c-795,0 -1515,-322 -2036,-844 -522,-521 -844,-1241 -844,-2036 0,-366 70,-729 206,-1069 65,-164 251,-243 415,-178 164,66 243,252 177,415 -106,266 -158,546 -158,832 0,619 251,1179 656,1584 405,405 965,656 1584,656l320 0 0 -1600 640 0 0 1600 3200 0 0 -1600z"/>
	<path id="curve0" fill="#252525" d="M1626 4480l7974 0 0 640 -7973 0c-18,-105 -27,-212 -27,-320 0,-108 9,-215 26,-320z"/>
</svg>
