<?xml version="1.0" encoding="UTF-8"?>
<!DOCTYPE svg PUBLIC "-//W3C//DTD SVG 1.1//EN" "http://www.w3.org/Graphics/SVG/1.1/DTD/svg11.dtd">
<svg xmlns="http://www.w3.org/2000/svg" xml:space="preserve" width="1024px" height="1024px" shape-rendering="geometricPrecision" text-rendering="geometricPrecision" image-rendering="optimizeQuality" fill-rule="nonzero" clip-rule="evenodd" viewBox="0 0 10240 10240" xmlns:xlink="http://www.w3.org/1999/xlink">
	<title>slingshot icon</title>
	<desc>slingshot icon from the IconExperience.com O-Collection. Copyright by INCORS GmbH (www.incors.com).</desc>
	<path id="curve2" fill="#252525" d="M8000 3520c353,0 640,287 640,640 0,353 -287,640 -640,640 -353,0 -640,-287 -640,-640 0,-353 287,-640 640,-640z"/>
	<path id="curve1" fill="#252525" d="M6400 2880c0,-274 -100,-551 -289,-795 40,-53 82,-101 127,-146 112,-112 237,-196 371,-252 247,314 392,673 424,1039 594,98 1324,99 1921,2 -37,-419 -223,-745 -494,-977 -366,-314 -889,-471 -1420,-471 -375,0 -740,144 -1028,433 -141,141 -265,317 -365,527l-691 0c144,-402 352,-729 603,-980 414,-413 939,-620 1481,-620 674,0 1348,209 1835,626 440,377 725,915 725,1614l0 1050c0,146 -93,269 -233,308 -129,37 -271,67 -422,91 10,-55 15,-111 15,-169 0,-530 -430,-960 -960,-960 -530,0 -960,430 -960,960 0,58 5,114 15,169 -151,-24 -293,-54 -422,-91 -140,-39 -233,-162 -233,-308l0 -1050zm-1920 960c-177,0 -320,-143 -320,-320 0,-177 143,-320 320,-320l1280 0c177,0 320,143 320,320 0,177 -143,320 -320,320l-1280 0zm-3840 0c-177,0 -320,-143 -320,-320 0,-177 143,-320 320,-320l1280 0c177,0 320,143 320,320 0,177 -143,320 -320,320l-1280 0zm4391 -2444c-259,-74 -550,-116 -871,-116 -615,0 -1227,160 -1707,481 -198,132 -374,291 -518,479l-755 0c215,-419 535,-757 918,-1012 588,-392 1326,-588 2062,-588 505,0 955,89 1339,242 -57,48 -112,98 -166,152 -109,109 -210,229 -302,362z"/>
	<path id="curve0" fill="#252525" d="M3904 6399l256 2561c35,351 -288,640 -640,640l-640 0 0 0c-3,0 -5,0 -8,0 -349,-5 -667,-292 -632,-640l256 -2561c17,-167 -98,-318 -264,-347 -398,-69 -755,-261 -1029,-535 -347,-348 -563,-828 -563,-1357l1280 0c0,352 288,640 640,640l1280 0c352,0 640,-288 640,-640l1280 0c0,529 -216,1009 -563,1357 -274,274 -631,466 -1029,535 -166,29 -281,180 -264,347zm576 -3519c0,-176 144,-320 320,-320l640 0c176,0 320,144 320,320l-1280 0zm-3840 0c0,-176 144,-320 320,-320l640 0c176,0 320,144 320,320l-1280 0z"/>
</svg>
