<?xml version="1.0" encoding="UTF-8"?>
<!DOCTYPE svg PUBLIC "-//W3C//DTD SVG 1.1//EN" "http://www.w3.org/Graphics/SVG/1.1/DTD/svg11.dtd">
<svg xmlns="http://www.w3.org/2000/svg" xml:space="preserve" width="1024px" height="1024px" shape-rendering="geometricPrecision" text-rendering="geometricPrecision" image-rendering="optimizeQuality" fill-rule="nonzero" clip-rule="evenodd" viewBox="0 0 10240 10240" xmlns:xlink="http://www.w3.org/1999/xlink">
	<title>ssd_drive icon</title>
	<desc>ssd_drive icon from the IconExperience.com O-Collection. Copyright by INCORS GmbH (www.incors.com).</desc>
	<path id="curve1" fill="#252525" d="M3840 3520l2560 0c176,0 320,144 320,320l0 2560c0,176 -144,320 -320,320l-507 0c-88,0 -164,-31 -227,-94l-132 -132c-63,-63 -138,-94 -227,-94l-374 0c-89,0 -164,31 -227,94l-132 132c-63,63 -138,94 -227,94l-507 0c-176,0 -320,-144 -320,-320l0 -2560c0,-176 144,-320 320,-320z"/>
	<path id="curve0" fill="#252525" d="M2240 960l5760 0c353,0 640,288 640,640l0 7040c0,352 -288,640 -640,640l-5760 0c-352,0 -640,-287 -640,-640l0 -7040c0,-352 287,-640 640,-640zm320 7040c-177,0 -320,143 -320,320 0,177 143,320 320,320 177,0 320,-143 320,-320 0,-177 -143,-320 -320,-320zm0 -6400c-177,0 -320,143 -320,320 0,177 143,320 320,320 177,0 320,-143 320,-320 0,-177 -143,-320 -320,-320zm5120 0c-177,0 -320,143 -320,320 0,177 143,320 320,320 177,0 320,-143 320,-320 0,-177 -143,-320 -320,-320zm0 6400c-177,0 -320,143 -320,320 0,177 143,320 320,320 177,0 320,-143 320,-320 0,-177 -143,-320 -320,-320zm-3680 -5440c-88,0 -160,72 -160,160l0 480c-352,0 -640,288 -640,640l-480 0c-88,0 -160,72 -160,160l0 320c0,88 72,160 160,160l480 0 0 320 -480 0c-88,0 -160,72 -160,160l0 320c0,88 72,160 160,160l480 0 0 320 -480 0c-88,0 -160,72 -160,160l0 320c0,88 72,160 160,160l480 0 0 0c0,353 288,640 640,640l0 480c0,88 72,160 160,160l320 0c88,0 160,-72 160,-160l0 -480 320 0 0 480c0,88 72,160 160,160l320 0c88,0 160,-72 160,-160l0 -480 320 0 0 480c0,88 72,160 160,160l320 0c88,0 160,-72 160,-160l0 -480 0 0c353,0 640,-287 640,-640l0 0 480 0c88,0 160,-72 160,-160l0 -320c0,-88 -72,-160 -160,-160l-480 0 0 -320 480 0c88,0 160,-72 160,-160l0 -320c0,-88 -72,-160 -160,-160l-480 0 0 -320 480 0c88,0 160,-72 160,-160l0 -320c0,-88 -72,-160 -160,-160l-480 0c0,-352 -287,-640 -640,-640l0 0 0 -480c0,-88 -72,-160 -160,-160l-320 0c-88,0 -160,72 -160,160l0 480 -320 0 0 -480c0,-88 -72,-160 -160,-160l-320 0c-88,0 -160,72 -160,160l0 480 -320 0 0 -480c0,-88 -72,-160 -160,-160l-320 0z"/>
</svg>
