<?xml version="1.0" encoding="UTF-8"?>
<!DOCTYPE svg PUBLIC "-//W3C//DTD SVG 1.1//EN" "http://www.w3.org/Graphics/SVG/1.1/DTD/svg11.dtd">
<svg xmlns="http://www.w3.org/2000/svg" xml:space="preserve" width="1024px" height="1024px" shape-rendering="geometricPrecision" text-rendering="geometricPrecision" image-rendering="optimizeQuality" fill-rule="nonzero" clip-rule="evenodd" viewBox="0 0 10240 10240" xmlns:xlink="http://www.w3.org/1999/xlink">
	<title>surgeon icon</title>
	<desc>surgeon icon from the IconExperience.com O-Collection. Copyright by INCORS GmbH (www.incors.com).</desc>
	<path id="curve2" fill="#252525" d="M8320 8470c0,810 -1920,1130 -3200,1130 -1280,0 -3200,-320 -3200,-1129 0,-1760 582,-2029 1663,-2835 445,281 972,444 1537,444 565,0 1092,-163 1537,-444 1082,807 1663,1074 1663,2834z"/>
	<path id="curve1" fill="#252525" d="M7661 2880c13,101 19,205 19,309 0,252 -37,495 -105,724 5,-16 10,-33 15,-50l-880 219c-213,54 -407,54 -620,0l-660 -164c-213,-54 -407,-54 -620,0l-660 164c-213,54 -407,54 -620,0l-880 -219c5,17 10,34 15,50 -68,-229 -105,-472 -105,-724 0,-104 6,-208 19,-309l5082 0zm-196 1334c-196,442 -514,819 -911,1088 -125,-141 -165,-312 -154,-502 14,-242 137,-354 373,-413l692 -173zm-3771 1093c-401,-269 -722,-648 -919,-1093l692 173c236,59 373,170 373,413 0,227 -36,385 -146,507z"/>
	<path id="curve0" fill="#252525" d="M7282 1290l318 1270 -4960 0 318 -1270c144,-578 646,-970 1241,-970l1842 0c595,0 1097,392 1241,970z"/>
</svg>
