<?xml version="1.0" encoding="UTF-8"?>
<!DOCTYPE svg PUBLIC "-//W3C//DTD SVG 1.1//EN" "http://www.w3.org/Graphics/SVG/1.1/DTD/svg11.dtd">
<svg xmlns="http://www.w3.org/2000/svg" xml:space="preserve" width="1024px" height="1024px" shape-rendering="geometricPrecision" text-rendering="geometricPrecision" image-rendering="optimizeQuality" fill-rule="nonzero" clip-rule="evenodd" viewBox="0 0 10240 10240" xmlns:xlink="http://www.w3.org/1999/xlink">
	<title>symbol_pound icon</title>
	<desc>symbol_pound icon from the IconExperience.com O-Collection. Copyright by INCORS GmbH (www.incors.com).</desc>
	<path id="curve0" fill="#252525" d="M1600 4473l952 0c5,-110 8,-217 8,-320 0,-1583 1297,-2880 2880,-2880 1634,0 2880,1246 2880,2880l-1280 0c0,-926 -674,-1600 -1600,-1600 -877,0 -1600,724 -1600,1600 0,103 -2,210 -7,320l1927 0 -640 1280 -1444 0c-87,442 -208,884 -364,1290 164,-13 331,-10 502,10 419,51 793,203 1166,355 333,135 665,270 924,276 499,13 1114,-420 1729,-854l735 1045c-786,554 -1571,1107 -2494,1084 -503,-12 -938,-189 -1374,-366 -294,-120 -589,-240 -836,-270 -532,-64 -1155,248 -1779,560l-570 -1140c322,-161 595,-603 806,-1152 101,-264 185,-548 252,-838l-1413 0 640 -1280z"/>
</svg>
