<?xml version="1.0" encoding="UTF-8"?>
<!DOCTYPE svg PUBLIC "-//W3C//DTD SVG 1.1//EN" "http://www.w3.org/Graphics/SVG/1.1/DTD/svg11.dtd">
<svg xmlns="http://www.w3.org/2000/svg" xml:space="preserve" width="1024px" height="1024px" shape-rendering="geometricPrecision" text-rendering="geometricPrecision" image-rendering="optimizeQuality" fill-rule="nonzero" clip-rule="evenodd" viewBox="0 0 10240 10240" xmlns:xlink="http://www.w3.org/1999/xlink">
	<title>symbol_female icon</title>
	<desc>symbol_female icon from the IconExperience.com O-Collection. Copyright by INCORS GmbH (www.incors.com).</desc>
	<path id="curve0" fill="#252525" d="M3520 7040l960 0 0 -717c-1282,-290 -2240,-1436 -2240,-2806 0,-1589 1288,-2877 2877,-2877 1589,0 2877,1288 2877,2877 0,1368 -954,2513 -2234,2805l0 718 960 0c176,0 320,144 320,320l0 640c0,176 -144,320 -320,320l-960 0 0 960c0,176 -144,320 -320,320l-640 0c-176,0 -320,-144 -320,-320l0 -960 -960 0c-176,0 -320,-144 -320,-320l0 -640c0,-176 144,-320 320,-320zm1597 -5120c-882,0 -1597,715 -1597,1597 0,882 715,1597 1597,1597 882,0 1597,-715 1597,-1597 0,-882 -715,-1597 -1597,-1597z"/>
</svg>
