<?xml version="1.0" encoding="UTF-8"?>
<!DOCTYPE svg PUBLIC "-//W3C//DTD SVG 1.1//EN" "http://www.w3.org/Graphics/SVG/1.1/DTD/svg11.dtd">
<svg xmlns="http://www.w3.org/2000/svg" xml:space="preserve" width="1024px" height="1024px" shape-rendering="geometricPrecision" text-rendering="geometricPrecision" image-rendering="optimizeQuality" fill-rule="nonzero" clip-rule="evenodd" viewBox="0 0 10240 10240" xmlns:xlink="http://www.w3.org/1999/xlink">
	<title>symbol_q icon</title>
	<desc>symbol_q icon from the IconExperience.com O-Collection. Copyright by INCORS GmbH (www.incors.com).</desc>
	<path id="curve0" fill="#252525" d="M5760 6080l640 640 0 -3200c0,-528 -432,-960 -960,-960l-1280 0c-528,0 -960,432 -960,960l0 3200c0,528 432,960 960,960l1280 0c35,0 70,-2 104,-6l-689 -689 905 -905zm1669 1669l571 571 -905 905 -555 -555c-325,185 -700,290 -1100,290l-1280 0c-1235,0 -2240,-1005 -2240,-2240l0 -3200c0,-1235 1005,-2240 2240,-2240l1280 0c1235,0 2240,1005 2240,2240l0 3200c0,371 -91,721 -251,1029z"/>
</svg>
