<?xml version="1.0" encoding="UTF-8"?>
<!DOCTYPE svg PUBLIC "-//W3C//DTD SVG 1.1//EN" "http://www.w3.org/Graphics/SVG/1.1/DTD/svg11.dtd">
<svg xmlns="http://www.w3.org/2000/svg" xml:space="preserve" width="1024px" height="1024px" shape-rendering="geometricPrecision" text-rendering="geometricPrecision" image-rendering="optimizeQuality" fill-rule="nonzero" clip-rule="evenodd" viewBox="0 0 10240 10240" xmlns:xlink="http://www.w3.org/1999/xlink">
	<title>tape_measure2 icon</title>
	<desc>tape_measure2 icon from the IconExperience.com O-Collection. Copyright by INCORS GmbH (www.incors.com).</desc>
	<path id="curve0" fill="#252525" d="M5075 4833c-170,-173 -275,-411 -275,-673 0,-442 179,-842 469,-1131 289,-290 689,-469 1131,-469 442,0 842,179 1131,469l180 171c-10,0 -21,0 -31,0 -619,0 -1179,251 -1584,656 -356,356 -593,831 -645,1361l-376 -384zm-4435 1247c-82,0 -164,31 -226,94 -125,125 -125,327 0,452l1601 1599c57,58 137,94 225,94l4800 1c795,0 1515,-322 2036,-844 522,-521 844,-1241 844,-2036 0,-557 -176,-1093 -541,-1459l-1395 -1405c-405,-405 -965,-656 -1584,-656 -619,0 -1179,251 -1584,656 -405,405 -656,965 -656,1584 0,442 179,842 469,1131l796 789 648 640c248,226 605,320 967,320 442,0 842,-179 1131,-469 290,-289 469,-689 469,-1131 0,-265 -107,-505 -281,-679 -174,-174 -414,-281 -679,-281 -265,0 -505,107 -679,281 -174,174 -281,414 -281,679l0 0c0,176 144,320 320,320l0 0c176,0 320,-144 320,-320l0 0c0,-88 36,-168 94,-226 58,-58 138,-94 226,-94 88,0 168,36 226,94 58,58 94,138 94,226 0,265 -107,505 -281,679 -174,174 -414,281 -679,281 -265,0 -505,-107 -679,-281 -174,-174 -281,-414 -281,-679 0,-442 179,-842 469,-1131 289,-290 689,-469 1131,-469 442,0 842,179 1131,469 290,289 469,689 469,1131 0,619 -251,1179 -656,1584 -405,405 -965,656 -1584,656l-187 0 -320 -320 -906 0 321 320 -375 0 -320 -320 -906 0 321 321 -375 0 -320 -321 -896 0 -40 -31 351 352 -374 0 -962 -961 3549 0 -638 -640 -4323 0z"/>
</svg>
