<?xml version="1.0" encoding="UTF-8"?>
<!DOCTYPE svg PUBLIC "-//W3C//DTD SVG 1.1//EN" "http://www.w3.org/Graphics/SVG/1.1/DTD/svg11.dtd">
<svg xmlns="http://www.w3.org/2000/svg" xml:space="preserve" width="1024px" height="1024px" shape-rendering="geometricPrecision" text-rendering="geometricPrecision" image-rendering="optimizeQuality" fill-rule="nonzero" clip-rule="evenodd" viewBox="0 0 10240 10240" xmlns:xlink="http://www.w3.org/1999/xlink">
	<title>telephone_box icon</title>
	<desc>telephone_box icon from the IconExperience.com O-Collection. Copyright by INCORS GmbH (www.incors.com).</desc>
	<path id="curve0" fill="#252525" d="M3840 640l2560 0c705,0 1280,575 1280,1280l0 7680 -5120 0 0 -7680c0,-705 575,-1280 1280,-1280zm1055 1870l-63 -62c-74,-73 -190,-86 -258,-28l-367 315c-67,58 -62,165 13,238l68 67c187,184 471,211 645,71 485,-389 833,-931 983,-1536 55,-217 -87,-465 -332,-560l-89 -34c-97,-37 -197,2 -221,87l-133 467c-24,85 35,186 133,224l82 31c45,18 74,60 69,101 -28,266 -180,504 -409,640 -36,22 -87,13 -121,-21zm-1695 1010l0 960 640 0 0 -960 -640 0zm640 1280l-640 0 0 1280 640 0 0 -1280zm0 1600l-640 0 0 1280 640 0 0 -1280zm0 1600l-640 0 0 960 640 0 0 -960zm320 -4480l0 960 1920 0 0 -960 -1920 0zm1920 1280l-1920 0 0 1280 1920 0 0 -1280zm0 1600l-1920 0 0 1280 1920 0 0 -1280zm0 1600l-1920 0 0 960 1920 0 0 -960zm320 -4480l0 960 640 0 0 -960 -640 0zm640 1280l-640 0 0 1280 640 0 0 -1280zm0 1600l-640 0 0 1280 640 0 0 -1280zm0 1600l-640 0 0 960 640 0 0 -960z"/>
</svg>
