<?xml version="1.0" encoding="UTF-8"?>
<!DOCTYPE svg PUBLIC "-//W3C//DTD SVG 1.1//EN" "http://www.w3.org/Graphics/SVG/1.1/DTD/svg11.dtd">
<svg xmlns="http://www.w3.org/2000/svg" xml:space="preserve" width="1024px" height="1024px" shape-rendering="geometricPrecision" text-rendering="geometricPrecision" image-rendering="optimizeQuality" fill-rule="nonzero" clip-rule="evenodd" viewBox="0 0 10240 10240" xmlns:xlink="http://www.w3.org/1999/xlink">
	<title>tennis_racket icon</title>
	<desc>tennis_racket icon from the IconExperience.com O-Collection. Copyright by INCORS GmbH (www.incors.com).</desc>
	<path id="curve1" fill="#252525" d="M3347 7413l-91 362c-13,52 -36,93 -74,131l-1598 1598c-110,110 -290,110 -400,0l-448 -448c-110,-110 -110,-290 0,-400l1598 -1598c38,-38 79,-61 131,-74l362 -91 520 520z"/>
	<path id="curve0" fill="#252525" d="M8680 1560c1026,1026 659,2671 -288,3618 -530,530 -1194,832 -1839,890 -40,4 -79,6 -119,8l-1588 224c-182,26 -345,75 -493,149 -147,73 -284,175 -415,306l-399 398 -452 -452 398 -399c131,-131 233,-268 306,-415 75,-148 124,-311 149,-493l226 -1636c2,-23 4,-47 6,-71 58,-645 360,-1309 890,-1839 947,-947 2592,-1314 3618,-288zm-2185 3873c501,-45 1022,-285 1445,-708 693,-693 1058,-1942 287,-2712 -770,-771 -2019,-406 -2712,287 -423,423 -663,944 -708,1445 -42,464 85,933 420,1268 335,334 806,462 1268,420zm-1524 205c-139,-107 -262,-231 -369,-369 -21,148 -38,296 -73,442 146,-35 294,-53 442,-73z"/>
</svg>
