<?xml version="1.0" encoding="UTF-8"?>
<!DOCTYPE svg PUBLIC "-//W3C//DTD SVG 1.1//EN" "http://www.w3.org/Graphics/SVG/1.1/DTD/svg11.dtd">
<svg xmlns="http://www.w3.org/2000/svg" xml:space="preserve" width="1024px" height="1024px" shape-rendering="geometricPrecision" text-rendering="geometricPrecision" image-rendering="optimizeQuality" fill-rule="nonzero" clip-rule="evenodd" viewBox="0 0 10240 10240" xmlns:xlink="http://www.w3.org/1999/xlink">
	<title>terrorist icon</title>
	<desc>terrorist icon from the IconExperience.com O-Collection. Copyright by INCORS GmbH (www.incors.com).</desc>
	<path id="curve1" fill="#252525" d="M8320 8470c0,810 -1920,1130 -3200,1130 -1280,0 -3200,-320 -3200,-1129 0,-1439 389,-1881 1122,-2435 25,22 52,43 81,63 588,406 1282,621 1997,621 715,0 1409,-215 1997,-621 29,-20 56,-41 81,-64 733,555 1122,995 1122,2435z"/>
	<path id="curve0" fill="#252525" d="M5120 640c1414,0 2560,1146 2560,2560 0,583 -195,1121 -523,1551 -110,144 -131,324 -56,489 29,64 43,134 42,209 -3,160 -76,296 -207,386 -516,356 -1142,565 -1816,565 -674,0 -1300,-209 -1816,-565 -131,-90 -204,-226 -207,-386 -1,-75 13,-145 42,-208 75,-166 54,-346 -56,-490 -328,-430 -523,-968 -523,-1551 0,-1414 1146,-2560 2560,-2560zm-18 3829c-353,0 -640,143 -640,320 0,177 287,320 640,320 354,0 640,-143 640,-320 0,-177 -286,-320 -640,-320zm818 -1909c-182,0 -349,45 -483,122 -202,115 -432,115 -634,0 -134,-77 -301,-122 -483,-122 -442,0 -800,269 -800,600 0,331 358,600 800,600 182,0 349,-45 483,-122 202,-115 432,-115 634,0 134,77 301,122 483,122 442,0 800,-269 800,-600 0,-331 -358,-600 -800,-600z"/>
</svg>
