<?xml version="1.0" encoding="UTF-8"?>
<!DOCTYPE svg PUBLIC "-//W3C//DTD SVG 1.1//EN" "http://www.w3.org/Graphics/SVG/1.1/DTD/svg11.dtd">
<svg xmlns="http://www.w3.org/2000/svg" xml:space="preserve" width="1024px" height="1024px" shape-rendering="geometricPrecision" text-rendering="geometricPrecision" image-rendering="optimizeQuality" fill-rule="nonzero" clip-rule="evenodd" viewBox="0 0 10240 10240" xmlns:xlink="http://www.w3.org/1999/xlink">
	<title>text_braille icon</title>
	<desc>text_braille icon from the IconExperience.com O-Collection. Copyright by INCORS GmbH (www.incors.com).</desc>
	<path id="curve4" fill="#252525" d="M1280 640l7680 0 0 8960 -7680 0 0 -8960zm640 640l0 7680 6400 0 0 -7680 -6400 0z"/>
	<path id="curve3" fill="#252525" d="M5920 7360c265,0 480,215 480,480 0,265 -215,480 -480,480 -265,0 -480,-215 -480,-480 0,-265 215,-480 480,-480 -265,0 -480,-215 -480,-480 0,-265 215,-480 480,-480 265,0 480,215 480,480 0,-265 215,-480 480,-480 265,0 480,215 480,480 0,265 -215,480 -480,480 -265,0 -480,-215 -480,-480 0,265 -215,480 -480,480zm960 -1920c265,0 480,215 480,480 0,265 -215,480 -480,480 -265,0 -480,-215 -480,-480 0,-265 215,-480 480,-480z"/>
	<path id="curve2" fill="#252525" d="M4320 5440c265,0 480,215 480,480 0,265 -215,480 -480,480 -265,0 -480,-215 -480,-480 0,265 -215,480 -480,480 -265,0 -480,-215 -480,-480 0,-265 215,-480 480,-480 265,0 480,215 480,480 0,-265 215,-480 480,-480zm0 1920c265,0 480,215 480,480 0,265 -215,480 -480,480 -265,0 -480,-215 -480,-480 0,265 -215,480 -480,480 -265,0 -480,-215 -480,-480 0,-265 215,-480 480,-480 265,0 480,215 480,480 0,-265 215,-480 480,-480z"/>
	<path id="curve1" fill="#252525" d="M6880 2880c265,0 480,215 480,480 0,265 -215,480 -480,480 -265,0 -480,-215 -480,-480 0,-265 215,-480 480,-480zm-960 -960c265,0 480,215 480,480 0,265 -215,480 -480,480 -265,0 -480,-215 -480,-480 0,-265 215,-480 480,-480z"/>
	<path id="curve0" fill="#252525" d="M4320 1920c265,0 480,215 480,480 0,265 -215,480 -480,480 -265,0 -480,-215 -480,-480 0,-265 215,-480 480,-480zm-960 1920c265,0 480,215 480,480 0,265 -215,480 -480,480 -265,0 -480,-215 -480,-480 0,-265 215,-480 480,-480 -265,0 -480,-215 -480,-480 0,-265 215,-480 480,-480 265,0 480,215 480,480 0,-265 215,-480 480,-480 265,0 480,215 480,480 0,265 -215,480 -480,480 -265,0 -480,-215 -480,-480 0,265 -215,480 -480,480z"/>
</svg>
