<?xml version="1.0" encoding="UTF-8"?>
<!DOCTYPE svg PUBLIC "-//W3C//DTD SVG 1.1//EN" "http://www.w3.org/Graphics/SVG/1.1/DTD/svg11.dtd">
<svg xmlns="http://www.w3.org/2000/svg" xml:space="preserve" width="1024px" height="1024px" shape-rendering="geometricPrecision" text-rendering="geometricPrecision" image-rendering="optimizeQuality" fill-rule="nonzero" clip-rule="evenodd" viewBox="0 0 10240 10240" xmlns:xlink="http://www.w3.org/1999/xlink">
	<title>toilet_paper icon</title>
	<desc>toilet_paper icon from the IconExperience.com O-Collection. Copyright by INCORS GmbH (www.incors.com).</desc>
	<path id="curve1" fill="#252525" d="M5448 5448c437,-437 1147,-437 1584,0 437,437 437,1147 0,1584 -437,437 -1147,437 -1584,0 -437,-437 -437,-1147 0,-1584z"/>
	<path id="curve0" fill="#252525" d="M4317 4317c1062,-1063 2784,-1063 3846,0 1063,1062 1063,2784 0,3846 -1062,1063 -2784,1063 -3846,0 -1063,-1062 -1063,-2784 0,-3846zm-3611 3363c-142,0 -214,172 -113,273l1553 1553c63,63 138,94 227,94l4027 0 -5 -4c807,-37 1604,-363 2221,-980 1312,-1312 1312,-3440 0,-4752 -662,-662 -1258,-1258 -1920,-1920 -1312,-1312 -3440,-1312 -4752,0 -1312,1312 -1312,3440 0,4752l984 984 936 936c127,127 262,242 403,344l-1762 0 -640 -640 1260 0 -645 -640 -1774 0zm6063 -4758c-1027,-163 -2114,151 -2905,942 -791,791 -1105,1878 -942,2905l-525 -526c-1063,-1062 -1063,-2784 0,-3846 1062,-1063 2784,-1063 3846,0l526 525z"/>
</svg>
