<?xml version="1.0" encoding="UTF-8"?>
<!DOCTYPE svg PUBLIC "-//W3C//DTD SVG 1.1//EN" "http://www.w3.org/Graphics/SVG/1.1/DTD/svg11.dtd">
<svg xmlns="http://www.w3.org/2000/svg" xml:space="preserve" width="1024px" height="1024px" shape-rendering="geometricPrecision" text-rendering="geometricPrecision" image-rendering="optimizeQuality" fill-rule="nonzero" clip-rule="evenodd" viewBox="0 0 10240 10240" xmlns:xlink="http://www.w3.org/1999/xlink">
	<title>tooth_carious icon</title>
	<desc>tooth_carious icon from the IconExperience.com O-Collection. Copyright by INCORS GmbH (www.incors.com).</desc>
	<path id="curve0" fill="#252525" d="M6720 640c959,0 1380,719 1530,1888 50,390 -890,511 -890,992 0,563 836,1322 698,1692 -177,471 -378,829 -378,1188 0,1600 -365,3200 -1280,3200 -1280,0 -320,-2880 -1280,-2880 -960,0 0,2880 -1280,2880 -932,0 -1280,-1600 -1280,-3200 0,-640 -640,-1272 -640,-2560 0,-1920 320,-3200 1600,-3200 454,0 856,320 1600,320 727,0 1156,-320 1600,-320zm-2888 8320c90,-158 120,-679 129,-829 35,-626 17,-1503 606,-1890 166,-108 356,-161 553,-161 197,0 387,53 553,161 589,387 571,1264 606,1890 9,150 39,671 129,829 8,-1 16,-2 24,-5 179,-66 347,-554 393,-714 166,-574 215,-1245 215,-1841 0,-461 199,-860 366,-1278l-325 204c-44,28 -94,33 -142,14 -49,-19 -83,-56 -97,-106l-48 -171c-16,-56 -57,-97 -114,-111 -56,-15 -112,0 -153,41l-494 494c-47,47 -113,60 -174,35 -61,-26 -99,-82 -99,-148l0 -734c0,-88 -72,-160 -160,-160l-821 0c-61,0 -113,-31 -141,-85 -29,-53 -26,-113 8,-164l415 -622c36,-55 36,-123 0,-178l-415 -622c-34,-51 -37,-111 -8,-165 28,-53 80,-84 141,-84l882 0c62,0 115,-33 143,-88l195 -390c21,-42 56,-71 102,-83 46,-12 90,-5 130,22l745 496c45,30 97,36 148,16 322,-127 417,-335 374,-515 -80,-279 -195,-509 -360,-627 -122,-87 -271,-111 -418,-111 -135,0 -371,89 -501,130 -369,117 -710,190 -1099,190 -368,0 -698,-64 -1047,-172 -150,-47 -363,-132 -518,-146 -12,-1 -23,-2 -35,-2 -147,0 -296,24 -418,111 -525,375 -542,1884 -542,2449 0,469 101,854 274,1285 167,417 366,814 366,1275 0,593 46,1260 207,1833 46,166 209,649 392,720 11,4 22,6 33,7z"/>
</svg>
