<?xml version="1.0" encoding="UTF-8"?>
<!DOCTYPE svg PUBLIC "-//W3C//DTD SVG 1.1//EN" "http://www.w3.org/Graphics/SVG/1.1/DTD/svg11.dtd">
<svg xmlns="http://www.w3.org/2000/svg" xml:space="preserve" width="1024px" height="1024px" shape-rendering="geometricPrecision" text-rendering="geometricPrecision" image-rendering="optimizeQuality" fill-rule="nonzero" clip-rule="evenodd" viewBox="0 0 10240 10240" xmlns:xlink="http://www.w3.org/1999/xlink">
	<title>users_family icon</title>
	<desc>users_family icon from the IconExperience.com O-Collection. Copyright by INCORS GmbH (www.incors.com).</desc>
	<path id="curve2" fill="#252525" d="M5120 8993c0,435 -960,607 -1600,607 -640,0 -1600,-172 -1600,-607 0,-564 192,-1072 499,-1432 287,272 675,439 1101,439 426,0 814,-167 1101,-439 307,360 499,868 499,1432zm-1600 -3873c707,0 1280,573 1280,1280 0,707 -573,1280 -1280,1280 -707,0 -1280,-573 -1280,-1280 0,-707 573,-1280 1280,-1280z"/>
	<path id="curve1" fill="#252525" d="M7040 1920c1060,0 1920,856 1920,1912 0,1056 -860,1912 -1920,1912 -1060,0 -1920,-856 -1920,-1912 0,-1056 860,-1912 1920,-1912zm2560 5872c0,608 -1536,848 -2560,848 -509,0 -1144,-59 -1655,-194 -82,-400 -255,-781 -521,-1093l-32 -37c181,-259 288,-575 288,-916 0,-128 -15,-253 -44,-373 148,-190 319,-358 508,-499 392,334 900,536 1456,536 556,0 1064,-202 1456,-536 667,497 1104,1326 1104,2264z"/>
	<path id="curve0" fill="#252525" d="M2880 640c1060,0 1920,856 1920,1912 0,1056 -860,1912 -1920,1912 -1060,0 -1920,-856 -1920,-1912 0,-1056 860,-1912 1920,-1912zm2069 5039c-264,-521 -805,-879 -1429,-879 -884,0 -1600,716 -1600,1600 0,341 107,657 288,916l-10 12c-911,-83 -1878,-333 -1878,-815 0,-939 437,-1768 1104,-2265 392,334 900,536 1456,536 556,0 1064,-202 1456,-536 387,289 697,690 889,1159 -99,85 -191,176 -276,272z"/>
</svg>
