<?xml version="1.0" encoding="UTF-8"?>
<!DOCTYPE svg PUBLIC "-//W3C//DTD SVG 1.1//EN" "http://www.w3.org/Graphics/SVG/1.1/DTD/svg11.dtd">
<svg xmlns="http://www.w3.org/2000/svg" xml:space="preserve" width="1024px" height="1024px" shape-rendering="geometricPrecision" text-rendering="geometricPrecision" image-rendering="optimizeQuality" fill-rule="nonzero" clip-rule="evenodd" viewBox="0 0 10240 10240" xmlns:xlink="http://www.w3.org/1999/xlink">
	<title>users_relation2 icon</title>
	<desc>users_relation2 icon from the IconExperience.com O-Collection. Copyright by INCORS GmbH (www.incors.com).</desc>
	<path id="curve5" fill="#252525" d="M3112 7598c549,443 1247,709 2008,709 761,0 1459,-266 2008,-709 312,62 627,80 842,82 -702,778 -1719,1267 -2850,1267 -1131,0 -2148,-489 -2850,-1267 215,-2 530,-20 842,-82z"/>
	<path id="curve4" fill="#252525" d="M5120 1267c1144,0 2170,500 2874,1293 -261,1 -507,65 -725,176 -568,-515 -1322,-829 -2149,-829 -827,0 -1581,314 -2149,829 -218,-111 -464,-175 -725,-176 704,-793 1730,-1293 2874,-1293z"/>
	<path id="curve3" fill="#252525" d="M9600 6795c0,405 -960,565 -1600,565 -640,0 -1600,-160 -1600,-565 0,-802 242,-984 694,-1316 258,177 570,281 906,281 336,0 648,-104 906,-281 452,332 694,513 694,1316z"/>
	<path id="curve2" fill="#252525" d="M8000 2880c707,0 1280,573 1280,1280 0,707 -573,1280 -1280,1280 -707,0 -1280,-573 -1280,-1280 0,-707 573,-1280 1280,-1280z"/>
	<path id="curve1" fill="#252525" d="M3840 6795c0,405 -960,565 -1600,565 -640,0 -1600,-160 -1600,-565 0,-802 242,-984 694,-1316 258,177 570,281 906,281 336,0 648,-104 906,-281 452,332 694,513 694,1316z"/>
	<path id="curve0" fill="#252525" d="M2240 2880c707,0 1280,573 1280,1280 0,707 -573,1280 -1280,1280 -707,0 -1280,-573 -1280,-1280 0,-707 573,-1280 1280,-1280z"/>
</svg>
