<?xml version="1.0" encoding="UTF-8"?>
<!DOCTYPE svg PUBLIC "-//W3C//DTD SVG 1.1//EN" "http://www.w3.org/Graphics/SVG/1.1/DTD/svg11.dtd">
<svg xmlns="http://www.w3.org/2000/svg" xml:space="preserve" width="1024px" height="1024px" shape-rendering="geometricPrecision" text-rendering="geometricPrecision" image-rendering="optimizeQuality" fill-rule="nonzero" clip-rule="evenodd" viewBox="0 0 10240 10240" xmlns:xlink="http://www.w3.org/1999/xlink">
	<title>users icon</title>
	<desc>users icon from the IconExperience.com O-Collection. Copyright by INCORS GmbH (www.incors.com).</desc>
	<path id="curve3" fill="#252525" d="M9600 6456c0,648 -1536,904 -2560,904 -384,0 -841,-36 -1261,-115 -42,-74 -90,-145 -144,-214 -220,-281 -520,-497 -807,-706 379,-400 612,-939 612,-1533 0,-107 -8,-211 -22,-314 74,-56 153,-113 236,-174 381,300 863,479 1386,479 523,0 1005,-179 1386,-479 765,562 1174,831 1174,2152z"/>
	<path id="curve2" fill="#252525" d="M7040 640c1060,0 1920,856 1920,1912 0,1056 -860,1912 -1920,1912 -1060,0 -1920,-856 -1920,-1912 0,-1056 860,-1912 1920,-1912z"/>
	<path id="curve1" fill="#252525" d="M5760 8696c0,648 -1536,904 -2560,904 -1024,0 -2560,-256 -2560,-904 0,-1319 410,-1591 1174,-2152 381,300 863,479 1386,479 523,0 1005,-179 1386,-479 765,562 1174,831 1174,2152z"/>
	<path id="curve0" fill="#252525" d="M3200 2880c1060,0 1920,856 1920,1912 0,1056 -860,1912 -1920,1912 -1060,0 -1920,-856 -1920,-1912 0,-1056 860,-1912 1920,-1912z"/>
</svg>
