<?xml version="1.0" encoding="UTF-8"?>
<!DOCTYPE svg PUBLIC "-//W3C//DTD SVG 1.1//EN" "http://www.w3.org/Graphics/SVG/1.1/DTD/svg11.dtd">
<svg xmlns="http://www.w3.org/2000/svg" xml:space="preserve" width="1024px" height="1024px" shape-rendering="geometricPrecision" text-rendering="geometricPrecision" image-rendering="optimizeQuality" fill-rule="nonzero" clip-rule="evenodd" viewBox="0 0 10240 10240" xmlns:xlink="http://www.w3.org/1999/xlink">
	<title>users_crowd icon</title>
	<desc>users_crowd icon from the IconExperience.com O-Collection. Copyright by INCORS GmbH (www.incors.com).</desc>
	<path id="curve13" fill="#252525" d="M4480 640c389,0 738,174 973,448 -484,206 -845,644 -945,1173 -133,-104 -282,-187 -443,-246 -122,-335 -352,-619 -649,-807 230,-342 621,-568 1064,-568z"/>
	<path id="curve12" fill="#252525" d="M6080 1280c389,0 738,174 973,448 -395,168 -708,490 -864,890 -136,-38 -280,-58 -429,-58 -299,0 -579,82 -818,225 -41,-79 -89,-154 -142,-225l0 0c0,-707 573,-1280 1280,-1280z"/>
	<path id="curve11" fill="#252525" d="M2560 1280c477,0 893,261 1113,647 -50,-4 -101,-7 -153,-7 -658,0 -1223,397 -1469,965 -43,-3 -87,-5 -131,-5 -200,0 -391,37 -568,104 -47,-133 -72,-275 -72,-424 0,-707 573,-1280 1280,-1280z"/>
	<path id="curve10" fill="#252525" d="M7680 1920c707,0 1280,573 1280,1280 0,267 -82,515 -222,720 -282,-249 -652,-400 -1058,-400 -149,0 -293,20 -429,58 -143,-366 -417,-666 -764,-843 187,-477 650,-815 1193,-815z"/>
	<path id="curve9" fill="#252525" d="M3520 2240c514,0 957,303 1160,739 -167,153 -301,341 -392,552 -331,40 -631,181 -868,391 -175,-468 -562,-833 -1044,-976 210,-419 643,-706 1144,-706z"/>
	<path id="curve8" fill="#252525" d="M5760 2880c543,0 1006,338 1193,815 -518,264 -873,803 -873,1425l0 0c0,-827 -628,-1508 -1434,-1591 220,-388 637,-649 1114,-649z"/>
	<path id="curve7" fill="#252525" d="M1920 3200c611,0 1123,429 1250,1002 -41,58 -78,119 -111,183 -240,-143 -520,-225 -819,-225 -641,0 -1194,377 -1450,922 -96,-179 -150,-384 -150,-602 0,-707 573,-1280 1280,-1280z"/>
	<path id="curve6" fill="#252525" d="M4480 3840c641,0 1172,472 1266,1087 -193,-82 -404,-127 -626,-127 -539,0 -1015,266 -1305,675 -64,-352 -242,-664 -495,-896 203,-436 646,-739 1160,-739z"/>
	<path id="curve5" fill="#252525" d="M9280 7755c0,405 -960,565 -1600,565 -230,0 -502,-21 -756,-66 -45,-117 -106,-229 -188,-334 -129,-164 -293,-291 -460,-414 258,-269 422,-629 442,-1026 18,-13 37,-27 56,-41 258,177 570,281 906,281 336,0 648,-104 906,-281 452,332 694,513 694,1316z"/>
	<path id="curve4" fill="#252525" d="M7680 3840c707,0 1280,573 1280,1280 0,707 -573,1280 -1280,1280 -707,0 -1280,-573 -1280,-1280 0,-707 573,-1280 1280,-1280z"/>
	<path id="curve3" fill="#252525" d="M3204 8849c-306,77 -669,111 -964,111 -640,0 -1600,-160 -1600,-565 0,-802 242,-984 694,-1316 258,177 570,281 906,281 336,0 648,-104 906,-281 274,201 471,347 584,610 -82,70 -159,145 -226,231 -214,273 -283,595 -300,929z"/>
	<path id="curve2" fill="#252525" d="M2240 4480c707,0 1280,573 1280,1280 0,707 -573,1280 -1280,1280 -707,0 -1280,-573 -1280,-1280 0,-707 573,-1280 1280,-1280z"/>
	<path id="curve1" fill="#252525" d="M6720 9035c0,405 -960,565 -1600,565 -640,0 -1600,-160 -1600,-565 0,-802 242,-984 694,-1316 258,177 570,281 906,281 336,0 648,-104 906,-281 452,332 694,513 694,1316z"/>
	<path id="curve0" fill="#252525" d="M5120 5120c707,0 1280,573 1280,1280 0,707 -573,1280 -1280,1280 -707,0 -1280,-573 -1280,-1280 0,-707 573,-1280 1280,-1280z"/>
</svg>
