<?xml version="1.0" encoding="UTF-8"?>
<!DOCTYPE svg PUBLIC "-//W3C//DTD SVG 1.1//EN" "http://www.w3.org/Graphics/SVG/1.1/DTD/svg11.dtd">
<svg xmlns="http://www.w3.org/2000/svg" xml:space="preserve" width="1024px" height="1024px" shape-rendering="geometricPrecision" text-rendering="geometricPrecision" image-rendering="optimizeQuality" fill-rule="nonzero" clip-rule="evenodd" viewBox="0 0 10240 10240" xmlns:xlink="http://www.w3.org/1999/xlink">
	<title>user_smartphone icon</title>
	<desc>user_smartphone icon from the IconExperience.com O-Collection. Copyright by INCORS GmbH (www.incors.com).</desc>
	<path id="curve2" fill="#252525" d="M9600 7956c0,720 -1728,1004 -2880,1004 -592,0 -1336,-75 -1920,-246l0 -2984c154,-124 326,-250 516,-389 403,265 885,419 1404,419 519,0 1001,-154 1404,-419 961,706 1476,1064 1476,2615z"/>
	<path id="curve1" fill="#252525" d="M6720 960c1237,0 2240,1003 2240,2240 0,1237 -1003,2240 -2240,2240 -815,0 -1528,-435 -1920,-1086l0 -514c0,-283 -123,-538 -319,-713 39,-1204 1026,-2167 2239,-2167z"/>
	<path id="curve0" fill="#252525" d="M1280 3200l2560 0c353,0 640,288 640,640l0 5120c0,352 -288,640 -640,640l-2560 0c-352,0 -640,-288 -640,-640l0 -5120c0,-353 288,-640 640,-640zm1280 5120c-265,0 -480,215 -480,480 0,265 215,480 480,480 265,0 480,-215 480,-480 0,-265 -215,-480 -480,-480zm-1280 -3840l0 3520 2560 0 0 -3520 -2560 0zm960 -960c-176,0 -320,144 -320,320l0 0c0,176 144,320 320,320l640 0c176,0 320,-144 320,-320l0 0c0,-176 -144,-320 -320,-320l-640 0z"/>
</svg>
