<?xml version="1.0" encoding="UTF-8"?>
<!DOCTYPE svg PUBLIC "-//W3C//DTD SVG 1.1//EN" "http://www.w3.org/Graphics/SVG/1.1/DTD/svg11.dtd">
<svg xmlns="http://www.w3.org/2000/svg" xml:space="preserve" width="1024px" height="1024px" shape-rendering="geometricPrecision" text-rendering="geometricPrecision" image-rendering="optimizeQuality" fill-rule="nonzero" clip-rule="evenodd" viewBox="0 0 10240 10240" xmlns:xlink="http://www.w3.org/1999/xlink">
	<title>user_monitor icon</title>
	<desc>user_monitor icon from the IconExperience.com O-Collection. Copyright by INCORS GmbH (www.incors.com).</desc>
	<path id="curve2" fill="#252525" d="M9600 7956c0,720 -1728,1004 -2880,1004 -262,0 -553,-15 -847,-46 130,-163 207,-370 207,-594l0 -2560c0,-28 -1,-55 -4,-82 206,54 422,82 644,82 519,0 1001,-154 1404,-419 961,706 1476,1064 1476,2615z"/>
	<path id="curve1" fill="#252525" d="M6720 960c1237,0 2240,1003 2240,2240 0,1237 -1003,2240 -2240,2240 -264,0 -517,-46 -752,-130 -157,-294 -462,-497 -815,-509 -415,-407 -673,-974 -673,-1601 0,-1237 1003,-2240 2240,-2240z"/>
	<path id="curve0" fill="#252525" d="M2080 9280l160 0c176,0 320,-144 320,-320l0 0 -1280 0c-352,0 -640,-288 -640,-640l0 -2560c0,-353 288,-640 640,-640l3840 0c353,0 640,288 640,640l0 2560c0,352 -288,640 -640,640l-1280 0 0 0c0,176 144,320 320,320l160 0c88,0 160,72 160,160l0 160 -2560 0 0 -160c0,-88 72,-160 160,-160zm-800 -3520l0 2560 3840 0 0 -2560 -3840 0z"/>
</svg>
