<?xml version="1.0" encoding="UTF-8"?>
<!DOCTYPE svg PUBLIC "-//W3C//DTD SVG 1.1//EN" "http://www.w3.org/Graphics/SVG/1.1/DTD/svg11.dtd">
<svg xmlns="http://www.w3.org/2000/svg" xml:space="preserve" width="1024px" height="1024px" shape-rendering="geometricPrecision" text-rendering="geometricPrecision" image-rendering="optimizeQuality" fill-rule="nonzero" clip-rule="evenodd" viewBox="0 0 10240 10240" xmlns:xlink="http://www.w3.org/1999/xlink">
	<title>vector_circle icon</title>
	<desc>vector_circle icon from the IconExperience.com O-Collection. Copyright by INCORS GmbH (www.incors.com).</desc>
	<path id="curve7" fill="#252525" d="M6080 1071c1527,361 2728,1562 3089,3089l-662 0c-331,-1172 -1255,-2096 -2427,-2427l0 -662z"/>
	<path id="curve6" fill="#252525" d="M9169 6080c-361,1527 -1562,2728 -3089,3089l0 -662c1172,-331 2096,-1255 2427,-2427l662 0z"/>
	<path id="curve5" fill="#252525" d="M4160 9169c-1527,-361 -2728,-1562 -3089,-3089l662 0c331,1172 1255,2096 2427,2427l0 662z"/>
	<path id="curve4" fill="#252525" d="M4160 1733c-1172,331 -2096,1255 -2427,2427l-662 0c361,-1527 1562,-2728 3089,-3089l0 662z"/>
	<path id="curve3" fill="#252525" d="M8320 4480l1280 0 0 1280 -1280 0 0 -1280zm320 320l0 640 640 0 0 -640 -640 0z"/>
	<path id="curve2" fill="#252525" d="M4480 8320l1280 0 0 1280 -1280 0 0 -1280zm320 320l0 640 640 0 0 -640 -640 0z"/>
	<path id="curve1" fill="#252525" d="M642 4472l1280 0 0 1280 -1280 0 0 -1280zm320 320l0 640 640 0 0 -640 -640 0z"/>
	<path id="curve0" fill="#252525" d="M4480 640l1280 0 0 1280 -1280 0 0 -1280zm320 320l0 640 640 0 0 -640 -640 0z"/>
</svg>
