<?xml version="1.0" encoding="UTF-8"?>
<!DOCTYPE svg PUBLIC "-//W3C//DTD SVG 1.1//EN" "http://www.w3.org/Graphics/SVG/1.1/DTD/svg11.dtd">
<svg xmlns="http://www.w3.org/2000/svg" xml:space="preserve" width="1024px" height="1024px" shape-rendering="geometricPrecision" text-rendering="geometricPrecision" image-rendering="optimizeQuality" fill-rule="nonzero" clip-rule="evenodd" viewBox="0 0 10240 10240" xmlns:xlink="http://www.w3.org/1999/xlink">
	<title>vending_machine icon</title>
	<desc>vending_machine icon from the IconExperience.com O-Collection. Copyright by INCORS GmbH (www.incors.com).</desc>
	<path id="curve1" fill="#252525" d="M6560 1600c265,0 480,215 480,480 0,265 -215,480 -480,480 -265,0 -480,-215 -480,-480 0,265 -215,480 -480,480 -265,0 -480,-215 -480,-480 0,265 -215,480 -480,480 -265,0 -480,-215 -480,-480 0,265 -215,480 -480,480 -265,0 -480,-215 -480,-480 0,-265 215,-480 480,-480 265,0 480,215 480,480 0,-265 215,-480 480,-480 265,0 480,215 480,480 0,-265 215,-480 480,-480 265,0 480,215 480,480 0,-265 215,-480 480,-480zm-2880 4800c265,0 480,215 480,480 0,-265 215,-480 480,-480 265,0 480,215 480,480 0,-265 215,-480 480,-480 265,0 480,215 480,480 0,-265 215,-480 480,-480 265,0 480,215 480,480 0,265 -215,480 -480,480 -265,0 -480,-215 -480,-480 0,265 -215,480 -480,480 -265,0 -480,-215 -480,-480 0,265 -215,480 -480,480 -265,0 -480,-215 -480,-480 0,265 -215,480 -480,480 -265,0 -480,-215 -480,-480 0,-265 215,-480 480,-480zm0 -1600c265,0 480,215 480,480 0,-265 215,-480 480,-480 265,0 480,215 480,480 0,-265 215,-480 480,-480 265,0 480,215 480,480 0,-265 215,-480 480,-480 265,0 480,215 480,480 0,265 -215,480 -480,480 -265,0 -480,-215 -480,-480 0,265 -215,480 -480,480 -265,0 -480,-215 -480,-480 0,265 -215,480 -480,480 -265,0 -480,-215 -480,-480 0,265 -215,480 -480,480 -265,0 -480,-215 -480,-480 0,-265 215,-480 480,-480zm0 -1600c265,0 480,215 480,480 0,-265 215,-480 480,-480 265,0 480,215 480,480 0,-265 215,-480 480,-480 265,0 480,215 480,480 0,-265 215,-480 480,-480 265,0 480,215 480,480 0,265 -215,480 -480,480 -265,0 -480,-215 -480,-480 0,265 -215,480 -480,480 -265,0 -480,-215 -480,-480 0,265 -215,480 -480,480 -265,0 -480,-215 -480,-480 0,265 -215,480 -480,480 -265,0 -480,-215 -480,-480 0,-265 215,-480 480,-480z"/>
	<path id="curve0" fill="#252525" d="M2240 640l5760 0c176,0 320,144 320,320l0 8640 -6400 0 0 -8640c0,-176 144,-320 320,-320zm320 640l0 1280 5120 0 0 -1280 -5120 0zm5120 1600l-5120 0 0 1280 5120 0 0 -1280zm0 1600l-5120 0 0 1280 5120 0 0 -1280zm0 1600l-5120 0 0 1280 5120 0 0 -1280zm-320 1920l0 640 320 0 0 -640 -320 0zm-4480 0c-176,0 -320,144 -320,320l0 320c0,176 144,320 320,320l3840 0c176,0 320,-144 320,-320l0 -320c0,-176 -144,-320 -320,-320l-3840 0z"/>
</svg>
