<?xml version="1.0" encoding="UTF-8"?>
<!DOCTYPE svg PUBLIC "-//W3C//DTD SVG 1.1//EN" "http://www.w3.org/Graphics/SVG/1.1/DTD/svg11.dtd">
<svg xmlns="http://www.w3.org/2000/svg" xml:space="preserve" width="1024px" height="1024px" shape-rendering="geometricPrecision" text-rendering="geometricPrecision" image-rendering="optimizeQuality" fill-rule="nonzero" clip-rule="evenodd" viewBox="0 0 10240 10240" xmlns:xlink="http://www.w3.org/1999/xlink">
	<title>video_camera icon</title>
	<desc>video_camera icon from the IconExperience.com O-Collection. Copyright by INCORS GmbH (www.incors.com).</desc>
	<path id="curve2" fill="#252525" d="M2554 1926c707,0 1280,573 1280,1280 0,707 -573,1280 -1280,1280 -707,0 -1280,-573 -1280,-1280 0,-707 573,-1280 1280,-1280zm140 736c29,-114 -3,-226 -87,-308 -85,-81 -198,-110 -311,-77 -318,90 -569,341 -659,659 -33,113 -4,226 77,311 82,84 194,116 308,87 114,-28 198,-109 230,-222 31,-106 114,-189 220,-220 115,-33 192,-115 222,-230z"/>
	<path id="curve1" fill="#252525" d="M8960 3840c353,0 640,288 640,640l0 2560c0,352 -288,640 -640,640l-3520 0c-278,0 -516,-179 -604,-428 171,-116 284,-311 284,-532l0 -1920c0,-221 -113,-417 -284,-532 88,-249 326,-428 604,-428l3520 0z"/>
	<path id="curve0" fill="#252525" d="M4480 4338l0 142c176,0 320,144 320,320l0 1920c0,176 -144,320 -320,320l0 640c0,352 -288,640 -640,640l0 0c0,352 -288,640 -640,640l-1280 0c-352,0 -640,-287 -640,-640l0 0c-352,0 -640,-287 -640,-640l0 -3321c-203,-337 -320,-731 -320,-1153 0,-1233 1000,-2234 2234,-2234 1233,0 2234,1001 2234,2234 0,413 -113,800 -308,1132zm-1926 -2732c-884,0 -1600,717 -1600,1600 0,884 716,1600 1600,1600 883,0 1600,-716 1600,-1600 0,-883 -717,-1600 -1600,-1600z"/>
</svg>
