<?xml version="1.0" encoding="UTF-8"?>
<!DOCTYPE svg PUBLIC "-//W3C//DTD SVG 1.1//EN" "http://www.w3.org/Graphics/SVG/1.1/DTD/svg11.dtd">
<svg xmlns="http://www.w3.org/2000/svg" xml:space="preserve" width="1024px" height="1024px" shape-rendering="geometricPrecision" text-rendering="geometricPrecision" image-rendering="optimizeQuality" fill-rule="nonzero" clip-rule="evenodd" viewBox="0 0 10240 10240" xmlns:xlink="http://www.w3.org/1999/xlink">
	<title>virus icon</title>
	<desc>virus icon from the IconExperience.com O-Collection. Copyright by INCORS GmbH (www.incors.com).</desc>
	<path id="curve0" fill="#252525" d="M5280 2565c285,17 557,82 809,185 0,-43 -2,-86 -6,-130 -14,-149 24,-305 119,-436 208,-286 608,-349 894,-142 286,208 349,608 142,894 -96,131 -232,216 -378,249 -17,3 -34,7 -51,12 102,89 196,186 283,291 100,121 270,151 406,73l282 -163c281,-162 470,-393 573,-701 48,-142 146,-269 287,-350 306,-177 697,-72 874,234 177,307 72,698 -234,875 -141,81 -299,103 -447,73 -318,-64 -612,-16 -893,146l-281 162c-136,79 -195,241 -140,389 86,231 140,477 156,734l15 0c324,0 604,-106 847,-320 113,-100 261,-160 423,-160 353,0 640,287 640,640 0,353 -287,640 -640,640 -162,0 -310,-60 -423,-160 -243,-214 -522,-320 -847,-320l-15 0c-12,191 -45,376 -96,554 80,-9 160,-25 241,-48 144,-43 304,-35 451,34 320,150 458,531 308,851 -149,320 -530,458 -850,308 -147,-68 -256,-186 -316,-324 -31,-72 -67,-139 -108,-201 -163,267 -375,503 -622,693l180 313c163,281 394,470 701,573 143,48 269,146 350,287 177,306 72,697 -234,874 -306,177 -698,72 -874,-234 -81,-141 -103,-299 -73,-447 64,-318 16,-612 -147,-893l-169 -293c-337,199 -724,323 -1137,348l0 15c0,324 106,604 320,847 100,113 160,261 160,423 0,353 -287,640 -640,640 -353,0 -640,-287 -640,-640 0,-162 60,-310 160,-423 214,-243 320,-522 320,-847l0 -15c-296,-18 -579,-87 -839,-197 -3,98 6,198 26,301 30,147 8,306 -73,447 -176,306 -568,411 -874,234 -306,-177 -411,-568 -234,-874 81,-141 207,-239 350,-287 99,-33 190,-75 274,-126 -163,-122 -312,-264 -442,-421 -100,-121 -270,-151 -406,-73l-282 163c-281,162 -470,393 -573,701 -48,142 -146,269 -287,350 -306,177 -697,72 -874,-234 -177,-307 -72,-698 234,-875 141,-81 299,-103 447,-73 318,64 612,16 893,-146l281 -162c136,-79 195,-241 140,-389 -69,-185 -117,-379 -142,-582 -82,46 -161,102 -236,168 -113,100 -261,160 -423,160 -353,0 -640,-287 -640,-640 0,-353 287,-640 640,-640 162,0 310,60 423,160 75,66 154,122 236,168 43,-350 156,-678 324,-969l-283 -164c-281,-162 -575,-210 -893,-146 -148,30 -306,8 -447,-73 -306,-177 -411,-568 -234,-875 177,-306 568,-411 874,-234 141,81 239,208 287,350 103,308 292,539 573,701l301 174c104,-137 221,-262 350,-375 -17,-5 -34,-9 -51,-12 -146,-33 -282,-118 -378,-249 -207,-286 -144,-686 142,-894 286,-207 686,-144 894,142 95,131 133,286 119,436 -4,44 -6,87 -5,129 252,-102 524,-167 808,-184l0 -15c0,-324 -106,-604 -320,-847 -100,-113 -160,-261 -160,-423 0,-353 287,-640 640,-640 353,0 640,287 640,640 0,162 -60,310 -160,423 -214,243 -320,522 -320,847l0 15z"/>
</svg>
