<?xml version="1.0" encoding="UTF-8"?>
<!DOCTYPE svg PUBLIC "-//W3C//DTD SVG 1.1//EN" "http://www.w3.org/Graphics/SVG/1.1/DTD/svg11.dtd">
<svg xmlns="http://www.w3.org/2000/svg" xml:space="preserve" width="1024px" height="1024px" shape-rendering="geometricPrecision" text-rendering="geometricPrecision" image-rendering="optimizeQuality" fill-rule="nonzero" clip-rule="evenodd" viewBox="0 0 10240 10240" xmlns:xlink="http://www.w3.org/1999/xlink">
	<title>voodoo_doll icon</title>
	<desc>voodoo_doll icon from the IconExperience.com O-Collection. Copyright by INCORS GmbH (www.incors.com).</desc>
	<path id="curve3" fill="#252525" d="M4027 3459l-112 41 933 1281c126,173 92,409 -70,545 -162,136 -401,129 -549,-25l-1365 -1418 -1048 381c-414,151 -629,611 -478,1025l0 0c150,414 611,629 1025,479l1298 -473c-309,1060 -554,2144 -578,3315 -10,496 242,957 730,1043l0 0c488,86 991,-237 1043,-730 64,-616 155,-1210 262,-1791 107,581 198,1175 262,1791 52,493 555,816 1043,730l0 0c488,-86 740,-547 730,-1043 -1,-31 -1,-62 -2,-94l-1759 -2412c-126,-173 -92,-409 70,-545 162,-136 401,-129 549,25l874 909c-89,-407 -196,-807 -312,-1203l1313 478c415,150 875,-65 1026,-479l0 0c150,-414 -64,-874 -478,-1025l-1512 -550 -907 942c-148,154 -387,161 -549,25 -162,-136 -196,-372 -70,-545l281 -386c-175,58 -362,90 -557,90 -413,0 -793,-142 -1093,-381z"/>
	<path id="curve2" fill="#252525" d="M5120 640c795,0 1440,645 1440,1440 0,795 -645,1440 -1440,1440 -795,0 -1440,-645 -1440,-1440 0,-795 645,-1440 1440,-1440z"/>
	<path id="curve1" fill="#252525" d="M2277 2811l2182 2268c38,39 87,25 113,2 27,-22 50,-68 18,-112l-1854 -2542c-53,84 -119,161 -199,228 -80,67 -168,119 -260,156zm5690 -645l-2182 2268c-38,39 -86,25 -113,2 -27,-22 -50,-67 -17,-112l1854 -2542c52,84 118,161 198,228 80,68 168,119 260,156zm-4 5908l-2182 -2268c-38,-39 -87,-25 -113,-2 -27,22 -50,67 -18,112l1854 2542c53,-84 119,-161 199,-228 80,-68 168,-119 260,-156z"/>
	<path id="curve0" fill="#252525" d="M8731 9455c271,-227 307,-631 79,-901 -227,-271 -631,-307 -901,-79 -271,227 -306,631 -79,901 227,271 631,306 901,79zm5 -8670c270,227 306,631 78,901 -227,271 -630,307 -901,79 -271,-227 -306,-631 -79,-901 227,-271 631,-306 902,-79zm-7227 645c-271,227 -306,631 -79,901 227,271 631,306 901,79 271,-227 306,-631 79,-901 -227,-271 -631,-307 -901,-79z"/>
</svg>
