<?xml version="1.0" encoding="UTF-8"?>
<!DOCTYPE svg PUBLIC "-//W3C//DTD SVG 1.1//EN" "http://www.w3.org/Graphics/SVG/1.1/DTD/svg11.dtd">
<svg xmlns="http://www.w3.org/2000/svg" xml:space="preserve" width="1024px" height="1024px" shape-rendering="geometricPrecision" text-rendering="geometricPrecision" image-rendering="optimizeQuality" fill-rule="nonzero" clip-rule="evenodd" viewBox="0 0 10240 10240" xmlns:xlink="http://www.w3.org/1999/xlink">
	<title>wall_barbed_wire icon</title>
	<desc>wall_barbed_wire icon from the IconExperience.com O-Collection. Copyright by INCORS GmbH (www.incors.com).</desc>
	<path id="curve1" fill="#252525" d="M1280 5120l1280 0 0 0c173,35 320,144 320,320l0 640c0,176 -144,320 -320,320l-1280 0 0 -1280zm2240 0l2560 0c176,0 320,144 320,320l0 640c0,176 -144,320 -320,320l-2560 0c-176,0 -320,-144 -320,-320l0 -640c0,-176 144,-320 320,-320zm3520 0l1920 0 0 1280 0 0 -1920 0c-176,0 -320,-144 -320,-320l0 -640c0,-176 144,-320 320,-320zm1920 1600l0 1280 -640 0c-176,0 -320,-144 -320,-320l0 -640c0,-176 144,-320 320,-320l640 0zm0 1920l0 640c0,176 -144,320 -320,320l-2561 0c-176,-1 -319,-144 -319,-320l0 -640c0,-176 144,-320 320,-320l2560 0c176,0 320,144 320,320l0 0zm-3839 960l-2562 0c-176,-1 -319,-144 -319,-320l0 -640c0,-176 144,-320 320,-320l2560 0c176,0 320,144 320,320l0 640c0,176 -144,319 -319,320zm-3520 0l-321 0 0 -1280 320 0c176,0 320,144 320,320l0 640c0,176 -144,319 -319,320zm-321 -1600l0 -1280 2560 0c176,0 320,144 320,320l0 640c0,176 -144,320 -320,320l-2560 0zm3520 -1280l2560 0c176,0 320,144 320,320l0 640c0,176 -144,320 -320,320l-2560 0c-176,0 -320,-144 -320,-320l0 -640c0,-176 144,-320 320,-320z"/>
	<path id="curve0" fill="#252525" d="M1280 2560l320 0 0 1919 320 2c159,0 304,-18 436,-50 -173,-136 -303,-298 -391,-469 -78,-151 -124,-309 -136,-461 -12,-157 10,-309 67,-445 107,-255 332,-445 675,-487l139 -279 138 277c330,35 553,205 670,440 72,-143 182,-262 332,-341l29 -266 197 185c75,-16 155,-25 242,-25 402,0 668,183 800,447 115,-230 333,-399 653,-438l139 -279 138 277c330,35 553,205 670,440 132,-264 399,-447 800,-447 77,0 149,7 216,19l221 -214 39 305c305,165 442,496 415,832 -30,367 -239,703 -525,928 132,32 277,50 436,50l320 -1 0 -1919 320 0 0 2240 -320 -1c-401,0 -726,16 -1121,-153 -470,201 -1120,206 -1600,0 -493,211 -1104,212 -1599,0 -446,191 -1165,187 -1601,0 -224,96 -491,153 -799,153l-640 0 0 -2239zm1720 1017l285 -53c16,-114 8,-236 -37,-343 -74,-176 -250,-301 -530,-301 -78,0 -148,10 -209,27l25 289 -252 -156c-113,116 -147,278 -134,436 11,138 59,273 129,392l273 -60 -118 262c79,82 175,157 288,220 212,-118 391,-296 492,-519l-212 -194zm554 743l-302 -43c-51,54 -107,105 -168,153 275,67 596,67 871,0 -189,-149 -343,-343 -436,-566 -29,70 -64,138 -104,201l139 255zm4246 -743l285 -53c53,-385 -168,-644 -567,-644 -78,0 -148,10 -209,27l25 289 -252 -156c-113,116 -147,278 -134,436 11,138 59,273 130,392l272 -60 -118 262c79,82 175,157 288,220 219,-122 376,-292 469,-473 8,-15 16,-30 23,-46l-212 -194zm-1081 287c-22,55 -49,108 -79,159l121 221 -249 -36c-66,79 -141,154 -228,222 274,67 598,67 872,1 -190,-149 -344,-343 -437,-567zm-519 -287l285 -53c2,-16 3,-31 5,-47 29,-368 -197,-597 -572,-597 -78,0 -148,10 -209,27l25 289 -252 -156c-113,116 -147,278 -134,436 28,349 274,648 572,814 212,-118 391,-296 492,-519l-212 -194zm-1081 287c-14,34 -29,67 -46,99 -88,170 -217,332 -389,467 274,67 598,67 872,1 -49,-38 -93,-78 -135,-120l-339 9 161 -226c-29,-43 -55,-87 -78,-132 -17,-32 -32,-65 -46,-98zm-1096 -393l-238 192c16,51 37,102 63,153 94,182 251,351 472,474 42,-24 82,-49 119,-75l-60 -297 256 122c139,-155 238,-354 255,-563 24,-306 -130,-540 -447,-588l-114 287 -172 -280c-187,38 -309,145 -367,284 -28,66 -43,141 -44,221l277 70z"/>
</svg>
