<?xml version="1.0" encoding="UTF-8"?>
<!DOCTYPE svg PUBLIC "-//W3C//DTD SVG 1.1//EN" "http://www.w3.org/Graphics/SVG/1.1/DTD/svg11.dtd">
<svg xmlns="http://www.w3.org/2000/svg" xml:space="preserve" width="1024px" height="1024px" shape-rendering="geometricPrecision" text-rendering="geometricPrecision" image-rendering="optimizeQuality" fill-rule="nonzero" clip-rule="evenodd" viewBox="0 0 10240 10240" xmlns:xlink="http://www.w3.org/1999/xlink">
	<title>wax_seal icon</title>
	<desc>wax_seal icon from the IconExperience.com O-Collection. Copyright by INCORS GmbH (www.incors.com).</desc>
	<path id="curve1" fill="#252525" d="M2632 6304c-582,898 -1014,1874 -1266,2681 -35,114 68,244 203,200l1165 -383c285,-94 581,-47 786,158l737 737c85,85 252,51 272,-91 128,-925 132,-1823 177,-2590 -369,44 -745,32 -1102,-83 -434,-140 -738,-355 -972,-629zm2568 623c129,801 247,1723 477,2669 38,156 219,143 283,58l634 -841c174,-231 475,-304 766,-173l1259 504c136,54 259,-83 208,-209 -321,-789 -815,-1732 -1424,-2630 -173,82 -355,141 -540,193 -324,90 -656,161 -982,241 -123,31 -246,71 -369,106 -103,29 -207,57 -312,82z"/>
	<path id="curve0" fill="#252525" d="M2301 2169c270,-562 701,-1419 1444,-1744 704,-308 1449,144 2059,325 519,153 1657,180 2037,687 313,418 217,1301 350,1797 264,986 99,1795 -285,2263 -501,610 -922,641 -2102,932 -389,96 -1298,458 -2101,199 -844,-272 -1113,-881 -1402,-1619 -168,-431 -726,-725 -700,-1420 32,-883 459,-916 700,-1420zm2819 -889c-1237,0 -2240,1003 -2240,2240 0,1237 1003,2240 2240,2240 1237,0 2240,-1003 2240,-2240 0,-1237 -1003,-2240 -2240,-2240zm0 640c-884,0 -1600,716 -1600,1600 0,884 716,1600 1600,1600 884,0 1600,-716 1600,-1600 0,-884 -716,-1600 -1600,-1600z"/>
</svg>
