<?xml version="1.0" encoding="UTF-8"?>
<!DOCTYPE svg PUBLIC "-//W3C//DTD SVG 1.1//EN" "http://www.w3.org/Graphics/SVG/1.1/DTD/svg11.dtd">
<svg xmlns="http://www.w3.org/2000/svg" xml:space="preserve" width="1024px" height="1024px" shape-rendering="geometricPrecision" text-rendering="geometricPrecision" image-rendering="optimizeQuality" fill-rule="nonzero" clip-rule="evenodd" viewBox="0 0 10240 10240" xmlns:xlink="http://www.w3.org/1999/xlink">
	<title>windows_close icon</title>
	<desc>windows_close icon from the IconExperience.com O-Collection. Copyright by INCORS GmbH (www.incors.com).</desc>
	<path id="curve2" fill="#252525" d="M1280 640l6400 0c353,0 640,288 640,640l0 320 -3200 0c-529,0 -960,431 -960,960l-2880 0 0 3840 320 0 0 640 -640 0c-176,0 -320,-144 -320,-320l0 -4160 0 -320 0 -960c0,-353 288,-640 640,-640z"/>
	<path id="curve1" fill="#252525" d="M9600 7115l0 2165c0,176 -144,320 -320,320l-7040 0c-176,0 -320,-144 -320,-320l0 -5440c0,-352 288,-640 640,-640l1600 0 0 1920 -1600 0 0 3840 6400 0 0 -1600 0 0c246,0 470,-93 640,-245z"/>
	<path id="curve0" fill="#252525" d="M5120 1920l3840 0c353,0 640,287 640,640l0 3840c0,353 -287,640 -640,640l-3840 0c-353,0 -640,-287 -640,-640l0 -3840c0,-353 287,-640 640,-640zm110 3691l679 679 1131 -1131 1131 1131 679 -679 -1131 -1131 1131 -1131 -679 -679 -1131 1131 -1131 -1131 -679 679 1131 1131 -1131 1131z"/>
</svg>
