<?xml version="1.0" encoding="UTF-8"?>
<!DOCTYPE svg PUBLIC "-//W3C//DTD SVG 1.1//EN" "http://www.w3.org/Graphics/SVG/1.1/DTD/svg11.dtd">
<svg xmlns="http://www.w3.org/2000/svg" xml:space="preserve" width="1024px" height="1024px" shape-rendering="geometricPrecision" text-rendering="geometricPrecision" image-rendering="optimizeQuality" fill-rule="nonzero" clip-rule="evenodd" viewBox="0 0 10240 10240" xmlns:xlink="http://www.w3.org/1999/xlink">
	<title>window_key icon</title>
	<desc>window_key icon from the IconExperience.com O-Collection. Copyright by INCORS GmbH (www.incors.com).</desc>
	<path id="curve1" fill="#252525" d="M2240 6400l-414 -414c-124,-124 -124,-328 0,-452l320 -320c63,-63 138,-94 227,-94l2880 0c247,-565 811,-960 1467,-960 884,0 1600,716 1600,1600 0,884 -716,1600 -1600,1600 -656,0 -1220,-395 -1467,-960l-453 0 -207 -207c-62,-62 -164,-62 -226,0l-207 207 -207 -207c-62,-62 -164,-62 -226,0l-207 207 -207 -207c-62,-62 -164,-62 -226,0l-207 207 -207 -207c-62,-62 -164,-62 -226,0l-207 207zm4951 -1111c-260,0 -471,211 -471,471 0,260 211,471 471,471 260,0 471,-211 471,-471 0,-260 -211,-471 -471,-471z"/>
	<path id="curve0" fill="#252525" d="M1280 1280l7680 0c353,0 640,288 640,640l0 6720c0,176 -144,320 -320,320l-8320 0c-176,0 -320,-144 -320,-320l0 -6720c0,-353 288,-640 640,-640zm0 1920l0 5120 7680 0 0 -5120 -7680 0z"/>
</svg>
