<?xml version="1.0" encoding="UTF-8"?>
<!DOCTYPE svg PUBLIC "-//W3C//DTD SVG 1.1//EN" "http://www.w3.org/Graphics/SVG/1.1/DTD/svg11.dtd">
<svg xmlns="http://www.w3.org/2000/svg" xml:space="preserve" width="1024px" height="1024px" shape-rendering="geometricPrecision" text-rendering="geometricPrecision" image-rendering="optimizeQuality" fill-rule="nonzero" clip-rule="evenodd" viewBox="0 0 10240 10240" xmlns:xlink="http://www.w3.org/1999/xlink">
	<title>wristwatch icon</title>
	<desc>wristwatch icon from the IconExperience.com O-Collection. Copyright by INCORS GmbH (www.incors.com).</desc>
	<path id="curve2" fill="#252525" d="M6045 4863l-445 257 0 0c0,265 -215,480 -480,480 -265,0 -480,-215 -480,-480 0,-87 23,-169 64,-240l-420 -729c120,-104 261,-186 415,-240l421 729c87,0 169,23 240,64l445 -257c112,115 196,257 240,416z"/>
	<path id="curve1" fill="#252525" d="M5120 2880c1128,0 2062,834 2217,1920l343 0 0 640 -343 0c-155,1086 -1089,1920 -2217,1920 -1237,0 -2240,-1003 -2240,-2240 0,-1237 1003,-2240 2240,-2240zm0 640c-884,0 -1600,716 -1600,1600 0,884 716,1600 1600,1600 884,0 1600,-716 1600,-1600 0,-884 -716,-1600 -1600,-1600z"/>
	<path id="curve0" fill="#252525" d="M4160 640l1920 0c176,0 320,144 320,320l0 1943c-377,-218 -814,-343 -1280,-343 -466,0 -903,125 -1280,343l0 -1943c0,-176 144,-320 320,-320zm2240 6697l0 1943c0,176 -144,320 -320,320l-1920 0c-176,0 -320,-144 -320,-320l0 -1943c377,218 814,343 1280,343 466,0 903,-125 1280,-343z"/>
</svg>
